<svg xmlns="http://www.w3.org/2000/svg" xmlns:xlink="http://www.w3.org/1999/xlink" width="414" height="239" viewBox="0 0 414 239">
  <defs>
    <clipPath id="clip-_._assets_departments-map-bfc_">
      <rect width="414" height="239"/>
    </clipPath>
  </defs>
  <g id="_._assets_departments-map-bfc_" data-name="./assets/departments-map-bfc " clip-path="url(#clip-_._assets_departments-map-bfc_)">
    <rect width="414" height="239" fill="#fff"/>
    <path id="path258" d="M1081.125,242.541l-4.513-1-5.025,1.526.369,3.63,4.308,5.022.044,6.868-3.164,4.707,1.057,4.328,6.5,5.048.365,5.022,3.658,7.617-.694,8.669,3.968,3.915-1.021,9.425-.315,4.679,1.8,3.23-2.684,8.868.251,2.705,6.127,2.851,4.313,4.718,3.873-2.218,3.574-2.166.764,3.236,5.29-.036,1.407-2.9,3.2,1.421,1.115,4.681,2.853-.718,6.741-9.463,3.556,2.513.574,1.1,5.576-3.559,2.292.279,1.8,4.382,3.363-.548,2.552-2.622,3.317-.023,2.548-3.369,2.566-.533.511-1.866,5.6.256.277-1.325-2.585-2.305-.015-2.307,3.577-2.11-.01-1.553-3.4-2.066-.541-3.863.264-3.641-2.305-1.559,1.989-2.835,1.813-1.062,1.223-3.122-1.777-1.038-2.071-3.112,2.557-3.654,4.33-2.63,5.358-.036-.026-4.105,1.531-.534-.01-1.551-2.305-3.636-5.167-1-1.781-3.115.726-2.83.484-3.94-.943-2.072-5.684,3.969-2.34,1.057-3.092-2.056.246-5.22-3.384.023-2.79,1.871-.752-2.364,1.508-2.623-1.835-2.282-2.04,3.128.3,2.305-4.855-.2-7.766-7.225-5.873-.184-.026-3.941-4.127-2.574-.836-3.353-1.253-.223.043,6.484-2.281.526-3.384-1.015L1107,249.641l-2.044.538-2.076-1.782-2.04,1.064-4.657-3.1-3.315.021-2.341-1.541.5-2.885-2.587-2.308-2.3.016L1084.4,242.5Z" transform="translate(-1012.697 -151.154)" fill="#ff697f" stroke="#fff" stroke-width="1"/>
    <path id="path370" d="M1090.265,189.089l-6.374,3.276-2.471,5.456,2.879,3.215-4.256,5.11-3.233,3.959,6.5,6.141,1.8,5.771,4.7,4.994.044,6.53-9.24,7.987,3.214,3.613-.644,5.381-5.012,3.684-7.128.048,1.11,3.981,4.664,6.443,1.142,5.774,1.112,3.981-2.11.662,4.512,1,3.376-.023,1.748-2.836,2.3-.015,2.594,2.307-.513,2.885,2.346,1.543,3.315-.023,4.658,3.1,2.041-1.066,2.074,1.784,2.046-.539,3.525-2.33,3.381,1.013,2.281-.526-.043-6.484,1.253.225.831,3.353,4.13,2.572.026,3.941,5.877.184,7.766,7.227,4.866.207-.3-2.31,2.041-3.128,1.834,2.284-1.507,2.622.753,2.362,2.79-1.867,3.377-.021-.249,5.214,3.092,2.054,2.34-1.056,5.679-3.969-.344-.753-3.4-2.056-.246-3.631,3.577-1.817,1.512-2.085-1.044-1.789-.026-4.176L1164,274.3l4.048-8.878.71-3.879,2.575-1.054.274-.746-1.315-1.038-.02-3.128,4.082-3.144,1-5.22-1.785-3.054-2.856.018-.741-.8-.03-4.384,3.574-2.638-.3-2.6-.525-2.6-1.805,4-2.508-.333-2.143-3.974-7.1,3.679-14.293-.651-1.8-3.976-3.984-5.351-.716-6.537-5.768-6.832-3.572,2.566-6.478-5,1.007-9.768-9.315-9.709-4.276.028-2.52-2.13-3.181,2.517Z" transform="translate(-1013.044 -184.711)" fill="#acbaf2" stroke="#fff" stroke-width="1"/>
    <path id="path38" d="M1150.844,216.6l-11.757.426.525,2.6.3,2.6-3.574,2.636.028,4.384.743.8,2.854-.018,1.785,3.054-.985,5.218-4.092,3.141.02,3.131,1.315,1.038-.274.746-2.574,1.054-.71,3.876-4.049,8.881-2.777,4.171.026,4.176,1.041,1.789-1.51,2.085L1123.6,274.2l.243,3.635,3.4,2.054,1.275,2.83-.49,3.94-.723,2.83,1.782,3.115,5.166,1.01,2.308,3.631.01,1.548-1.53.536.025,3.766.287.1,6.948,7.184,7.2-.289,6.43,4.882,4.656,3.374.272,4.394,4.873,1.012,4.118,3.326,10.781-3.954,7.407-2.417,3.31-.546,1.023-1.5,3.6.213,2.808,1.762,4.115-1.066,4.077-2.864,3.1.328.048-.348,2.444-1.459-.354-1.839-.7-2.135,1.756-2.9,6.027-2.931-.02-2.89,2.153-2.907,2.1-2.905-.708-2.549,1.007-3.982.7-5.792,1.425-.008-.357-2.143-1.436-1.433-.438-7.23-3.2-.315-.731-5.781-3.953-1.826,1.413-1.792,2.163-.716,4.584-5.459-.408-2.889-2.9-5.768-4.235-.718-1.466,3.643-7.8,1.853-.757-1.8-5.751-7.189-3.184,1.82-4.279-.321-1.444-2.882-5.714.4-.382-6.128-3.21-2.187,4.6-5.054-8.306-11.163-6.438-6.84-5.733-3.2-10.352.069-.705,4.7Z" transform="translate(-979.434 -170.576)" fill="#acbaf2" stroke="#fff" stroke-width="1"/>
    <path id="path54" d="M1190.886,255.492l-.7,5.791-1.007,3.982.71,2.549-2.1,2.905-2.149,2.907.018,2.89-6.025,2.931-1.756,2.892.7,2.135.354,1.839-2.444,1.459-.374,4.7,2.861.318,3.284,5.425,3.953-.026,2.131,2.518,2.505-.018-.717,2.9-8.217,1.105.762,2.887,2.861,1.823.023,3.589-1.064,1.1,2.182,2.884,3.233,5.763-1.384,6.138-3.577,2.559.425,5.023,4.294,1.418,1.439,2.194-3.567,2.917-9.381,1.226,4.4,1.7,7.2,10.07,4.648,2.107.034,5.086,5.368-.78,6.743-7.625,5.732,2.854.028,4.333,10.353-.069,14.73-16.634-.634-.344.631-7.571,5.328-6.527-3.61-1.412.33-2.207-4.332-.369-.3-2.6,2.782-2.863-.756-2.831-1.567-3.626,6.381-2.118,2.316-3.372.5-4.164-5.189-4.933-3.6-.956-7.932-2.549-.048-7.3-.562-5.425-6.4.556-10.009-3.34,1.5-3.6,2.274-5.5.771-3.6-2.594-3.39-4.641-3.1-.559-3.867.041-2.2-3.145-.1-1.752,1.81-4.63.031-3.114-2.581-2.72-.728.153.979Z" transform="translate(-945.854 -141.663)" fill="#4267cb" stroke="#fff" stroke-width="1"/>
    <path id="path238" d="M1222.3,211.641l-3.574,2.563-2.462-2.876-1.769,1.105,1.385,2.138-3.533,2.207,1.115,2.882-3.951,1.469.031,4.686-5.024.033-.324,2.9-4.958,1.131.371,4.33,3.2.328-1.759,2.148-1.036,7.237-3.2.02-5.354,2.226-5.73-2.153-4.949,2.221.025,3.648,3.885.664,2.9,5.764L1188,259.2l-4.585,5.461-2.161.716-1.413,1.79,3.954,1.828.731,5.779,3.2.318.441,7.227,1.435,1.433.188,1.167,2.725.728,3.113,2.581,4.63-.031,1.753-1.81,3.143.1,3.264.093,7.151-6.005,2.064-.015,2.268-1.81,7.425.182,5.624-4.713,4.108-.772,1.531-3.892,3.292-1.064,3.256-5.743,4.609-3.666,4.861-.784,3.608,2.574,6.673-.849-.025-3.64,2.687-1.572,2.1-2.963,4.123-.028,2.254-2.441.826-5.791-.025-3.592-1.579-5.482-.029-4.618,2.789-2.107,3.282-1.753-.341-.7-11.457-6.056-3.227-3.613-3.208-2.113L1260.22,215l-.408,2.149-2.853,1.815-1.756.012-5.4-6.1-7.489.051-3.179,2.574-2.858.357-4.653-3.553.318-3.986-1.836-1.43-6.727,1.139Z" transform="translate(-943.475 -172.099)" fill="#ff697f" stroke="#fff" stroke-width="1"/>
    <path id="path318" d="M1259.777,234.5l-2.094,2.963L1255,239.036l.023,3.636-6.676.849-3.607-2.576-4.861.785-4.607,3.666-3.257,5.743-3.294,1.067-1.531,3.894-4.109.772-5.623,4.713-7.425-.187-2.267,1.81-2.064.015-7.151,6.005-3.264-.1-.039,2.2.556,3.868,4.641,3.1,2.6,3.391-.777,3.6-2.269,5.5-1.5,3.6,10.006,3.34,6.389-.556.574,5.427.048,7.294,7.932,2.549,3.6.956,5.189,4.933-.494,4.166-2.317,3.371-6.381,2.118,1.566,3.626.756,2.831-2.782,2.862.305,2.6,4.331.369.062-.344,21.951-21.134-.792-17.349,7.794-3.981,5.343-2.579,4.933-4.709.361-6.9,4.953-2.569,11.347-13.437-1.812-4.323,3.935-1.821,4.586-5.815-2.523-2.515-8.55,1.843-.353-1.444,7.82-9.242-22.057-9.917-.336.41Z" transform="translate(-933.623 -154.74)" fill="#4267cb" stroke="#fff" stroke-width="1"/>
    <text id="CÔTE-D_OR" data-name="CÔTE-D&apos;OR" transform="translate(194.613 111.827)" fill="#222221" font-size="10" font-family="LibeSansSemiCondensed-Regular, LibeSans SemiCondensed"><tspan x="-17.265" y="0">CÔTE-D&apos;OR</tspan></text>
    <text id="NIÈVRE" transform="translate(109.397 141.754)" fill="#222221" font-size="10" font-family="LibeSansSemiCondensed-Regular, LibeSans SemiCondensed"><tspan x="-11.295" y="0">NIÈVRE</tspan></text>
    <path id="path262" d="M1140.337,266.876l-4.325,2.63-2.551,3.654,2.069,3.112,1.784,1.034-1.229,3.123-1.817,1.062-1.984,2.836,2.3,1.559-.266,3.641.538,3.863,3.4,2.066.01,1.553-3.574,2.11.015,2.308,2.585,2.308-.272,1.318-5.6-.257-.516,1.869-2.564.531-2.554,3.369-3.313.021-2.549,2.621-3.371.548-1.8-4.384-2.284-.279-5.576,3.559,6.715,12.56.036,5.433,1.774,2.2,6.055-.039,2.133,2.877,5.707-.038,2.541,3.564L1131.6,353.3l-7.451,5.837-.172.41.536-.057,1.085.343.382,5.786,5.367,1.062.708,2.531,2.858-.02,4.261-2.564,11.437,1.721,2.19,2.177,2.841-2.91,3.928-.026L1161.611,356l1.417-1.1,3.553-.023,4.359,2.864,3.184-2.913,2.128,2.877,3.235-3.258,3.884-.367,1.857,5.759,1.434,7.22,2.509.331,2.148-5.1,6.561-26.761,2.476-4.7,3.956-.444,3.951,3.287,2.853-.779,3.52-2.569,3.605.73,2.146,4.674,2.051.8,9.381-1.225,3.569-2.918-1.439-2.192-4.289-1.42-.425-5.022,3.572-2.561,1.384-6.136-3.233-5.764-2.182-2.882,1.064-1.1-.023-3.59-2.861-1.822L1226.2,297l8.212-1.105.716-2.9-2.505.016-2.131-2.518-3.958.026-3.284-5.423-2.861-.318.316-4.345-3.1-.328-4.077,2.864-4.115,1.066-2.808-1.762-3.6-.213-1.021,1.5-3.313.546-7.409,2.417-10.776,3.954-4.123-3.326-4.873-1.012-.272-4.394-4.656-3.374-6.427-4.884-7.2.289-6.955-7.186-.287-.1,0,.336Z" transform="translate(-990.12 -133.985)" fill="#6a85f4" stroke="#fff" stroke-width="1"/>
    <text id="SAÔNE-ET-LOIRE" transform="translate(185.613 184.496)" fill="#222221" font-size="10" font-family="LibeSansSemiCondensed-Regular, LibeSans SemiCondensed"><tspan x="-25.695" y="0">SAÔNE-ET-LOIRE</tspan></text>
    <text id="DOUBS" transform="translate(302.628 128.5)" fill="#222221" font-size="10" font-family="LibeSansSemiCondensed-Regular, LibeSans SemiCondensed"><tspan x="-11.875" y="0">DOUBS</tspan></text>
    <text id="JURA" transform="translate(261.62 176.17)" fill="#222221" font-size="10" font-family="LibeSansSemiCondensed-Regular, LibeSans SemiCondensed"><tspan x="-8.16" y="0">JURA</tspan></text>
    <text id="HAUTE-SAÔNE" transform="translate(281.628 84.461)" fill="#222221" font-size="10" font-family="LibeSansSemiCondensed-Regular, LibeSans SemiCondensed"><tspan x="-22.955" y="0">HAUTE-SAÔNE</tspan></text>
    <text id="YONNE" transform="translate(98.397 50.322)" fill="#222221" font-size="10" font-family="LibeSansSemiCondensed-Regular, LibeSans SemiCondensed"><tspan x="-11.1" y="0">YONNE</tspan></text>
    <path id="path322" d="M1238.228,221.708l.025,3.751,1.282,4.454.02,2.919-.671,4.7-1.555,1.65,17.914,8.058,1.1-1.325,3.844-.642-1.473-6.232-.911-3.233-4.076.638-.585-3.516,1.423-2.69.266-3.525-.855-2.012-5.257-4.094-4.644-.252-.911-1.774-2.666,1.43Z" transform="translate(-906.709 -159.768)" fill="#6a85f4" stroke="#fff" stroke-width="1"/>
    <text id="TERRITOIRE-DE-_BELFORT" data-name="TERRITOIRE-DE-
BELFORT" transform="translate(340.752 65.817)" fill="#222221" font-size="10" font-family="LibeSansSemiCondensed-Regular, LibeSans SemiCondensed"><tspan x="-24.285" y="0">TERRITOIRE-DE-</tspan><tspan x="-14.455" y="10">BELFORT</tspan></text>
  </g>
</svg>
