<svg xmlns="http://www.w3.org/2000/svg" xmlns:xlink="http://www.w3.org/1999/xlink" width="414" height="239" viewBox="0 0 414 239">
  <defs>
    <clipPath id="clip-_._assets_departments-map-occ">
      <rect width="414" height="239"/>
    </clipPath>
  </defs>
  <g id="_._assets_departments-map-occ" data-name="./assets/departments-map-occ" clip-path="url(#clip-_._assets_departments-map-occ)">
    <rect width="414" height="239" fill="#fff"/>
    <path id="path134" d="M1048.628,508.49l-5.72.037.4-2.057-2.868.439L1034.36,509l-2.051-3.729-4.081,3.769,1.254,2.9-4.5,2.081-.753,4.549-3.687,1.7,3.305,3.675-.822,2.482,14.363,6.927,1.282,9.941.036,5.372.88,7.006-7.344.048-2.021,2.917,9.435,7.785,5.288-2.943,6.561,7.832-.969.09,1.241.738,11.689-5.862-2.887-4.229-.267-5.015,27.389-.18-.537-3.731,6.257-3.461,7.331,5.759,3.793,1.747-.29-8.363.255-9.623-3.456.3-2.931-4.343,2.286-3.838,4.925,4.645,4.31-3.528,2.9-2.915.341-3.09-3.693-.115-1.336-4.213-3.64-.257-3.455-5.019-2.635.3-3.1-1.855-.589-4.485-1.558.8.81,3.174-3.621.024-.244,5.278-5.434,1.9-2.675-5.539-3.625,2.408-3.158-2.362-1.587-3.68,2.606-3.2-1.255-3.412-.327.1-8.61.057-8.958-1.582-2.45.016-.385,5.368Z" transform="translate(-847.655 -365.796)" fill="#ff697f" stroke="#fff" stroke-width="1"/>
    <path id="path138" d="M1125.127,475.382l-1.539,5.573-3.139.021-1.082-2.37-2.1.013-1.54,1.363-1.869-1.067-.016-2.384-4.165-1.425.011,1.556-4.885.814-2.434,2.138.822,4.944-4.491.029-4.507-2.453-2.438.016.019,2.9.474,8.648-7.354.048-1.64,3.337-10.59,3.766-4.082-2.829-2.418,3.712-1.182,4.119,4.517,4.12-1.627,5.4-6.161,2.009,1.255,3.411-2.608,3.2,1.582,3.68,3.156,2.365,3.625-2.409,2.675,5.542,5.434-1.909.244-5.271,3.651-.024-.81-3.18,1.555-.8.593,4.478,3.1,1.863,2.638-.3,3.453,5.02,3.636.257,1.34,4.209,3.685.115.179-1.588,10.374-3.309,1.143-2.622,8.067-.335,2.563-3.243,15.539-12.688,9.749-7.07,3.978.256,3.524-3.264,5.476-3.215-.025-3.919-3.19-7.423L1148.667,484l-1.882-3.167-4.956-2.584-2.891,1.612-1.813-2.136-.827-6.866-4.713-.493-3.9,5.024Z" transform="translate(-834.685 -376.991)" fill="#ff697f" stroke="#fff" stroke-width="1"/>
    <path id="path142" d="M1087.192,545.824,1059.8,546l.267,5.006,2.887,4.234-11.69,5.866-1.24-.738-9.654.762-1.177,2.474-4.885,1.286-3.262,2.93-8.939,2.169.524,3.084,4.364,4.083,8.647,2.291.313,5.23,4.641,4.093,3.453-.631,4.905-6.155,6.04-1.206,9.54,3.162,8.12,6.968,2.292-2.96,2.03-.013,2.042,1.438,1.7-.856.252-4.126,8.676-2.107,2.845-3.813,4.324-1.481,6.056-.04,3.809,4.047,4.621.29-.032-4.685-2.328-3.212-4.081-1.746-.817-25.536-3.794-1.75-7.33-5.754-6.257,3.461Z" transform="translate(-847.143 -354.764)" fill="#ff697f" stroke="#fff" stroke-width="1"/>
    <path id="path174" d="M1009.968,516.859l3.671,2.635,1.078,1.868-.782,1.56-6.276.6-1.782,2.629.24.79,2.361.777,1.343,1.867-1.546,2.625-1.848-.211-2.878-2.663-3.435-.992-3.361.248-5.984,3.732.264,5.05,1.574,1.057-.989,3.941-6.826,1.916-2.561,3.2.034,5.286,1.062,1.571-2.425,2.311,1.58.89,8.915,1.672,3.792-.025,4.943,6.418,12.415-.684,4.946,7.86,4.331-1.8,12.709,1.692.961,5.378,8.941-2.166,3.261-2.926,4.891-1.291,1.177-2.474,10.624-.862-6.564-7.816-5.291,2.94-9.435-7.785,2.018-2.919,7.347-.048-.883-7.005-.034-5.368-1.274-9.949-14.371-6.923.821-2.487-2.752-3.068-2.307,1-3.135.534-5.792-2.621-1.571-.5,2.369,2.882-.993,2.384-5-.49-.239-2.654-2.939-3.963-1.8-.506-1.836,1.318Z" transform="translate(-860.565 -362.792)" fill="#ff697f" stroke="#fff" stroke-width="1"/>
    <path id="path182" d="M1023.862,479.324l-1.579-1.819-2.869-.257-.533,2.663-1.8.758,2.6,1.34-1.78,2.917-6.548,1.912-2.89-3.43-2.584.017-2.126,1.316-7.566.049-.779.326.8,2.857,4.465,4.452-.219,2.374,3.387,3.435,2.134-.015,1.03,2.609,2.63.264.8,2.373-2.618,1.108-5.482,2.415-2.549,6.094-2.027,6.326-1.331,1.882-4.184-2.866-9.7-.728-5.173,6.914-2.85,1.6-1.835,2.628-2.057,3.2.012,1.863-3.369,1.336-2.6,4.5-.269,2.376,4.745,3.439.807,3.4-1.559,2.687,3.143-1.1,1.574,1.344,1.332,5.5-3.638,2.173.3,2.891-1.833,1.839-2.593-1.3-2.917.02.476,15.71,11.739.712.5-14.356,4.025.577,5.978,3.461,2.425-2.311-1.055-1.559-.034-5.287,2.56-3.2,6.826-1.916.989-3.937-1.572-1.058-.265-5.048,5.984-3.736,3.361-.245,3.436.989,2.877,2.663,1.849.214,1.544-2.625-1.346-1.868-2.358-.774-.237-.79,1.776-2.628,6.276-.6.781-1.558-1.073-1.873-3.672-2.634.782-1.6,1.836-1.314,1.8.5,2.939,3.963.24,2.654,5,.491.989-2.384-2.368-2.881,1.57.5,5.793,2.626,3.135-.534,2.307-1-.555-.6,3.687-1.7.752-4.547,4.5-2.08-1.251-2.9,4.083-3.766,2.051,3.725,6.076-2.091,1.152-.194.085-1.924-.024-3.741-3.139.579-3.92-1.054-3.447-4.184-1.314-1.859-6.815-2.86-1.578-2.366,2.072-.817-.019-2.893-2.095-2.365-2.665-4.237-.257-3.695-.785-.517L1033,480.558l-1.324-3.915-2.36-1.059-4.193,1.611Z" transform="translate(-866.149 -375.291)" fill="#ff697f" stroke="#fff" stroke-width="1"/>
    <path id="path186" d="M1042.7,461.576l-1.069-2.369-2.348,1.373-.236-.565-1.331,1.367-4.157,1.607-3.4,2.14-8.858,1.133-1.033,4.5,3.418-.023-3.4,3.2-1.554,2.907-4.949.033,2.6,2.878-1.454,2.484.458.195,1.32,3.909,3.166,3.723.786.518.256,3.695,2.666,4.233,2.093,2.364.019,2.893-2.072.817,1.578,2.364,6.815,2.859,1.317,1.864,3.447,4.188,3.935,1.055,3.138-.578.024,3.743L1043.8,522l1.709-.24-.4,2.054,5.72-.038,5.321,1.644.385-5.377,2.45-.016,8.956,1.59,8.6-.056,6.5-2.095,1.627-5.4-4.517-4.118,1.179-4.124,2.422-3.708,4.081,2.829,10.589-3.766,1.644-3.33-5.418-3.469-2.354-.541-1.543,2.117-3.138.8-5-2.583-5.258-6.845-.02-2.887-2.909-5.319.265-2.378-2.4-6.061-4.449-2.075-3.177-5.555-8.646-1.535-4.962-3.656-4.985.315Z" transform="translate(-849.854 -381.061)" fill="#ff697f" stroke="#fff" stroke-width="1"/>
    <path id="path150" d="M942.01,495.857,946.957,504l-3.167,2.959,2.333,3.484,3.5,5.221-2.832,3.79-4.558,10.554-7.762,6.78,2.057,4.106-1.742,1.184-4.3-.874-1.139,9.634-2.3,1.791-.415,6.037.734-.435,4.912,2.9,5.8,4.36.582,3.5,4.636,3.749,3.792-.025,9.484-4.185,4.053,4.653,5.507,1.453,2.006-3.513,2.593,1.149,5.586.333-.475-15.714,2.914-.02,2.6,1.3,1.832-1.84-.3-2.891,3.638-2.168-1.335-5.5-1.57-1.346-3.143,1.1,1.558-2.682-.806-3.4-4.745-3.439.268-2.376,2.6-4.5,3.369-1.336-.012-1.871,2.055-3.192,1.376-1.982-5.283-2.723-7.071.046-1.075-2.15-3.654.024-1.066-2.366-3.382.023-1.045,1.092-3.933.026-.249-2.382-3.154-2.083,1.054-1.088.49-2.618-.787-.781-1.594-4.242-3.422-.5-3.386-1.845.2-5-4.435.029-2.861,1.559Z" transform="translate(-878.243 -369.236)" fill="#fda7b4" stroke="#fff" stroke-width="1"/>
    <path id="path178" d="M974.248,468.972l-5.214.6-4.893.907L962.1,467.6l-4.591,4.708-3.445-2.915-2,4.4.3,3.78-3.18.921-1.446-2.057-1.454-4.376-4.049,3.526-2.868-1.148-3.182.631-2.848,3.518,3.458,5.816-2.293,2.343.916,4.942-2.834,3.813-2.006,5.585,2.339,4.089,7.3.476,2.862-1.555,4.434-.029-.2,5,3.386,1.848,3.423.5,1.592,4.245.787.786-.487,2.618-1.057,1.09,3.154,2.081.251,2.381,3.932-.025,1.045-1.087,3.381-.021,1.067,2.366,3.654-.024,1.075,2.146,7.073-.048,5.283,2.731.46-.659,2.849-1.595,5.173-6.914,9.7.728,4.184,2.866,1.331-1.882,2.027-6.326,2.549-6.093,5.482-2.419,2.618-1.1-.8-2.374-2.629-.264-1.03-2.609-2.135.015-3.388-3.437.22-2.38-4.466-4.446-.8-2.854-2.862,1.29-.789-1.587,1.824-2.9-2.136-2.093-.025-3.695-1.811-1.871-5.784-.243-.021-3.42,3.129-2.4-.017-2.655,3.4-1.619-1.849-1.025-2.064,1.051-4.211.028-1.3-1.206-.687.239-1.462,1.461-4.38-4.331-8.63.9Z" transform="translate(-876.956 -379.083)" fill="#ff697f" stroke="#fff" stroke-width="1"/>
    <path id="path102" d="M1092.738,415.351l-5.2-3.465-3.978,12.881-4.1,9.72,6.106,7.484-.381,5.805,4.082,2.862.046,7.02,1.3,9.908,4.917,2.069-.4,3.272,6.924-1.265,2.449,1.2-1.517,1.367,8.962,5.976,7.607-1.645,1.288-1.888-1.087-2.608,3.135-.809,4.46,4.167,7.582.752,3.385-5.311-.029-4.474,2.056-2.4-1.84-.51-.04-6.076-4.2-4.452,3.418-.591,1.788-1.589,1.409-2.808-1.433-.89.8-6.17-4.924-5.345-2.1-10.734-7.416-9.434-5.349,1.339-1.181-4.057-2.9.02-.526,3.5-7.466,2.384-5.3-13.433L1095,410.124Z" transform="translate(-828.466 -397.586)" fill="#ff697f" stroke="#fff" stroke-width="1"/>
    <path id="path114" d="M1073.014,422.7l-2.027.013-.793,6.6-2.02.859-1.605,3.7-9.011.058-.792-1.209-4.106.026-2.425,4.146-.888-.106-.492,1.652-1.84,2.116-5.215.034-1.054,1.364-2.592-.265-4.668,5.3-1.572-.505-3.361,2.919,1.046,5.263,2.667,3.965-2.014,2.158.5,6.032,4.16.253-2.316,4.791,1.888,4.767,2.348-1.376,1.069,2.366,3.357-3.434,4.985-.314,4.962,3.656,8.642,1.533,3.176,5.556,4.449,2.083,2.392,6.057-.262,2.385,2.909,5.316.019,2.889,5.252,6.845,5,2.582,3.137-.809,1.546-2.116,2.354.544,5.423,3.463,7.354-.048-.477-8.648-.019-2.9,2.441-.016,4.507,2.453,4.488-.029-.822-4.944,2.431-2.136,4.892-.817-.028-4.156,5.284-2.508-1.277-5.746-4.491.03-4.067-.818-.858-3.318,3.274-.825-.026-4.144,3.211-2.926-2.445-1.2-6.924,1.259.4-3.269-4.91-2.075-1.307-9.9-.045-7.02-4.082-2.866.38-5.8-8.67-10.668-.879-8.254-2.823.019-1.3-8.271-5.727.883-.814-5.377-.842-1.242-8.132,7.1Z" transform="translate(-845.044 -397.115)" fill="#acbaf2" stroke="#fff" stroke-width="1"/>
    <path id="path170" d="M1016.979,405.159l.187.281-1.973,1.743.021,3.24,2.608,2.879L1015.263,418l-2.3,1.5-.306,2.9-4.888.636.3,3.178,1.755.6-4.026,5.861-6.321.607-.249,4.392L996.6,440.3,995.2,444.15l-5.763.32,2.361,8.724,2.486,5.409,3.7-.164.243,1.55-2.062,2.393,1.6,3.168,2.353-.016,2.6,2.881,2.357-.016,1.831-2.122.514.566.017,2.614.807,3.453,5.5.194,4.405-4.8,2.354-.249.787,1.309,1.319,2.9,2.121-.015.748-5.276,4.438.521,2.568-3.2,4.208,1,6.26-2.934.044.557,2.012-2.162-2.673-3.965-1.035-5.263,3.359-2.919,1.566.508,4.673-5.3,2.585.264,1.058-1.364,5.213-.034,1.843-2.115.5-1.651-2.348-.31,1.595-4.958-3.708-1.617,3.64-8.73-4.912-3.651-1.739-10.742-4.5-1.188-3.264,3.3-1.632-2.886-4.865,4.981-3.279.444-5.735-8.193-7.371-3.272-6.135,2.934Z" transform="translate(-857.786 -399.23)" fill="#ff697f" stroke="#fff" stroke-width="1"/>
    <path id="path130" d="M1133.137,443.825l-3.418.593,4.2,4.454.04,6.076,1.836.512-2.052,2.393.029,4.47-3.382,5.311-7.583-.748-4.461-4.169-3.135.813,1.083,2.608-1.285,1.891-7.611,1.643-8.955-5.978-1.7,1.559.028,4.144-3.277.825.858,3.318,4.067.818,4.486-.03,1.279,5.746-5.287,2.511.016,2.614,4.168,1.425.016,2.376,1.859,1.073,1.547-1.369,2.089-.013,1.087,2.377,3.141-.02,1.536-5.583,2.584-.017,3.9-5.023,4.714.492.821,6.865,1.822,2.137,2.891-1.612,4.955,2.586,1.885,3.167,8.627,5.213,3.19,7.421.025,3.912-5.478,3.215-3.524,3.26,4.43.292.038,5.84,6.61-.363,3.546.162,2.545-6.093,9.332-5.862-2.046-2.891,2.394-6.61,8.553,1.163,1.977-15.724,11.365-6.663-.025-3.744L1180.836,468l-.044-6.641-4.942-8.2-10.252-5.735-.752,4.545-4.115.447-1.233-4.531-4.1.822-.734,5.811-3.3-1.2-6.961-4.541-3.269,1.711-.054-8.278-4.741-2.82-1.409,2.808Z" transform="translate(-823.895 -387.081)" fill="#ff697f" stroke="#fff" stroke-width="1"/>
    <path id="path18" d="M989.5,454.678l-1.4,5.572-1.746,2.061,1.229,3.5-5.494,1.2L977.76,468.2l1.173,4.065-2.165.667,1.3,1.208,4.205-.023,2.063-1.049,1.847,1.027-3.4,1.612.015,2.655-3.13,2.4.019,3.418,5.779.244,1.807,1.872.02,3.695,2.13,2.095-1.824,2.9.787,1.587,3.639-1.611,7.559-.041,2.122-1.315,2.581-.015,2.883,3.435,6.541-1.906,1.782-2.914-2.6-1.344,1.8-.753.534-2.669,2.866.263,1.575,1.822,1.281-2.113,4.189-1.613,1.9.876,1.456-2.486-2.6-2.879,4.944-.026,1.555-2.906,3.4-3.2-3.412.019,1.037-4.494,8.846-1.126,3.4-2.134,4.155-1.6,1.328-1.363-1.644-4.2,2.324-4.787-4.152-.249-.549-6.591-6.256,2.927-4.205-1-2.568,3.192-4.433-.533-.75,5.286-2.125.012-1.311-2.9-.787-1.309-2.352.248-4.405,4.8-5.49-.207-.8-3.455-.015-2.614-.514-.566-1.831,2.12-2.353.012-2.6-2.882-2.352.013-1.591-3.171,2.061-2.388-.24-1.554-3.693.159.471,1.022-6.359,1.2-4.35-2.592-2,6.687" transform="translate(-861.911 -385.424)" fill="#f2f2f2" stroke="#fff" stroke-width="1"/>
    <text id="HAUTE-_GARONNE" data-name="HAUTE-
GARONNE" transform="translate(156.732 136.008)" fill="#222221" font-size="10" font-family="LibeSansSemiCondensed-Regular, LibeSans SemiCondensed"><tspan x="-11.795" y="0">HAUTE-</tspan><tspan x="-16.07" y="10">GARONNE</tspan></text>
    <text id="ARIÈGE" transform="translate(162.83 187.208)" fill="#222221" font-size="10" font-family="LibeSansSemiCondensed-Regular, LibeSans SemiCondensed"><tspan x="-11.45" y="0">ARIÈGE</tspan></text>
    <text id="AUDE" transform="translate(216 169.641)" fill="#222221" font-size="10" font-family="LibeSansSemiCondensed-Regular, LibeSans SemiCondensed"><tspan x="-8.815" y="0">AUDE</tspan></text>
    <text id="PYRÉNÉES-_ORIENTALES" data-name="PYRÉNÉES-
ORIENTALES" transform="translate(227 208.994)" fill="#222221" font-size="10" font-family="LibeSansSemiCondensed-Regular, LibeSans SemiCondensed"><tspan x="-17.63" y="0">PYRÉNÉES-</tspan><tspan x="-19.645" y="10">ORIENTALES</tspan></text>
    <text id="HAUTES-_PYRÉNÉES" data-name="HAUTES-
PYRÉNÉES" transform="translate(74.614 179.578)" fill="#222221" font-size="10" font-family="LibeSansSemiCondensed-Regular, LibeSans SemiCondensed"><tspan x="-14.11" y="0">HAUTES-</tspan><tspan x="-16.745" y="10">PYRÉNÉES</tspan></text>
    <text id="LOZÈRE" transform="translate(281.697 50.075)" fill="#222221" font-size="10" font-family="LibeSansSemiCondensed-Regular, LibeSans SemiCondensed"><tspan x="-12.125" y="0">LOZÈRE</tspan></text>
    <text id="GERS" transform="translate(100.614 123.5)" fill="#222221" font-size="10" font-family="LibeSansSemiCondensed-Regular, LibeSans SemiCondensed"><tspan x="-8.915" y="0">GERS</tspan></text>
    <text id="AVEYRON" transform="translate(231.881 67.51)" fill="#222221" font-size="10" font-family="LibeSansSemiCondensed-Regular, LibeSans SemiCondensed"><tspan x="-15.415" y="0">AVEYRON</tspan></text>
    <text id="TARN" transform="translate(199 113.5)" fill="#222221" font-size="10" font-family="LibeSansSemiCondensed-Regular, LibeSans SemiCondensed"><tspan x="-8.43" y="0">TARN</tspan></text>
    <text id="LOT" transform="translate(166.732 43.348)" fill="#222221" font-size="10" font-family="LibeSansSemiCondensed-Regular, LibeSans SemiCondensed"><tspan x="-6.18" y="0">LOT</tspan></text>
    <text id="TARN-ET-_GARONNE" data-name="TARN-ET-
GARONNE" transform="translate(144.288 85.607)" fill="#222221" font-size="10" font-family="LibeSansSemiCondensed-Regular, LibeSans SemiCondensed"><tspan x="-14.005" y="0">TARN-ET-</tspan><tspan x="-16.07" y="10">GARONNE</tspan></text>
    <text id="GARD" transform="translate(331.583 94.327)" fill="#222221" font-size="10" font-family="LibeSansSemiCondensed-Regular, LibeSans SemiCondensed"><tspan x="-9.405" y="0">GARD</tspan></text>
    <text id="HÉRAULT" transform="translate(269.697 135.127)" fill="#222221" font-size="10" font-family="LibeSansSemiCondensed-Regular, LibeSans SemiCondensed"><tspan x="-14.17" y="0">HÉRAULT</tspan></text>
  </g>
</svg>
