<svg xmlns="http://www.w3.org/2000/svg" xmlns:xlink="http://www.w3.org/1999/xlink" width="414" height="239" viewBox="0 0 414 239">
  <defs>
    <clipPath id="clip-_._assets_departments-map-naq">
      <rect width="414" height="239"/>
    </clipPath>
  </defs>
  <g id="_._assets_departments-map-naq" data-name="./assets/departments-map-naq" clip-path="url(#clip-_._assets_departments-map-naq)">
    <rect width="414" height="239" fill="#fff"/>
    <path id="path342" d="M892.618,319.875l1.335,1.218-2.869,2.378-.331,1.843-2.708.367-1.451-1.623-3.607-.324-.389-1.84-2.167-1.446-3.05,1.126,2.008,2.907,2.506-.017,2.554,1.619,2,1.619,3.777-.2.73,1.629,2.511.536.938,2.531,1.621.717-.16,2.014-2.169-.329-.713,1.085,1.632,2.353-.869,4.032-2.164-.161.19,2.535.554.9-2.531.017-.357-1.457,1.6-2.195-.555-1.251-.9-.722-.4-4.373L886.119,335l-2.527-3.073-.333,6.4,4.178,3.061.365,3.471.746,3.988.4,4.028,2.161-.214,3.8,3.095,2.551,1.443.182,1.807,1.992.362,5.807,5.8,1.4,6.294,5.335-.035.888-.905.186,2.737,4.7.527.759,5.838,2.536.16,4.157,4.171,2.159.339L930.1,383l1.794,1.269,1.422-3.1,1.424-2.548-3.852-2.593-1.194-1.609-1.594-1.773-3.717.64-1.185-.608-.18-.99,1.955-.794,0-.382-1.388-.4-.988-.776,2.355-2-.009-1.4-1.189-1.186.775-.789.387-1.987-1.393-1.365-1.195-1.976-2.146-1.97-1.6-.992,1.374-1.61-.779-.173-.225-4.171-1.592-.6,2.156-1.182,2.563-.017,1.145-1,2.161-.014.415.988,1.955.164,1.358-.595.377-3.763L931,337.937l.058-.026-1.422-1.365-.413-1.984-2.547-1.173-3.365-2.346-4.119.405-2.558-3.34-3.724-.181-2.951-2.165-.008-1.2-1.979-2.146-.1-2.686-2.727-2.022-3.416,1.483-1.088-2.914-2.535.193Z" transform="translate(-735.369 -271.042)" fill="#6a85f4" stroke="#fff" stroke-width="1"/>
    <path id="path110" d="M911.861,496.04l-.495-.816-3.428,1.188-2.617.842-1.969-1.469-2.1.68-.67-.834-2.593.017-1.639.85-4.238-.148-2.267,1.822-4.1-.3-.8,1.176-.985-.341,1.294-1.326-2.293-1.8-2.751,2.5-4.726.358-5.21-2.6-.741,1.345-4.11,5.125-3.225,1.31-2.33.359.013,2.014,2.171,2.008,3.235.15.189,2.372,2.537.181.708-1.665,3.441,1.44,2.162.538.537,2.18-1.239,1.122.023,3.441-2.526,1.3-.16,1.635,1.624,1.823,2.893.888.529-2.742,1.6-1.817-.154,2.362,1.277,1.825,3.234-.021,1.455,1.974,4.333.7,4.161,2.54,6.833-.045.4,3.827,4.7,3.61,1.83,2.174,1.982-1.093,1.787-.394.9.9,1.634-.919,3.137-1.765.259-3.769,1.435-1.116.712-6.019,2.685.545,1.087-.736L920,520.871l4.845-4.231,2.843-6.586,1.77-2.373-2.182-3.251-1.457-2.177,1.977-1.846-3.087-5.089L919.835,495l-.17-.317-2.593,1.5Z" transform="translate(-732.349 -301.814)" fill="#ff994e" stroke="#fff" stroke-width="1"/>
    <path id="path154" d="M884.5,436.565l-3.087,17.356L877.366,470l-1.227,6.226-1.035,4.384-2.659,4.691,5.21,2.593,4.727-.357,2.751-2.5,2.292,1.8-1.294,1.322.985.341.8-1.173,4.1.293,2.267-1.822,4.238.146,1.639-.853,2.593-.017.67.838,2.1-.679,1.969,1.471,2.617-.842,3.428-1.193.495.822,5.216.141,2.594-1.5-1.289-2.235,1.252-3.486,1.769-2.378L923,472.944l1.432-1.465-2.158-3.633,1.777-2.2,1.987-.389,1.79.717,2.527-2.2.908,2.732.9,1.282,1.985-.573-.189-2.359.564-1.291-.435-1.128.468-3.622,1.943-2-.985-1.161-2.135-.161-2.454-.952-3.573.35-.693-3.962-2.29-2.785-.985-.32.363,3.294.007.986-3.11.169-3.264-1.113-.7-4.14-2.3-2.471-1.614-.135-.184-1.48-1.793-1.164-2.948-.8.8-.988-.007-.992-.982-.814-1.133-.979-3.285.514-1.92,1.645-1.322.183-2.117-1.47-3.109,1.343-1.475-.981,1.314-1.643.13-2.155-3.089-1.12-5.691,3.02Z" transform="translate(-734.518 -291.263)" fill="#ff697f" stroke="#fff" stroke-width="1"/>
    <path id="path158" d="M891.482,386.358l-2.235,15.512-1.561,12.038-.15,3.123,1.241-4.21,2.484-3.306,3.628,3.265.379,1.078,1.074,1.455-4.489.235-.733-1.107-1.787.74-.352,2.744L887,420.675l.028,4.178-.026.176,1.469-.069,5.692-3.026,3.088,1.119-.13,2.153-1.313,1.642,1.475.985,3.11-1.341,2.117,1.468,1.322-.182,1.92-1.645,3.285-.511,1.134.974.981.821.007.987-.8.99,2.948.8,1.792,1.168.184,1.48,1.614.137,2.3,2.471.7,4.14,3.264,1.114,3.111-.168-.007-.988-.365-3.294.985.32,1.851,2.267,2.882-.492,1.322-1.326-.186-1.8-1.164-.986.335-1.835,1.792-.012,1.779-1.146-.823-1.664-.5-2.478,1.283-2.316,2.74-4.31,1.626-2,1.466-.51.306-1.634-1.96-.163-.826-1.8.629-1.808,2.3-.517,1.613-.5,1.9-.282-.112-.078-.17-3.628,1.778-1.327-2.291-1.469-2.255,2.814-5.563.213-.5-1.335-1.618-.8,1.288-1.682-.012-1.808-.674-.989-.006-.979,1.639-1,.468-2.95.96-2.661-.986-1.475-1.786.012-.967-1.135-.905,1.967-1.794-1.269-2.531,1.3-2.161-.339-4.157-4.172-2.538-.159-.758-5.836-4.7-.527L914.7,379.2l-.889.905-5.335.035.266,1.171,1.307,5.272.377,5.282-.885,1.464-.919-4.367-2.607-10-9.257-8.346.18-3.821-1.816-.164-2.855,4.391Z" transform="translate(-737.03 -279.727)" fill="#ff697f" stroke="#fff" stroke-width="1"/>
    <path id="path214" d="M960.285,335.723l-.972.792-2.78-1.588-2.737,1.012-3.14.221-2.381-2.9-.749.153-3.135,1.593-2.357.629.009,1.382-1.345,1.617.378.981-1.75,1-1.523,5.761-.376,3.763-1.358.59-1.955-.163-.415-.989-2.161.014-1.147,1-2.563.017-2.155,1.182,1.591.6.227,4.171.78.177-1.375,1.608,1.595.976,2.147,1.971,1.193,1.977,1.394,1.365-.387,1.987-.775.794,1.188,1.186.009,1.4-2.355,2,.988.78,1.388.4,0,.377-1.951.822.18.995,1.184.6,3.718-.636,1.591,1.771,1.2,1.6,3.852,2.593.542-.933,3.6.36,1.781-1.681,3.235-3.294.126-6.394,8.441-5.889.142-4.38,2.54-.37,1.595-2.933,1.009.018.587-2.775,1.442-.185.877-2.572,1.811-.565,2.152-1.475-.372-4.553,1.609-.557,3.229-.749-.185-1.631-.564-2.536-2.511-.185-1.453-1.623.885-1.638.048-1.483L972,332.467l-3.11.021-1.379,1.59-3.331,1.416-1.159-1.186-1.405-2.378-1.546,1.2Z" transform="translate(-743.7 -273.741)" fill="#4267cb" stroke="#fff" stroke-width="1"/>
    <path id="path218" d="M926.51,270.646l-4.872.415.017,2.536-2.495,1.675-5.6-1.244-3.769,1.657,1.808,2.56.014,2.187,4.349,3.615-1.051,2.372,2.905,3.248-1.257,1.674,1.8,2.7.586,5.1-1.057,1.467,1.279,2.178-1.25,2.4.184,1.46,1.431-1.119,1.8,1.825-2.495,1.648-.888,1.088-1.985.567-2.332,1.126-.171-.145.1,2.684,1.979,2.146.008,1.2,2.951,2.166,3.724.18,2.556,3.341,4.119-.406,3.365,2.344,2.546,1.174.415,1.981,1.421,1.368,1.692-.978-.378-.985,1.345-1.617-.009-1.382,2.357-.626,3.135-1.594,3.312-.6.593-1.817-2.767-.764-1.375-2.176.967-2.368,1.17-1.408-.02-2.978-1.184-.781-1.556.8.006.993-.8,1.2-1.571-1.773-.207-1.192.6-1.377-1.391-.985-.027-4.167-.782-.2-.009-1.4,1.168-1.99.167-.995.8-2.161-.614-1.4-1.97-.77,1.945-2.991.594-1.582-.007-.995-1.394-1.591,0-.59.768-1.4-.58-.989,1.171-1.38-1-2.18-.625-3.176-.212-1.983-1.56.216-.32-4.493-.371.675-1.271-1.074-.556-1.274-4.871.2Z" transform="translate(-740.96 -262.974)" fill="#6a85f4" stroke="#fff" stroke-width="1"/>
    <path id="path166" d="M950.435,421.373l-2.3.516-.629,1.811.827,1.8,1.958.163-.306,1.634-1.466.511-1.625,2-2.74,4.311-1.283,2.318.506,2.474.819,1.666-1.779,1.144-1.79.012-.337,1.836,1.164.987.185,1.8-1.323,1.325-2.881.493.437.525.693,3.963,3.573-.35,2.454.952,2.136.162.984,1.16-1.942,2-.468,3.622.435,1.129.683-1.457,2.151,1.82,2.866-2.941,1.275,1.8,3.054-.564,3.255-.376,1.424-2.577,5.387-.564,2.735,2.7.912-.913,1.782-.565-.736-2.532,2.7-.746,3.432-.751-.77-2.18,1.09-1.287.873-3.481-2.009-2.171,1.245-4.176,2.719,1.614,3.973-.755-1.844-4.015-1.474-5.441,3.6-.2.708-1.933-2.828-1.183-1.312-1.474-1.957.012-2.265,2.15-1.785-.134-.5-1.165,1.292-.837-.008-1.167-1.483-1.624-1.3-.164-.8,1-3.6.024-.323-1.32-1.155-.167-1.95,1.645-3.578.024-1.635,1.5-2.775-.974-.337-3.438-2.525-1.735-1.9.281Z" transform="translate(-745.729 -289.038)" fill="#ff697f" stroke="#fff" stroke-width="1"/>
    <path id="path202" d="M1025.926,359.749l-1.132,2-1.39.009-1.96-.568-1.376,2.369-2.13.22-1.369,2.576-1.761.012-1.375,1.41-3.522-.39-1.167,2-1.357-.167-2.341,3-2.171-.807-.991,2.079.789,2.012,2,1.619-3.581,3.318.017,2.536,1.447.719-1.431,1.849,2,1.619-1.431,1.825,1.621,1.1,3.948-.2-.145,4,1.512,2.38.545-.089,3.828-1.83,4.6,2.042,3.58,5.109,2.051-.272,3.032-3.109,1.019,1.8,2.039-2.058,2.806.741.087.611,2.331-1.674-.734-1.8-1.106-1.106,1.431-1.815,1.442-.01.906-2.928.705-1.462-.561-3.292,2.309-3.289,3.243-2.03.141-5.1,1.619.889,1.825,2.008,1.787-.012,1.085-1.292-.91-2.181.875-3.272-.567-3.085-1.107-1.281-.017-2.567,1.627-2.724-.388-2.563-.411-.4-1.8,1.437-3.548.023-1.151,1.791-2.158.014-1.772-1.771-.82-1.186-4.492.03-.986-1.37-1.385.009-.757,1.989Z" transform="translate(-756.709 -278.094)" fill="#6a85f4" stroke="#fff" stroke-width="1"/>
    <path id="path206" d="M1017.344,315.144l-.723-.376-2.159.218-1.624-1.095-3.087,3.634.078,2.686-2.134,4.36.416,2.185,2.34.562,1.614,3.958,1.565,1.6-.523,7.53,3.308-1.015,1.4,1.774-2.147,1.8.012,1.812,1.76.165,3.14-.2.975-1.4.769,0-.356,2.388,2.544,1.155,2.374,1.586.007.994-1.38.009.422,2.363.922.577.225-.384,2.948-.6.756-1.989,1.384-.009.99,1.365,4.494-.03.815,1.188,1.773,1.771,2.158-.014,1.149-1.79,3.547-.024,1.8-1.439-3.774-3.768-.352-1.63,3.422-2.04,1.984-1.093.5-2.573,2.147-1.65-.742-3.467-1.45-1.8-.386-5.662-2.021-4.718-1.993-.711-1.459-2.563-1.264,1.642-1.249-1.626-.014-2.189-2.178-3.074-5.932.764-3.437-.877-9.03-1.049-1.048,2.922Z" transform="translate(-757.848 -270.368)" fill="#6a85f4" stroke="#fff" stroke-width="1"/>
    <path id="path162" d="M964.145,364.083,964,368.463l-8.441,5.889-.127,6.39-3.235,3.294-1.78,1.685-3.605-.36-1.966,3.492-.516,1.134.967,1.133,1.786-.012.986,1.477-.96,2.661-.468,2.952-1.64,1,.007.979.674.99.012,1.807-1.286,1.68,1.617.809.5,1.331,5.563-.213,2.255-2.816,2.291,1.472-1.777,1.326.17,3.625,2.636,1.817.337,3.437,2.775.975,1.635-1.5,3.576-.023,1.95-1.645,1.153.168.323,1.317,3.6-.024.8-.993,1.3.164,1.483,1.623.007,1.168-1.291.835.5,1.163,1.787.136,2.265-2.15,1.955-.013,1.313,1.479,2.827,1.179.171-.475,1.635-1.643.156-2.738,3.946-.381,2.513-3.658-1.1-.37-.187-1.984,3.051-.4.19-1.81,1.437-.939,1.6-2.929-1.629-1.8-.013-2.022,1.231-1.088-1.628-2.562.144-3.994-3.948.2-1.623-1.095,1.431-1.822-2-1.619,1.431-1.849-1.447-.719-.017-2.536,3.581-3.317-2-1.619-1.086-2.73-3.8-.536-1.272-.892,2.7-1.3-.9-1.245-3.951-.535-.943-3.635-5.773-.516L976.6,366.6l-1.236.361-1.655-2.176.737-2.023-.933-1.8-5.218-.142-1.6,2.933Z" transform="translate(-746.918 -278.725)" fill="#ff697f" stroke="#fff" stroke-width="1"/>
    <path id="path210" d="M994.492,317.13l-.516-.115-3.432.664-1.972,1.678.014,2.186-3.953.2L982.32,324.5l-1.436,1.091,1.249,1.451-.141,4.934-.885,1.638,1.453,1.623,2.511.185.565,2.532.185,1.631-3.229.75-1.609.556.372,4.55-2.151,1.475-1.811.565-.877,2.574-1.442.185-.587,2.775,4.211.121.934,1.8-.737,2.03,1.654,2.173,1.236-.361,1.261-1.842,5.773.516.943,3.635,3.951.536.9,1.245-2.7,1.3,1.273.891,3.807.535.3.727.993-2.08,2.173.806,2.339-2.995,1.356.167,1.168-1.993,3.522.391,1.375-1.41,1.761-.012,1.367-2.575,2.126-.222,1.376-2.371,1.964.568,1.39-.009.908-1.612-.923-.577-.424-2.364,1.377-.009-.007-.991-2.369-1.585-2.543-1.159.356-2.388-.77.005-.972,1.408-3.14.2-1.759-.164-.012-1.812,2.147-1.8-1.4-1.773-3.308,1.015.522-7.531-1.564-1.6-1.614-3.958-2.34-.562-.416-2.183,2.133-4.361-.077-2.687-.483.587-2.905-2.9-1.6,1.643Z" transform="translate(-752.119 -270.957)" fill="#ff697f" stroke="#fff" stroke-width="1"/>
    <path id="path346" d="M943.971,270.449l.318,4.493,1.561-.217.212,1.983.625,3.178,1,2.181-1.172,1.38.581.989-.77,1.4,0,.588,1.4,1.591.007.995-.6,1.582-1.945,2.991,1.97.77.615,1.4-.794,2.161-.168.995-1.168,1.99.009,1.4.782.2.027,4.167,1.391.985-.6,1.377.206,1.192L949.034,312l.8-1.2-.006-.994,1.556-.8,1.187.781.02,2.978-1.173,1.408-.967,2.368,1.376,2.176,2.767.763L954,321.3l-2.563.449,2.381,2.9,3.14-.221,2.737-1.01,2.78,1.589.971-.787-.214-2.6,1.545-1.2,1.406,2.379,1.159,1.178,3.33-1.408,1.379-1.591,3.11-.02,1.622.813.093-3.441-1.248-1.452,1.435-1.089,2.314-2.758,3.953-.2-.014-2.187,1.972-1.677,4.875-.939.325-2.744-1.97-1.065L987.4,300.4l-2.886-.363-1.8-1.795-3.451-2.727.706-2.191-.022-3.466-3.278-3.251-.362-2.565-3.108-3.253-1.1-4.366-1.271-.545-1.456-2.01-1.436.923.391,2-4.7,1.144-5.39.036.166-2.188-.023-3.473-4.335-1.252-.015-2.186-3.444-.708-.739-2.914-1.612.011-3.408,3.672Z" transform="translate(-746.856 -262.24)" fill="#6a85f4" stroke="#fff" stroke-width="1"/>
    <text id="PYRÉNÉES-_ATLANTIQUES" data-name="PYRÉNÉES-
ATLANTIQUES" transform="translate(166.282 209.254)" fill="#222221" font-size="10" font-family="LibeSansSemiCondensed-Regular, LibeSans SemiCondensed"><tspan x="-17.63" y="0">PYRÉNÉES-</tspan><tspan x="-22.465" y="10">ATLANTIQUES</tspan></text>
    <text id="CHARENTE" transform="translate(204.366 83.832)" fill="#222221" font-size="10" font-family="LibeSansSemiCondensed-Regular, LibeSans SemiCondensed"><tspan x="-17.545" y="0">CHARENTE</tspan></text>
    <text id="LANDES" transform="translate(166.282 176.66)" fill="#222221" font-size="10" font-family="LibeSansSemiCondensed-Regular, LibeSans SemiCondensed"><tspan x="-13.18" y="0">LANDES</tspan></text>
    <text id="GIRONDE" transform="translate(176.314 130.574)" fill="#222221" font-size="10" font-family="LibeSansSemiCondensed-Regular, LibeSans SemiCondensed"><tspan x="-14.5" y="0">GIRONDE</tspan></text>
    <text id="CHARENTE-_MARITIME" data-name="CHARENTE-
MARITIME" transform="translate(161.84 72.519)" fill="#222221" font-size="10" font-family="LibeSansSemiCondensed-Regular, LibeSans SemiCondensed"><tspan x="-18.465" y="0">CHARENTE-</tspan><tspan x="-16.285" y="10">MARITIME</tspan></text>
    <text id="DEUX-_SÈVRES" data-name="DEUX-
SÈVRES" transform="translate(181.524 26.889)" fill="#222221" font-size="10" font-family="LibeSansSemiCondensed-Regular, LibeSans SemiCondensed"><tspan x="-9.66" y="0">DEUX-</tspan><tspan x="-12.96" y="10">SÈVRES</tspan></text>
    <text id="CREUSE" transform="translate(272.547 67.519)" fill="#222221" font-size="10" font-family="LibeSansSemiCondensed-Regular, LibeSans SemiCondensed"><tspan x="-13.125" y="0">CREUSE</tspan></text>
    <text id="CORRÈZE" transform="translate(265.965 104.363)" fill="#222221" font-size="10" font-family="LibeSansSemiCondensed-Regular, LibeSans SemiCondensed"><tspan x="-15.235" y="0">CORRÈZE</tspan></text>
    <text id="HAUTE-_VIENNE" data-name="HAUTE-
VIENNE" transform="translate(244.154 73.832)" fill="#222221" font-size="10" font-family="LibeSansSemiCondensed-Regular, LibeSans SemiCondensed"><tspan x="-11.795" y="0">HAUTE-</tspan><tspan x="-11.525" y="10">VIENNE</tspan></text>
    <text id="VIENNE" transform="translate(216.366 41.889)" fill="#222221" font-size="10" font-family="LibeSansSemiCondensed-Regular, LibeSans SemiCondensed"><tspan x="-11.525" y="0">VIENNE</tspan></text>
    <text id="LOT-ET-_GARONNE" data-name="LOT-ET-
GARONNE" transform="translate(213.437 151.247)" fill="#222221" font-size="10" font-family="LibeSansSemiCondensed-Regular, LibeSans SemiCondensed"><tspan x="-11.45" y="0">LOT-ET-</tspan><tspan x="-16.07" y="10">GARONNE</tspan></text>
    <text id="DORDOGNE" transform="translate(224.631 118.5)" fill="#222221" font-size="10" font-family="LibeSansSemiCondensed-Regular, LibeSans SemiCondensed"><tspan x="-18.69" y="0">DORDOGNE</tspan></text>
  </g>
</svg>
