<svg xmlns="http://www.w3.org/2000/svg" xmlns:xlink="http://www.w3.org/1999/xlink" width="414" height="239" viewBox="0 0 414 239">
  <defs>
    <clipPath id="clip-_._assets_departments-map-hdf">
      <rect width="414" height="239"/>
    </clipPath>
  </defs>
  <g id="_._assets_departments-map-hdf" data-name="./assets/departments-map-hdf" clip-path="url(#clip-_._assets_departments-map-hdf)">
    <rect width="414" height="239" fill="#fff"/>
    <path id="path270" d="M1015.692,36.019l.319,48.7-.093,1.442,5.541,1.291,1.789,3.975,4.269-1.123,2.489-3.245,3.2,1.062,6.826,5.333,2.494-1.06,1.8,4.312,6.4,2.846.023,3.572,4.68,1.762,4.6-1.823,8.894-1.15,2.173,1.836,4.258-1.879,2.134,3.63-5.276,3.608.034,5.075,1.782,1.78,1.42-.36,1.011-2.874,3.242-2.229,3.206,2.517,7.493,2.484,3.2-.021-.025-3.626,4.7,3.25.358,2.883-2.152,3.25,3.932-2.212,3.237-1.461,1.381,2.523.018,2.532,5.331-2.919,8.557-.057.345.347,2.083-4.117-1.106-1.838-3.253-.668-3.584.025-2.168-.745,3.569-2.209,3.255.326,3.265-.368.347-5.893,2.157-1.45.322-3.31-4-2.568-4.664-.306-1.1-.736,2.884-2.219.671-2.193-2.514-1.774-3.685-4.422.386-2.194,4.649-2.229.718-2.543-3.261-1.478-1.848-4.723-6.518-.7-6.5-1.74-.789-7.326,4.644-2.97-1.784-3.677-3.666.025-2.474,4.05L1084.09,59.4,1075,57.216l-5.055-5.454-.029-4.389,3.921-1.87-3.275-2.51-7.917-.29-4.814-12.095-6.857-10.849-19.681,3.934Z" transform="translate(-893.149 -8.597)" fill="#ff697f" stroke="#fff" stroke-width="1"/>
    <path id="path274" d="M1038.237,22.933l-.964.195,6.857,10.846,4.808,12.1,7.924.288,3.269,2.51-3.916,1.877.028,4.387,5.05,5.451,9.092,2.186,11.238.623,2.474-4.055,3.657-.023L1089.54,63l-4.643,2.97.784,7.33,6.5,1.74,6.526.7,1.848,4.728,3.265,1.474-.718,2.545-4.664,2.229-.386,2.19,3.69,4.423,2.512,1.774-.679,2.194-2.888,2.217,1.1.736,4.669.313,4,2.568-.322,3.31-2.152,1.45-.352,5.893-3.263.37-3.255-.327-3.567,2.209,2.167.743,3.59-.025,3.255.668,1.106,1.838-2.085,4.112,2.87,2.865,2.857.725,2.841-1.869,3.918-.026,1.111,2.194,1.419-.358,4.261-2.563,4.287,2.507,5.677-4.014,2.5-.016,2.872,2.514,5.68-4.019,2.45.332,2.185,1.779,7.876.691.7,3.232,3.911-3.612,2.113-.015,1.453,4.67,6.8,1.748,1.933-1.342-.565,0-.368-3.584,7.092-4.376-1.128-6.86-6.8-1.736,1.745-1.861-.033-5.025,5.339-4-1.442-2.878-11.468-8.933-19.955,1.237-2.086,3.587-2.5.016.26-12.641-5.749-6.77-4.263.723-2.536-2.87-7.1,3.274-2.464-2.463-5.032-.71-1.453-4.667-.439-14.42-3.2-1.422-.406-2.2-2.109.015-.764-4.32-4.629.435-8.863,2.946-4.235,5.394-4.268.029-2.875-3.556-1.108-3.985-3.556-3.947-5.029.034-2.135-3.923-.041-6.168,2.425-3.939-1.455-5.415-4.69-9.373-11.38,5.489Z" transform="translate(-879.415 -11.98)" fill="#6a85f4" stroke="#fff" stroke-width="1"/>
    <path id="path290" d="M1028.343,79.39l.025,3.633-9.678-5.709-11.483,14.51,3.091,1.3,3.936-.373,1.792,3.574,15.768,15.413,1.139,6.464,3.576,6.492-1.191,1.51,4.512-.029.743,1.091.026,3.981,2.181,1.484,4.649-1.869,6.564-.043,3.265,2.514,12.237-1.185,9.094,2.553,5.1,5.093,6.523.646,6.5,2.142,7.948-7.721,9.385-2.6,5.076.664,7.518-.8-.712-3.965-1.8-7.32-.776-4.384,3.222-3.721-.031-4.733,4.646-5.174-.884-5.073-2.74-.725-3.211-3.207-8.565.057-5.33,2.919-.018-2.541-1.383-2.528-3.235,1.466-3.931,2.212,2.15-3.25-.36-2.883-4.695-3.25.024,3.626-3.193.02-7.5-2.482-3.206-2.517-3.247,2.224-1.008,2.878-1.421.36-1.784-1.78-.033-5.075,5.276-3.608-2.134-3.63-4.258,1.879-2.175-1.836-8.884,1.15-4.6,1.823-4.692-1.762-.023-3.572-6.4-2.846-1.8-4.312-2.494,1.06L1038.6,62.3l-3.194-1.062-2.492,3.242-4.271,1.127-1.789-3.975-5.541-1.291-.887,11.9Z" transform="translate(-898.549 17.229)" fill="#6a85f4" stroke="#fff" stroke-width="1"/>
    <text id="NORD" transform="translate(250.802 95.145)" fill="#222221" font-size="10" font-family="LibeSansSemiCondensed-Regular, LibeSans SemiCondensed"><tspan x="-9.38" y="0">NORD</tspan></text>
    <path id="path266" d="M1022.115,107.046l2.852-.018-1.4,3.63-1.376,7.223,2.132,3.574.039,6.166,3.6-.023-1.406,2.5-2.484,4.741-.995,3.237,3.209,2.864,1.085,8.3,1.836,2.872-2.5.715-3.2-1.759-.548,4.263.244-.293,1.376,3.227,2.2,3.556,9.632.691,6.8-.8,4.59-3.6,5.713,3.533,2.867,2.186,4.265-1.137,3.865-1.8,7.541,3.931,7.85,4.628,2.517,2.51,4.251-2.9,3.556,2.113,2.18,1.777,3.186-.37,2.144-2.9,4.981,2.854,6.081-2.572,3.535,1.069,3.527-2.9,2.155-1.119.692.519.7-4.919-2.589-2.923-4.348-2.906-1.811,2.946-1.067.355-.38-5.467,3.262-.776-.781-5.068-4.338-.738,2.147-3.7,6.145-1.486,2.114-8.789,3.233-1.522-4.358-3.252,1.463-3.306L1118.7,115l-1.527-8.477-7.527.8-5.073-.664-9.387,2.6-7.948,7.721-6.5-2.142-6.526-.646-5.093-5.1-9.1-2.55-12.231,1.186-3.271-2.514-6.557.044-4.652,1.867-2.181-1.484-.026-3.981-.743-1.091-4.513.029-2.3,2.847" transform="translate(-889.062 42.831)" fill="#6a85f4" stroke="#fff" stroke-width="1"/>
    <path id="path286" d="M1113.8,81.249l-2.5.018-5.69,4.013-4.284-2.5-4.256,2.561-1.422.362-1.109-2.2-3.919.026-2.841,1.869h-.115l.884,5.073-4.647,5.179.031,4.728-3.22,3.721.772,4.384,1.8,7.321,2.245,12.44-.6,10.972-1.469,3.306,4.364,3.252-3.234,1.522-2.119,8.789-6.14,1.486-2.147,3.7,4.338.728.774,5.068-3.248.774.38,5.469,1.067-.355,1.816-2.947,4.343,2.906,2.586,2.923-.7,4.921,3.258,2.34,1.134,7.953,9.635,9.285,3.2,1.082,1.849,4.317,5.989,1.213.733-.923,1.79-3.923,5.351-2.584,2.8-7.585,3.175-2.212-1.834-2.522-4.633.029-.687-2.486,3.18-1.453,1.407-2.2-3.206-2.119,1.01-3.3,8.2-.743-1.448-3.22-4.978-3.253-.064-9.689,6.688-5.132,7.526-.049-.758-3.569,4.255-1.869,6.06,3.931,2.507-.7-.425-12.29,1.062-4.33,1.391-5.029-4.692-2.512,1.078-2.882,6.778-1.5-.031-4.67,5.331-2.923,1.394-4.328-1.788-2.877.308-5.436,3.17-2.908-3.229-6.086.918-6.41-7.228.049-1.929,1.342-6.8-1.748-1.453-4.67-2.109.015-3.909,3.61-.7-3.225-7.876-.692-2.189-1.777-2.448-.332-5.688,4.021Z" transform="translate(-855.917 29.593)" fill="#acbaf2" stroke="#fff" stroke-width="1"/>
    <text id="SOMME" transform="translate(179.323 131.616)" fill="#222221" font-size="10" font-family="LibeSansSemiCondensed-Regular, LibeSans SemiCondensed"><tspan x="-13.105" y="0">SOMME</tspan></text>
    <text id="AISNE" transform="translate(258.802 151.398)" fill="#222221" font-size="10" font-family="LibeSansSemiCondensed-Regular, LibeSans SemiCondensed"><tspan x="-9.73" y="0">AISNE</tspan></text>
    <text id="OISE" transform="translate(182.493 183.085)" fill="#222221" font-size="10" font-family="LibeSansSemiCondensed-Regular, LibeSans SemiCondensed"><tspan x="-7.54" y="0">OISE</tspan></text>
    <text id="PAS-DE-_CALAIS" data-name="PAS-DE-
CALAIS" transform="translate(161.935 63.173)" fill="#222221" font-size="10" font-family="LibeSansSemiCondensed-Regular, LibeSans SemiCondensed"><tspan x="-12.575" y="0">PAS-DE-</tspan><tspan x="-12.075" y="11">CALAIS</tspan></text>
  </g>
</svg>
