<svg xmlns="http://www.w3.org/2000/svg" xmlns:xlink="http://www.w3.org/1999/xlink" width="414" height="239" viewBox="0 0 414 239">
  <defs>
    <clipPath id="clip-_._assets_departments-map-pdl">
      <rect width="414" height="239"/>
    </clipPath>
  </defs>
  <g id="_._assets_departments-map-pdl" data-name="./assets/departments-map-pdl" clip-path="url(#clip-_._assets_departments-map-pdl)">
    <rect width="414" height="239" fill="#fff"/>
    <path id="path30" d="M962.4,179.627l-5.075,2.133-9.259-1.313-9.217,5.59-3.405-2.414-5.116,3.532-3.793-2.745-2.446-4.14-5.1-2.067-3.419,2.785-5.8-.675-.27,9.023,1.706,1.373.046,6.928-3.43,3.5.036,5.54,1.06,3.422.066,10.038,2.431,2.409.063,9.372-5.813-.683-2.4,1.4-4.363,11.112-1.7,6.267-.545,1.224,6.191,1.231,5.086-.033,5.661,3.671,2.282-2.84,10.143,3.038,4.018,2.3,9.026-.393,3.927-4,6.239,1.946,3.344-.02.055.053,1.07-2.615-.068-10.3-1.158-1.712.586-1.723,4.825-.3,2.224-2.015.264-1.712-2.554-6.308.807-2.554,5.626-.592-.564-1.426,1.406-3.455-1.167-2.582,1.406-2.832,5.076-4.36-.65-4.541.834-7.423,1.954-3.454,6.389-2.141-.991-.05-1.786-6.245-4.446-1.692-1.415-7.57-3.088-2.75-3.386.344Z" transform="translate(-699.671 -171.564)" fill="#acbaf2" stroke="#fff" stroke-width="1"/>
    <path id="path234" d="M906.461,225.627l-3.416,3.466-1.344,3.829-21.175,1.187-8.88,4.885-.267,9.685-9.557,3.889-6.479,3.468-5.474.036-2.04-2.351-3.041,3.116-1.472.291,1.758,1.2-6.485,5.9,1.374,1.378,1.389,2.76-3.411,4.894,3.792,2.029,6.523,1.34.633-2.775,3.818,4.845,6.179-.039,4.4-4.9,5.8-.039-6.107,3.138.353,3.493,1.379,3.093-3.751,3.847-4.1.027.74,5.2,7.482-1.431,8.973,8.257-.424.55,6.482,4.223,1.436,3.421,5.931,2.577,4.553.518,2,5.417,7.076,1.674,4.764.85,2.554-2.9-2.6-3.689-1.147-8.026,2.224-2.562,3.121-.02,1.434,3.138-.833,5.716,1.985,1.428,5.076-1.745,1.66-5.731-2.255-2.3,5.629-.036,1.954-3.733,1.962.265,4.578,4.293,3.283.427.088-3.611-2.873-3.691-2.516.017-.869.284-1.706-.815,1.415-1.462-.017-2.6,2.843-.845,1.671-4-1.434-1.432-.3-4.88-3.675.024-3.7-4.566-.022-3.378,3.93-2.072,7.055-1.431,11.005.2,3.374-2.347-1.2-7.143-5.12-4.783-6.18.878-1.7-1.428-.308-5.1,4.459-4.076-3.427-4.233-2.276-6.03-3.688-2.243-.027-3.991-.386-1.269-6.411-1.569-3.1-4.136-5.149-.68-.3,3.823Z" transform="translate(-733.18 -145.967)" fill="#ff697f" stroke="#fff" stroke-width="1"/>
    <path id="path354" d="M897.864,225.286l.385,1.269.025,3.991,3.689,2.243,2.274,6.03,3.429,4.234-4.459,4.071.308,5.108,1.7,1.426,6.182-.878,5.12,4.783,1.2,7.142-3.372,2.348-11.007-.2-7.055,1.431-3.928,2.072.022,3.378,3.694,4.566,3.677-.024.3,4.88,1.434,1.432-1.671,4-2.843.843.017,2.6-1.42,1.462,1.71.815.869-.287,2.511-.016,2.876,3.691-.086,3.609.661.1,2.848,1.7,8.763-.058,4.674,3.96,6.493-2.868,10.632,2.364,4.735-3.179-.031-4.814,9.248-.788L960,295.952l9.246-.388,1.06,2.419,2.408,2.039,2.334-4.17,6.468-6.966,2.626-.017,3.8-14.2,5.43-6.627-.437-7.583,3.426-4.553-.013-2.054-1.714-2.1,1.079-2.274-4.663-1.8-14.453-8.766-13.325-3.887-5.1-.248-.022-3.438-3.127-2.584-3.344.022-6.239-1.948-3.928,4-9.026.393-4.016-2.3-10.143-3.038-2.282,2.841-5.662-3.672-5.087.033-6.188-1.231-.749,1.558Z" transform="translate(-702.13 -144.162)" fill="#acbaf2" stroke="#fff" stroke-width="1"/>
    <path id="path358" d="M963.461,190.944l-4.811-.245-6.389,2.139-1.955,3.454-.833,7.424.649,4.538-5.075,4.36-1.406,2.832,1.162,2.585-1.4,3.455.564,1.426-5.628.591-.807,2.554,2.555,6.308-.266,1.714-2.224,2.015-4.827.3-.583,1.721,1.158,1.714.068,10.3-1.07,2.615,3.075,2.524.022,3.438,5.1.248,13.327,3.887,14.455,8.767,4.662,1.8,2.266-4.674,6.872,4.842,3.776-.024-2.119-6.912,4.18,2.742,2.317-3.5,9.9-2.837-1.728-4.139,2.383-3.113,5.13-2.087,4.726-6.286-.042-6.592,3.451-.022,1.332-4.834.283-7.256-3.41-3.137,2.692-4.833,4.018-5.232-4.78-3.407-4.44-.685-4.859-7.223-1.368.008-.308,3.432-.346-2.376-7.161.047-3.481-5.178-5.811-2.062-1.773-12.457-2.761-3.744-9.246.383Z" transform="translate(-679.398 -168.118)" fill="#6a85f4" stroke="#fff" stroke-width="1"/>
    <text id="LOIRE-_ATLANTIQUE" data-name="LOIRE-
ATLANTIQUE" transform="translate(164.796 112.668)" fill="#222221" font-size="10" font-family="LibeSansSemiCondensed-Regular, LibeSans SemiCondensed"><tspan x="-9.875" y="0">LOIRE-</tspan><tspan x="-20.115" y="10">ATLANTIQUE</tspan></text>
    <text id="SARTHE" transform="translate(296.199 63.607)" fill="#222221" font-size="10" font-family="LibeSansSemiCondensed-Regular, LibeSans SemiCondensed"><tspan x="-13.025" y="0">SARTHE</tspan></text>
    <text id="MAINE-ET-_LOIRE" data-name="MAINE-ET-
LOIRE" transform="translate(247.274 118.5)" fill="#222221" font-size="10" font-family="LibeSansSemiCondensed-Regular, LibeSans SemiCondensed"><tspan x="-16.035" y="0">MAINE-ET-</tspan><tspan x="-8.955" y="10">LOIRE</tspan></text>
    <path id="path22" d="M907.895,273.762l2.255,2.3-1.66,5.731-5.078,1.743-1.985-1.428.832-5.714-1.432-3.14-3.122.02-2.224,2.56,1.148,8.026,2.6,3.694-2.554,2.895-4.764-.85-7.076-1.674-2-5.417-4.555-.518-5.931-2.574-1.436-3.421-6.487-4.223-10.087,13.36-.276,8.318,10.63,10.281-.309,3.108,3.063-.02,6.63,19.721,6.865,3.4,6.883,6.881,7.881-.052,3.105,6.892,7.563-.05,3.422,5.183,7.575,3.771.3-4.872L919.6,349.5l10.412-6.495,4.811-.366,2.065,5.53,6.485-2.813,5.5,4.117,4.426-2.139,3.768-1.074,1.684-2.067,4.737-3.126-3.421-3.465-2.714,2.122-.349-2.771,2.37-4.561-2.428-4.135,2.007-2.783-1.112-9.681-3.422-5.125,2.387-3.179-5.516-6.163,2-4.5-8.257-6.861-.027-4.15-3.432-4.866.658-.267-4.674-3.96-8.761.058-2.851-1.7L922,274.558l-4.578-4.291L915.461,270l-1.954,3.733Z" transform="translate(-723.98 -117.828)" fill="#4267cb" stroke="#fff" stroke-width="1"/>
    <text id="VENDÉE" transform="translate(190.219 197.451)" fill="#222221" font-size="10" font-family="LibeSansSemiCondensed-Regular, LibeSans SemiCondensed"><tspan x="-12.7" y="0">VENDÉE</tspan></text>
    <text id="MAYENNE" transform="translate(236.79 41.033)" fill="#222221" font-size="10" font-family="LibeSansSemiCondensed-Regular, LibeSans SemiCondensed"><tspan x="-15.68" y="0">MAYENNE</tspan></text>
  </g>
</svg>
