<svg xmlns="http://www.w3.org/2000/svg" xmlns:xlink="http://www.w3.org/1999/xlink" width="414" height="239" viewBox="0 0 414 239">
  <defs>
    <clipPath id="clip-_._assets_departments-map-ara">
      <rect width="414" height="239"/>
    </clipPath>
  </defs>
  <g id="_._assets_departments-map-ara" data-name="./assets/departments-map-ara" clip-path="url(#clip-_._assets_departments-map-ara)">
    <rect width="414" height="239" fill="#fff"/>
    <path id="path42" d="M1095.321,380.818l-3.155.3-2.869,2.4-5.228.83-1.2,1.748.926.1,1.316,3.752,6.592-.043,1.334,4.723,1.88,1.871.553,5.588,1.584,2.126,3.158.253-1.854,1.616-1.569.522,1.358,1.311-1.553,2.4,3.168,1.856,1.577,2.389.016,2.49.7-.244,5.327,13.5,7.5-2.4.529-3.532,2.919-.019,1.187,4.077,5.377-1.343,6.738,8.6,4.134-6.75,7.486-5.654,6.969-.045,2.274-7.336,4.633-.353.294-5.544,4.318-.028-.854-2.056-1.183-3.8,1.7-2.963,4.076-1.768,1.671-7.056-3.795-4.389-4.631.313.51-5.594-9.306-4.022-3.153.3-6.373,5.347-5.874-1.885-1.151,1.131-3.672-1.066-2.614-2.655-1.551,3.2-4.511-.207-2.1-1.865-1.551,3.725-2.882-1.308-1.881-3.464-2.362.015-2.105-1.816L1105,379.468l-3.656.3-2.1-1.351-1.3.817-.57-1.318-2.082,1.1Z" transform="translate(-958.418 -253.088)" fill="#acbaf2" stroke="#fff" stroke-width="1"/>
    <path id="path106" d="M1065.158,381.936l-1.747,2.085-2.876.019-2.946-3.243-2.611-1.434-.226,8.226-5.22,3.268-3.721,5.293.9,5.295-1.135,2.358-1.459,4.716-2.322.015-2.3,2.92,1.78,1.783,1.176,2.9-3.75,2.7,1.608,9.815,4.938,3.664-3.658,8.78,3.726,1.625-1.6,4.983,3.248.412,2.434-4.16,4.127-.028.794,1.216,9.056-.06,1.612-3.721,2.032-.863.8-6.63,2.037-.013-.047-7.052,8.172-7.136.849,1.248.817,5.407,5.756-.889,1.3,8.308,2.837-.019.889,8.3,2.577,3.187,4.114-9.771,4-12.936,5.229,3.483,2.288-5.276,7.409-2.758-.016-2.49-1.579-2.385-3.168-1.86,1.551-2.4-1.356-1.311,1.568-.526,1.856-1.616-3.159-.26-1.592-2.116-.552-5.589-1.879-1.869-1.335-4.723-6.592.044-1.323-3.753-2.092-.221-1.064,2.126-4.166-.256-3.994-6.079-1.582-.225-3.167-1.58-1.843,1.848-4.684.031-2.4-5.023-8.925-2.569-.871,3.235Z" transform="translate(-973.096 -254.008)" fill="#6a85f4" stroke="#fff" stroke-width="1"/>
    <path id="path190" d="M1187.434,354.116l-3.782,1.935-4.121-3.814-2.837.019-.3,4.182,4.15,3.491-6.259,8.3-8.2,1.988-6.3,2.3,4.109,4.1.987,1.917-6.291,3.236-.584,9.258-.188.1,1.785,3.695,5.075,1.561,3.475-1.276,4.065-2.9,5.413,4.431,4.431-.029,3.178,4.449-1.271,3.2.675,4.5-1.543,4.479.647,1.592,2.193-.679,5.066,1.567,6.652,1.877,2.825-1.94,1.227-2.218.978-.007.437,23.9,1.593,1.591,4.117-.027,3.769,2.23,2.86,2.233,2.874.264,1.867,1.577,5.243.573.366-.893-2.337-1.156-.024-3.519,7.237-.048,2.306-2.37-1.459-2.618,3.745-2.979,2.646,1.155,3.745-3.254,6.658,1.129,2.309-2.643,5.515.246-.043-6.427-2.333-1.158-1.183-3.8-6.085-.576-.889-1.436,1.118-6.174,2.026-1.795-1.688-2.294-3.17-1.9-1.888,1.931.627-2.59-.016-2.529-2.562-2.581,1.255-6.073,2.824-1.6-.345-4.141-6.031-6.014-2.224.013-1.565,2.224-3.8-5.044-2.212.3-1.875,4.186,1.31,2.538-.97,1-2.526-1.907-7.3-1.545-3.471-6.365-.017-2.574-3.5-3.79-.388-1.655-11.693-14.256-1.334-4.129-2.519-2.233-2.518-.316-1.895,2.264Z" transform="translate(-933.51 -263.662)" fill="#6a85f4" stroke="#fff" stroke-width="1"/>
    <path id="path194" d="M1162.606,389.79l-5.013.969-2.687.781.1.135-1.672,7.055-4.069,1.771-1.7,2.967,1.183,3.8.851,2.056-4.317.028-.292,5.541-4.633.353-2.274,7.337-6.972.047-7.48,5.648-4.142,6.75.7.886,2.108,10.781,4.952,5.377-.8,6.2,6.2,3.72.055,8.319,3.288-1.72,7,4.563,3.308,1.2.743-5.838,4.124-.829,1.238,4.558,4.134-.45.754-4.566,9.454,5.292,1.515-3.154,3.985-.632.285-6.2-.929-1.307-1.247-.281-.015-2.237.9-2.273-1.587-2.526.885-5.74,3.769-4.526-.041-6.349-1.631-7.378,2.833-.625.625-3.2,2.8-5.477,1.539-4.142-2.558-6.371-1.591-5.123-2.3-8.9-.078-11.988-1.582-.516-1.785-3.7-6.712,4.094Z" transform="translate(-946.248 -252.434)" fill="#ff697f" stroke="#fff" stroke-width="1"/>
    <path id="path198" d="M1164.907,384.9l-3.481-1.046.079,11.978,2.3,8.9,1.591,5.117,2.558,6.371-1.546,4.146-2.8,5.476-.629,3.2-2.831.625,1.629,7.372.043,6.349-3.773,4.529-.881,5.737,1.575,2.526-.9,2.273.015,2.238,1.244.285.931,1.3-.285,6.2,3.855-.581,1.732,2.06-.8,5.869,1.168,1.44,4.285-4.435,3.793-.309.826-2.358-4.928-.581-.869-5.253,3.124-4.994,4.08-.361,4.06,3.821-4,5.565,1.171,2.069,5.8.568,3.745-3.266-2.013,4.421.622,3.517,6.083.524,8.123.553,1.183,3.8,4.385,3.212,3.749.258,2.593-2.365,1.449-4.418,2.336,2.046,1.732,2.053,1.086-10.909-2.878-.538-1.8-3.791-9.861-2.631-1.24-4.964,3.516-2.375-2.93-2.045.581-2.633,4.652.244,4.048,2.05,3.187-3.832-3.23-2.613.257-3.519,1.737-5.606,6.073-.646,4.9-2.06.506-1.176-5.24-.57-1.867-1.58-2.874-.264-2.86-2.233-3.769-2.23-4.121.027-1.589-1.592-.436-23.9-.978.007-1.232,2.222-2.823,1.936-6.651-1.873-5.055-1.579-2.193.678-.647-1.595,1.544-4.475-.677-4.5,1.272-3.2-3.179-4.447-4.431.029-5.413-4.43-4.064,2.9Z" transform="translate(-933.729 -252.159)" fill="#6a85f4" stroke="#fff" stroke-width="1"/>
    <text id="ARDÈCHE" transform="translate(203 192.464)" fill="#222221" font-size="10" font-family="LibeSansSemiCondensed-Regular, LibeSans SemiCondensed"><tspan x="-15.44" y="0">ARDÈCHE</tspan></text>
    <text id="DRÔME" transform="translate(248.909 193.072)" fill="#222221" font-size="10" font-family="LibeSansSemiCondensed-Regular, LibeSans SemiCondensed"><tspan x="-12.05" y="0">DRÔME</tspan></text>
    <path id="path66" d="M1078.292,295.149l-2.578,2.711-2.953-3.232-7.737,7.991.031,4.7,1.451,1.163.288,2.352-4.014,3.212-3.8-1.15-7.233,1.564-3.736,4.383-1.372,3.023.224-.044,3.508,4.95.023,3.524,2.009,2.617,2.033-2.643,2.349,4.128,3.211,1.147,3.252,7.589.155,2.224,4.432,3.437,2.361-1.094,1.827-4.518,1.8-.538-.016-2.388,3.155-.3.288,1.6,3.925-4.538,4.454-.029.789,1.6-2.067,2.924,3.131,3.459.576,2.108,7.352,4.228,8.917,1.259,2.638-.3,3.96.77,3.38-2.138,2.65,1.3.544,3.712,3.432.769,4.454-.264,1.338,3.186,4.094,1.631.127-1.464,6.953-.368-.654-16.733-2.064-4.07.815-3.247,4.819-.874.139-.334,6.057-4.744.2-11.455-2.061-2.9-4.637.031-1.733-2.34-4.919.032-1.442-1.78-.029-4.419-5.934-11.1-2.89-2.042-5.469,7.689-2.321.585-.9-3.805-2.6-1.155-1.143,2.358-4.3.028-.622-2.63-2.9,1.761-3.151,1.8-3.5-3.833-4.981-2.318-.305-3.8-6.68-.528-4,5.3Z" transform="translate(-970.459 -282.444)" fill="#6a85f4" stroke="#fff" stroke-width="1"/>
    <path id="path326" d="M1164.623,309.66l-5.329,21.75-.774,1.785-.517,6.863-1.555,2.226.065,9.9-.9,2.26,5.688,3.443,2.214.317,3.5,3.172.64,5.117,3.786-1.292,5.91,1.7.087-1.118,2.835-.019,4.121,3.813,3.782-1.951,1.857-5.744,1.895-2.26,2.518.316,2.519,2.238,1.33,4.122,11.742,14.289,3.461-2.567.562-5.444,3.793-.689-.064-9.586,1.9-1.6.542-8.6.759.6-.131-3.146-1.587-2.9.6-8.275,2.847,1.567,1.551-2.93,2.825-.949L1230,333.7l-3.156.02-.036-5.589,3.471-2.09,5.192-.6.308-2.954L1234,321.33l4.331-5.621-.616-1.735-4.99-2.647-11.971,13.518-8.412.055-.023-3.52-4.658-2.32-5.481,6.2-4.362.634-.027-4.133-3.777-1.712-5.856-8.183-5.247-2.029-1.743-3.8-2.934-.6-2.86,2.092-2.318.629-3.211-2.671-3.212.361Z" transform="translate(-934.244 -277.176)" fill="#6a85f4" stroke="#fff" stroke-width="1"/>
    <path id="path330" d="M1234.345,315.632l-1.733-2.619-3.2.305-2.88,6.5.338,2.631,3.179,2.607-5.78,3.882-3.741,3.544-6.4.041-2.915,2.37-2.823.949-1.552,2.928-2.846-1.576-.592,8.28,1.582,2.9.133,3.146,2.419,1.9.055,8.323,5.718.9,2.21,4.174,5.075.573.907-1.895,2.555-.017,4.459,4.778,1.568,1.581,5.067-1.023,1.23-2.554,1.219-5.127,2.821-2.281,2.164-6.687,2.823-1.943,2.232.6.611,1.913-1.551,1.932,2.855,3.5,4.739-.032,2.906,4.779-.635,1.6,2.822-1.951,2.209-2.561,1.96.223.116-5.132,9.85-4.2,1.139-2.914-.65-6.488-6.4-6.676L1265.569,338l-.047-7.052-5.53-2.65-.3-2.337,3.183-3.544-.027-4.086-5.279-5.564-.305-3.8-9.882.065-6.632,1.222Z" transform="translate(-918.362 -276.004)" fill="#4267cb" stroke="#fff" stroke-width="1"/>
    <path id="path53" d="M1184.018,365.157l.205-3.048-1.21-.35c.016.465-.19,1-.158,1.423,0,0-1.861,1.4-1.3,2.3,1.19,1.025-.989.61-.989.61s-2.3,3.224-1.6,3.68c.71.851-.254,2.813-.254,2.813s-1.339.967-1.3,1.411c.152.428-.249.787-.584.906.364,1.326-1.055.053-1.795-.34-1.15-1.082-.284,1.073-1.5.9-1.625,1.074.351-1.88-1.151-1.595-.983-.091-2.177-.224-1.761,1.246.356,1-.564.621-.195,1.3-.469.241-1.992.626-1.741-.321-.294-.7-1.237.329-.978.909-.22,2.5-3.136,3.227-.6,4.526,1.3.189.017.691-.546,1-.5.393-1.529,1.017-1.571-.073-.29-.558-.049-1.388-.889-.909-.294.951-1.3.123-1.408.095-.626.5-1.069-.353-.686-.858-.624-.385-.513-.3.293-.37.117-.722,2.4-.489,2.425-1.339,0-.358,1.974-.889,1.857-1.56.574,0,1.141.111.973-.685.063-.648-.264-.385-.745-.569-.208-.1-1.973-1.232-.835-1.37a28.649,28.649,0,0,1-.252-3.06c-.6-.156-.665-.318-.478-1.167-.2-.787,1.172-1.635.508-2.106a27.59,27.59,0,0,0-3.843-2.337s-.9-.649-.02-1.086c.3-.691-.409-.73-.806-1.148-.6-.2-.53-2.549-.342-3.283-.188-1.291.645-.628,1.26-1.171.446.858,1.168-.682,1.619-.839a37.388,37.388,0,0,0,2.786-4.834c.786-.426-.613-.4-.749-.189a9.124,9.124,0,0,1-1.569-.321c-.18.065-1.431-.522-.8-1a7.978,7.978,0,0,1,.73-1.047l.382-.433-2.005-1.214.917-2.268-.065-9.92,1.563-2.213.52-6.871-.969,2.357-2.04-.269-1.168-5.874-1.514-4.674-3.179.3-2.626,2.647-1.735-2.34-2.6,2.368-3.557-2.328-2.888.019-1.156.9-.578,3.391,1.6,1.26.019,2.866,1.942,3.194-1.576,1.939-6.017.04-.288,5.737-1.9,1.939,1.29,4.8.019,2.862,2.575,2.525.024,3.532,3.789,3.508.026,4.136-1.836,2.878,2.193,1.31.013,2.2-1.895,1.615.017,2.579,8.284,7.614,9.837,1.532.945,2.855-3.131,3.836,2.565,1.587,3.156-1.291,3.408.5,6.073-3.1-.992-1.921-4.124-4.108,6.322-2.3,8.224-1.989,6.274-8.311Z" transform="translate(-941.058 -272.363)" fill="#6a85f4" stroke="#fff" stroke-width="1"/>
    <path id="path146" d="M1075.022,328.119l-3.163.3.016,2.385-1.794.538-1.827,4.521-2.358,1.091-4.437-3.443.476,6.909,2.333,2.9,1.2,5.581L1062,351.556l-.813,4.144L1058,357.46l-5.512,3.284.571,2.625,6.738,6.72.625,4.13-2.627,4.385.028,4.132,1.789,2.058.913,4.967-.537,2.032,8.924,2.57,2.4,5.023,4.681-.031,1.85-1.851,3.166,1.58,1.576.226,3.994,6.081,4.168.256,1.063-2.125,1.159.12,1.2-1.747,5.228-.83,2.869-2.4,3.153-.305-.012-1.82,2.081-1.1.57,1.314,1.3-.815,2.1,1.351,3.656-.3,3.152-1.356,2.1,1.824,2.362-.016,1.883,3.464,2.883,1.3,1.548-3.717,2.11,1.876,4.5.2,1.555-3.206,2.614,2.655,3.679,1.067,1.15-1.134-2.282-.753-.919-3.511,5.505-5.295-2.659-9.657-7.6-4.987-3.207-7.589-3.523-4.678.847-6.488,2.579-2.646-4.67-3.771.135-1.172-4.1-1.631-1.334-3.186-4.454.256-3.432-.762-.544-3.711-2.654-1.311-3.376,2.146-3.96-.77-2.634.3-8.917-1.26-7.36-4.227-.577-2.108-3.13-3.461,2.07-2.924-.79-1.6-4.451.029-3.924,4.53Z" transform="translate(-968.514 -270.625)" fill="#fda7b4" stroke="#fff" stroke-width="1"/>
    <path id="path334" d="M1114.208,327.391l2.065,4.07.65,16.726-6.952.368-.262,2.638,4.672,3.768-2.581,2.646-.848,6.492,3.523,4.678,3.207,7.588,7.6,4.987,2.661,9.658-5.5,5.293.917,3.512,8.137,2.639,6.372-5.345,3.154-.305,9.31,4.024-.516,5.6,4.633-.314,3.7,4.259,2.684-.779,5.011-.969,1.26-5.785,6.883-4.188.583-9.254.236-.141-3.4-.5-3.148,1.292-2.555-1.584,3.131-3.833-.943-2.858-9.8-1.524-8.258-7.614-.017-2.575,1.886-1.605-.015-2.209-2.2-1.311,1.847-2.883-.027-4.136-3.78-3.492-.023-3.517-2.575-2.523-.019-2.864-1.281-4.8,1.884-1.939.293-5.721,5.991-.04,1.568-1.936-1.931-3.186-.019-2.865-1.587-1.258-1.075,6.033-3.192.02-2.309,2.366-1.784-1.771-9.294-1.4-3.46,2.084-2.322.015-.576-2.057-4.363-.861-.31-4.7-.882-.278-5.237.926Z" transform="translate(-949.498 -271.264)" fill="#6a85f4" stroke="#fff" stroke-width="1"/>
    <path id="path338" d="M1206.674,340.464l-.542,8.6-1.9,1.6.063,9.586-3.8.689-.562,5.444-3.461,2.567-.041-.039.376,1.64,3.507,3.786.017,2.59,3.463,6.365,7.3,1.535,2.524,1.909.99-.993-1.328-2.523,1.872-4.2,2.225-.3,3.788,5.046,1.567-2.228,2.224-.015,6.031,6.018.348,4.138-2.826,1.605-1.264,6.074,2.563,2.574.017,2.531-.631,2.593,1.893-1.929,3.166,1.9,1.691,2.3,5.247-.594,1.725,1.728.91,4.126,5.195-.639.569-4.411,2.589-1.192,5.571.248-.1-.186,8.659-3.576,3.208,2.041,3.218-.021.252-3.519,3.751-2.086,1.42-1.748,7.542-3,.859-4.982-1.5-2.345,4.053-7.067-3.779-1.435-1.186-4.14-7.878-4.655s.409-8.995-.349-10.612a.858.858,0,0,0-.105-.14l-.04-.04h-.04v-.041h-.142c-1.157.294-5.469.642-5.469.642l-4.389-5.007.105-4.834-1.958-.225-2.206,2.557-2.823,1.944.645-1.592-2.915-4.78-4.728.031-2.859-3.5,1.556-1.935-.612-1.916-2.232-.592-2.823,1.935-2.164,6.687-2.822,2.286-1.218,5.125-1.222,2.555-5.068,1.011-1.567-1.581-4.462-4.779-2.553.017-.906,1.9-5.066-.573-2.22-4.17-5.718-.891-.055-8.311Z" transform="translate(-920.676 -265.536)" fill="#6a85f4" stroke="#fff" stroke-width="1"/>
    <path id="Tracé_394" data-name="Tracé 394" d="M1176.546,354.082c.013.453-.187.986-.16,1.412,0,0-1.864,1.4-1.3,2.3,1.184,1.026-.986.613-.986.613s-2.289,3.211-1.6,3.677c.693.853-.267,2.8-.267,2.8s-1.331.959-1.291,1.426c.147.426-.253.773-.6.906.373,1.319-1.038.04-1.8-.346-1.131-1.093-.265,1.066-1.478.893-1.624,1.079.346-1.892-1.145-1.6-.986-.08-2.17-.213-1.757,1.266.346,1-.56.613-.2,1.292-.466.227-1.984.613-1.731-.333-.293-.706-1.238.333-.971.906-.226,2.5-3.143,3.224-.6,4.53,1.291.186,0,.679-.546,1a2.438,2.438,0,0,1-1.064.533h-.093c-.226-.013-.4-.187-.413-.613-.293-.56-.053-1.386-.878-.919-.306.946-1.306.12-1.4.093-.625.506-1.078-.36-.692-.866-.613-.373-.506-.293.306-.36.107-.733,2.369-.493,2.4-1.346,0-.36,1.97-.879,1.864-1.559.573,0,1.146.12.973-.68.053-.653-.266-.4-.733-.573-.213-.107-1.971-1.239-.853-1.372.067-.426-.412-2.625-.252-3.051-.6-.16-.653-.32-.466-1.172-.187-.786,1.171-1.639.52-2.118a28.615,28.615,0,0,0-3.834-2.332s-.893-.653-.013-1.092c.307-.693-.413-.719-.813-1.159-.6-.2-.518-2.545-.333-3.278-.172-1.279.653-.626,1.266-1.172.438.866,1.158-.68,1.611-.839a37.152,37.152,0,0,0,2.782-4.823c.773-.426-.611-.4-.745-.187a9.726,9.726,0,0,1-1.558-.333c-.187.08-1.412-.52-.786-1a5.6,5.6,0,0,1,.733-1.039l.358-.426,3.714,2.252,2.21.32,3.5,3.171.626,5.129,3.795-1.292Z" transform="translate(-934.711 -264.645)" fill="#fff" stroke="#fff" stroke-width="1"/>
    <text id="PUY-DE-DOME" transform="translate(129.952 107.419)" fill="#222221" font-size="10" font-family="LibeSansSemiCondensed-Regular, LibeSans SemiCondensed"><tspan x="-22.595" y="0">PUY-DE-DOME</tspan></text>
    <text id="HAUTE-LOIRE" transform="translate(171.756 152.723)" fill="#222221" font-size="10" font-family="LibeSansSemiCondensed-Regular, LibeSans SemiCondensed"><tspan x="-20.75" y="0">HAUTE-LOIRE</tspan></text>
    <text id="CANTAL" transform="translate(106.938 156.626)" fill="#222221" font-size="10" font-family="LibeSansSemiCondensed-Regular, LibeSans SemiCondensed"><tspan x="-12.875" y="0">CANTAL</tspan></text>
    <text id="RHÔNE" transform="translate(208.492 74.841)" fill="#222221" font-size="10" font-family="LibeSansSemiCondensed-Regular, LibeSans SemiCondensed"><tspan x="-11.2" y="0">RHÔNE</tspan></text>
    <text id="AIN" transform="translate(253.909 69.841)" fill="#222221" font-size="10" font-family="LibeSansSemiCondensed-Regular, LibeSans SemiCondensed"><tspan x="-5.455" y="0">AIN</tspan></text>
    <text id="SAVOIE" transform="translate(334.101 118.5)" fill="#222221" font-size="10" font-family="LibeSansSemiCondensed-Regular, LibeSans SemiCondensed"><tspan x="-11.515" y="0">SAVOIE</tspan></text>
    <text id="HAUTE-_SAVOIE" data-name="HAUTE-
SAVOIE" transform="translate(321.517 59.572)" fill="#222221" font-size="10" font-family="LibeSansSemiCondensed-Regular, LibeSans SemiCondensed"><tspan x="-11.795" y="0">HAUTE-</tspan><tspan x="-11.515" y="10">SAVOIE</tspan></text>
    <text id="ISÈRE" transform="translate(275.762 137.557)" fill="#222221" font-size="10" font-family="LibeSansSemiCondensed-Regular, LibeSans SemiCondensed"><tspan x="-9.01" y="0">ISÈRE</tspan></text>
    <text id="LYON" transform="translate(230.664 97.419)" fill="#222221" font-size="10" font-family="LibeSansSemiCondensed-Regular, LibeSans SemiCondensed"><tspan x="-7.965" y="0">LYON</tspan></text>
    <text id="LOIRE" transform="translate(183.756 94.091)" fill="#222221" font-size="10" font-family="LibeSansSemiCondensed-Regular, LibeSans SemiCondensed"><tspan x="-8.955" y="0">LOIRE</tspan></text>
    <text id="ALLIER" transform="translate(130.938 48.027)" fill="#222221" font-size="10" font-family="LibeSansSemiCondensed-Regular, LibeSans SemiCondensed"><tspan x="-10.82" y="0">ALLIER</tspan></text>
  </g>
</svg>
