<svg xmlns="http://www.w3.org/2000/svg" xmlns:xlink="http://www.w3.org/1999/xlink" width="414" height="239" viewBox="0 0 414 239">
  <defs>
    <clipPath id="clip-_._assets_departments-map-cor">
      <rect width="414" height="239"/>
    </clipPath>
  </defs>
  <g id="_._assets_departments-map-cor" data-name="./assets/departments-map-cor" clip-path="url(#clip-_._assets_departments-map-cor)">
    <rect width="414" height="239" fill="#fff"/>
    <path id="path14" d="M1391.484,523.137l3.739,4.69-4.169,3.193,1.86,3.737-2.828,3.269V542.2l4.685,4.272v6.479l-2.832,6.031-3.229,1.425-3.73-5.154-6.556.524-1.413-.961h-5.582l-5.068,4.687-1.935,7.895-12.084,2.316-9.317,7.893-1.86,5.143-4.619-.449-2.384-2.834-1.346,7.977-3.287,1.348-.961,7.467,1.429,3.267-5.174,3.73-1.4,3.735,5.206.966.88,2.52h9.252l2.541,1.651,6.779-1.275,2.888,1.718-1.252,2.1,4.637,6.334h8.874l2.146,6.351h6.255l-.366,3.8,5.07,6.336,2.541,1.264,3.35,2.094V648.9l2.549,2.081h5.053l1.26,2.1.834,11.41,2.986,2.088-1.279,1.72.834,6.729,9.69-.376,8.144-5.367-.309-13.795,11.174-15.816V613.564l-4.615-8.857-1.415-27.971-3.269-5.143-6.031-4.619-.961-17.3,2.842-7.889-3.726-12.62-2.32-10.2-1.941-2.846-4.173-2.3-6.993,4.683Z" transform="translate(-1176.717 -507.551)" fill="#fda7b4" stroke="#fff" stroke-width="1"/>
    <path id="path86" d="M1321.479,562.466v5.158l4.709,3.262,7.891,4.639.529,3.718-4.687,1.434-7.459,1.421v3.2l2.76,2.849.525,9.3,10.2,3.271,3.714.9,3.289,5.145-2.318,3.269-3.73,1.35-2.828,5.128-2.759,3.283,1.35,8.349,6.993-.449,1.86,1.448,6.569-3.292,1.86,1.86-3.27,7,3.27,3.273-5.58,4.171-3.73,8.347,10.2,2.384,14.462,1.346-6.05,7s-2.826-1.089-4.086-.529a.382.382,0,0,1-.153.065l-.065.067c-.019,0-.065.065-.065.065,0,.015-.063.065-.063.065a.259.259,0,0,0-.077.063c0,.025.015.065,0,.071a.471.471,0,0,0-.069.171v.063c0,.054-.065.115-.065.155v.15c0,2.338-3.218,7.992-3.218,7.992l4.633,5.07,8.416,5.143,15.8,4.171,4.617,1.86,4.259,1.86-2.826,5.172,7.465-.462,1.413,3.292h7.469l1.854-8.882-4.685-.968,6.556-6.917-2.316-2.387.451-4.169,8.414-4.617.449-5.162-5.58-.449-3.733,3.218v-4.648l7.459-.443,2.316-5.586,1.86-16.341-1.415-7-.151-6.729-8.125,5.367-9.7.376-.834-6.738,1.277-1.722-2.982-2.1-.834-11.392-1.262-2.1H1386.6l-2.537-2.1V596.22l-3.36-2.1-2.535-1.264-5.07-6.351.376-3.8h-6.257l-2.152-6.336h-8.9l-4.61-6.349,1.254-2.081-2.89-1.73-6.774,1.281-2.541-1.655h-9.252l-.882-2.516-5.21-.961h-3.729Z" transform="translate(-1178.499 -463.007)" fill="#4267cb" stroke="#fff" stroke-width="1"/>
    <text id="HAUTE-_CORSE" data-name="HAUTE-
CORSE" transform="translate(206.382 87.286)" fill="#222221" font-size="10" font-family="LibeSansSemiCondensed-Regular, LibeSans SemiCondensed"><tspan x="-11.795" y="0">HAUTE-</tspan><tspan x="-11.43" y="10">CORSE</tspan></text>
    <text id="CORSE-_DU-SUD" data-name="CORSE-
DU-SUD" transform="translate(192.441 166.458)" fill="#222221" font-size="10" font-family="LibeSansSemiCondensed-Regular, LibeSans SemiCondensed"><tspan x="-12.35" y="0">CORSE-</tspan><tspan x="-12.8" y="10">DU-SUD</tspan></text>
  </g>
</svg>
