<svg xmlns="http://www.w3.org/2000/svg" xmlns:xlink="http://www.w3.org/1999/xlink" width="414" height="239" viewBox="0 0 414 239">
  <defs>
    <clipPath id="clip-_._assets_departments-map-cvl">
      <rect width="414" height="239"/>
    </clipPath>
  </defs>
  <g id="_._assets_departments-map-cvl" data-name="./assets/departments-map-cvl" clip-path="url(#clip-_._assets_departments-map-cvl)">
    <rect width="414" height="239" fill="#fff"/>
    <path id="path250" d="M976.82,236.522l-2.089,3.157-3.769-2.474,1.909,6.234-3.4.021-6.2-4.365-3.017,6.265,1.545,1.9.013,1.853-3.091,4.106.394,6.837-4.9,5.977-3.422,12.807.39,0,1.264,4.987,5.892,1.208.024,3.746,7.425,2.143.04,5.946-.283,3.748,9.227-.061,8.036-1.957-.664-3.432,2.459-1.578,2.492,3.441,2.17.932,1.882,7.475L996.467,311l.618,4.388,4.824,4.763,2.7-.262,3.344-3.169,2.324-12.755,1.5-4.514,1.1-5.6,4.873-1.826,3.317.635,2.238,2.031,2.382-4.071,2.207-2.057-.016-2.452,2.864-.221.669-2.948-2.492-3.336.385-1.4-1.744-1.493-4.673-6.924-5.977.04-1.789-2.68-.074-11.205-2.467-6.473-.5-8.037-3.108-.234-3.571-2.674-.887.006-3.1,2.268-1.967-1.34-.469-3.089,2.213-1.161.18-1.1-1.292-1.139-14.945-.407.6,1.4Z" transform="translate(-837.072 -116.425)" fill="#acbaf2" stroke="#fff" stroke-width="1"/>
    <path id="path254" d="M1045.788,242.228l.208,1.35,4,1.065,1.606,3.387,2.428.88-.88,2.017.021,3.346-3.741,1.615-2.884,5.37-.183,2.948,1.1,1.348.456,1.538-3.936,2.288-6.215.686-1.541-1.745-1.773.212-1.766,2.009.222,4.048-3.951.279-.211,3.548-3.544,2.979.463,1.334,2.232,1.789,4.446.613,3.3-1.372,4.2-.228,2.018,1.538-.67,4.245,3.585,4.722.013,2.011-1.507,2.707.007,1.1,1.783,2.033,2.866-.018.211,1.3-3.487,2.965.207,2-2.208,1.156.9,1.548,2.883,2.428.013,1.8-3.057,1.814.017,2.7,4.207,2.221.914,3.133,2.678,2.433-.245.905-1.064,1.357-.211,4.04-.633,1.356,1.806,3.538.654,2.693-3.081,3.163-.13,2.5,7.256-.949,1.456-3.215L1061,338.1l7.694-1.661,4.044,1.221L1077,334.25l-.313-2.5-1.541-1.237-.032-5,8.225-8.5,3.135,3.435,2.741-2.885,2.463-.307,4.252-5.63,7.1.558.118,1.7,2.316-7.663-1.555-2.792.271-4.041.882-8.145-3.432-3.382.592-7.487-3.154-6.581-.321-4.34-5.609-4.361-.916-3.738,2.732-4.067-.038-5.933-3.224-3.776-3.156,1.317-1.523-.643-2.254-2.928-1.326-.193-.891.449-.217,4.5-1.975.215-1.53-1.327-3.584-4.931-1.353-1.735-5.074-.22-2.489-3.129-1.989.013-.877,1.161-3.314.466-2.676-2.482-3.115-1.322-.147-.2-4.475,2.278Z" transform="translate(-806.087 -114.749)" fill="#6a85f4" stroke="#fff" stroke-width="1"/>
    <path id="path378" d="M1031.678,260.47l-4.623,1.622-1.069,2.459-.443-.9-5.334.285-2.643,2.266-3.112.465-.439,1.554,2.491,3.337-.668,2.946-2.864.22.016,2.452-2.207,2.058L1008.4,283.3l-2.239-2.03-3.317-.633-4.873,1.826-1.1,5.6-1.5,4.517-2.324,12.751L989.7,308.5l-2.7.262.79.806.04,5.932-1.21,3.751,5.905,4.669,3.075,3.072,4.945.622,1.916,6.527,3.371,1.822-.555,4.7-2.466.47.881.2,7.759.542,2.742-2.812,4.972,4.958,6.112-7.224,2.779,1.874,3.7-.375,1.238.644,5.569.258,1.793-5,15.459,1.8,5.884,1.5,2.67-.31.129-2.5,3.081-3.161-.654-2.693-1.8-3.538.636-1.353.205-4.041,1.074-1.357.245-.906-2.683-2.435-.913-3.135-4.21-2.217-.018-2.7,3.061-1.814-.013-1.8-2.882-2.429-.9-1.552,2.205-1.152-.2-2,3.484-2.966-.212-1.3-2.847.018-1.785-2.034-.007-1.1,1.507-2.708-.014-2.011-3.582-4.722.673-4.245-2.026-1.538-4.2.229-3.3,1.373-4.446-.615-2.232-1.788-.463-1.334,3.544-2.979.211-3.548-4.71-2.67-2.69-2.482-1.966.707Z" transform="translate(-822.155 -105.014)" fill="#6a85f4" stroke="#fff" stroke-width="1"/>
    <text id="CHER" transform="translate(264.657 176.011)" fill="#222221" font-size="10" font-family="LibeSansSemiCondensed-Regular, LibeSans SemiCondensed"><tspan x="-8.855" y="0">CHER</tspan></text>
    <text id="INDRE" transform="translate(207 202.724)" fill="#222221" font-size="10" font-family="LibeSansSemiCondensed-Regular, LibeSans SemiCondensed"><tspan x="-9.475" y="0">INDRE</tspan></text>
    <text id="INDRE-ET-_LOIRE" data-name="INDRE-ET-
LOIRE" transform="translate(154.034 155.011)" fill="#222221" font-size="10" font-family="LibeSansSemiCondensed-Regular, LibeSans SemiCondensed"><tspan x="-15.02" y="0">INDRE-ET-</tspan><tspan x="-8.955" y="10">LOIRE</tspan></text>
    <path id="path366" d="M1024.814,158.994l-6.152,3.133.03,4.707-1.807,2.2-7.755.051-3.663-1.516-11.115,5.96-4.289.028-4.411,4.331,1.038.687.323,5.35,6.558,5.55.673,11.544L991.2,204.78l-4.632.977-4.618,2.83.659,2.484,2.129,2.84.048,7.392.647.088,4.31,3.075-1.559,2.013L991.254,228l4.873-.932,2.865-.018-.191,1.339-2.661,1.581,1.8,1.326,4.428-.03,1.557,3.589,2.683,1.531,2,4.48,6.873,1.749,4.237-.472,3.728-3.623,3.368.925.823-1.847-.211-2,1.773-1.367,2.868,1.783,1.771-1.36-.016-2.452,2.411-1.613,2.224.889,2,2.237,3.53-2.021,3.751-.024,2.643-2.969,1.548-5.8,2.416-.473-.674-5.841,2.83-2.456-.9-1.807.347-.6-.829.109-.691-8.384-.643-.949-.628-4.03-6.483-1.2-2.826-3.438-.938-6.875-3.7-.582-.661-3.438-4.31-3.077-2.2-5.341,2.14-3.751-2.181-2.484-.02-3.1,1.208-3.443-2.484-2.483-.96-3.741-3.086-3.081-1.86,1.564Z" transform="translate(-824.096 -149.796)" fill="#6a85f4" stroke="#fff" stroke-width="1"/>
    <path id="path34" d="M986.863,211.774l3.074,2.83-.253,6.543-1.2,4.36-3.113.021.04,5.943-4.263,5.67-4.625,1.881-2.149,2.809.96,2.34,14.945.407,1.292,1.139-.18,1.1-2.213,1.161.469,3.089,1.968,1.339,3.1-2.266.887-.007,3.572,2.676,3.106.234.5,8.035,2.466,6.475.074,11.242,1.789,2.68,5.977-.04,4.674,6.924,1.746,1.493.045-.164,3.111-.463,2.643-2.263,5.334-.288.443.894,1.071-2.458,4.623-1.622,4.007.212,1.967-.705,2.687,2.48,4.7,2.671,3.949-.28-.214-4.047,1.766-2.007,1.765-.214,1.54,1.744,6.222-.684,3.936-2.288-.463-1.541-1.089-1.353.183-2.943,2.878-5.37,3.741-1.615-.023-3.347.88-2.016-2.428-.88-1.6-3.387-4-1.065-.212-1.35,3.967-3.373,4.476-2.275-2.53-3.78-11.312-.384-1.521,1.8-3.1.021-1.092-1.13-4.888-.623-1.3,2.909-3.111.919-2.88-3.323-.72-3.846-2.628-2.229-3.993-.428-2.935-1.979-.013-1.993-1.751-4.28,3.472-3.571-.45-1.8-1.545-1.793-1.772.011-.01-1.591,1.751-3.1.188-1.807-2.618.018-4.01-1.126-3.727,3.623-4.238.472-6.871-1.749-2-4.48-2.678-1.531-1.557-3.589-4.431.03-1.8-1.326,2.66-1.581.191-1.339-2.864.018-4.875.929-3.072-1.527v.008l-2.064,2.708Z" transform="translate(-827.254 -128.03)" fill="#acbaf2" stroke="#fff" stroke-width="1"/>
    <path id="path374" d="M1042.77,195.657l-.346.6.9,1.807-2.839,2.456.674,5.84-2.415.475-1.547,5.8-2.643,2.967-3.752.026-3.527,2.023-2-2.238-2.224-.89-2.411,1.615.016,2.452-1.772,1.361-2.868-1.785-1.773,1.371.211,1.994-.823,1.848.637.2,2.618-.017-.193,1.806-1.748,3.1.011,1.591,1.768-.011,1.544,1.793.455,1.8-3.475,3.571L1017,241.5l.013,1.993,2.932,1.976,3.993.429,2.63,2.231.714,3.846,2.888,3.323,3.108-.919,1.3-2.911,4.89.622,1.085,1.143,3.1-.021,1.52-1.813,11.312.384,2.691,3.982,3.118,1.32,2.677,2.482,3.313-.465.88-1.161,1.981-.014,2.49,3.129,5.076.221,1.355,1.734,3.578,4.932,1.53,1.326,1.98-.214.215-4.5.888-.45,1.334.194,2.249,2.928,1.525.642,3.149-1.316-.487-.562-.317-3.142,6.149-1.887-.959-3.439-.981-4.99-4.03-5.565-.955-3.439,6.159-.041,4.33-3.183.557-4.649-2.781-3.123,7.983-6.9-.037-5.639-4.065-4.314-1.558-4.986-5.606-5.306-7.662,4.446-.609-2.5-3.412-.279-.922,2.5-3.052.616-8.355-.238-3.378,2.214-2.776-2.482,4.915-3.473-.333-5.289-3.707-1.882-3.133-4.67-8.286-.54-3.442-2.778-3.965,3.773" transform="translate(-810.905 -133.719)" fill="#6a85f4" stroke="#fff" stroke-width="1"/>
    <text id="LOIRET" transform="translate(251.501 100.434)" fill="#222221" font-size="10" font-family="LibeSansSemiCondensed-Regular, LibeSans SemiCondensed"><tspan x="-11.065" y="0">LOIRET</tspan></text>
    <text id="LOIR-_ET-CHER" data-name="LOIR-
ET-CHER" transform="translate(202.724 133.049)" fill="#222221" font-size="10" font-family="LibeSansSemiCondensed-Regular, LibeSans SemiCondensed"><tspan x="-7.985" y="0">LOIR-</tspan><tspan x="-13.48" y="10">ET-CHER</tspan></text>
    <text id="EURE-ET-LOIR" transform="translate(198 65.766)" fill="#222221" font-size="10" font-family="LibeSansSemiCondensed-Regular, LibeSans SemiCondensed"><tspan x="-20.83" y="0">EURE-ET-LOIR</tspan></text>
  </g>
</svg>
