<svg xmlns="http://www.w3.org/2000/svg" xmlns:xlink="http://www.w3.org/1999/xlink" width="414" height="239" viewBox="0 0 414 239">
  <defs>
    <clipPath id="clip-_._assets_departments-map-idf">
      <rect width="414" height="239"/>
    </clipPath>
  </defs>
  <g id="_._assets_departments-map-idf" data-name="./assets/departments-map-idf" clip-path="url(#clip-_._assets_departments-map-idf)">
    <rect width="414" height="239" fill="#fff"/>
    <path id="path414" d="M1047,158.828l-5.759,12.963,3.785,10.21,6.006,6.738.006.744,9.3,6.513,2.227-1.2-1.736-3.216,1.683-5.077-1.069-1.821,1.141-4.2h-.219l-6.5-3.288-5.349-1.476-.772-2.365-.107-2.046,3.165-3.691,3.488-.241,1.58-2.161,3.835-1.745-1.286-3.128,1.78-.316,1.386-3.028-1.42-2.158-1.486-.3-.535-2.474L1047,158.828" transform="translate(-866.61 -88.362)" fill="#6a85f4" stroke="#fff" stroke-width="1"/>
    <path id="path302" d="M1057.813,169.4l-1.254,7.507-10,4.808-1.27,7.395,4.758,8.133-6.681,9.409-9.913.066,3.948,6.047-4.67,5.446-1.549,10.92,3.285.666,1.389,8.909,1.417,2.086,1.536,18.518,21.778-2.124,8.755-8.333,7.6,6.134,18.306,1.192,2.646,3.963-.09-13.911,15.165-10.248-4.617-6.043,1.852-18.327,2.559-3.976-3.385-18.3,5.965-4.78-1.276-8.6-7.542-3.494-12.653.081-7.354-4.016-5.309,2.768-10.726-7.429-6.078,2.793Z" transform="translate(-888.032 -63.245)" fill="#6a85f4" stroke="#fff" stroke-width="1"/>
    <path id="path306" d="M1022.816,155.987l-4.523,7.87,16.6,7.392,12.644-2.4,15.744,10.051,16.791.663,11.931,7.226,3.128,10.11-.094.225,1.317-.231,12.162-6.688,18.281-1.348,10.007-4.7,6.4-4.673,2-13.588-4.473-4.486-15-8.846-14.417-7.517-7.389,3.45-8.149,2.171-5.487-4.173-10.923-6.76-8.774,6.888-12.978,1.52-18.421-1.314-4.2-6.8-2.628-6.165-5.409,6.866Z" transform="translate(-915.45 -127.1)" fill="#4267cb" stroke="#fff" stroke-width="1"/>
    <path id="path410" d="M1013.971,149.518l-2.7,3.444,3.507,5.49.034,5.521,6.116,1.3-3.451,3.535.357,3.1.416-.335,6.816,6.8,2.121,8.261,5.487,5.484-2.668,7.6.044,6.854,4.817,5.487-4.727,8.283L1035,232.14l9.519,6.794,1.467,7.592,8.167,1.286L1056.225,263l6.241,7.592,11.033,2,1.536-10.923,4.667-5.44-3.938-6.05,9.9-.063,6.685-9.409-4.758-8.136,1.27-7.395,10-4.8,1.251-7.507,6.641-2.715,6.078-2.793,1.226.766-.006-.773-6.141-6.9-3.882-10.457,6.006-13.5-3.131-10.107-11.924-7.229-16.795-.663-15.737-10.051-12.643,2.4-16.613-7.392-.219.454Z" transform="translate(-930.385 -106.704)" fill="#6a85f4" stroke="#fff" stroke-width="1"/>
    <path id="path298" d="M1129.925,148.831l-6.763-2.043-11.615,4.917-9.531-5.455-4.1,5.543-6.09.707-4.167-3.4-6.8-4.038-8.136,5.549-.295-.3-2.8,19.1,4.188,24.221.106,16.222-5.255,13.607,1.376,9.381-5.971,4.777,3.381,18.3-2.568,3.976-1.852,18.331,4.62,6.047-15.168,10.248.091,13.911,4.295,6.347,8.186,4.157.735,11.68-10.873,7.67,6.131,5.48,7.461-4.889,18.468.525,6.735-1.361,2.03-5.527,7.523.616,1.355,5.515,16.919-9.813,6.181-7.561,8.108-9.756-5.493-6.134,4.714-10.41,12.165-6.25,26.608,1.154,6.071-4.8.535.557,1.461-11.58,2.628-13.81,4.739-6.328.582-8.261,9.478-4.154-.038-5.515-10.135.732-2.14-4.861,3.388-6.187-2.787-10.351-5.49-3.394,1.342-9.6,5.446-3.563-.832-4.076,1.955-2.465-11.446-2.318-3.528-8.252-6.113-2.074-18.421-17.749-2.168-15.2-7.554-5.468-4.12,2.14Z" transform="translate(-842.672 -111.535)" fill="#6a85f4" stroke="#fff" stroke-width="1"/>
    <path id="path70" d="M1060.616,160.81l-.206,1.514-.522,1.4,1.4-.009.716-.648-.3-1.079,4.254-.238,1.045.422.016,2.265-1.029,2.262-6.2-.813-.973-.851-2.856,2.055-2.762.769-3.932-.185-1.151,4.2,1.054,1.821-1.68,5.08,1.736,3.216,2.972-1.523,7.148,3.929,12.318-.078,7.395,3.4-.113-.76,5.127-13.276-.041-6.034-3.287-.835-.857-1.608-1.389-.635-3.013-3.322-5.211-2.975-4.157-.194-2.756,2.287" transform="translate(-853.308 -75.551)" fill="#c61818" stroke="#fff" stroke-width="1"/>
    <path id="path310" d="M1074.86,153.274l6.256-4.555-.81,5.393,4.095,23.664.063,9.788-3.3-.832-.857-1.608-1.411-.638-3-3.322-5.2-2.972-4.169-.2-2.746,2.287-2.969.457-.547-6.028-2.8-4.295-8.608.166-1.289-3.125,1.786-.316,1.379-3.028-1.414-2.158-1.489-.3-.551-2.477s17.708-1.544,17.732-1.573S1074.86,153.274,1074.86,153.274Z" transform="translate(-853.757 -95.474)" fill="#ff697f" stroke="#fff" stroke-width="1"/>
    <text id="ESSONNE" transform="translate(191 152.758)" fill="#222221" font-size="10" font-family="LibeSansSemiCondensed-Regular, LibeSans SemiCondensed"><tspan x="-15.685" y="0">ESSONNE</tspan></text>
    <text id="HAUTS-_DE-SEINE" data-name="HAUTS-
DE-SEINE" transform="translate(167.679 82.531)" fill="#222221" font-size="10" font-family="LibeSansSemiCondensed-Regular, LibeSans SemiCondensed"><tspan x="-12.21" y="0">HAUTS-</tspan><tspan x="-14.385" y="10">DE-SEINE</tspan></text>
    <text id="YVELINES" transform="translate(132.285 113.306)" fill="#222221" font-size="10" font-family="LibeSansSemiCondensed-Regular, LibeSans SemiCondensed"><tspan x="-15.695" y="0">YVELINES</tspan></text>
    <text id="VAL_D_OISE" data-name="VAL D’OISE" transform="translate(181.679 42.39)" fill="#222221" font-size="10" font-family="LibeSansSemiCondensed-Regular, LibeSans SemiCondensed"><tspan x="-17.335" y="0">VAL D’OISE</tspan></text>
    <text id="SEINE-SAINT-DENIS" transform="translate(236.98 75.037)" fill="#222221" font-size="10" font-family="LibeSansSemiCondensed-Regular, LibeSans SemiCondensed"><tspan x="-30.365" y="0">SEINE-SAINT-DENIS</tspan></text>
    <text id="SEINE_ET_MARNE" data-name="SEINE
ET MARNE" transform="translate(283.236 125.104)" fill="#222221" font-size="10" font-family="LibeSansSemiCondensed-Regular, LibeSans SemiCondensed"><tspan x="-9.235" y="0">SEINE</tspan><tspan x="-16.585" y="10">ET MARNE</tspan></text>
    <text id="VAL_DE_MARNE" data-name="VAL DE MARNE" transform="translate(227.3 103.306)" fill="#222221" font-size="10" font-family="LibeSansSemiCondensed-Regular, LibeSans SemiCondensed"><tspan x="-23.74" y="0">VAL DE MARNE</tspan></text>
    <text id="PARIS" transform="translate(196.979 87.531)" fill="#222221" font-size="10" font-family="LibeSansSemiCondensed-Regular, LibeSans SemiCondensed"><tspan x="-9.51" y="0">PARIS</tspan></text>
  </g>
</svg>
