<svg xmlns="http://www.w3.org/2000/svg" xmlns:xlink="http://www.w3.org/1999/xlink" width="414" height="239" viewBox="0 0 414 239">
  <defs>
    <clipPath id="clip-_._assets_overall-map-pac">
      <rect width="414" height="239"/>
    </clipPath>
  </defs>
  <g id="_._assets_overall-map-pac" data-name="./assets/overall-map-pac" clip-path="url(#clip-_._assets_overall-map-pac)">
    <rect width="414" height="239" fill="#fff"/>
    <path id="path94" d="M1257.172,442.373l-.3,4.513-3.48,2.924-1.876,4.571-1.252,8.395,3.866,5.728.383,4.847,2.187.674,6.481,6.069,6.061,5.427-2.525,1.663-3.847-2.594-4.763,2.651-1.3,1.61-5.067.032.643,2.562-1.579,1.935,1.329,3.25-4.15,2.6,1.61,3.866,4.17.255,4.125,1.917.716,6.779,3.853,3.852,2.187-.015,4.181,1.573.651,3.577-2.52,2.23,1.93,1.928.015,2.29,3.955,4.062.283-.344.276-8.151,7.05,1.377,2.452-3.273,3.544.711.268-11.039,8.088-.748,7-6.476,6.318-.042.313-3.95,6.323-3.91-3.593-8.18,5.253-4.656-1.105-5.346,7.753-2.552,2.033-7.829-1.054-5.34-1.815-3.176-1.435-4.666-5.245.435-16.507,6.15-5.285.036-9.169-7.419-9.2-2.441-5.29.036-.042-6.433-7.4-4.576v-.233l-.724.289Z" transform="translate(-992.428 -355.7)" fill="#eaeaea" stroke="#fff" stroke-width="1"/>
    <path id="path98" d="M1263.53,398.249l-6.3.776-1.1-5.005-2.1-2.1-6.365.721-2.461,2.177-1.356,7.495,1.08,1.744,7.379.693,1.436,4.611,2.825,1.4.052,7.8-6.693-.3-2.8,3.215-8.081-1.371-4.542,3.948-3.212-1.4-4.542,3.614,1.768,3.176-2.8,2.872-8.779.058.028,4.273,2.836,1.4-1.054,2.508-5.948,2.5-7.365.784-2.109,6.8-.312,4.268,3.918,3.169-3.866,4.647-4.91-2.484-5.646-.3-.706,3.192,3.556,2.492-4.269,2.879,1.5,6.022,11.968,3.19,2.185,4.6,3.489.658-1.112,11.136.05.05,5.374-5.17,6.429-.044,2.53,1.592,3.491-1.343-5.432-6.077-.989-2.887,1.914-.357,3.5,3.22,2.272-.015-.373-5.178-2.251-.614.931-3.194,3.785-6.523,6.053-3.583,2.864-.645-.021-3.266,1.91-.013,3.509,2.888.015,2.276,6.064,3.847,1.631-.706-.994-6.108-1.631.011,1.616-2.29,6.641.3,3.52-2.586,5.435,2.862,11.441.21,1.865-4.868,1.295-1.944-.024-3.507,4.8-.322,1.881-3.887,5.38-3.292,3.79-5.833,4.569.205,3.3-3.683,3.831.318-.021-3.187-4.91-2.471-1.138-10.315-3.908-1.4-4.889.768-9.2-4.606-1.476-10.643-5.253-1.736-1.82-3.569-2.339-5.136-6.754-.3-3.14,1.443Z" transform="translate(-1027.484 -385.367)" fill="#eaeaea" stroke="#fff" stroke-width="1"/>
    <path id="path122" d="M1172.65,445.959l1.051,6.374,5.979.7-1,2.859-4.6.375-5.2,5.38-1.417-1.747.971-7.12-2.1-2.5-9.508,1.485-1.839,3.829,1.023.562,6.025,10.009.053,8.1,10.541,10.467.031,4.563-4.039,2.358.285.134,12.77,5.379,5.445,6.058,2.614,3.564,7,3.145,8.278-.343,13.725,5.66,7.663.92,9.56-2.276,3.919-3.168.482-2.686-7.365-8.327-8,.052-.019-2.9,2.844-3.276-.024-3.546L1221.4,486.9l-.648-5.178,3.473-1.637-.029-4.5-3.834-.645-.3-4.854-.05-.343-3.221-.217-5.314-3.9-1.435-4.609-9.851-.671-7.377-.64-.764-4.272,2.45-5.363-4.545,3.966-7.043-.689-1.421-2.5,4.851-6.751-4.927-4.642-4.954.438Z" transform="translate(-1049.741 -355.728)" fill="#eaeaea" stroke="#fff" stroke-width="1"/>
    <path id="path126" d="M1285.7,428.811l-1.883,3.889-4.794.314.023,3.53-1.295,1.951-1.863,4.868-11.443-.215-5.434-2.861-3.523,2.586-6.64-.3-1.616,2.3,1.631-.011.994,6.1-1.631.7-6.059-3.835-.014-2.282-3.509-2.882-1.914.013.021,3.26-2.864.645-6.053,3.586-3.787,6.526-.929,3.194,2.25.611.375,5.18-2.274.015-3.507-3.218-1.907.356.989,2.887,5.432,6.077-3.491,1.34-2.53-1.586-6.433.044-5.372,5.17-.049-.05-.221,2.109-2.1-2.5-2.833-2.483-1.759,5.361-3.148,2.872-1.33-.1.052.343.3,4.854,3.833.65.029,4.493-3.467,1.637.648,5.178,6.389,3.147.024,3.543-2.844,3.279.019,2.9,8-.052,7.37,8.333-.047.163,9.268-3.14,11.538,7.663,6.318-4.889,1.568-3.265,8.935-2.961,5.71,3.84,8.246-6.15,9.576.28,2.515-2.635,5.351-.27.118-.055-1.322-3.244,1.566-1.933-.63-2.57,5.052-.032,1.3-1.6,4.771-2.652,3.845,2.6,2.521-1.663-6.056-5.426-6.485-6.071-2.187-.672-.375-4.844-3.868-5.733,1.252-8.395,1.873-4.572,3.47-2.922.311-4.513,4.778-2.6.722-.288-.045-6.9,4.949-.714-2.825-2.481-3.548-1.067-1.779-4.6,1.385-3.2,6.256-6.832-1.049-5.009.905-.971-4.566-.2-3.79,5.835Z" transform="translate(-1024.952 -367.878)" fill="#eaeaea" stroke="#fff" stroke-width="1"/>
    <text id="ALPES-DE-_HAUTE-PROVENCE" data-name="ALPES-DE-
HAUTE-PROVENCE" transform="translate(222.615 118.5)" fill="#222221" font-size="10" font-family="LibeSansSemiCondensed-Regular, LibeSans SemiCondensed"><tspan x="-16.725" y="0">ALPES-DE-</tspan><tspan x="-29.4" y="10">HAUTE-PROVENCE</tspan></text>
    <text id="ALPES-_MARITIMES" data-name="ALPES-
MARITIMES" transform="translate(295.804 131.09)" fill="#222221" font-size="10" font-family="LibeSansSemiCondensed-Regular, LibeSans SemiCondensed"><tspan x="-11.54" y="0">ALPES-</tspan><tspan x="-18.635" y="10">MARITIMES</tspan></text>
    <path id="path90" d="M1270.919,477.768l-9.576-.28-8.241,6.15-5.715-3.84-8.93,2.967-1.568,3.263-6.321,4.886-11.537-7.663-9.258,3.14-.435,2.5.165-.1,5.768,3.832-7.624,5.246-3.113,6.45,3.858,3.163-.294,6.8,6.125,5.772-1.628,1.327-6.987-.3.016,2.567,3.168,1.6.006.96-2.852,2.634,1.634,1.92,2.533-.016,2.562,2.559.352,1.923-3.19,1.943-2.521,2.917-.294,7.069.963,1.317,6.323,2.811,1.807,7.11,3.879.709,3.535-2.524,6.279-3.983,10.923,1.009-.32,2.864-3.541,1.794,8.455.335-2.095-2.148-.768-4.609,4.554-3.218,5.295,1.741,2.14.661,1.763,2.164,2.476-1.786.638-4.676,2.8-2.47,7.372-.049,2.124-3.252,4.9,1.39,5.62-2.5-.062-9.3-7.373.391,5.6-3.559,2.791-3.969.688-5.707,10.179-1.489,5.647-6.473-3.958-4.057-.015-2.3-1.923-1.931,2.516-2.226-.645-3.577-4.188-1.574-2.187.015-3.855-3.85-.714-6.782-4.125-1.915-4.172-.257-1.608-3.861,4.026-2.533-5.348.276Z" transform="translate(-1019.204 -333.891)" fill="#eaeaea" stroke="#fff" stroke-width="1"/>
    <path id="path118" d="M1165.516,496.682l-10.428-1.417-2.924,8.057,2.494,3.525-11.376,7.145-3.1,7.428,11.157.441,14.818.984,2.836,2.833-5.29.034-3.462,6.069,15.117,3.084,11.98-2.188-6.4-6.048,4.2-3.557,6.72,2.807,3.194,6.748,20.114.221,5.222-2.218,1.089,3.244-5.6,4.991,7.774.293-1.382,3.593-2.12,2.515,17.219-.113,8.477,2.793.84,1.125.293-7.069,2.52-2.922,3.188-1.943-.353-1.919-2.562-2.57-2.533.018-1.634-1.91,2.854-2.638-.007-.96-3.168-1.6-.016-2.567,6.987.3,1.626-1.324-6.116-5.768.3-6.8-3.855-3.163,3.11-6.446,7.621-5.246-5.763-3.837-4.1,3.273-9.551,2.279-7.663-.92-13.733-5.657-8.28.335-7-3.142-2.612-3.565-5.439-6.053-12.778-5.385-.284-.129-9.8,5.767Z" transform="translate(-1058.863 -335.838)" fill="#eaeaea" stroke="#fff" stroke-width="1"/>
    <text id="VAR" transform="translate(230.614 179.844)" fill="#222221" font-size="10" font-family="LibeSansSemiCondensed-Regular, LibeSans SemiCondensed"><tspan x="-6.405" y="0">VAR</tspan></text>
    <text id="BOUCHES-_DU-RHÔNE" data-name="BOUCHES-
DU-RHÔNE" transform="translate(122.24 159.844)" fill="#222221" font-size="10" font-family="LibeSansSemiCondensed-Regular, LibeSans SemiCondensed"><tspan x="-17.025" y="0">BOUCHES-</tspan><tspan x="-16.89" y="10">DU-RHÔNE</tspan></text>
    <text id="VAUCLUSE" transform="translate(147.925 134.902)" fill="#222221" font-size="10" font-family="LibeSansSemiCondensed-Regular, LibeSans SemiCondensed"><tspan x="-17.345" y="0">VAUCLUSE</tspan></text>
    <text id="HAUTES-_ALPES" data-name="HAUTES-
ALPES" transform="translate(236.614 53.161)" fill="#222221" font-size="10" font-family="LibeSansSemiCondensed-Regular, LibeSans SemiCondensed"><tspan x="-14.11" y="0">HAUTES-</tspan><tspan x="-10.655" y="10">ALPES</tspan></text>
    <text id="Marseille" transform="matrix(1, 0, 0, 1, 164.095, 189.035)" fill="#222221" font-size="14" font-family="LibeSans-Bold, LibeSans" font-weight="700"><tspan x="-33.887" y="0">Marseille</tspan></text>
    <rect id="Rectangle_238" data-name="Rectangle 238" width="7" height="7.001" transform="translate(159.146 199.854) rotate(-45)" fill="#fff" stroke="#222221" stroke-miterlimit="10" stroke-width="3"/>
  </g>
</svg>
