<svg xmlns="http://www.w3.org/2000/svg" xmlns:xlink="http://www.w3.org/1999/xlink" width="414" height="239" viewBox="0 0 414 239">
  <defs>
    <clipPath id="clip-_._assets_overall-map-guy">
      <rect width="414" height="239"/>
    </clipPath>
  </defs>
  <g id="_._assets_overall-map-guy" data-name="./assets/overall-map-guy" clip-path="url(#clip-_._assets_overall-map-guy)">
    <rect width="414" height="239" fill="#fff"/>
    <path id="path3562" d="M142.62,577.41a1.841,1.841,0,0,0-1,.333l-9.247,11.713-8.023,9.224-9.244,9.269,1.309,24.764-.669,22.83,8.061,11.139,7.89,14.173,4.577,8.686-4.577,5.592-5.335,14.791.675,20.443-6.593,11.707-10.591,8.7,3.24,3.658,8.02,4.891,7.234,4.378,10.616-3.145,11.25-6.8,23.188-.583,8.692,6.143,9.247.669,9.275,1.918,13.238-10.606,15.282-26.523,11.257-22.843L251.644,685.2l11.928-15.371,6.587-11.827-5.246-10.467-4-14.823-8.6-3.167-9.792-6.67-8.144-7.465-10.584-6.8-7.259-2.45-21.172-14.807L181.43,586.3l-13.276-1.759s-5.937-2.447-9.237-3.69c-2.9-1.081-12.943-3.674-16.3-3.446Z" transform="translate(7.183 -550.228)" fill="#eaeaea" stroke="#fff" stroke-miterlimit="10" stroke-width="1"/>
    <text id="Cayenne" transform="matrix(1, 0, 0, 1, 253.506, 50.537)" fill="#222221" font-size="14" font-family="LibeSans-Bold, LibeSans" font-weight="700"><tspan x="-32.893" y="0">Cayenne</tspan></text>
    <rect id="Rectangle_248" data-name="Rectangle 248" width="7" height="7.001" transform="translate(227.557 61.895) rotate(-45)" fill="#fff" stroke="#222221" stroke-miterlimit="10" stroke-width="3"/>
  </g>
</svg>
