<svg xmlns="http://www.w3.org/2000/svg" xmlns:xlink="http://www.w3.org/1999/xlink" width="414" height="239" viewBox="0 0 414 239">
  <defs>
    <clipPath id="clip-_._assets_overall-map-nor">
      <rect width="414" height="239"/>
    </clipPath>
  </defs>
  <g id="_._assets_overall-map-nor" data-name="./assets/overall-map-nor" clip-path="url(#clip-_._assets_overall-map-nor)">
    <rect width="414" height="239" fill="#fff"/>
    <path id="path244" d="M1033.721,96.64l-30.979,8.089-20.411,7.539L965.65,121.5l-9.7,14.954L954,148.042l8.207,6.16,11.844,2.373-1.9.336.066.336,9.145-1.255,4.669-5.127,3.534-.876,4.093,7.111,5.626-.643,2.373,4.08,9.94-.64,10.052,7.072-6.457,2.088,4.725,3.545,2.939-.019,2.654,5.676,4.7-.03,1.422-3.585-3.558-2.367,9.985-3.041,10.512-1.261,2.624-7.77,4.941-4.463,9.409-.317,10.887,5.547,6.483.7,1.08-3.448,2.84-5.434,1.611-2.866-4.116.026-.047-7.066-2.446-4.093,1.576-8.284,1.6-4.166-3.27.021,1.6-4.108,4.018-4.99-4.1-7.441-1.306-7.411L1063.89,84.74l-2.054-4.093-4.508.43-3.543-1.5-2.656,3.324L1033.721,96.64Z" transform="translate(-736.171 -74.009)" fill="#eaeaea" stroke="#fff" stroke-width="1"/>
    <path id="path246" d="M972.858,123.128l-9.145,1.255,2,15.339,4.136,1.225.009,1.649-4.112,2.476,4.95,6.987,2.553,9.895-.445,4.181-3.639,2.467.405,2.9,4.132,1.624.42,3.7-3.208,9.548,3.3,4.138,11.429.323,2.459,5.734,4.138,4.134,5.7,2.033,1.756,6.192-2.857,4.116,5.987,4,5.839-5.736,5.68-.038,14.719-7.893,4.853,2.007,10.268-.068,2.4-2.909-.041-6.233,8.149-4.149-.043-6.616,2.215-1.87-.212-1.859,2.067-2.122-3.667-.778-.021-3.309-2.107-3.294,1.623-2.065,11.42-3.373,2.834-4.982,2.433-9.156,2.966-3.78.626-4.886,3.673,2.016,2.861-.82-2.1-3.292L1078,132.34l-3.677-3.283.054-.264-6.479-.7-10.885-5.547-9.409.328-4.941,4.463-2.624,7.758-10.51,1.261-9.987,3.044,3.558,2.365-1.427,3.587-4.7.03-2.654-5.68-2.915.019-4.727-3.545,6.455-2.086-10.053-7.072-9.938.653-2.373-4.091-5.626.643-4.095-7.111-3.534.876Z" transform="translate(-727.663 -41.135)" fill="#eaeaea" stroke="#fff" stroke-width="1"/>
    <path id="path350" d="M878.691,109.672l.06,9.113-3.243,4.131,2.058,2.043,1.231.844-.79,7.888,2.919,6.59,9.482,10.666,2.09,9.494,2.039,2.9.1,14.879,4.977,9.895.075,11.568-5.226,10.747,5.778,14.849,9.03,2,.822,4.155-4.431,2.069-7.7.051,1.27,5.222,2.465,7.871,7.045,6.16,3.273.777,3.24-4.521,3.65-.49,4.408-5.38,4.146,3.281,4.9-.032,3.281,1.624.006.8,6.927.808,4.085-3.324,6.093,2.467.148.272,6.944-6.065,2.311-7.9-.679-3.425.944-4.048-4.074-4.071-10.5-6.819-7.71-.6-7.854-9.882,6.4-2.41,2.635-5.13-3.352-3.073,2.979-2.724,3.024,2.356,5.393-3.412,3.386-5.5L954,180.94l-2.379-4.817,1.362-1.733-3.106-5.059,3.373-4.464-2.707-3.425-3.365,4.448-4.72-2.673-7.833-7.809-.351-3.373,2.343-2.4-.758-4.558-3.842,1.011-.46-9.921-10.747-12.709,3.217-8.276,4.523-.03L924.414,104l-17.6-.737-9.362,6.667-10.632-6.931-15.19-4.464-1.606,4.17Z" transform="translate(-809.715 -57.411)" fill="#eaeaea" stroke="#fff" stroke-width="1"/>
    <path id="path50" d="M991.609,131.815l-17.46,7.132-13.984-7.787-33.491-4.736-7.805-4.046L906.8,125.564l.762,4.558-2.343,2.4.355,3.373,7.826,7.807,4.727,2.677,3.36-4.451,2.711,3.425-3.378,4.464,3.108,5.063-1.362,1.731,2.378,4.815-1.259,5.438-3.384,5.5-5.393,3.414-3.018-2.358-2.984,2.727,3.352,3.071-2.639,5.134-6.4,2.416,7.854,9.874,7.71.6,5.971,3.875,8.231-2.577,6.008-7.177,8.453,2.319,7.349-5.2,4.444-1.681,4.738,4.735,7.758-1.443,6.774,3.72,8.4-2.763,7.665-5.869,5.078-5.864,3.38-.692,1.018,4.436,2.671-.67.311-3.127,7.77-1.371,2.686,1.634,8.291-1.915,1.343-4.037-.418-3.707-4.134-1.623-.407-2.9,3.639-2.467.445-4.181-2.553-9.895-4.95-6.987,4.112-2.476-.009-1.651-4.136-1.225-2.069-15.659-9.533,1.769Z" transform="translate(-780.652 -37.895)" fill="#eaeaea" stroke="#fff" stroke-width="1"/>
    <path id="path362" d="M1005.17,151.376l-7.77,1.371-.311,3.125-2.671.672-1.018-4.436-3.38.692-5.078,5.864-7.665,5.869-8.4,2.763-6.775-3.72-7.76,1.442-4.735-4.735-4.444,1.683-7.349,5.2-8.452-2.32-6.008,7.179-8.229,2.576,4.528,2.943,4.074,4.071-.944,4.048.685,3.429-2.311,7.9-6.95,6.063,2.78,4.68,4.53,3.279,6.113-4.219,4.061,2.885L942.7,203l11.058,1.57,6.061-2.549,1.673-4.121,4.046-.411,3.688,3.285,1.69,9.043,5.31,2.018,2.133,7.458,6.927.353,10.988-10.4,11.041-.463,3.3,4.476,2.118,14.877,6.941,2.465,4.155,6.185,8.554-.056.413,2.838.369-4.1,1.632-.009,5.807,8.621,4.446.711-.066-9.784-2.818-3.759-.872-3.292,6.115-3.748,6.132-1.3,4.026-4.982-.889-15.29-8.685-7.348-.426-7.087-7.363-4.915,2.855-4.114-1.754-6.192-5.695-2.032-4.138-4.138-2.459-5.732-11.43-.325-3.3-4.136,1.865-5.517-8.293,1.915Z" transform="translate(-771.022 -11.362)" fill="#eaeaea" stroke="#fff" stroke-width="1"/>
    <text id="CALVADOS" transform="translate(192.506 128.5)" fill="#222221" font-size="10" font-family="LibeSansSemiCondensed-Regular, LibeSans SemiCondensed"><tspan x="-17.58" y="0">CALVADOS</tspan></text>
    <text id="MANCHE" transform="translate(107.559 123.5)" fill="#222221" font-size="10" font-family="LibeSansSemiCondensed-Regular, LibeSans SemiCondensed"><tspan x="-14.61" y="0">MANCHE</tspan></text>
    <text id="EURE" transform="translate(291.387 133.5)" fill="#222221" font-size="10" font-family="LibeSansSemiCondensed-Regular, LibeSans SemiCondensed"><tspan x="-8.2" y="0">EURE</tspan></text>
    <text id="ORNE" transform="translate(226.828 179.921)" fill="#222221" font-size="10" font-family="LibeSansSemiCondensed-Regular, LibeSans SemiCondensed"><tspan x="-8.855" y="0">ORNE</tspan></text>
    <text id="SEINE-MARITIME" transform="translate(299.387 50.119)" fill="#222221" font-size="10" font-family="LibeSansSemiCondensed-Regular, LibeSans SemiCondensed"><tspan x="-26.44" y="0">SEINE-MARITIME</tspan></text>
    <text id="Rouen" transform="matrix(1, 0, 0, 1, 293.015, 77.04)" fill="#222221" font-size="14" font-family="LibeSans-Bold, LibeSans" font-weight="700"><tspan x="-23.513" y="0">Rouen</tspan></text>
    <rect id="Rectangle_242" data-name="Rectangle 242" width="7" height="7.001" transform="translate(287.566 86.318) rotate(-45)" fill="#fff" stroke="#222221" stroke-miterlimit="10" stroke-width="3"/>
  </g>
</svg>
