<svg xmlns="http://www.w3.org/2000/svg" xmlns:xlink="http://www.w3.org/1999/xlink" width="414" height="239" viewBox="0 0 414 239">
  <defs>
    <clipPath id="clip-_._assets_overall-map-mar">
      <rect width="414" height="239"/>
    </clipPath>
  </defs>
  <g id="_._assets_overall-map-mar" data-name="./assets/overall-map-mar" clip-path="url(#clip-_._assets_overall-map-mar)">
    <rect width="414" height="239" fill="#fff"/>
    <path id="path3560" d="M238.8,576.607s-25.749.6-28.884,1.808c-3.16,1.143-15.76,9.928-15.76,9.928l-1.916.542-7.517,11.2,2.542,14.588,21.993,21.7-3.8,5.919v11.743l9.436,12.9,30.236,26.982h29.531l7.52-.644h1.247l-1.247,5.29v4.14l8.872,2.335,3.688,2.3s-1.211,10.018,1.92,10.626l-9.4.524-13.251-4.053-8.778-1.771-11.3,4.639-6.367,7.611-3.059,8.814,2.437,8.876,6.334,8.8,8.175,4.61s8.178-2.281,11.3-3.467,5.712-6.454,5.712-6.454,9.35-.579,13.739-1.186c4.411-.564,8.9,5.325,8.9,5.325l20.731,2.831,9.422,5.282,5.6-.51v-5.933l5.087-2.853,5.076,2.853-2.545,7.1-5.741,5.289,2.538,10.485,7.524,4.111,8.909-.535,8.771-7.1,2.545-9.27,8.8-9.418-5.745-11.736-3.691-10.608-4.451-14.046-4.411-9.95S348.82,695.65,348.82,693.293c0-2.31-10.058-7.607-10.058-7.607l-1.251-9.415a17.333,17.333,0,0,1,5.705-4.038c3.171-1.186-1.923-6.425-1.923-6.425l-6.219,1.128-9.534,2.332-2.444-2.957-3.778-4.144.618-5.26,6.887,1.283,5.709-6.49-8.142-6.418-6.367-1.8L316.147,640v-4.15l6.953-2.943,4.978,4.111,8.8,3.532,4.418-5.282v-5.853l3.832-4.624-3.16-3.6-6.891-2.853-4.454,4.039-17.542,1.75-5.738,4.143-7.517-2.335-8.768-14.061-20.21-20-11.3-4.668Z" transform="translate(-53.982 -558.248)" fill="#eaeaea" stroke="#fff" stroke-miterlimit="10" stroke-width="1"/>
    <text id="Fort-de-France" transform="matrix(1, 0, 0, 1, 133.153, 132.508)" fill="#222221" font-size="14" font-family="LibeSans-Bold, LibeSans" font-weight="700"><tspan x="-53.886" y="0">Fort-de-France</tspan></text>
    <rect id="Rectangle_251" data-name="Rectangle 251" width="7" height="7.001" transform="translate(192.338 127.452) rotate(-45)" fill="#fff" stroke="#222221" stroke-miterlimit="10" stroke-width="3"/>
  </g>
</svg>
