<svg xmlns="http://www.w3.org/2000/svg" xmlns:xlink="http://www.w3.org/1999/xlink" width="414" height="239" viewBox="0 0 414 239">
  <defs>
    <clipPath id="clip-_._assets_overall-map-bre">
      <rect width="414" height="239"/>
    </clipPath>
  </defs>
  <g id="_._assets_overall-map-bre" data-name="./assets/overall-map-bre" clip-path="url(#clip-_._assets_overall-map-bre)">
    <rect width="414" height="239" fill="#fff"/>
    <path id="path26" d="M797.649,196.731l-5.847,4.816.411,3.536,3.569,9.186,2.03,7.14,12.205,1.934,5.989,4.739,2.35-2.873,3.917,5.221-1.967,2.424-.341,7.081-3.5.024-2.7,4.427-5.58.035-2.23,9.512,5.4,8.6L819,264.409l2.786-4.339-1.335,5.26,6.645,2.886,8.667,8.582,2.851,5.3-.866,6.271-.952,6.317,5.741,4.289,2.882-3.431-2.93-3.823-.057-8.654,5.728,1.359,1.877-5.794,1.47,3.378,6.221,5.306,2.855-4.893-2.932-6.691,5.284,7.2,6.621-1.037-1.394-3.378,6.19,1.422,4.757,5.75-2.326,3.882-6.194-1.884-7.188-3.348-3.781,4.882,5.73,1.888,4.308,6.691,25.756-2.586,6.639,1.44-3.241,2.88.473,4.387.93.7,2.057-.4,4.236-4.341,2.842,3.273,7.625-.05L926,298.27l13.315-5.413.37-13.492,2.805-1.571-5.094-9.542,4.328-3.573-.783-2.381-2.75-1.6,4.262-2.037,3.921-4.82-.418-4.779-5.1.035-1.245-4.707,3.551-4.8-4.015-7.153-5.9-3.588-6.7.044-2.374-.766-.02-3.155,3.485-3.26,1.932-7.967-1.171-5.16-1.584,2-9.464-.694-4.4-8-3.51.024-5.472,2.028L904,209.12l-7.428,4.842-5.969-2.357-2.4-5.155-1.888,2.785-5.571.037-2.759-3.534-2.753.018-5.912-5.969-6.7,1.667-7.113-6.352-6.352.508-1.871,3.93-7.44,4.065-9.107-3.956-2.383-2.365-3.949,2.8-4.724-.359-.779-3.912-7.5-1.958-.3-1.092-7.906,3.914" transform="translate(-655.09 -82.969)" fill="#eaeaea" stroke="#fff" stroke-width="1"/>
    <path id="path222" d="M822.72,155.359l-2.407,3.411-7.667-5.735-9.951,6.855,3.844,5.227-6.564,9.21-.317-.14-2.647,12.964,5.858.354-.339,5.173,4.374,2.757-3.96,4.026-2.726,2.042.418,4.7,5.971,1.976-5.569,1.652.037,5.938,3.613,4.755.86,13.962L803.2,236.9l2.031,7.175,7.5,1.961.779,3.912,4.722.354,3.952-2.8,2.383,2.368,9.107,3.96,7.439-4.068,1.871-3.93,6.352-.508,7.113,6.354,6.7-1.67,5.912,5.976,2.753-.017,2.759,3.523,5.571-.037,1.888-2.785,2.4,5.151,5.969,2.359,7.428-4.842-.035-5.168,5.473-2.028,3.51-.022,4.4,7.993,9.466.694,4.683-6.039,5.035-11.142,6.7-2.438L940.522,236l3.61,3.516,7.464-1.58,2.223-21.929,2.293-8.814-2.383-4.766-3.993-1.5-2.764-14.581-3.02,3.492-9.078-.934-.884,5.328-5.7.488-.5-6.7-4.823-1.429-3.322,3.884-.063-9.634-5.678,4.354-8.56-1.407-2.866,5.8-17.527,9.748.031,4.864-3.814.026-.057-8.709-10.026-4.728.849-8.724-9.039-6.647-.052-8.181-6.711-1.42.409-7.722-5.2-.431.427-5.328-9.516.063-1.424,4.8-2.866-6.687-4.328,3.4Z" transform="translate(-648.904 -133.165)" fill="#eaeaea" stroke="#fff" stroke-width="1"/>
    <path id="path226" d="M814.955,160.764l-10.512,1.077-1.873,4.794-6.177,1.521-1.017-5.339-10.89,1.551.024,3.4-7.61.514-3.376-2.378-3.8,1.956-.943,5.781-12.8.565-6.652,8.216,5.735,4.282-7.584,6.365,2.394,4.306-1.836,10.582,7.634.961,2.895-2.967,1.455,1.921,18.043-2.514,11.829-8.717-10.371,10.186.937,4.774,9.505-4.387-1.86,6.8,10.525.4-.429,2.869-11.448-.394-9.085-2.335L766.648,209.3l-6.575,7.761,8.553,2.871-.374,12.967,2.352-1.941,5.206-8.2,10.032,5.715,4.807.963,1.952,7.7-2.853,5.267-6.184-.416-5.713.037-9.525,1.514L752.1,244.575,748.852,249l4.755,2.818,5.258-.5,4.282,3.831,6.179-.49,10.131,11.5,2.449,12.481-3.306,6.825,9.991,1.86,10.975-.621,2.328-4.335-4.3-5.759,4.275,1.9,4.361-.5,7.641,4.276,4.731-.95-.055-8.262,1.961,8.249,6.232,10.061,13.354.842.519-2.866,3.306,4.77,8.157,1.414,6.186-.042.368.543,2.232-9.509,5.58-.037,2.707-4.424,3.5-.022.341-7.083,1.969-2.422-3.919-5.221-2.348,2.869L862.7,265.46l-12.2-1.934-2.031-7.14L844.9,247.2l-.411-3.538,5.842-4.816,5.575-.037,7.908-3.917-1.729-6.085,2.35-2.413-.858-13.962-3.615-4.755-.039-5.938,5.569-1.659-5.971-1.971-.418-4.7,2.726-2.041,3.96-4.026-4.37-2.757.335-5.17-5.858-.352,2.652-12.967-7.873-4.586-13.343.556.063,9.643-3.814.026-.947-4.311-5.7.956-1.066-11.089L820.72,163.1Z" transform="translate(-707.757 -125.108)" fill="#eaeaea" stroke="#fff" stroke-width="1"/>
    <text id="ILLE-ET-_VILAINE" data-name="ILLE-ET-
VILAINE" transform="translate(336.458 103.979)" fill="#222221" font-size="12" font-family="LibeSansSemiCondensed-Regular, LibeSans SemiCondensed"><tspan x="-14.256" y="0">ILLE-ET-</tspan><tspan x="-14.73" y="14">VILAINE</tspan></text>
    <text id="MORBIHAN" transform="translate(213.998 164.723)" fill="#222221" font-size="10" font-family="LibeSansSemiCondensed-Regular, LibeSans SemiCondensed"><tspan x="-17.815" y="0">MORBIHAN</tspan></text>
    <text id="CÔTES-_D_ARMOR" data-name="CÔTES-
D&apos;ARMOR" transform="translate(210.998 84.979)" fill="#222221" font-size="10" font-family="LibeSansSemiCondensed-Regular, LibeSans SemiCondensed"><tspan x="-12.105" y="0">CÔTES-</tspan><tspan x="-15.01" y="10">D&apos;ARMOR</tspan></text>
    <text id="FINISTÈRE" transform="translate(119.91 104.979)" fill="#222221" font-size="10" font-family="LibeSansSemiCondensed-Regular, LibeSans SemiCondensed"><tspan x="-15.965" y="0">FINISTÈRE</tspan></text>
    <text id="Rennes" transform="matrix(1, 0, 0, 1, 325.634, 161.415)" fill="#222221" font-size="17" font-family="LibeSans-Bold, LibeSans" font-weight="700"><tspan x="-34.008" y="0">Rennes</tspan></text>
    <rect id="Rectangle_221" data-name="Rectangle 221" width="9.873" height="9.874" transform="translate(319.697 136.87) rotate(-45)" fill="#fff" stroke="#222221" stroke-miterlimit="10" stroke-width="2"/>
    <path id="path230" d="M884.055,184.326l3.993,1.5,2.381,4.766-2.291,8.816-2.225,21.929-7.464,1.58-3.61-3.514-3.466,5.19-6.707,2.438-5.035,11.137-3.094,4.037,1.171,5.16-1.932,7.967-3.486,3.265.02,3.151,2.374.766,6.7-.044,5.9,3.595,4.015,7.148-3.553,4.8,1.247,4.7,5.1-.033.418,4.779-3.921,4.816-4.262,2.037,2.75,1.6.783,2.381-4.328,3.573,5.094,9.542,9.575-5.232,29.5-1.656,1.873-5.335,4.757-4.829,10.435-1.532.424-5.326,7.17.947,4.306,5.759,9.632,2.335,1.8-3.873,2.37-8.73,6.079-15.481,3.337-1.947,8.092.952-.087-13.056-3.381-3.363-.092-13.975-1.477-4.77-.05-7.717,4.772-4.879-.063-9.647-2.376-1.912.37-13.507-3.825-1.893-5.72.037-4.833-3.827-5.144,6.273-4.256.573-3.783,5.273-3.823-.906-8.21-7.186-2.877-9.181-1.481-6.092-23.423.155-8.643-5.251,5.663-7.757-11.442-.392-4.532,5.278Z" transform="translate(-583.225 -116.583)" fill="#eaeaea" stroke="#fff" stroke-width="1"/>
    <text id="ILLE-ET-VILAINE" transform="matrix(1, 0, 0, 1, 352.596, 158.912)" fill="#161615" font-size="10" font-family="LibeSansSemiCondensed-Regular, LibeSans SemiCondensed"><tspan x="-47.85" y="0">ILLE-ET-VILAINE</tspan></text>
    <text id="Rennes-2" data-name="Rennes" transform="matrix(1, 0, 0, 1, 323.646, 125.5)" fill="#222221" font-size="14" font-family="LibeSans-Bold, LibeSans" font-weight="700"><tspan x="-28.007" y="0">Rennes</tspan></text>
    <rect id="Rectangle_220" data-name="Rectangle 220" width="7" height="7.001" transform="translate(318.697 136.851) rotate(-45)" fill="#fff" stroke="#222221" stroke-miterlimit="10" stroke-width="3"/>
  </g>
</svg>
