<svg xmlns="http://www.w3.org/2000/svg" xmlns:xlink="http://www.w3.org/1999/xlink" width="414" height="239" viewBox="0 0 414 239">
  <defs>
    <clipPath id="clip-_._assets_overall-map-gua">
      <rect width="414" height="239"/>
    </clipPath>
  </defs>
  <g id="_._assets_overall-map-gua" data-name="./assets/overall-map-gua" clip-path="url(#clip-_._assets_overall-map-gua)">
    <rect width="414" height="239" fill="#fff"/>
    <path id="path74" d="M882.333,580.327l-13.353,3.231L856.6,594.448l.564,24.343,9.535,1.627.573,15.107-9.385,7.3-1.745,11.89v2.131l-8.376,8.767-.5,1.586-18.407-1.023-2.286-8.931-13.353-7.595L789.3,637.17H763.091l-12.2,18.716.536,26.911,3.322,10.945.564,2.027L757,716.625l7.858,38.355,7.781,20.32s5.558,5.172,6.672,7.822c1.068,2.641,7.295,10.812,7.295,10.812l12.153,1.636,3.445-6.322.6.6h12.153l18.407-15.621,11.717-16.03-.6-37.36-6.74-19.78,2.282-16.076,12.766-2.6h.1l3.836,4.663,10.635,2.581,8.317,3.145.818-.382,1,3.04,16.1.914,27.842-5.081,15.63-11.485,27.306-1.009,23.334-7.863-14.471-8.2-1.7-7.876-18.462-11.894-34.973-.573L907.457,624.2V603.933l-7.245-15.621Z" transform="translate(-636.434 -568.449)" fill="#eaeaea" stroke="#fff" stroke-width="1"/>
    <text id="Basse-Terre" transform="matrix(1, 0, 0, 1, 131.506, 183.402)" fill="#222221" font-size="14" font-family="LibeSans-Bold, LibeSans" font-weight="700"><tspan x="-44.324" y="0">Basse-Terre</tspan></text>
    <rect id="Rectangle_249" data-name="Rectangle 249" width="7" height="7.001" transform="translate(126.557 194.408) rotate(-45)" fill="#fff" stroke="#222221" stroke-miterlimit="10" stroke-width="3"/>
  </g>
</svg>
