<svg xmlns="http://www.w3.org/2000/svg" xmlns:xlink="http://www.w3.org/1999/xlink" width="414" height="239" viewBox="0 0 414 239">
  <defs>
    <clipPath id="clip-_._assets_overall-map-reu">
      <rect width="414" height="239"/>
    </clipPath>
  </defs>
  <g id="_._assets_overall-map-reu" data-name="./assets/overall-map-reu" clip-path="url(#clip-_._assets_overall-map-reu)">
    <rect width="414" height="239" fill="#fff"/>
    <path id="path418" d="M1064.558,584.042l-15.681.332-5.653,2.748-6.48,5.016-1.239,1.091h-4.465l-9.474,3.606-4.12,3.586-13.064,1.868-1.187,6.877-3.572,14.395a67.658,67.658,0,0,1-6.518,3.877c-1.481.527-9.765,5.03-9.765,5.03l-1.526,15.25,3.617,9.054,9.758,11.606,4.729,5.266,3.774-.821-2.286,1.143.329,20.7,9.765,12.184,10.09,9.393,17.758,10.5,1.187-.752-1.385,1.04,21.077,12.677,16.195,5.9,17.488,2.984,13.967,5.019,8.9,1.68s13.659-2.771,15.469-2.771c1.762,0,15.948-2.8,15.948-2.8l14.559-4.739,9.8-8.937-.937-15.733,1.8-9.837,3.894-5.625,6.474-8.623,3.322-10.733-.9-10.522-6.884-3.884-8.855-4.123-4.123-.277-6.57-9.385c-1.478-1.085-9.508-9.947-10.087-11.377-.571-1.379-5.865-13.279-5.865-13.279l-1.8-18.562-10.09-9.649-11.846-6.57s-9.481-5.505-11.292-5.786-17.471-3.582-18.651-3.582-12.759.79-13.03,1.078l-1.526-.616Z" transform="translate(-877.461 -531.621)" fill="#eaeaea" stroke="#fff" stroke-width="1"/>
    <text id="Saint-Denis" transform="matrix(1, 0, 0, 1, 185, 44.349)" fill="#222221" font-size="14" font-family="LibeSans-Bold, LibeSans" font-weight="700"><tspan x="-41.195" y="0">Saint-Denis</tspan></text>
    <rect id="Rectangle_244" data-name="Rectangle 244" width="7" height="7.001" transform="translate(180.051 54.56) rotate(-45)" fill="#fff" stroke="#222221" stroke-miterlimit="10" stroke-width="3"/>
  </g>
</svg>
