<svg xmlns="http://www.w3.org/2000/svg" xmlns:xlink="http://www.w3.org/1999/xlink" width="414" height="239" viewBox="0 0 414 239">
  <defs>
    <clipPath id="clip-_._assets_overall-map-gre">
      <rect width="414" height="239"/>
    </clipPath>
  </defs>
  <g id="_._assets_overall-map-gre" data-name="./assets/overall-map-gre" clip-path="url(#clip-_._assets_overall-map-gre)">
    <rect width="414" height="239" fill="#fff"/>
    <path id="path58" d="M1127.957,172.825l-4.97.033-8.222,5.738-7.059,1.22-5.034-5.319-1.244.29.007.891-4.031,1.768-.252,3.517-2.021,2.694-1.119,5.881-.623,4.928,1.814,1.494,3.473-.023,7.567,7.886-.818,7.937,5.259,4.051,2.9-2.08,4.686,5.549.582,5.309,3.229,4.347,1.466,3.229,11.609.529,5.77-2.988,1.739,3.228,2.036.27,1.466-3.249,9.541-.346,3.753-2.088.573-3.814,8.407-.056,1.161.658-1-3.753-2.37-1.481,3.234-2.982,4.992-.357,1.758-2.693-.4-10.7-1.2-6.243-5.027-1.75-5.337-7.441.25-4.453,1.5-3.26-2.682-.919-8.251,1.844-5.9.039-5.357-8-.638-5.963-4.414-.3-5.87,3.325Z" transform="translate(-1023.449 -34.662)" fill="#eaeaea" stroke="#fff" stroke-width="1"/>
    <path id="path382" d="M1120.514,121.569l-3.468,1.521.616,2.9-6.112.04-5.445,4.175.052,7.89,4.051,2.642,1.175,2.622-6.664.6-.824,2.683,2.61,1.726-1.145,1.786-2.587,1.184.565,2.023,3.762-.024,1.5,2.052-2.583,1.8-2.28,6.172-4.351,2.1-1.457,3.193-1.431,1.8.341,1.736-2.312,1.517-.571,4.086,2.332,1.444,1.187,4.4-1.438,2.637.907,2.069,4.314-.312.009,1.457,1.24-.292,5.038,5.32,7.051-1.22,8.227-5.738,4.977-.033,4.986-3.6,5.865-3.324,4.409.3.636,5.962,5.359,8,5.891-.039,8.248-1.843,5.911,2.023,6.136-4.5.831-7.421,6.82-1.221-.157-4.646-5.56-4.377-.614-2.345,2.016-3.533-1.768-1.436,1.73-4.436,3.191-1.469,2.273-7.339-4.64.309,2.576-2.926-2.078-6.477-2.027-4.392,2.579-2.366-1.479-.274-.386-2.024c-.048.012-.422.051-.422.051l-2.654-2.38-2.959,3.038-.888.007-1.165-1.49-7.061-.246-1.217,1.8-2.031.013-1.8-3.886-3.846.025-.888.887-3.794-.249-4.763-3.541-3.249-.868-1.169-1.771-6.2-3.863-7.062-.148.113,2.681-2.033.573" transform="translate(-1023.263 -49.381)" fill="#eaeaea" stroke="#fff" stroke-width="1"/>
    <path id="path394" d="M1276.524,141.259l.028,4.422-2.309,2.069-2.046.013-3.77-2.645-2.9,2.081-3.478.023-2.9-2.888-5.532-.852-3.195-1.44-1.2-4.406-2.577,2.926-1.4,6.771-3.8,1.2.025,3.806,3.816,1.758,2.9,2.045-1.147,2.639,2.658,1.721,4.625-3.553,8.1,4.648-3.381,6.5.293,2.071,2.337,2.332-1.719,6.156-5.76,5.913-3.207-.262,2.06,2.013-1.132,5.3,1.22,7.942,5.524,1.413-.461,1.084,4.368-.268,2.571,3.128,2.289,2.854,5.712-.321,2.582,7.459,4.458,1.943-.045-.939,7.451-15.033-.935-8.5,3.4-11.472.824-10.007,7.48-5.589-.023-3.52,2.9-3.865,2.308-.015,2.577-2.646-.585-4.979,2.553-7.066,4.027-.915-4.054-3.212-7.248-.8-6.421-3.2-4.332,2.654-2.339-2.618-3.155.02-5.5,1.581" transform="translate(-974.343 -44.878)" fill="#eaeaea" stroke="#fff" stroke-width="1"/>
    <path id="path398" d="M1255.5,191.708l-3.43,7.068.909,4.418-2.828,6.769-4.942,4.4-.2,11.458-3.613,3.169.138.093,1.173,2.341,4.651.253,5.257,4.094.852,2.012-.262,3.524L1251.78,244l.585,3.516,4.076-.638.911,3.233,1.473,6.231,3.44-.581-.577,3.2,2.047,1.778,10.716-.354,5.513-4.445.23-6.485,2.891-3.827-3.826-4.387-2.024-4.675,2.3-3.216-.048-7.372,1.409-3.532-.038-5.869,2.574-3.815-2.9-4.064-.348-8.452-4.461-1.943-2.581-7.459-5.71.321-2.29-2.854-2.571-3.128-4.366.268" transform="translate(-974.362 -28.268)" fill="#eaeaea" stroke="#fff" stroke-width="1"/>
    <path id="path402" d="M1213.7,110.871l-4.354.312-3.461,2.987-.868,1.456-4.915.032-1.729-1.768-.742.005c.132,2.52.265,4.408.265,4.408l-1.425,2.314,3.755,8.006,1.4,1.165,1.749,4.582-2.25,4.012,2.56,2.57-1.1,2.3.021,3.2-3.155.021-.256,3.706,6.014,3.721-.25,4.6,4.549-.029,2.3,3.139,5.654-.037,5.757,7.191,1.41,3.991,3.714-.025,7.4,3.143,6.577,3.95.008,1.172,4.275.254,5.405,3.109,5.11-.033,4.293,3.168,4.855,3.394,3.432,1.1,5.16-5.291,1.729-6.159-2.337-2.334-.292-2.069,3.378-6.5-8.108-4.644-4.621,3.55-2.653-1.717,1.14-2.642-2.884-2.041-3.818-1.76-.025-3.807,3.8-1.2,1.385-6.771,2.576-2.926,1.188,4.406,3.2,1.44,5.54.852,2.888,2.888,3.473-.023,2.9-2.081,3.772,2.645,2.042-.013,2.308-2.069-.029-4.422,2.525-4.528-.6.206-2.012-2.9-5.813-3.489-2.057-3.227-6.945.663-4.069,3.823-9.84.348-2.929-2.052c-.2-.353-1.651-2.9-2.906-3.59a1.13,1.13,0,0,0-.2-.093,1.2,1.2,0,0,0-.133-.048c-.01-.009-.077-.036-.088-.043h-.2c-1.357.009-4.007-1.519-4.328-1.71l-4.078,1.766-.256,3.521-4.907.647L1239.632,133l-1.722-.594-.027-4.092-4.1-1.754-.322-7.043-2.934-2.89-6.095-2.91-2.88.019-.882.611-2.922.019Z" transform="translate(-989.261 -52.912)" fill="#eaeaea" stroke="#fff" stroke-width="1"/>
    <path id="path62" d="M1173.539,111.889l-2.048-2-4.363.028-.839-1.169-2.885,5.561-1.145,2.068,3.5,4.391-1.119,5.881-3.2,2.646.355,2.073,1.119,2.9-1.706,1.8-3.461,1.758.583,3.236,1.479.273-2.581,2.366,2.017,4.392,2.08,6.476-2.577,2.924,4.645-.308-2.277,7.339-3.192,1.47-1.731,4.436,1.77,1.436-2.023,3.533.615,2.345,5.569,4.377.34,10.287,6.09.848,3.779,4.067,6.977,3.469,2.607.871,6.175,6.733-.647.655,5.076-.684-.016-2.586,5.709-1.212-.013-1.98,1.386-.009.011,1.7,4.54-1.43,1.743-2.41-.317.087-.027-4.035-2.852-2.567-.011-1.738,2.269-1.143,2.548-.017-.89-1.45-1.667.011-1.174-2.57-.035-5.172-1.144-3.185,2.244-5.188,1.92-5.458-2.3-2.28-.28-1.457,1.413-2.027,3.395-.023-.009-1.448-2.844-1.4-.575-2.013,2.815-3.165-3.127-2.9,1.1-2.312-2.565-1.1-1.726-1.445-.3-3.711-.294-2.3-1.124-1.725.256-3.763,1.386-1.744-.013-1.972-1.384-1.148-.017-2.585-.895-2.582-1.128-2.294-2.566-2-4.813,1.49-2.882.293L1186.9,125l-1.446,1.139-.286-1.128.547-2.021.587-1.743-1.737-2.852.165-3.52-1.386.008-1.195-5.585-2.341-2.333-1.671-.214-2.014,3.382Z" transform="translate(-1002.701 -54.28)" fill="#eaeaea" stroke="#fff" stroke-width="1"/>
    <path id="path390" d="M1157.744,175.482l-6.14,4.5-3.22-1.107-1.514,3.26-.25,4.454,5.337,7.441,5.027,1.75,1.2,6.244.4,10.7-1.755,2.693-4.994.357-3.235,2.983,2.376,1.481,1,3.753,3.486,1.95,5.229,5.554,6.752,9.07-3.734,4.107,2.607,1.775.312,4.978,4.641-.324,1.173,2.341,3.474.261,2.59-1.478,4.669,5.841.607,1.456,6.341-1.5,1.19-2.958.28.043-.019-2.964,4.02-1.806,4.654,1.748,4.341-1.807,2.594-.017.842-5.879,1.43-1.744-2.6-.266-.3-3.517,4.027-.916.261-2.353,4.079-.027-.025-3.81,3.209-1.193-.906-2.342.887-.566-2.665-2.093-3.147,1.193-.04-6.159-8.135-4.028,1.666-7.942,2.583-1.807-.858-2.623-3.807-.534-.866-3.839-3.474.023-4.116-5.518-4.624-.3-2.011-2.9,2.579-2.643L1185,181.743l-2.607-.874-6.977-3.469-3.779-4.067-6.086-.848-.175-5.633-6.818,1.217Z" transform="translate(-1005.795 -34.345)" fill="#eaeaea" stroke="#fff" stroke-width="1"/>
    <path id="path294" d="M1188.064,108.817l-3.458,3.263-4.908.316-1.706,1.794-.361,0-.174,3.521,1.736,2.851-.586,1.742-.549,2.021.288,1.128,1.431-1.139,1.373-2.6,2.88-.293,4.822-1.49,2.566,2,1.131,2.294.895,2.582.017,2.589,1.405,1.165.013,1.971-1.386,1.743-.256,3.763,1.125,1.725.294,2.3.3,3.71,1.727,1.446,2.563,1.1-1.1,2.312,3.125,2.9-2.814,3.164.573,2.015,2.844,1.4.009,1.457-3.395.021-1.42,2.027.289,1.458,2.292,2.277-1.918,5.458L1195.5,178l1.144,3.185.035,5.172,1.174,2.57,1.665-.011.872,1.452-2.528.016-2.269,1.144.011,1.735,2.852,2.567.027,4.035,2.823-.908,4.273.256.31,4.6,1.721.594-1.995,1.428-.269,1.453,3.111.546,2.008,2.573,9.376-.629,1.97-3.774,4.272-.028,1.707-1.413,2.847,1.721,2.537-.918,3.717.26,3.1-1.148,3.1-2.325,1.728,1.727.253-4.038,2.27-.907,1.182,3.743,3.394.264,3.438.866,1.4.274,4.862-2.324,2.534-1.76,2.258-2.883,4.525-1.768,2.978-.682-1.673-1.627,3.205.262.594-.618-3.43-1.1-4.855-3.393-4.292-3.169-5.1.033-5.408-3.109-4.275-.254-.007-1.172-6.561-3.947-7.407-3.145-3.715.025-1.422-3.99-5.75-7.192-5.663.037-2.3-3.139-4.546.029.249-4.6-6.014-3.719.256-3.707,3.155-.021-.021-3.2,1.1-2.3-2.57-2.569,2.251-4.011-1.747-4.585-1.4-1.164-3.766-8.007,1.418-2.313s-.129-1.892-.254-4.408l-3.91.025-5.269-5.839Z" transform="translate(-995.567 -53.605)" fill="#eaeaea" stroke="#fff" stroke-width="1"/>
    <path id="path406" d="M1266.125,175.713l-2.257,2.884-2.525,1.76-4.859,2.322-1.4-.273-3.441-.867-3.384-.261-1.183-3.743-2.272.907-.253,4.036-1.728-1.726-3.1,2.325-3.092,1.147-3.718-.258-2.54.916-2.839-1.719-1.71,1.412-4.269.029-1.967,3.771-9.38.629-2.011-2.573-3.105-.546.264-1.449,1.993-1.428-1.72-.594-.31-4.6-4.268-.254-2.51.822-1.746,2.409-4.537,1.43-.011-1.7-1.386.009.013,1.981-5.709,1.209.016,2.587-5.076.684-1.944,1.988,2.013,2.9,4.643.293,4.118,5.52,3.478-.023.86,3.842,3.812.533.856,2.623-2.583,1.806-1.665,7.943,8.133,4.028.04,6.159,3.147-1.192,2.667,2.095,1.983-1.225-1.125-1.737,1.438-.9,1.995,2.337,2.906-2.081.86-2.922,5.468-.927,1.487,1.163-.258,3.237,3.779,2.886,2.321-.292,2.582-2.091,6.087-.04,4.385,4.955,1.427-.009,2.313-1.474.335-1.746,2.3-1.18,2.609,1.718,2.617,2.938,9.171,4.827,3.609-3.169.2-11.458,4.942-4.4,2.828-6.771-.91-4.42,3.43-7.068,3.153-7.337-5.522-1.413-1.217-7.945,1.131-5.3-.382-.385-2.966.68Z" transform="translate(-995.334 -32.212)" fill="#eaeaea" stroke="#fff" stroke-width="1"/>
    <path id="path386" d="M1157.188,72.283l-2.888,4.387-2.579,2.7.04,6.148-3.464,2.372-6.333,2.108-3.472,1.479-4.1-3.213-5.51.036-.763,5.216,2.634,4.952-2.586,2.366-.25,4.425,1.457,2.34-1.135,3.522L1123.9,113.5l.024,3.8-5.53,1.22-.864,2.345,3.818,2.044-1.13,4.091-.871,3.525.248,7.329,7.052.136,6.2,3.865,1.169,1.772,3.263.867,4.75,3.54,3.8.258.887-.9,3.849-.025,1.8,3.887,2.035-.013,1.214-1.8,7.059.246,1.169,1.489.871-.005,2.956-3.028,2.655,2.37s.36-.044.421-.044l-.2-1.221,3.461-1.756,1.706-1.8-1.123-2.9-.341-2.073,3.183-2.646,1.12-5.879-3.51-4.391,1.144-2.068,2.879-5.561.847,1.171,4.34-.029,2.048,2,2.583-1.759,2.013-3.386-2.1-.326-1.2-5.853-2.333-1.764-8.119-.838-1.466-3.8-2.661-1.727-9.28-1.111-.607-6.746,1.149-1.184-.016-2.629-4.654-2.934.848-3.236,1.139-2.923-2.047-1.768,3.172-2.938-.035-5.3-1.164-.836Z" transform="translate(-1015.443 -65.719)" fill="#eaeaea" stroke="#fff" stroke-width="1"/>
    <text id="BAS-RHIN" transform="translate(306.676 114.99)" fill="#222221" font-size="10" font-family="LibeSansSemiCondensed-Regular, LibeSans SemiCondensed"><tspan x="-15.16" y="0">BAS-RHIN</tspan></text>
    <text id="HAUT-RHIN" transform="translate(285.434 194.666)" fill="#222221" font-size="10" font-family="LibeSansSemiCondensed-Regular, LibeSans SemiCondensed"><tspan x="-17.205" y="0">HAUT-RHIN</tspan></text>
    <text id="MEUSE" transform="translate(179.765 107.515)" fill="#222221" font-size="10" font-family="LibeSansSemiCondensed-Regular, LibeSans SemiCondensed"><tspan x="-11.65" y="0">MEUSE</tspan></text>
    <text id="HAUTE-_MARNE" data-name="HAUTE-
MARNE" transform="translate(176.566 185.166)" fill="#222221" font-size="10" font-family="LibeSansSemiCondensed-Regular, LibeSans SemiCondensed"><tspan x="-11.795" y="0">HAUTE-</tspan><tspan x="-11.865" y="9">MARNE</tspan></text>
    <text id="MOSELLE" transform="translate(242.181 104.502)" fill="#222221" font-size="10" font-family="LibeSansSemiCondensed-Regular, LibeSans SemiCondensed"><tspan x="-15.54" y="0">MOSELLE</tspan></text>
    <text id="MEURTHE-_ET-MOSELLE" data-name="MEURTHE-
ET-MOSELLE" transform="translate(230.181 131.507)" fill="#222221" font-size="10" font-family="LibeSansSemiCondensed-Regular, LibeSans SemiCondensed"><tspan x="-16.68" y="0">MEURTHE-</tspan><tspan x="-20.165" y="10">ET-MOSELLE</tspan></text>
    <text id="VOSGES" transform="translate(244.181 175.976)" fill="#222221" font-size="10" font-family="LibeSansSemiCondensed-Regular, LibeSans SemiCondensed"><tspan x="-13.81" y="0">VOSGES</tspan></text>
    <text id="ARDENNES" transform="translate(133.71 61.465)" fill="#222221" font-size="10" font-family="LibeSansSemiCondensed-Regular, LibeSans SemiCondensed"><tspan x="-17.66" y="0">ARDENNES</tspan></text>
    <text id="AUBE" transform="translate(115.71 170.976)" fill="#222221" font-size="10" font-family="LibeSansSemiCondensed-Regular, LibeSans SemiCondensed"><tspan x="-8.63" y="0">AUBE</tspan></text>
    <text id="MARNE" transform="translate(121.71 112.515)" fill="#222221" font-size="10" font-family="LibeSansSemiCondensed-Regular, LibeSans SemiCondensed"><tspan x="-11.865" y="0">MARNE</tspan></text>
    <text id="Strasbourg" transform="matrix(1, 0, 0, 1, 313.692, 153.1)" fill="#222221" font-size="14" font-family="LibeSans-Bold, LibeSans" font-weight="700"><tspan x="-42.847" y="0">Strasbourg</tspan></text>
    <rect id="Rectangle_222" data-name="Rectangle 222" width="7" height="7.001" transform="translate(310.423 133.042) rotate(-45)" fill="#fff" stroke="#222221" stroke-miterlimit="10" stroke-width="3"/>
  </g>
</svg>
