<svg xmlns="http://www.w3.org/2000/svg" xmlns:xlink="http://www.w3.org/1999/xlink" width="414" height="239" viewBox="0 0 414 239">
  <defs>
    <clipPath id="clip-_._assets_region-map-bre">
      <rect width="414" height="239"/>
    </clipPath>
  </defs>
  <g id="_._assets_region-map-bre" data-name="./assets/region-map-bre" clip-path="url(#clip-_._assets_region-map-bre)">
    <rect width="414" height="239" fill="#fff"/>
    <path id="Tracé_270" data-name="Tracé 270" d="M373.307,237.49l-.056-10.3-2.354-1.9.386-13.588-4.233-2.117-5.777-.045-5.169-4.111-5.4,6.6-4.289.566-3.673,5.111-3.16-.752-7.893-6.941-2.788-8.907-1.608-6.643-23.715.129-7.766-4.735,6.01-8.212-13.136-.461-5,5.8V187l-2.534,2.928-9.362-.984-.91,5.436-4.4.384L266,188.3l-5.738-1.717L257.9,189.33l-.05-9.146-6.6,5.035-8.746-1.446-2.982,6.071-17.689,9.827.025,4.563-2.343.013-.046-8.433-9.937-4.706.856-8.6-9.05-6.683-.046-8.384-6.656-1.423.415-7.788-5.147-.435.428-5.387-10.841.059-1,3.358-2.423-5.7L171.17,154l-10.984,1.463-2.166,3.044-7.457-5.6-10.985,7.562,3.967,5.4-5.885,8.239-7.763-4.523-14.22.568.052,9.6-2.484.014-.958-4.413-5.611.94-1.133-11.978L99.64,171l-5.414-2.231-11.1,1.12-1.9,4.85-5.04,1.226-1-5.238-12.185,1.708.018,3.338-6.66.443-3.508-2.476-4.509,2.315-.924,5.559L34.9,182.14,27.56,191.2l5.6,4.185-7.32,6.149,2.551,4.609-1.93,11.07,8.727,1.1,2.546-2.6,1.2,1.586,18.429-2.536L61.1,212.12l-3.178,3.116,1.2,6.088,8.9-4.106-1.692,6.165,10.6.408-.221,1.384-10.6-.356-8.931-2.291-11.482-5.5-7.648,9,9.049,3.062-.418,14.015,3.585-2.963,4.978-7.78,9.4,5.38,4.563.959,1.758,6.96-2.5,4.584-5.752-.4-5.813.044L47.462,251.4l-16.529,1.034-3.942,5.344,5.642,3.364,5.166-.492,4.274,3.83,6.105-.5L57.9,275.067l2.346,12.023-3.627,7.45L67.715,296.6l11.353-.626,2.756-5.1L78.94,287l1.881.838,4.3-.482,7.659,4.29,5.562-1.122-.013-2.431.471,1.994,6.5,10.6,14.34.911.319-1.762,2.47,3.566L131,304.891l5.782-.031.054.086,5.594,8.958,8.4,2.079.639-.992-.381,1.494,7.081,3.087,8.463,8.415,2.675,4.98-1.863,12.758,6.629,4.959,3.7-4.386-3.12-4.117-.04-7.442,5.463,1.3,1.484-4.591.695,1.609,7.044,6.112,3.5-5.946-.421-.954,1.635,2.222.355-.054L189.8,340.32l6.453,2.142,4.4,6.837,26.019-2.555,5.082,1.094-2.439,2.148.558,5.1,1.429,1.072,2.582-.48,3.84-3.933,2.535,2.947,7.94-.043,9.291-4.878L271.2,344.2l.384-13.546,3.074-1.705h0l8.785-4.811,29.749-1.641,1.974-5.632,4.482-4.5,10.747-1.57.413-5.13,6.088.82,4.263,5.721,10.426,2.539,2.1-4.523,2.352-8.641,5.981-15.2,2.906-1.7,8.644,1.03-.077-14.16-3.364-3.371-.074-13.637-1.472-4.871-.04-7.287,4.76-4.89Z" transform="translate(12.619 -133.64)" fill="#ff697f" stroke="#fff" stroke-miterlimit="10" stroke-width="1"/>
    <path id="Tracé_271" data-name="Tracé 271" d="M113.479,233.528l4.252,5.154-1.768,2.926-5.535-1.683-7.3-3.414,7.007-1.1-1.2-2.927,4.546,1.048Z" transform="translate(104.448 -35.797)" fill="#ff697f" stroke="#fff" stroke-miterlimit="10" stroke-width="1"/>
    <text id="Quimper" transform="matrix(1, 0, 0, 1, 102, 142.529)" fill="#222221" font-size="10" font-family="LibeSans-Regular, LibeSans"><tspan x="0" y="0">Quimper</tspan></text>
    <text id="Saint-brieuc" transform="matrix(1, 0, 0, 1, 220.346, 78.757)" fill="#222221" font-size="10" font-family="LibeSans-Regular, LibeSans"><tspan x="-61.16" y="0">Saint-brieuc</tspan></text>
    <text id="Vannes" transform="matrix(1, 0, 0, 1, 220.347, 184.85)" fill="#222221" font-size="10" font-family="LibeSans-Regular, LibeSans"><tspan x="-19.415" y="0">Vannes</tspan></text>
    <path id="Tracé_272" data-name="Tracé 272" d="M110.181,178.388a3,3,0,1,1,3,3A3,3,0,0,1,110.181,178.388Z" transform="translate(112.83 -103.627)" fill="#fff" stroke="#222221" stroke-width="2"/>
    <path id="Tracé_273" data-name="Tracé 273" d="M107.593,231.635a3,3,0,1,1,3,3A3,3,0,0,1,107.593,231.635Z" transform="translate(109.755 -40.366)" fill="#fff" stroke="#222221" stroke-width="2"/>
    <path id="Tracé_274" data-name="Tracé 274" d="M50.173,207.53a3,3,0,1,1,3,3A3,3,0,0,1,50.173,207.53Z" transform="translate(41.535 -69.004)" fill="#fff" stroke="#222221" stroke-width="2"/>
    <text id="Rennes" transform="matrix(1, 0, 0, 1, 323.646, 125.5)" fill="#222221" font-size="14" font-family="LibeSans-Bold, LibeSans" font-weight="700"><tspan x="-28.007" y="0">Rennes</tspan></text>
    <rect id="Rectangle_220" data-name="Rectangle 220" width="7" height="7.001" transform="translate(318.697 136.851) rotate(-45)" fill="#fff" stroke="#222221" stroke-miterlimit="10" stroke-width="3"/>
  </g>
</svg>
