<svg xmlns="http://www.w3.org/2000/svg" xmlns:xlink="http://www.w3.org/1999/xlink" width="414" height="239" viewBox="0 0 414 239">
  <defs>
    <clipPath id="clip-_._assets_region-map-naq">
      <rect width="414" height="239"/>
    </clipPath>
  </defs>
  <g id="_._assets_region-map-naq" data-name="./assets/region-map-naq" clip-path="url(#clip-_._assets_region-map-naq)">
    <rect width="414" height="239" fill="#fff"/>
    <path id="Tracé_296" data-name="Tracé 296" d="M304.632,326.695l-1.448-1.845-.37-5.558-2.078-4.911-2-.724-1.607-2.827-1.291,1.684-.969-1.266-.012-2.178-2.32-3.287-6.035.776-3.414-.879-9.228-1.083-1.052,2.932-2.988-.144-.742-.384-2.137.214L265.2,306.04l-2.781,3.27V309.3l-.38.461-.154.179v0l-.227.273-2.875-2.881-1.7,1.748-3.243-.231.372-3.082-2.019-1.106-1.133-3.874-2.964-.374-1.753-1.753-3.285-2.6.647-2-.006-3.672-3.282-3.264-.359-2.557-3.1-3.258-1.1-4.426-1.326-.571-1.556-2.148-1.814,1.151.373,1.934-4.362,1.062-5.08.028.14-1.909-.02-3.673-4.321-1.258-.012-2.209-3.476-.72-.745-2.951-1.942.011-3.525,3.8-.4.712v-.012l-.663,1.2-.965-.813-.6-1.393-5.092.214-4.448.923-5.115.427.014,2.642-2.271,1.526-5.559-1.244-4.153,1.828,1.947,2.764.012,2.23,4.27,3.566-1.042,2.337,2.861,3.21-1.237,1.642,1.871,2.809.554,4.918-1.1,1.523,1.291,2.2-1.22,2.336.254,2.03,1.621-1.266,1.383,1.411L188.18,308.6l-.892,1.072-1.942.559-2.162,1.041-.043-.032-.473-.395v.042l-2.377-1.772L177,310.541l-1.051-2.83-2.736.2L167.3,311.56l1.367,1.249-2.692,2.24-.316,1.733-2.357.317-1.422-1.595-3.5-.321-.366-1.744-2.375-1.586-3.51,1.3,2.288,3.322,2.567-.014,2.445,1.557L161.5,319.7l3.684-.2.708,1.581,2.493.539.922,2.5,1.541.685-.124,1.514-2.039-.319-.915,1.388,1.662,2.409-.793,3.67-2.229-.163-.562-1.259-.884-.752-.407-4.481-3.163-.374-2.9-3.538-.385,7.247,4.177,3.08.354,3.358.737,3.964.424,4.29,2.319-.226,3.735,3.05,2.411,1.367.189,1.874,2.107.394,5.665,5.674,1.416,6.422h.13l1.376,5.684.368,5.183-.474.79-.776-3.693L179.664,361.3l-9.184-8.313.188-3.949-2.242-.2-2.983,4.587-.81,15.35-2.245,15.489-1.576,12.034-.156,3.12.54.094,1.228-4.155,2.273-3.024,3.337,3.029.356,1.009.8,1.1-3.81.2-.764-1.161-2.137.886-.37,2.829-1.981,2.763.027,4.215-.021.136-3.1,17.336-4.058,16.063-1.23,6.2-1.028,4.338-2.5,4.411,0,0-.114.209-.158.283,0,0-.573,1.048-4.07,5.059-3.086,1.255-2.563.4.013,2.375L140,468.462l3.078.149.185,2.351,2.965.226.682-1.6,3.22,1.345,2,.5.449,1.855-1.2,1.088.018,3.389-2.507,1.288-.191,1.908,1.754,1.975,3.247,1,.576-2.97,1.013-1.149-.111,1.647,1.414,2.029,3.225-.018,1.432,1.955,4.375.714,4.175,2.556,6.643-.036.382,3.683,4.73,3.649,1.968,2.339,2.141-1.177,1.6-.342.936.942,5.072-2.852.269-3.788,1.425-1.116.694-5.814,2.5.5,1.388-.932-1.292-2.582,4.673-4.079,2.88-6.615,1.889-2.53-3.6-5.4,1.967-1.839-3.27-5.4L197.933,455l-.041-.069-.2-.365-.007,0-1.073-1.877,1.188-3.312,1.82-2.439-.561-3.063,1.48-1.51-2.16-3.652,1.586-1.967,1.8-.352,1.867.747,2.335-2.038.776,2.342,1.048,1.511,2.386-.678-.2-2.519.586-1.327.479-1.026,2.058,1.756,2.811-2.876,1.185,1.678,3.2-.6,3.388-.385,1.423-2.57,5.1-.523,2.818,2.8,1.061-1.053,1.976-.622-.731-2.522,2.413-.665,3.725-.816-.811-2.328.982-1.165.967-3.729-1.99-2.173,1.1-3.678,2.5,1.489,4.417-.835-1.968-4.292-1.377-5.1,3.432-.186.865-2.354,0,0,.057-.161,1.66-1.67.151-2.607,3.828-.36,2.8-4.07-1.272-.439-.143-1.534,3-.385.2-1.895,1.323-.869,1.78-3.2-1.68-1.867-.01-1.775.7-.61.011.02.725-.12,3.775-1.791,4.4,1.963,3.621,5.181,2.292-.307,2.841-2.909,1.022,1.8,2.174-2.2,2.464.655.135.877,2.865-2.064-.814-2.008L286.5,379.3l1.195-1.514,1.511-.008.953-3.074.747-1.539-.561-3.264,2.212-3.139,3.316-2.078.139-4.8,1.178.653,1.871,2.061,2.031-.011,1.276-1.512-.933-2.252.865-3.239-.586-3.224-1.082-1.257-.013-2.383,1.635-2.741-.418-2.753-.249-.251.015-.012-3.922-3.929-.294-1.348,3.23-1.92,2.092-1.157.5-2.586,2.2-1.686Z" transform="translate(-10.573 -262.479)" fill="#ff697f" stroke="#fff" stroke-miterlimit="10" stroke-width="1"/>
    <path id="polygon4160" d="M172.088,347.662l-1.564,2.145.267,1.114,1.82-.01-.329-.6Z" transform="translate(-16.242 -276.631)" fill="#ff697f" stroke="#fff" stroke-miterlimit="10" stroke-width="1"/>
    <text id="La_Rochelle" data-name="La Rochelle" transform="matrix(1, 0, 0, 1, 152.216, 62.492)" fill="#222221" font-size="10" font-family="LibeSans-Regular, LibeSans"><tspan x="-57.26" y="0">La Rochelle</tspan></text>
    <text id="Niort" transform="matrix(1, 0, 0, 1, 191.526, 54.494)" fill="#222221" font-size="10" font-family="LibeSans-Regular, LibeSans"><tspan x="0" y="0">Niort</tspan></text>
    <text id="Limoges" transform="matrix(1, 0, 0, 1, 245.749, 70.701)" fill="#222221" font-size="10" font-family="LibeSans-Regular, LibeSans"><tspan x="-22.555" y="0">Limoges</tspan></text>
    <text id="Gueret" transform="matrix(1, 0, 0, 1, 275.535, 62.919)" fill="#222221" font-size="10" font-family="LibeSans-Regular, LibeSans"><tspan x="0" y="0">Gueret</tspan></text>
    <path id="Tracé_304" data-name="Tracé 304" d="M277.432,355.079a3,3,0,1,1,3,3A3,3,0,0,1,277.432,355.079Z" transform="translate(-34.683 -277.393)" fill="#fff" stroke="#222221" stroke-width="2"/>
    <path id="Tracé_305" data-name="Tracé 305" d="M305.149,332.4a3,3,0,1,1,3,3A3,3,0,0,1,305.149,332.4Z" transform="translate(-39.463 -273.48)" fill="#fff" stroke="#222221" stroke-width="2"/>
    <path id="Tracé_307" data-name="Tracé 307" d="M202.534,322.217a3,3,0,1,1,3,3A3,3,0,0,1,202.534,322.217Z" transform="translate(-21.763 -271.725)" fill="#fff" stroke="#222221" stroke-width="2"/>
    <path id="Tracé_308" data-name="Tracé 308" d="M172.681,331.956a3,3,0,1,1,3,3A3,3,0,0,1,172.681,331.956Z" transform="translate(-16.614 -273.404)" fill="#fff" stroke="#222221" stroke-width="2"/>
    <text id="Agen" transform="matrix(1, 0, 0, 1, 222.377, 157.805)" fill="#222221" font-size="10" font-family="LibeSans-Regular, LibeSans"><tspan x="-13.52" y="0">Agen</tspan></text>
    <text id="Mont-de-Marsan" transform="matrix(1, 0, 0, 1, 173.716, 181.312)" fill="#222221" font-size="10" font-family="LibeSans-Regular, LibeSans"><tspan x="-83.93" y="0">Mont-de-Marsan</tspan></text>
    <text id="Pau" transform="matrix(1, 0, 0, 1, 165.326, 214.218)" fill="#222221" font-size="10" font-family="LibeSans-Regular, LibeSans"><tspan x="-9.595" y="0">Pau</tspan></text>
    <path id="Tracé_299" data-name="Tracé 299" d="M249.189,459.129a3,3,0,1,1,3,3A3,3,0,0,1,249.189,459.129Z" transform="translate(-29.811 -295.34)" fill="#fff" stroke="#222221" stroke-width="2"/>
    <path id="Tracé_300" data-name="Tracé 300" d="M199.637,515.237a3,3,0,1,1,3,3A3,3,0,0,1,199.637,515.237Z" transform="translate(-21.264 -305.019)" fill="#fff" stroke="#222221" stroke-width="2"/>
    <path id="Tracé_301" data-name="Tracé 301" d="M196.963,476.977a3,3,0,1,1,3,3A3,3,0,0,1,196.963,476.977Z" transform="translate(-20.802 -298.419)" fill="#fff" stroke="#222221" stroke-width="2"/>
    <text id="Angoulême" transform="matrix(1, 0, 0, 1, 169.375, 90.927)" fill="#222221" font-size="10" font-family="LibeSans-Regular, LibeSans"><tspan x="-30.095" y="0">Angoulême</tspan></text>
    <text id="Tulle" transform="matrix(1, 0, 0, 1, 270.84, 111.031)" fill="#222221" font-size="10" font-family="LibeSans-Regular, LibeSans"><tspan x="0" y="0">Tulle</tspan></text>
    <text id="Perigueux" transform="matrix(1, 0, 0, 1, 225.377, 105.046)" fill="#222221" font-size="10" font-family="LibeSans-Regular, LibeSans"><tspan x="-26.415" y="0">Perigueux</tspan></text>
    <path id="Tracé_298" data-name="Tracé 298" d="M300.742,391.229a3,3,0,1,1,3,3A3,3,0,0,1,300.742,391.229Z" transform="translate(-38.703 -283.628)" fill="#fff" stroke="#222221" stroke-width="2"/>
    <path id="Tracé_302" data-name="Tracé 302" d="M253.707,396.584a3,3,0,1,1,3,3A3,3,0,0,1,253.707,396.584Z" transform="translate(-30.59 -284.552)" fill="#fff" stroke="#222221" stroke-width="2"/>
    <path id="Tracé_303" data-name="Tracé 303" d="M229.089,366.247a3,3,0,1,1,3,3A3,3,0,0,1,229.089,366.247Z" transform="translate(-26.344 -279.319)" fill="#fff" stroke="#222221" stroke-width="2"/>
    <text id="Bordeaux" transform="matrix(1, 0, 0, 1, 168.324, 132.5)" fill="#222221" font-size="14" font-family="LibeSans-Bold, LibeSans" font-weight="700"><tspan x="-72.87" y="0">Bordeaux</tspan></text>
    <rect id="Rectangle_224" data-name="Rectangle 224" width="7" height="7.001" transform="translate(174.333 128.141) rotate(-45)" fill="#fff" stroke="#222221" stroke-miterlimit="10" stroke-width="3"/>
    <text id="Poitiers" transform="matrix(1, 0, 0, 1, 213.527, 30.043)" fill="#222221" font-size="10" font-family="LibeSans-Regular, LibeSans"><tspan x="-19.535" y="0">Poitiers</tspan></text>
    <path id="Tracé_306" data-name="Tracé 306" d="M238.494,305.945a3,3,0,1,1,3,3A3,3,0,0,1,238.494,305.945Z" transform="translate(-27.966 -268.917)" fill="#fff" stroke="#222221" stroke-width="2"/>
  </g>
</svg>
