<svg xmlns="http://www.w3.org/2000/svg" xmlns:xlink="http://www.w3.org/1999/xlink" width="414" height="239" viewBox="0 0 414 239">
  <defs>
    <clipPath id="clip-_._assets_region-map-gua">
      <rect width="414" height="239"/>
    </clipPath>
  </defs>
  <g id="_._assets_region-map-gua" data-name="./assets/region-map-gua" clip-path="url(#clip-_._assets_region-map-gua)">
    <rect width="414" height="239" fill="#fff"/>
    <path id="path3558" d="M161.3,580.208l-13.421,3.2-12.38,10.9.527,24.465,9.585,1.618.514,15.121-9.394,7.344-1.759,11.962v2.118l-8.4,8.795-.527,1.6L107.6,666.258l-2.277-8.913L91.9,649.669l-23.97-12.513H41.607L29.354,655.9l.573,27.006,3.309,11.022.527,2.018,1.713,20.852,7.867,38.537,7.826,20.4s5.554,5.208,6.649,7.826c1.136,2.6,7.349,10.89,7.349,10.89l12.2,1.632,3.45-6.381.573.645H93.6l18.493-15.68,11.731-16.1-.573-37.441-6.772-19.857,2.272-16.2,12.776-2.559h.123l3.859,4.658,10.626,2.509,8.4,3.191.791-.377.968,3.077,16.216.927,27.906-5.167,15.694-11.481,27.379-1.05,23.452-7.885-14.521-8.195-1.713-7.876-18.493-11.953-35.119-.509L186.464,624.13V603.774l-7.3-15.671Z" transform="translate(85.033 -568.949)" fill="#fda7b4" stroke="#fff" stroke-miterlimit="10" stroke-width="1"/>
    <text id="Basse-Terre" transform="matrix(1, 0, 0, 1, 131.506, 183.402)" fill="#222221" font-size="14" font-family="LibeSans-Bold, LibeSans" font-weight="700"><tspan x="-44.324" y="0">Basse-Terre</tspan></text>
    <rect id="Rectangle_249" data-name="Rectangle 249" width="7" height="7.001" transform="translate(126.557 194.408) rotate(-45)" fill="#fff" stroke="#222221" stroke-miterlimit="10" stroke-width="3"/>
  </g>
</svg>
