<svg xmlns="http://www.w3.org/2000/svg" xmlns:xlink="http://www.w3.org/1999/xlink" width="414" height="239" viewBox="0 0 414 239">
  <defs>
    <clipPath id="clip-_._assets_region-map-hdf">
      <rect width="414" height="239"/>
    </clipPath>
  </defs>
  <g id="_._assets_region-map-hdf" data-name="./assets/region-map-hdf" clip-path="url(#clip-_._assets_region-map-hdf)">
    <rect width="414" height="239" fill="#fff"/>
    <path id="polygon4149" d="M479.337,145.315l3.321-3.038-3.334-6.311.987-6.857-6.095.033.024-.015-1.854.01-.279-2.725,7.1-4.371-1.23-7.577-6.216-1.6,1.252-1.332-.027-4.954,5.477-4.115-1.65-3.289-11.732-9.24-20.391,1.23-2.077,3.57-1.631.009.263-12.264-6.059-7.165-4.267.715-2.587-2.941-7.114,3.276-2.328-2.327-4.843-.7-1.321-4.252L412.3,54.4l-3.24-1.444-.444-2.352-2.1.011-.77-4.362-5.224.5-9.01,2.981-4.182,5.305-3.734.02L380.971,51.8,379.9,47.943l-3.831-4.36-4.923.027-1.9-3.495-.032-5.865,2.468-4-1.553-5.746-4.9-9.848-11.76,5.676L335.808,23.3l-.6.112v0l-.136.027-1.027.188.009.013-18.872,3.753L299.164,39.962l.268,48.855-.141,1.915.005,0-.89,11.663,7.914,7.177.013,2.421-9.226-5.461-12.213,15.412,3.873,1.64,3.685-.345,1.61,3.227,15.7,15.435,1.09,6.27,3.443,6.342-.958,1.211-2.309,2.828-1.788,4.49,2.843-.015L310.953,166l-1.425,7.423,2.154,3.611.036,6.563,3.179-.017-3.459,6.505-1.114,3.574,3.31,2.967,1.052,8.083,1.508,2.468-1.561.444-3.7-2.05-.9,7.052.876-1.135,1.06,2.445,2.325,3.8,10,.714,6.915-.8,4.413-3.459,5.345,3.312,3.061,2.334,4.609-1.214,3.62-1.694,7.264,3.8,7.75,4.587,2.787,2.789,4.33-2.962,3.182,1.889,2.344,1.919,3.65-.424,2-2.7,4.772,2.747,6.141-2.594,3.62,1.1,3.632-3.021,1.858-.952.157.119,0,.018.557.4.433.324,0-.013,2.342,1.687,1.117,7.9,9.742,9.413,3.153,1.124,1.871,4.348,6.575,1.36,1.014-1.3,1.716-3.741,5.344-2.573,2.825-7.61,3.49-2.438-2.327-3.212-4.47.024-.453-1.611L441.559,226l1.8-2.8-3.308-2.187.776-2.538,8.582-.771-1.813-4.076-4.855-3.185-.05-9.1,6.322-4.83,8-.044-.807-3.788,3.578-1.574,6.009,3.922,3.149-.893-.422-12.629,1.034-4.235,1.515-5.451-4.64-2.491.789-2.149,6.9-1.507-.026-4.762,5.24-2.857,1.539-4.785-1.818-2.942Z" transform="translate(-176.777 -12.723)" fill="#4267cb" stroke="#fff" stroke-miterlimit="10" stroke-width="1"/>
    <text id="Arras" transform="matrix(1, 0, 0, 1, 195.396, 92.123)" fill="#222221" font-size="10" font-family="LibeSans-Regular, LibeSans"><tspan x="-28.59" y="0">Arras</tspan></text>
    <text id="Amiens" transform="matrix(1, 0, 0, 1, 198.89, 131.586)" fill="#222221" font-size="10" font-family="LibeSans-Regular, LibeSans"><tspan x="-19.925" y="0">Amiens</tspan></text>
    <text id="Laon" transform="matrix(1, 0, 0, 1, 241.357, 165.997)" fill="#222221" font-size="10" font-family="LibeSans-Regular, LibeSans"><tspan x="-12.5" y="0">Laon</tspan></text>
    <text id="Beauvais" transform="translate(163.996 181.515)" fill="#222221" font-size="10" font-family="LibeSans-Regular, LibeSans"><tspan x="0" y="0">Beauvais</tspan></text>
    <path id="Tracé_407" data-name="Tracé 407" d="M340.365,68.494a3,3,0,1,1,3,3A3,3,0,0,1,340.365,68.494Z" transform="translate(-141.474 19.631)" fill="#fff" stroke="#222221" stroke-width="2"/>
    <path id="Tracé_408" data-name="Tracé 408" d="M321.816,92.607a3,3,0,1,1,3,3A3,3,0,0,1,321.816,92.607Z" transform="translate(-153.279 34.978)" fill="#fff" stroke="#222221" stroke-width="2"/>
    <path id="Tracé_409" data-name="Tracé 409" d="M376.872,113.636a3,3,0,1,1,3,3A3,3,0,0,1,376.872,113.636Z" transform="translate(-118.241 48.36)" fill="#fff" stroke="#222221" stroke-width="2"/>
    <path id="Tracé_410" data-name="Tracé 410" d="M312.712,123.12a3,3,0,1,1,3,3A3,3,0,0,1,312.712,123.12Z" transform="translate(-159.073 54.396)" fill="#fff" stroke="#222221" stroke-width="2"/>
    <text id="Lille" transform="matrix(1, 0, 0, 1, 221, 72.292)" fill="#222221" font-size="14" font-family="LibeSans-Bold, LibeSans" font-weight="700"><tspan x="-13.853" y="0">Lille</tspan></text>
    <rect id="Rectangle_236" data-name="Rectangle 236" width="7" height="7.001" transform="translate(215.55 50.932) rotate(-45)" fill="#fff" stroke="#222221" stroke-miterlimit="10" stroke-width="3"/>
  </g>
</svg>
