<svg xmlns="http://www.w3.org/2000/svg" xmlns:xlink="http://www.w3.org/1999/xlink" width="414" height="239" viewBox="0 0 414 239">
  <defs>
    <clipPath id="clip-_._assets_region-map-pdl">
      <rect width="414" height="239"/>
    </clipPath>
  </defs>
  <g id="_._assets_region-map-pdl" data-name="./assets/region-map-pdl" clip-path="url(#clip-_._assets_region-map-pdl)">
    <rect width="414" height="239" fill="#fff"/>
    <path id="polygon3576" d="M346.551,215.6l-4.423-.751-4.873-7.261-2.119.012-.094,1.052-6.95.038-3.408-5.09-5.662-2.022L317.31,189.46l-3.013-4.215-9.694.4-9.158,8.659-4.681-.245h0l-.507-.024-1.75-6.131-4.4-1.68-1.384-7.455-3.379-3.022-3.923.405-1.436,3.526-4.732,1.99-9.274-1.339-9.064,5.5L247.5,183.4l-5.108,3.51-3.4-2.466-2.458-4.193L231,178l-3.49,2.84-6.14-.728-.3,9.858,1.709,1.38.035,6.441-3.419,3.5.031,5.749,1.055,3.5.055,10.147,2.415,2.42.046,8.528L217.619,231l-2.7,1.574-4.447,11.311-1.685,6.185-.518,1.165-.589,1.21-.546-.119-5.742-1.409-3.1-4.158-5.9-.794-.316,3.952-7.233,1.055-3.544,3.571-1.351,3.688-20.771,1.146-9.358,5.068-.274,9.637-9.262,3.761-6.362,3.4-5.09.028-2.243-2.616-3.323,3.4-2.555.5,2.244,1.545-6.379,5.821,1.709,1.713,1.2,2.393-3.576,5.114,4.306,2.309,7.142,1.5.51-2.2,3.275,4.187,6.655-.036,4.393-4.89,3.336-.018-4.437,2.28.382,3.842,1.277,2.924-3.339,3.421-4.479.024.9,6.344,7.749-1.477,8.386,7.734-.1.135-.383.492.009.007-9.837,13-.3,8.7,10.575,10.268-.345,3.43,3.263-.018,6.552,19.552,6.962,3.452,6.952,6.968,7.738-.042,3.094,6.894,7.589-.041,3.334,5.061,8.386,4.191.279-4.534,1.4,1.323,10.623-6.616,4.283-.319,2.1,5.665,6.707-2.9,5.493,4.127,4.61-2.234,3.919-1.117,1.735-2.122,5.208-3.431-4.184-4.26-2.359,1.834-.208-1.675,2.438-4.662-2.4-4.092,1.921-2.658-1.112-9.877-3.287-5.043,2.419-3.214-5.554-6.238,2.019-4.541-8.345-6.968-.022-4.065-3.125-4.448.838-.36-.012-.011,5.554-2.451,10.654,2.389,5.153-3.463-.025-4.6,8.8-.74,8.422-1.75,8.863-.365.909,2.094,3.038,2.634,2.56-4.61,6.3-6.782,2.795-.015,3.874-14.454,5.48-6.684-.424-7.588,3.4-4.542-.013-2.415-1.609-1.977.969-2.035,1.959-4.028L314,277.9l4.637-.025-1.894-6.178,3.38,2.227,2.509-3.772,10.25-2.924-1.825-4.405,2.109-2.756,5.122-2.07,4.911-6.537-.034-6.231,3.31-.018,1.464-5.324.3-7.494-3.272-3.015,2.455-4.391,4.348-5.662Z" transform="translate(-12.057 -171.944)" fill="#6a85f4" stroke="#fff" stroke-miterlimit="10" stroke-width="1"/>
    <text id="Angers" transform="matrix(1, 0, 0, 1, 239.526, 110.518)" fill="#222221" font-size="10" font-family="LibeSans-Regular, LibeSans"><tspan x="-19.01" y="0">Angers</tspan></text>
    <text id="Le_Mans" data-name="Le Mans" transform="matrix(1, 0, 0, 1, 291.525, 57.522)" fill="#222221" font-size="10" font-family="LibeSans-Regular, LibeSans"><tspan x="-21.32" y="0">Le Mans</tspan></text>
    <text id="Laval" transform="matrix(1, 0, 0, 1, 227.523, 70.549)" fill="#222221" font-size="10" font-family="LibeSans-Regular, LibeSans"><tspan x="-12.945" y="0">Laval</tspan></text>
    <path id="Tracé_426" data-name="Tracé 426" d="M200.379,248.6a3,3,0,1,1,3,3A3,3,0,0,1,200.379,248.6Z" transform="translate(36.148 -132.084)" fill="#fff" stroke="#222221" stroke-width="2"/>
    <path id="Tracé_427" data-name="Tracé 427" d="M233.914,215.512a3,3,0,1,1,3,3A3,3,0,0,1,233.914,215.512Z" transform="translate(55.284 -150.965)" fill="#fff" stroke="#222221" stroke-width="2"/>
    <path id="Tracé_428" data-name="Tracé 428" d="M192.737,209.768a3,3,0,1,1,3,3A3,3,0,0,1,192.737,209.768Z" transform="translate(31.787 -154.243)" fill="#fff" stroke="#222221" stroke-width="2"/>
    <text id="La_Roche-sur-Yon" data-name="La Roche-sur-Yon" transform="matrix(1, 0, 0, 1, 270.524, 198.641)" fill="#222221" font-size="10" font-family="LibeSans-Regular, LibeSans"><tspan x="-85.92" y="0">La Roche-sur-Yon</tspan></text>
    <path id="Tracé_425" data-name="Tracé 425" d="M161.245,298.344a3,3,0,1,1,3,3A3,3,0,0,1,161.245,298.344Z" transform="translate(13.816 -103.697)" fill="#fff" stroke="#222221" stroke-width="2"/>
    <text id="Nantes" transform="matrix(1, 0, 0, 1, 236.524, 145.883)" fill="#222221" font-size="14" font-family="LibeSans-Bold, LibeSans" font-weight="700"><tspan x="-52.892" y="0">Nantes</tspan></text>
    <rect id="Rectangle_240" data-name="Rectangle 240" width="7" height="7.001" transform="translate(167.095 139.886) rotate(-45)" fill="#fff" stroke="#222221" stroke-miterlimit="10" stroke-width="3"/>
  </g>
</svg>
