<svg xmlns="http://www.w3.org/2000/svg" xmlns:xlink="http://www.w3.org/1999/xlink" width="414" height="239" viewBox="0 0 414 239">
  <defs>
    <clipPath id="clip-_._assets_region-map-idf">
      <rect width="414" height="239"/>
    </clipPath>
  </defs>
  <g id="_._assets_region-map-idf" data-name="./assets/region-map-idf" clip-path="url(#clip-_._assets_region-map-idf)">
    <rect width="414" height="239" fill="#fff"/>
    <path id="polygon3580" d="M557.473,243.248,554.48,232.1l-5.222-3.239,1.186-8.423,5.619-3.685-.823-4.285,2.719-3.4-12.579-2.6-3.485-8.165-6.322-2.137-17.93-17.327-2.163-15.27-8.414-6.1L502.2,159.99l-6.279,5.187-6.579-2-11.478,4.852-9.841-5.659-4.389,5.906-5.208.6-3.931-3.2-7.319-4.376-7.968,5.439-1.179-1.178,0,.014L435,162.527,419.8,153.5l-14.855-7.757-7.658,3.6-7.646,2.012-5.142-3.9L372.985,140.3l-9.117,7.144-12.443,1.46-17.85-1.292-3.819-6.214-3.33-7.764-6.478,8.229-4.219,15.47-3.97,6.9-.063-.028-.423.866-.024.042-18.877,5.6-3.379,4.286,3.754,5.865.033,6.048,5.043,1.062-2.456,2.526.6,5.431,1.171-.905,5.922,5.941,2.122,8.25,5.187,5.209-2.439,6.984-.028,7.585,4.575,5.209-4.621,8.078,5.168,12.522,9.394,6.705,1.511,7.9,8.116,1.27,1.976,14.707,6.675,8.1,11.411,2.109,2.476.491,1.252,8.177,1.428,2.29,1.59,19.284,23.125-2.24,8.358-7.929,7.093,5.766,18.089,1.209,4.269,6.419h0v-.021l2.5,3.715,7.873,4,.641,10.471-11.429,8.08,7.7,6.9,7.869-5.146,18.291.531,7.308-1.471,1.957-5.325,5.969.493,1.484,6.124,18.1-10.481,15.124-18.2-5.611-6.31,4.29-9.409,11.569-5.945,26.647,1.177,5.639-4.436,1.4,1.4,1.714-13.627,2.595-13.537,4.784-6.356.593-7.937,9.488-4.15-.04-7.334-10.488.741-1.585-3.671Z" transform="translate(-210.488 -128.43)" fill="#4267cb" stroke="#fff" stroke-miterlimit="10" stroke-width="1"/>
    <text id="Pontoise" transform="translate(158.391 38.471)" fill="#222221" font-size="10" font-family="LibeSans-Regular, LibeSans"><tspan x="0" y="0">Pontoise</tspan></text>
    <text id="Melun" transform="translate(255.424 148.895)" fill="#222221" font-size="10" font-family="LibeSans-Regular, LibeSans"><tspan x="0" y="0">Melun</tspan></text>
    <text id="Créteil" transform="translate(215.117 98.924)" fill="#222221" font-size="10" font-family="LibeSans-Regular, LibeSans"><tspan x="0" y="0">Créteil</tspan></text>
    <text id="Bobigny" transform="translate(215.117 72.839)" fill="#222221" font-size="10" font-family="LibeSans-Regular, LibeSans"><tspan x="0" y="0">Bobigny</tspan></text>
    <text id="Nanterre" transform="translate(124.526 76.718)" fill="#222221" font-size="10" font-family="LibeSans-Regular, LibeSans"><tspan x="0" y="0">Nanterre</tspan></text>
    <text id="Évry" transform="translate(164.201 138.458)" fill="#222221" font-size="10" font-family="LibeSans-Regular, LibeSans"><tspan x="0" y="0">Évry</tspan></text>
    <text id="Versailles" transform="translate(100.856 97.507)" fill="#222221" font-size="10" font-family="LibeSans-Regular, LibeSans"><tspan x="0" y="0">Versailles</tspan></text>
    <path id="Tracé_320" data-name="Tracé 320" d="M329.369,164.362a3,3,0,1,1,3,3A3,3,0,0,1,329.369,164.362Z" transform="translate(-124.567 -69.437)" fill="#fff" stroke="#222221" stroke-width="2"/>
    <path id="Tracé_321" data-name="Tracé 321" d="M329.353,156.023a3,3,0,1,1,3,3A3,3,0,0,1,329.353,156.023Z" transform="translate(-124.601 -87.183)" fill="#fff" stroke="#222221" stroke-width="2"/>
    <path id="Tracé_322" data-name="Tracé 322" d="M319.807,157.263a3,3,0,1,1,3,3A3,3,0,0,1,319.807,157.263Z" transform="translate(-144.916 -84.544)" fill="#fff" stroke="#222221" stroke-width="2"/>
    <path id="Tracé_323" data-name="Tracé 323" d="M342.5,180.336a3,3,0,1,1,3,3A3,3,0,0,1,342.5,180.336Z" transform="translate(-96.621 -35.441)" fill="#fff" stroke="#222221" stroke-width="2"/>
    <path id="Tracé_324" data-name="Tracé 324" d="M326.01,175.3a3,3,0,1,1,3,3A3,3,0,0,1,326.01,175.3Z" transform="translate(-131.715 -46.154)" fill="#fff" stroke="#222221" stroke-width="2"/>
    <path id="Tracé_325" data-name="Tracé 325" d="M313.183,163.909a3,3,0,1,1,3,3A3,3,0,0,1,313.183,163.909Z" transform="translate(-159.012 -70.401)" fill="#fff" stroke="#222221" stroke-width="2"/>
    <path id="Tracé_326" data-name="Tracé 326" d="M311.468,145.036a3,3,0,1,1,3,3A3,3,0,0,1,311.468,145.036Z" transform="translate(-162.662 -110.564)" fill="#fff" stroke="#222221" stroke-width="2"/>
    <text id="Paris" transform="matrix(1, 0, 0, 1, 164.486, 103.538)" fill="#222221" font-size="14" font-family="LibeSans-Bold, LibeSans" font-weight="700"><tspan x="0" y="0">Paris</tspan></text>
    <rect id="Rectangle_226" data-name="Rectangle 226" width="7" height="7.001" transform="translate(190.175 83.125) rotate(-45)" fill="#fff" stroke="#222221" stroke-miterlimit="10" stroke-width="3"/>
  </g>
</svg>
