<svg xmlns="http://www.w3.org/2000/svg" xmlns:xlink="http://www.w3.org/1999/xlink" width="414" height="239" viewBox="0 0 414 239">
  <defs>
    <clipPath id="clip-_._assets_region-map-bfc">
      <rect width="414" height="239"/>
    </clipPath>
  </defs>
  <g id="_._assets_region-map-bfc" data-name="./assets/region-map-bfc" clip-path="url(#clip-_._assets_region-map-bfc)">
    <rect width="414" height="239" fill="#fff"/>
    <path id="polygon4164" d="M636.061,284.808l-.157-.642,8.111-9.57-.028-.011.752-.905,5.108-.835-1.95-8.27-1.235-4.449-4.955.77-.59-3.6,1.66-3.133.392-4.681-1.147-2.735-6.713-5.237-5.555-.308-1.2-2.4h0l-.173-.35-11.5-6.092-3.144-3.544-3.576-2.386-3.367,1.727-.395,2.165-2.5,1.591-1.364.007-5.39-6.09-7.9.043-3.21,2.579-2.471.315-4.22-3.232.321-3.982-2.252-1.765-7.288,1.235-1.1,3.732L566,226.913l-2.448-2.85-2.631,1.653,1.379,2.13-3.429,2.148,1.058,2.789-3.759,1.4.025,4.505-4.952.027-.337,2.985-5.037,1.143.446,5.269,2.623.272-1.2,1.466-.994,6.9-2.727.015-5.339,2.181-5.717-2.161-5.484,2.453.018,3.34-.111-.02-1.518,3.791-7.08,1.668-.571-1.36-6.1-7.677-3.443,1.953-3.8-.288-1.464-2.923-5.508.364-.36-5.835-2.9-1.968,4.464-4.912-8.58-11.572-6.419-6.833-5.98-3.379-10.912.059-.752,4.882-4.254,2.369-11.138.391-.251-1.214-.558,1.241-.3.011.1.456-1.566,3.455-1.834-.249-2.247-4.192-7.445,3.849L423.183,234l-1.7-3.768-3.87-5.227-.721-6.537-6.17-7.353-3.654,2.611-5.907-4.545,1.021-9.707-9.623-10.066-4.3.023-2.709-2.272-3.364,2.647-13.846-.615-6.662,3.42-2.708,5.946,2.79,3.129-7.5,9.081,6.746,6.4,1.752,5.622,4.675,5.052.033,6.042-9.477,8.166,3.41,3.853-.591,4.887-4.655,3.419-7.663.042,1.289,4.677,4.665,6.517,1.1,5.689.967,3.449-3.586,1.107.013,0-3.455,1.055.424,4.268,4.286,4.973.035,6.5-3.209,4.75,1.153,4.754L358.6,307l.349,4.773,3.619,7.664-.694,8.772,3.947,3.891-1.011,9.173-.32,4.838,1.738,3.166L363.579,358l.278,3.139,6.306,2.936,4.518,4.953,4.248-2.443,2.94-1.765.685,2.922,6.071-.033,1.327-2.73,2.471,1.1,1.174,4.942,3.563-.878,6.527-9.168,3,2.13.792,1.5.025-.017,6.335,11.9.03,5.482,2.069,2.54,6.017-.033,2.129,2.879,5.69-.031,2.258,3.176-.256,13.637L424.43,409.9l-.6,1.42,1.332-.159.616.189.371,5.813,5.445,1.086.722,2.615,3.419-.019,4.214-2.535,11.038,1.673,2.436,2.44,3.07-3.12,4.151-.023,2.1-11.8,1.1-.859,3.187-.017,4.558,3,3.044-2.784,2.144,2.9,3.538-3.562,3.238-.309,1.7,5.279,1.484,7.6,3.308.433,2.325-5.56,6.53-26.574,2.341-4.437,3.417-.364,3.991,3.3,3.119-.839,3.5-2.5,3.083.626,2.115,4.612,2.258.874v0l4.234,1.643L534.136,400l4.438,2.022.029,5.36,6.183-.9,6.594-7.437,5.044,2.518.025,4.538,11.093-.06L582.9,388.754l-.925-.507.6-7.032,5.7-6.95-3.894-1.54.285-1.9,0-.015,21.8-20.942.187-.175-.774-17.208,7.457-3.8,5.343-2.569,5.23-4.951.359-6.775,4.664-2.427,11.707-13.788-1.718-4.139,3.443-1.589,5.092-6.341-3.082-3.094Z" transform="translate(-306.49 -185.29)" fill="#ff697f" stroke="#fff" stroke-miterlimit="10" stroke-width="1"/>
    <text id="Lons-le-Saunier" transform="matrix(1, 0, 0, 1, 236.672, 172.2)" fill="#222221" font-size="10" font-family="LibeSans-Regular, LibeSans"><tspan x="-38.795" y="0">Lons-le-Saunier</tspan></text>
    <text id="Besançon" transform="matrix(1, 0, 0, 1, 270.525, 134.185)" fill="#222221" font-size="10" font-family="LibeSans-Regular, LibeSans"><tspan x="-26.2" y="0">Besançon</tspan></text>
    <text id="Vesoul" transform="matrix(1, 0, 0, 1, 275.673, 70.673)" fill="#222221" font-size="10" font-family="LibeSans-Regular, LibeSans"><tspan x="-17.35" y="0">Vesoul</tspan></text>
    <text id="Belfort" transform="matrix(1, 0, 0, 1, 335.57, 87.166)" fill="#222221" font-size="10" font-family="LibeSans-Regular, LibeSans"><tspan x="-35.38" y="0">Belfort</tspan></text>
    <path id="Tracé_368" data-name="Tracé 368" d="M518.782,231.646a3,3,0,1,1,3,3A3,3,0,0,1,518.782,231.646Z" transform="translate(-197.593 -158.761)" fill="#fff" stroke="#222221" stroke-width="2"/>
    <path id="Tracé_369" data-name="Tracé 369" d="M489.319,234.868a3,3,0,1,1,3,3A3,3,0,0,1,489.319,234.868Z" transform="translate(-216.434 -156.701)" fill="#fff" stroke="#222221" stroke-width="2"/>
    <path id="Tracé_372" data-name="Tracé 372" d="M464.92,296.909a3,3,0,1,1,3,3A3,3,0,0,1,464.92,296.909Z" transform="translate(-232.036 -117.028)" fill="#fff" stroke="#222221" stroke-width="2"/>
    <path id="Tracé_374" data-name="Tracé 374" d="M484.22,259.586a3,3,0,1,1,3,3A3,3,0,0,1,484.22,259.586Z" transform="translate(-219.695 -140.894)" fill="#fff" stroke="#222221" stroke-width="2"/>
    <text id="Dijon" transform="matrix(1, 0, 0, 1, 197.308, 104.181)" fill="#222221" font-size="14" font-family="LibeSans-Bold, LibeSans" font-weight="700"><tspan x="-18.165" y="0">Dijon</tspan></text>
    <rect id="Rectangle_232" data-name="Rectangle 232" width="7" height="7.001" transform="translate(192.359 114.781) rotate(-45)" fill="#fff" stroke="#222221" stroke-miterlimit="10" stroke-width="3"/>
    <text id="Nevers" transform="matrix(1, 0, 0, 1, 70.982, 155.971)" fill="#222221" font-size="10" font-family="LibeSans-Regular, LibeSans"><tspan x="0" y="0">Nevers</tspan></text>
    <path id="Tracé_370" data-name="Tracé 370" d="M376.842,226.8a3,3,0,1,1,3,3A3,3,0,0,1,376.842,226.8Z" transform="translate(-288.359 -161.858)" fill="#fff" stroke="#222221" stroke-width="2"/>
    <path id="Tracé_371" data-name="Tracé 371" d="M360.257,279.884a3,3,0,1,1,3,3A3,3,0,0,1,360.257,279.884Z" transform="translate(-298.965 -127.915)" fill="#fff" stroke="#222221" stroke-width="2"/>
    <text id="Auxerre" transform="matrix(1, 0, 0, 1, 98.151, 68.947)" fill="#222221" font-size="10" font-family="LibeSans-Regular, LibeSans"><tspan x="0" y="0">Auxerre</tspan></text>
    <text id="Macon" transform="matrix(1, 0, 0, 1, 224.999, 223.669)" fill="#222221" font-size="10" font-family="LibeSans-Regular, LibeSans"><tspan x="-35.75" y="0">Macon</tspan></text>
    <path id="Tracé_373" data-name="Tracé 373" d="M432.594,321.93a3,3,0,1,1,3,3A3,3,0,0,1,432.594,321.93Z" transform="translate(-252.708 -101.027)" fill="#fff" stroke="#222221" stroke-width="2"/>
  </g>
</svg>
