<svg xmlns="http://www.w3.org/2000/svg" xmlns:xlink="http://www.w3.org/1999/xlink" width="414" height="239" viewBox="0 0 414 239">
  <defs>
    <clipPath id="clip-_._assets_region-map-nor">
      <rect width="414" height="239"/>
    </clipPath>
  </defs>
  <g id="_._assets_region-map-nor" data-name="./assets/region-map-nor" clip-path="url(#clip-_._assets_region-map-nor)">
    <rect width="414" height="239" fill="#fff"/>
    <path id="polygon4147" d="M440,175.277l-1.233-9.6-3.56-3.185,1.015-3.207,2.826-5.411,2.155-3.8-4.569.025-.036-6.606-2.4-4.024,1.509-7.917,1.94-5.036-3.258.018,1.233-3.141,4.217-5.233-4.233-7.725-1.3-7.487L416.218,85.215l-2.189-4.374-4.764.447-3.816-1.623L402.6,83.245,385.3,96.861l-30.856,8.013L334,112.425l-16.639,9.206-9.919,15.121-2.118,12.2,8.492,6.4,8.884,1.845-8.207,1.528L298.9,167.954l-17.158,6.983L268.076,167.3l-33.515-4.829-7.9-4.121-11.607,3.056v0l-3.762.988-.42-9.339-10.589-12.564,2.921-7.519,4.971-.027-4.555-12.383-18.168-.791-9.179,6.528-10.252-6.711-15.864-4.713-1.983,5.146,8.771,7.056.047,8.587-3.452,4.383,2.521,2.514.932.637-.785,7.655,2.974,6.745,9.442,10.689,2.037,9.337,2.023,2.963.08,14.656,4.944,10.029.061,11.258-5.279,10.847,5.977,15.4,8.927,1.98.631,3.26-3.852,1.811-8.35.045,1.468,6.024,2.516,8.015,7.135,6.289,3.942,1.012,3.321-4.619,3.625-.483,4.172-5.084,3.817,3.031,4.959-.027,2.788,1.395.005.959,7.726.917,4.006-3.253,5.511,2.24.055.093.344.685.039-.034,2.383,4.032,5.037,3.718,6.108-4.2,4.038,2.869,11.141-6.758,10.975,1.576,6.446-2.711,1.63-3.995,3.394-.355,3.3,2.958,1.7,9.174,5.327,2.034,2.169,7.586,7.617.4,10.985-10.392,10.46-.433,2.991,4.082,2.128,15.068,7.092,2.529,4.213,6.294,8.332-.045.321,2.291,1.249-.041.317-3.525.726,0,5.744,8.568,5.435.86-.056-10.728-2.875-3.814-.712-2.718,5.614-3.431,6.237-1.308,4.31-5.347-.9-15.772-8.645-7.35-.431-7.1-.99-.665,5.09-4.986,5.428-.03,14.719-7.809,4.569,1.915,10.769-.014,2.719-3.318-.033-6.046,8.132-4.138-.036-6.7,2.238-1.9-.21-1.886,2.674-2.739-4.3-.907-.016-2.969-1.955-3.064,1.218-1.549,11.437-3.372,2.963-5.19,2.462-9.154,3.006-3.816.526-4.145,3.088,1.7,3.933-1.108Z" transform="translate(-88.336 -74.642)" fill="#acbaf2" stroke="#fff" stroke-miterlimit="10" stroke-width="1"/>
    <text id="Évreux" transform="matrix(1, 0, 0, 1, 290.18, 137.926)" fill="#222221" font-size="10" font-family="LibeSans-Regular, LibeSans"><tspan x="-36.4" y="0">Évreux</tspan></text>
    <text id="Saint-lô" transform="matrix(1, 0, 0, 1, 169.244, 123.497)" fill="#222221" font-size="10" font-family="LibeSans-Regular, LibeSans"><tspan x="-36.83" y="0">Saint-lô</tspan></text>
    <text id="Alençon" transform="matrix(1, 0, 0, 1, 210.526, 192.449)" fill="#222221" font-size="10" font-family="LibeSans-Regular, LibeSans"><tspan x="-21.22" y="0">Alençon</tspan></text>
    <text id="Caen" transform="matrix(1, 0, 0, 1, 202.318, 118.498)" fill="#222221" font-size="10" font-family="LibeSans-Regular, LibeSans"><tspan x="-13.665" y="0">Caen</tspan></text>
    <path id="Tracé_433" data-name="Tracé 433" d="M181.967,142.516a3,3,0,1,1,3,3A3,3,0,0,1,181.967,142.516Z" transform="translate(-58.743 -22.224)" fill="#fff" stroke="#222221" stroke-width="2"/>
    <path id="Tracé_434" data-name="Tracé 434" d="M273.121,149.786a3,3,0,1,1,3,3A3,3,0,0,1,273.121,149.786Z" transform="translate(21.091 -15.857)" fill="#fff" stroke="#222221" stroke-width="2"/>
    <path id="Tracé_435" data-name="Tracé 435" d="M211.86,139.325a3,3,0,1,1,3,3A3,3,0,0,1,211.86,139.325Z" transform="translate(-32.562 -25.018)" fill="#fff" stroke="#222221" stroke-width="2"/>
    <path id="Tracé_436" data-name="Tracé 436" d="M226.909,184.925a3,3,0,1,1,3,3A3,3,0,0,1,226.909,184.925Z" transform="translate(-19.382 14.92)" fill="#fff" stroke="#222221" stroke-width="2"/>
    <text id="Rouen" transform="matrix(1, 0, 0, 1, 293.015, 77.04)" fill="#222221" font-size="14" font-family="LibeSans-Bold, LibeSans" font-weight="700"><tspan x="-23.513" y="0">Rouen</tspan></text>
    <rect id="Rectangle_242" data-name="Rectangle 242" width="7" height="7.001" transform="translate(287.566 86.318) rotate(-45)" fill="#fff" stroke="#222221" stroke-miterlimit="10" stroke-width="3"/>
  </g>
</svg>
