<svg xmlns="http://www.w3.org/2000/svg" xmlns:xlink="http://www.w3.org/1999/xlink" width="414" height="239" viewBox="0 0 414 239">
  <defs>
    <clipPath id="clip-_._assets_region-map-occ">
      <rect width="414" height="239"/>
    </clipPath>
  </defs>
  <g id="_._assets_region-map-occ" data-name="./assets/region-map-occ" clip-path="url(#clip-_._assets_region-map-occ)">
    <rect width="414" height="239" fill="#fff"/>
    <path id="polygon4153" d="M512.966,480.167l-.036-6.563-5.051-8.4-10.864-6.092-.8,4.824-3.393.362-1.235-4.558-4.807.957-.722,5.568-2.674-.965-7.151-4.677L473.38,462.1l-.042-7.786-4.843-2.9-1.262-.773.787-6.088-4.97-5.4-2.061-10.6-7.641-9.851-5.2,1.305-1.157-3.968-3.6.02-.552,3.606-6.8,2.164L430.753,408.4l-8.628,3.2-2.139,4.927-5.232-3.505L410.612,426.4l-3.811,9.008-2.011-2.48-.9-8.53-2.831.015-1.3-8.313-5.705.873-.739-4.923-1.185-1.858-8.65,7.557.037,6.759-1.977.011-.808,6.717-1.952.819-1.546,3.592-8.454.046-.788-1.207-4.591.025-2.407,4.089-.44-.042-1.959-.263,1.544-4.828-3.667-1.6,3.609-8.62-5.036-3.759L353.3,408.652l-5-1.325-3.025,3.049-1.629-2.881-5.162,5.281-2.855.383L330,405.094l-7.639-3.407-6.238,2.99-1.494.246.349.527-1.831,1.613.02,3.6,2.5,2.765-2.347,4.3-2.38,1.559-.293,2.76-4.952.641.359,3.891,1.467.5-3.568,5.195-6.479.615-.264,4.6L294.717,440l-1.407,3.719-6.017.32,2.52,9.325,2.553,5.58.148.325-5.631,1.064-4.687-2.794-2.227,7.477,3.207,3.5-1.313,5.22-1.838,2.18,1.135,3.26-5,1.092-4.761,1.313,1.178,4.065-1.5.464-.022-.024-.742.255-.224.068.013.018-1.31,1.232L264.6,483.5l-9.046.933-2.282,4.123-5.005.569-4.6.863-2.183-3.077-4.667,4.771-3.552-3.035-2.3,5.046.277,3.522-2.525.723L227.5,496.2l-1.641-4.95-4.33,3.788-2.734-1.1-3.464.672-3.135,3.892,3.424,5.79-2.211,2.26.909,4.981-2.714,3.638-2.131,5.885,2.548,4.484L219.1,526l.712.063,4.621,7.633-3.176,2.973,5.842,8.752-2.7,3.629-4.511,10.432-7.936,6.929,2.03,4.052-1.266.857-4.577-.927-1.184,9.92-2.3,1.789-.5,7.066,1.232-.716,4.639,2.756,5.643,4.249.57,3.489,4.882,3.962,3.935-.021,9.346-4.072,3.912,4.506,5.944,1.584,1.989-3.455,2.224.992,5.314.35v0l12.561.784.54-14.306,3.441.5,5.363,3.125-.023.017,2.1,1.176,9.118,1.734,3.56-.019,4.927,6.426,12.365-.671,4.988,7.953,4.553-1.892,12.243,1.65.818,4.624h0l.621,3.638,4.462,4.185,8.508,2.311.3,5.087,4.926,4.348,3.825-.694,4.9-6.142,5.757-1.149,9.316,3.107,8.39,7.2,2.423-3.138,1.675-.009,2.133,1.512,2.167-1.086.252-4.039,8.485-2.06,2.85-3.814,4.125-1.4,5.773-.031,3.786,4.029,5.258.342-.029-5.292-2.478-3.426-3.912-1.689-.752-24.477,0,0-.3-9.054.284-10.112-3.691.317-2.622-3.875,1.855-3.12,4.787,4.528,4.644-3.794,3-3.025.322-2.834h.007l.2-1.705,10.264-3.254,1.108-2.55,7.986-.32,2.621-3.329,15.487-12.626,9.6-6.96,2.755.175,0,0,5.055.346.032,5.891,7.005-.392,3.853.181,2.611-6.237,9.607-6.012-2.188-3.077,2.207-6.037,8.621,1.182,2.011-15.923,11.38-6.661-.023-4.181Z" transform="translate(-155.882 -399.237)" fill="#ff697f" stroke="#fff" stroke-miterlimit="10" stroke-width="1"/>
    <text id="Albi" transform="matrix(1, 0, 0, 1, 202.426, 95.936)" fill="#222221" font-size="10" font-family="LibeSans-Regular, LibeSans"><tspan x="-9.02" y="0">Albi</tspan></text>
    <text id="Foix" transform="matrix(1, 0, 0, 1, 167.029, 179.66)" fill="#222221" font-size="10" font-family="LibeSans-Regular, LibeSans"><tspan x="-10.445" y="0">Foix</tspan></text>
    <text id="Cahors" transform="matrix(1, 0, 0, 1, 166.794, 61.881)" fill="#222221" font-size="10" font-family="LibeSans-Regular, LibeSans"><tspan x="0" y="0">Cahors</tspan></text>
    <text id="Rodez_" data-name="Rodez " transform="matrix(1, 0, 0, 1, 227.953, 80.013)" fill="#222221" font-size="10" font-family="LibeSans-Regular, LibeSans"><tspan x="-17.01" y="0">Rodez </tspan></text>
    <text id="Montpellier" transform="matrix(1, 0, 0, 1, 301.18, 130.785)" fill="#222221" font-size="10" font-family="LibeSans-Regular, LibeSans"><tspan x="-57.52" y="0">Montpellier</tspan></text>
    <text id="Nimes" transform="matrix(1, 0, 0, 1, 330.315, 110.219)" fill="#222221" font-size="10" font-family="LibeSans-Regular, LibeSans"><tspan x="-33.12" y="0">Nimes</tspan></text>
    <text id="Carcassonne" transform="matrix(1, 0, 0, 1, 257.367, 167.373)" fill="#222221" font-size="10" font-family="LibeSans-Regular, LibeSans"><tspan x="-35.14" y="0">Carcassonne</tspan></text>
    <text id="Perpignan" transform="matrix(1, 0, 0, 1, 191.178, 209.49)" fill="#222221" font-size="10" font-family="LibeSans-Regular, LibeSans"><tspan x="0" y="0">Perpignan</tspan></text>
    <text id="Mende" transform="matrix(1, 0, 0, 1, 283.18, 64.369)" fill="#222221" font-size="10" font-family="LibeSans-Regular, LibeSans"><tspan x="-18.105" y="0">Mende</tspan></text>
    <path id="Tracé_344" data-name="Tracé 344" d="M420.61,480.615a3,3,0,1,1,3,3A3,3,0,0,1,420.61,480.615Z" transform="translate(-85.382 -374.507)" fill="#fff" stroke="#222221" stroke-width="2"/>
    <path id="Tracé_345" data-name="Tracé 345" d="M398.212,496.215a3,3,0,1,1,3,3A3,3,0,0,1,398.212,496.215Z" transform="translate(-92.677 -369.426)" fill="#fff" stroke="#222221" stroke-width="2"/>
    <path id="Tracé_346" data-name="Tracé 346" d="M380.169,437.818a3,3,0,1,1,3,3A3,3,0,0,1,380.169,437.818Z" transform="translate(-98.554 -388.446)" fill="#fff" stroke="#222221" stroke-width="2"/>
    <path id="Tracé_347" data-name="Tracé 347" d="M338.265,450.151a3,3,0,1,1,3,3A3,3,0,0,1,338.265,450.151Z" transform="translate(-112.202 -384.429)" fill="#fff" stroke="#222221" stroke-width="2"/>
    <path id="Tracé_348" data-name="Tracé 348" d="M286.863,444.678a3,3,0,1,1,3,3A3,3,0,0,1,286.863,444.678Z" transform="translate(-128.944 -386.212)" fill="#fff" stroke="#222221" stroke-width="2"/>
    <path id="Tracé_349" data-name="Tracé 349" d="M281.375,472.218a3,3,0,1,1,3,3A3,3,0,0,1,281.375,472.218Z" transform="translate(-130.732 -377.242)" fill="#fff" stroke="#222221" stroke-width="2"/>
    <path id="Tracé_350" data-name="Tracé 350" d="M328.392,523.9a3,3,0,1,1,3,3A3,3,0,0,1,328.392,523.9Z" transform="translate(-115.418 -360.409)" fill="#fff" stroke="#222221" stroke-width="2"/>
    <path id="Tracé_351" data-name="Tracé 351" d="M354.695,555.578a3,3,0,1,1,3,3A3,3,0,0,1,354.695,555.578Z" transform="translate(-106.851 -350.091)" fill="#fff" stroke="#222221" stroke-width="2"/>
    <path id="Tracé_352" data-name="Tracé 352" d="M291.2,540.816a3,3,0,1,1,3,3A3,3,0,0,1,291.2,540.816Z" transform="translate(-127.533 -354.899)" fill="#fff" stroke="#222221" stroke-width="2"/>
    <path id="Tracé_355" data-name="Tracé 355" d="M318.964,478.763a3,3,0,1,1,3,3A3,3,0,0,1,318.964,478.763Z" transform="translate(-118.489 -375.11)" fill="#fff" stroke="#222221" stroke-width="2"/>
    <text id="Toulouse" transform="matrix(1, 0, 0, 1, 158.478, 152.23)" fill="#222221" font-size="14" font-family="LibeSans-Bold, LibeSans" font-weight="700"><tspan x="-33.929" y="0">Toulouse</tspan></text>
    <rect id="Rectangle_230" data-name="Rectangle 230" width="7" height="7.001" transform="translate(153.529 130.567) rotate(-45)" fill="#fff" stroke="#222221" stroke-miterlimit="10" stroke-width="3"/>
    <text id="Tarbes" transform="matrix(1, 0, 0, 1, 78.052, 164.639)" fill="#222221" font-size="10" font-family="LibeSans-Regular, LibeSans"><tspan x="0" y="0">Tarbes</tspan></text>
    <text id="Auch" transform="matrix(1, 0, 0, 1, 105.827, 118.498)" fill="#222221" font-size="10" font-family="LibeSans-Regular, LibeSans"><tspan x="-13.3" y="0">Auch</tspan></text>
    <text id="Montauban" transform="matrix(1, 0, 0, 1, 145.858, 98.557)" fill="#222221" font-size="10" font-family="LibeSans-Regular, LibeSans"><tspan x="-59.19" y="0">Montauban</tspan></text>
    <path id="Tracé_354" data-name="Tracé 354" d="M219.451,521.664a3,3,0,1,1,3,3A3,3,0,0,1,219.451,521.664Z" transform="translate(-150.901 -361.136)" fill="#fff" stroke="#222221" stroke-width="2"/>
    <path id="Tracé_353" data-name="Tracé 353" d="M245.307,495.143a3,3,0,1,1,3,3A3,3,0,0,1,245.307,495.143Z" transform="translate(-142.479 -369.775)" fill="#fff" stroke="#222221" stroke-width="2"/>
  </g>
</svg>
