<svg xmlns="http://www.w3.org/2000/svg" xmlns:xlink="http://www.w3.org/1999/xlink" width="414" height="239" viewBox="0 0 414 239">
  <defs>
    <clipPath id="clip-_._assets_region-map-gre">
      <rect width="414" height="239"/>
    </clipPath>
  </defs>
  <g id="_._assets_region-map-gre" data-name="./assets/region-map-gre" clip-path="url(#clip-_._assets_region-map-gre)">
    <rect width="414" height="239" fill="#fff"/>
    <path id="path4151" d="M639.6,164.227l-4.869-3.876-7.272-.811-6.552-3.275-4.228,2.586-2.2-2.489-3.357.019-4.576,1.3.031-.044-1,.32-.245.069-.007.011-.1.035-1.827-2.626-5.851-3.564-2.148-3.364-7.363.691-4.039,3.8-9.5.325-2.719-1.9c-.373-.662-1.742-2.97-3.014-3.682-.059-.031-.154-.083-.228-.112-.056-.029-.136-.048-.185-.072l-.26-.052,0,.449-.141-.449c-1.023.007-3.123-1.076-4.105-1.65l-.193-.115-4.52,1.952-.26,3.425-4.224.551-2.9-5.445-1.575-.554-.023-4.058-4.094-1.764-.316-6.921-3.063-3.015-6.2-3-3.2-.025-.891.614-2.617.015-4.06-3.51-4.662.329-3.569,3.068-.832,1.349-4.472.024-1.719-1.772-.519,0v0l-4.1.023-5.261-5.831-7.034.039-3.464,3.264-4.919.309-1.687,1.786-.589,0v.007l-.615,0-1.139-5.347-2.526-2.53-1.143-.154.005-.007-2.44-.368-1.161-5.717-2.563-1.947-7.951-.831-1.409-3.67-2.759-1.8-9.1-1.147-.543-6.176,1.136-1.161-.017-3.061-4.566-2.884.756-2.868,1.257-3.213-1.9-1.645,2.951-2.719-.031-5.725-1.456-1.055-4.722.025-2.97,4.512-2.7,2.814.033,6.091-3.219,2.192-6.305,2.092-3.231,1.366-4-3.143-6.043.033-.835,5.733,2.526,4.777-2.456,2.244-.274,4.734,1.41,2.281-1.015,3.149-4.414,2.412.02,3.707-5.388,1.176-1.084,2.95,3.831,2.056-1.053,3.75-.876,3.581.246,7.8h.007l.076,1.916-1.509.419-4.955-3.229-4.01,1.762.575,2.725-5.708.031-5.734,4.377.045,8.347,4.127,2.709.85,1.92-6.328.57-1,3.287,2.509,1.662-.826,1.3-2.816,1.29.772,2.717,3.856-.02,1.088,1.5-2.32,1.607-2.267,6.118-4.331,2.079-1.473,3.252-1.562,1.951.324,1.639-2.227,1.458-.65,4.578,2.418,1.506,1.1,4.054-1.436,2.665,1.1,2.55,4.14-.293,0,.6h-.009l.005.959-3.995,1.742-.258,3.661-1.942,2.578-1.212,6.08-.652,5.178,2.133,1.748,3.434-.019,7.264,7.593-.851,7.974,5.721,4.4,2.839-2.032,4.312,5.138.585,5.279,3.24,4.357,1.565,3.477,11.962.565,5.488-2.839,1.641,3.043,2.581.342,1.49-3.289,9.256-.322,4.128-2.245.566-3.642,7.878-.043,1.967,1.108,0-.012,2.519,1.409,5.122,5.461,6.5,8.76-3.834,4.209,2.85,1.936.313,5.2,4.779-.312,1.155,2.3,3.858.292,2.369-1.353,4.38,5.492.732,1.739,6.934-1.626,1.131-2.848.457.077-.017-3.189,3.585-1.615,4.63,1.759,4.418-1.839,2.88-.016.887-6.123,1.87-2.3-3.055-.316-.232-2.75,3.954-.9.264-2.265,4.122-.023-.023-3.932,3.315-1.24-.919-2.422.78-.5,2.149-1.336-1.123-1.731.71-.453,2.019,2.352,3.349-2.4.823-2.79,4.992-.842,1.147.9-.26,3.24,4.106,3.141,2.621-.332,2.55-2.059,5.708-.032L547,262.42l1.759-.009,2.581-1.639.313-1.713,1.876-.969,2.333,1.546,2.575,2.9,9.238,4.9h0l1.277,2.492,4.746.262,5.051,3.942.758,1.8-.253,3.314-1.438,2.727.671,4.1,4.114-.639.787,2.835,1.561,6.636,3.2-.547-.509,2.814,2.373,2.052,11.014-.352,5.754-4.658.244-6.536,3.031-3.99-4.008-4.61-1.891-4.381,2.236-3.108-.041-7.42,1.378-3.442v-5.891l2.662-3.956-3-4.211-.292-7.588.016,0-.035-.691-.012-.31-.005,0-.033-.531,7.415-14.888.059-.121-.94-8.524,3.4-11.463.808-9.789,7.483-5.588-.02-3.593,2.666-3.565,2.279-.012,2.854-2.926-.594-5.076,2.432-6.716Z" transform="translate(-301.612 -66.408)" fill="#6a85f4" stroke="#fff" stroke-miterlimit="10" stroke-width="1"/>
    <text id="Troyes" transform="matrix(1, 0, 0, 1, 108.727, 160.452)" fill="#222221" font-size="10" font-family="LibeSans-Regular, LibeSans"><tspan x="-17.94" y="0">Troyes</tspan></text>
    <text id="Chaumont" transform="matrix(1, 0, 0, 1, 169.296, 176.457)" fill="#222221" font-size="10" font-family="LibeSans-Regular, LibeSans"><tspan x="-27.805" y="0">Chaumont</tspan></text>
    <text id="Chalons-_en-Champagne" data-name="Chalons-
en-Champagne" transform="matrix(1, 0, 0, 1, 121.767, 92.663)" fill="#222221" font-size="10" font-family="LibeSans-Regular, LibeSans"><tspan x="-22.225" y="0">Chalons-</tspan><tspan x="-40.095" y="11">en-Champagne</tspan></text>
    <text id="Charleville-_Mézières" data-name="Charleville-
Mézières" transform="matrix(1, 0, 0, 1, 137.706, 52.394)" fill="#222221" font-size="10" font-family="LibeSans-Regular, LibeSans"><tspan x="-27.37" y="0">Charleville-</tspan><tspan x="-23.765" y="11">Mézières</tspan></text>
    <text id="Colmar" transform="matrix(1, 0, 0, 1, 276.511, 192.171)" fill="#222221" font-size="10" font-family="LibeSans-Regular, LibeSans"><tspan x="0" y="0">Colmar</tspan></text>
    <text id="Metz" transform="matrix(1, 0, 0, 1, 223.722, 86.795)" fill="#222221" font-size="10" font-family="LibeSans-Regular, LibeSans"><tspan x="-13.195" y="0">Metz</tspan></text>
    <text id="Bar-le-Duc" transform="matrix(1, 0, 0, 1, 168.58, 139.09)" fill="#222221" font-size="10" font-family="LibeSans-Regular, LibeSans"><tspan x="-25.33" y="0">Bar-le-Duc</tspan></text>
    <text id="Nancy" transform="matrix(1, 0, 0, 1, 224.917, 122.743)" fill="#222221" font-size="10" font-family="LibeSans-Regular, LibeSans"><tspan x="-16.415" y="0">Nancy</tspan></text>
    <text id="Epinal" transform="matrix(1, 0, 0, 1, 242.857, 165.454)" fill="#222221" font-size="10" font-family="LibeSans-Regular, LibeSans"><tspan x="-14.49" y="0">Epinal</tspan></text>
    <path id="Tracé_277" data-name="Tracé 277" d="M420.029,96.3a3,3,0,1,1,3,3A3,3,0,0,1,420.029,96.3Z" transform="translate(-285.323 -59.538)" fill="#fff" stroke="#222221" stroke-width="2"/>
    <path id="Tracé_278" data-name="Tracé 278" d="M409.167,151.876a3,3,0,1,1,3,3A3,3,0,0,1,409.167,151.876Z" transform="translate(-288.926 -41.107)" fill="#fff" stroke="#222221" stroke-width="2"/>
    <path id="Tracé_279" data-name="Tracé 279" d="M443.214,162.359a3,3,0,1,1,3,3A3,3,0,0,1,443.214,162.359Z" transform="translate(-277.634 -37.63)" fill="#fff" stroke="#222221" stroke-width="2"/>
    <path id="Tracé_280" data-name="Tracé 280" d="M484.623,139.131a3,3,0,1,1,3,3A3,3,0,0,1,484.623,139.131Z" transform="translate(-263.9 -45.333)" fill="#fff" stroke="#222221" stroke-width="2"/>
    <path id="Tracé_281" data-name="Tracé 281" d="M485.52,166.128a3,3,0,1,1,3,3A3,3,0,0,1,485.52,166.128Z" transform="translate(-263.602 -36.38)" fill="#fff" stroke="#222221" stroke-width="2"/>
    <path id="Tracé_282" data-name="Tracé 282" d="M498.992,198.2a3,3,0,1,1,3,3A3,3,0,0,1,498.992,198.2Z" transform="translate(-259.134 -25.743)" fill="#fff" stroke="#222221" stroke-width="2"/>
    <path id="Tracé_283" data-name="Tracé 283" d="M538.532,202.409a3,3,0,1,1,3,3A3,3,0,0,1,538.532,202.409Z" transform="translate(-246.02 -24.346)" fill="#fff" stroke="#222221" stroke-width="2"/>
    <path id="Tracé_284" data-name="Tracé 284" d="M443.752,205.776a3,3,0,1,1,3,3A3,3,0,0,1,443.752,205.776Z" transform="translate(-277.455 -23.23)" fill="#fff" stroke="#222221" stroke-width="2"/>
    <path id="Tracé_285" data-name="Tracé 285" d="M398.268,194.874a3,3,0,1,1,3,3A3,3,0,0,1,398.268,194.874Z" transform="translate(-292.541 -26.846)" fill="#fff" stroke="#222221" stroke-width="2"/>
    <text id="Strasbourg" transform="matrix(1, 0, 0, 1, 313.692, 153.1)" fill="#222221" font-size="14" font-family="LibeSans-Bold, LibeSans" font-weight="700"><tspan x="-42.847" y="0">Strasbourg</tspan></text>
    <rect id="Rectangle_222" data-name="Rectangle 222" width="7" height="7.001" transform="translate(310.423 133.042) rotate(-45)" fill="#fff" stroke="#222221" stroke-miterlimit="10" stroke-width="3"/>
  </g>
</svg>
