<svg xmlns="http://www.w3.org/2000/svg" xmlns:xlink="http://www.w3.org/1999/xlink" width="414" height="239" viewBox="0 0 414 239">
  <defs>
    <clipPath id="clip-_._assets_region-map-ara">
      <rect width="414" height="239"/>
    </clipPath>
  </defs>
  <g id="_._assets_region-map-ara" data-name="./assets/region-map-ara" clip-path="url(#clip-_._assets_region-map-ara)">
    <rect width="414" height="239" fill="#fff"/>
    <path id="path4155" d="M619.332,399.2l-4.042-1.54-1.164-4.082-7.773-4.606c.068-1.685.33-8.805-.4-10.535l.541-.5-1.39.008c-.955.247-4.278.533-5.151.621l-4.125-4.7.127-5.067h0l.1-4.41,9.749-4.15,1.247-3.191-.674-6.726-6.736-7.031-1.669.975-.035-6.542-5.556-2.659-.228-1.9,3.16-3.512-.025-4.437-5.275-5.568-.318-4.056-10.34.063-6.73,1.23-6.07,5.048-1.6-2.427-3.715.352-2.988,6.73-.052.117.376,2.93,2.837,2.329-5.32,3.584-3.595,3.42-6.375.035-.028.019-2.551.015-.027-4.876,3.163-1.907,5.46-.623.376-3.593-1.579-1.044,4.181-5.417-.753-2.134-5.427-2.887L536.88,330.143l-7.747.041-.019-3.345-5.187-2.593-5.6,6.309-3.681.538-.021-3.9-3.917-1.784-5.834-8.191-5.2-2.016-1.753-3.837-3.331-.677-2.951,2.146-2,.542-3.184-2.633-3.609.39-2.169,4.122-5.327,21.64-.763,1.787v.015l-.029-.005-.822,2.037-1.391-.182-1.1-5.594-1.612-5.023-3.665.346-2.37,2.39-1.711-2.316L459.2,332.8l-3.357-2.209-3.156.017-1.406,1.1-.659,3.816,0,.005-.962,5.359-3.007.017-2.125,2.162-1.572-1.56-9.412-1.426-.155-.024-3.485,2.1-1.855.011-.545-2-4.3-.853-.309-4.663-.8-.249,5.677-4.439.221-11.816-2.274-3.21-4.632.025-1.717-2.337-4.916.027-1.211-1.486-.024-4.25-5.957-11.3-3.377-2.458-5.625,7.9-1.716.426-.851-3.568-3.188-1.422L391.3,299l-3.673.02-.665-2.872-3.415,2.06-2.827,1.627-3.26-3.572-4.874-2.31-.3-3.92-7.29-.572-4.026,5.317-2.285.294-2.362,2.459-2.944-3.22-8.2,8.44.028,5.1,1.46,1.182.235,1.907-3.632,2.917-3.688-1.125-7.474,1.6-3.833,4.5-1.8,3.918.813-.164,3.252,4.6.019,3.528,2.457,3.195,1.968-2.567,2.089,3.679,3.182,1.139,3.13,7.333.165,2.332.012.007.438,6.815,2.353,2.922,1.109,5.189-3.372,2.578-.81,4.093-3.015,1.66-5.757,3.439.665,3.079,6.688,6.7.582,3.815-2.6,4.354.024,4.414,1.8,2.086.858,4.744-.635,2.349.005,0-.787,2.964,1.408,3.4-1.442,1.711-2.469.013-2.806-3.079-3.353-1.888-.241,8.705-5.015,3.136-3.953,5.55.915,5.341-1.11,2.289-1.362,4.389-2.194.011-2.673,3.408,1.986,1.995,1.007,2.483-3.671,2.65,1.651,10.258,4.8,3.571-3.687,8.824,3.744,1.637-1.636,5.107,4.061.509,2.457-4.173,3.623-.02.793,1.215,9.55-.052,1.641-3.817,2.118-.881.781-6.486,2.088-.012-.039-7.277,7.625-6.662.5.757.865,5.736,5.74-.874,1.292,8.226,2.809-.015.834,7.9.021.132,3.112,3.856,4.419-10.457,3.826-12.353,5.153,3.444,2.422-5.581,7.3-2.725.2-.069,5.3,13.472,8.151-2.6.513-3.411,2.194-.012,1.214,4.157,5.5-1.374,6.347,8.126-.008.016.837,1.043,2.066,10.667.032.127,4.875,5.316-.8,6.29,6.225,3.75.048,8.788,3.693-1.928,6.846,4.462,3.806,1.388.782-6.058,3.4-.677,1.228,4.521,4.836-.518.713-4.267,9.282,5.228,1.617-3.356,4.1-.654v-.011l3.239-.486,1.434,1.712-.8,5.86,1.595,1.981,4.511-4.68,3.918-.3,1.112-3.166-5.135-.609-.787-4.746,2.907-4.66,3.664-.309,3.623,3.416-3.941,5.472,1.42,2.521,6.209.624,2.317-2.033-1.214,2.665.715,3.984,6.406.56,7.813.55,1.131,3.653,4.6,3.383,4.064.28,2.81-2.566,1.287-3.892,1.769,1.565,2.391,2.857,1.255-12.36-3.059-.577-1.781-3.775-9.777-2.606-1.1-4.4,3.786-2.555-3.22-2.262.442-1.972,4.167.236,4.271,2.154,3.7-4.43-3.38-2.761.221-3.176,1.643-5.3,5.769-.617,5.192-2.144.444-1.035.011.007.095-.258.273-.624h-.025l.282-.721-2.446-1.22-.015-2.8,6.953-.037,2.67-2.733L549,454.427l3.227-2.567,2.658,1.16,3.777-3.3,6.655,1.134,2.32-2.671,5.774.262-.04-7.177-2.393-1.2-1.214-3.9-6.146-.576-.678-1.11,1.06-5.826,1.787-1.581,4.912-.558,1.476,1.478.963,4.4,5.923-.73.59-4.509,2.262-1.047,6.207.285-.219-.44,7.977-3.295,3.128,1.995,3.736-.02.268-3.689,3.535-1.969,1.483-1.761,7.67-3.052.927-5.405-1.448-2.264Z" transform="translate(-251.925 -282.739)" fill="#6a85f4" stroke="#fff" stroke-miterlimit="10" stroke-width="1"/>
    <text id="Bourg-_en-Bresse" data-name="Bourg-
en-Bresse" transform="matrix(1, 0, 0, 1, 252.43, 70.294)" fill="#222221" font-size="10" font-family="LibeSans-Regular, LibeSans"><tspan x="-16.52" y="0">Bourg-</tspan><tspan x="-26.175" y="10">en-Bresse</tspan></text>
    <text id="Annecy" transform="matrix(1, 0, 0, 1, 308.853, 82.39)" fill="#222221" font-size="10" font-family="LibeSans-Regular, LibeSans"><tspan x="0" y="0">Annecy</tspan></text>
    <text id="Clermont-_Ferrand" data-name="Clermont-
Ferrand" transform="matrix(1, 0, 0, 1, 124.294, 111.416)" fill="#222221" font-size="10" font-family="LibeSans-Regular, LibeSans"><tspan x="-25.545" y="0">Clermont-</tspan><tspan x="-20.095" y="10">Ferrand</tspan></text>
    <text id="Moulins" transform="matrix(1, 0, 0, 1, 153.994, 44.038)" fill="#222221" font-size="10" font-family="LibeSans-Regular, LibeSans"><tspan x="-39.33" y="0">Moulins</tspan></text>
    <text id="Villefranche-_sur-Saone" data-name="Villefranche-
sur-Saone" transform="translate(210.333 72.409)" fill="#222221" font-size="10" font-family="LibeSans-Regular, LibeSans"><tspan x="-63.58" y="0">Villefranche-</tspan><tspan x="-52.56" y="10">sur-Saone</tspan></text>
    <path id="Tracé_382" data-name="Tracé 382" d="M368.889,306.732a3,3,0,1,1,3,3A3,3,0,0,1,368.889,306.732Z" transform="translate(-234.394 -277.996)" fill="#fff" stroke="#222221" stroke-width="2"/>
    <path id="Tracé_383" data-name="Tracé 383" d="M428.289,340.244a3,3,0,1,1,3,3A3,3,0,0,1,428.289,340.244Z" transform="translate(-214.654 -266.859)" fill="#fff" stroke="#222221" stroke-width="2"/>
    <path id="Tracé_391" data-name="Tracé 391" d="M452.9,327.27a3,3,0,1,1,3,3A3,3,0,0,1,452.9,327.27Z" transform="translate(-206.474 -271.17)" fill="#fff" stroke="#222221" stroke-width="2"/>
    <path id="Tracé_392" data-name="Tracé 392" d="M492.774,343.932a3,3,0,1,1,3,3A3,3,0,0,1,492.774,343.932Z" transform="translate(-193.223 -265.634)" fill="#fff" stroke="#222221" stroke-width="2"/>
    <text id="Lyon" transform="matrix(1, 0, 0, 1, 237.383, 100.414)" fill="#222221" font-size="14" font-family="LibeSans-Bold, LibeSans" font-weight="700"><tspan x="0" y="0">Lyon</tspan></text>
    <rect id="Rectangle_234" data-name="Rectangle 234" width="7" height="7.001" transform="translate(223.556 94.833) rotate(-45)" fill="#fff" stroke="#222221" stroke-miterlimit="10" stroke-width="3"/>
    <text id="Privas" transform="matrix(1, 0, 0, 1, 255.556, 186.917)" fill="#222221" font-size="10" font-family="LibeSans-Regular, LibeSans"><tspan x="-31.8" y="0">Privas</tspan></text>
    <text id="Valence" transform="matrix(1, 0, 0, 1, 241.96, 168.893)" fill="#222221" font-size="10" font-family="LibeSans-Regular, LibeSans"><tspan x="0" y="0">Valence</tspan></text>
    <text id="Grenoble" transform="matrix(1, 0, 0, 1, 252.429, 145.313)" fill="#222221" font-size="10" font-family="LibeSans-Regular, LibeSans"><tspan x="-23.595" y="0">Grenoble</tspan></text>
    <text id="Saint-Etienne" transform="matrix(1, 0, 0, 1, 202.613, 116.463)" fill="#222221" font-size="9" font-family="LibeSans-Regular, LibeSans"><tspan x="-29.979" y="0">Saint-Etienne</tspan></text>
    <text id="Chambery" transform="matrix(1, 0, 0, 1, 299.551, 110.422)" fill="#222221" font-size="10" font-family="LibeSans-Regular, LibeSans"><tspan x="0" y="0">Chambery</tspan></text>
    <text id="Aurillac" transform="matrix(1, 0, 0, 1, 102.377, 165.108)" fill="#222221" font-size="10" font-family="LibeSans-Regular, LibeSans"><tspan x="-36.59" y="0">Aurillac</tspan></text>
    <text id="Le_Puy-en-Velay" data-name="Le Puy-en-Velay" transform="matrix(1, 0, 0, 1, 171.332, 150.795)" fill="#222221" font-size="10" font-family="LibeSans-Regular, LibeSans"><tspan x="-39.085" y="0">Le Puy-en-Velay</tspan></text>
    <path id="Tracé_384" data-name="Tracé 384" d="M418.388,378.072a3,3,0,1,1,3,3A3,3,0,0,1,418.388,378.072Z" transform="translate(-217.944 -254.288)" fill="#fff" stroke="#222221" stroke-width="2"/>
    <path id="Tracé_385" data-name="Tracé 385" d="M396.12,403.836a3,3,0,1,1,3,3A3,3,0,0,1,396.12,403.836Z" transform="translate(-225.344 -245.726)" fill="#fff" stroke="#222221" stroke-width="2"/>
    <path id="Tracé_386" data-name="Tracé 386" d="M428.289,422.457a3,3,0,1,1,3,3A3,3,0,0,1,428.289,422.457Z" transform="translate(-214.654 -239.538)" fill="#fff" stroke="#222221" stroke-width="2"/>
    <path id="Tracé_387" data-name="Tracé 387" d="M442.518,408.925a3,3,0,1,1,3,3A3,3,0,0,1,442.518,408.925Z" transform="translate(-209.925 -244.035)" fill="#fff" stroke="#222221" stroke-width="2"/>
    <path id="Tracé_388" data-name="Tracé 388" d="M478.071,391.229a3,3,0,1,1,3,3A3,3,0,0,1,478.071,391.229Z" transform="translate(-198.11 -249.916)" fill="#fff" stroke="#222221" stroke-width="2"/>
    <path id="Tracé_389" data-name="Tracé 389" d="M330.9,413.331a3,3,0,1,1,3,3A3,3,0,0,1,330.9,413.331Z" transform="translate(-247.02 -242.571)" fill="#fff" stroke="#222221" stroke-width="2"/>
    <path id="Tracé_390" data-name="Tracé 390" d="M358.6,357.3a3,3,0,1,1,3,3A3,3,0,0,1,358.6,357.3Z" transform="translate(-237.811 -261.19)" fill="#fff" stroke="#222221" stroke-width="2"/>
    <path id="Tracé_393" data-name="Tracé 393" d="M485.1,365.423a3,3,0,1,1,3,3A3,3,0,0,1,485.1,365.423Z" transform="translate(-195.775 -258.492)" fill="#fff" stroke="#222221" stroke-width="2"/>
  </g>
</svg>
