<svg xmlns="http://www.w3.org/2000/svg" xmlns:xlink="http://www.w3.org/1999/xlink" width="414" height="239" viewBox="0 0 414 239">
  <defs>
    <clipPath id="clip-_._assets_region-map-cvl">
      <rect width="414" height="239"/>
    </clipPath>
  </defs>
  <g id="_._assets_region-map-cvl" data-name="./assets/region-map-cvl" clip-path="url(#clip-_._assets_region-map-cvl)">
    <rect width="414" height="239" fill="#fff"/>
    <path id="polygon3610" d="M410.1,227.047l-5.936-5.633-7.418,4.292-.537-2.214-4.094-.337-.955,2.589-2.683.552-8.468-.26-3.207,2.1-2.053-1.835,4.632-3.274-.361-5.828-3.835-1.939L372,210.5l-8.36-.558L360.033,207l-4.147,3.934-7.94.749.011-.03-.819.105-.34.032-.008.013-.115.015-.663-8.011-.646-.957-.645-4.265-6.623-1.245-2.621-3.187-.954-7.095-3.713-.581-.634-3.292-4.344-3.1-2.05-4.978,2.2-3.847-2.289-2.6-.015-2.828,1.289-3.655-2.6-2.6-.956-3.734-3.467-3.475-2.365,1.977.027,4.918-6.134,3.125.026,4.813-1.559,1.9-7.414.04-3.77-1.575-11.186,6-4.354.024-4.967,4.861,1.331.89.322,5.3,6.528,5.55.631,11.129-2.809,3.482-4.458.934-5.067,3.061.75,2.84,2.117,2.869.042,7.633.929.139,3.8,2.711-1.015,1.3-.006,0-.346.455-.246.316,0,0-1.741,2.3-2.622,4.685,3.182,2.932-.234,6.2-1.114,4-3.217.018.034,6.251-4.072,5.429-4.618,1.864-2.393,3.127.776,1.925-.016,0,.25.586.153.379h.009l.265.616-8.542,2.44-1.936,2.91-4.457-2.939,2.1,6.873-2.609.014-6.5-4.589-3.4,7.031,1.622,2,.008,1.506-3.09,4.117.385,6.819-4.776,5.817-3.682,13.569.624,0,1.266,4.908,5.777,1.2.02,3.712,7.395,2.154.032,5.536-.314,4.258,9.826-.065,8.454-2.044-.687-3.568,1.805-1.148,2.3,3.176,2.073.889,1.841,7.365,5.279,5.536.615,4.393,5.073,5.031.493.5.031,5.657-1.29,4,6.105,4.825,3.18,3.187,4.781.6,1.873,6.413,3.245,1.765-.484,4.019-2.118.4-.012.94.951.2,7.95.576,2.56-2.628,4.978,4.989,6.156-7.277,2.56,1.738,3.719-.373,1.112.575,6.106.339,1.783-4.973,14.982,1.757,5.952,1.535,2.2-.264v.01l.757-.1.181-.022v0l7.123-.932,1.546-3.377,3.814-4.488,7.39-1.577,4.169,1.262,4.669-3.731-.369-2.96-1.5-1.213-.025-4.564,7.74-7.972,3.12,3.425,2.967-3.1,2.49-.312,4.22-5.565,6.427.509.084,1.284.924.107,2.382-7.836-1.577-2.84.269-3.878.911-8.367-3.416-3.377.59-7.389-3.155-6.6-.328-4.459-5.621-4.385-.817-3.366,2.7-4-.034-6.26-2.9-3.4.02-.011-.6-.675-.07-.081,0,0-.165-.179-.255-2.589,6.21-1.9-1.069-3.851L404.528,269l-4.053-5.685-.762-2.749,5.68-.031,4.61-3.376.615-5.067-2.6-2.924,7.786-6.7-.033-6.048-4.115-4.374Z" transform="translate(-115.162 -150.69)" fill="#ff697f" stroke="#fff" stroke-miterlimit="10" stroke-width="1"/>
    <text id="Tours" transform="matrix(1, 0, 0, 1, 151.163, 136.27)" fill="#222221" font-size="10" font-family="LibeSans-Regular, LibeSans"><tspan x="-14.695" y="0">Tours</tspan></text>
    <text id="Chateauroux" transform="matrix(1, 0, 0, 1, 213.769, 191.549)" fill="#222221" font-size="10" font-family="LibeSans-Regular, LibeSans"><tspan x="-34.01" y="0">Chateauroux</tspan></text>
    <text id="Bourges" transform="matrix(1, 0, 0, 1, 254.573, 166.36)" fill="#222221" font-size="10" font-family="LibeSans-Regular, LibeSans"><tspan x="-21.9" y="0">Bourges</tspan></text>
    <text id="Blois" transform="matrix(1, 0, 0, 1, 191.18, 119.909)" fill="#222221" font-size="10" font-family="LibeSans-Regular, LibeSans"><tspan x="-11.77" y="0">Blois</tspan></text>
    <text id="Chartres" transform="matrix(1, 0, 0, 1, 201.262, 64.436)" fill="#222221" font-size="10" font-family="LibeSans-Regular, LibeSans"><tspan x="-23.325" y="0">Chartres</tspan></text>
    <path id="Tracé_334" data-name="Tracé 334" d="M326.985,274.886a3,3,0,1,1,3,3A3,3,0,0,1,326.985,274.886Z" transform="translate(-74.156 -100.915)" fill="#fff" stroke="#222221" stroke-width="2"/>
    <path id="Tracé_335" data-name="Tracé 335" d="M297.291,292.185a3,3,0,1,1,3,3A3,3,0,0,1,297.291,292.185Z" transform="translate(-86.522 -93.711)" fill="#fff" stroke="#222221" stroke-width="2"/>
    <path id="Tracé_336" data-name="Tracé 336" d="M253.92,254.049a3,3,0,1,1,3,3A3,3,0,0,1,253.92,254.049Z" transform="translate(-104.583 -109.593)" fill="#fff" stroke="#222221" stroke-width="2"/>
    <path id="Tracé_337" data-name="Tracé 337" d="M281.584,242.175a3,3,0,1,1,3,3A3,3,0,0,1,281.584,242.175Z" transform="translate(-93.063 -114.536)" fill="#fff" stroke="#222221" stroke-width="2"/>
    <path id="Tracé_338" data-name="Tracé 338" d="M288.461,187.295a3,3,0,1,1,3,3A3,3,0,0,1,288.461,187.295Z" transform="translate(-90.199 -137.391)" fill="#fff" stroke="#222221" stroke-width="2"/>
    <text id="Orleans" transform="matrix(1, 0, 0, 1, 235.863, 104.645)" fill="#222221" font-size="14" font-family="LibeSans-Bold, LibeSans" font-weight="700"><tspan x="0" y="0">Orleans</tspan></text>
    <rect id="Rectangle_228" data-name="Rectangle 228" width="7" height="7.001" transform="translate(221.143 98.641) rotate(-45)" fill="#fff" stroke="#222221" stroke-miterlimit="10" stroke-width="3"/>
  </g>
</svg>
