<svg xmlns="http://www.w3.org/2000/svg" xmlns:xlink="http://www.w3.org/1999/xlink" width="414" height="239" viewBox="0 0 414 239">
  <defs>
    <clipPath id="clip-_._assets_region-map-reu">
      <rect width="414" height="239"/>
    </clipPath>
  </defs>
  <g id="_._assets_region-map-reu" data-name="./assets/region-map-reu" clip-path="url(#clip-_._assets_region-map-reu)">
    <rect width="414" height="239" fill="#fff"/>
    <path id="path3564" d="M343.123,583.881l-15.709.274-5.7,2.806-6.515,5.02-1.215,1.109h-4.475l-9.519,3.589-4.116,3.617-13.094,1.9-1.218,6.915-3.589,14.408a64.937,64.937,0,0,1-6.522,3.921c-1.485.544-9.817,5.026-9.817,5.026l-1.516,15.277,3.623,9.122,9.81,11.634,4.708,5.3,3.788-.849-2.31,1.115.332,20.831,9.806,12.208,10.118,9.4,17.816,10.538,1.208-.722-1.417,1.023,21.139,12.7,16.294,5.9L372.549,749,386.581,754l8.924,1.677s13.724-2.8,15.5-2.8,16.037-2.775,16.037-2.775l14.617-4.739,9.813-8.913-.914-15.812,1.81-9.906,3.921-5.6,6.491-8.633,3.316-10.785-.917-10.539-6.881-3.884-8.92-4.116-4.113-.294-6.628-9.437c-1.482-1.1-9.519-9.984-10.1-11.4-.585-1.389-5.892-13.307-5.892-13.307L420.831,614.1l-10.114-9.711L398.8,597.78s-9.515-5.519-11.295-5.813c-1.813-.26-17.553-3.617-18.737-3.617s-12.807.842-13.108,1.1l-1.512-.582Z" transform="translate(-156.109 -532.015)" fill="#6a85f4" stroke="#fff" stroke-miterlimit="10" stroke-width="1"/>
    <text id="Saint-Denis" transform="matrix(1, 0, 0, 1, 185, 44.349)" fill="#222221" font-size="14" font-family="LibeSans-Bold, LibeSans" font-weight="700"><tspan x="-41.195" y="0">Saint-Denis</tspan></text>
    <rect id="Rectangle_244" data-name="Rectangle 244" width="7" height="7.001" transform="translate(180.051 54.56) rotate(-45)" fill="#fff" stroke="#222221" stroke-miterlimit="10" stroke-width="3"/>
  </g>
</svg>
