<svg xmlns="http://www.w3.org/2000/svg" xmlns:xlink="http://www.w3.org/1999/xlink" width="414" height="239" viewBox="0 0 414 239">
  <defs>
    <clipPath id="clip-_._assets_region-map-pac">
      <rect width="414" height="239"/>
    </clipPath>
  </defs>
  <g id="_._assets_region-map-pac" data-name="./assets/region-map-pac" clip-path="url(#clip-_._assets_region-map-pac)">
    <rect width="414" height="239" fill="#fff"/>
    <path id="polygon3584" d="M666.382,488.465l-1.559-5.074-5.652.464-16.536,6.123-5,.027-8.987-7.288-9.368-2.555-4.882.008-.034-6.188-7.385-4.567-.034-6.333,5.647-.812L608.882,459l-3.491-1.1-1.59-4.136,1.26-2.908,6.383-6.945-1.043-5,.533-.573h0l.136-.154.829-.9h-.013l2.337-2.6,4.145.352-.022-4.123-4.935-2.5-1.128-10.335-4.33-1.563-4.851.76-8.769-4.414-1.469-10.683-5.343-1.772-1.7-3.354-2.47-5.415-7.2-.321-3.525,1.62-.685,5.232-5.387.665-1.027-4.676-2.382-2.389-6.77.763-2.724,2.417-1.435,7.853,1.328,2.171,7.271.691,1.392,4.478,2.725,1.364.037,6.879-6.375-.291-2.765,3.174-7.994-1.373-4.469,3.894-3.189-1.4-5.145,4.1,1.781,3.228-2.343,2.4-9.082.049.028,5.15,2.66,1.331-.77,1.829-5.664,2.365-7.626.8-2.231,7.249-.335,4.558,3.683,2.994-3.22,3.876-4.526-2.288-6.281-.39-.9,4,3.2,2.237-3.913,2.64,1.667,6.707,11.992,3.2,2.168,4.619,3.266.625-1.093,10.866h0l-.054.572-1.333-1.579-3.432-3.026-1.979,6-2.851,2.609-.7-.049,0-.015-.5-.028-.608-.051,0,.007-2.361-.155-5.028-3.7-1.491-4.785-10.192-.709-6.952-.61-.651-3.677,2.369-5.214-.843-.636-4.351,3.8-6.519-.651-1.107-1.943,4.931-6.85-5.442-5.136-5.44.474-4.04,6.456,1.142,6.979,5.691.674-.649,1.868-4.458.363-4.915,5.08-.885-1.1.968-7.124-2.439-2.908-10.064,1.563-2.181,4.544,1.338.747,5.857,9.729.044,8.151,10.506,10.475.022,4.008-4.732,2.757,0,0-9.059,5.312-2.39,18.864-10.294-1.414-3.183,8.723,2.326,3.271-11.026,6.907-3.472,8.306,11.9.476,14.572.991,1.758,1.757-4.29.023-3.976,6.98,15.9,3.277,13.119-2.382-6.728-6.377,3.48-2.942,6.208,2.6,3.231,6.868,20.5.238,4.781-2.007.78,2.343-6.332,5.639,8.349.321-1.072,2.79-2.827,3.351,18.272-.1,8.2,2.723.634.847,1.154,1.569,6.2,2.758,1.8,7.185,4.442.823,3.687-2.633,6.115-3.868,10.17.959-.226,2-3.264,1.649.216,1.033,9.795.409-2.928-3.014-.671-4.094,4.034-2.855,5.04,1.65,1.982.623,1.971,2.419,3.06-2.2.658-4.7,2.492-2.2,7.443-.04,2.062-3.167,4.7,1.344,6.106-2.7-.056-10.2-5.856.3,3.848-2.443,2.935-4.08.748-5.534,9.948-1.445,5.388-6.172.013.015.321-.4.38-.435-.016-.015.087-.108.278-7.682,6.739,1.325,2.452-3.258,3.842.784.28-11.206,7.786-.693,6.968-6.453,6.578-.036.332-4.154,6.5-4.007-3.615-8.242,5.193-4.588-1.062-5.173,7.557-2.492,2.143-8.217-1.067-5.464Z" transform="translate(-336.172 -385.358)" fill="#6a85f4" stroke="#fff" stroke-miterlimit="10" stroke-width="1"/>
    <text id="Gap" transform="matrix(1, 0, 0, 1, 219.087, 69.789)" fill="#222221" font-size="10" font-family="LibeSans-Regular, LibeSans"><tspan x="0" y="0">Gap</tspan></text>
    <text id="Avignon" transform="matrix(1, 0, 0, 1, 127.044, 139.256)" fill="#222221" font-size="10" font-family="LibeSans-Regular, LibeSans"><tspan x="0" y="0">Avignon</tspan></text>
    <path id="Tracé_415" data-name="Tracé 415" d="M496.188,429.477a3,3,0,1,1,3,3A3,3,0,0,1,496.188,429.477Z" transform="translate(-287.417 -363.691)" fill="#fff" stroke="#222221" stroke-width="2"/>
    <path id="Tracé_416" data-name="Tracé 416" d="M504.824,459.087a3,3,0,1,1,3,3A3,3,0,0,1,504.824,459.087Z" transform="translate(-282.095 -345.445)" fill="#fff" stroke="#222221" stroke-width="2"/>
    <text id="Nice" transform="matrix(1, 0, 0, 1, 304.978, 141.894)" fill="#222221" font-size="10" font-family="LibeSans-Regular, LibeSans"><tspan x="-11.27" y="0">Nice</tspan></text>
    <text id="Digne-_les-Bains" data-name="Digne-
les-Bains" transform="matrix(1, 0, 0, 1, 225.73, 128.503)" fill="#222221" font-size="10" font-family="LibeSans-Regular, LibeSans"><tspan x="-15.795" y="0">Digne-</tspan><tspan x="-22.53" y="13">les-Bains</tspan></text>
    <text id="Toulon" transform="matrix(1, 0, 0, 1, 210.875, 210.977)" fill="#222221" font-size="10" font-family="LibeSans-Regular, LibeSans"><tspan x="-16.93" y="0">Toulon</tspan></text>
    <path id="Tracé_417" data-name="Tracé 417" d="M553.857,480.2a3,3,0,1,1,3,3A3,3,0,0,1,553.857,480.2Z" transform="translate(-251.879 -332.434)" fill="#fff" stroke="#222221" stroke-width="2"/>
    <path id="Tracé_418" data-name="Tracé 418" d="M495.634,522.967a3,3,0,1,1,3,3A3,3,0,0,1,495.634,522.967Z" transform="translate(-287.758 -306.08)" fill="#fff" stroke="#222221" stroke-width="2"/>
    <path id="Tracé_419" data-name="Tracé 419" d="M440.075,472.855a3,3,0,1,1,3,3A3,3,0,0,1,440.075,472.855Z" transform="translate(-321.996 -336.961)" fill="#fff" stroke="#222221" stroke-width="2"/>
    <text id="Marseille" transform="matrix(1, 0, 0, 1, 164.095, 189.035)" fill="#222221" font-size="14" font-family="LibeSans-Bold, LibeSans" font-weight="700"><tspan x="-33.887" y="0">Marseille</tspan></text>
    <rect id="Rectangle_238" data-name="Rectangle 238" width="7" height="7.001" transform="translate(159.146 199.854) rotate(-45)" fill="#fff" stroke="#222221" stroke-miterlimit="10" stroke-width="3"/>
  </g>
</svg>
