<svg xmlns="http://www.w3.org/2000/svg" xmlns:xlink="http://www.w3.org/1999/xlink" width="414" height="239" viewBox="0 0 414 239">
  <defs>
    <clipPath id="clip-_._assets_region-map-cor">
      <rect width="414" height="239"/>
    </clipPath>
  </defs>
  <g id="_._assets_region-map-cor" data-name="./assets/region-map-cor" clip-path="url(#clip-_._assets_region-map-cor)">
    <rect width="414" height="239" fill="#fff"/>
    <path id="path3586" d="M703.984,613.713l0,0h0l-.194-.38-4.391-8.621-1.432-27.785-3.362-5.285h0l-5.873-4.581-.938-16.7,2.836-7.941-3.755-12.687-2.312-10.138-2.023-3.057h0l-4.786-2.715L670.009,519l1.057,5.062,3.4,4.4-4.029,3.106.938,1.912.947,1.923-2.686,3.1v4.725h0l4.682,4.219v5.969l-2.631,5.609-2.418,1.068-1.365-1.889-2.228-3.1-6.661.543-1.383-.936h-6.069l-5.38,4.984-1.866,7.613-11.73,2.244-9.526,8.092-1.726,4.767-3.753-.343-3.17-3.785h0l-1.53,9.039-3.292,1.329-1.037,8.019,1.246,2.913-4.815,3.505-1.317,3.423h-3.9v6.186l5.007,3.507,7.551,4.391.385,2.758-4,1.233-7.969,1.53v4.057l2.75,2.83.543,9.477,10.654,3.407,3.407.84,2.832,4.466-1.837,2.681-3.743,1.344-2.865,5.229-2.947,3.5,1.488,9.245,7.354-.462,2,1.528,6.466-3.216,1.135,1.137-3.258,6.961,3.026,3.016-5.07,3.772-4.1,9.229,11.083,2.593,12.98,1.212-4.788,5.553c-.974-.33-3.01-.855-4.2-.314a1.464,1.464,0,0,0-.33.2,2.059,2.059,0,0,0-.226.219.987.987,0,0,0-.178.207l-.127.249.006.048c-.01.05-.021.05-.021.054l-.05.107a.62.62,0,0,0-.061.286l-.011.2c0,1.728-2.222,6.063-3.108,7.553l-.247.447,4.945,5.41,8.524,5.243,15.8,4.194,4.585,1.835,3.5,1.53-3.06,5.569,8.192-.491,1.4,3.22h8.437l2.123-10.069-4.1-.84,6.088-6.456-2.516-2.615.347-3.448,8.366-4.593.543-6.2-6.564-.527-2.752,2.368v-2.378l7.173-.441,2.466-5.973,1.9-16.412.017-.111-1.421-6.951-.148-6.269.008,0-.3-13.864,11.106-15.691v-26.13h.015v.015h-.011v.017h.027Z" transform="translate(-458.162 -507.551)" fill="#e5c8aa" stroke="#fff" stroke-miterlimit="10" stroke-width="1"/>
    <text id="Ajaccio" transform="translate(152 168.914)" fill="#222221" font-size="14" font-family="LibeSans-Bold, LibeSans" font-weight="700"><tspan x="-55.3" y="0">Ajaccio</tspan></text>
    <rect id="Rectangle_246" data-name="Rectangle 246" width="7" height="7.001" transform="translate(156.783 162.914) rotate(-45)" fill="#fff" stroke="#222221" stroke-miterlimit="10" stroke-width="3"/>
    <text id="Bastia" transform="translate(266.695 55.492)" fill="#222221" font-size="10" font-family="LibeSans-Regular, LibeSans"><tspan x="-31.9" y="0">Bastia</tspan></text>
    <path id="Tracé_441" data-name="Tracé 441" d="M641.14,537.8a3,3,0,1,1,3,3A3,3,0,0,1,641.14,537.8Z" transform="translate(-420.194 -488.303)" fill="#fff" stroke="#222221" stroke-width="2"/>
  </g>
</svg>
