<svg xmlns="http://www.w3.org/2000/svg" xmlns:xlink="http://www.w3.org/1999/xlink" width="130" height="65" viewBox="0 0 130 65">
  <defs>
    <clipPath id="clip-_._assets_seats-viz-gua">
      <rect width="130" height="65"/>
    </clipPath>
  </defs>
  <g id="_._assets_seats-viz-gua" data-name="./assets/seats-viz-gua" clip-path="url(#clip-_._assets_seats-viz-gua)">
    <rect width="130" height="65" fill="#fff"/>
    <text id="_41" data-name="41" transform="translate(65 64)" font-size="21" font-family="LibeSansSemiCondensed-Bold, LibeSans SemiCondensed" font-weight="700"><tspan x="-7.791" y="0">41</tspan></text>
    <g id="GUSRDVGDVD">
      <ellipse id="Ellipse_913" data-name="Ellipse 913" cx="3.775" cy="3.775" rx="3.775" ry="3.775" transform="translate(0 57.159)" fill="#fda7b4"/>
      <ellipse id="Ellipse_914" data-name="Ellipse 914" cx="3.775" cy="3.775" rx="3.775" ry="3.775" transform="translate(9.456 57.163)" fill="#fda7b4"/>
      <ellipse id="Ellipse_915" data-name="Ellipse 915" cx="3.775" cy="3.775" rx="3.775" ry="3.775" transform="translate(18.924 57.167)" fill="#fda7b4"/>
      <ellipse id="Ellipse_916" data-name="Ellipse 916" cx="3.775" cy="3.775" rx="3.775" ry="3.775" transform="translate(28.41 57.171)" fill="#fda7b4"/>
      <ellipse id="Ellipse_917" data-name="Ellipse 917" cx="3.775" cy="3.775" rx="3.775" ry="3.775" transform="translate(2.51 43.173)" fill="#fda7b4"/>
      <ellipse id="Ellipse_918" data-name="Ellipse 918" cx="3.775" cy="3.775" rx="3.775" ry="3.775" transform="translate(12.876 42.049)" fill="#fda7b4"/>
      <ellipse id="Ellipse_919" data-name="Ellipse 919" cx="3.775" cy="3.775" rx="3.775" ry="3.775" transform="translate(23.159 42.105)" fill="#fda7b4"/>
      <ellipse id="Ellipse_920" data-name="Ellipse 920" cx="3.775" cy="3.775" rx="3.775" ry="3.775" transform="translate(8.173 30.139)" fill="#fda7b4"/>
      <ellipse id="Ellipse_921" data-name="Ellipse 921" cx="3.775" cy="3.775" rx="3.775" ry="3.775" transform="translate(33.955 42.29)" fill="#fda7b4"/>
      <ellipse id="Ellipse_922" data-name="Ellipse 922" cx="3.775" cy="3.775" rx="3.775" ry="3.775" transform="translate(20.603 28.621)" fill="#fda7b4"/>
      <ellipse id="Ellipse_923" data-name="Ellipse 923" cx="3.775" cy="3.775" rx="3.775" ry="3.775" transform="translate(16.681 18.754)" fill="#fda7b4"/>
      <ellipse id="Ellipse_924" data-name="Ellipse 924" cx="3.775" cy="3.775" rx="3.775" ry="3.775" transform="translate(32.559 29.599)" fill="#fda7b4"/>
      <ellipse id="Ellipse_925" data-name="Ellipse 925" cx="3.775" cy="3.775" rx="3.775" ry="3.775" transform="translate(31.951 18.07)" fill="#fda7b4"/>
      <ellipse id="Ellipse_926" data-name="Ellipse 926" cx="3.775" cy="3.775" rx="3.775" ry="3.775" transform="translate(27.583 9.637)" fill="#fda7b4"/>
      <ellipse id="Ellipse_927" data-name="Ellipse 927" cx="3.775" cy="3.775" rx="3.775" ry="3.775" transform="translate(45.808 31.717)" fill="#fda7b4"/>
      <ellipse id="Ellipse_928" data-name="Ellipse 928" cx="3.775" cy="3.775" rx="3.775" ry="3.775" transform="translate(45.85 21.343)" fill="#fda7b4"/>
      <ellipse id="Ellipse_929" data-name="Ellipse 929" cx="3.775" cy="3.775" rx="3.775" ry="3.775" transform="translate(40.29 3.273)" fill="#fda7b4"/>
      <ellipse id="Ellipse_930" data-name="Ellipse 930" cx="3.775" cy="3.775" rx="3.775" ry="3.775" transform="translate(45.907 11.34)" fill="#fda7b4"/>
      <ellipse id="Ellipse_931" data-name="Ellipse 931" cx="3.775" cy="3.775" rx="3.775" ry="3.775" transform="translate(54.121)" fill="#fda7b4"/>
      <ellipse id="Ellipse_932" data-name="Ellipse 932" cx="3.775" cy="3.775" rx="3.775" ry="3.775" transform="translate(61.225 9.026)" fill="#fda7b4"/>
      <ellipse id="Ellipse_933" data-name="Ellipse 933" cx="3.775" cy="3.775" rx="3.775" ry="3.775" transform="translate(61.225 18.463)" fill="#fda7b4"/>
      <ellipse id="Ellipse_934" data-name="Ellipse 934" cx="3.775" cy="3.775" rx="3.775" ry="3.775" transform="translate(61.225 27.9)" fill="#fda7b4"/>
      <ellipse id="Ellipse_935" data-name="Ellipse 935" cx="3.775" cy="3.775" rx="3.775" ry="3.775" transform="translate(68.329)" fill="#fda7b4"/>
      <ellipse id="Ellipse_936" data-name="Ellipse 936" cx="3.775" cy="3.775" rx="3.775" ry="3.775" transform="translate(76.544 11.34)" fill="#fda7b4"/>
      <ellipse id="Ellipse_937" data-name="Ellipse 937" cx="3.775" cy="3.775" rx="3.775" ry="3.775" transform="translate(82.161 3.273)" fill="#fda7b4"/>
      <ellipse id="Ellipse_938" data-name="Ellipse 938" cx="3.775" cy="3.775" rx="3.775" ry="3.775" transform="translate(76.6 21.343)" fill="#fda7b4"/>
      <ellipse id="Ellipse_939" data-name="Ellipse 939" cx="3.775" cy="3.775" rx="3.775" ry="3.775" transform="translate(76.642 31.717)" fill="#fda7b4"/>
      <ellipse id="Ellipse_940" data-name="Ellipse 940" cx="3.775" cy="3.775" rx="3.775" ry="3.775" transform="translate(94.867 9.637)" fill="#fda7b4"/>
    </g>
    <g id="PSEELVPPDG" transform="translate(88.495 18.07)">
      <ellipse id="Ellipse_941" data-name="Ellipse 941" cx="3.775" cy="3.775" rx="3.775" ry="3.775" transform="translate(2.004)" fill="#ff697f"/>
      <ellipse id="Ellipse_942" data-name="Ellipse 942" cx="3.775" cy="3.775" rx="3.775" ry="3.775" transform="translate(1.397 11.529)" fill="#ff697f"/>
      <ellipse id="Ellipse_943" data-name="Ellipse 943" cx="3.775" cy="3.775" rx="3.775" ry="3.775" transform="translate(17.274 0.683)" fill="#ff697f"/>
      <ellipse id="Ellipse_944" data-name="Ellipse 944" cx="3.775" cy="3.775" rx="3.775" ry="3.775" transform="translate(13.352 10.551)" fill="#ff697f"/>
      <ellipse id="Ellipse_945" data-name="Ellipse 945" cx="3.775" cy="3.775" rx="3.775" ry="3.775" transform="translate(0 24.22)" fill="#ff697f"/>
      <ellipse id="Ellipse_946" data-name="Ellipse 946" cx="3.775" cy="3.775" rx="3.775" ry="3.775" transform="translate(25.783 12.068)" fill="#ff697f"/>
      <ellipse id="Ellipse_947" data-name="Ellipse 947" cx="3.775" cy="3.775" rx="3.775" ry="3.775" transform="translate(10.796 24.035)" fill="#ff697f"/>
      <ellipse id="Ellipse_948" data-name="Ellipse 948" cx="3.775" cy="3.775" rx="3.775" ry="3.775" transform="translate(21.079 23.978)" fill="#ff697f"/>
      <ellipse id="Ellipse_949" data-name="Ellipse 949" cx="3.775" cy="3.775" rx="3.775" ry="3.775" transform="translate(31.445 25.103)" fill="#ff697f"/>
      <ellipse id="Ellipse_950" data-name="Ellipse 950" cx="3.775" cy="3.775" rx="3.775" ry="3.775" transform="translate(5.545 39.1)" fill="#ff697f"/>
      <ellipse id="Ellipse_951" data-name="Ellipse 951" cx="3.775" cy="3.775" rx="3.775" ry="3.775" transform="translate(15.032 39.097)" fill="#ff697f"/>
      <ellipse id="Ellipse_952" data-name="Ellipse 952" cx="3.775" cy="3.775" rx="3.775" ry="3.775" transform="translate(24.499 39.093)" fill="#ff697f"/>
      <ellipse id="Ellipse_953" data-name="Ellipse 953" cx="3.775" cy="3.775" rx="3.775" ry="3.775" transform="translate(33.955 39.089)" fill="#ff697f"/>
    </g>
  </g>
</svg>
