<svg xmlns="http://www.w3.org/2000/svg" xmlns:xlink="http://www.w3.org/1999/xlink" width="130" height="65" viewBox="0 0 130 65">
  <defs>
    <clipPath id="clip-_._assets_seats-viz-reu">
      <rect width="130" height="65"/>
    </clipPath>
  </defs>
  <g id="_._assets_seats-viz-reu" data-name="./assets/seats-viz-reu" clip-path="url(#clip-_._assets_seats-viz-reu)">
    <rect width="130" height="65" fill="#fff"/>
    <text id="_45" data-name="45" transform="translate(65 64)" font-size="21" font-family="LibeSansSemiCondensed-Bold, LibeSans SemiCondensed" font-weight="700"><tspan x="-10.395" y="0">45</tspan></text>
    <g id="LeRassemblement_PLR-PS_" data-name="LeRassemblement(PLR-PS)" transform="translate(0 43.696)">
      <ellipse id="Ellipse_1333" data-name="Ellipse 1333" cx="3.767" cy="3.767" rx="3.767" ry="3.767" transform="translate(0 13.758)" fill="#fda7b4"/>
      <ellipse id="Ellipse_1334" data-name="Ellipse 1334" cx="3.767" cy="3.767" rx="3.767" ry="3.767" transform="translate(9.437 13.762)" fill="#fda7b4"/>
      <ellipse id="Ellipse_1335" data-name="Ellipse 1335" cx="3.767" cy="3.767" rx="3.767" ry="3.767" transform="translate(18.885 13.766)" fill="#fda7b4"/>
      <ellipse id="Ellipse_1336" data-name="Ellipse 1336" cx="3.767" cy="3.767" rx="3.767" ry="3.767" transform="translate(28.352 13.769)" fill="#fda7b4"/>
      <ellipse id="Ellipse_1337" data-name="Ellipse 1337" cx="3.767" cy="3.767" rx="3.767" ry="3.767" transform="translate(2.219 0.772)" fill="#fda7b4"/>
      <ellipse id="Ellipse_1338" data-name="Ellipse 1338" cx="3.767" cy="3.767" rx="3.767" ry="3.767" transform="translate(12.353)" fill="#fda7b4"/>
      <ellipse id="Ellipse_1339" data-name="Ellipse 1339" cx="3.767" cy="3.767" rx="3.767" ry="3.767" transform="translate(22.37 0.313)" fill="#fda7b4"/>
    </g>
    <g id="LaRéunionenmarche" transform="translate(7.165 31.227)">
      <ellipse id="Ellipse_1340" data-name="Ellipse 1340" cx="3.767" cy="3.767" rx="3.767" ry="3.767" transform="translate(0 1.032)" fill="#ffcc58"/>
      <ellipse id="Ellipse_1341" data-name="Ellipse 1341" cx="3.767" cy="3.767" rx="3.767" ry="3.767" transform="translate(25.5 13.321)" fill="#ffcc58"/>
      <ellipse id="Ellipse_1342" data-name="Ellipse 1342" cx="3.767" cy="3.767" rx="3.767" ry="3.767" transform="translate(11.701)" fill="#ffcc58"/>
    </g>
    <g id="Réunionavenir" transform="translate(14.609 21.39)">
      <ellipse id="Ellipse_1343" data-name="Ellipse 1343" cx="3.767" cy="3.767" rx="3.767" ry="3.767" fill="#ff994e"/>
      <ellipse id="Ellipse_1344" data-name="Ellipse 1344" cx="3.767" cy="3.767" rx="3.767" ry="3.767" transform="translate(15.408 11.019)" fill="#ff994e"/>
    </g>
    <g id="Progrès974" transform="translate(24.208 12.368)">
      <ellipse id="Ellipse_1345" data-name="Ellipse 1345" cx="3.767" cy="3.767" rx="3.767" ry="3.767" transform="translate(4.283 8.604)" fill="#acbaf2"/>
      <ellipse id="Ellipse_1346" data-name="Ellipse 1346" cx="3.767" cy="3.767" rx="3.767" ry="3.767" fill="#acbaf2"/>
    </g>
    <g id="RéunionNous" transform="translate(35.514)">
      <ellipse id="Ellipse_1347" data-name="Ellipse 1347" cx="3.767" cy="3.767" rx="3.767" ry="3.767" transform="translate(6.318 34.474)" fill="#6a85f4"/>
      <ellipse id="Ellipse_1348" data-name="Ellipse 1348" cx="3.767" cy="3.767" rx="3.767" ry="3.767" transform="translate(5.493 23.903)" fill="#6a85f4"/>
      <ellipse id="Ellipse_1349" data-name="Ellipse 1349" cx="3.767" cy="3.767" rx="3.767" ry="3.767" transform="translate(0 5.606)" fill="#6a85f4"/>
      <ellipse id="Ellipse_1350" data-name="Ellipse 1350" cx="3.767" cy="3.767" rx="3.767" ry="3.767" transform="translate(5.007 13.683)" fill="#6a85f4"/>
      <ellipse id="Ellipse_1351" data-name="Ellipse 1351" cx="3.767" cy="3.767" rx="3.767" ry="3.767" transform="translate(12.488 1.416)" fill="#6a85f4"/>
      <ellipse id="Ellipse_1352" data-name="Ellipse 1352" cx="3.767" cy="3.767" rx="3.767" ry="3.767" transform="translate(18.776 28.966)" fill="#6a85f4"/>
      <ellipse id="Ellipse_1353" data-name="Ellipse 1353" cx="3.767" cy="3.767" rx="3.767" ry="3.767" transform="translate(18.64 19.409)" fill="#6a85f4"/>
      <ellipse id="Ellipse_1354" data-name="Ellipse 1354" cx="3.767" cy="3.767" rx="3.767" ry="3.767" transform="translate(18.554 9.897)" fill="#6a85f4"/>
      <ellipse id="Ellipse_1355" data-name="Ellipse 1355" cx="3.767" cy="3.767" rx="3.767" ry="3.767" transform="translate(25.587)" fill="#6a85f4"/>
      <ellipse id="Ellipse_1356" data-name="Ellipse 1356" cx="3.767" cy="3.767" rx="3.767" ry="3.767" transform="translate(32.621 9.897)" fill="#6a85f4"/>
      <ellipse id="Ellipse_1357" data-name="Ellipse 1357" cx="3.767" cy="3.767" rx="3.767" ry="3.767" transform="translate(32.534 19.409)" fill="#6a85f4"/>
      <ellipse id="Ellipse_1358" data-name="Ellipse 1358" cx="3.767" cy="3.767" rx="3.767" ry="3.767" transform="translate(32.398 28.966)" fill="#6a85f4"/>
      <ellipse id="Ellipse_1359" data-name="Ellipse 1359" cx="3.767" cy="3.767" rx="3.767" ry="3.767" transform="translate(38.686 1.416)" fill="#6a85f4"/>
      <ellipse id="Ellipse_1360" data-name="Ellipse 1360" cx="3.767" cy="3.767" rx="3.767" ry="3.767" transform="translate(46.168 13.683)" fill="#6a85f4"/>
      <ellipse id="Ellipse_1361" data-name="Ellipse 1361" cx="3.767" cy="3.767" rx="3.767" ry="3.767" transform="translate(51.174 5.606)" fill="#6a85f4"/>
      <ellipse id="Ellipse_1362" data-name="Ellipse 1362" cx="3.767" cy="3.767" rx="3.767" ry="3.767" transform="translate(45.682 23.903)" fill="#6a85f4"/>
      <ellipse id="Ellipse_1363" data-name="Ellipse 1363" cx="3.767" cy="3.767" rx="3.767" ry="3.767" transform="translate(44.857 34.474)" fill="#6a85f4"/>
      <ellipse id="Ellipse_1364" data-name="Ellipse 1364" cx="3.767" cy="3.767" rx="3.767" ry="3.767" transform="translate(62.48 12.368)" fill="#6a85f4"/>
      <ellipse id="Ellipse_1365" data-name="Ellipse 1365" cx="3.767" cy="3.767" rx="3.767" ry="3.767" transform="translate(58.196 20.972)" fill="#6a85f4"/>
      <ellipse id="Ellipse_1366" data-name="Ellipse 1366" cx="3.767" cy="3.767" rx="3.767" ry="3.767" transform="translate(56.671 32.41)" fill="#6a85f4"/>
      <ellipse id="Ellipse_1367" data-name="Ellipse 1367" cx="3.767" cy="3.767" rx="3.767" ry="3.767" transform="translate(72.079 21.39)" fill="#6a85f4"/>
      <ellipse id="Ellipse_1368" data-name="Ellipse 1368" cx="3.767" cy="3.767" rx="3.767" ry="3.767" transform="translate(67.822 31.227)" fill="#6a85f4"/>
      <ellipse id="Ellipse_1369" data-name="Ellipse 1369" cx="3.767" cy="3.767" rx="3.767" ry="3.767" transform="translate(54.022 44.548)" fill="#6a85f4"/>
      <ellipse id="Ellipse_1370" data-name="Ellipse 1370" cx="3.767" cy="3.767" rx="3.767" ry="3.767" transform="translate(79.523 32.259)" fill="#6a85f4"/>
      <ellipse id="Ellipse_1371" data-name="Ellipse 1371" cx="3.767" cy="3.767" rx="3.767" ry="3.767" transform="translate(64.318 44.009)" fill="#6a85f4"/>
      <ellipse id="Ellipse_1372" data-name="Ellipse 1372" cx="3.767" cy="3.767" rx="3.767" ry="3.767" transform="translate(74.335 43.696)" fill="#6a85f4"/>
      <ellipse id="Ellipse_1373" data-name="Ellipse 1373" cx="3.767" cy="3.767" rx="3.767" ry="3.767" transform="translate(84.469 44.469)" fill="#6a85f4"/>
      <ellipse id="Ellipse_1374" data-name="Ellipse 1374" cx="3.767" cy="3.767" rx="3.767" ry="3.767" transform="translate(58.336 57.466)" fill="#6a85f4"/>
      <ellipse id="Ellipse_1375" data-name="Ellipse 1375" cx="3.767" cy="3.767" rx="3.767" ry="3.767" transform="translate(67.803 57.462)" fill="#6a85f4"/>
      <ellipse id="Ellipse_1376" data-name="Ellipse 1376" cx="3.767" cy="3.767" rx="3.767" ry="3.767" transform="translate(77.251 57.458)" fill="#6a85f4"/>
    </g>
    <g id="Autres" transform="translate(122.202 57.454)">
      <ellipse id="Ellipse_1377" data-name="Ellipse 1377" cx="3.767" cy="3.767" rx="3.767" ry="3.767" fill="#939393"/>
    </g>
  </g>
</svg>
