<svg xmlns="http://www.w3.org/2000/svg" xmlns:xlink="http://www.w3.org/1999/xlink" width="130" height="65" viewBox="0 0 130 65">
  <defs>
    <clipPath id="clip-_._assets_seats-viz-occ">
      <rect width="130" height="65"/>
    </clipPath>
  </defs>
  <g id="_._assets_seats-viz-occ" data-name="./assets/seats-viz-occ" clip-path="url(#clip-_._assets_seats-viz-occ)">
    <rect width="130" height="65" fill="#fff"/>
    <text id="_158" data-name="158" transform="translate(65 64)" font-size="21" font-family="LibeSansSemiCondensed-Bold, LibeSans SemiCondensed" font-weight="700"><tspan x="-13.524" y="0">158</tspan></text>
    <g id="NM" transform="translate(0 41.815)">
      <ellipse id="Ellipse_1663" data-name="Ellipse 1663" cx="2.138" cy="2.138" rx="2.138" ry="2.138" transform="translate(0 18.908)" fill="#c61818"/>
      <ellipse id="Ellipse_1664" data-name="Ellipse 1664" cx="2.138" cy="2.138" rx="2.138" ry="2.138" transform="translate(5.351 18.908)" fill="#c61818"/>
      <ellipse id="Ellipse_1665" data-name="Ellipse 1665" cx="2.138" cy="2.138" rx="2.138" ry="2.138" transform="translate(10.707 18.908)" fill="#c61818"/>
      <ellipse id="Ellipse_1666" data-name="Ellipse 1666" cx="2.138" cy="2.138" rx="2.138" ry="2.138" transform="translate(16.062 18.908)" fill="#c61818"/>
      <ellipse id="Ellipse_1667" data-name="Ellipse 1667" cx="2.138" cy="2.138" rx="2.138" ry="2.138" transform="translate(21.417 18.908)" fill="#c61818"/>
      <ellipse id="Ellipse_1668" data-name="Ellipse 1668" cx="2.138" cy="2.138" rx="2.138" ry="2.138" transform="translate(26.776 18.908)" fill="#c61818"/>
      <ellipse id="Ellipse_1669" data-name="Ellipse 1669" cx="2.138" cy="2.138" rx="2.138" ry="2.138" transform="translate(32.139 18.908)" fill="#c61818"/>
      <ellipse id="Ellipse_1670" data-name="Ellipse 1670" cx="2.138" cy="2.138" rx="2.138" ry="2.138" transform="translate(0.547 12.493)" fill="#c61818"/>
      <ellipse id="Ellipse_1671" data-name="Ellipse 1671" cx="2.138" cy="2.138" rx="2.138" ry="2.138" transform="translate(5.966 12.407)" fill="#c61818"/>
      <ellipse id="Ellipse_1672" data-name="Ellipse 1672" cx="2.138" cy="2.138" rx="2.138" ry="2.138" transform="translate(11.403 12.298)" fill="#c61818"/>
      <ellipse id="Ellipse_1673" data-name="Ellipse 1673" cx="2.138" cy="2.138" rx="2.138" ry="2.138" transform="translate(16.863 12.163)" fill="#c61818"/>
      <ellipse id="Ellipse_1674" data-name="Ellipse 1674" cx="2.138" cy="2.138" rx="2.138" ry="2.138" transform="translate(22.286 12.343)" fill="#c61818"/>
      <ellipse id="Ellipse_1675" data-name="Ellipse 1675" cx="2.138" cy="2.138" rx="2.138" ry="2.138" transform="translate(1.749 6.168)" fill="#c61818"/>
      <ellipse id="Ellipse_1676" data-name="Ellipse 1676" cx="2.138" cy="2.138" rx="2.138" ry="2.138" transform="translate(27.821 12.175)" fill="#c61818"/>
      <ellipse id="Ellipse_1677" data-name="Ellipse 1677" cx="2.138" cy="2.138" rx="2.138" ry="2.138" transform="translate(7.314 6.018)" fill="#c61818"/>
      <ellipse id="Ellipse_1678" data-name="Ellipse 1678" cx="2.138" cy="2.138" rx="2.138" ry="2.138" transform="translate(33.296 12.429)" fill="#c61818"/>
      <ellipse id="Ellipse_1679" data-name="Ellipse 1679" cx="2.138" cy="2.138" rx="2.138" ry="2.138" transform="translate(12.931 5.831)" fill="#c61818"/>
      <ellipse id="Ellipse_1680" data-name="Ellipse 1680" cx="2.138" cy="2.138" rx="2.138" ry="2.138" transform="translate(18.635 5.602)" fill="#c61818"/>
      <ellipse id="Ellipse_1681" data-name="Ellipse 1681" cx="2.138" cy="2.138" rx="2.138" ry="2.138" transform="translate(3.591)" fill="#c61818"/>
      <ellipse id="Ellipse_1682" data-name="Ellipse 1682" cx="2.138" cy="2.138" rx="2.138" ry="2.138" transform="translate(24.192 5.999)" fill="#c61818"/>
    </g>
    <g id="SRC" transform="translate(6.056 1.314)">
      <ellipse id="Ellipse_1683" data-name="Ellipse 1683" cx="2.138" cy="2.138" rx="2.138" ry="2.138" transform="translate(3.318 40.321)" fill="#ff697f"/>
      <ellipse id="Ellipse_1684" data-name="Ellipse 1684" cx="2.138" cy="2.138" rx="2.138" ry="2.138" transform="translate(9.216 40.115)" fill="#ff697f"/>
      <ellipse id="Ellipse_1685" data-name="Ellipse 1685" cx="2.138" cy="2.138" rx="2.138" ry="2.138" transform="translate(24.053 46.261)" fill="#ff697f"/>
      <ellipse id="Ellipse_1686" data-name="Ellipse 1686" cx="2.138" cy="2.138" rx="2.138" ry="2.138" transform="translate(0 34.554)" fill="#ff697f"/>
      <ellipse id="Ellipse_1687" data-name="Ellipse 1687" cx="2.138" cy="2.138" rx="2.138" ry="2.138" transform="translate(15.279 39.872)" fill="#ff697f"/>
      <ellipse id="Ellipse_1688" data-name="Ellipse 1688" cx="2.138" cy="2.138" rx="2.138" ry="2.138" transform="translate(6.067 34.401)" fill="#ff697f"/>
      <ellipse id="Ellipse_1689" data-name="Ellipse 1689" cx="2.138" cy="2.138" rx="2.138" ry="2.138" transform="translate(29.749 46.841)" fill="#ff697f"/>
      <ellipse id="Ellipse_1690" data-name="Ellipse 1690" cx="2.138" cy="2.138" rx="2.138" ry="2.138" transform="translate(21.024 40.538)" fill="#ff697f"/>
      <ellipse id="Ellipse_1691" data-name="Ellipse 1691" cx="2.138" cy="2.138" rx="2.138" ry="2.138" transform="translate(3.056 28.888)" fill="#ff697f"/>
      <ellipse id="Ellipse_1692" data-name="Ellipse 1692" cx="2.138" cy="2.138" rx="2.138" ry="2.138" transform="translate(12.324 34.243)" fill="#ff697f"/>
      <ellipse id="Ellipse_1693" data-name="Ellipse 1693" cx="2.138" cy="2.138" rx="2.138" ry="2.138" transform="translate(9.471 28.828)" fill="#ff697f"/>
      <ellipse id="Ellipse_1694" data-name="Ellipse 1694" cx="2.138" cy="2.138" rx="2.138" ry="2.138" transform="translate(27.506 40.389)" fill="#ff697f"/>
      <ellipse id="Ellipse_1695" data-name="Ellipse 1695" cx="2.138" cy="2.138" rx="2.138" ry="2.138" transform="translate(18.852 34.093)" fill="#ff697f"/>
      <ellipse id="Ellipse_1696" data-name="Ellipse 1696" cx="2.138" cy="2.138" rx="2.138" ry="2.138" transform="translate(6.677 23.567)" fill="#ff697f"/>
      <ellipse id="Ellipse_1697" data-name="Ellipse 1697" cx="2.138" cy="2.138" rx="2.138" ry="2.138" transform="translate(16.159 28.813)" fill="#ff697f"/>
      <ellipse id="Ellipse_1698" data-name="Ellipse 1698" cx="2.138" cy="2.138" rx="2.138" ry="2.138" transform="translate(24.825 35.116)" fill="#ff697f"/>
      <ellipse id="Ellipse_1699" data-name="Ellipse 1699" cx="2.138" cy="2.138" rx="2.138" ry="2.138" transform="translate(33.498 41.426)" fill="#ff697f"/>
      <ellipse id="Ellipse_1700" data-name="Ellipse 1700" cx="2.138" cy="2.138" rx="2.138" ry="2.138" transform="translate(13.485 23.679)" fill="#ff697f"/>
      <ellipse id="Ellipse_1701" data-name="Ellipse 1701" cx="2.138" cy="2.138" rx="2.138" ry="2.138" transform="translate(10.826 18.646)" fill="#ff697f"/>
      <ellipse id="Ellipse_1702" data-name="Ellipse 1702" cx="2.138" cy="2.138" rx="2.138" ry="2.138" transform="translate(23.226 28.896)" fill="#ff697f"/>
      <ellipse id="Ellipse_1703" data-name="Ellipse 1703" cx="2.138" cy="2.138" rx="2.138" ry="2.138" transform="translate(20.649 23.915)" fill="#ff697f"/>
      <ellipse id="Ellipse_1704" data-name="Ellipse 1704" cx="2.138" cy="2.138" rx="2.138" ry="2.138" transform="translate(32 35.269)" fill="#ff697f"/>
      <ellipse id="Ellipse_1705" data-name="Ellipse 1705" cx="2.138" cy="2.138" rx="2.138" ry="2.138" transform="translate(18.058 19.017)" fill="#ff697f"/>
      <ellipse id="Ellipse_1706" data-name="Ellipse 1706" cx="2.138" cy="2.138" rx="2.138" ry="2.138" transform="translate(29.442 30.367)" fill="#ff697f"/>
      <ellipse id="Ellipse_1707" data-name="Ellipse 1707" cx="2.138" cy="2.138" rx="2.138" ry="2.138" transform="translate(15.455 14.171)" fill="#ff697f"/>
      <ellipse id="Ellipse_1708" data-name="Ellipse 1708" cx="2.138" cy="2.138" rx="2.138" ry="2.138" transform="translate(28.304 24.383)" fill="#ff697f"/>
      <ellipse id="Ellipse_1709" data-name="Ellipse 1709" cx="2.138" cy="2.138" rx="2.138" ry="2.138" transform="translate(38.314 36.936)" fill="#ff697f"/>
      <ellipse id="Ellipse_1710" data-name="Ellipse 1710" cx="2.138" cy="2.138" rx="2.138" ry="2.138" transform="translate(25.727 19.627)" fill="#ff697f"/>
      <ellipse id="Ellipse_1711" data-name="Ellipse 1711" cx="2.138" cy="2.138" rx="2.138" ry="2.138" transform="translate(23.128 14.901)" fill="#ff697f"/>
      <ellipse id="Ellipse_1712" data-name="Ellipse 1712" cx="2.138" cy="2.138" rx="2.138" ry="2.138" transform="translate(20.515 10.194)" fill="#ff697f"/>
      <ellipse id="Ellipse_1713" data-name="Ellipse 1713" cx="2.138" cy="2.138" rx="2.138" ry="2.138" transform="translate(37.378 31.083)" fill="#ff697f"/>
      <ellipse id="Ellipse_1714" data-name="Ellipse 1714" cx="2.138" cy="2.138" rx="2.138" ry="2.138" transform="translate(34.756 26.413)" fill="#ff697f"/>
      <ellipse id="Ellipse_1715" data-name="Ellipse 1715" cx="2.138" cy="2.138" rx="2.138" ry="2.138" transform="translate(25.96 6.756)" fill="#ff697f"/>
      <ellipse id="Ellipse_1716" data-name="Ellipse 1716" cx="2.138" cy="2.138" rx="2.138" ry="2.138" transform="translate(28.633 11.388)" fill="#ff697f"/>
      <ellipse id="Ellipse_1717" data-name="Ellipse 1717" cx="2.138" cy="2.138" rx="2.138" ry="2.138" transform="translate(31.307 16.021)" fill="#ff697f"/>
      <ellipse id="Ellipse_1718" data-name="Ellipse 1718" cx="2.138" cy="2.138" rx="2.138" ry="2.138" transform="translate(33.985 20.657)" fill="#ff697f"/>
      <ellipse id="Ellipse_1719" data-name="Ellipse 1719" cx="2.138" cy="2.138" rx="2.138" ry="2.138" transform="translate(43.976 33.573)" fill="#ff697f"/>
      <ellipse id="Ellipse_1720" data-name="Ellipse 1720" cx="2.138" cy="2.138" rx="2.138" ry="2.138" transform="translate(31.723 3.891)" fill="#ff697f"/>
      <ellipse id="Ellipse_1721" data-name="Ellipse 1721" cx="2.138" cy="2.138" rx="2.138" ry="2.138" transform="translate(40.632 23.357)" fill="#ff697f"/>
      <ellipse id="Ellipse_1722" data-name="Ellipse 1722" cx="2.138" cy="2.138" rx="2.138" ry="2.138" transform="translate(34.502 8.523)" fill="#ff697f"/>
      <ellipse id="Ellipse_1723" data-name="Ellipse 1723" cx="2.138" cy="2.138" rx="2.138" ry="2.138" transform="translate(37.303 13.156)" fill="#ff697f"/>
      <ellipse id="Ellipse_1724" data-name="Ellipse 1724" cx="2.138" cy="2.138" rx="2.138" ry="2.138" transform="translate(43.444 27.986)" fill="#ff697f"/>
      <ellipse id="Ellipse_1725" data-name="Ellipse 1725" cx="2.138" cy="2.138" rx="2.138" ry="2.138" transform="translate(40.141 17.788)" fill="#ff697f"/>
      <ellipse id="Ellipse_1726" data-name="Ellipse 1726" cx="2.138" cy="2.138" rx="2.138" ry="2.138" transform="translate(37.752 1.633)" fill="#ff697f"/>
      <ellipse id="Ellipse_1727" data-name="Ellipse 1727" cx="2.138" cy="2.138" rx="2.138" ry="2.138" transform="translate(40.655 6.34)" fill="#ff697f"/>
      <ellipse id="Ellipse_1728" data-name="Ellipse 1728" cx="2.138" cy="2.138" rx="2.138" ry="2.138" transform="translate(43.613 11.074)" fill="#ff697f"/>
      <ellipse id="Ellipse_1729" data-name="Ellipse 1729" cx="2.138" cy="2.138" rx="2.138" ry="2.138" transform="translate(46.92 21.275)" fill="#ff697f"/>
      <ellipse id="Ellipse_1730" data-name="Ellipse 1730" cx="2.138" cy="2.138" rx="2.138" ry="2.138" transform="translate(46.65 15.845)" fill="#ff697f"/>
      <ellipse id="Ellipse_1731" data-name="Ellipse 1731" cx="2.138" cy="2.138" rx="2.138" ry="2.138" transform="translate(50.223 31.491)" fill="#ff697f"/>
      <ellipse id="Ellipse_1732" data-name="Ellipse 1732" cx="2.138" cy="2.138" rx="2.138" ry="2.138" transform="translate(43.98)" fill="#ff697f"/>
      <ellipse id="Ellipse_1733" data-name="Ellipse 1733" cx="2.138" cy="2.138" rx="2.138" ry="2.138" transform="translate(49.987 26.079)" fill="#ff697f"/>
    </g>
    <g id="LRG" transform="translate(53.073)">
      <ellipse id="Ellipse_1734" data-name="Ellipse 1734" cx="2.138" cy="2.138" rx="2.138" ry="2.138" transform="translate(0 6.183)" fill="#fda7b4"/>
      <ellipse id="Ellipse_1735" data-name="Ellipse 1735" cx="2.138" cy="2.138" rx="2.138" ry="2.138" transform="translate(3.119 11.122)" fill="#fda7b4"/>
      <ellipse id="Ellipse_1736" data-name="Ellipse 1736" cx="2.138" cy="2.138" rx="2.138" ry="2.138" transform="translate(3.322 0.33)" fill="#fda7b4"/>
      <ellipse id="Ellipse_1737" data-name="Ellipse 1737" cx="2.138" cy="2.138" rx="2.138" ry="2.138" transform="translate(6.441 21.533)" fill="#fda7b4"/>
      <ellipse id="Ellipse_1738" data-name="Ellipse 1738" cx="2.138" cy="2.138" rx="2.138" ry="2.138" transform="translate(6.355 16.174)" fill="#fda7b4"/>
      <ellipse id="Ellipse_1739" data-name="Ellipse 1739" cx="2.138" cy="2.138" rx="2.138" ry="2.138" transform="translate(6.486 5.445)" fill="#fda7b4"/>
      <ellipse id="Ellipse_1740" data-name="Ellipse 1740" cx="2.138" cy="2.138" rx="2.138" ry="2.138" transform="translate(9.752)" fill="#fda7b4"/>
      <ellipse id="Ellipse_1741" data-name="Ellipse 1741" cx="2.138" cy="2.138" rx="2.138" ry="2.138" transform="translate(9.752 10.699)" fill="#fda7b4"/>
      <ellipse id="Ellipse_1742" data-name="Ellipse 1742" cx="2.138" cy="2.138" rx="2.138" ry="2.138" transform="translate(9.752 26.75)" fill="#fda7b4"/>
      <ellipse id="Ellipse_1743" data-name="Ellipse 1743" cx="2.138" cy="2.138" rx="2.138" ry="2.138" transform="translate(9.752 32.101)" fill="#fda7b4"/>
      <ellipse id="Ellipse_1744" data-name="Ellipse 1744" cx="2.138" cy="2.138" rx="2.138" ry="2.138" transform="translate(13.017 5.445)" fill="#fda7b4"/>
      <ellipse id="Ellipse_1745" data-name="Ellipse 1745" cx="2.138" cy="2.138" rx="2.138" ry="2.138" transform="translate(13.148 16.174)" fill="#fda7b4"/>
      <ellipse id="Ellipse_1746" data-name="Ellipse 1746" cx="2.138" cy="2.138" rx="2.138" ry="2.138" transform="translate(13.062 21.533)" fill="#fda7b4"/>
      <ellipse id="Ellipse_1747" data-name="Ellipse 1747" cx="2.138" cy="2.138" rx="2.138" ry="2.138" transform="translate(16.182 0.33)" fill="#fda7b4"/>
      <ellipse id="Ellipse_1748" data-name="Ellipse 1748" cx="2.138" cy="2.138" rx="2.138" ry="2.138" transform="translate(16.384 11.122)" fill="#fda7b4"/>
      <ellipse id="Ellipse_1749" data-name="Ellipse 1749" cx="2.138" cy="2.138" rx="2.138" ry="2.138" transform="translate(19.503 6.183)" fill="#fda7b4"/>
    </g>
    <g id="UEDC" transform="translate(69.37 1.314)">
      <ellipse id="Ellipse_1750" data-name="Ellipse 1750" cx="2.138" cy="2.138" rx="2.138" ry="2.138" transform="translate(0.236 26.079)" fill="#6a85f4"/>
      <ellipse id="Ellipse_1751" data-name="Ellipse 1751" cx="2.138" cy="2.138" rx="2.138" ry="2.138" transform="translate(6.243)" fill="#6a85f4"/>
      <ellipse id="Ellipse_1752" data-name="Ellipse 1752" cx="2.138" cy="2.138" rx="2.138" ry="2.138" transform="translate(0 31.491)" fill="#6a85f4"/>
      <ellipse id="Ellipse_1753" data-name="Ellipse 1753" cx="2.138" cy="2.138" rx="2.138" ry="2.138" transform="translate(3.573 15.845)" fill="#6a85f4"/>
      <ellipse id="Ellipse_1754" data-name="Ellipse 1754" cx="2.138" cy="2.138" rx="2.138" ry="2.138" transform="translate(3.303 21.275)" fill="#6a85f4"/>
      <ellipse id="Ellipse_1755" data-name="Ellipse 1755" cx="2.138" cy="2.138" rx="2.138" ry="2.138" transform="translate(6.61 11.074)" fill="#6a85f4"/>
      <ellipse id="Ellipse_1756" data-name="Ellipse 1756" cx="2.138" cy="2.138" rx="2.138" ry="2.138" transform="translate(9.568 6.34)" fill="#6a85f4"/>
      <ellipse id="Ellipse_1757" data-name="Ellipse 1757" cx="2.138" cy="2.138" rx="2.138" ry="2.138" transform="translate(12.47 1.633)" fill="#6a85f4"/>
      <ellipse id="Ellipse_1758" data-name="Ellipse 1758" cx="2.138" cy="2.138" rx="2.138" ry="2.138" transform="translate(10.081 17.788)" fill="#6a85f4"/>
      <ellipse id="Ellipse_1759" data-name="Ellipse 1759" cx="2.138" cy="2.138" rx="2.138" ry="2.138" transform="translate(6.778 27.986)" fill="#6a85f4"/>
      <ellipse id="Ellipse_1760" data-name="Ellipse 1760" cx="2.138" cy="2.138" rx="2.138" ry="2.138" transform="translate(12.92 13.156)" fill="#6a85f4"/>
      <ellipse id="Ellipse_1761" data-name="Ellipse 1761" cx="2.138" cy="2.138" rx="2.138" ry="2.138" transform="translate(15.721 8.523)" fill="#6a85f4"/>
      <ellipse id="Ellipse_1762" data-name="Ellipse 1762" cx="2.138" cy="2.138" rx="2.138" ry="2.138" transform="translate(9.591 23.357)" fill="#6a85f4"/>
      <ellipse id="Ellipse_1763" data-name="Ellipse 1763" cx="2.138" cy="2.138" rx="2.138" ry="2.138" transform="translate(18.5 3.891)" fill="#6a85f4"/>
      <ellipse id="Ellipse_1764" data-name="Ellipse 1764" cx="2.138" cy="2.138" rx="2.138" ry="2.138" transform="translate(6.246 33.573)" fill="#6a85f4"/>
      <ellipse id="Ellipse_1765" data-name="Ellipse 1765" cx="2.138" cy="2.138" rx="2.138" ry="2.138" transform="translate(16.238 20.657)" fill="#6a85f4"/>
      <ellipse id="Ellipse_1766" data-name="Ellipse 1766" cx="2.138" cy="2.138" rx="2.138" ry="2.138" transform="translate(18.915 16.021)" fill="#6a85f4"/>
      <ellipse id="Ellipse_1767" data-name="Ellipse 1767" cx="2.138" cy="2.138" rx="2.138" ry="2.138" transform="translate(21.589 11.388)" fill="#6a85f4"/>
      <ellipse id="Ellipse_1768" data-name="Ellipse 1768" cx="2.138" cy="2.138" rx="2.138" ry="2.138" transform="translate(24.263 6.756)" fill="#6a85f4"/>
      <ellipse id="Ellipse_1769" data-name="Ellipse 1769" cx="2.138" cy="2.138" rx="2.138" ry="2.138" transform="translate(15.466 26.413)" fill="#6a85f4"/>
      <ellipse id="Ellipse_1770" data-name="Ellipse 1770" cx="2.138" cy="2.138" rx="2.138" ry="2.138" transform="translate(12.845 31.083)" fill="#6a85f4"/>
      <ellipse id="Ellipse_1771" data-name="Ellipse 1771" cx="2.138" cy="2.138" rx="2.138" ry="2.138" transform="translate(29.708 10.194)" fill="#6a85f4"/>
      <ellipse id="Ellipse_1772" data-name="Ellipse 1772" cx="2.138" cy="2.138" rx="2.138" ry="2.138" transform="translate(27.094 14.901)" fill="#6a85f4"/>
      <ellipse id="Ellipse_1773" data-name="Ellipse 1773" cx="2.138" cy="2.138" rx="2.138" ry="2.138" transform="translate(24.495 19.627)" fill="#6a85f4"/>
      <ellipse id="Ellipse_1774" data-name="Ellipse 1774" cx="2.138" cy="2.138" rx="2.138" ry="2.138" transform="translate(11.909 36.936)" fill="#6a85f4"/>
      <ellipse id="Ellipse_1775" data-name="Ellipse 1775" cx="2.138" cy="2.138" rx="2.138" ry="2.138" transform="translate(21.919 24.383)" fill="#6a85f4"/>
    </g>
    <g id="RN" transform="translate(86.095 15.485)">
      <ellipse id="Ellipse_1776" data-name="Ellipse 1776" cx="2.138" cy="2.138" rx="2.138" ry="2.138" transform="translate(18.043)" fill="#26286f"/>
      <ellipse id="Ellipse_1777" data-name="Ellipse 1777" cx="2.138" cy="2.138" rx="2.138" ry="2.138" transform="translate(4.056 16.197)" fill="#26286f"/>
      <ellipse id="Ellipse_1778" data-name="Ellipse 1778" cx="2.138" cy="2.138" rx="2.138" ry="2.138" transform="translate(15.44 4.846)" fill="#26286f"/>
      <ellipse id="Ellipse_1779" data-name="Ellipse 1779" cx="2.138" cy="2.138" rx="2.138" ry="2.138" transform="translate(1.498 21.099)" fill="#26286f"/>
      <ellipse id="Ellipse_1780" data-name="Ellipse 1780" cx="2.138" cy="2.138" rx="2.138" ry="2.138" transform="translate(12.849 9.744)" fill="#26286f"/>
      <ellipse id="Ellipse_1781" data-name="Ellipse 1781" cx="2.138" cy="2.138" rx="2.138" ry="2.138" transform="translate(10.272 14.725)" fill="#26286f"/>
      <ellipse id="Ellipse_1782" data-name="Ellipse 1782" cx="2.138" cy="2.138" rx="2.138" ry="2.138" transform="translate(22.672 4.475)" fill="#26286f"/>
      <ellipse id="Ellipse_1783" data-name="Ellipse 1783" cx="2.138" cy="2.138" rx="2.138" ry="2.138" transform="translate(20.013 9.508)" fill="#26286f"/>
      <ellipse id="Ellipse_1784" data-name="Ellipse 1784" cx="2.138" cy="2.138" rx="2.138" ry="2.138" transform="translate(0 27.255)" fill="#26286f"/>
      <ellipse id="Ellipse_1785" data-name="Ellipse 1785" cx="2.138" cy="2.138" rx="2.138" ry="2.138" transform="translate(8.673 20.945)" fill="#26286f"/>
      <ellipse id="Ellipse_1786" data-name="Ellipse 1786" cx="2.138" cy="2.138" rx="2.138" ry="2.138" transform="translate(17.339 14.643)" fill="#26286f"/>
      <ellipse id="Ellipse_1787" data-name="Ellipse 1787" cx="2.138" cy="2.138" rx="2.138" ry="2.138" transform="translate(26.821 9.396)" fill="#26286f"/>
      <ellipse id="Ellipse_1788" data-name="Ellipse 1788" cx="2.138" cy="2.138" rx="2.138" ry="2.138" transform="translate(14.646 19.923)" fill="#26286f"/>
      <ellipse id="Ellipse_1789" data-name="Ellipse 1789" cx="2.138" cy="2.138" rx="2.138" ry="2.138" transform="translate(5.992 26.218)" fill="#26286f"/>
      <ellipse id="Ellipse_1790" data-name="Ellipse 1790" cx="2.138" cy="2.138" rx="2.138" ry="2.138" transform="translate(24.027 14.657)" fill="#26286f"/>
      <ellipse id="Ellipse_1791" data-name="Ellipse 1791" cx="2.138" cy="2.138" rx="2.138" ry="2.138" transform="translate(21.174 20.073)" fill="#26286f"/>
      <ellipse id="Ellipse_1792" data-name="Ellipse 1792" cx="2.138" cy="2.138" rx="2.138" ry="2.138" transform="translate(30.442 14.717)" fill="#26286f"/>
      <ellipse id="Ellipse_1793" data-name="Ellipse 1793" cx="2.138" cy="2.138" rx="2.138" ry="2.138" transform="translate(12.474 26.368)" fill="#26286f"/>
      <ellipse id="Ellipse_1794" data-name="Ellipse 1794" cx="2.138" cy="2.138" rx="2.138" ry="2.138" transform="translate(3.749 32.67)" fill="#26286f"/>
      <ellipse id="Ellipse_1795" data-name="Ellipse 1795" cx="2.138" cy="2.138" rx="2.138" ry="2.138" transform="translate(27.431 20.23)" fill="#26286f"/>
      <ellipse id="Ellipse_1796" data-name="Ellipse 1796" cx="2.138" cy="2.138" rx="2.138" ry="2.138" transform="translate(18.219 25.701)" fill="#26286f"/>
      <ellipse id="Ellipse_1797" data-name="Ellipse 1797" cx="2.138" cy="2.138" rx="2.138" ry="2.138" transform="translate(33.498 20.383)" fill="#26286f"/>
      <ellipse id="Ellipse_1798" data-name="Ellipse 1798" cx="2.138" cy="2.138" rx="2.138" ry="2.138" transform="translate(9.445 32.09)" fill="#26286f"/>
      <ellipse id="Ellipse_1799" data-name="Ellipse 1799" cx="2.138" cy="2.138" rx="2.138" ry="2.138" transform="translate(24.282 25.945)" fill="#26286f"/>
      <ellipse id="Ellipse_1800" data-name="Ellipse 1800" cx="2.138" cy="2.138" rx="2.138" ry="2.138" transform="translate(30.18 26.151)" fill="#26286f"/>
      <ellipse id="Ellipse_1801" data-name="Ellipse 1801" cx="2.138" cy="2.138" rx="2.138" ry="2.138" transform="translate(15.362 32.33)" fill="#26286f"/>
      <ellipse id="Ellipse_1802" data-name="Ellipse 1802" cx="2.138" cy="2.138" rx="2.138" ry="2.138" transform="translate(35.962 26.33)" fill="#26286f"/>
      <ellipse id="Ellipse_1803" data-name="Ellipse 1803" cx="2.138" cy="2.138" rx="2.138" ry="2.138" transform="translate(20.919 31.933)" fill="#26286f"/>
      <ellipse id="Ellipse_1804" data-name="Ellipse 1804" cx="2.138" cy="2.138" rx="2.138" ry="2.138" transform="translate(26.622 32.161)" fill="#26286f"/>
      <ellipse id="Ellipse_1805" data-name="Ellipse 1805" cx="2.138" cy="2.138" rx="2.138" ry="2.138" transform="translate(6.258 38.76)" fill="#26286f"/>
      <ellipse id="Ellipse_1806" data-name="Ellipse 1806" cx="2.138" cy="2.138" rx="2.138" ry="2.138" transform="translate(32.24 32.348)" fill="#26286f"/>
      <ellipse id="Ellipse_1807" data-name="Ellipse 1807" cx="2.138" cy="2.138" rx="2.138" ry="2.138" transform="translate(11.733 38.505)" fill="#26286f"/>
      <ellipse id="Ellipse_1808" data-name="Ellipse 1808" cx="2.138" cy="2.138" rx="2.138" ry="2.138" transform="translate(37.805 32.498)" fill="#26286f"/>
      <ellipse id="Ellipse_1809" data-name="Ellipse 1809" cx="2.138" cy="2.138" rx="2.138" ry="2.138" transform="translate(17.268 38.673)" fill="#26286f"/>
      <ellipse id="Ellipse_1810" data-name="Ellipse 1810" cx="2.138" cy="2.138" rx="2.138" ry="2.138" transform="translate(22.69 38.494)" fill="#26286f"/>
      <ellipse id="Ellipse_1811" data-name="Ellipse 1811" cx="2.138" cy="2.138" rx="2.138" ry="2.138" transform="translate(28.15 38.629)" fill="#26286f"/>
    </g>
    <g id="NI" transform="translate(93.51 54.222)">
      <ellipse id="Ellipse_1812" data-name="Ellipse 1812" cx="2.138" cy="2.138" rx="2.138" ry="2.138" transform="translate(26.173)" fill="#dedede"/>
      <ellipse id="Ellipse_1813" data-name="Ellipse 1813" cx="2.138" cy="2.138" rx="2.138" ry="2.138" transform="translate(31.592 0.086)" fill="#dedede"/>
      <ellipse id="Ellipse_1814" data-name="Ellipse 1814" cx="2.138" cy="2.138" rx="2.138" ry="2.138" transform="translate(0 6.501)" fill="#dedede"/>
      <ellipse id="Ellipse_1815" data-name="Ellipse 1815" cx="2.138" cy="2.138" rx="2.138" ry="2.138" transform="translate(5.363 6.501)" fill="#dedede"/>
      <ellipse id="Ellipse_1816" data-name="Ellipse 1816" cx="2.138" cy="2.138" rx="2.138" ry="2.138" transform="translate(10.722 6.501)" fill="#dedede"/>
      <ellipse id="Ellipse_1817" data-name="Ellipse 1817" cx="2.138" cy="2.138" rx="2.138" ry="2.138" transform="translate(16.077 6.501)" fill="#dedede"/>
      <ellipse id="Ellipse_1818" data-name="Ellipse 1818" cx="2.138" cy="2.138" rx="2.138" ry="2.138" transform="translate(21.432 6.501)" fill="#dedede"/>
      <ellipse id="Ellipse_1819" data-name="Ellipse 1819" cx="2.138" cy="2.138" rx="2.138" ry="2.138" transform="translate(26.787 6.501)" fill="#dedede"/>
      <ellipse id="Ellipse_1820" data-name="Ellipse 1820" cx="2.138" cy="2.138" rx="2.138" ry="2.138" transform="translate(32.139 6.501)" fill="#dedede"/>
    </g>
  </g>
</svg>
