<svg xmlns="http://www.w3.org/2000/svg" xmlns:xlink="http://www.w3.org/1999/xlink" width="130" height="65" viewBox="0 0 130 65">
  <defs>
    <clipPath id="clip-_._assets_seats-viz-idf">
      <rect width="130" height="65"/>
    </clipPath>
  </defs>
  <g id="_._assets_seats-viz-idf" data-name="./assets/seats-viz-idf" clip-path="url(#clip-_._assets_seats-viz-idf)">
    <rect width="130" height="65" fill="#fff"/>
    <text id="_209" data-name="209" transform="translate(65 64)" font-size="21" font-family="LibeSansSemiCondensed-Bold, LibeSans SemiCondensed" font-weight="700"><tspan x="-15.76" y="0">209</tspan></text>
    <g id="FG-PCFRS" transform="translate(0 55.707)">
      <ellipse id="Ellipse_1124" data-name="Ellipse 1124" cx="1.872" cy="1.872" rx="1.872" ry="1.872" transform="translate(0 5.545)" fill="#c61818"/>
      <ellipse id="Ellipse_1125" data-name="Ellipse 1125" cx="1.872" cy="1.872" rx="1.872" ry="1.872" transform="translate(4.684 5.545)" fill="#c61818"/>
      <ellipse id="Ellipse_1126" data-name="Ellipse 1126" cx="1.872" cy="1.872" rx="1.872" ry="1.872" transform="translate(9.368 5.545)" fill="#c61818"/>
      <ellipse id="Ellipse_1127" data-name="Ellipse 1127" cx="1.872" cy="1.872" rx="1.872" ry="1.872" transform="translate(14.052 5.545)" fill="#c61818"/>
      <ellipse id="Ellipse_1128" data-name="Ellipse 1128" cx="1.872" cy="1.872" rx="1.872" ry="1.872" transform="translate(18.736 5.545)" fill="#c61818"/>
      <ellipse id="Ellipse_1129" data-name="Ellipse 1129" cx="1.872" cy="1.872" rx="1.872" ry="1.872" transform="translate(23.42 5.545)" fill="#c61818"/>
      <ellipse id="Ellipse_1130" data-name="Ellipse 1130" cx="1.872" cy="1.872" rx="1.872" ry="1.872" transform="translate(28.104 5.545)" fill="#c61818"/>
      <ellipse id="Ellipse_1131" data-name="Ellipse 1131" cx="1.872" cy="1.872" rx="1.872" ry="1.872" transform="translate(32.792 5.549)" fill="#c61818"/>
      <ellipse id="Ellipse_1132" data-name="Ellipse 1132" cx="1.872" cy="1.872" rx="1.872" ry="1.872" transform="translate(0.412)" fill="#c61818"/>
    </g>
    <g id="AES" transform="translate(1.307 39.577)">
      <ellipse id="Ellipse_1133" data-name="Ellipse 1133" cx="1.872" cy="1.872" rx="1.872" ry="1.872" transform="translate(3.827 16.07)" fill="#19cc73"/>
      <ellipse id="Ellipse_1134" data-name="Ellipse 1134" cx="1.872" cy="1.872" rx="1.872" ry="1.872" transform="translate(8.559 15.999)" fill="#19cc73"/>
      <ellipse id="Ellipse_1135" data-name="Ellipse 1135" cx="1.872" cy="1.872" rx="1.872" ry="1.872" transform="translate(13.303 15.913)" fill="#19cc73"/>
      <ellipse id="Ellipse_1136" data-name="Ellipse 1136" cx="1.872" cy="1.872" rx="1.872" ry="1.872" transform="translate(18.025 16.048)" fill="#19cc73"/>
      <ellipse id="Ellipse_1137" data-name="Ellipse 1137" cx="1.872" cy="1.872" rx="1.872" ry="1.872" transform="translate(22.802 15.95)" fill="#19cc73"/>
      <ellipse id="Ellipse_1138" data-name="Ellipse 1138" cx="1.872" cy="1.872" rx="1.872" ry="1.872" transform="translate(0 10.637)" fill="#19cc73"/>
      <ellipse id="Ellipse_1139" data-name="Ellipse 1139" cx="1.872" cy="1.872" rx="1.872" ry="1.872" transform="translate(27.61 15.823)" fill="#19cc73"/>
      <ellipse id="Ellipse_1140" data-name="Ellipse 1140" cx="1.872" cy="1.872" rx="1.872" ry="1.872" transform="translate(4.815 10.533)" fill="#19cc73"/>
      <ellipse id="Ellipse_1141" data-name="Ellipse 1141" cx="1.872" cy="1.872" rx="1.872" ry="1.872" transform="translate(9.656 10.405)" fill="#19cc73"/>
      <ellipse id="Ellipse_1142" data-name="Ellipse 1142" cx="1.872" cy="1.872" rx="1.872" ry="1.872" transform="translate(32.376 16.018)" fill="#19cc73"/>
      <ellipse id="Ellipse_1143" data-name="Ellipse 1143" cx="1.872" cy="1.872" rx="1.872" ry="1.872" transform="translate(14.539 10.255)" fill="#19cc73"/>
      <ellipse id="Ellipse_1144" data-name="Ellipse 1144" cx="1.872" cy="1.872" rx="1.872" ry="1.872" transform="translate(1.374 5.249)" fill="#19cc73"/>
      <ellipse id="Ellipse_1145" data-name="Ellipse 1145" cx="1.872" cy="1.872" rx="1.872" ry="1.872" transform="translate(19.332 10.54)" fill="#19cc73"/>
      <ellipse id="Ellipse_1146" data-name="Ellipse 1146" cx="1.872" cy="1.872" rx="1.872" ry="1.872" transform="translate(6.328 5.115)" fill="#19cc73"/>
      <ellipse id="Ellipse_1147" data-name="Ellipse 1147" cx="1.872" cy="1.872" rx="1.872" ry="1.872" transform="translate(24.311 10.383)" fill="#19cc73"/>
      <ellipse id="Ellipse_1148" data-name="Ellipse 1148" cx="1.872" cy="1.872" rx="1.872" ry="1.872" transform="translate(11.338 4.961)" fill="#19cc73"/>
      <ellipse id="Ellipse_1149" data-name="Ellipse 1149" cx="1.872" cy="1.872" rx="1.872" ry="1.872" transform="translate(3.22)" fill="#19cc73"/>
      <ellipse id="Ellipse_1150" data-name="Ellipse 1150" cx="1.872" cy="1.872" rx="1.872" ry="1.872" transform="translate(29.392 10.184)" fill="#19cc73"/>
      <ellipse id="Ellipse_1151" data-name="Ellipse 1151" cx="1.872" cy="1.872" rx="1.872" ry="1.872" transform="translate(16.433 4.781)" fill="#19cc73"/>
    </g>
    <g id="EIDF" transform="translate(6.822 20.792)">
      <ellipse id="Ellipse_1152" data-name="Ellipse 1152" cx="1.872" cy="1.872" rx="1.872" ry="1.872" transform="translate(2.838 18.654)" fill="#ff697f"/>
      <ellipse id="Ellipse_1153" data-name="Ellipse 1153" cx="1.872" cy="1.872" rx="1.872" ry="1.872" transform="translate(15.816 24.031)" fill="#ff697f"/>
      <ellipse id="Ellipse_1154" data-name="Ellipse 1154" cx="1.872" cy="1.872" rx="1.872" ry="1.872" transform="translate(28.797 29.407)" fill="#ff697f"/>
      <ellipse id="Ellipse_1155" data-name="Ellipse 1155" cx="1.872" cy="1.872" rx="1.872" ry="1.872" transform="translate(8.073 18.512)" fill="#ff697f"/>
      <ellipse id="Ellipse_1156" data-name="Ellipse 1156" cx="1.872" cy="1.872" rx="1.872" ry="1.872" transform="translate(0 13.719)" fill="#ff697f"/>
      <ellipse id="Ellipse_1157" data-name="Ellipse 1157" cx="1.872" cy="1.872" rx="1.872" ry="1.872" transform="translate(21.091 23.877)" fill="#ff697f"/>
      <ellipse id="Ellipse_1158" data-name="Ellipse 1158" cx="1.872" cy="1.872" rx="1.872" ry="1.872" transform="translate(13.438 18.354)" fill="#ff697f"/>
      <ellipse id="Ellipse_1159" data-name="Ellipse 1159" cx="1.872" cy="1.872" rx="1.872" ry="1.872" transform="translate(5.358 13.625)" fill="#ff697f"/>
      <ellipse id="Ellipse_1160" data-name="Ellipse 1160" cx="1.872" cy="1.872" rx="1.872" ry="1.872" transform="translate(18.47 19.028)" fill="#ff697f"/>
      <ellipse id="Ellipse_1161" data-name="Ellipse 1161" cx="1.872" cy="1.872" rx="1.872" ry="1.872" transform="translate(2.737 8.874)" fill="#ff697f"/>
      <ellipse id="Ellipse_1162" data-name="Ellipse 1162" cx="1.872" cy="1.872" rx="1.872" ry="1.872" transform="translate(26.58 23.712)" fill="#ff697f"/>
      <ellipse id="Ellipse_1163" data-name="Ellipse 1163" cx="1.872" cy="1.872" rx="1.872" ry="1.872" transform="translate(10.862 13.539)" fill="#ff697f"/>
      <ellipse id="Ellipse_1164" data-name="Ellipse 1164" cx="1.872" cy="1.872" rx="1.872" ry="1.872" transform="translate(8.35 8.863)" fill="#ff697f"/>
      <ellipse id="Ellipse_1165" data-name="Ellipse 1165" cx="1.872" cy="1.872" rx="1.872" ry="1.872" transform="translate(31.71 24.472)" fill="#ff697f"/>
      <ellipse id="Ellipse_1166" data-name="Ellipse 1166" cx="1.872" cy="1.872" rx="1.872" ry="1.872" transform="translate(24.132 18.976)" fill="#ff697f"/>
      <ellipse id="Ellipse_1167" data-name="Ellipse 1167" cx="1.872" cy="1.872" rx="1.872" ry="1.872" transform="translate(16.557 13.476)" fill="#ff697f"/>
      <ellipse id="Ellipse_1168" data-name="Ellipse 1168" cx="1.872" cy="1.872" rx="1.872" ry="1.872" transform="translate(5.886 4.291)" fill="#ff697f"/>
      <ellipse id="Ellipse_1169" data-name="Ellipse 1169" cx="1.872" cy="1.872" rx="1.872" ry="1.872" transform="translate(14.161 8.893)" fill="#ff697f"/>
      <ellipse id="Ellipse_1170" data-name="Ellipse 1170" cx="1.872" cy="1.872" rx="1.872" ry="1.872" transform="translate(21.735 14.408)" fill="#ff697f"/>
      <ellipse id="Ellipse_1171" data-name="Ellipse 1171" cx="1.872" cy="1.872" rx="1.872" ry="1.872" transform="translate(11.787 4.411)" fill="#ff697f"/>
      <ellipse id="Ellipse_1172" data-name="Ellipse 1172" cx="1.872" cy="1.872" rx="1.872" ry="1.872" transform="translate(30.126 18.983)" fill="#ff697f"/>
      <ellipse id="Ellipse_1173" data-name="Ellipse 1173" cx="1.872" cy="1.872" rx="1.872" ry="1.872" transform="translate(9.428)" fill="#ff697f"/>
      <ellipse id="Ellipse_1174" data-name="Ellipse 1174" cx="1.872" cy="1.872" rx="1.872" ry="1.872" transform="translate(20.226 8.997)" fill="#ff697f"/>
      <ellipse id="Ellipse_1175" data-name="Ellipse 1175" cx="1.872" cy="1.872" rx="1.872" ry="1.872" transform="translate(27.85 14.561)" fill="#ff697f"/>
      <ellipse id="Ellipse_1176" data-name="Ellipse 1176" cx="1.872" cy="1.872" rx="1.872" ry="1.872" transform="translate(17.931 4.62)" fill="#ff697f"/>
    </g>
    <g id="EPIDF" transform="translate(20.155 13.228)">
      <ellipse id="Ellipse_1177" data-name="Ellipse 1177" cx="1.872" cy="1.872" rx="1.872" ry="1.872" transform="translate(2.303 7.87)" fill="#19cc73"/>
      <ellipse id="Ellipse_1178" data-name="Ellipse 1178" cx="1.872" cy="1.872" rx="1.872" ry="1.872" transform="translate(12.232 17.8)" fill="#19cc73"/>
      <ellipse id="Ellipse_1179" data-name="Ellipse 1179" cx="1.872" cy="1.872" rx="1.872" ry="1.872" transform="translate(22.162 27.734)" fill="#19cc73"/>
      <ellipse id="Ellipse_1180" data-name="Ellipse 1180" cx="1.872" cy="1.872" rx="1.872" ry="1.872" transform="translate(0 3.602)" fill="#19cc73"/>
      <ellipse id="Ellipse_1181" data-name="Ellipse 1181" cx="1.872" cy="1.872" rx="1.872" ry="1.872" transform="translate(11.068 12.543)" fill="#19cc73"/>
      <ellipse id="Ellipse_1182" data-name="Ellipse 1182" cx="1.872" cy="1.872" rx="1.872" ry="1.872" transform="translate(8.803 8.335)" fill="#19cc73"/>
      <ellipse id="Ellipse_1183" data-name="Ellipse 1183" cx="1.872" cy="1.872" rx="1.872" ry="1.872" transform="translate(21.084 22.48)" fill="#19cc73"/>
      <ellipse id="Ellipse_1184" data-name="Ellipse 1184" cx="1.872" cy="1.872" rx="1.872" ry="1.872" transform="translate(6.526 4.156)" fill="#19cc73"/>
      <ellipse id="Ellipse_1185" data-name="Ellipse 1185" cx="1.872" cy="1.872" rx="1.872" ry="1.872" transform="translate(4.238)" fill="#19cc73"/>
      <ellipse id="Ellipse_1186" data-name="Ellipse 1186" cx="1.872" cy="1.872" rx="1.872" ry="1.872" transform="translate(18.83 18.298)" fill="#19cc73"/>
      <ellipse id="Ellipse_1187" data-name="Ellipse 1187" cx="1.872" cy="1.872" rx="1.872" ry="1.872" transform="translate(16.557 14.153)" fill="#19cc73"/>
    </g>
    <g id="CD" transform="translate(28.932 4.838)">
      <ellipse id="Ellipse_1188" data-name="Ellipse 1188" cx="1.872" cy="1.872" rx="1.872" ry="1.872" transform="translate(6.904 17.437)" fill="#ff994e"/>
      <ellipse id="Ellipse_1189" data-name="Ellipse 1189" cx="1.872" cy="1.872" rx="1.872" ry="1.872" transform="translate(4.613 13.344)" fill="#ff994e"/>
      <ellipse id="Ellipse_1190" data-name="Ellipse 1190" cx="1.872" cy="1.872" rx="1.872" ry="1.872" transform="translate(2.31 9.256)" fill="#ff994e"/>
      <ellipse id="Ellipse_1191" data-name="Ellipse 1191" cx="1.872" cy="1.872" rx="1.872" ry="1.872" transform="translate(0 5.175)" fill="#ff994e"/>
      <ellipse id="Ellipse_1192" data-name="Ellipse 1192" cx="1.872" cy="1.872" rx="1.872" ry="1.872" transform="translate(17.912 32.609)" fill="#ff994e"/>
      <ellipse id="Ellipse_1193" data-name="Ellipse 1193" cx="1.872" cy="1.872" rx="1.872" ry="1.872" transform="translate(12.536 19.474)" fill="#ff994e"/>
      <ellipse id="Ellipse_1194" data-name="Ellipse 1194" cx="1.872" cy="1.872" rx="1.872" ry="1.872" transform="translate(14.876 23.525)" fill="#ff994e"/>
      <ellipse id="Ellipse_1195" data-name="Ellipse 1195" cx="1.872" cy="1.872" rx="1.872" ry="1.872" transform="translate(17.22 27.58)" fill="#ff994e"/>
      <ellipse id="Ellipse_1196" data-name="Ellipse 1196" cx="1.872" cy="1.872" rx="1.872" ry="1.872" transform="translate(4.804 2.37)" fill="#ff994e"/>
      <ellipse id="Ellipse_1197" data-name="Ellipse 1197" cx="1.872" cy="1.872" rx="1.872" ry="1.872" transform="translate(7.166 6.418)" fill="#ff994e"/>
      <ellipse id="Ellipse_1198" data-name="Ellipse 1198" cx="1.872" cy="1.872" rx="1.872" ry="1.872" transform="translate(9.529 10.465)" fill="#ff994e"/>
      <ellipse id="Ellipse_1199" data-name="Ellipse 1199" cx="1.872" cy="1.872" rx="1.872" ry="1.872" transform="translate(11.899 14.509)" fill="#ff994e"/>
      <ellipse id="Ellipse_1200" data-name="Ellipse 1200" cx="1.872" cy="1.872" rx="1.872" ry="1.872" transform="translate(9.836)" fill="#ff994e"/>
    </g>
    <g id="UDI" transform="translate(41.202)">
      <ellipse id="Ellipse_1201" data-name="Ellipse 1201" cx="1.872" cy="1.872" rx="1.872" ry="1.872" transform="translate(0 8.896)" fill="#acbaf2"/>
      <ellipse id="Ellipse_1202" data-name="Ellipse 1202" cx="1.872" cy="1.872" rx="1.872" ry="1.872" transform="translate(5.373 21.87)" fill="#acbaf2"/>
      <ellipse id="Ellipse_1203" data-name="Ellipse 1203" cx="1.872" cy="1.872" rx="1.872" ry="1.872" transform="translate(10.746 34.844)" fill="#acbaf2"/>
      <ellipse id="Ellipse_1204" data-name="Ellipse 1204" cx="1.872" cy="1.872" rx="1.872" ry="1.872" transform="translate(2.456 12.959)" fill="#acbaf2"/>
      <ellipse id="Ellipse_1205" data-name="Ellipse 1205" cx="1.872" cy="1.872" rx="1.872" ry="1.872" transform="translate(7.837 25.933)" fill="#acbaf2"/>
      <ellipse id="Ellipse_1206" data-name="Ellipse 1206" cx="1.872" cy="1.872" rx="1.872" ry="1.872" transform="translate(4.935 17.021)" fill="#acbaf2"/>
      <ellipse id="Ellipse_1207" data-name="Ellipse 1207" cx="1.872" cy="1.872" rx="1.872" ry="1.872" transform="translate(10.342 29.999)" fill="#acbaf2"/>
      <ellipse id="Ellipse_1208" data-name="Ellipse 1208" cx="1.872" cy="1.872" rx="1.872" ry="1.872" transform="translate(2.789 2.917)" fill="#acbaf2"/>
      <ellipse id="Ellipse_1209" data-name="Ellipse 1209" cx="1.872" cy="1.872" rx="1.872" ry="1.872" transform="translate(5.309 7.039)" fill="#acbaf2"/>
      <ellipse id="Ellipse_1210" data-name="Ellipse 1210" cx="1.872" cy="1.872" rx="1.872" ry="1.872" transform="translate(7.867 11.177)" fill="#acbaf2"/>
      <ellipse id="Ellipse_1211" data-name="Ellipse 1211" cx="1.872" cy="1.872" rx="1.872" ry="1.872" transform="translate(10.75 20.095)" fill="#acbaf2"/>
      <ellipse id="Ellipse_1212" data-name="Ellipse 1212" cx="1.872" cy="1.872" rx="1.872" ry="1.872" transform="translate(10.476 15.34)" fill="#acbaf2"/>
      <ellipse id="Ellipse_1213" data-name="Ellipse 1213" cx="1.872" cy="1.872" rx="1.872" ry="1.872" transform="translate(8.159 1.464)" fill="#acbaf2"/>
      <ellipse id="Ellipse_1214" data-name="Ellipse 1214" cx="1.872" cy="1.872" rx="1.872" ry="1.872" transform="translate(13.363 24.281)" fill="#acbaf2"/>
      <ellipse id="Ellipse_1215" data-name="Ellipse 1215" cx="1.872" cy="1.872" rx="1.872" ry="1.872" transform="translate(10.772 5.699)" fill="#acbaf2"/>
      <ellipse id="Ellipse_1216" data-name="Ellipse 1216" cx="1.872" cy="1.872" rx="1.872" ry="1.872" transform="translate(16.25 33.241)" fill="#acbaf2"/>
      <ellipse id="Ellipse_1217" data-name="Ellipse 1217" cx="1.872" cy="1.872" rx="1.872" ry="1.872" transform="translate(16.067 28.52)" fill="#acbaf2"/>
      <ellipse id="Ellipse_1218" data-name="Ellipse 1218" cx="1.872" cy="1.872" rx="1.872" ry="1.872" transform="translate(13.438 9.978)" fill="#acbaf2"/>
      <ellipse id="Ellipse_1219" data-name="Ellipse 1219" cx="1.872" cy="1.872" rx="1.872" ry="1.872" transform="translate(13.633 0.49)" fill="#acbaf2"/>
      <ellipse id="Ellipse_1220" data-name="Ellipse 1220" cx="1.872" cy="1.872" rx="1.872" ry="1.872" transform="translate(16.306 19.021)" fill="#acbaf2"/>
      <ellipse id="Ellipse_1221" data-name="Ellipse 1221" cx="1.872" cy="1.872" rx="1.872" ry="1.872" transform="translate(16.175 14.322)" fill="#acbaf2"/>
      <ellipse id="Ellipse_1222" data-name="Ellipse 1222" cx="1.872" cy="1.872" rx="1.872" ry="1.872" transform="translate(16.34 4.89)" fill="#acbaf2"/>
      <ellipse id="Ellipse_1223" data-name="Ellipse 1223" cx="1.872" cy="1.872" rx="1.872" ry="1.872" transform="translate(19.073 23.446)" fill="#acbaf2"/>
      <ellipse id="Ellipse_1224" data-name="Ellipse 1224" cx="1.872" cy="1.872" rx="1.872" ry="1.872" transform="translate(19.107 9.376)" fill="#acbaf2"/>
      <ellipse id="Ellipse_1225" data-name="Ellipse 1225" cx="1.872" cy="1.872" rx="1.872" ry="1.872" transform="translate(19.174)" fill="#acbaf2"/>
      <ellipse id="Ellipse_1226" data-name="Ellipse 1226" cx="1.872" cy="1.872" rx="1.872" ry="1.872" transform="translate(21.956 4.62)" fill="#acbaf2"/>
      <ellipse id="Ellipse_1227" data-name="Ellipse 1227" cx="1.872" cy="1.872" rx="1.872" ry="1.872" transform="translate(21.956 28.022)" fill="#acbaf2"/>
    </g>
    <g id="LRI" transform="translate(63.158)">
      <ellipse id="Ellipse_1228" data-name="Ellipse 1228" cx="1.872" cy="1.872" rx="1.872" ry="1.872" transform="translate(0 32.702)" fill="#6a85f4"/>
      <ellipse id="Ellipse_1229" data-name="Ellipse 1229" cx="1.872" cy="1.872" rx="1.872" ry="1.872" transform="translate(0 13.981)" fill="#6a85f4"/>
      <ellipse id="Ellipse_1230" data-name="Ellipse 1230" cx="1.872" cy="1.872" rx="1.872" ry="1.872" transform="translate(0 18.661)" fill="#6a85f4"/>
      <ellipse id="Ellipse_1231" data-name="Ellipse 1231" cx="1.872" cy="1.872" rx="1.872" ry="1.872" transform="translate(2.782)" fill="#6a85f4"/>
      <ellipse id="Ellipse_1232" data-name="Ellipse 1232" cx="1.872" cy="1.872" rx="1.872" ry="1.872" transform="translate(2.849 9.376)" fill="#6a85f4"/>
      <ellipse id="Ellipse_1233" data-name="Ellipse 1233" cx="1.872" cy="1.872" rx="1.872" ry="1.872" transform="translate(2.883 23.446)" fill="#6a85f4"/>
      <ellipse id="Ellipse_1234" data-name="Ellipse 1234" cx="1.872" cy="1.872" rx="1.872" ry="1.872" transform="translate(5.616 4.89)" fill="#6a85f4"/>
      <ellipse id="Ellipse_1235" data-name="Ellipse 1235" cx="1.872" cy="1.872" rx="1.872" ry="1.872" transform="translate(5.781 14.322)" fill="#6a85f4"/>
      <ellipse id="Ellipse_1236" data-name="Ellipse 1236" cx="1.872" cy="1.872" rx="1.872" ry="1.872" transform="translate(5.65 19.021)" fill="#6a85f4"/>
      <ellipse id="Ellipse_1237" data-name="Ellipse 1237" cx="1.872" cy="1.872" rx="1.872" ry="1.872" transform="translate(8.323 0.49)" fill="#6a85f4"/>
      <ellipse id="Ellipse_1238" data-name="Ellipse 1238" cx="1.872" cy="1.872" rx="1.872" ry="1.872" transform="translate(8.518 9.978)" fill="#6a85f4"/>
      <ellipse id="Ellipse_1239" data-name="Ellipse 1239" cx="1.872" cy="1.872" rx="1.872" ry="1.872" transform="translate(5.89 28.52)" fill="#6a85f4"/>
      <ellipse id="Ellipse_1240" data-name="Ellipse 1240" cx="1.872" cy="1.872" rx="1.872" ry="1.872" transform="translate(5.706 33.241)" fill="#6a85f4"/>
      <ellipse id="Ellipse_1241" data-name="Ellipse 1241" cx="1.872" cy="1.872" rx="1.872" ry="1.872" transform="translate(11.184 5.699)" fill="#6a85f4"/>
      <ellipse id="Ellipse_1242" data-name="Ellipse 1242" cx="1.872" cy="1.872" rx="1.872" ry="1.872" transform="translate(8.593 24.281)" fill="#6a85f4"/>
      <ellipse id="Ellipse_1243" data-name="Ellipse 1243" cx="1.872" cy="1.872" rx="1.872" ry="1.872" transform="translate(13.798 1.464)" fill="#6a85f4"/>
      <ellipse id="Ellipse_1244" data-name="Ellipse 1244" cx="1.872" cy="1.872" rx="1.872" ry="1.872" transform="translate(11.48 15.34)" fill="#6a85f4"/>
      <ellipse id="Ellipse_1245" data-name="Ellipse 1245" cx="1.872" cy="1.872" rx="1.872" ry="1.872" transform="translate(11.207 20.095)" fill="#6a85f4"/>
      <ellipse id="Ellipse_1246" data-name="Ellipse 1246" cx="1.872" cy="1.872" rx="1.872" ry="1.872" transform="translate(14.09 11.177)" fill="#6a85f4"/>
      <ellipse id="Ellipse_1247" data-name="Ellipse 1247" cx="1.872" cy="1.872" rx="1.872" ry="1.872" transform="translate(16.647 7.039)" fill="#6a85f4"/>
      <ellipse id="Ellipse_1248" data-name="Ellipse 1248" cx="1.872" cy="1.872" rx="1.872" ry="1.872" transform="translate(19.167 2.917)" fill="#6a85f4"/>
      <ellipse id="Ellipse_1249" data-name="Ellipse 1249" cx="1.872" cy="1.872" rx="1.872" ry="1.872" transform="translate(11.615 29.999)" fill="#6a85f4"/>
      <ellipse id="Ellipse_1250" data-name="Ellipse 1250" cx="1.872" cy="1.872" rx="1.872" ry="1.872" transform="translate(17.021 17.021)" fill="#6a85f4"/>
      <ellipse id="Ellipse_1251" data-name="Ellipse 1251" cx="1.872" cy="1.872" rx="1.872" ry="1.872" transform="translate(14.12 25.933)" fill="#6a85f4"/>
      <ellipse id="Ellipse_1252" data-name="Ellipse 1252" cx="1.872" cy="1.872" rx="1.872" ry="1.872" transform="translate(19.5 12.959)" fill="#6a85f4"/>
      <ellipse id="Ellipse_1253" data-name="Ellipse 1253" cx="1.872" cy="1.872" rx="1.872" ry="1.872" transform="translate(11.21 34.844)" fill="#6a85f4"/>
      <ellipse id="Ellipse_1254" data-name="Ellipse 1254" cx="1.872" cy="1.872" rx="1.872" ry="1.872" transform="translate(16.583 21.87)" fill="#6a85f4"/>
      <ellipse id="Ellipse_1255" data-name="Ellipse 1255" cx="1.872" cy="1.872" rx="1.872" ry="1.872" transform="translate(21.956 8.896)" fill="#6a85f4"/>
      <ellipse id="Ellipse_1256" data-name="Ellipse 1256" cx="1.872" cy="1.872" rx="1.872" ry="1.872" transform="translate(24.39 4.838)" fill="#6a85f4"/>
      <ellipse id="Ellipse_1257" data-name="Ellipse 1257" cx="1.872" cy="1.872" rx="1.872" ry="1.872" transform="translate(22.327 19.346)" fill="#6a85f4"/>
      <ellipse id="Ellipse_1258" data-name="Ellipse 1258" cx="1.872" cy="1.872" rx="1.872" ry="1.872" transform="translate(24.697 15.303)" fill="#6a85f4"/>
      <ellipse id="Ellipse_1259" data-name="Ellipse 1259" cx="1.872" cy="1.872" rx="1.872" ry="1.872" transform="translate(27.06 11.255)" fill="#6a85f4"/>
      <ellipse id="Ellipse_1260" data-name="Ellipse 1260" cx="1.872" cy="1.872" rx="1.872" ry="1.872" transform="translate(29.422 7.208)" fill="#6a85f4"/>
      <ellipse id="Ellipse_1261" data-name="Ellipse 1261" cx="1.872" cy="1.872" rx="1.872" ry="1.872" transform="translate(17.006 32.418)" fill="#6a85f4"/>
      <ellipse id="Ellipse_1262" data-name="Ellipse 1262" cx="1.872" cy="1.872" rx="1.872" ry="1.872" transform="translate(19.35 28.363)" fill="#6a85f4"/>
      <ellipse id="Ellipse_1263" data-name="Ellipse 1263" cx="1.872" cy="1.872" rx="1.872" ry="1.872" transform="translate(21.69 24.311)" fill="#6a85f4"/>
      <ellipse id="Ellipse_1264" data-name="Ellipse 1264" cx="1.872" cy="1.872" rx="1.872" ry="1.872" transform="translate(16.314 37.446)" fill="#6a85f4"/>
      <ellipse id="Ellipse_1265" data-name="Ellipse 1265" cx="1.872" cy="1.872" rx="1.872" ry="1.872" transform="translate(34.226 10.012)" fill="#6a85f4"/>
      <ellipse id="Ellipse_1266" data-name="Ellipse 1266" cx="1.872" cy="1.872" rx="1.872" ry="1.872" transform="translate(31.916 14.093)" fill="#6a85f4"/>
      <ellipse id="Ellipse_1267" data-name="Ellipse 1267" cx="1.872" cy="1.872" rx="1.872" ry="1.872" transform="translate(29.613 18.182)" fill="#6a85f4"/>
      <ellipse id="Ellipse_1268" data-name="Ellipse 1268" cx="1.872" cy="1.872" rx="1.872" ry="1.872" transform="translate(27.322 22.274)" fill="#6a85f4"/>
      <ellipse id="Ellipse_1269" data-name="Ellipse 1269" cx="1.872" cy="1.872" rx="1.872" ry="1.872" transform="translate(26.446 27.382)" fill="#6a85f4"/>
      <ellipse id="Ellipse_1270" data-name="Ellipse 1270" cx="1.872" cy="1.872" rx="1.872" ry="1.872" transform="translate(24.173 31.526)" fill="#6a85f4"/>
      <ellipse id="Ellipse_1271" data-name="Ellipse 1271" cx="1.872" cy="1.872" rx="1.872" ry="1.872" transform="translate(38.764 13.228)" fill="#6a85f4"/>
      <ellipse id="Ellipse_1272" data-name="Ellipse 1272" cx="1.872" cy="1.872" rx="1.872" ry="1.872" transform="translate(36.476 17.385)" fill="#6a85f4"/>
      <ellipse id="Ellipse_1273" data-name="Ellipse 1273" cx="1.872" cy="1.872" rx="1.872" ry="1.872" transform="translate(21.919 35.709)" fill="#6a85f4"/>
      <ellipse id="Ellipse_1274" data-name="Ellipse 1274" cx="1.872" cy="1.872" rx="1.872" ry="1.872" transform="translate(34.2 21.563)" fill="#6a85f4"/>
      <ellipse id="Ellipse_1275" data-name="Ellipse 1275" cx="1.872" cy="1.872" rx="1.872" ry="1.872" transform="translate(31.935 25.772)" fill="#6a85f4"/>
      <ellipse id="Ellipse_1276" data-name="Ellipse 1276" cx="1.872" cy="1.872" rx="1.872" ry="1.872" transform="translate(43.003 16.83)" fill="#6a85f4"/>
      <ellipse id="Ellipse_1277" data-name="Ellipse 1277" cx="1.872" cy="1.872" rx="1.872" ry="1.872" transform="translate(20.84 40.962)" fill="#6a85f4"/>
      <ellipse id="Ellipse_1278" data-name="Ellipse 1278" cx="1.872" cy="1.872" rx="1.872" ry="1.872" transform="translate(30.77 31.029)" fill="#6a85f4"/>
      <ellipse id="Ellipse_1279" data-name="Ellipse 1279" cx="1.872" cy="1.872" rx="1.872" ry="1.872" transform="translate(40.7 21.099)" fill="#6a85f4"/>
      <ellipse id="Ellipse_1280" data-name="Ellipse 1280" cx="1.872" cy="1.872" rx="1.872" ry="1.872" transform="translate(38.405 25.412)" fill="#6a85f4"/>
      <ellipse id="Ellipse_1281" data-name="Ellipse 1281" cx="1.872" cy="1.872" rx="1.872" ry="1.872" transform="translate(28.486 35.353)" fill="#6a85f4"/>
      <ellipse id="Ellipse_1282" data-name="Ellipse 1282" cx="1.872" cy="1.872" rx="1.872" ry="1.872" transform="translate(36.109 29.789)" fill="#6a85f4"/>
      <ellipse id="Ellipse_1283" data-name="Ellipse 1283" cx="1.872" cy="1.872" rx="1.872" ry="1.872" transform="translate(46.908 20.792)" fill="#6a85f4"/>
      <ellipse id="Ellipse_1284" data-name="Ellipse 1284" cx="1.872" cy="1.872" rx="1.872" ry="1.872" transform="translate(26.21 39.775)" fill="#6a85f4"/>
      <ellipse id="Ellipse_1285" data-name="Ellipse 1285" cx="1.872" cy="1.872" rx="1.872" ry="1.872" transform="translate(44.549 25.202)" fill="#6a85f4"/>
      <ellipse id="Ellipse_1286" data-name="Ellipse 1286" cx="1.872" cy="1.872" rx="1.872" ry="1.872" transform="translate(34.601 35.2)" fill="#6a85f4"/>
      <ellipse id="Ellipse_1287" data-name="Ellipse 1287" cx="1.872" cy="1.872" rx="1.872" ry="1.872" transform="translate(42.175 29.684)" fill="#6a85f4"/>
      <ellipse id="Ellipse_1288" data-name="Ellipse 1288" cx="1.872" cy="1.872" rx="1.872" ry="1.872" transform="translate(50.45 25.083)" fill="#6a85f4"/>
      <ellipse id="Ellipse_1289" data-name="Ellipse 1289" cx="1.872" cy="1.872" rx="1.872" ry="1.872" transform="translate(39.779 34.267)" fill="#6a85f4"/>
      <ellipse id="Ellipse_1290" data-name="Ellipse 1290" cx="1.872" cy="1.872" rx="1.872" ry="1.872" transform="translate(32.204 39.768)" fill="#6a85f4"/>
      <ellipse id="Ellipse_1291" data-name="Ellipse 1291" cx="1.872" cy="1.872" rx="1.872" ry="1.872" transform="translate(24.626 45.264)" fill="#6a85f4"/>
      <ellipse id="Ellipse_1292" data-name="Ellipse 1292" cx="1.872" cy="1.872" rx="1.872" ry="1.872" transform="translate(47.986 29.654)" fill="#6a85f4"/>
      <ellipse id="Ellipse_1293" data-name="Ellipse 1293" cx="1.872" cy="1.872" rx="1.872" ry="1.872" transform="translate(45.474 34.331)" fill="#6a85f4"/>
      <ellipse id="Ellipse_1294" data-name="Ellipse 1294" cx="1.872" cy="1.872" rx="1.872" ry="1.872" transform="translate(29.756 44.504)" fill="#6a85f4"/>
      <ellipse id="Ellipse_1295" data-name="Ellipse 1295" cx="1.872" cy="1.872" rx="1.872" ry="1.872" transform="translate(53.599 29.666)" fill="#6a85f4"/>
      <ellipse id="Ellipse_1296" data-name="Ellipse 1296" cx="1.872" cy="1.872" rx="1.872" ry="1.872" transform="translate(37.866 39.82)" fill="#6a85f4"/>
      <ellipse id="Ellipse_1297" data-name="Ellipse 1297" cx="1.872" cy="1.872" rx="1.872" ry="1.872" transform="translate(50.978 34.417)" fill="#6a85f4"/>
      <ellipse id="Ellipse_1298" data-name="Ellipse 1298" cx="1.872" cy="1.872" rx="1.872" ry="1.872" transform="translate(42.898 39.146)" fill="#6a85f4"/>
      <ellipse id="Ellipse_1299" data-name="Ellipse 1299" cx="1.872" cy="1.872" rx="1.872" ry="1.872" transform="translate(35.245 44.669)" fill="#6a85f4"/>
      <ellipse id="Ellipse_1300" data-name="Ellipse 1300" cx="1.872" cy="1.872" rx="1.872" ry="1.872" transform="translate(56.336 34.511)" fill="#6a85f4"/>
      <ellipse id="Ellipse_1301" data-name="Ellipse 1301" cx="1.872" cy="1.872" rx="1.872" ry="1.872" transform="translate(48.263 39.303)" fill="#6a85f4"/>
      <ellipse id="Ellipse_1302" data-name="Ellipse 1302" cx="1.872" cy="1.872" rx="1.872" ry="1.872" transform="translate(27.539 50.199)" fill="#6a85f4"/>
      <ellipse id="Ellipse_1303" data-name="Ellipse 1303" cx="1.872" cy="1.872" rx="1.872" ry="1.872" transform="translate(40.52 44.822)" fill="#6a85f4"/>
      <ellipse id="Ellipse_1304" data-name="Ellipse 1304" cx="1.872" cy="1.872" rx="1.872" ry="1.872" transform="translate(53.498 39.446)" fill="#6a85f4"/>
      <ellipse id="Ellipse_1305" data-name="Ellipse 1305" cx="1.872" cy="1.872" rx="1.872" ry="1.872" transform="translate(45.418 44.358)" fill="#6a85f4"/>
      <ellipse id="Ellipse_1306" data-name="Ellipse 1306" cx="1.872" cy="1.872" rx="1.872" ry="1.872" transform="translate(32.459 49.761)" fill="#6a85f4"/>
    </g>
    <g id="RN" transform="translate(92.633 39.577)">
      <ellipse id="Ellipse_1307" data-name="Ellipse 1307" cx="1.872" cy="1.872" rx="1.872" ry="1.872" transform="translate(29.156)" fill="#26286f"/>
      <ellipse id="Ellipse_1308" data-name="Ellipse 1308" cx="1.872" cy="1.872" rx="1.872" ry="1.872" transform="translate(21.039 4.961)" fill="#26286f"/>
      <ellipse id="Ellipse_1309" data-name="Ellipse 1309" cx="1.872" cy="1.872" rx="1.872" ry="1.872" transform="translate(8.065 10.383)" fill="#26286f"/>
      <ellipse id="Ellipse_1310" data-name="Ellipse 1310" cx="1.872" cy="1.872" rx="1.872" ry="1.872" transform="translate(26.049 5.115)" fill="#26286f"/>
      <ellipse id="Ellipse_1311" data-name="Ellipse 1311" cx="1.872" cy="1.872" rx="1.872" ry="1.872" transform="translate(13.045 10.54)" fill="#26286f"/>
      <ellipse id="Ellipse_1312" data-name="Ellipse 1312" cx="1.872" cy="1.872" rx="1.872" ry="1.872" transform="translate(31.002 5.249)" fill="#26286f"/>
      <ellipse id="Ellipse_1313" data-name="Ellipse 1313" cx="1.872" cy="1.872" rx="1.872" ry="1.872" transform="translate(17.838 10.255)" fill="#26286f"/>
      <ellipse id="Ellipse_1314" data-name="Ellipse 1314" cx="1.872" cy="1.872" rx="1.872" ry="1.872" transform="translate(0 16.018)" fill="#26286f"/>
      <ellipse id="Ellipse_1315" data-name="Ellipse 1315" cx="1.872" cy="1.872" rx="1.872" ry="1.872" transform="translate(22.72 10.405)" fill="#26286f"/>
      <ellipse id="Ellipse_1316" data-name="Ellipse 1316" cx="1.872" cy="1.872" rx="1.872" ry="1.872" transform="translate(27.561 10.533)" fill="#26286f"/>
      <ellipse id="Ellipse_1317" data-name="Ellipse 1317" cx="1.872" cy="1.872" rx="1.872" ry="1.872" transform="translate(4.766 15.823)" fill="#26286f"/>
      <ellipse id="Ellipse_1318" data-name="Ellipse 1318" cx="1.872" cy="1.872" rx="1.872" ry="1.872" transform="translate(32.376 10.637)" fill="#26286f"/>
    </g>
    <g id="NI" transform="translate(93.524 55.49)">
      <ellipse id="Ellipse_1319" data-name="Ellipse 1319" cx="1.872" cy="1.872" rx="1.872" ry="1.872" transform="translate(8.683 0.037)" fill="#dedede"/>
      <ellipse id="Ellipse_1320" data-name="Ellipse 1320" cx="1.872" cy="1.872" rx="1.872" ry="1.872" transform="translate(13.461 0.135)" fill="#dedede"/>
      <ellipse id="Ellipse_1321" data-name="Ellipse 1321" cx="1.872" cy="1.872" rx="1.872" ry="1.872" transform="translate(18.182)" fill="#dedede"/>
      <ellipse id="Ellipse_1322" data-name="Ellipse 1322" cx="1.872" cy="1.872" rx="1.872" ry="1.872" transform="translate(22.926 0.086)" fill="#dedede"/>
      <ellipse id="Ellipse_1323" data-name="Ellipse 1323" cx="1.872" cy="1.872" rx="1.872" ry="1.872" transform="translate(27.659 0.157)" fill="#dedede"/>
      <ellipse id="Ellipse_1324" data-name="Ellipse 1324" cx="1.872" cy="1.872" rx="1.872" ry="1.872" transform="translate(32.38 0.217)" fill="#dedede"/>
      <ellipse id="Ellipse_1325" data-name="Ellipse 1325" cx="1.872" cy="1.872" rx="1.872" ry="1.872" transform="translate(0 5.766)" fill="#dedede"/>
      <ellipse id="Ellipse_1326" data-name="Ellipse 1326" cx="1.872" cy="1.872" rx="1.872" ry="1.872" transform="translate(4.688 5.762)" fill="#dedede"/>
      <ellipse id="Ellipse_1327" data-name="Ellipse 1327" cx="1.872" cy="1.872" rx="1.872" ry="1.872" transform="translate(9.372 5.762)" fill="#dedede"/>
      <ellipse id="Ellipse_1328" data-name="Ellipse 1328" cx="1.872" cy="1.872" rx="1.872" ry="1.872" transform="translate(14.056 5.762)" fill="#dedede"/>
      <ellipse id="Ellipse_1329" data-name="Ellipse 1329" cx="1.872" cy="1.872" rx="1.872" ry="1.872" transform="translate(18.74 5.762)" fill="#dedede"/>
      <ellipse id="Ellipse_1330" data-name="Ellipse 1330" cx="1.872" cy="1.872" rx="1.872" ry="1.872" transform="translate(23.424 5.762)" fill="#dedede"/>
      <ellipse id="Ellipse_1331" data-name="Ellipse 1331" cx="1.872" cy="1.872" rx="1.872" ry="1.872" transform="translate(28.108 5.762)" fill="#dedede"/>
    </g>
    <g id="VAC" transform="translate(126.316 61.252)">
      <g id="Ellipse_1332" data-name="Ellipse 1332" fill="#fff" stroke="#6c6c6c" stroke-width="0.5">
        <ellipse cx="1.872" cy="1.872" rx="1.872" ry="1.872" stroke="none"/>
        <ellipse cx="1.872" cy="1.872" rx="1.622" ry="1.622" fill="none"/>
      </g>
    </g>
  </g>
</svg>
