<svg xmlns="http://www.w3.org/2000/svg" xmlns:xlink="http://www.w3.org/1999/xlink" width="130" height="65" viewBox="0 0 130 65">
  <defs>
    <clipPath id="clip-_._assets_seats-viz-cor">
      <rect width="130" height="65"/>
    </clipPath>
  </defs>
  <g id="_._assets_seats-viz-cor" data-name="./assets/seats-viz-cor" clip-path="url(#clip-_._assets_seats-viz-cor)">
    <rect width="130" height="65" fill="#fff"/>
    <text id="_63" data-name="63" transform="translate(65 64)" font-size="21" font-family="LibeSansSemiCondensed-Bold, LibeSans SemiCondensed" font-weight="700"><tspan x="-10.542" y="0">63</tspan></text>
    <g id="Corsicalibera" transform="translate(0 36.2)">
      <circle id="Ellipse_2037" data-name="Ellipse 2037" cx="3.005" cy="3.005" r="3.005" transform="translate(0 22.785)" fill="#e5c8aa"/>
      <circle id="Ellipse_2038" data-name="Ellipse 2038" cx="3.005" cy="3.005" r="3.005" transform="translate(7.525 22.785)" fill="#e5c8aa"/>
      <circle id="Ellipse_2039" data-name="Ellipse 2039" cx="3.005" cy="3.005" r="3.005" transform="translate(15.053 22.785)" fill="#e5c8aa"/>
      <circle id="Ellipse_2040" data-name="Ellipse 2040" cx="3.005" cy="3.005" r="3.005" transform="translate(22.582 22.789)" fill="#e5c8aa"/>
      <circle id="Ellipse_2041" data-name="Ellipse 2041" cx="3.005" cy="3.005" r="3.005" transform="translate(30.126 22.789)" fill="#e5c8aa"/>
      <circle id="Ellipse_2042" data-name="Ellipse 2042" cx="3.005" cy="3.005" r="3.005" transform="translate(1.687 11.128)" fill="#e5c8aa"/>
      <circle id="Ellipse_2043" data-name="Ellipse 2043" cx="3.005" cy="3.005" r="3.005" transform="translate(9.441 11.169)" fill="#e5c8aa"/>
      <circle id="Ellipse_2044" data-name="Ellipse 2044" cx="3.005" cy="3.005" r="3.005" transform="translate(17.266 11.233)" fill="#e5c8aa"/>
      <circle id="Ellipse_2045" data-name="Ellipse 2045" cx="3.005" cy="3.005" r="3.005" transform="translate(25.711 10.125)" fill="#e5c8aa"/>
      <circle id="Ellipse_2046" data-name="Ellipse 2046" cx="3.005" cy="3.005" r="3.005" transform="translate(5.549)" fill="#e5c8aa"/>
      <circle id="Ellipse_2047" data-name="Ellipse 2047" cx="3.005" cy="3.005" r="3.005" transform="translate(13.806 0.237)" fill="#e5c8aa"/>
      <circle id="Ellipse_2048" data-name="Ellipse 2048" cx="3.005" cy="3.005" r="3.005" transform="translate(34.138 10.034)" fill="#e5c8aa"/>
      <circle id="Ellipse_2049" data-name="Ellipse 2049" cx="3.005" cy="3.005" r="3.005" transform="translate(22.285 0.594)" fill="#e5c8aa"/>
    </g>
    <g id="PartidelanationCorse" transform="translate(11.443 9.828)">
      <circle id="Ellipse_2050" data-name="Ellipse 2050" cx="3.005" cy="3.005" r="3.005" transform="translate(0 16.177)" fill="#e5c8aa"/>
      <circle id="Ellipse_2051" data-name="Ellipse 2051" cx="3.005" cy="3.005" r="3.005" transform="translate(8.975 16.872)" fill="#e5c8aa"/>
      <circle id="Ellipse_2052" data-name="Ellipse 2052" cx="3.005" cy="3.005" r="3.005" transform="translate(21.354 25.55)" fill="#e5c8aa"/>
      <circle id="Ellipse_2053" data-name="Ellipse 2053" cx="3.005" cy="3.005" r="3.005" transform="translate(7.716 7.277)" fill="#e5c8aa"/>
      <circle id="Ellipse_2054" data-name="Ellipse 2054" cx="3.005" cy="3.005" r="3.005" transform="translate(18.344 17.909)" fill="#e5c8aa"/>
      <circle id="Ellipse_2055" data-name="Ellipse 2055" cx="3.005" cy="3.005" r="3.005" transform="translate(17.525 8.78)" fill="#e5c8aa"/>
      <circle id="Ellipse_2056" data-name="Ellipse 2056" cx="3.005" cy="3.005" r="3.005" transform="translate(31.583 26.41)" fill="#e5c8aa"/>
      <circle id="Ellipse_2057" data-name="Ellipse 2057" cx="3.005" cy="3.005" r="3.005" transform="translate(16.977)" fill="#e5c8aa"/>
      <circle id="Ellipse_2058" data-name="Ellipse 2058" cx="3.005" cy="3.005" r="3.005" transform="translate(27.864 11)" fill="#e5c8aa"/>
      <circle id="Ellipse_2059" data-name="Ellipse 2059" cx="3.005" cy="3.005" r="3.005" transform="translate(31.621 17.507)" fill="#e5c8aa"/>
    </g>
    <g id="FemuaCorsica" transform="translate(38.89)">
      <circle id="Ellipse_2060" data-name="Ellipse 2060" cx="3.005" cy="3.005" r="3.005" transform="translate(0.165 12.54)" fill="#e5c8aa"/>
      <circle id="Ellipse_2061" data-name="Ellipse 2061" cx="3.005" cy="3.005" r="3.005" transform="translate(0 4.437)" fill="#e5c8aa"/>
      <circle id="Ellipse_2062" data-name="Ellipse 2062" cx="3.005" cy="3.005" r="3.005" transform="translate(11.357 16.5)" fill="#e5c8aa"/>
      <circle id="Ellipse_2063" data-name="Ellipse 2063" cx="3.005" cy="3.005" r="3.005" transform="translate(11.323 8.787)" fill="#e5c8aa"/>
      <circle id="Ellipse_2064" data-name="Ellipse 2064" cx="3.005" cy="3.005" r="3.005" transform="translate(16.338 30.761)" fill="#e5c8aa"/>
      <circle id="Ellipse_2065" data-name="Ellipse 2065" cx="3.005" cy="3.005" r="3.005" transform="translate(11.3 1.12)" fill="#e5c8aa"/>
      <circle id="Ellipse_2066" data-name="Ellipse 2066" cx="3.005" cy="3.005" r="3.005" transform="translate(16.504 23.082)" fill="#e5c8aa"/>
      <circle id="Ellipse_2067" data-name="Ellipse 2067" cx="3.005" cy="3.005" r="3.005" transform="translate(23.025 15.027)" fill="#e5c8aa"/>
      <circle id="Ellipse_2068" data-name="Ellipse 2068" cx="3.005" cy="3.005" r="3.005" transform="translate(23.025)" fill="#e5c8aa"/>
      <circle id="Ellipse_2069" data-name="Ellipse 2069" cx="3.005" cy="3.005" r="3.005" transform="translate(23.025 7.514)" fill="#e5c8aa"/>
      <circle id="Ellipse_2070" data-name="Ellipse 2070" cx="3.005" cy="3.005" r="3.005" transform="translate(29.547 23.082)" fill="#e5c8aa"/>
      <circle id="Ellipse_2071" data-name="Ellipse 2071" cx="3.005" cy="3.005" r="3.005" transform="translate(34.75 1.12)" fill="#e5c8aa"/>
      <circle id="Ellipse_2072" data-name="Ellipse 2072" cx="3.005" cy="3.005" r="3.005" transform="translate(29.712 30.761)" fill="#e5c8aa"/>
      <circle id="Ellipse_2073" data-name="Ellipse 2073" cx="3.005" cy="3.005" r="3.005" transform="translate(34.728 8.787)" fill="#e5c8aa"/>
      <circle id="Ellipse_2074" data-name="Ellipse 2074" cx="3.005" cy="3.005" r="3.005" transform="translate(34.694 16.5)" fill="#e5c8aa"/>
      <circle id="Ellipse_2075" data-name="Ellipse 2075" cx="3.005" cy="3.005" r="3.005" transform="translate(46.051 4.437)" fill="#e5c8aa"/>
      <circle id="Ellipse_2076" data-name="Ellipse 2076" cx="3.005" cy="3.005" r="3.005" transform="translate(45.885 12.54)" fill="#e5c8aa"/>
      <circle id="Ellipse_2077" data-name="Ellipse 2077" cx="3.005" cy="3.005" r="3.005" transform="translate(41.877 27.334)" fill="#e5c8aa"/>
    </g>
    <g id="Droiterégionaliste" transform="translate(80.805 9.828)">
      <circle id="Ellipse_2078" data-name="Ellipse 2078" cx="3.005" cy="3.005" r="3.005" transform="translate(3.719 11)" fill="#acbaf2"/>
      <circle id="Ellipse_2079" data-name="Ellipse 2079" cx="3.005" cy="3.005" r="3.005" transform="translate(14.606)" fill="#acbaf2"/>
      <circle id="Ellipse_2080" data-name="Ellipse 2080" cx="3.005" cy="3.005" r="3.005" transform="translate(0 26.41)" fill="#acbaf2"/>
      <circle id="Ellipse_2081" data-name="Ellipse 2081" cx="3.005" cy="3.005" r="3.005" transform="translate(14.058 8.78)" fill="#acbaf2"/>
      <circle id="Ellipse_2082" data-name="Ellipse 2082" cx="3.005" cy="3.005" r="3.005" transform="translate(13.239 17.909)" fill="#acbaf2"/>
      <circle id="Ellipse_2083" data-name="Ellipse 2083" cx="3.005" cy="3.005" r="3.005" transform="translate(23.867 7.277)" fill="#acbaf2"/>
      <circle id="Ellipse_2084" data-name="Ellipse 2084" cx="3.005" cy="3.005" r="3.005" transform="translate(10.23 25.55)" fill="#acbaf2"/>
      <circle id="Ellipse_2085" data-name="Ellipse 2085" cx="3.005" cy="3.005" r="3.005" transform="translate(22.608 16.872)" fill="#acbaf2"/>
      <circle id="Ellipse_2086" data-name="Ellipse 2086" cx="3.005" cy="3.005" r="3.005" transform="translate(31.583 16.177)" fill="#acbaf2"/>
      <circle id="Ellipse_2087" data-name="Ellipse 2087" cx="3.005" cy="3.005" r="3.005" transform="translate(20.741 26.966)" fill="#acbaf2"/>
    </g>
    <g id="LREM" transform="translate(89.693 36.2)">
      <circle id="Ellipse_2088" data-name="Ellipse 2088" cx="3.005" cy="3.005" r="3.005" transform="translate(0 10.034)" fill="#ffcc58"/>
      <circle id="Ellipse_2089" data-name="Ellipse 2089" cx="3.005" cy="3.005" r="3.005" transform="translate(20.332 0.237)" fill="#ffcc58"/>
      <circle id="Ellipse_2090" data-name="Ellipse 2090" cx="3.005" cy="3.005" r="3.005" transform="translate(28.589)" fill="#ffcc58"/>
      <circle id="Ellipse_2091" data-name="Ellipse 2091" cx="3.005" cy="3.005" r="3.005" transform="translate(8.426 10.125)" fill="#ffcc58"/>
      <circle id="Ellipse_2092" data-name="Ellipse 2092" cx="3.005" cy="3.005" r="3.005" transform="translate(16.872 11.233)" fill="#ffcc58"/>
      <circle id="Ellipse_2093" data-name="Ellipse 2093" cx="3.005" cy="3.005" r="3.005" transform="translate(24.697 11.169)" fill="#ffcc58"/>
    </g>
    <g id="LR" transform="translate(93.706 47.328)">
      <circle id="Ellipse_2094" data-name="Ellipse 2094" cx="3.005" cy="3.005" r="3.005" transform="translate(28.439)" fill="#6a85f4"/>
      <circle id="Ellipse_2095" data-name="Ellipse 2095" cx="3.005" cy="3.005" r="3.005" transform="translate(0 11.661)" fill="#6a85f4"/>
      <circle id="Ellipse_2096" data-name="Ellipse 2096" cx="3.005" cy="3.005" r="3.005" transform="translate(7.544 11.661)" fill="#6a85f4"/>
      <circle id="Ellipse_2097" data-name="Ellipse 2097" cx="3.005" cy="3.005" r="3.005" transform="translate(15.072 11.657)" fill="#6a85f4"/>
      <circle id="Ellipse_2098" data-name="Ellipse 2098" cx="3.005" cy="3.005" r="3.005" transform="translate(22.601 11.657)" fill="#6a85f4"/>
      <circle id="Ellipse_2099" data-name="Ellipse 2099" cx="3.005" cy="3.005" r="3.005" transform="translate(30.126 11.657)" fill="#6a85f4"/>
    </g>
  </g>
</svg>
