<svg xmlns="http://www.w3.org/2000/svg" xmlns:xlink="http://www.w3.org/1999/xlink" width="130" height="65" viewBox="0 0 130 65">
  <defs>
    <clipPath id="clip-_._assets_seats-viz-cvl">
      <rect width="130" height="65"/>
    </clipPath>
  </defs>
  <g id="_._assets_seats-viz-cvl" data-name="./assets/seats-viz-cvl" clip-path="url(#clip-_._assets_seats-viz-cvl)">
    <rect width="130" height="65" fill="#fff"/>
    <text id="_77" data-name="77" transform="translate(65 64)" font-size="21" font-family="LibeSansSemiCondensed-Bold, LibeSans SemiCondensed" font-weight="700"><tspan x="-10.069" y="0">77</tspan></text>
    <g id="GE" transform="translate(0 40.562)">
      <ellipse id="Ellipse_667" data-name="Ellipse 667" cx="3.005" cy="3.005" rx="3.005" ry="3.005" transform="translate(0 18.423)" fill="#19cc73"/>
      <ellipse id="Ellipse_668" data-name="Ellipse 668" cx="3.005" cy="3.005" rx="3.005" ry="3.005" transform="translate(7.525 18.423)" fill="#19cc73"/>
      <ellipse id="Ellipse_669" data-name="Ellipse 669" cx="3.005" cy="3.005" rx="3.005" ry="3.005" transform="translate(15.053 18.423)" fill="#19cc73"/>
      <ellipse id="Ellipse_670" data-name="Ellipse 670" cx="3.005" cy="3.005" rx="3.005" ry="3.005" transform="translate(22.582 18.427)" fill="#19cc73"/>
      <ellipse id="Ellipse_671" data-name="Ellipse 671" cx="3.005" cy="3.005" rx="3.005" ry="3.005" transform="translate(30.126 18.427)" fill="#19cc73"/>
      <ellipse id="Ellipse_672" data-name="Ellipse 672" cx="3.005" cy="3.005" rx="3.005" ry="3.005" transform="translate(1.172 9.069)" fill="#19cc73"/>
      <ellipse id="Ellipse_673" data-name="Ellipse 673" cx="3.005" cy="3.005" rx="3.005" ry="3.005" transform="translate(8.919 8.825)" fill="#19cc73"/>
      <ellipse id="Ellipse_674" data-name="Ellipse 674" cx="3.005" cy="3.005" rx="3.005" ry="3.005" transform="translate(16.774 8.483)" fill="#19cc73"/>
      <ellipse id="Ellipse_675" data-name="Ellipse 675" cx="3.005" cy="3.005" rx="3.005" ry="3.005" transform="translate(24.536 8.821)" fill="#19cc73"/>
      <ellipse id="Ellipse_676" data-name="Ellipse 676" cx="3.005" cy="3.005" rx="3.005" ry="3.005" transform="translate(3.749)" fill="#19cc73"/>
    </g>
    <g id="GSRD" transform="translate(7.671)">
      <ellipse id="Ellipse_677" data-name="Ellipse 677" cx="3.005" cy="3.005" rx="3.005" ry="3.005" transform="translate(4.324 40.186)" fill="#ff697f"/>
      <ellipse id="Ellipse_678" data-name="Ellipse 678" cx="3.005" cy="3.005" rx="3.005" ry="3.005" transform="translate(25.114 48.902)" fill="#ff697f"/>
      <ellipse id="Ellipse_679" data-name="Ellipse 679" cx="3.005" cy="3.005" rx="3.005" ry="3.005" transform="translate(12.908 39.702)" fill="#ff697f"/>
      <ellipse id="Ellipse_680" data-name="Ellipse 680" cx="3.005" cy="3.005" rx="3.005" ry="3.005" transform="translate(0 31.989)" fill="#ff697f"/>
      <ellipse id="Ellipse_681" data-name="Ellipse 681" cx="3.005" cy="3.005" rx="3.005" ry="3.005" transform="translate(21.128 40.558)" fill="#ff697f"/>
      <ellipse id="Ellipse_682" data-name="Ellipse 682" cx="3.005" cy="3.005" rx="3.005" ry="3.005" transform="translate(8.982 31.677)" fill="#ff697f"/>
      <ellipse id="Ellipse_683" data-name="Ellipse 683" cx="3.005" cy="3.005" rx="3.005" ry="3.005" transform="translate(5.177 24.111)" fill="#ff697f"/>
      <ellipse id="Ellipse_684" data-name="Ellipse 684" cx="3.005" cy="3.005" rx="3.005" ry="3.005" transform="translate(18.622 31.384)" fill="#ff697f"/>
      <ellipse id="Ellipse_685" data-name="Ellipse 685" cx="3.005" cy="3.005" rx="3.005" ry="3.005" transform="translate(30.888 40.213)" fill="#ff697f"/>
      <ellipse id="Ellipse_686" data-name="Ellipse 686" cx="3.005" cy="3.005" rx="3.005" ry="3.005" transform="translate(15.076 24.13)" fill="#ff697f"/>
      <ellipse id="Ellipse_687" data-name="Ellipse 687" cx="3.005" cy="3.005" rx="3.005" ry="3.005" transform="translate(11.488 17.105)" fill="#ff697f"/>
      <ellipse id="Ellipse_688" data-name="Ellipse 688" cx="3.005" cy="3.005" rx="3.005" ry="3.005" transform="translate(27.432 33.052)" fill="#ff697f"/>
      <ellipse id="Ellipse_689" data-name="Ellipse 689" cx="3.005" cy="3.005" rx="3.005" ry="3.005" transform="translate(25.982 24.483)" fill="#ff697f"/>
      <ellipse id="Ellipse_690" data-name="Ellipse 690" cx="3.005" cy="3.005" rx="3.005" ry="3.005" transform="translate(22.413 17.781)" fill="#ff697f"/>
      <ellipse id="Ellipse_691" data-name="Ellipse 691" cx="3.005" cy="3.005" rx="3.005" ry="3.005" transform="translate(18.788 11.143)" fill="#ff697f"/>
      <ellipse id="Ellipse_692" data-name="Ellipse 692" cx="3.005" cy="3.005" rx="3.005" ry="3.005" transform="translate(35.393 27.334)" fill="#ff697f"/>
      <ellipse id="Ellipse_693" data-name="Ellipse 693" cx="3.005" cy="3.005" rx="3.005" ry="3.005" transform="translate(39.153 33.845)" fill="#ff697f"/>
      <ellipse id="Ellipse_694" data-name="Ellipse 694" cx="3.005" cy="3.005" rx="3.005" ry="3.005" transform="translate(26.91 6.353)" fill="#ff697f"/>
      <ellipse id="Ellipse_695" data-name="Ellipse 695" cx="3.005" cy="3.005" rx="3.005" ry="3.005" transform="translate(30.757 12.837)" fill="#ff697f"/>
      <ellipse id="Ellipse_696" data-name="Ellipse 696" cx="3.005" cy="3.005" rx="3.005" ry="3.005" transform="translate(34.645 19.314)" fill="#ff697f"/>
      <ellipse id="Ellipse_697" data-name="Ellipse 697" cx="3.005" cy="3.005" rx="3.005" ry="3.005" transform="translate(35.663 2.851)" fill="#ff697f"/>
      <ellipse id="Ellipse_698" data-name="Ellipse 698" cx="3.005" cy="3.005" rx="3.005" ry="3.005" transform="translate(39.848 9.452)" fill="#ff697f"/>
      <ellipse id="Ellipse_699" data-name="Ellipse 699" cx="3.005" cy="3.005" rx="3.005" ry="3.005" transform="translate(44.518 23.758)" fill="#ff697f"/>
      <ellipse id="Ellipse_700" data-name="Ellipse 700" cx="3.005" cy="3.005" rx="3.005" ry="3.005" transform="translate(44.214 16.109)" fill="#ff697f"/>
      <ellipse id="Ellipse_701" data-name="Ellipse 701" cx="3.005" cy="3.005" rx="3.005" ry="3.005" transform="translate(49.026 30.483)" fill="#ff697f"/>
      <ellipse id="Ellipse_702" data-name="Ellipse 702" cx="3.005" cy="3.005" rx="3.005" ry="3.005" transform="translate(44.845 0.718)" fill="#ff697f"/>
      <ellipse id="Ellipse_703" data-name="Ellipse 703" cx="3.005" cy="3.005" rx="3.005" ry="3.005" transform="translate(49.394 7.731)" fill="#ff697f"/>
      <ellipse id="Ellipse_704" data-name="Ellipse 704" cx="3.005" cy="3.005" rx="3.005" ry="3.005" transform="translate(54.244)" fill="#ff697f"/>
      <ellipse id="Ellipse_705" data-name="Ellipse 705" cx="3.005" cy="3.005" rx="3.005" ry="3.005" transform="translate(54.244 15.027)" fill="#ff697f"/>
    </g>
    <g id="GUDC" transform="translate(61.916 0.718)">
      <ellipse id="Ellipse_706" data-name="Ellipse 706" cx="3.005" cy="3.005" rx="3.005" ry="3.005" transform="translate(0 21.823)" fill="#6a85f4"/>
      <ellipse id="Ellipse_707" data-name="Ellipse 707" cx="3.005" cy="3.005" rx="3.005" ry="3.005" transform="translate(4.85 7.014)" fill="#6a85f4"/>
      <ellipse id="Ellipse_708" data-name="Ellipse 708" cx="3.005" cy="3.005" rx="3.005" ry="3.005" transform="translate(9.4)" fill="#6a85f4"/>
      <ellipse id="Ellipse_709" data-name="Ellipse 709" cx="3.005" cy="3.005" rx="3.005" ry="3.005" transform="translate(5.218 29.765)" fill="#6a85f4"/>
      <ellipse id="Ellipse_710" data-name="Ellipse 710" cx="3.005" cy="3.005" rx="3.005" ry="3.005" transform="translate(10.031 15.392)" fill="#6a85f4"/>
      <ellipse id="Ellipse_711" data-name="Ellipse 711" cx="3.005" cy="3.005" rx="3.005" ry="3.005" transform="translate(9.726 23.04)" fill="#6a85f4"/>
      <ellipse id="Ellipse_712" data-name="Ellipse 712" cx="3.005" cy="3.005" rx="3.005" ry="3.005" transform="translate(14.396 8.735)" fill="#6a85f4"/>
      <ellipse id="Ellipse_713" data-name="Ellipse 713" cx="3.005" cy="3.005" rx="3.005" ry="3.005" transform="translate(18.581 2.134)" fill="#6a85f4"/>
      <ellipse id="Ellipse_714" data-name="Ellipse 714" cx="3.005" cy="3.005" rx="3.005" ry="3.005" transform="translate(19.599 18.596)" fill="#6a85f4"/>
      <ellipse id="Ellipse_715" data-name="Ellipse 715" cx="3.005" cy="3.005" rx="3.005" ry="3.005" transform="translate(23.487 12.119)" fill="#6a85f4"/>
      <ellipse id="Ellipse_716" data-name="Ellipse 716" cx="3.005" cy="3.005" rx="3.005" ry="3.005" transform="translate(27.334 5.635)" fill="#6a85f4"/>
      <ellipse id="Ellipse_717" data-name="Ellipse 717" cx="3.005" cy="3.005" rx="3.005" ry="3.005" transform="translate(15.091 33.127)" fill="#6a85f4"/>
      <ellipse id="Ellipse_718" data-name="Ellipse 718" cx="3.005" cy="3.005" rx="3.005" ry="3.005" transform="translate(18.852 26.617)" fill="#6a85f4"/>
      <ellipse id="Ellipse_719" data-name="Ellipse 719" cx="3.005" cy="3.005" rx="3.005" ry="3.005" transform="translate(35.457 10.425)" fill="#6a85f4"/>
      <ellipse id="Ellipse_720" data-name="Ellipse 720" cx="3.005" cy="3.005" rx="3.005" ry="3.005" transform="translate(31.831 17.063)" fill="#6a85f4"/>
      <ellipse id="Ellipse_721" data-name="Ellipse 721" cx="3.005" cy="3.005" rx="3.005" ry="3.005" transform="translate(28.262 23.765)" fill="#6a85f4"/>
      <ellipse id="Ellipse_722" data-name="Ellipse 722" cx="3.005" cy="3.005" rx="3.005" ry="3.005" transform="translate(26.812 32.335)" fill="#6a85f4"/>
      <ellipse id="Ellipse_723" data-name="Ellipse 723" cx="3.005" cy="3.005" rx="3.005" ry="3.005" transform="translate(42.756 16.387)" fill="#6a85f4"/>
      <ellipse id="Ellipse_724" data-name="Ellipse 724" cx="3.005" cy="3.005" rx="3.005" ry="3.005" transform="translate(39.168 23.412)" fill="#6a85f4"/>
      <ellipse id="Ellipse_725" data-name="Ellipse 725" cx="3.005" cy="3.005" rx="3.005" ry="3.005" transform="translate(23.356 39.495)" fill="#6a85f4"/>
    </g>
    <g id="GRN" transform="translate(91.046 24.111)">
      <ellipse id="Ellipse_726" data-name="Ellipse 726" cx="3.005" cy="3.005" rx="3.005" ry="3.005" transform="translate(6.492 7.273)" fill="#26286f"/>
      <ellipse id="Ellipse_727" data-name="Ellipse 727" cx="3.005" cy="3.005" rx="3.005" ry="3.005" transform="translate(19.937)" fill="#26286f"/>
      <ellipse id="Ellipse_728" data-name="Ellipse 728" cx="3.005" cy="3.005" rx="3.005" ry="3.005" transform="translate(16.132 7.566)" fill="#26286f"/>
      <ellipse id="Ellipse_729" data-name="Ellipse 729" cx="3.005" cy="3.005" rx="3.005" ry="3.005" transform="translate(3.986 16.447)" fill="#26286f"/>
      <ellipse id="Ellipse_730" data-name="Ellipse 730" cx="3.005" cy="3.005" rx="3.005" ry="3.005" transform="translate(25.114 7.878)" fill="#26286f"/>
      <ellipse id="Ellipse_731" data-name="Ellipse 731" cx="3.005" cy="3.005" rx="3.005" ry="3.005" transform="translate(12.206 15.591)" fill="#26286f"/>
      <ellipse id="Ellipse_732" data-name="Ellipse 732" cx="3.005" cy="3.005" rx="3.005" ry="3.005" transform="translate(0 24.791)" fill="#26286f"/>
      <ellipse id="Ellipse_733" data-name="Ellipse 733" cx="3.005" cy="3.005" rx="3.005" ry="3.005" transform="translate(20.79 16.075)" fill="#26286f"/>
      <ellipse id="Ellipse_734" data-name="Ellipse 734" cx="3.005" cy="3.005" rx="3.005" ry="3.005" transform="translate(29.036 16.451)" fill="#26286f"/>
      <ellipse id="Ellipse_735" data-name="Ellipse 735" cx="3.005" cy="3.005" rx="3.005" ry="3.005" transform="translate(8.25 25.272)" fill="#26286f"/>
      <ellipse id="Ellipse_736" data-name="Ellipse 736" cx="3.005" cy="3.005" rx="3.005" ry="3.005" transform="translate(16.011 24.934)" fill="#26286f"/>
      <ellipse id="Ellipse_737" data-name="Ellipse 737" cx="3.005" cy="3.005" rx="3.005" ry="3.005" transform="translate(23.867 25.276)" fill="#26286f"/>
      <ellipse id="Ellipse_738" data-name="Ellipse 738" cx="3.005" cy="3.005" rx="3.005" ry="3.005" transform="translate(31.613 25.52)" fill="#26286f"/>
      <ellipse id="Ellipse_739" data-name="Ellipse 739" cx="3.005" cy="3.005" rx="3.005" ry="3.005" transform="translate(2.66 34.878)" fill="#26286f"/>
      <ellipse id="Ellipse_740" data-name="Ellipse 740" cx="3.005" cy="3.005" rx="3.005" ry="3.005" transform="translate(10.203 34.878)" fill="#26286f"/>
    </g>
    <g id="NI" transform="translate(108.778 58.985)">
      <ellipse id="Ellipse_741" data-name="Ellipse 741" cx="3.005" cy="3.005" rx="3.005" ry="3.005" fill="#dedede"/>
      <ellipse id="Ellipse_742" data-name="Ellipse 742" cx="3.005" cy="3.005" rx="3.005" ry="3.005" transform="translate(7.529)" fill="#dedede"/>
      <ellipse id="Ellipse_743" data-name="Ellipse 743" cx="3.005" cy="3.005" rx="3.005" ry="3.005" transform="translate(15.053)" fill="#dedede"/>
    </g>
  </g>
</svg>
