<svg xmlns="http://www.w3.org/2000/svg" xmlns:xlink="http://www.w3.org/1999/xlink" width="130" height="65" viewBox="0 0 130 65">
  <defs>
    <clipPath id="clip-_._assets_seats-viz-guy">
      <rect width="130" height="65"/>
    </clipPath>
  </defs>
  <g id="_._assets_seats-viz-guy" data-name="./assets/seats-viz-guy" clip-path="url(#clip-_._assets_seats-viz-guy)">
    <rect width="130" height="65" fill="#fff"/>
    <text id="_51" data-name="51" transform="translate(65 64)" font-size="21" font-family="LibeSansSemiCondensed-Bold, LibeSans SemiCondensed" font-weight="700"><tspan x="-7.959" y="0">51</tspan></text>
    <g id="AlainTien-Liong" transform="translate(0 16.621)">
      <circle id="Ellipse_2151" data-name="Ellipse 2151" cx="3.767" cy="3.767" r="3.767" transform="translate(0 40.833)" fill="#fda7b4"/>
      <circle id="Ellipse_2152" data-name="Ellipse 2152" cx="3.767" cy="3.767" r="3.767" transform="translate(9.437 40.837)" fill="#fda7b4"/>
      <circle id="Ellipse_2153" data-name="Ellipse 2153" cx="3.767" cy="3.767" r="3.767" transform="translate(18.885 40.841)" fill="#fda7b4"/>
      <circle id="Ellipse_2154" data-name="Ellipse 2154" cx="3.767" cy="3.767" r="3.767" transform="translate(28.352 40.844)" fill="#fda7b4"/>
      <circle id="Ellipse_2155" data-name="Ellipse 2155" cx="3.767" cy="3.767" r="3.767" transform="translate(1.789 29.441)" fill="#fda7b4"/>
      <circle id="Ellipse_2156" data-name="Ellipse 2156" cx="3.767" cy="3.767" r="3.767" transform="translate(11.663 29.132)" fill="#fda7b4"/>
      <circle id="Ellipse_2157" data-name="Ellipse 2157" cx="3.767" cy="3.767" r="3.767" transform="translate(21.824 28.672)" fill="#fda7b4"/>
      <circle id="Ellipse_2158" data-name="Ellipse 2158" cx="3.767" cy="3.767" r="3.767" transform="translate(5.685 18.588)" fill="#fda7b4"/>
      <circle id="Ellipse_2159" data-name="Ellipse 2159" cx="3.767" cy="3.767" r="3.767" transform="translate(31.837 29.426)" fill="#fda7b4"/>
      <circle id="Ellipse_2160" data-name="Ellipse 2160" cx="3.767" cy="3.767" r="3.767" transform="translate(16.504 18.249)" fill="#fda7b4"/>
      <circle id="Ellipse_2161" data-name="Ellipse 2161" cx="3.767" cy="3.767" r="3.767" transform="translate(11.547 8.653)" fill="#fda7b4"/>
      <circle id="Ellipse_2162" data-name="Ellipse 2162" cx="3.767" cy="3.767" r="3.767" transform="translate(28.19 17.894)" fill="#fda7b4"/>
      <circle id="Ellipse_2163" data-name="Ellipse 2163" cx="3.767" cy="3.767" r="3.767" transform="translate(23.703 8.755)" fill="#fda7b4"/>
      <circle id="Ellipse_2164" data-name="Ellipse 2164" cx="3.767" cy="3.767" r="3.767" transform="translate(19.164)" fill="#fda7b4"/>
      <circle id="Ellipse_2165" data-name="Ellipse 2165" cx="3.767" cy="3.767" r="3.767" transform="translate(39.157 19.997)" fill="#fda7b4"/>
      <circle id="Ellipse_2166" data-name="Ellipse 2166" cx="3.767" cy="3.767" r="3.767" transform="translate(37.424 9.448)" fill="#fda7b4"/>
    </g>
    <g id="RodolpheAlexandre" transform="translate(28.273)">
      <circle id="Ellipse_2167" data-name="Ellipse 2167" cx="3.767" cy="3.767" r="3.767" transform="translate(4.604 17.781)" fill="#ff994e"/>
      <circle id="Ellipse_2168" data-name="Ellipse 2168" cx="3.767" cy="3.767" r="3.767" transform="translate(0 9.546)" fill="#ff994e"/>
      <circle id="Ellipse_2169" data-name="Ellipse 2169" cx="3.767" cy="3.767" r="3.767" transform="translate(10.273 4.306)" fill="#ff994e"/>
      <circle id="Ellipse_2170" data-name="Ellipse 2170" cx="3.767" cy="3.767" r="3.767" transform="translate(21.085 30.417)" fill="#ff994e"/>
      <circle id="Ellipse_2171" data-name="Ellipse 2171" cx="3.767" cy="3.767" r="3.767" transform="translate(15.272 12.485)" fill="#ff994e"/>
      <circle id="Ellipse_2172" data-name="Ellipse 2172" cx="3.767" cy="3.767" r="3.767" transform="translate(20.449 20.686)" fill="#ff994e"/>
      <circle id="Ellipse_2173" data-name="Ellipse 2173" cx="3.767" cy="3.767" r="3.767" transform="translate(21.345 1.085)" fill="#ff994e"/>
      <circle id="Ellipse_2174" data-name="Ellipse 2174" cx="3.767" cy="3.767" r="3.767" transform="translate(26.872 9.761)" fill="#ff994e"/>
      <circle id="Ellipse_2175" data-name="Ellipse 2175" cx="3.767" cy="3.767" r="3.767" transform="translate(32.828)" fill="#ff994e"/>
      <circle id="Ellipse_2176" data-name="Ellipse 2176" cx="3.767" cy="3.767" r="3.767" transform="translate(32.828 18.836)" fill="#ff994e"/>
      <circle id="Ellipse_2177" data-name="Ellipse 2177" cx="3.767" cy="3.767" r="3.767" transform="translate(32.828 28.254)" fill="#ff994e"/>
      <circle id="Ellipse_2178" data-name="Ellipse 2178" cx="3.767" cy="3.767" r="3.767" transform="translate(38.784 9.761)" fill="#ff994e"/>
      <circle id="Ellipse_2179" data-name="Ellipse 2179" cx="3.767" cy="3.767" r="3.767" transform="translate(44.31 1.085)" fill="#ff994e"/>
      <circle id="Ellipse_2180" data-name="Ellipse 2180" cx="3.767" cy="3.767" r="3.767" transform="translate(45.207 20.686)" fill="#ff994e"/>
      <circle id="Ellipse_2181" data-name="Ellipse 2181" cx="3.767" cy="3.767" r="3.767" transform="translate(50.383 12.485)" fill="#ff994e"/>
      <circle id="Ellipse_2182" data-name="Ellipse 2182" cx="3.767" cy="3.767" r="3.767" transform="translate(44.57 30.417)" fill="#ff994e"/>
      <circle id="Ellipse_2183" data-name="Ellipse 2183" cx="3.767" cy="3.767" r="3.767" transform="translate(55.382 4.306)" fill="#ff994e"/>
      <circle id="Ellipse_2184" data-name="Ellipse 2184" cx="3.767" cy="3.767" r="3.767" transform="translate(65.656 9.546)" fill="#ff994e"/>
      <circle id="Ellipse_2185" data-name="Ellipse 2185" cx="3.767" cy="3.767" r="3.767" transform="translate(61.052 17.781)" fill="#ff994e"/>
      <circle id="Ellipse_2186" data-name="Ellipse 2186" cx="3.767" cy="3.767" r="3.767" transform="translate(56.505 26.069)" fill="#ff994e"/>
      <circle id="Ellipse_2187" data-name="Ellipse 2187" cx="3.767" cy="3.767" r="3.767" transform="translate(54.772 36.618)" fill="#ff994e"/>
      <circle id="Ellipse_2188" data-name="Ellipse 2188" cx="3.767" cy="3.767" r="3.767" transform="translate(74.765 16.621)" fill="#ff994e"/>
      <circle id="Ellipse_2189" data-name="Ellipse 2189" cx="3.767" cy="3.767" r="3.767" transform="translate(70.225 25.376)" fill="#ff994e"/>
      <circle id="Ellipse_2190" data-name="Ellipse 2190" cx="3.767" cy="3.767" r="3.767" transform="translate(65.738 34.515)" fill="#ff994e"/>
      <circle id="Ellipse_2191" data-name="Ellipse 2191" cx="3.767" cy="3.767" r="3.767" transform="translate(82.382 25.274)" fill="#ff994e"/>
      <circle id="Ellipse_2192" data-name="Ellipse 2192" cx="3.767" cy="3.767" r="3.767" transform="translate(77.424 34.87)" fill="#ff994e"/>
      <circle id="Ellipse_2193" data-name="Ellipse 2193" cx="3.767" cy="3.767" r="3.767" transform="translate(62.092 46.047)" fill="#ff994e"/>
      <circle id="Ellipse_2194" data-name="Ellipse 2194" cx="3.767" cy="3.767" r="3.767" transform="translate(88.244 35.209)" fill="#ff994e"/>
      <circle id="Ellipse_2195" data-name="Ellipse 2195" cx="3.767" cy="3.767" r="3.767" transform="translate(72.105 45.294)" fill="#ff994e"/>
      <circle id="Ellipse_2196" data-name="Ellipse 2196" cx="3.767" cy="3.767" r="3.767" transform="translate(82.265 45.753)" fill="#ff994e"/>
      <circle id="Ellipse_2197" data-name="Ellipse 2197" cx="3.767" cy="3.767" r="3.767" transform="translate(92.139 46.062)" fill="#ff994e"/>
      <circle id="Ellipse_2198" data-name="Ellipse 2198" cx="3.767" cy="3.767" r="3.767" transform="translate(65.576 57.466)" fill="#ff994e"/>
      <circle id="Ellipse_2199" data-name="Ellipse 2199" cx="3.767" cy="3.767" r="3.767" transform="translate(75.043 57.462)" fill="#ff994e"/>
      <circle id="Ellipse_2200" data-name="Ellipse 2200" cx="3.767" cy="3.767" r="3.767" transform="translate(84.492 57.458)" fill="#ff994e"/>
      <circle id="Ellipse_2201" data-name="Ellipse 2201" cx="3.767" cy="3.767" r="3.767" transform="translate(93.929 57.454)" fill="#ff994e"/>
    </g>
  </g>
</svg>
