<svg xmlns="http://www.w3.org/2000/svg" xmlns:xlink="http://www.w3.org/1999/xlink" width="130" height="65" viewBox="0 0 130 65">
  <defs>
    <clipPath id="clip-_._assets_seats-viz-pac">
      <rect width="130" height="65"/>
    </clipPath>
  </defs>
  <g id="_._assets_seats-viz-pac" data-name="./assets/seats-viz-pac" clip-path="url(#clip-_._assets_seats-viz-pac)">
    <rect width="130" height="65" fill="#fff"/>
    <text id="_123" data-name="123" transform="translate(65 64)" font-size="21" font-family="LibeSansSemiCondensed-Bold, LibeSans SemiCondensed" font-weight="700"><tspan x="-13.345" y="0">123</tspan></text>
    <g id="UPR">
      <ellipse id="Ellipse_1914" data-name="Ellipse 1914" cx="2.503" cy="2.503" rx="2.503" ry="2.503" transform="translate(0 59.949)" fill="#6a85f4"/>
      <ellipse id="Ellipse_1915" data-name="Ellipse 1915" cx="2.503" cy="2.503" rx="2.503" ry="2.503" transform="translate(6.26 59.949)" fill="#6a85f4"/>
      <ellipse id="Ellipse_1916" data-name="Ellipse 1916" cx="2.503" cy="2.503" rx="2.503" ry="2.503" transform="translate(12.52 59.949)" fill="#6a85f4"/>
      <ellipse id="Ellipse_1917" data-name="Ellipse 1917" cx="2.503" cy="2.503" rx="2.503" ry="2.503" transform="translate(18.783 59.949)" fill="#6a85f4"/>
      <ellipse id="Ellipse_1918" data-name="Ellipse 1918" cx="2.503" cy="2.503" rx="2.503" ry="2.503" transform="translate(25.051 59.949)" fill="#6a85f4"/>
      <ellipse id="Ellipse_1919" data-name="Ellipse 1919" cx="2.503" cy="2.503" rx="2.503" ry="2.503" transform="translate(31.322 59.952)" fill="#6a85f4"/>
      <ellipse id="Ellipse_1920" data-name="Ellipse 1920" cx="2.503" cy="2.503" rx="2.503" ry="2.503" transform="translate(0.683 52.893)" fill="#6a85f4"/>
      <ellipse id="Ellipse_1921" data-name="Ellipse 1921" cx="2.503" cy="2.503" rx="2.503" ry="2.503" transform="translate(7.029 52.833)" fill="#6a85f4"/>
      <ellipse id="Ellipse_1922" data-name="Ellipse 1922" cx="2.503" cy="2.503" rx="2.503" ry="2.503" transform="translate(13.405 52.762)" fill="#6a85f4"/>
      <ellipse id="Ellipse_1923" data-name="Ellipse 1923" cx="2.503" cy="2.503" rx="2.503" ry="2.503" transform="translate(19.819 52.668)" fill="#6a85f4"/>
      <ellipse id="Ellipse_1924" data-name="Ellipse 1924" cx="2.503" cy="2.503" rx="2.503" ry="2.503" transform="translate(2.162 45.958)" fill="#6a85f4"/>
      <ellipse id="Ellipse_1925" data-name="Ellipse 1925" cx="2.503" cy="2.503" rx="2.503" ry="2.503" transform="translate(26.3 52.54)" fill="#6a85f4"/>
      <ellipse id="Ellipse_1926" data-name="Ellipse 1926" cx="2.503" cy="2.503" rx="2.503" ry="2.503" transform="translate(8.699 45.875)" fill="#6a85f4"/>
      <ellipse id="Ellipse_1927" data-name="Ellipse 1927" cx="2.503" cy="2.503" rx="2.503" ry="2.503" transform="translate(32.894 52.36)" fill="#6a85f4"/>
      <ellipse id="Ellipse_1928" data-name="Ellipse 1928" cx="2.503" cy="2.503" rx="2.503" ry="2.503" transform="translate(15.316 45.778)" fill="#6a85f4"/>
      <ellipse id="Ellipse_1929" data-name="Ellipse 1929" cx="2.503" cy="2.503" rx="2.503" ry="2.503" transform="translate(4.413 39.236)" fill="#6a85f4"/>
      <ellipse id="Ellipse_1930" data-name="Ellipse 1930" cx="2.503" cy="2.503" rx="2.503" ry="2.503" transform="translate(22.059 45.661)" fill="#6a85f4"/>
      <ellipse id="Ellipse_1931" data-name="Ellipse 1931" cx="2.503" cy="2.503" rx="2.503" ry="2.503" transform="translate(11.236 39.184)" fill="#6a85f4"/>
      <ellipse id="Ellipse_1932" data-name="Ellipse 1932" cx="2.503" cy="2.503" rx="2.503" ry="2.503" transform="translate(28.999 45.526)" fill="#6a85f4"/>
      <ellipse id="Ellipse_1933" data-name="Ellipse 1933" cx="2.503" cy="2.503" rx="2.503" ry="2.503" transform="translate(18.217 39.143)" fill="#6a85f4"/>
      <ellipse id="Ellipse_1934" data-name="Ellipse 1934" cx="2.503" cy="2.503" rx="2.503" ry="2.503" transform="translate(7.412 32.815)" fill="#6a85f4"/>
      <ellipse id="Ellipse_1935" data-name="Ellipse 1935" cx="2.503" cy="2.503" rx="2.503" ry="2.503" transform="translate(14.599 32.871)" fill="#6a85f4"/>
      <ellipse id="Ellipse_1936" data-name="Ellipse 1936" cx="2.503" cy="2.503" rx="2.503" ry="2.503" transform="translate(25.441 39.128)" fill="#6a85f4"/>
      <ellipse id="Ellipse_1937" data-name="Ellipse 1937" cx="2.503" cy="2.503" rx="2.503" ry="2.503" transform="translate(36.283 45.391)" fill="#6a85f4"/>
      <ellipse id="Ellipse_1938" data-name="Ellipse 1938" cx="2.503" cy="2.503" rx="2.503" ry="2.503" transform="translate(11.12 26.773)" fill="#6a85f4"/>
      <ellipse id="Ellipse_1939" data-name="Ellipse 1939" cx="2.503" cy="2.503" rx="2.503" ry="2.503" transform="translate(22.044 32.995)" fill="#6a85f4"/>
      <ellipse id="Ellipse_1940" data-name="Ellipse 1940" cx="2.503" cy="2.503" rx="2.503" ry="2.503" transform="translate(33.04 39.195)" fill="#6a85f4"/>
      <ellipse id="Ellipse_1941" data-name="Ellipse 1941" cx="2.503" cy="2.503" rx="2.503" ry="2.503" transform="translate(18.738 27.032)" fill="#6a85f4"/>
      <ellipse id="Ellipse_1942" data-name="Ellipse 1942" cx="2.503" cy="2.503" rx="2.503" ry="2.503" transform="translate(15.488 21.189)" fill="#6a85f4"/>
      <ellipse id="Ellipse_1943" data-name="Ellipse 1943" cx="2.503" cy="2.503" rx="2.503" ry="2.503" transform="translate(29.865 33.254)" fill="#6a85f4"/>
      <ellipse id="Ellipse_1944" data-name="Ellipse 1944" cx="2.503" cy="2.503" rx="2.503" ry="2.503" transform="translate(26.721 27.464)" fill="#6a85f4"/>
      <ellipse id="Ellipse_1945" data-name="Ellipse 1945" cx="2.503" cy="2.503" rx="2.503" ry="2.503" transform="translate(23.587 21.767)" fill="#6a85f4"/>
      <ellipse id="Ellipse_1946" data-name="Ellipse 1946" cx="2.503" cy="2.503" rx="2.503" ry="2.503" transform="translate(41.286 39.469)" fill="#6a85f4"/>
      <ellipse id="Ellipse_1947" data-name="Ellipse 1947" cx="2.503" cy="2.503" rx="2.503" ry="2.503" transform="translate(20.457 16.134)" fill="#6a85f4"/>
      <ellipse id="Ellipse_1948" data-name="Ellipse 1948" cx="2.503" cy="2.503" rx="2.503" ry="2.503" transform="translate(38.264 33.791)" fill="#6a85f4"/>
      <ellipse id="Ellipse_1949" data-name="Ellipse 1949" cx="2.503" cy="2.503" rx="2.503" ry="2.503" transform="translate(35.213 28.203)" fill="#6a85f4"/>
      <ellipse id="Ellipse_1950" data-name="Ellipse 1950" cx="2.503" cy="2.503" rx="2.503" ry="2.503" transform="translate(32.143 22.667)" fill="#6a85f4"/>
      <ellipse id="Ellipse_1951" data-name="Ellipse 1951" cx="2.503" cy="2.503" rx="2.503" ry="2.503" transform="translate(29.059 17.162)" fill="#6a85f4"/>
      <ellipse id="Ellipse_1952" data-name="Ellipse 1952" cx="2.503" cy="2.503" rx="2.503" ry="2.503" transform="translate(25.966 11.675)" fill="#6a85f4"/>
      <ellipse id="Ellipse_1953" data-name="Ellipse 1953" cx="2.503" cy="2.503" rx="2.503" ry="2.503" transform="translate(31.948 7.866)" fill="#6a85f4"/>
      <ellipse id="Ellipse_1954" data-name="Ellipse 1954" cx="2.503" cy="2.503" rx="2.503" ry="2.503" transform="translate(35.074 13.285)" fill="#6a85f4"/>
      <ellipse id="Ellipse_1955" data-name="Ellipse 1955" cx="2.503" cy="2.503" rx="2.503" ry="2.503" transform="translate(38.204 18.704)" fill="#6a85f4"/>
      <ellipse id="Ellipse_1956" data-name="Ellipse 1956" cx="2.503" cy="2.503" rx="2.503" ry="2.503" transform="translate(41.331 24.12)" fill="#6a85f4"/>
      <ellipse id="Ellipse_1957" data-name="Ellipse 1957" cx="2.503" cy="2.503" rx="2.503" ry="2.503" transform="translate(44.46 29.539)" fill="#6a85f4"/>
      <ellipse id="Ellipse_1958" data-name="Ellipse 1958" cx="2.503" cy="2.503" rx="2.503" ry="2.503" transform="translate(47.587 34.958)" fill="#6a85f4"/>
      <ellipse id="Ellipse_1959" data-name="Ellipse 1959" cx="2.503" cy="2.503" rx="2.503" ry="2.503" transform="translate(38.321 4.762)" fill="#6a85f4"/>
      <ellipse id="Ellipse_1960" data-name="Ellipse 1960" cx="2.503" cy="2.503" rx="2.503" ry="2.503" transform="translate(41.533 10.204)" fill="#6a85f4"/>
      <ellipse id="Ellipse_1961" data-name="Ellipse 1961" cx="2.503" cy="2.503" rx="2.503" ry="2.503" transform="translate(44.772 15.653)" fill="#6a85f4"/>
      <ellipse id="Ellipse_1962" data-name="Ellipse 1962" cx="2.503" cy="2.503" rx="2.503" ry="2.503" transform="translate(48.044 21.117)" fill="#6a85f4"/>
      <ellipse id="Ellipse_1963" data-name="Ellipse 1963" cx="2.503" cy="2.503" rx="2.503" ry="2.503" transform="translate(51.377 26.604)" fill="#6a85f4"/>
      <ellipse id="Ellipse_1964" data-name="Ellipse 1964" cx="2.503" cy="2.503" rx="2.503" ry="2.503" transform="translate(45.001 2.398)" fill="#6a85f4"/>
      <ellipse id="Ellipse_1965" data-name="Ellipse 1965" cx="2.503" cy="2.503" rx="2.503" ry="2.503" transform="translate(48.33 7.967)" fill="#6a85f4"/>
      <ellipse id="Ellipse_1966" data-name="Ellipse 1966" cx="2.503" cy="2.503" rx="2.503" ry="2.503" transform="translate(54.807 32.136)" fill="#6a85f4"/>
      <ellipse id="Ellipse_1967" data-name="Ellipse 1967" cx="2.503" cy="2.503" rx="2.503" ry="2.503" transform="translate(51.711 13.585)" fill="#6a85f4"/>
      <ellipse id="Ellipse_1968" data-name="Ellipse 1968" cx="2.503" cy="2.503" rx="2.503" ry="2.503" transform="translate(51.91 0.803)" fill="#6a85f4"/>
      <ellipse id="Ellipse_1969" data-name="Ellipse 1969" cx="2.503" cy="2.503" rx="2.503" ry="2.503" transform="translate(55.167 19.282)" fill="#6a85f4"/>
      <ellipse id="Ellipse_1970" data-name="Ellipse 1970" cx="2.503" cy="2.503" rx="2.503" ry="2.503" transform="translate(55.355 6.609)" fill="#6a85f4"/>
      <ellipse id="Ellipse_1971" data-name="Ellipse 1971" cx="2.503" cy="2.503" rx="2.503" ry="2.503" transform="translate(58.74 25.107)" fill="#6a85f4"/>
      <ellipse id="Ellipse_1972" data-name="Ellipse 1972" cx="2.503" cy="2.503" rx="2.503" ry="2.503" transform="translate(58.875 12.542)" fill="#6a85f4"/>
      <ellipse id="Ellipse_1973" data-name="Ellipse 1973" cx="2.503" cy="2.503" rx="2.503" ry="2.503" transform="translate(58.954)" fill="#6a85f4"/>
      <ellipse id="Ellipse_1974" data-name="Ellipse 1974" cx="2.503" cy="2.503" rx="2.503" ry="2.503" transform="translate(62.497 6.155)" fill="#6a85f4"/>
      <ellipse id="Ellipse_1975" data-name="Ellipse 1975" cx="2.503" cy="2.503" rx="2.503" ry="2.503" transform="translate(62.497 18.663)" fill="#6a85f4"/>
      <ellipse id="Ellipse_1976" data-name="Ellipse 1976" cx="2.503" cy="2.503" rx="2.503" ry="2.503" transform="translate(62.497 31.175)" fill="#6a85f4"/>
      <ellipse id="Ellipse_1977" data-name="Ellipse 1977" cx="2.503" cy="2.503" rx="2.503" ry="2.503" transform="translate(66.04)" fill="#6a85f4"/>
      <ellipse id="Ellipse_1978" data-name="Ellipse 1978" cx="2.503" cy="2.503" rx="2.503" ry="2.503" transform="translate(66.118 12.542)" fill="#6a85f4"/>
      <ellipse id="Ellipse_1979" data-name="Ellipse 1979" cx="2.503" cy="2.503" rx="2.503" ry="2.503" transform="translate(66.253 25.107)" fill="#6a85f4"/>
      <ellipse id="Ellipse_1980" data-name="Ellipse 1980" cx="2.503" cy="2.503" rx="2.503" ry="2.503" transform="translate(69.639 6.609)" fill="#6a85f4"/>
      <ellipse id="Ellipse_1981" data-name="Ellipse 1981" cx="2.503" cy="2.503" rx="2.503" ry="2.503" transform="translate(69.826 19.282)" fill="#6a85f4"/>
      <ellipse id="Ellipse_1982" data-name="Ellipse 1982" cx="2.503" cy="2.503" rx="2.503" ry="2.503" transform="translate(73.084 0.803)" fill="#6a85f4"/>
      <ellipse id="Ellipse_1983" data-name="Ellipse 1983" cx="2.503" cy="2.503" rx="2.503" ry="2.503" transform="translate(73.283 13.585)" fill="#6a85f4"/>
      <ellipse id="Ellipse_1984" data-name="Ellipse 1984" cx="2.503" cy="2.503" rx="2.503" ry="2.503" transform="translate(70.187 32.136)" fill="#6a85f4"/>
      <ellipse id="Ellipse_1985" data-name="Ellipse 1985" cx="2.503" cy="2.503" rx="2.503" ry="2.503" transform="translate(76.664 7.967)" fill="#6a85f4"/>
      <ellipse id="Ellipse_1986" data-name="Ellipse 1986" cx="2.503" cy="2.503" rx="2.503" ry="2.503" transform="translate(79.993 2.398)" fill="#6a85f4"/>
      <ellipse id="Ellipse_1987" data-name="Ellipse 1987" cx="2.503" cy="2.503" rx="2.503" ry="2.503" transform="translate(73.617 26.604)" fill="#6a85f4"/>
      <ellipse id="Ellipse_1988" data-name="Ellipse 1988" cx="2.503" cy="2.503" rx="2.503" ry="2.503" transform="translate(76.949 21.117)" fill="#6a85f4"/>
      <ellipse id="Ellipse_1989" data-name="Ellipse 1989" cx="2.503" cy="2.503" rx="2.503" ry="2.503" transform="translate(80.222 15.653)" fill="#6a85f4"/>
      <ellipse id="Ellipse_1990" data-name="Ellipse 1990" cx="2.503" cy="2.503" rx="2.503" ry="2.503" transform="translate(83.46 10.204)" fill="#6a85f4"/>
      <ellipse id="Ellipse_1991" data-name="Ellipse 1991" cx="2.503" cy="2.503" rx="2.503" ry="2.503" transform="translate(86.673 4.762)" fill="#6a85f4"/>
    </g>
    <g id="RN" transform="translate(77.407 7.866)">
      <ellipse id="Ellipse_1992" data-name="Ellipse 1992" cx="2.503" cy="2.503" rx="2.503" ry="2.503" transform="translate(0 27.092)" fill="#26286f"/>
      <ellipse id="Ellipse_1993" data-name="Ellipse 1993" cx="2.503" cy="2.503" rx="2.503" ry="2.503" transform="translate(3.126 21.673)" fill="#26286f"/>
      <ellipse id="Ellipse_1994" data-name="Ellipse 1994" cx="2.503" cy="2.503" rx="2.503" ry="2.503" transform="translate(6.256 16.254)" fill="#26286f"/>
      <ellipse id="Ellipse_1995" data-name="Ellipse 1995" cx="2.503" cy="2.503" rx="2.503" ry="2.503" transform="translate(9.382 10.838)" fill="#26286f"/>
      <ellipse id="Ellipse_1996" data-name="Ellipse 1996" cx="2.503" cy="2.503" rx="2.503" ry="2.503" transform="translate(12.512 5.419)" fill="#26286f"/>
      <ellipse id="Ellipse_1997" data-name="Ellipse 1997" cx="2.503" cy="2.503" rx="2.503" ry="2.503" transform="translate(15.638)" fill="#26286f"/>
      <ellipse id="Ellipse_1998" data-name="Ellipse 1998" cx="2.503" cy="2.503" rx="2.503" ry="2.503" transform="translate(21.62 3.809)" fill="#26286f"/>
      <ellipse id="Ellipse_1999" data-name="Ellipse 1999" cx="2.503" cy="2.503" rx="2.503" ry="2.503" transform="translate(18.528 9.296)" fill="#26286f"/>
      <ellipse id="Ellipse_2000" data-name="Ellipse 2000" cx="2.503" cy="2.503" rx="2.503" ry="2.503" transform="translate(15.443 14.801)" fill="#26286f"/>
      <ellipse id="Ellipse_2001" data-name="Ellipse 2001" cx="2.503" cy="2.503" rx="2.503" ry="2.503" transform="translate(12.373 20.337)" fill="#26286f"/>
      <ellipse id="Ellipse_2002" data-name="Ellipse 2002" cx="2.503" cy="2.503" rx="2.503" ry="2.503" transform="translate(9.322 25.925)" fill="#26286f"/>
      <ellipse id="Ellipse_2003" data-name="Ellipse 2003" cx="2.503" cy="2.503" rx="2.503" ry="2.503" transform="translate(27.13 8.268)" fill="#26286f"/>
      <ellipse id="Ellipse_2004" data-name="Ellipse 2004" cx="2.503" cy="2.503" rx="2.503" ry="2.503" transform="translate(6.301 31.603)" fill="#26286f"/>
      <ellipse id="Ellipse_2005" data-name="Ellipse 2005" cx="2.503" cy="2.503" rx="2.503" ry="2.503" transform="translate(24 13.901)" fill="#26286f"/>
      <ellipse id="Ellipse_2006" data-name="Ellipse 2006" cx="2.503" cy="2.503" rx="2.503" ry="2.503" transform="translate(20.866 19.598)" fill="#26286f"/>
      <ellipse id="Ellipse_2007" data-name="Ellipse 2007" cx="2.503" cy="2.503" rx="2.503" ry="2.503" transform="translate(17.721 25.388)" fill="#26286f"/>
      <ellipse id="Ellipse_2008" data-name="Ellipse 2008" cx="2.503" cy="2.503" rx="2.503" ry="2.503" transform="translate(32.098 13.323)" fill="#26286f"/>
      <ellipse id="Ellipse_2009" data-name="Ellipse 2009" cx="2.503" cy="2.503" rx="2.503" ry="2.503" transform="translate(28.848 19.166)" fill="#26286f"/>
      <ellipse id="Ellipse_2010" data-name="Ellipse 2010" cx="2.503" cy="2.503" rx="2.503" ry="2.503" transform="translate(14.546 31.329)" fill="#26286f"/>
      <ellipse id="Ellipse_2011" data-name="Ellipse 2011" cx="2.503" cy="2.503" rx="2.503" ry="2.503" transform="translate(25.542 25.129)" fill="#26286f"/>
      <ellipse id="Ellipse_2012" data-name="Ellipse 2012" cx="2.503" cy="2.503" rx="2.503" ry="2.503" transform="translate(36.467 18.907)" fill="#26286f"/>
      <ellipse id="Ellipse_2013" data-name="Ellipse 2013" cx="2.503" cy="2.503" rx="2.503" ry="2.503" transform="translate(11.304 37.525)" fill="#26286f"/>
      <ellipse id="Ellipse_2014" data-name="Ellipse 2014" cx="2.503" cy="2.503" rx="2.503" ry="2.503" transform="translate(22.146 31.262)" fill="#26286f"/>
      <ellipse id="Ellipse_2015" data-name="Ellipse 2015" cx="2.503" cy="2.503" rx="2.503" ry="2.503" transform="translate(32.988 25.005)" fill="#26286f"/>
      <ellipse id="Ellipse_2016" data-name="Ellipse 2016" cx="2.503" cy="2.503" rx="2.503" ry="2.503" transform="translate(40.175 24.949)" fill="#26286f"/>
      <ellipse id="Ellipse_2017" data-name="Ellipse 2017" cx="2.503" cy="2.503" rx="2.503" ry="2.503" transform="translate(29.37 31.277)" fill="#26286f"/>
      <ellipse id="Ellipse_2018" data-name="Ellipse 2018" cx="2.503" cy="2.503" rx="2.503" ry="2.503" transform="translate(18.588 37.66)" fill="#26286f"/>
      <ellipse id="Ellipse_2019" data-name="Ellipse 2019" cx="2.503" cy="2.503" rx="2.503" ry="2.503" transform="translate(36.35 31.318)" fill="#26286f"/>
      <ellipse id="Ellipse_2020" data-name="Ellipse 2020" cx="2.503" cy="2.503" rx="2.503" ry="2.503" transform="translate(25.527 37.795)" fill="#26286f"/>
      <ellipse id="Ellipse_2021" data-name="Ellipse 2021" cx="2.503" cy="2.503" rx="2.503" ry="2.503" transform="translate(43.173 31.37)" fill="#26286f"/>
      <ellipse id="Ellipse_2022" data-name="Ellipse 2022" cx="2.503" cy="2.503" rx="2.503" ry="2.503" transform="translate(32.271 37.912)" fill="#26286f"/>
      <ellipse id="Ellipse_2023" data-name="Ellipse 2023" cx="2.503" cy="2.503" rx="2.503" ry="2.503" transform="translate(14.693 44.494)" fill="#26286f"/>
      <ellipse id="Ellipse_2024" data-name="Ellipse 2024" cx="2.503" cy="2.503" rx="2.503" ry="2.503" transform="translate(38.887 38.009)" fill="#26286f"/>
    </g>
    <g id="NI" transform="translate(93.672 45.958)">
      <ellipse id="Ellipse_2025" data-name="Ellipse 2025" cx="2.503" cy="2.503" rx="2.503" ry="2.503" transform="translate(5.021 6.583)" fill="#dedede"/>
      <ellipse id="Ellipse_2026" data-name="Ellipse 2026" cx="2.503" cy="2.503" rx="2.503" ry="2.503" transform="translate(29.16)" fill="#dedede"/>
      <ellipse id="Ellipse_2027" data-name="Ellipse 2027" cx="2.503" cy="2.503" rx="2.503" ry="2.503" transform="translate(11.503 6.71)" fill="#dedede"/>
      <ellipse id="Ellipse_2028" data-name="Ellipse 2028" cx="2.503" cy="2.503" rx="2.503" ry="2.503" transform="translate(17.916 6.804)" fill="#dedede"/>
      <ellipse id="Ellipse_2029" data-name="Ellipse 2029" cx="2.503" cy="2.503" rx="2.503" ry="2.503" transform="translate(24.292 6.875)" fill="#dedede"/>
      <ellipse id="Ellipse_2030" data-name="Ellipse 2030" cx="2.503" cy="2.503" rx="2.503" ry="2.503" transform="translate(30.639 6.935)" fill="#dedede"/>
      <ellipse id="Ellipse_2031" data-name="Ellipse 2031" cx="2.503" cy="2.503" rx="2.503" ry="2.503" transform="translate(0 13.994)" fill="#dedede"/>
      <ellipse id="Ellipse_2032" data-name="Ellipse 2032" cx="2.503" cy="2.503" rx="2.503" ry="2.503" transform="translate(6.271 13.991)" fill="#dedede"/>
      <ellipse id="Ellipse_2033" data-name="Ellipse 2033" cx="2.503" cy="2.503" rx="2.503" ry="2.503" transform="translate(12.538 13.991)" fill="#dedede"/>
      <ellipse id="Ellipse_2034" data-name="Ellipse 2034" cx="2.503" cy="2.503" rx="2.503" ry="2.503" transform="translate(18.802 13.991)" fill="#dedede"/>
      <ellipse id="Ellipse_2035" data-name="Ellipse 2035" cx="2.503" cy="2.503" rx="2.503" ry="2.503" transform="translate(25.062 13.991)" fill="#dedede"/>
      <ellipse id="Ellipse_2036" data-name="Ellipse 2036" cx="2.503" cy="2.503" rx="2.503" ry="2.503" transform="translate(31.322 13.991)" fill="#dedede"/>
    </g>
  </g>
</svg>
