<svg xmlns="http://www.w3.org/2000/svg" xmlns:xlink="http://www.w3.org/1999/xlink" width="130" height="65" viewBox="0 0 130 65">
  <defs>
    <clipPath id="clip-_._assets_seats-viz-ara">
      <rect width="130" height="65"/>
    </clipPath>
  </defs>
  <g id="_._assets_seats-viz-ara" data-name="./assets/seats-viz-ara" clip-path="url(#clip-_._assets_seats-viz-ara)">
    <rect width="130" height="65" fill="#fff"/>
    <text id="_204" data-name="204" transform="translate(64.743 64.652)" font-size="21" font-family="LibeSansSemiCondensed-Bold, LibeSans SemiCondensed" font-weight="700"><tspan x="-15.603" y="0">204</tspan></text>
    <g id="GCGRS" transform="translate(0 61.255)">
      <ellipse id="Ellipse_280" data-name="Ellipse 280" cx="1.87" cy="1.87" rx="1.87" ry="1.87" fill="#d00"/>
      <ellipse id="Ellipse_281" data-name="Ellipse 281" cx="1.87" cy="1.87" rx="1.87" ry="1.87" transform="translate(4.68)" fill="#d00"/>
      <ellipse id="Ellipse_282" data-name="Ellipse 282" cx="1.87" cy="1.87" rx="1.87" ry="1.87" transform="translate(9.359)" fill="#d00"/>
      <ellipse id="Ellipse_283" data-name="Ellipse 283" cx="1.87" cy="1.87" rx="1.87" ry="1.87" transform="translate(14.039)" fill="#d00"/>
      <ellipse id="Ellipse_284" data-name="Ellipse 284" cx="1.87" cy="1.87" rx="1.87" ry="1.87" transform="translate(18.719)" fill="#d00"/>
      <ellipse id="Ellipse_285" data-name="Ellipse 285" cx="1.87" cy="1.87" rx="1.87" ry="1.87" transform="translate(23.399)" fill="#d00"/>
      <ellipse id="Ellipse_286" data-name="Ellipse 286" cx="1.87" cy="1.87" rx="1.87" ry="1.87" transform="translate(28.078)" fill="#d00"/>
      <ellipse id="Ellipse_287" data-name="Ellipse 287" cx="1.87" cy="1.87" rx="1.87" ry="1.87" transform="translate(32.762 0.004)" fill="#d00"/>
    </g>
    <g id="RCES" transform="translate(0.43 49.91)">
      <ellipse id="Ellipse_288" data-name="Ellipse 288" cx="1.87" cy="1.87" rx="1.87" ry="1.87" transform="translate(0 5.641)" fill="#19cc73"/>
      <ellipse id="Ellipse_289" data-name="Ellipse 289" cx="1.87" cy="1.87" rx="1.87" ry="1.87" transform="translate(4.721 5.566)" fill="#19cc73"/>
      <ellipse id="Ellipse_290" data-name="Ellipse 290" cx="1.87" cy="1.87" rx="1.87" ry="1.87" transform="translate(9.457 5.473)" fill="#19cc73"/>
      <ellipse id="Ellipse_291" data-name="Ellipse 291" cx="1.87" cy="1.87" rx="1.87" ry="1.87" transform="translate(14.166 5.589)" fill="#19cc73"/>
      <ellipse id="Ellipse_292" data-name="Ellipse 292" cx="1.87" cy="1.87" rx="1.87" ry="1.87" transform="translate(18.925 5.48)" fill="#19cc73"/>
      <ellipse id="Ellipse_293" data-name="Ellipse 293" cx="1.87" cy="1.87" rx="1.87" ry="1.87" transform="translate(23.657 5.626)" fill="#19cc73"/>
      <ellipse id="Ellipse_294" data-name="Ellipse 294" cx="1.87" cy="1.87" rx="1.87" ry="1.87" transform="translate(0.943)" fill="#19cc73"/>
    </g>
    <g id="SD" transform="translate(2.824 24.21)">
      <ellipse id="Ellipse_295" data-name="Ellipse 295" cx="1.87" cy="1.87" rx="1.87" ry="1.87" transform="translate(26.066 31.198)" fill="#ff697f"/>
      <ellipse id="Ellipse_296" data-name="Ellipse 296" cx="1.87" cy="1.87" rx="1.87" ry="1.87" transform="translate(3.37 25.557)" fill="#ff697f"/>
      <ellipse id="Ellipse_297" data-name="Ellipse 297" cx="1.87" cy="1.87" rx="1.87" ry="1.87" transform="translate(8.23 25.392)" fill="#ff697f"/>
      <ellipse id="Ellipse_298" data-name="Ellipse 298" cx="1.87" cy="1.87" rx="1.87" ry="1.87" transform="translate(30.925 31.022)" fill="#ff697f"/>
      <ellipse id="Ellipse_299" data-name="Ellipse 299" cx="1.87" cy="1.87" rx="1.87" ry="1.87" transform="translate(13.007 25.636)" fill="#ff697f"/>
      <ellipse id="Ellipse_300" data-name="Ellipse 300" cx="1.87" cy="1.87" rx="1.87" ry="1.87" transform="translate(0 20.163)" fill="#ff697f"/>
      <ellipse id="Ellipse_301" data-name="Ellipse 301" cx="1.87" cy="1.87" rx="1.87" ry="1.87" transform="translate(17.945 25.452)" fill="#ff697f"/>
      <ellipse id="Ellipse_302" data-name="Ellipse 302" cx="1.87" cy="1.87" rx="1.87" ry="1.87" transform="translate(4.975 19.983)" fill="#ff697f"/>
      <ellipse id="Ellipse_303" data-name="Ellipse 303" cx="1.87" cy="1.87" rx="1.87" ry="1.87" transform="translate(22.77 25.763)" fill="#ff697f"/>
      <ellipse id="Ellipse_304" data-name="Ellipse 304" cx="1.87" cy="1.87" rx="1.87" ry="1.87" transform="translate(10.022 19.774)" fill="#ff697f"/>
      <ellipse id="Ellipse_305" data-name="Ellipse 305" cx="1.87" cy="1.87" rx="1.87" ry="1.87" transform="translate(27.846 25.565)" fill="#ff697f"/>
      <ellipse id="Ellipse_306" data-name="Ellipse 306" cx="1.87" cy="1.87" rx="1.87" ry="1.87" transform="translate(14.9 20.167)" fill="#ff697f"/>
      <ellipse id="Ellipse_307" data-name="Ellipse 307" cx="1.87" cy="1.87" rx="1.87" ry="1.87" transform="translate(1.945 14.784)" fill="#ff697f"/>
      <ellipse id="Ellipse_308" data-name="Ellipse 308" cx="1.87" cy="1.87" rx="1.87" ry="1.87" transform="translate(7.126 14.597)" fill="#ff697f"/>
      <ellipse id="Ellipse_309" data-name="Ellipse 309" cx="1.87" cy="1.87" rx="1.87" ry="1.87" transform="translate(20.103 19.957)" fill="#ff697f"/>
      <ellipse id="Ellipse_310" data-name="Ellipse 310" cx="1.87" cy="1.87" rx="1.87" ry="1.87" transform="translate(33.095 25.314)" fill="#ff697f"/>
      <ellipse id="Ellipse_311" data-name="Ellipse 311" cx="1.87" cy="1.87" rx="1.87" ry="1.87" transform="translate(12.419 14.387)" fill="#ff697f"/>
      <ellipse id="Ellipse_312" data-name="Ellipse 312" cx="1.87" cy="1.87" rx="1.87" ry="1.87" transform="translate(25.063 20.477)" fill="#ff697f"/>
      <ellipse id="Ellipse_313" data-name="Ellipse 313" cx="1.87" cy="1.87" rx="1.87" ry="1.87" transform="translate(4.369 9.603)" fill="#ff697f"/>
      <ellipse id="Ellipse_314" data-name="Ellipse 314" cx="1.87" cy="1.87" rx="1.87" ry="1.87" transform="translate(17.417 14.959)" fill="#ff697f"/>
      <ellipse id="Ellipse_315" data-name="Ellipse 315" cx="1.87" cy="1.87" rx="1.87" ry="1.87" transform="translate(9.797 9.449)" fill="#ff697f"/>
      <ellipse id="Ellipse_316" data-name="Ellipse 316" cx="1.87" cy="1.87" rx="1.87" ry="1.87" transform="translate(30.547 20.312)" fill="#ff697f"/>
      <ellipse id="Ellipse_317" data-name="Ellipse 317" cx="1.87" cy="1.87" rx="1.87" ry="1.87" transform="translate(7.253 4.661)" fill="#ff697f"/>
      <ellipse id="Ellipse_318" data-name="Ellipse 318" cx="1.87" cy="1.87" rx="1.87" ry="1.87" transform="translate(22.968 14.802)" fill="#ff697f"/>
      <ellipse id="Ellipse_319" data-name="Ellipse 319" cx="1.87" cy="1.87" rx="1.87" ry="1.87" transform="translate(15.393 9.296)" fill="#ff697f"/>
      <ellipse id="Ellipse_320" data-name="Ellipse 320" cx="1.87" cy="1.87" rx="1.87" ry="1.87" transform="translate(28.101 15.58)" fill="#ff697f"/>
      <ellipse id="Ellipse_321" data-name="Ellipse 321" cx="1.87" cy="1.87" rx="1.87" ry="1.87" transform="translate(20.533 10.085)" fill="#ff697f"/>
      <ellipse id="Ellipse_322" data-name="Ellipse 322" cx="1.87" cy="1.87" rx="1.87" ry="1.87" transform="translate(12.966 4.59)" fill="#ff697f"/>
      <ellipse id="Ellipse_323" data-name="Ellipse 323" cx="1.87" cy="1.87" rx="1.87" ry="1.87" transform="translate(10.571)" fill="#ff697f"/>
      <ellipse id="Ellipse_324" data-name="Ellipse 324" cx="1.87" cy="1.87" rx="1.87" ry="1.87" transform="translate(36.361 20.155)" fill="#ff697f"/>
    </g>
    <g id="PRG-CG" transform="translate(19.426 24.281)">
      <ellipse id="Ellipse_325" data-name="Ellipse 325" cx="1.87" cy="1.87" rx="1.87" ry="1.87" transform="translate(2.304 4.489)" fill="#fda7b4"/>
      <ellipse id="Ellipse_326" data-name="Ellipse 326" cx="1.87" cy="1.87" rx="1.87" ry="1.87" transform="translate(9.891 9.999)" fill="#fda7b4"/>
      <ellipse id="Ellipse_327" data-name="Ellipse 327" cx="1.87" cy="1.87" rx="1.87" ry="1.87" fill="#fda7b4"/>
      <ellipse id="Ellipse_328" data-name="Ellipse 328" cx="1.87" cy="1.87" rx="1.87" ry="1.87" transform="translate(17.488 15.517)" fill="#fda7b4"/>
      <ellipse id="Ellipse_329" data-name="Ellipse 329" cx="1.87" cy="1.87" rx="1.87" ry="1.87" transform="translate(7.598 5.54)" fill="#fda7b4"/>
    </g>
    <g id="LREM" transform="translate(17.122 15.887)">
      <ellipse id="Ellipse_330" data-name="Ellipse 330" cx="1.87" cy="1.87" rx="1.87" ry="1.87" transform="translate(0 3.984)" fill="#ffcc58"/>
      <ellipse id="Ellipse_331" data-name="Ellipse 331" cx="1.87" cy="1.87" rx="1.87" ry="1.87" transform="translate(17.518 19.493)" fill="#ffcc58"/>
      <ellipse id="Ellipse_332" data-name="Ellipse 332" cx="1.87" cy="1.87" rx="1.87" ry="1.87" transform="translate(8.623 8.559)" fill="#ffcc58"/>
      <ellipse id="Ellipse_333" data-name="Ellipse 333" cx="1.87" cy="1.87" rx="1.87" ry="1.87" transform="translate(6.367 4.257)" fill="#ffcc58"/>
      <ellipse id="Ellipse_334" data-name="Ellipse 334" cx="1.87" cy="1.87" rx="1.87" ry="1.87" transform="translate(16.317 14.17)" fill="#ffcc58"/>
      <ellipse id="Ellipse_335" data-name="Ellipse 335" cx="1.87" cy="1.87" rx="1.87" ry="1.87" transform="translate(4.104)" fill="#ffcc58"/>
    </g>
    <g id="MoDem" transform="translate(30.203 20.589)">
      <ellipse id="Ellipse_336" data-name="Ellipse 336" cx="1.87" cy="1.87" rx="1.87" ry="1.87" transform="translate(0.991 5.218)" fill="#ff994e"/>
      <ellipse id="Ellipse_337" data-name="Ellipse 337" cx="1.87" cy="1.87" rx="1.87" ry="1.87" transform="translate(13.216 19.374)" fill="#ff994e"/>
      <ellipse id="Ellipse_338" data-name="Ellipse 338" cx="1.87" cy="1.87" rx="1.87" ry="1.87" transform="translate(10.998 15.146)" fill="#ff994e"/>
      <ellipse id="Ellipse_339" data-name="Ellipse 339" cx="1.87" cy="1.87" rx="1.87" ry="1.87" fill="#ff994e"/>
      <ellipse id="Ellipse_340" data-name="Ellipse 340" cx="1.87" cy="1.87" rx="1.87" ry="1.87" transform="translate(8.746 10.968)" fill="#ff994e"/>
    </g>
    <g id="LD" transform="translate(25.677 2.319)">
      <ellipse id="Ellipse_341" data-name="Ellipse 341" cx="1.87" cy="1.87" rx="1.87" ry="1.87" transform="translate(2.267 14.11)" fill="#acbaf2"/>
      <ellipse id="Ellipse_342" data-name="Ellipse 342" cx="1.87" cy="1.87" rx="1.87" ry="1.87" transform="translate(0 9.969)" fill="#acbaf2"/>
      <ellipse id="Ellipse_343" data-name="Ellipse 343" cx="1.87" cy="1.87" rx="1.87" ry="1.87" transform="translate(12.408 24.098)" fill="#acbaf2"/>
      <ellipse id="Ellipse_344" data-name="Ellipse 344" cx="1.87" cy="1.87" rx="1.87" ry="1.87" transform="translate(10.126 19.995)" fill="#acbaf2"/>
      <ellipse id="Ellipse_345" data-name="Ellipse 345" cx="1.87" cy="1.87" rx="1.87" ry="1.87" transform="translate(9.382 14.922)" fill="#acbaf2"/>
      <ellipse id="Ellipse_346" data-name="Ellipse 346" cx="1.87" cy="1.87" rx="1.87" ry="1.87" transform="translate(7.07 10.856)" fill="#acbaf2"/>
      <ellipse id="Ellipse_347" data-name="Ellipse 347" cx="1.87" cy="1.87" rx="1.87" ry="1.87" transform="translate(4.755 6.79)" fill="#acbaf2"/>
      <ellipse id="Ellipse_348" data-name="Ellipse 348" cx="1.87" cy="1.87" rx="1.87" ry="1.87" transform="translate(18.09 26.077)" fill="#acbaf2"/>
      <ellipse id="Ellipse_349" data-name="Ellipse 349" cx="1.87" cy="1.87" rx="1.87" ry="1.87" transform="translate(20.432 30.128)" fill="#acbaf2"/>
      <ellipse id="Ellipse_350" data-name="Ellipse 350" cx="1.87" cy="1.87" rx="1.87" ry="1.87" transform="translate(22.77 34.18)" fill="#acbaf2"/>
      <ellipse id="Ellipse_351" data-name="Ellipse 351" cx="1.87" cy="1.87" rx="1.87" ry="1.87" transform="translate(15.117 17.069)" fill="#acbaf2"/>
      <ellipse id="Ellipse_352" data-name="Ellipse 352" cx="1.87" cy="1.87" rx="1.87" ry="1.87" transform="translate(17.492 21.106)" fill="#acbaf2"/>
      <ellipse id="Ellipse_353" data-name="Ellipse 353" cx="1.87" cy="1.87" rx="1.87" ry="1.87" transform="translate(9.778 4.055)" fill="#acbaf2"/>
      <ellipse id="Ellipse_354" data-name="Ellipse 354" cx="1.87" cy="1.87" rx="1.87" ry="1.87" transform="translate(12.169 8.091)" fill="#acbaf2"/>
      <ellipse id="Ellipse_355" data-name="Ellipse 355" cx="1.87" cy="1.87" rx="1.87" ry="1.87" transform="translate(14.574 12.128)" fill="#acbaf2"/>
      <ellipse id="Ellipse_356" data-name="Ellipse 356" cx="1.87" cy="1.87" rx="1.87" ry="1.87" transform="translate(23.316 23.649)" fill="#acbaf2"/>
      <ellipse id="Ellipse_357" data-name="Ellipse 357" cx="1.87" cy="1.87" rx="1.87" ry="1.87" transform="translate(15.031 1.784)" fill="#acbaf2"/>
      <ellipse id="Ellipse_358" data-name="Ellipse 358" cx="1.87" cy="1.87" rx="1.87" ry="1.87" transform="translate(20.417 14.746)" fill="#acbaf2"/>
      <ellipse id="Ellipse_359" data-name="Ellipse 359" cx="1.87" cy="1.87" rx="1.87" ry="1.87" transform="translate(17.518 5.851)" fill="#acbaf2"/>
      <ellipse id="Ellipse_360" data-name="Ellipse 360" cx="1.87" cy="1.87" rx="1.87" ry="1.87" transform="translate(25.819 27.712)" fill="#acbaf2"/>
      <ellipse id="Ellipse_361" data-name="Ellipse 361" cx="1.87" cy="1.87" rx="1.87" ry="1.87" transform="translate(22.931 18.816)" fill="#acbaf2"/>
      <ellipse id="Ellipse_362" data-name="Ellipse 362" cx="1.87" cy="1.87" rx="1.87" ry="1.87" transform="translate(20.039 9.921)" fill="#acbaf2"/>
      <ellipse id="Ellipse_363" data-name="Ellipse 363" cx="1.87" cy="1.87" rx="1.87" ry="1.87" transform="translate(28.385 31.786)" fill="#acbaf2"/>
      <ellipse id="Ellipse_364" data-name="Ellipse 364" cx="1.87" cy="1.87" rx="1.87" ry="1.87" transform="translate(20.466)" fill="#acbaf2"/>
    </g>
    <g id="LRDVDSC" transform="translate(48.743)">
      <ellipse id="Ellipse_365" data-name="Ellipse 365" cx="1.87" cy="1.87" rx="1.87" ry="1.87" transform="translate(0 6.468)" fill="#6a85f4"/>
      <ellipse id="Ellipse_366" data-name="Ellipse 366" cx="1.87" cy="1.87" rx="1.87" ry="1.87" transform="translate(2.888 15.386)" fill="#6a85f4"/>
      <ellipse id="Ellipse_367" data-name="Ellipse 367" cx="1.87" cy="1.87" rx="1.87" ry="1.87" transform="translate(2.652 10.643)" fill="#6a85f4"/>
      <ellipse id="Ellipse_368" data-name="Ellipse 368" cx="1.87" cy="1.87" rx="1.87" ry="1.87" transform="translate(5.772 24.319)" fill="#6a85f4"/>
      <ellipse id="Ellipse_369" data-name="Ellipse 369" cx="1.87" cy="1.87" rx="1.87" ry="1.87" transform="translate(5.559 19.583)" fill="#6a85f4"/>
      <ellipse id="Ellipse_370" data-name="Ellipse 370" cx="1.87" cy="1.87" rx="1.87" ry="1.87" transform="translate(2.974 1.036)" fill="#6a85f4"/>
      <ellipse id="Ellipse_371" data-name="Ellipse 371" cx="1.87" cy="1.87" rx="1.87" ry="1.87" transform="translate(8.473 28.553)" fill="#6a85f4"/>
      <ellipse id="Ellipse_372" data-name="Ellipse 372" cx="1.87" cy="1.87" rx="1.87" ry="1.87" transform="translate(5.686 5.323)" fill="#6a85f4"/>
      <ellipse id="Ellipse_373" data-name="Ellipse 373" cx="1.87" cy="1.87" rx="1.87" ry="1.87" transform="translate(8.581 14.368)" fill="#6a85f4"/>
      <ellipse id="Ellipse_374" data-name="Ellipse 374" cx="1.87" cy="1.87" rx="1.87" ry="1.87" transform="translate(8.469 9.674)" fill="#6a85f4"/>
      <ellipse id="Ellipse_375" data-name="Ellipse 375" cx="1.87" cy="1.87" rx="1.87" ry="1.87" transform="translate(11.305 32.885)" fill="#6a85f4"/>
      <ellipse id="Ellipse_376" data-name="Ellipse 376" cx="1.87" cy="1.87" rx="1.87" ry="1.87" transform="translate(8.641 0.258)" fill="#6a85f4"/>
      <ellipse id="Ellipse_377" data-name="Ellipse 377" cx="1.87" cy="1.87" rx="1.87" ry="1.87" transform="translate(11.477 23.485)" fill="#6a85f4"/>
      <ellipse id="Ellipse_378" data-name="Ellipse 378" cx="1.87" cy="1.87" rx="1.87" ry="1.87" transform="translate(11.406 18.801)" fill="#6a85f4"/>
      <ellipse id="Ellipse_379" data-name="Ellipse 379" cx="1.87" cy="1.87" rx="1.87" ry="1.87" transform="translate(11.458 4.747)" fill="#6a85f4"/>
      <ellipse id="Ellipse_380" data-name="Ellipse 380" cx="1.87" cy="1.87" rx="1.87" ry="1.87" transform="translate(14.357)" fill="#6a85f4"/>
      <ellipse id="Ellipse_381" data-name="Ellipse 381" cx="1.87" cy="1.87" rx="1.87" ry="1.87" transform="translate(14.357 9.352)" fill="#6a85f4"/>
      <ellipse id="Ellipse_382" data-name="Ellipse 382" cx="1.87" cy="1.87" rx="1.87" ry="1.87" transform="translate(14.357 28.056)" fill="#6a85f4"/>
      <ellipse id="Ellipse_383" data-name="Ellipse 383" cx="1.87" cy="1.87" rx="1.87" ry="1.87" transform="translate(14.357 14.028)" fill="#6a85f4"/>
      <ellipse id="Ellipse_384" data-name="Ellipse 384" cx="1.87" cy="1.87" rx="1.87" ry="1.87" transform="translate(17.256 4.747)" fill="#6a85f4"/>
      <ellipse id="Ellipse_385" data-name="Ellipse 385" cx="1.87" cy="1.87" rx="1.87" ry="1.87" transform="translate(17.309 18.801)" fill="#6a85f4"/>
      <ellipse id="Ellipse_386" data-name="Ellipse 386" cx="1.87" cy="1.87" rx="1.87" ry="1.87" transform="translate(17.238 23.485)" fill="#6a85f4"/>
      <ellipse id="Ellipse_387" data-name="Ellipse 387" cx="1.87" cy="1.87" rx="1.87" ry="1.87" transform="translate(20.073 0.258)" fill="#6a85f4"/>
      <ellipse id="Ellipse_388" data-name="Ellipse 388" cx="1.87" cy="1.87" rx="1.87" ry="1.87" transform="translate(17.41 32.885)" fill="#6a85f4"/>
      <ellipse id="Ellipse_389" data-name="Ellipse 389" cx="1.87" cy="1.87" rx="1.87" ry="1.87" transform="translate(20.245 9.674)" fill="#6a85f4"/>
      <ellipse id="Ellipse_390" data-name="Ellipse 390" cx="1.87" cy="1.87" rx="1.87" ry="1.87" transform="translate(20.133 14.368)" fill="#6a85f4"/>
      <ellipse id="Ellipse_391" data-name="Ellipse 391" cx="1.87" cy="1.87" rx="1.87" ry="1.87" transform="translate(23.028 5.323)" fill="#6a85f4"/>
      <ellipse id="Ellipse_392" data-name="Ellipse 392" cx="1.87" cy="1.87" rx="1.87" ry="1.87" transform="translate(20.241 28.553)" fill="#6a85f4"/>
      <ellipse id="Ellipse_393" data-name="Ellipse 393" cx="1.87" cy="1.87" rx="1.87" ry="1.87" transform="translate(25.74 1.036)" fill="#6a85f4"/>
      <ellipse id="Ellipse_394" data-name="Ellipse 394" cx="1.87" cy="1.87" rx="1.87" ry="1.87" transform="translate(23.156 19.583)" fill="#6a85f4"/>
      <ellipse id="Ellipse_395" data-name="Ellipse 395" cx="1.87" cy="1.87" rx="1.87" ry="1.87" transform="translate(22.942 24.319)" fill="#6a85f4"/>
      <ellipse id="Ellipse_396" data-name="Ellipse 396" cx="1.87" cy="1.87" rx="1.87" ry="1.87" transform="translate(26.062 10.643)" fill="#6a85f4"/>
      <ellipse id="Ellipse_397" data-name="Ellipse 397" cx="1.87" cy="1.87" rx="1.87" ry="1.87" transform="translate(25.826 15.386)" fill="#6a85f4"/>
      <ellipse id="Ellipse_398" data-name="Ellipse 398" cx="1.87" cy="1.87" rx="1.87" ry="1.87" transform="translate(28.714 6.468)" fill="#6a85f4"/>
      <ellipse id="Ellipse_399" data-name="Ellipse 399" cx="1.87" cy="1.87" rx="1.87" ry="1.87" transform="translate(31.314 2.319)" fill="#6a85f4"/>
      <ellipse id="Ellipse_400" data-name="Ellipse 400" cx="1.87" cy="1.87" rx="1.87" ry="1.87" transform="translate(23.395 34.105)" fill="#6a85f4"/>
      <ellipse id="Ellipse_401" data-name="Ellipse 401" cx="1.87" cy="1.87" rx="1.87" ry="1.87" transform="translate(31.741 12.24)" fill="#6a85f4"/>
      <ellipse id="Ellipse_402" data-name="Ellipse 402" cx="1.87" cy="1.87" rx="1.87" ry="1.87" transform="translate(28.849 21.135)" fill="#6a85f4"/>
      <ellipse id="Ellipse_403" data-name="Ellipse 403" cx="1.87" cy="1.87" rx="1.87" ry="1.87" transform="translate(25.961 30.031)" fill="#6a85f4"/>
      <ellipse id="Ellipse_404" data-name="Ellipse 404" cx="1.87" cy="1.87" rx="1.87" ry="1.87" transform="translate(34.262 8.17)" fill="#6a85f4"/>
      <ellipse id="Ellipse_405" data-name="Ellipse 405" cx="1.87" cy="1.87" rx="1.87" ry="1.87" transform="translate(31.363 17.065)" fill="#6a85f4"/>
      <ellipse id="Ellipse_406" data-name="Ellipse 406" cx="1.87" cy="1.87" rx="1.87" ry="1.87" transform="translate(36.75 4.104)" fill="#6a85f4"/>
      <ellipse id="Ellipse_407" data-name="Ellipse 407" cx="1.87" cy="1.87" rx="1.87" ry="1.87" transform="translate(28.464 25.969)" fill="#6a85f4"/>
      <ellipse id="Ellipse_408" data-name="Ellipse 408" cx="1.87" cy="1.87" rx="1.87" ry="1.87" transform="translate(37.206 14.447)" fill="#6a85f4"/>
      <ellipse id="Ellipse_409" data-name="Ellipse 409" cx="1.87" cy="1.87" rx="1.87" ry="1.87" transform="translate(39.611 10.411)" fill="#6a85f4"/>
      <ellipse id="Ellipse_410" data-name="Ellipse 410" cx="1.87" cy="1.87" rx="1.87" ry="1.87" transform="translate(42.002 6.374)" fill="#6a85f4"/>
      <ellipse id="Ellipse_411" data-name="Ellipse 411" cx="1.87" cy="1.87" rx="1.87" ry="1.87" transform="translate(34.288 23.425)" fill="#6a85f4"/>
      <ellipse id="Ellipse_412" data-name="Ellipse 412" cx="1.87" cy="1.87" rx="1.87" ry="1.87" transform="translate(36.664 19.389)" fill="#6a85f4"/>
      <ellipse id="Ellipse_413" data-name="Ellipse 413" cx="1.87" cy="1.87" rx="1.87" ry="1.87" transform="translate(29.01 36.499)" fill="#6a85f4"/>
      <ellipse id="Ellipse_414" data-name="Ellipse 414" cx="1.87" cy="1.87" rx="1.87" ry="1.87" transform="translate(31.348 32.448)" fill="#6a85f4"/>
      <ellipse id="Ellipse_415" data-name="Ellipse 415" cx="1.87" cy="1.87" rx="1.87" ry="1.87" transform="translate(33.69 28.396)" fill="#6a85f4"/>
      <ellipse id="Ellipse_416" data-name="Ellipse 416" cx="1.87" cy="1.87" rx="1.87" ry="1.87" transform="translate(47.026 9.109)" fill="#6a85f4"/>
      <ellipse id="Ellipse_417" data-name="Ellipse 417" cx="1.87" cy="1.87" rx="1.87" ry="1.87" transform="translate(44.71 13.175)" fill="#6a85f4"/>
      <ellipse id="Ellipse_418" data-name="Ellipse 418" cx="1.87" cy="1.87" rx="1.87" ry="1.87" transform="translate(42.398 17.241)" fill="#6a85f4"/>
      <ellipse id="Ellipse_419" data-name="Ellipse 419" cx="1.87" cy="1.87" rx="1.87" ry="1.87" transform="translate(41.654 22.314)" fill="#6a85f4"/>
      <ellipse id="Ellipse_420" data-name="Ellipse 420" cx="1.87" cy="1.87" rx="1.87" ry="1.87" transform="translate(39.372 26.417)" fill="#6a85f4"/>
      <ellipse id="Ellipse_421" data-name="Ellipse 421" cx="1.87" cy="1.87" rx="1.87" ry="1.87" transform="translate(51.78 12.289)" fill="#6a85f4"/>
      <ellipse id="Ellipse_422" data-name="Ellipse 422" cx="1.87" cy="1.87" rx="1.87" ry="1.87" transform="translate(49.513 16.43)" fill="#6a85f4"/>
      <ellipse id="Ellipse_423" data-name="Ellipse 423" cx="1.87" cy="1.87" rx="1.87" ry="1.87" transform="translate(38.508 31.557)" fill="#6a85f4"/>
      <ellipse id="Ellipse_424" data-name="Ellipse 424" cx="1.87" cy="1.87" rx="1.87" ry="1.87" transform="translate(47.254 20.589)" fill="#6a85f4"/>
      <ellipse id="Ellipse_425" data-name="Ellipse 425" cx="1.87" cy="1.87" rx="1.87" ry="1.87" transform="translate(36.256 35.736)" fill="#6a85f4"/>
      <ellipse id="Ellipse_426" data-name="Ellipse 426" cx="1.87" cy="1.87" rx="1.87" ry="1.87" transform="translate(34.038 39.963)" fill="#6a85f4"/>
      <ellipse id="Ellipse_427" data-name="Ellipse 427" cx="1.87" cy="1.87" rx="1.87" ry="1.87" transform="translate(46.262 25.808)" fill="#6a85f4"/>
      <ellipse id="Ellipse_428" data-name="Ellipse 428" cx="1.87" cy="1.87" rx="1.87" ry="1.87" transform="translate(56.232 15.887)" fill="#6a85f4"/>
      <ellipse id="Ellipse_429" data-name="Ellipse 429" cx="1.87" cy="1.87" rx="1.87" ry="1.87" transform="translate(44.018 30.057)" fill="#6a85f4"/>
      <ellipse id="Ellipse_430" data-name="Ellipse 430" cx="1.87" cy="1.87" rx="1.87" ry="1.87" transform="translate(53.968 20.144)" fill="#6a85f4"/>
      <ellipse id="Ellipse_431" data-name="Ellipse 431" cx="1.87" cy="1.87" rx="1.87" ry="1.87" transform="translate(51.713 24.446)" fill="#6a85f4"/>
      <ellipse id="Ellipse_432" data-name="Ellipse 432" cx="1.87" cy="1.87" rx="1.87" ry="1.87" transform="translate(42.817 35.38)" fill="#6a85f4"/>
      <ellipse id="Ellipse_433" data-name="Ellipse 433" cx="1.87" cy="1.87" rx="1.87" ry="1.87" transform="translate(60.335 19.871)" fill="#6a85f4"/>
      <ellipse id="Ellipse_434" data-name="Ellipse 434" cx="1.87" cy="1.87" rx="1.87" ry="1.87" transform="translate(50.433 29.822)" fill="#6a85f4"/>
      <ellipse id="Ellipse_435" data-name="Ellipse 435" cx="1.87" cy="1.87" rx="1.87" ry="1.87" transform="translate(40.543 39.798)" fill="#6a85f4"/>
      <ellipse id="Ellipse_436" data-name="Ellipse 436" cx="1.87" cy="1.87" rx="1.87" ry="1.87" transform="translate(58.031 24.281)" fill="#6a85f4"/>
      <ellipse id="Ellipse_437" data-name="Ellipse 437" cx="1.87" cy="1.87" rx="1.87" ry="1.87" transform="translate(48.14 34.281)" fill="#6a85f4"/>
      <ellipse id="Ellipse_438" data-name="Ellipse 438" cx="1.87" cy="1.87" rx="1.87" ry="1.87" transform="translate(55.727 28.77)" fill="#6a85f4"/>
      <ellipse id="Ellipse_439" data-name="Ellipse 439" cx="1.87" cy="1.87" rx="1.87" ry="1.87" transform="translate(38.272 44.366)" fill="#6a85f4"/>
      <ellipse id="Ellipse_440" data-name="Ellipse 440" cx="1.87" cy="1.87" rx="1.87" ry="1.87" transform="translate(64.061 24.21)" fill="#6a85f4"/>
      <ellipse id="Ellipse_441" data-name="Ellipse 441" cx="1.87" cy="1.87" rx="1.87" ry="1.87" transform="translate(61.667 28.8)" fill="#6a85f4"/>
      <ellipse id="Ellipse_442" data-name="Ellipse 442" cx="1.87" cy="1.87" rx="1.87" ry="1.87" transform="translate(54.099 34.296)" fill="#6a85f4"/>
      <ellipse id="Ellipse_443" data-name="Ellipse 443" cx="1.87" cy="1.87" rx="1.87" ry="1.87" transform="translate(46.532 39.791)" fill="#6a85f4"/>
      <ellipse id="Ellipse_444" data-name="Ellipse 444" cx="1.87" cy="1.87" rx="1.87" ry="1.87" transform="translate(59.239 33.506)" fill="#6a85f4"/>
      <ellipse id="Ellipse_445" data-name="Ellipse 445" cx="1.87" cy="1.87" rx="1.87" ry="1.87" transform="translate(51.664 39.013)" fill="#6a85f4"/>
      <ellipse id="Ellipse_446" data-name="Ellipse 446" cx="1.87" cy="1.87" rx="1.87" ry="1.87" transform="translate(67.379 28.871)" fill="#6a85f4"/>
      <ellipse id="Ellipse_447" data-name="Ellipse 447" cx="1.87" cy="1.87" rx="1.87" ry="1.87" transform="translate(44.085 44.523)" fill="#6a85f4"/>
      <ellipse id="Ellipse_448" data-name="Ellipse 448" cx="1.87" cy="1.87" rx="1.87" ry="1.87" transform="translate(64.836 33.66)" fill="#6a85f4"/>
      <ellipse id="Ellipse_449" data-name="Ellipse 449" cx="1.87" cy="1.87" rx="1.87" ry="1.87" transform="translate(57.215 39.17)" fill="#6a85f4"/>
    </g>
    <g id="RN" transform="translate(90.28 33.813)">
      <ellipse id="Ellipse_450" data-name="Ellipse 450" cx="1.87" cy="1.87" rx="1.87" ry="1.87" transform="translate(28.726)" fill="#26286f"/>
      <ellipse id="Ellipse_451" data-name="Ellipse 451" cx="1.87" cy="1.87" rx="1.87" ry="1.87" transform="translate(8.031 10.874)" fill="#26286f"/>
      <ellipse id="Ellipse_452" data-name="Ellipse 452" cx="1.87" cy="1.87" rx="1.87" ry="1.87" transform="translate(20.675 4.784)" fill="#26286f"/>
      <ellipse id="Ellipse_453" data-name="Ellipse 453" cx="1.87" cy="1.87" rx="1.87" ry="1.87" transform="translate(0 15.711)" fill="#26286f"/>
      <ellipse id="Ellipse_454" data-name="Ellipse 454" cx="1.87" cy="1.87" rx="1.87" ry="1.87" transform="translate(12.992 10.355)" fill="#26286f"/>
      <ellipse id="Ellipse_455" data-name="Ellipse 455" cx="1.87" cy="1.87" rx="1.87" ry="1.87" transform="translate(25.969 4.994)" fill="#26286f"/>
      <ellipse id="Ellipse_456" data-name="Ellipse 456" cx="1.87" cy="1.87" rx="1.87" ry="1.87" transform="translate(31.15 5.181)" fill="#26286f"/>
      <ellipse id="Ellipse_457" data-name="Ellipse 457" cx="1.87" cy="1.87" rx="1.87" ry="1.87" transform="translate(18.195 10.564)" fill="#26286f"/>
      <ellipse id="Ellipse_458" data-name="Ellipse 458" cx="1.87" cy="1.87" rx="1.87" ry="1.87" transform="translate(5.248 15.962)" fill="#26286f"/>
      <ellipse id="Ellipse_459" data-name="Ellipse 459" cx="1.87" cy="1.87" rx="1.87" ry="1.87" transform="translate(23.073 10.171)" fill="#26286f"/>
      <ellipse id="Ellipse_460" data-name="Ellipse 460" cx="1.87" cy="1.87" rx="1.87" ry="1.87" transform="translate(10.325 16.16)" fill="#26286f"/>
      <ellipse id="Ellipse_461" data-name="Ellipse 461" cx="1.87" cy="1.87" rx="1.87" ry="1.87" transform="translate(28.12 10.381)" fill="#26286f"/>
      <ellipse id="Ellipse_462" data-name="Ellipse 462" cx="1.87" cy="1.87" rx="1.87" ry="1.87" transform="translate(15.15 15.85)" fill="#26286f"/>
      <ellipse id="Ellipse_463" data-name="Ellipse 463" cx="1.87" cy="1.87" rx="1.87" ry="1.87" transform="translate(33.095 10.56)" fill="#26286f"/>
      <ellipse id="Ellipse_464" data-name="Ellipse 464" cx="1.87" cy="1.87" rx="1.87" ry="1.87" transform="translate(20.088 16.033)" fill="#26286f"/>
      <ellipse id="Ellipse_465" data-name="Ellipse 465" cx="1.87" cy="1.87" rx="1.87" ry="1.87" transform="translate(2.17 21.42)" fill="#26286f"/>
      <ellipse id="Ellipse_466" data-name="Ellipse 466" cx="1.87" cy="1.87" rx="1.87" ry="1.87" transform="translate(24.865 15.79)" fill="#26286f"/>
      <ellipse id="Ellipse_467" data-name="Ellipse 467" cx="1.87" cy="1.87" rx="1.87" ry="1.87" transform="translate(29.724 15.954)" fill="#26286f"/>
      <ellipse id="Ellipse_468" data-name="Ellipse 468" cx="1.87" cy="1.87" rx="1.87" ry="1.87" transform="translate(7.029 21.596)" fill="#26286f"/>
      <ellipse id="Ellipse_469" data-name="Ellipse 469" cx="1.87" cy="1.87" rx="1.87" ry="1.87" transform="translate(34.546 16.097)" fill="#26286f"/>
      <ellipse id="Ellipse_470" data-name="Ellipse 470" cx="1.87" cy="1.87" rx="1.87" ry="1.87" transform="translate(11.832 21.723)" fill="#26286f"/>
      <ellipse id="Ellipse_471" data-name="Ellipse 471" cx="1.87" cy="1.87" rx="1.87" ry="1.87" transform="translate(16.564 21.577)" fill="#26286f"/>
      <ellipse id="Ellipse_472" data-name="Ellipse 472" cx="1.87" cy="1.87" rx="1.87" ry="1.87" transform="translate(21.323 21.685)" fill="#26286f"/>
      <ellipse id="Ellipse_473" data-name="Ellipse 473" cx="1.87" cy="1.87" rx="1.87" ry="1.87" transform="translate(26.032 21.569)" fill="#26286f"/>
      <ellipse id="Ellipse_474" data-name="Ellipse 474" cx="1.87" cy="1.87" rx="1.87" ry="1.87" transform="translate(30.768 21.663)" fill="#26286f"/>
      <ellipse id="Ellipse_475" data-name="Ellipse 475" cx="1.87" cy="1.87" rx="1.87" ry="1.87" transform="translate(35.489 21.738)" fill="#26286f"/>
      <ellipse id="Ellipse_476" data-name="Ellipse 476" cx="1.87" cy="1.87" rx="1.87" ry="1.87" transform="translate(3.157 27.446)" fill="#26286f"/>
      <ellipse id="Ellipse_477" data-name="Ellipse 477" cx="1.87" cy="1.87" rx="1.87" ry="1.87" transform="translate(7.841 27.442)" fill="#26286f"/>
      <ellipse id="Ellipse_478" data-name="Ellipse 478" cx="1.87" cy="1.87" rx="1.87" ry="1.87" transform="translate(12.52 27.442)" fill="#26286f"/>
      <ellipse id="Ellipse_479" data-name="Ellipse 479" cx="1.87" cy="1.87" rx="1.87" ry="1.87" transform="translate(17.2 27.442)" fill="#26286f"/>
      <ellipse id="Ellipse_480" data-name="Ellipse 480" cx="1.87" cy="1.87" rx="1.87" ry="1.87" transform="translate(21.88 27.442)" fill="#26286f"/>
    </g>
    <g id="NI" transform="translate(116.84 61.255)">
      <ellipse id="Ellipse_481" data-name="Ellipse 481" cx="1.87" cy="1.87" rx="1.87" ry="1.87" fill="#dedede"/>
      <ellipse id="Ellipse_482" data-name="Ellipse 482" cx="1.87" cy="1.87" rx="1.87" ry="1.87" transform="translate(4.68)" fill="#dedede"/>
      <ellipse id="Ellipse_483" data-name="Ellipse 483" cx="1.87" cy="1.87" rx="1.87" ry="1.87" transform="translate(9.359)" fill="#dedede"/>
    </g>
  </g>
</svg>
