<svg xmlns="http://www.w3.org/2000/svg" xmlns:xlink="http://www.w3.org/1999/xlink" width="130" height="65" viewBox="0 0 130 65">
  <defs>
    <clipPath id="clip-_._assets_seats-viz-hdf">
      <rect width="130" height="65"/>
    </clipPath>
  </defs>
  <g id="_._assets_seats-viz-hdf" data-name="./assets/seats-viz-hdf" clip-path="url(#clip-_._assets_seats-viz-hdf)">
    <rect width="130" height="65" fill="#fff"/>
    <text id="_170" data-name="170" transform="translate(65 64)" font-size="21" font-family="LibeSansSemiCondensed-Bold, LibeSans SemiCondensed" font-weight="700"><tspan x="-13.115" y="0">170</tspan></text>
    <g id="UDI-UC" transform="translate(0 22.061)">
      <ellipse id="Ellipse_954" data-name="Ellipse 954" cx="2.138" cy="2.138" rx="2.138" ry="2.138" transform="translate(0 38.662)" fill="#acbaf2"/>
      <ellipse id="Ellipse_955" data-name="Ellipse 955" cx="2.138" cy="2.138" rx="2.138" ry="2.138" transform="translate(5.351 38.662)" fill="#acbaf2"/>
      <ellipse id="Ellipse_956" data-name="Ellipse 956" cx="2.138" cy="2.138" rx="2.138" ry="2.138" transform="translate(10.707 38.662)" fill="#acbaf2"/>
      <ellipse id="Ellipse_957" data-name="Ellipse 957" cx="2.138" cy="2.138" rx="2.138" ry="2.138" transform="translate(16.062 38.662)" fill="#acbaf2"/>
      <ellipse id="Ellipse_958" data-name="Ellipse 958" cx="2.138" cy="2.138" rx="2.138" ry="2.138" transform="translate(21.417 38.662)" fill="#acbaf2"/>
      <ellipse id="Ellipse_959" data-name="Ellipse 959" cx="2.138" cy="2.138" rx="2.138" ry="2.138" transform="translate(26.776 38.662)" fill="#acbaf2"/>
      <ellipse id="Ellipse_960" data-name="Ellipse 960" cx="2.138" cy="2.138" rx="2.138" ry="2.138" transform="translate(32.139 38.662)" fill="#acbaf2"/>
      <ellipse id="Ellipse_961" data-name="Ellipse 961" cx="2.138" cy="2.138" rx="2.138" ry="2.138" transform="translate(0.494 32.648)" fill="#acbaf2"/>
      <ellipse id="Ellipse_962" data-name="Ellipse 962" cx="2.138" cy="2.138" rx="2.138" ry="2.138" transform="translate(5.902 32.607)" fill="#acbaf2"/>
      <ellipse id="Ellipse_963" data-name="Ellipse 963" cx="2.138" cy="2.138" rx="2.138" ry="2.138" transform="translate(11.317 32.558)" fill="#acbaf2"/>
      <ellipse id="Ellipse_964" data-name="Ellipse 964" cx="2.138" cy="2.138" rx="2.138" ry="2.138" transform="translate(16.755 32.498)" fill="#acbaf2"/>
      <ellipse id="Ellipse_965" data-name="Ellipse 965" cx="2.138" cy="2.138" rx="2.138" ry="2.138" transform="translate(22.218 32.419)" fill="#acbaf2"/>
      <ellipse id="Ellipse_966" data-name="Ellipse 966" cx="2.138" cy="2.138" rx="2.138" ry="2.138" transform="translate(1.565 26.705)" fill="#acbaf2"/>
      <ellipse id="Ellipse_967" data-name="Ellipse 967" cx="2.138" cy="2.138" rx="2.138" ry="2.138" transform="translate(27.641 32.667)" fill="#acbaf2"/>
      <ellipse id="Ellipse_968" data-name="Ellipse 968" cx="2.138" cy="2.138" rx="2.138" ry="2.138" transform="translate(7.082 26.641)" fill="#acbaf2"/>
      <ellipse id="Ellipse_969" data-name="Ellipse 969" cx="2.138" cy="2.138" rx="2.138" ry="2.138" transform="translate(33.176 32.607)" fill="#acbaf2"/>
      <ellipse id="Ellipse_970" data-name="Ellipse 970" cx="2.138" cy="2.138" rx="2.138" ry="2.138" transform="translate(12.643 26.566)" fill="#acbaf2"/>
      <ellipse id="Ellipse_971" data-name="Ellipse 971" cx="2.138" cy="2.138" rx="2.138" ry="2.138" transform="translate(18.256 26.48)" fill="#acbaf2"/>
      <ellipse id="Ellipse_972" data-name="Ellipse 972" cx="2.138" cy="2.138" rx="2.138" ry="2.138" transform="translate(3.198 20.896)" fill="#acbaf2"/>
      <ellipse id="Ellipse_973" data-name="Ellipse 973" cx="2.138" cy="2.138" rx="2.138" ry="2.138" transform="translate(8.89 20.837)" fill="#acbaf2"/>
      <ellipse id="Ellipse_974" data-name="Ellipse 974" cx="2.138" cy="2.138" rx="2.138" ry="2.138" transform="translate(23.956 26.371)" fill="#acbaf2"/>
      <ellipse id="Ellipse_975" data-name="Ellipse 975" cx="2.138" cy="2.138" rx="2.138" ry="2.138" transform="translate(14.661 20.777)" fill="#acbaf2"/>
      <ellipse id="Ellipse_976" data-name="Ellipse 976" cx="2.138" cy="2.138" rx="2.138" ry="2.138" transform="translate(29.495 26.9)" fill="#acbaf2"/>
      <ellipse id="Ellipse_977" data-name="Ellipse 977" cx="2.138" cy="2.138" rx="2.138" ry="2.138" transform="translate(5.381 15.272)" fill="#acbaf2"/>
      <ellipse id="Ellipse_978" data-name="Ellipse 978" cx="2.138" cy="2.138" rx="2.138" ry="2.138" transform="translate(20.544 20.713)" fill="#acbaf2"/>
      <ellipse id="Ellipse_979" data-name="Ellipse 979" cx="2.138" cy="2.138" rx="2.138" ry="2.138" transform="translate(11.298 15.257)" fill="#acbaf2"/>
      <ellipse id="Ellipse_980" data-name="Ellipse 980" cx="2.138" cy="2.138" rx="2.138" ry="2.138" transform="translate(35.397 26.873)" fill="#acbaf2"/>
      <ellipse id="Ellipse_981" data-name="Ellipse 981" cx="2.138" cy="2.138" rx="2.138" ry="2.138" transform="translate(26.585 20.657)" fill="#acbaf2"/>
      <ellipse id="Ellipse_982" data-name="Ellipse 982" cx="2.138" cy="2.138" rx="2.138" ry="2.138" transform="translate(17.346 15.26)" fill="#acbaf2"/>
      <ellipse id="Ellipse_983" data-name="Ellipse 983" cx="2.138" cy="2.138" rx="2.138" ry="2.138" transform="translate(8.096 9.879)" fill="#acbaf2"/>
      <ellipse id="Ellipse_984" data-name="Ellipse 984" cx="2.138" cy="2.138" rx="2.138" ry="2.138" transform="translate(32.288 21.526)" fill="#acbaf2"/>
      <ellipse id="Ellipse_985" data-name="Ellipse 985" cx="2.138" cy="2.138" rx="2.138" ry="2.138" transform="translate(14.283 9.958)" fill="#acbaf2"/>
      <ellipse id="Ellipse_986" data-name="Ellipse 986" cx="2.138" cy="2.138" rx="2.138" ry="2.138" transform="translate(23.57 15.298)" fill="#acbaf2"/>
      <ellipse id="Ellipse_987" data-name="Ellipse 987" cx="2.138" cy="2.138" rx="2.138" ry="2.138" transform="translate(11.313 4.775)" fill="#acbaf2"/>
      <ellipse id="Ellipse_988" data-name="Ellipse 988" cx="2.138" cy="2.138" rx="2.138" ry="2.138" transform="translate(20.657 10.096)" fill="#acbaf2"/>
      <ellipse id="Ellipse_989" data-name="Ellipse 989" cx="2.138" cy="2.138" rx="2.138" ry="2.138" transform="translate(30.053 15.403)" fill="#acbaf2"/>
      <ellipse id="Ellipse_990" data-name="Ellipse 990" cx="2.138" cy="2.138" rx="2.138" ry="2.138" transform="translate(38.715 21.698)" fill="#acbaf2"/>
      <ellipse id="Ellipse_991" data-name="Ellipse 991" cx="2.138" cy="2.138" rx="2.138" ry="2.138" transform="translate(17.811 5.007)" fill="#acbaf2"/>
      <ellipse id="Ellipse_992" data-name="Ellipse 992" cx="2.138" cy="2.138" rx="2.138" ry="2.138" transform="translate(15.006)" fill="#acbaf2"/>
      <ellipse id="Ellipse_993" data-name="Ellipse 993" cx="2.138" cy="2.138" rx="2.138" ry="2.138" transform="translate(27.289 10.332)" fill="#acbaf2"/>
      <ellipse id="Ellipse_994" data-name="Ellipse 994" cx="2.138" cy="2.138" rx="2.138" ry="2.138" transform="translate(35.94 16.691)" fill="#acbaf2"/>
    </g>
    <g id="LR" transform="translate(19.136)">
      <ellipse id="Ellipse_995" data-name="Ellipse 995" cx="2.138" cy="2.138" rx="2.138" ry="2.138" transform="translate(5.419 27.42)" fill="#6a85f4"/>
      <ellipse id="Ellipse_996" data-name="Ellipse 996" cx="2.138" cy="2.138" rx="2.138" ry="2.138" transform="translate(2.704 22.514)" fill="#6a85f4"/>
      <ellipse id="Ellipse_997" data-name="Ellipse 997" cx="2.138" cy="2.138" rx="2.138" ry="2.138" transform="translate(0 17.661)" fill="#6a85f4"/>
      <ellipse id="Ellipse_998" data-name="Ellipse 998" cx="2.138" cy="2.138" rx="2.138" ry="2.138" transform="translate(15.137 32.798)" fill="#6a85f4"/>
      <ellipse id="Ellipse_999" data-name="Ellipse 999" cx="2.138" cy="2.138" rx="2.138" ry="2.138" transform="translate(12.493 27.959)" fill="#6a85f4"/>
      <ellipse id="Ellipse_1000" data-name="Ellipse 1000" cx="2.138" cy="2.138" rx="2.138" ry="2.138" transform="translate(9.845 23.17)" fill="#6a85f4"/>
      <ellipse id="Ellipse_1001" data-name="Ellipse 1001" cx="2.138" cy="2.138" rx="2.138" ry="2.138" transform="translate(23.855 39.348)" fill="#6a85f4"/>
      <ellipse id="Ellipse_1002" data-name="Ellipse 1002" cx="2.138" cy="2.138" rx="2.138" ry="2.138" transform="translate(7.194 18.414)" fill="#6a85f4"/>
      <ellipse id="Ellipse_1003" data-name="Ellipse 1003" cx="2.138" cy="2.138" rx="2.138" ry="2.138" transform="translate(4.539 13.68)" fill="#6a85f4"/>
      <ellipse id="Ellipse_1004" data-name="Ellipse 1004" cx="2.138" cy="2.138" rx="2.138" ry="2.138" transform="translate(21.211 34.599)" fill="#6a85f4"/>
      <ellipse id="Ellipse_1005" data-name="Ellipse 1005" cx="2.138" cy="2.138" rx="2.138" ry="2.138" transform="translate(20.016 28.824)" fill="#6a85f4"/>
      <ellipse id="Ellipse_1006" data-name="Ellipse 1006" cx="2.138" cy="2.138" rx="2.138" ry="2.138" transform="translate(17.38 24.143)" fill="#6a85f4"/>
      <ellipse id="Ellipse_1007" data-name="Ellipse 1007" cx="2.138" cy="2.138" rx="2.138" ry="2.138" transform="translate(14.736 19.473)" fill="#6a85f4"/>
      <ellipse id="Ellipse_1008" data-name="Ellipse 1008" cx="2.138" cy="2.138" rx="2.138" ry="2.138" transform="translate(12.089 14.811)" fill="#6a85f4"/>
      <ellipse id="Ellipse_1009" data-name="Ellipse 1009" cx="2.138" cy="2.138" rx="2.138" ry="2.138" transform="translate(9.433 10.152)" fill="#6a85f4"/>
      <ellipse id="Ellipse_1010" data-name="Ellipse 1010" cx="2.138" cy="2.138" rx="2.138" ry="2.138" transform="translate(26.252 31.236)" fill="#6a85f4"/>
      <ellipse id="Ellipse_1011" data-name="Ellipse 1011" cx="2.138" cy="2.138" rx="2.138" ry="2.138" transform="translate(28.929 35.872)" fill="#6a85f4"/>
      <ellipse id="Ellipse_1012" data-name="Ellipse 1012" cx="2.138" cy="2.138" rx="2.138" ry="2.138" transform="translate(14.646 7.112)" fill="#6a85f4"/>
      <ellipse id="Ellipse_1013" data-name="Ellipse 1013" cx="2.138" cy="2.138" rx="2.138" ry="2.138" transform="translate(17.339 11.744)" fill="#6a85f4"/>
      <ellipse id="Ellipse_1014" data-name="Ellipse 1014" cx="2.138" cy="2.138" rx="2.138" ry="2.138" transform="translate(20.031 16.373)" fill="#6a85f4"/>
      <ellipse id="Ellipse_1015" data-name="Ellipse 1015" cx="2.138" cy="2.138" rx="2.138" ry="2.138" transform="translate(22.731 21.005)" fill="#6a85f4"/>
      <ellipse id="Ellipse_1016" data-name="Ellipse 1016" cx="2.138" cy="2.138" rx="2.138" ry="2.138" transform="translate(25.439 25.634)" fill="#6a85f4"/>
      <ellipse id="Ellipse_1017" data-name="Ellipse 1017" cx="2.138" cy="2.138" rx="2.138" ry="2.138" transform="translate(20.129 4.584)" fill="#6a85f4"/>
      <ellipse id="Ellipse_1018" data-name="Ellipse 1018" cx="2.138" cy="2.138" rx="2.138" ry="2.138" transform="translate(22.881 9.246)" fill="#6a85f4"/>
      <ellipse id="Ellipse_1019" data-name="Ellipse 1019" cx="2.138" cy="2.138" rx="2.138" ry="2.138" transform="translate(25.653 13.916)" fill="#6a85f4"/>
      <ellipse id="Ellipse_1020" data-name="Ellipse 1020" cx="2.138" cy="2.138" rx="2.138" ry="2.138" transform="translate(31.783 28.768)" fill="#6a85f4"/>
      <ellipse id="Ellipse_1021" data-name="Ellipse 1021" cx="2.138" cy="2.138" rx="2.138" ry="2.138" transform="translate(28.45 18.601)" fill="#6a85f4"/>
      <ellipse id="Ellipse_1022" data-name="Ellipse 1022" cx="2.138" cy="2.138" rx="2.138" ry="2.138" transform="translate(31.285 23.301)" fill="#6a85f4"/>
      <ellipse id="Ellipse_1023" data-name="Ellipse 1023" cx="2.138" cy="2.138" rx="2.138" ry="2.138" transform="translate(34.588 33.476)" fill="#6a85f4"/>
      <ellipse id="Ellipse_1024" data-name="Ellipse 1024" cx="2.138" cy="2.138" rx="2.138" ry="2.138" transform="translate(25.825 2.591)" fill="#6a85f4"/>
      <ellipse id="Ellipse_1025" data-name="Ellipse 1025" cx="2.138" cy="2.138" rx="2.138" ry="2.138" transform="translate(28.66 7.351)" fill="#6a85f4"/>
      <ellipse id="Ellipse_1026" data-name="Ellipse 1026" cx="2.138" cy="2.138" rx="2.138" ry="2.138" transform="translate(31.524 12.137)" fill="#6a85f4"/>
      <ellipse id="Ellipse_1027" data-name="Ellipse 1027" cx="2.138" cy="2.138" rx="2.138" ry="2.138" transform="translate(34.438 16.976)" fill="#6a85f4"/>
      <ellipse id="Ellipse_1028" data-name="Ellipse 1028" cx="2.138" cy="2.138" rx="2.138" ry="2.138" transform="translate(31.686 1.157)" fill="#6a85f4"/>
      <ellipse id="Ellipse_1029" data-name="Ellipse 1029" cx="2.138" cy="2.138" rx="2.138" ry="2.138" transform="translate(37.651 27.259)" fill="#6a85f4"/>
      <ellipse id="Ellipse_1030" data-name="Ellipse 1030" cx="2.138" cy="2.138" rx="2.138" ry="2.138" transform="translate(34.603 6.074)" fill="#6a85f4"/>
      <ellipse id="Ellipse_1031" data-name="Ellipse 1031" cx="2.138" cy="2.138" rx="2.138" ry="2.138" transform="translate(37.411 21.878)" fill="#6a85f4"/>
      <ellipse id="Ellipse_1032" data-name="Ellipse 1032" cx="2.138" cy="2.138" rx="2.138" ry="2.138" transform="translate(37.565 11.062)" fill="#6a85f4"/>
      <ellipse id="Ellipse_1033" data-name="Ellipse 1033" cx="2.138" cy="2.138" rx="2.138" ry="2.138" transform="translate(40.613 32.255)" fill="#6a85f4"/>
      <ellipse id="Ellipse_1034" data-name="Ellipse 1034" cx="2.138" cy="2.138" rx="2.138" ry="2.138" transform="translate(37.659 0.292)" fill="#6a85f4"/>
      <ellipse id="Ellipse_1035" data-name="Ellipse 1035" cx="2.138" cy="2.138" rx="2.138" ry="2.138" transform="translate(40.587 16.152)" fill="#6a85f4"/>
      <ellipse id="Ellipse_1036" data-name="Ellipse 1036" cx="2.138" cy="2.138" rx="2.138" ry="2.138" transform="translate(40.647 5.43)" fill="#6a85f4"/>
      <ellipse id="Ellipse_1037" data-name="Ellipse 1037" cx="2.138" cy="2.138" rx="2.138" ry="2.138" transform="translate(43.688)" fill="#6a85f4"/>
      <ellipse id="Ellipse_1038" data-name="Ellipse 1038" cx="2.138" cy="2.138" rx="2.138" ry="2.138" transform="translate(43.688 10.699)" fill="#6a85f4"/>
      <ellipse id="Ellipse_1039" data-name="Ellipse 1039" cx="2.138" cy="2.138" rx="2.138" ry="2.138" transform="translate(43.688 21.402)" fill="#6a85f4"/>
      <ellipse id="Ellipse_1040" data-name="Ellipse 1040" cx="2.138" cy="2.138" rx="2.138" ry="2.138" transform="translate(43.688 26.75)" fill="#6a85f4"/>
      <ellipse id="Ellipse_1041" data-name="Ellipse 1041" cx="2.138" cy="2.138" rx="2.138" ry="2.138" transform="translate(46.729 5.43)" fill="#6a85f4"/>
      <ellipse id="Ellipse_1042" data-name="Ellipse 1042" cx="2.138" cy="2.138" rx="2.138" ry="2.138" transform="translate(46.789 16.152)" fill="#6a85f4"/>
      <ellipse id="Ellipse_1043" data-name="Ellipse 1043" cx="2.138" cy="2.138" rx="2.138" ry="2.138" transform="translate(49.717 0.292)" fill="#6a85f4"/>
      <ellipse id="Ellipse_1044" data-name="Ellipse 1044" cx="2.138" cy="2.138" rx="2.138" ry="2.138" transform="translate(46.762 32.255)" fill="#6a85f4"/>
      <ellipse id="Ellipse_1045" data-name="Ellipse 1045" cx="2.138" cy="2.138" rx="2.138" ry="2.138" transform="translate(49.811 11.062)" fill="#6a85f4"/>
      <ellipse id="Ellipse_1046" data-name="Ellipse 1046" cx="2.138" cy="2.138" rx="2.138" ry="2.138" transform="translate(49.964 21.878)" fill="#6a85f4"/>
      <ellipse id="Ellipse_1047" data-name="Ellipse 1047" cx="2.138" cy="2.138" rx="2.138" ry="2.138" transform="translate(52.773 6.074)" fill="#6a85f4"/>
      <ellipse id="Ellipse_1048" data-name="Ellipse 1048" cx="2.138" cy="2.138" rx="2.138" ry="2.138" transform="translate(49.725 27.259)" fill="#6a85f4"/>
      <ellipse id="Ellipse_1049" data-name="Ellipse 1049" cx="2.138" cy="2.138" rx="2.138" ry="2.138" transform="translate(55.69 1.157)" fill="#6a85f4"/>
      <ellipse id="Ellipse_1050" data-name="Ellipse 1050" cx="2.138" cy="2.138" rx="2.138" ry="2.138" transform="translate(52.938 16.976)" fill="#6a85f4"/>
      <ellipse id="Ellipse_1051" data-name="Ellipse 1051" cx="2.138" cy="2.138" rx="2.138" ry="2.138" transform="translate(55.851 12.137)" fill="#6a85f4"/>
      <ellipse id="Ellipse_1052" data-name="Ellipse 1052" cx="2.138" cy="2.138" rx="2.138" ry="2.138" transform="translate(58.716 7.351)" fill="#6a85f4"/>
      <ellipse id="Ellipse_1053" data-name="Ellipse 1053" cx="2.138" cy="2.138" rx="2.138" ry="2.138" transform="translate(61.551 2.591)" fill="#6a85f4"/>
      <ellipse id="Ellipse_1054" data-name="Ellipse 1054" cx="2.138" cy="2.138" rx="2.138" ry="2.138" transform="translate(52.788 33.476)" fill="#6a85f4"/>
      <ellipse id="Ellipse_1055" data-name="Ellipse 1055" cx="2.138" cy="2.138" rx="2.138" ry="2.138" transform="translate(56.091 23.301)" fill="#6a85f4"/>
      <ellipse id="Ellipse_1056" data-name="Ellipse 1056" cx="2.138" cy="2.138" rx="2.138" ry="2.138" transform="translate(58.926 18.601)" fill="#6a85f4"/>
      <ellipse id="Ellipse_1057" data-name="Ellipse 1057" cx="2.138" cy="2.138" rx="2.138" ry="2.138" transform="translate(55.593 28.768)" fill="#6a85f4"/>
      <ellipse id="Ellipse_1058" data-name="Ellipse 1058" cx="2.138" cy="2.138" rx="2.138" ry="2.138" transform="translate(61.723 13.916)" fill="#6a85f4"/>
      <ellipse id="Ellipse_1059" data-name="Ellipse 1059" cx="2.138" cy="2.138" rx="2.138" ry="2.138" transform="translate(64.495 9.246)" fill="#6a85f4"/>
      <ellipse id="Ellipse_1060" data-name="Ellipse 1060" cx="2.138" cy="2.138" rx="2.138" ry="2.138" transform="translate(67.247 4.584)" fill="#6a85f4"/>
      <ellipse id="Ellipse_1061" data-name="Ellipse 1061" cx="2.138" cy="2.138" rx="2.138" ry="2.138" transform="translate(61.937 25.634)" fill="#6a85f4"/>
      <ellipse id="Ellipse_1062" data-name="Ellipse 1062" cx="2.138" cy="2.138" rx="2.138" ry="2.138" transform="translate(64.644 21.005)" fill="#6a85f4"/>
      <ellipse id="Ellipse_1063" data-name="Ellipse 1063" cx="2.138" cy="2.138" rx="2.138" ry="2.138" transform="translate(67.344 16.373)" fill="#6a85f4"/>
      <ellipse id="Ellipse_1064" data-name="Ellipse 1064" cx="2.138" cy="2.138" rx="2.138" ry="2.138" transform="translate(70.037 11.744)" fill="#6a85f4"/>
      <ellipse id="Ellipse_1065" data-name="Ellipse 1065" cx="2.138" cy="2.138" rx="2.138" ry="2.138" transform="translate(72.73 7.112)" fill="#6a85f4"/>
      <ellipse id="Ellipse_1066" data-name="Ellipse 1066" cx="2.138" cy="2.138" rx="2.138" ry="2.138" transform="translate(58.447 35.872)" fill="#6a85f4"/>
      <ellipse id="Ellipse_1067" data-name="Ellipse 1067" cx="2.138" cy="2.138" rx="2.138" ry="2.138" transform="translate(61.124 31.236)" fill="#6a85f4"/>
      <ellipse id="Ellipse_1068" data-name="Ellipse 1068" cx="2.138" cy="2.138" rx="2.138" ry="2.138" transform="translate(77.942 10.152)" fill="#6a85f4"/>
    </g>
    <g id="LI" transform="translate(82.657 13.68)">
      <ellipse id="Ellipse_1069" data-name="Ellipse 1069" cx="2.138" cy="2.138" rx="2.138" ry="2.138" transform="translate(11.766 1.131)" fill="#4267cb"/>
      <ellipse id="Ellipse_1070" data-name="Ellipse 1070" cx="2.138" cy="2.138" rx="2.138" ry="2.138" transform="translate(9.119 5.793)" fill="#4267cb"/>
      <ellipse id="Ellipse_1071" data-name="Ellipse 1071" cx="2.138" cy="2.138" rx="2.138" ry="2.138" transform="translate(6.475 10.463)" fill="#4267cb"/>
      <ellipse id="Ellipse_1072" data-name="Ellipse 1072" cx="2.138" cy="2.138" rx="2.138" ry="2.138" transform="translate(3.839 15.144)" fill="#4267cb"/>
      <ellipse id="Ellipse_1073" data-name="Ellipse 1073" cx="2.138" cy="2.138" rx="2.138" ry="2.138" transform="translate(2.644 20.919)" fill="#4267cb"/>
      <ellipse id="Ellipse_1074" data-name="Ellipse 1074" cx="2.138" cy="2.138" rx="2.138" ry="2.138" transform="translate(19.316)" fill="#4267cb"/>
      <ellipse id="Ellipse_1075" data-name="Ellipse 1075" cx="2.138" cy="2.138" rx="2.138" ry="2.138" transform="translate(16.661 4.734)" fill="#4267cb"/>
      <ellipse id="Ellipse_1076" data-name="Ellipse 1076" cx="2.138" cy="2.138" rx="2.138" ry="2.138" transform="translate(0 25.667)" fill="#4267cb"/>
      <ellipse id="Ellipse_1077" data-name="Ellipse 1077" cx="2.138" cy="2.138" rx="2.138" ry="2.138" transform="translate(14.01 9.49)" fill="#4267cb"/>
      <ellipse id="Ellipse_1078" data-name="Ellipse 1078" cx="2.138" cy="2.138" rx="2.138" ry="2.138" transform="translate(11.362 14.279)" fill="#4267cb"/>
      <ellipse id="Ellipse_1079" data-name="Ellipse 1079" cx="2.138" cy="2.138" rx="2.138" ry="2.138" transform="translate(8.718 19.118)" fill="#4267cb"/>
    </g>
    <g id="RN" transform="translate(86.934 17.661)">
      <ellipse id="Ellipse_1080" data-name="Ellipse 1080" cx="2.138" cy="2.138" rx="2.138" ry="2.138" transform="translate(19.578)" fill="#26286f"/>
      <ellipse id="Ellipse_1081" data-name="Ellipse 1081" cx="2.138" cy="2.138" rx="2.138" ry="2.138" transform="translate(16.874 4.853)" fill="#26286f"/>
      <ellipse id="Ellipse_1082" data-name="Ellipse 1082" cx="2.138" cy="2.138" rx="2.138" ry="2.138" transform="translate(14.159 9.759)" fill="#26286f"/>
      <ellipse id="Ellipse_1083" data-name="Ellipse 1083" cx="2.138" cy="2.138" rx="2.138" ry="2.138" transform="translate(2.775 21.091)" fill="#26286f"/>
      <ellipse id="Ellipse_1084" data-name="Ellipse 1084" cx="2.138" cy="2.138" rx="2.138" ry="2.138" transform="translate(11.426 14.732)" fill="#26286f"/>
      <ellipse id="Ellipse_1085" data-name="Ellipse 1085" cx="2.138" cy="2.138" rx="2.138" ry="2.138" transform="translate(23.709 4.4)" fill="#26286f"/>
      <ellipse id="Ellipse_1086" data-name="Ellipse 1086" cx="2.138" cy="2.138" rx="2.138" ry="2.138" transform="translate(20.904 9.407)" fill="#26286f"/>
      <ellipse id="Ellipse_1087" data-name="Ellipse 1087" cx="2.138" cy="2.138" rx="2.138" ry="2.138" transform="translate(0 26.098)" fill="#26286f"/>
      <ellipse id="Ellipse_1088" data-name="Ellipse 1088" cx="2.138" cy="2.138" rx="2.138" ry="2.138" transform="translate(8.662 19.803)" fill="#26286f"/>
      <ellipse id="Ellipse_1089" data-name="Ellipse 1089" cx="2.138" cy="2.138" rx="2.138" ry="2.138" transform="translate(18.058 14.496)" fill="#26286f"/>
      <ellipse id="Ellipse_1090" data-name="Ellipse 1090" cx="2.138" cy="2.138" rx="2.138" ry="2.138" transform="translate(27.401 9.175)" fill="#26286f"/>
      <ellipse id="Ellipse_1091" data-name="Ellipse 1091" cx="2.138" cy="2.138" rx="2.138" ry="2.138" transform="translate(15.144 19.698)" fill="#26286f"/>
      <ellipse id="Ellipse_1092" data-name="Ellipse 1092" cx="2.138" cy="2.138" rx="2.138" ry="2.138" transform="translate(24.432 14.358)" fill="#26286f"/>
      <ellipse id="Ellipse_1093" data-name="Ellipse 1093" cx="2.138" cy="2.138" rx="2.138" ry="2.138" transform="translate(6.426 25.926)" fill="#26286f"/>
      <ellipse id="Ellipse_1094" data-name="Ellipse 1094" cx="2.138" cy="2.138" rx="2.138" ry="2.138" transform="translate(30.618 14.279)" fill="#26286f"/>
      <ellipse id="Ellipse_1095" data-name="Ellipse 1095" cx="2.138" cy="2.138" rx="2.138" ry="2.138" transform="translate(21.368 19.661)" fill="#26286f"/>
      <ellipse id="Ellipse_1096" data-name="Ellipse 1096" cx="2.138" cy="2.138" rx="2.138" ry="2.138" transform="translate(12.13 25.057)" fill="#26286f"/>
      <ellipse id="Ellipse_1097" data-name="Ellipse 1097" cx="2.138" cy="2.138" rx="2.138" ry="2.138" transform="translate(3.318 31.274)" fill="#26286f"/>
      <ellipse id="Ellipse_1098" data-name="Ellipse 1098" cx="2.138" cy="2.138" rx="2.138" ry="2.138" transform="translate(27.416 19.657)" fill="#26286f"/>
      <ellipse id="Ellipse_1099" data-name="Ellipse 1099" cx="2.138" cy="2.138" rx="2.138" ry="2.138" transform="translate(18.17 25.113)" fill="#26286f"/>
      <ellipse id="Ellipse_1100" data-name="Ellipse 1100" cx="2.138" cy="2.138" rx="2.138" ry="2.138" transform="translate(33.333 19.672)" fill="#26286f"/>
      <ellipse id="Ellipse_1101" data-name="Ellipse 1101" cx="2.138" cy="2.138" rx="2.138" ry="2.138" transform="translate(9.22 31.3)" fill="#26286f"/>
      <ellipse id="Ellipse_1102" data-name="Ellipse 1102" cx="2.138" cy="2.138" rx="2.138" ry="2.138" transform="translate(24.053 25.177)" fill="#26286f"/>
      <ellipse id="Ellipse_1103" data-name="Ellipse 1103" cx="2.138" cy="2.138" rx="2.138" ry="2.138" transform="translate(14.759 30.772)" fill="#26286f"/>
      <ellipse id="Ellipse_1104" data-name="Ellipse 1104" cx="2.138" cy="2.138" rx="2.138" ry="2.138" transform="translate(29.824 25.237)" fill="#26286f"/>
      <ellipse id="Ellipse_1105" data-name="Ellipse 1105" cx="2.138" cy="2.138" rx="2.138" ry="2.138" transform="translate(35.517 25.297)" fill="#26286f"/>
      <ellipse id="Ellipse_1106" data-name="Ellipse 1106" cx="2.138" cy="2.138" rx="2.138" ry="2.138" transform="translate(20.458 30.88)" fill="#26286f"/>
      <ellipse id="Ellipse_1107" data-name="Ellipse 1107" cx="2.138" cy="2.138" rx="2.138" ry="2.138" transform="translate(26.072 30.966)" fill="#26286f"/>
      <ellipse id="Ellipse_1108" data-name="Ellipse 1108" cx="2.138" cy="2.138" rx="2.138" ry="2.138" transform="translate(5.539 37.007)" fill="#26286f"/>
      <ellipse id="Ellipse_1109" data-name="Ellipse 1109" cx="2.138" cy="2.138" rx="2.138" ry="2.138" transform="translate(31.633 31.041)" fill="#26286f"/>
      <ellipse id="Ellipse_1110" data-name="Ellipse 1110" cx="2.138" cy="2.138" rx="2.138" ry="2.138" transform="translate(11.074 37.067)" fill="#26286f"/>
      <ellipse id="Ellipse_1111" data-name="Ellipse 1111" cx="2.138" cy="2.138" rx="2.138" ry="2.138" transform="translate(37.149 31.105)" fill="#26286f"/>
      <ellipse id="Ellipse_1112" data-name="Ellipse 1112" cx="2.138" cy="2.138" rx="2.138" ry="2.138" transform="translate(16.496 36.82)" fill="#26286f"/>
      <ellipse id="Ellipse_1113" data-name="Ellipse 1113" cx="2.138" cy="2.138" rx="2.138" ry="2.138" transform="translate(21.96 36.898)" fill="#26286f"/>
      <ellipse id="Ellipse_1114" data-name="Ellipse 1114" cx="2.138" cy="2.138" rx="2.138" ry="2.138" transform="translate(27.398 36.958)" fill="#26286f"/>
      <ellipse id="Ellipse_1115" data-name="Ellipse 1115" cx="2.138" cy="2.138" rx="2.138" ry="2.138" transform="translate(32.813 37.007)" fill="#26286f"/>
      <ellipse id="Ellipse_1116" data-name="Ellipse 1116" cx="2.138" cy="2.138" rx="2.138" ry="2.138" transform="translate(38.22 37.048)" fill="#26286f"/>
      <ellipse id="Ellipse_1117" data-name="Ellipse 1117" cx="2.138" cy="2.138" rx="2.138" ry="2.138" transform="translate(6.576 43.062)" fill="#26286f"/>
      <ellipse id="Ellipse_1118" data-name="Ellipse 1118" cx="2.138" cy="2.138" rx="2.138" ry="2.138" transform="translate(11.939 43.062)" fill="#26286f"/>
      <ellipse id="Ellipse_1119" data-name="Ellipse 1119" cx="2.138" cy="2.138" rx="2.138" ry="2.138" transform="translate(17.298 43.062)" fill="#26286f"/>
    </g>
    <g id="NI" transform="translate(109.587 60.723)">
      <ellipse id="Ellipse_1120" data-name="Ellipse 1120" cx="2.138" cy="2.138" rx="2.138" ry="2.138" fill="#dedede"/>
      <ellipse id="Ellipse_1121" data-name="Ellipse 1121" cx="2.138" cy="2.138" rx="2.138" ry="2.138" transform="translate(5.355)" fill="#dedede"/>
      <ellipse id="Ellipse_1122" data-name="Ellipse 1122" cx="2.138" cy="2.138" rx="2.138" ry="2.138" transform="translate(10.71)" fill="#dedede"/>
      <ellipse id="Ellipse_1123" data-name="Ellipse 1123" cx="2.138" cy="2.138" rx="2.138" ry="2.138" transform="translate(16.062)" fill="#dedede"/>
    </g>
  </g>
</svg>
