<svg xmlns="http://www.w3.org/2000/svg" xmlns:xlink="http://www.w3.org/1999/xlink" width="130" height="65" viewBox="0 0 130 65">
  <defs>
    <clipPath id="clip-_._assets_seats-viz-gre">
      <rect width="130" height="65"/>
    </clipPath>
  </defs>
  <g id="_._assets_seats-viz-gre" data-name="./assets/seats-viz-gre" clip-path="url(#clip-_._assets_seats-viz-gre)">
    <rect width="130" height="65" fill="#fff"/>
    <text id="_169" data-name="169" transform="translate(65 64)" font-size="21" font-family="LibeSansSemiCondensed-Bold, LibeSans SemiCondensed" font-weight="700"><tspan x="-13.535" y="0">169</tspan></text>
    <g id="SRC" transform="translate(0 48.766)">
      <ellipse id="Ellipse_744" data-name="Ellipse 744" cx="2.138" cy="2.138" rx="2.138" ry="2.138" transform="translate(0 11.957)" fill="#ff697f"/>
      <ellipse id="Ellipse_745" data-name="Ellipse 745" cx="2.138" cy="2.138" rx="2.138" ry="2.138" transform="translate(5.351 11.957)" fill="#ff697f"/>
      <ellipse id="Ellipse_746" data-name="Ellipse 746" cx="2.138" cy="2.138" rx="2.138" ry="2.138" transform="translate(10.707 11.957)" fill="#ff697f"/>
      <ellipse id="Ellipse_747" data-name="Ellipse 747" cx="2.138" cy="2.138" rx="2.138" ry="2.138" transform="translate(16.062 11.957)" fill="#ff697f"/>
      <ellipse id="Ellipse_748" data-name="Ellipse 748" cx="2.138" cy="2.138" rx="2.138" ry="2.138" transform="translate(21.417 11.957)" fill="#ff697f"/>
      <ellipse id="Ellipse_749" data-name="Ellipse 749" cx="2.138" cy="2.138" rx="2.138" ry="2.138" transform="translate(26.776 11.957)" fill="#ff697f"/>
      <ellipse id="Ellipse_750" data-name="Ellipse 750" cx="2.138" cy="2.138" rx="2.138" ry="2.138" transform="translate(32.139 11.957)" fill="#ff697f"/>
      <ellipse id="Ellipse_751" data-name="Ellipse 751" cx="2.138" cy="2.138" rx="2.138" ry="2.138" transform="translate(0.494 5.943)" fill="#ff697f"/>
      <ellipse id="Ellipse_752" data-name="Ellipse 752" cx="2.138" cy="2.138" rx="2.138" ry="2.138" transform="translate(5.902 5.902)" fill="#ff697f"/>
      <ellipse id="Ellipse_753" data-name="Ellipse 753" cx="2.138" cy="2.138" rx="2.138" ry="2.138" transform="translate(11.317 5.853)" fill="#ff697f"/>
      <ellipse id="Ellipse_754" data-name="Ellipse 754" cx="2.138" cy="2.138" rx="2.138" ry="2.138" transform="translate(16.755 5.793)" fill="#ff697f"/>
      <ellipse id="Ellipse_755" data-name="Ellipse 755" cx="2.138" cy="2.138" rx="2.138" ry="2.138" transform="translate(22.218 5.715)" fill="#ff697f"/>
      <ellipse id="Ellipse_756" data-name="Ellipse 756" cx="2.138" cy="2.138" rx="2.138" ry="2.138" transform="translate(1.565)" fill="#ff697f"/>
      <ellipse id="Ellipse_757" data-name="Ellipse 757" cx="2.138" cy="2.138" rx="2.138" ry="2.138" transform="translate(27.723 5.614)" fill="#ff697f"/>
    </g>
    <g id="LPPPFPP" transform="translate(3.198 42.958)">
      <ellipse id="Ellipse_758" data-name="Ellipse 758" cx="2.138" cy="2.138" rx="2.138" ry="2.138" transform="translate(3.883 5.745)" fill="#ffcc58"/>
      <ellipse id="Ellipse_759" data-name="Ellipse 759" cx="2.138" cy="2.138" rx="2.138" ry="2.138" transform="translate(29.978 11.71)" fill="#ffcc58"/>
      <ellipse id="Ellipse_760" data-name="Ellipse 760" cx="2.138" cy="2.138" rx="2.138" ry="2.138" transform="translate(9.445 5.67)" fill="#ffcc58"/>
      <ellipse id="Ellipse_761" data-name="Ellipse 761" cx="2.138" cy="2.138" rx="2.138" ry="2.138" transform="translate(15.058 5.584)" fill="#ffcc58"/>
      <ellipse id="Ellipse_762" data-name="Ellipse 762" cx="2.138" cy="2.138" rx="2.138" ry="2.138" fill="#ffcc58"/>
    </g>
    <g id="AT" transform="translate(5.381 37.318)">
      <ellipse id="Ellipse_763" data-name="Ellipse 763" cx="2.138" cy="2.138" rx="2.138" ry="2.138" transform="translate(3.509 5.58)" fill="#fc3"/>
      <ellipse id="Ellipse_764" data-name="Ellipse 764" cx="2.138" cy="2.138" rx="2.138" ry="2.138" transform="translate(18.575 11.115)" fill="#fc3"/>
      <ellipse id="Ellipse_765" data-name="Ellipse 765" cx="2.138" cy="2.138" rx="2.138" ry="2.138" transform="translate(9.28 5.52)" fill="#fc3"/>
      <ellipse id="Ellipse_766" data-name="Ellipse 766" cx="2.138" cy="2.138" rx="2.138" ry="2.138" transform="translate(24.394 10.987)" fill="#fc3"/>
      <ellipse id="Ellipse_767" data-name="Ellipse 767" cx="2.138" cy="2.138" rx="2.138" ry="2.138" transform="translate(0 0.015)" fill="#fc3"/>
      <ellipse id="Ellipse_768" data-name="Ellipse 768" cx="2.138" cy="2.138" rx="2.138" ry="2.138" transform="translate(15.163 5.456)" fill="#fc3"/>
      <ellipse id="Ellipse_769" data-name="Ellipse 769" cx="2.138" cy="2.138" rx="2.138" ry="2.138" transform="translate(5.917)" fill="#fc3"/>
    </g>
    <g id="MR" transform="translate(8.096)">
      <ellipse id="Ellipse_770" data-name="Ellipse 770" cx="2.138" cy="2.138" rx="2.138" ry="2.138" transform="translate(27.3 48.934)" fill="#6a85f4"/>
      <ellipse id="Ellipse_771" data-name="Ellipse 771" cx="2.138" cy="2.138" rx="2.138" ry="2.138" transform="translate(18.489 42.718)" fill="#6a85f4"/>
      <ellipse id="Ellipse_772" data-name="Ellipse 772" cx="2.138" cy="2.138" rx="2.138" ry="2.138" transform="translate(9.25 37.322)" fill="#6a85f4"/>
      <ellipse id="Ellipse_773" data-name="Ellipse 773" cx="2.138" cy="2.138" rx="2.138" ry="2.138" transform="translate(0 31.94)" fill="#6a85f4"/>
      <ellipse id="Ellipse_774" data-name="Ellipse 774" cx="2.138" cy="2.138" rx="2.138" ry="2.138" transform="translate(6.187 32.019)" fill="#6a85f4"/>
      <ellipse id="Ellipse_775" data-name="Ellipse 775" cx="2.138" cy="2.138" rx="2.138" ry="2.138" transform="translate(15.474 37.359)" fill="#6a85f4"/>
      <ellipse id="Ellipse_776" data-name="Ellipse 776" cx="2.138" cy="2.138" rx="2.138" ry="2.138" transform="translate(24.776 42.688)" fill="#6a85f4"/>
      <ellipse id="Ellipse_777" data-name="Ellipse 777" cx="2.138" cy="2.138" rx="2.138" ry="2.138" transform="translate(3.217 26.836)" fill="#6a85f4"/>
      <ellipse id="Ellipse_778" data-name="Ellipse 778" cx="2.138" cy="2.138" rx="2.138" ry="2.138" transform="translate(12.56 32.157)" fill="#6a85f4"/>
      <ellipse id="Ellipse_779" data-name="Ellipse 779" cx="2.138" cy="2.138" rx="2.138" ry="2.138" transform="translate(21.956 37.464)" fill="#6a85f4"/>
      <ellipse id="Ellipse_780" data-name="Ellipse 780" cx="2.138" cy="2.138" rx="2.138" ry="2.138" transform="translate(30.618 43.759)" fill="#6a85f4"/>
      <ellipse id="Ellipse_781" data-name="Ellipse 781" cx="2.138" cy="2.138" rx="2.138" ry="2.138" transform="translate(9.714 27.068)" fill="#6a85f4"/>
      <ellipse id="Ellipse_782" data-name="Ellipse 782" cx="2.138" cy="2.138" rx="2.138" ry="2.138" transform="translate(6.909 22.061)" fill="#6a85f4"/>
      <ellipse id="Ellipse_783" data-name="Ellipse 783" cx="2.138" cy="2.138" rx="2.138" ry="2.138" transform="translate(19.193 32.393)" fill="#6a85f4"/>
      <ellipse id="Ellipse_784" data-name="Ellipse 784" cx="2.138" cy="2.138" rx="2.138" ry="2.138" transform="translate(16.459 27.42)" fill="#6a85f4"/>
      <ellipse id="Ellipse_785" data-name="Ellipse 785" cx="2.138" cy="2.138" rx="2.138" ry="2.138" transform="translate(28.817 37.707)" fill="#6a85f4"/>
      <ellipse id="Ellipse_786" data-name="Ellipse 786" cx="2.138" cy="2.138" rx="2.138" ry="2.138" transform="translate(13.744 22.514)" fill="#6a85f4"/>
      <ellipse id="Ellipse_787" data-name="Ellipse 787" cx="2.138" cy="2.138" rx="2.138" ry="2.138" transform="translate(11.04 17.661)" fill="#6a85f4"/>
      <ellipse id="Ellipse_788" data-name="Ellipse 788" cx="2.138" cy="2.138" rx="2.138" ry="2.138" transform="translate(26.177 32.798)" fill="#6a85f4"/>
      <ellipse id="Ellipse_789" data-name="Ellipse 789" cx="2.138" cy="2.138" rx="2.138" ry="2.138" transform="translate(23.533 27.959)" fill="#6a85f4"/>
      <ellipse id="Ellipse_790" data-name="Ellipse 790" cx="2.138" cy="2.138" rx="2.138" ry="2.138" transform="translate(20.885 23.17)" fill="#6a85f4"/>
      <ellipse id="Ellipse_791" data-name="Ellipse 791" cx="2.138" cy="2.138" rx="2.138" ry="2.138" transform="translate(34.895 39.348)" fill="#6a85f4"/>
      <ellipse id="Ellipse_792" data-name="Ellipse 792" cx="2.138" cy="2.138" rx="2.138" ry="2.138" transform="translate(18.234 18.414)" fill="#6a85f4"/>
      <ellipse id="Ellipse_793" data-name="Ellipse 793" cx="2.138" cy="2.138" rx="2.138" ry="2.138" transform="translate(15.579 13.68)" fill="#6a85f4"/>
      <ellipse id="Ellipse_794" data-name="Ellipse 794" cx="2.138" cy="2.138" rx="2.138" ry="2.138" transform="translate(33.674 33.52)" fill="#6a85f4"/>
      <ellipse id="Ellipse_795" data-name="Ellipse 795" cx="2.138" cy="2.138" rx="2.138" ry="2.138" transform="translate(31.056 28.824)" fill="#6a85f4"/>
      <ellipse id="Ellipse_796" data-name="Ellipse 796" cx="2.138" cy="2.138" rx="2.138" ry="2.138" transform="translate(28.42 24.143)" fill="#6a85f4"/>
      <ellipse id="Ellipse_797" data-name="Ellipse 797" cx="2.138" cy="2.138" rx="2.138" ry="2.138" transform="translate(25.776 19.473)" fill="#6a85f4"/>
      <ellipse id="Ellipse_798" data-name="Ellipse 798" cx="2.138" cy="2.138" rx="2.138" ry="2.138" transform="translate(23.128 14.811)" fill="#6a85f4"/>
      <ellipse id="Ellipse_799" data-name="Ellipse 799" cx="2.138" cy="2.138" rx="2.138" ry="2.138" transform="translate(20.473 10.152)" fill="#6a85f4"/>
      <ellipse id="Ellipse_800" data-name="Ellipse 800" cx="2.138" cy="2.138" rx="2.138" ry="2.138" transform="translate(39.969 35.872)" fill="#6a85f4"/>
      <ellipse id="Ellipse_801" data-name="Ellipse 801" cx="2.138" cy="2.138" rx="2.138" ry="2.138" transform="translate(25.686 7.112)" fill="#6a85f4"/>
      <ellipse id="Ellipse_802" data-name="Ellipse 802" cx="2.138" cy="2.138" rx="2.138" ry="2.138" transform="translate(28.379 11.744)" fill="#6a85f4"/>
      <ellipse id="Ellipse_803" data-name="Ellipse 803" cx="2.138" cy="2.138" rx="2.138" ry="2.138" transform="translate(31.071 16.373)" fill="#6a85f4"/>
      <ellipse id="Ellipse_804" data-name="Ellipse 804" cx="2.138" cy="2.138" rx="2.138" ry="2.138" transform="translate(33.771 21.005)" fill="#6a85f4"/>
      <ellipse id="Ellipse_805" data-name="Ellipse 805" cx="2.138" cy="2.138" rx="2.138" ry="2.138" transform="translate(36.479 25.634)" fill="#6a85f4"/>
      <ellipse id="Ellipse_806" data-name="Ellipse 806" cx="2.138" cy="2.138" rx="2.138" ry="2.138" transform="translate(39.198 30.262)" fill="#6a85f4"/>
      <ellipse id="Ellipse_807" data-name="Ellipse 807" cx="2.138" cy="2.138" rx="2.138" ry="2.138" transform="translate(31.169 4.584)" fill="#6a85f4"/>
      <ellipse id="Ellipse_808" data-name="Ellipse 808" cx="2.138" cy="2.138" rx="2.138" ry="2.138" transform="translate(33.921 9.246)" fill="#6a85f4"/>
      <ellipse id="Ellipse_809" data-name="Ellipse 809" cx="2.138" cy="2.138" rx="2.138" ry="2.138" transform="translate(36.692 13.916)" fill="#6a85f4"/>
      <ellipse id="Ellipse_810" data-name="Ellipse 810" cx="2.138" cy="2.138" rx="2.138" ry="2.138" transform="translate(39.49 18.601)" fill="#6a85f4"/>
      <ellipse id="Ellipse_811" data-name="Ellipse 811" cx="2.138" cy="2.138" rx="2.138" ry="2.138" transform="translate(42.325 23.301)" fill="#6a85f4"/>
      <ellipse id="Ellipse_812" data-name="Ellipse 812" cx="2.138" cy="2.138" rx="2.138" ry="2.138" transform="translate(45.628 33.476)" fill="#6a85f4"/>
      <ellipse id="Ellipse_813" data-name="Ellipse 813" cx="2.138" cy="2.138" rx="2.138" ry="2.138" transform="translate(36.865 2.591)" fill="#6a85f4"/>
      <ellipse id="Ellipse_814" data-name="Ellipse 814" cx="2.138" cy="2.138" rx="2.138" ry="2.138" transform="translate(45.208 28.027)" fill="#6a85f4"/>
      <ellipse id="Ellipse_815" data-name="Ellipse 815" cx="2.138" cy="2.138" rx="2.138" ry="2.138" transform="translate(39.7 7.351)" fill="#6a85f4"/>
      <ellipse id="Ellipse_816" data-name="Ellipse 816" cx="2.138" cy="2.138" rx="2.138" ry="2.138" transform="translate(42.564 12.137)" fill="#6a85f4"/>
      <ellipse id="Ellipse_817" data-name="Ellipse 817" cx="2.138" cy="2.138" rx="2.138" ry="2.138" transform="translate(45.478 16.976)" fill="#6a85f4"/>
      <ellipse id="Ellipse_818" data-name="Ellipse 818" cx="2.138" cy="2.138" rx="2.138" ry="2.138" transform="translate(42.725 1.157)" fill="#6a85f4"/>
      <ellipse id="Ellipse_819" data-name="Ellipse 819" cx="2.138" cy="2.138" rx="2.138" ry="2.138" transform="translate(45.643 6.074)" fill="#6a85f4"/>
      <ellipse id="Ellipse_820" data-name="Ellipse 820" cx="2.138" cy="2.138" rx="2.138" ry="2.138" transform="translate(48.451 21.878)" fill="#6a85f4"/>
      <ellipse id="Ellipse_821" data-name="Ellipse 821" cx="2.138" cy="2.138" rx="2.138" ry="2.138" transform="translate(48.605 11.062)" fill="#6a85f4"/>
      <ellipse id="Ellipse_822" data-name="Ellipse 822" cx="2.138" cy="2.138" rx="2.138" ry="2.138" transform="translate(51.653 32.255)" fill="#6a85f4"/>
      <ellipse id="Ellipse_823" data-name="Ellipse 823" cx="2.138" cy="2.138" rx="2.138" ry="2.138" transform="translate(48.699 0.292)" fill="#6a85f4"/>
      <ellipse id="Ellipse_824" data-name="Ellipse 824" cx="2.138" cy="2.138" rx="2.138" ry="2.138" transform="translate(51.522 26.892)" fill="#6a85f4"/>
      <ellipse id="Ellipse_825" data-name="Ellipse 825" cx="2.138" cy="2.138" rx="2.138" ry="2.138" transform="translate(51.627 16.152)" fill="#6a85f4"/>
      <ellipse id="Ellipse_826" data-name="Ellipse 826" cx="2.138" cy="2.138" rx="2.138" ry="2.138" transform="translate(51.687 5.43)" fill="#6a85f4"/>
      <ellipse id="Ellipse_827" data-name="Ellipse 827" cx="2.138" cy="2.138" rx="2.138" ry="2.138" transform="translate(54.728)" fill="#6a85f4"/>
      <ellipse id="Ellipse_828" data-name="Ellipse 828" cx="2.138" cy="2.138" rx="2.138" ry="2.138" transform="translate(54.728 10.699)" fill="#6a85f4"/>
      <ellipse id="Ellipse_829" data-name="Ellipse 829" cx="2.138" cy="2.138" rx="2.138" ry="2.138" transform="translate(54.728 21.402)" fill="#6a85f4"/>
      <ellipse id="Ellipse_830" data-name="Ellipse 830" cx="2.138" cy="2.138" rx="2.138" ry="2.138" transform="translate(57.769 5.43)" fill="#6a85f4"/>
      <ellipse id="Ellipse_831" data-name="Ellipse 831" cx="2.138" cy="2.138" rx="2.138" ry="2.138" transform="translate(57.829 16.152)" fill="#6a85f4"/>
      <ellipse id="Ellipse_832" data-name="Ellipse 832" cx="2.138" cy="2.138" rx="2.138" ry="2.138" transform="translate(57.933 26.892)" fill="#6a85f4"/>
      <ellipse id="Ellipse_833" data-name="Ellipse 833" cx="2.138" cy="2.138" rx="2.138" ry="2.138" transform="translate(60.757 0.292)" fill="#6a85f4"/>
      <ellipse id="Ellipse_834" data-name="Ellipse 834" cx="2.138" cy="2.138" rx="2.138" ry="2.138" transform="translate(57.802 32.255)" fill="#6a85f4"/>
      <ellipse id="Ellipse_835" data-name="Ellipse 835" cx="2.138" cy="2.138" rx="2.138" ry="2.138" transform="translate(60.851 11.062)" fill="#6a85f4"/>
      <ellipse id="Ellipse_836" data-name="Ellipse 836" cx="2.138" cy="2.138" rx="2.138" ry="2.138" transform="translate(61.004 21.878)" fill="#6a85f4"/>
      <ellipse id="Ellipse_837" data-name="Ellipse 837" cx="2.138" cy="2.138" rx="2.138" ry="2.138" transform="translate(63.813 6.074)" fill="#6a85f4"/>
      <ellipse id="Ellipse_838" data-name="Ellipse 838" cx="2.138" cy="2.138" rx="2.138" ry="2.138" transform="translate(66.73 1.157)" fill="#6a85f4"/>
      <ellipse id="Ellipse_839" data-name="Ellipse 839" cx="2.138" cy="2.138" rx="2.138" ry="2.138" transform="translate(63.978 16.976)" fill="#6a85f4"/>
      <ellipse id="Ellipse_840" data-name="Ellipse 840" cx="2.138" cy="2.138" rx="2.138" ry="2.138" transform="translate(66.891 12.137)" fill="#6a85f4"/>
      <ellipse id="Ellipse_841" data-name="Ellipse 841" cx="2.138" cy="2.138" rx="2.138" ry="2.138" transform="translate(69.756 7.351)" fill="#6a85f4"/>
      <ellipse id="Ellipse_842" data-name="Ellipse 842" cx="2.138" cy="2.138" rx="2.138" ry="2.138" transform="translate(64.247 28.027)" fill="#6a85f4"/>
      <ellipse id="Ellipse_843" data-name="Ellipse 843" cx="2.138" cy="2.138" rx="2.138" ry="2.138" transform="translate(72.591 2.591)" fill="#6a85f4"/>
      <ellipse id="Ellipse_844" data-name="Ellipse 844" cx="2.138" cy="2.138" rx="2.138" ry="2.138" transform="translate(63.828 33.476)" fill="#6a85f4"/>
      <ellipse id="Ellipse_845" data-name="Ellipse 845" cx="2.138" cy="2.138" rx="2.138" ry="2.138" transform="translate(67.131 23.301)" fill="#6a85f4"/>
      <ellipse id="Ellipse_846" data-name="Ellipse 846" cx="2.138" cy="2.138" rx="2.138" ry="2.138" transform="translate(69.966 18.601)" fill="#6a85f4"/>
      <ellipse id="Ellipse_847" data-name="Ellipse 847" cx="2.138" cy="2.138" rx="2.138" ry="2.138" transform="translate(72.763 13.916)" fill="#6a85f4"/>
      <ellipse id="Ellipse_848" data-name="Ellipse 848" cx="2.138" cy="2.138" rx="2.138" ry="2.138" transform="translate(75.534 9.246)" fill="#6a85f4"/>
      <ellipse id="Ellipse_849" data-name="Ellipse 849" cx="2.138" cy="2.138" rx="2.138" ry="2.138" transform="translate(78.287 4.584)" fill="#6a85f4"/>
      <ellipse id="Ellipse_850" data-name="Ellipse 850" cx="2.138" cy="2.138" rx="2.138" ry="2.138" transform="translate(70.258 30.262)" fill="#6a85f4"/>
      <ellipse id="Ellipse_851" data-name="Ellipse 851" cx="2.138" cy="2.138" rx="2.138" ry="2.138" transform="translate(72.977 25.634)" fill="#6a85f4"/>
      <ellipse id="Ellipse_852" data-name="Ellipse 852" cx="2.138" cy="2.138" rx="2.138" ry="2.138" transform="translate(75.684 21.005)" fill="#6a85f4"/>
      <ellipse id="Ellipse_853" data-name="Ellipse 853" cx="2.138" cy="2.138" rx="2.138" ry="2.138" transform="translate(78.384 16.373)" fill="#6a85f4"/>
      <ellipse id="Ellipse_854" data-name="Ellipse 854" cx="2.138" cy="2.138" rx="2.138" ry="2.138" transform="translate(81.077 11.744)" fill="#6a85f4"/>
      <ellipse id="Ellipse_855" data-name="Ellipse 855" cx="2.138" cy="2.138" rx="2.138" ry="2.138" transform="translate(83.769 7.112)" fill="#6a85f4"/>
      <ellipse id="Ellipse_856" data-name="Ellipse 856" cx="2.138" cy="2.138" rx="2.138" ry="2.138" transform="translate(69.486 35.872)" fill="#6a85f4"/>
      <ellipse id="Ellipse_857" data-name="Ellipse 857" cx="2.138" cy="2.138" rx="2.138" ry="2.138" transform="translate(88.982 10.152)" fill="#6a85f4"/>
      <ellipse id="Ellipse_858" data-name="Ellipse 858" cx="2.138" cy="2.138" rx="2.138" ry="2.138" transform="translate(86.327 14.811)" fill="#6a85f4"/>
      <ellipse id="Ellipse_859" data-name="Ellipse 859" cx="2.138" cy="2.138" rx="2.138" ry="2.138" transform="translate(83.68 19.473)" fill="#6a85f4"/>
      <ellipse id="Ellipse_860" data-name="Ellipse 860" cx="2.138" cy="2.138" rx="2.138" ry="2.138" transform="translate(81.036 24.143)" fill="#6a85f4"/>
      <ellipse id="Ellipse_861" data-name="Ellipse 861" cx="2.138" cy="2.138" rx="2.138" ry="2.138" transform="translate(78.399 28.824)" fill="#6a85f4"/>
      <ellipse id="Ellipse_862" data-name="Ellipse 862" cx="2.138" cy="2.138" rx="2.138" ry="2.138" transform="translate(75.782 33.52)" fill="#6a85f4"/>
      <ellipse id="Ellipse_863" data-name="Ellipse 863" cx="2.138" cy="2.138" rx="2.138" ry="2.138" transform="translate(93.877 13.68)" fill="#6a85f4"/>
      <ellipse id="Ellipse_864" data-name="Ellipse 864" cx="2.138" cy="2.138" rx="2.138" ry="2.138" transform="translate(91.222 18.414)" fill="#6a85f4"/>
      <ellipse id="Ellipse_865" data-name="Ellipse 865" cx="2.138" cy="2.138" rx="2.138" ry="2.138" transform="translate(74.561 39.348)" fill="#6a85f4"/>
      <ellipse id="Ellipse_866" data-name="Ellipse 866" cx="2.138" cy="2.138" rx="2.138" ry="2.138" transform="translate(88.57 23.17)" fill="#6a85f4"/>
      <ellipse id="Ellipse_867" data-name="Ellipse 867" cx="2.138" cy="2.138" rx="2.138" ry="2.138" transform="translate(85.923 27.959)" fill="#6a85f4"/>
    </g>
    <g id="CNIPDVDAPP" transform="translate(88.735 17.661)">
      <ellipse id="Ellipse_868" data-name="Ellipse 868" cx="2.138" cy="2.138" rx="2.138" ry="2.138" transform="translate(2.64 15.137)" fill="#4267cb"/>
      <ellipse id="Ellipse_869" data-name="Ellipse 869" cx="2.138" cy="2.138" rx="2.138" ry="2.138" transform="translate(17.777)" fill="#4267cb"/>
      <ellipse id="Ellipse_870" data-name="Ellipse 870" cx="2.138" cy="2.138" rx="2.138" ry="2.138" transform="translate(15.073 4.853)" fill="#4267cb"/>
      <ellipse id="Ellipse_871" data-name="Ellipse 871" cx="2.138" cy="2.138" rx="2.138" ry="2.138" transform="translate(0 20.046)" fill="#4267cb"/>
      <ellipse id="Ellipse_872" data-name="Ellipse 872" cx="2.138" cy="2.138" rx="2.138" ry="2.138" transform="translate(12.358 9.759)" fill="#4267cb"/>
    </g>
    <g id="RN" transform="translate(86.934 22.061)">
      <ellipse id="Ellipse_873" data-name="Ellipse 873" cx="2.138" cy="2.138" rx="2.138" ry="2.138" transform="translate(11.426 10.332)" fill="#26286f"/>
      <ellipse id="Ellipse_874" data-name="Ellipse 874" cx="2.138" cy="2.138" rx="2.138" ry="2.138" transform="translate(23.709)" fill="#26286f"/>
      <ellipse id="Ellipse_875" data-name="Ellipse 875" cx="2.138" cy="2.138" rx="2.138" ry="2.138" transform="translate(20.904 5.007)" fill="#26286f"/>
      <ellipse id="Ellipse_876" data-name="Ellipse 876" cx="2.138" cy="2.138" rx="2.138" ry="2.138" transform="translate(0 21.698)" fill="#26286f"/>
      <ellipse id="Ellipse_877" data-name="Ellipse 877" cx="2.138" cy="2.138" rx="2.138" ry="2.138" transform="translate(8.662 15.403)" fill="#26286f"/>
      <ellipse id="Ellipse_878" data-name="Ellipse 878" cx="2.138" cy="2.138" rx="2.138" ry="2.138" transform="translate(18.058 10.096)" fill="#26286f"/>
      <ellipse id="Ellipse_879" data-name="Ellipse 879" cx="2.138" cy="2.138" rx="2.138" ry="2.138" transform="translate(27.401 4.775)" fill="#26286f"/>
      <ellipse id="Ellipse_880" data-name="Ellipse 880" cx="2.138" cy="2.138" rx="2.138" ry="2.138" transform="translate(5.842 20.627)" fill="#26286f"/>
      <ellipse id="Ellipse_881" data-name="Ellipse 881" cx="2.138" cy="2.138" rx="2.138" ry="2.138" transform="translate(15.144 15.298)" fill="#26286f"/>
      <ellipse id="Ellipse_882" data-name="Ellipse 882" cx="2.138" cy="2.138" rx="2.138" ry="2.138" transform="translate(24.432 9.958)" fill="#26286f"/>
      <ellipse id="Ellipse_883" data-name="Ellipse 883" cx="2.138" cy="2.138" rx="2.138" ry="2.138" transform="translate(30.618 9.879)" fill="#26286f"/>
      <ellipse id="Ellipse_884" data-name="Ellipse 884" cx="2.138" cy="2.138" rx="2.138" ry="2.138" transform="translate(21.368 15.26)" fill="#26286f"/>
      <ellipse id="Ellipse_885" data-name="Ellipse 885" cx="2.138" cy="2.138" rx="2.138" ry="2.138" transform="translate(12.13 20.657)" fill="#26286f"/>
      <ellipse id="Ellipse_886" data-name="Ellipse 886" cx="2.138" cy="2.138" rx="2.138" ry="2.138" transform="translate(3.318 26.873)" fill="#26286f"/>
      <ellipse id="Ellipse_887" data-name="Ellipse 887" cx="2.138" cy="2.138" rx="2.138" ry="2.138" transform="translate(27.416 15.257)" fill="#26286f"/>
      <ellipse id="Ellipse_888" data-name="Ellipse 888" cx="2.138" cy="2.138" rx="2.138" ry="2.138" transform="translate(18.17 20.713)" fill="#26286f"/>
      <ellipse id="Ellipse_889" data-name="Ellipse 889" cx="2.138" cy="2.138" rx="2.138" ry="2.138" transform="translate(33.333 15.272)" fill="#26286f"/>
      <ellipse id="Ellipse_890" data-name="Ellipse 890" cx="2.138" cy="2.138" rx="2.138" ry="2.138" transform="translate(8.939 26.244)" fill="#26286f"/>
      <ellipse id="Ellipse_891" data-name="Ellipse 891" cx="2.138" cy="2.138" rx="2.138" ry="2.138" transform="translate(24.053 20.777)" fill="#26286f"/>
      <ellipse id="Ellipse_892" data-name="Ellipse 892" cx="2.138" cy="2.138" rx="2.138" ry="2.138" transform="translate(14.759 26.371)" fill="#26286f"/>
      <ellipse id="Ellipse_893" data-name="Ellipse 893" cx="2.138" cy="2.138" rx="2.138" ry="2.138" transform="translate(29.824 20.837)" fill="#26286f"/>
      <ellipse id="Ellipse_894" data-name="Ellipse 894" cx="2.138" cy="2.138" rx="2.138" ry="2.138" transform="translate(35.517 20.896)" fill="#26286f"/>
      <ellipse id="Ellipse_895" data-name="Ellipse 895" cx="2.138" cy="2.138" rx="2.138" ry="2.138" transform="translate(20.458 26.48)" fill="#26286f"/>
      <ellipse id="Ellipse_896" data-name="Ellipse 896" cx="2.138" cy="2.138" rx="2.138" ry="2.138" transform="translate(26.072 26.566)" fill="#26286f"/>
    </g>
    <g id="LP" transform="translate(92.473 48.702)">
      <ellipse id="Ellipse_897" data-name="Ellipse 897" cx="2.138" cy="2.138" rx="2.138" ry="2.138" transform="translate(0 5.966)" fill="#26286f"/>
      <ellipse id="Ellipse_898" data-name="Ellipse 898" cx="2.138" cy="2.138" rx="2.138" ry="2.138" transform="translate(26.094)" fill="#26286f"/>
      <ellipse id="Ellipse_899" data-name="Ellipse 899" cx="2.138" cy="2.138" rx="2.138" ry="2.138" transform="translate(5.453 5.677)" fill="#26286f"/>
      <ellipse id="Ellipse_900" data-name="Ellipse 900" cx="2.138" cy="2.138" rx="2.138" ry="2.138" transform="translate(31.611 0.064)" fill="#26286f"/>
      <ellipse id="Ellipse_901" data-name="Ellipse 901" cx="2.138" cy="2.138" rx="2.138" ry="2.138" transform="translate(10.958 5.778)" fill="#26286f"/>
      <ellipse id="Ellipse_902" data-name="Ellipse 902" cx="2.138" cy="2.138" rx="2.138" ry="2.138" transform="translate(16.421 5.857)" fill="#26286f"/>
      <ellipse id="Ellipse_903" data-name="Ellipse 903" cx="2.138" cy="2.138" rx="2.138" ry="2.138" transform="translate(21.859 5.917)" fill="#26286f"/>
      <ellipse id="Ellipse_904" data-name="Ellipse 904" cx="2.138" cy="2.138" rx="2.138" ry="2.138" transform="translate(27.274 5.966)" fill="#26286f"/>
      <ellipse id="Ellipse_905" data-name="Ellipse 905" cx="2.138" cy="2.138" rx="2.138" ry="2.138" transform="translate(32.682 6.007)" fill="#26286f"/>
      <ellipse id="Ellipse_906" data-name="Ellipse 906" cx="2.138" cy="2.138" rx="2.138" ry="2.138" transform="translate(1.037 12.021)" fill="#26286f"/>
    </g>
    <g id="NI" transform="translate(98.873 60.723)">
      <ellipse id="Ellipse_907" data-name="Ellipse 907" cx="2.138" cy="2.138" rx="2.138" ry="2.138" fill="#dedede"/>
      <ellipse id="Ellipse_908" data-name="Ellipse 908" cx="2.138" cy="2.138" rx="2.138" ry="2.138" transform="translate(5.359)" fill="#dedede"/>
      <ellipse id="Ellipse_909" data-name="Ellipse 909" cx="2.138" cy="2.138" rx="2.138" ry="2.138" transform="translate(10.714)" fill="#dedede"/>
      <ellipse id="Ellipse_910" data-name="Ellipse 910" cx="2.138" cy="2.138" rx="2.138" ry="2.138" transform="translate(16.069)" fill="#dedede"/>
      <ellipse id="Ellipse_911" data-name="Ellipse 911" cx="2.138" cy="2.138" rx="2.138" ry="2.138" transform="translate(21.425)" fill="#dedede"/>
      <ellipse id="Ellipse_912" data-name="Ellipse 912" cx="2.138" cy="2.138" rx="2.138" ry="2.138" transform="translate(26.776)" fill="#dedede"/>
    </g>
  </g>
</svg>
