<svg xmlns="http://www.w3.org/2000/svg" xmlns:xlink="http://www.w3.org/1999/xlink" width="130" height="65" viewBox="0 0 130 65">
  <defs>
    <clipPath id="clip-_._assets_seats-viz-bfc">
      <rect width="130" height="65"/>
    </clipPath>
  </defs>
  <g id="_._assets_seats-viz-bfc" data-name="./assets/seats-viz-bfc" clip-path="url(#clip-_._assets_seats-viz-bfc)">
    <rect width="130" height="65" fill="#fff"/>
    <text id="_100" data-name="100" transform="translate(65 64)" font-size="21" font-family="LibeSansSemiCondensed-Bold, LibeSans SemiCondensed" font-weight="700"><tspan x="-13.629" y="0">100</tspan></text>
    <g id="NRA-LGU">
      <ellipse id="Ellipse_484" data-name="Ellipse 484" cx="2.503" cy="2.503" rx="2.503" ry="2.503" transform="translate(0 60.05)" fill="#ff697f"/>
      <ellipse id="Ellipse_485" data-name="Ellipse 485" cx="2.503" cy="2.503" rx="2.503" ry="2.503" transform="translate(6.26 60.05)" fill="#ff697f"/>
      <ellipse id="Ellipse_486" data-name="Ellipse 486" cx="2.503" cy="2.503" rx="2.503" ry="2.503" transform="translate(12.52 60.05)" fill="#ff697f"/>
      <ellipse id="Ellipse_487" data-name="Ellipse 487" cx="2.503" cy="2.503" rx="2.503" ry="2.503" transform="translate(18.783 60.05)" fill="#ff697f"/>
      <ellipse id="Ellipse_488" data-name="Ellipse 488" cx="2.503" cy="2.503" rx="2.503" ry="2.503" transform="translate(25.051 60.05)" fill="#ff697f"/>
      <ellipse id="Ellipse_489" data-name="Ellipse 489" cx="2.503" cy="2.503" rx="2.503" ry="2.503" transform="translate(31.322 60.054)" fill="#ff697f"/>
      <ellipse id="Ellipse_490" data-name="Ellipse 490" cx="2.503" cy="2.503" rx="2.503" ry="2.503" transform="translate(0.949 51.403)" fill="#ff697f"/>
      <ellipse id="Ellipse_491" data-name="Ellipse 491" cx="2.503" cy="2.503" rx="2.503" ry="2.503" transform="translate(7.382 51.084)" fill="#ff697f"/>
      <ellipse id="Ellipse_492" data-name="Ellipse 492" cx="2.503" cy="2.503" rx="2.503" ry="2.503" transform="translate(13.762 51.197)" fill="#ff697f"/>
      <ellipse id="Ellipse_493" data-name="Ellipse 493" cx="2.503" cy="2.503" rx="2.503" ry="2.503" transform="translate(20.341 50.728)" fill="#ff697f"/>
      <ellipse id="Ellipse_494" data-name="Ellipse 494" cx="2.503" cy="2.503" rx="2.503" ry="2.503" transform="translate(26.841 50.84)" fill="#ff697f"/>
      <ellipse id="Ellipse_495" data-name="Ellipse 495" cx="2.503" cy="2.503" rx="2.503" ry="2.503" transform="translate(3.092 42.974)" fill="#ff697f"/>
      <ellipse id="Ellipse_496" data-name="Ellipse 496" cx="2.503" cy="2.503" rx="2.503" ry="2.503" transform="translate(9.926 42.415)" fill="#ff697f"/>
      <ellipse id="Ellipse_497" data-name="Ellipse 497" cx="2.503" cy="2.503" rx="2.503" ry="2.503" transform="translate(33.431 51.005)" fill="#ff697f"/>
      <ellipse id="Ellipse_498" data-name="Ellipse 498" cx="2.503" cy="2.503" rx="2.503" ry="2.503" transform="translate(16.561 42.704)" fill="#ff697f"/>
      <ellipse id="Ellipse_499" data-name="Ellipse 499" cx="2.503" cy="2.503" rx="2.503" ry="2.503" transform="translate(6.38 34.921)" fill="#ff697f"/>
      <ellipse id="Ellipse_500" data-name="Ellipse 500" cx="2.503" cy="2.503" rx="2.503" ry="2.503" transform="translate(23.857 41.961)" fill="#ff697f"/>
      <ellipse id="Ellipse_501" data-name="Ellipse 501" cx="2.503" cy="2.503" rx="2.503" ry="2.503" transform="translate(13.826 34.264)" fill="#ff697f"/>
      <ellipse id="Ellipse_502" data-name="Ellipse 502" cx="2.503" cy="2.503" rx="2.503" ry="2.503" transform="translate(30.86 42.359)" fill="#ff697f"/>
      <ellipse id="Ellipse_503" data-name="Ellipse 503" cx="2.503" cy="2.503" rx="2.503" ry="2.503" transform="translate(20.829 34.846)" fill="#ff697f"/>
      <ellipse id="Ellipse_504" data-name="Ellipse 504" cx="2.503" cy="2.503" rx="2.503" ry="2.503" transform="translate(10.756 27.404)" fill="#ff697f"/>
      <ellipse id="Ellipse_505" data-name="Ellipse 505" cx="2.503" cy="2.503" rx="2.503" ry="2.503" transform="translate(38.107 42.974)" fill="#ff697f"/>
      <ellipse id="Ellipse_506" data-name="Ellipse 506" cx="2.503" cy="2.503" rx="2.503" ry="2.503" transform="translate(18.978 26.841)" fill="#ff697f"/>
      <ellipse id="Ellipse_507" data-name="Ellipse 507" cx="2.503" cy="2.503" rx="2.503" ry="2.503" transform="translate(29.175 34.147)" fill="#ff697f"/>
      <ellipse id="Ellipse_508" data-name="Ellipse 508" cx="2.503" cy="2.503" rx="2.503" ry="2.503" transform="translate(16.13 20.57)" fill="#ff697f"/>
      <ellipse id="Ellipse_509" data-name="Ellipse 509" cx="2.503" cy="2.503" rx="2.503" ry="2.503" transform="translate(26.424 27.873)" fill="#ff697f"/>
      <ellipse id="Ellipse_510" data-name="Ellipse 510" cx="2.503" cy="2.503" rx="2.503" ry="2.503" transform="translate(36.857 35.142)" fill="#ff697f"/>
      <ellipse id="Ellipse_511" data-name="Ellipse 511" cx="2.503" cy="2.503" rx="2.503" ry="2.503" transform="translate(25.249 20.341)" fill="#ff697f"/>
      <ellipse id="Ellipse_512" data-name="Ellipse 512" cx="2.503" cy="2.503" rx="2.503" ry="2.503" transform="translate(22.401 14.542)" fill="#ff697f"/>
      <ellipse id="Ellipse_513" data-name="Ellipse 513" cx="2.503" cy="2.503" rx="2.503" ry="2.503" transform="translate(36.043 27.659)" fill="#ff697f"/>
      <ellipse id="Ellipse_514" data-name="Ellipse 514" cx="2.503" cy="2.503" rx="2.503" ry="2.503" transform="translate(33.172 22.007)" fill="#ff697f"/>
      <ellipse id="Ellipse_515" data-name="Ellipse 515" cx="2.503" cy="2.503" rx="2.503" ry="2.503" transform="translate(44.933 36.673)" fill="#ff697f"/>
      <ellipse id="Ellipse_516" data-name="Ellipse 516" cx="2.503" cy="2.503" rx="2.503" ry="2.503" transform="translate(32.481 14.925)" fill="#ff697f"/>
      <ellipse id="Ellipse_517" data-name="Ellipse 517" cx="2.503" cy="2.503" rx="2.503" ry="2.503" transform="translate(29.449 9.446)" fill="#ff697f"/>
      <ellipse id="Ellipse_518" data-name="Ellipse 518" cx="2.503" cy="2.503" rx="2.503" ry="2.503" transform="translate(44.46 29.64)" fill="#ff697f"/>
      <ellipse id="Ellipse_519" data-name="Ellipse 519" cx="2.503" cy="2.503" rx="2.503" ry="2.503" transform="translate(40.854 17.432)" fill="#ff697f"/>
      <ellipse id="Ellipse_520" data-name="Ellipse 520" cx="2.503" cy="2.503" rx="2.503" ry="2.503" transform="translate(44.145 22.799)" fill="#ff697f"/>
      <ellipse id="Ellipse_521" data-name="Ellipse 521" cx="2.503" cy="2.503" rx="2.503" ry="2.503" transform="translate(37.135 5.374)" fill="#ff697f"/>
      <ellipse id="Ellipse_522" data-name="Ellipse 522" cx="2.503" cy="2.503" rx="2.503" ry="2.503" transform="translate(40.49 10.737)" fill="#ff697f"/>
      <ellipse id="Ellipse_523" data-name="Ellipse 523" cx="2.503" cy="2.503" rx="2.503" ry="2.503" transform="translate(53.31 32.654)" fill="#ff697f"/>
      <ellipse id="Ellipse_524" data-name="Ellipse 524" cx="2.503" cy="2.503" rx="2.503" ry="2.503" transform="translate(45.312 2.409)" fill="#ff697f"/>
      <ellipse id="Ellipse_525" data-name="Ellipse 525" cx="2.503" cy="2.503" rx="2.503" ry="2.503" transform="translate(49.227 14.302)" fill="#ff697f"/>
      <ellipse id="Ellipse_526" data-name="Ellipse 526" cx="2.503" cy="2.503" rx="2.503" ry="2.503" transform="translate(53.186 26.195)" fill="#ff697f"/>
      <ellipse id="Ellipse_527" data-name="Ellipse 527" cx="2.503" cy="2.503" rx="2.503" ry="2.503" transform="translate(49.061 7.885)" fill="#ff697f"/>
      <ellipse id="Ellipse_528" data-name="Ellipse 528" cx="2.503" cy="2.503" rx="2.503" ry="2.503" transform="translate(53.103 19.785)" fill="#ff697f"/>
      <ellipse id="Ellipse_529" data-name="Ellipse 529" cx="2.503" cy="2.503" rx="2.503" ry="2.503" transform="translate(53.82 0.604)" fill="#ff697f"/>
      <ellipse id="Ellipse_530" data-name="Ellipse 530" cx="2.503" cy="2.503" rx="2.503" ry="2.503" transform="translate(58.027 12.711)" fill="#ff697f"/>
      <ellipse id="Ellipse_531" data-name="Ellipse 531" cx="2.503" cy="2.503" rx="2.503" ry="2.503" transform="translate(57.978 6.436)" fill="#ff697f"/>
      <ellipse id="Ellipse_532" data-name="Ellipse 532" cx="2.503" cy="2.503" rx="2.503" ry="2.503" transform="translate(62.497 18.764)" fill="#ff697f"/>
      <ellipse id="Ellipse_533" data-name="Ellipse 533" cx="2.503" cy="2.503" rx="2.503" ry="2.503" transform="translate(62.497)" fill="#ff697f"/>
      <ellipse id="Ellipse_534" data-name="Ellipse 534" cx="2.503" cy="2.503" rx="2.503" ry="2.503" transform="translate(62.497 25.02)" fill="#ff697f"/>
    </g>
    <g id="URDC" transform="translate(62.497 0.604)">
      <ellipse id="Ellipse_535" data-name="Ellipse 535" cx="2.503" cy="2.503" rx="2.503" ry="2.503" transform="translate(0 30.672)" fill="#6a85f4"/>
      <ellipse id="Ellipse_536" data-name="Ellipse 536" cx="2.503" cy="2.503" rx="2.503" ry="2.503" transform="translate(4.518 5.832)" fill="#6a85f4"/>
      <ellipse id="Ellipse_537" data-name="Ellipse 537" cx="2.503" cy="2.503" rx="2.503" ry="2.503" transform="translate(4.47 12.107)" fill="#6a85f4"/>
      <ellipse id="Ellipse_538" data-name="Ellipse 538" cx="2.503" cy="2.503" rx="2.503" ry="2.503" transform="translate(8.677)" fill="#6a85f4"/>
      <ellipse id="Ellipse_539" data-name="Ellipse 539" cx="2.503" cy="2.503" rx="2.503" ry="2.503" transform="translate(9.393 19.181)" fill="#6a85f4"/>
      <ellipse id="Ellipse_540" data-name="Ellipse 540" cx="2.503" cy="2.503" rx="2.503" ry="2.503" transform="translate(13.435 7.281)" fill="#6a85f4"/>
      <ellipse id="Ellipse_541" data-name="Ellipse 541" cx="2.503" cy="2.503" rx="2.503" ry="2.503" transform="translate(9.311 25.591)" fill="#6a85f4"/>
      <ellipse id="Ellipse_542" data-name="Ellipse 542" cx="2.503" cy="2.503" rx="2.503" ry="2.503" transform="translate(13.27 13.698)" fill="#6a85f4"/>
      <ellipse id="Ellipse_543" data-name="Ellipse 543" cx="2.503" cy="2.503" rx="2.503" ry="2.503" transform="translate(17.184 1.805)" fill="#6a85f4"/>
      <ellipse id="Ellipse_544" data-name="Ellipse 544" cx="2.503" cy="2.503" rx="2.503" ry="2.503" transform="translate(9.187 32.05)" fill="#6a85f4"/>
      <ellipse id="Ellipse_545" data-name="Ellipse 545" cx="2.503" cy="2.503" rx="2.503" ry="2.503" transform="translate(22.007 10.133)" fill="#6a85f4"/>
      <ellipse id="Ellipse_546" data-name="Ellipse 546" cx="2.503" cy="2.503" rx="2.503" ry="2.503" transform="translate(25.362 4.77)" fill="#6a85f4"/>
      <ellipse id="Ellipse_547" data-name="Ellipse 547" cx="2.503" cy="2.503" rx="2.503" ry="2.503" transform="translate(18.352 22.195)" fill="#6a85f4"/>
      <ellipse id="Ellipse_548" data-name="Ellipse 548" cx="2.503" cy="2.503" rx="2.503" ry="2.503" transform="translate(21.643 16.828)" fill="#6a85f4"/>
      <ellipse id="Ellipse_549" data-name="Ellipse 549" cx="2.503" cy="2.503" rx="2.503" ry="2.503" transform="translate(18.036 29.036)" fill="#6a85f4"/>
      <ellipse id="Ellipse_550" data-name="Ellipse 550" cx="2.503" cy="2.503" rx="2.503" ry="2.503" transform="translate(33.048 8.842)" fill="#6a85f4"/>
      <ellipse id="Ellipse_551" data-name="Ellipse 551" cx="2.503" cy="2.503" rx="2.503" ry="2.503" transform="translate(30.016 14.321)" fill="#6a85f4"/>
      <ellipse id="Ellipse_552" data-name="Ellipse 552" cx="2.503" cy="2.503" rx="2.503" ry="2.503" transform="translate(17.564 36.069)" fill="#6a85f4"/>
      <ellipse id="Ellipse_553" data-name="Ellipse 553" cx="2.503" cy="2.503" rx="2.503" ry="2.503" transform="translate(29.325 21.403)" fill="#6a85f4"/>
      <ellipse id="Ellipse_554" data-name="Ellipse 554" cx="2.503" cy="2.503" rx="2.503" ry="2.503" transform="translate(26.454 27.055)" fill="#6a85f4"/>
      <ellipse id="Ellipse_555" data-name="Ellipse 555" cx="2.503" cy="2.503" rx="2.503" ry="2.503" transform="translate(40.096 13.938)" fill="#6a85f4"/>
      <ellipse id="Ellipse_556" data-name="Ellipse 556" cx="2.503" cy="2.503" rx="2.503" ry="2.503" transform="translate(37.247 19.736)" fill="#6a85f4"/>
      <ellipse id="Ellipse_557" data-name="Ellipse 557" cx="2.503" cy="2.503" rx="2.503" ry="2.503" transform="translate(25.64 34.538)" fill="#6a85f4"/>
      <ellipse id="Ellipse_558" data-name="Ellipse 558" cx="2.503" cy="2.503" rx="2.503" ry="2.503" transform="translate(36.073 27.268)" fill="#6a85f4"/>
      <ellipse id="Ellipse_559" data-name="Ellipse 559" cx="2.503" cy="2.503" rx="2.503" ry="2.503" transform="translate(46.367 19.965)" fill="#6a85f4"/>
    </g>
    <g id="RN" transform="translate(86.887 26.841)">
      <ellipse id="Ellipse_560" data-name="Ellipse 560" cx="2.503" cy="2.503" rx="2.503" ry="2.503" transform="translate(8.932 7.307)" fill="#26286f"/>
      <ellipse id="Ellipse_561" data-name="Ellipse 561" cx="2.503" cy="2.503" rx="2.503" ry="2.503" transform="translate(19.128)" fill="#26286f"/>
      <ellipse id="Ellipse_562" data-name="Ellipse 562" cx="2.503" cy="2.503" rx="2.503" ry="2.503" transform="translate(0 16.134)" fill="#26286f"/>
      <ellipse id="Ellipse_563" data-name="Ellipse 563" cx="2.503" cy="2.503" rx="2.503" ry="2.503" transform="translate(27.351 0.563)" fill="#26286f"/>
      <ellipse id="Ellipse_564" data-name="Ellipse 564" cx="2.503" cy="2.503" rx="2.503" ry="2.503" transform="translate(17.278 8.005)" fill="#26286f"/>
      <ellipse id="Ellipse_565" data-name="Ellipse 565" cx="2.503" cy="2.503" rx="2.503" ry="2.503" transform="translate(7.247 15.518)" fill="#26286f"/>
      <ellipse id="Ellipse_566" data-name="Ellipse 566" cx="2.503" cy="2.503" rx="2.503" ry="2.503" transform="translate(24.281 7.423)" fill="#26286f"/>
      <ellipse id="Ellipse_567" data-name="Ellipse 567" cx="2.503" cy="2.503" rx="2.503" ry="2.503" transform="translate(14.25 15.12)" fill="#26286f"/>
      <ellipse id="Ellipse_568" data-name="Ellipse 568" cx="2.503" cy="2.503" rx="2.503" ry="2.503" transform="translate(31.727 8.08)" fill="#26286f"/>
      <ellipse id="Ellipse_569" data-name="Ellipse 569" cx="2.503" cy="2.503" rx="2.503" ry="2.503" transform="translate(21.545 15.863)" fill="#26286f"/>
      <ellipse id="Ellipse_570" data-name="Ellipse 570" cx="2.503" cy="2.503" rx="2.503" ry="2.503" transform="translate(4.676 24.165)" fill="#26286f"/>
      <ellipse id="Ellipse_571" data-name="Ellipse 571" cx="2.503" cy="2.503" rx="2.503" ry="2.503" transform="translate(28.18 15.574)" fill="#26286f"/>
      <ellipse id="Ellipse_572" data-name="Ellipse 572" cx="2.503" cy="2.503" rx="2.503" ry="2.503" transform="translate(35.014 16.134)" fill="#26286f"/>
      <ellipse id="Ellipse_573" data-name="Ellipse 573" cx="2.503" cy="2.503" rx="2.503" ry="2.503" transform="translate(11.266 24)" fill="#26286f"/>
      <ellipse id="Ellipse_574" data-name="Ellipse 574" cx="2.503" cy="2.503" rx="2.503" ry="2.503" transform="translate(17.766 23.887)" fill="#26286f"/>
    </g>
    <g id="NI" transform="translate(93.672 51.084)">
      <ellipse id="Ellipse_575" data-name="Ellipse 575" cx="2.503" cy="2.503" rx="2.503" ry="2.503" transform="translate(17.56 0.113)" fill="#dedede"/>
      <ellipse id="Ellipse_576" data-name="Ellipse 576" cx="2.503" cy="2.503" rx="2.503" ry="2.503" transform="translate(23.94)" fill="#dedede"/>
      <ellipse id="Ellipse_577" data-name="Ellipse 577" cx="2.503" cy="2.503" rx="2.503" ry="2.503" transform="translate(30.372 0.319)" fill="#dedede"/>
      <ellipse id="Ellipse_578" data-name="Ellipse 578" cx="2.503" cy="2.503" rx="2.503" ry="2.503" transform="translate(0 8.969)" fill="#dedede"/>
      <ellipse id="Ellipse_579" data-name="Ellipse 579" cx="2.503" cy="2.503" rx="2.503" ry="2.503" transform="translate(6.271 8.966)" fill="#dedede"/>
      <ellipse id="Ellipse_580" data-name="Ellipse 580" cx="2.503" cy="2.503" rx="2.503" ry="2.503" transform="translate(12.538 8.966)" fill="#dedede"/>
      <ellipse id="Ellipse_581" data-name="Ellipse 581" cx="2.503" cy="2.503" rx="2.503" ry="2.503" transform="translate(18.802 8.966)" fill="#dedede"/>
      <ellipse id="Ellipse_582" data-name="Ellipse 582" cx="2.503" cy="2.503" rx="2.503" ry="2.503" transform="translate(25.062 8.966)" fill="#dedede"/>
      <ellipse id="Ellipse_583" data-name="Ellipse 583" cx="2.503" cy="2.503" rx="2.503" ry="2.503" transform="translate(31.322 8.966)" fill="#dedede"/>
    </g>
  </g>
</svg>
