<?xml version="1.0" encoding="utf-8"?>
<!-- Generator: Adobe Illustrator 24.0.1, SVG Export Plug-In . SVG Version: 6.00 Build 0)  -->
<svg version="1.1" id="Calque_1" xmlns="http://www.w3.org/2000/svg" xmlns:xlink="http://www.w3.org/1999/xlink" x="0px" y="0px"
	 viewBox="0 0 663.2 104.3" style="enable-background:new 0 0 663.2 104.3;" xml:space="preserve">
<style type="text/css">
	.st0{fill:none;stroke:#231F20;stroke-width:0.84;stroke-miterlimit:10;}
	.st1{fill:#231F20;}
	.st2{fill:#A1A1A1;}
	.st3{fill:#E0E0E0;}
	.st4{fill:#FFFFFF;}
	.st5{enable-background:new    ;}
	.st6{fill:#1D1D1B;}
	.st7{fill:#010101;}
	.st8{fill:none;}
	.st9{fill:#E30613;}
	.st10{fill:#009FE3;}
</style>
<title>desktop_cartelegende</title>
<g id="Mode_Isolation">
	<g id="Légende">
		<g id="CA">
			<path class="st0" d="M182.6,101.1c-19.9-12.9-25.6-39.4-12.7-59.3s39.4-25.6,59.3-12.7s25.6,39.4,12.7,59.3
				c-4,6.1-9.4,11.2-15.9,14.6"/>
			<polygon class="st1" points="225.6,100.8 223.3,104.3 227.5,104.6 			"/>
		</g>
		<path class="st2" d="M206.3,64.8l-23.1-31.9c6.6-5,14.8-7.7,23.1-7.5V64.8z"/>
		<path class="st3" d="M206.7,66.2l-24.1-33.4l0.4-0.3c6.7-5.1,14.9-7.7,23.4-7.6h0.4L206.7,66.2z M183.8,33l22,30.5V25.8
			C197.9,25.8,190.1,28.3,183.8,33z"/>
		<path class="st2" d="M206.3,64.8l-37.4-12.2c2.5-8,7.5-14.9,14.3-19.8L206.3,64.8z"/>
		<path class="st3" d="M207.4,65.7l-39.1-12.8l0.1-0.4c2.5-8.1,7.5-15.1,14.4-20l0.4-0.3L207.4,65.7z M169.4,52.3L205.1,64l-22-30.5
			C176.7,38.2,171.9,44.8,169.4,52.3L169.4,52.3z"/>
		<path class="st2" d="M206.3,64.8l-37.4,12.2c-2.7-7.9-2.7-16.5,0-24.4L206.3,64.8z"/>
		<path class="st3" d="M168.6,77.6l-0.1-0.4c-2.7-8-2.7-16.7,0-24.7l0.1-0.4l39.1,12.8L168.6,77.6z M169.2,53.2
			c-2.5,7.6-2.5,15.7,0,23.3l35.7-11.7L169.2,53.2z"/>
		<path class="st2" d="M206.3,64.8l-23.1,32c-6.8-4.8-11.8-11.8-14.3-19.8L206.3,64.8z"/>
		<path class="st3" d="M183.3,97.4l-0.4-0.3c-6.9-4.9-12-11.9-14.4-20l-0.1-0.4L207.4,64L183.3,97.4z M169.4,77.3
			c2.4,7.6,7.2,14.2,13.6,18.8l22-30.5L169.4,77.3z"/>
		<path class="st2" d="M206.3,64.8L243.6,77c-2.4,8-7.5,14.9-14.3,19.8L206.3,64.8z"/>
		<path class="st3" d="M229.3,97.4L205.1,64l39.1,12.8l-0.1,0.4c-2.5,8.1-7.5,15.1-14.4,20L229.3,97.4z M207.4,65.7l22,30.5
			c6.4-4.7,11.2-11.3,13.6-18.8L207.4,65.7z"/>
		<path class="st2" d="M206.3,64.8l37.4-12.2c2.7,7.9,2.7,16.5,0,24.4L206.3,64.8z"/>
		<path class="st3" d="M243.9,77.6l-39.1-12.8l39.1-12.8l0.1,0.4c2.7,8,2.7,16.7,0,24.7L243.9,77.6z M207.7,64.8l35.7,11.7
			c2.5-7.6,2.5-15.7,0-23.3L207.7,64.8z"/>
		<path class="st2" d="M206.3,64.8l23.1-32c6.8,4.8,11.8,11.8,14.3,19.8L206.3,64.8z"/>
		<path class="st3" d="M205.1,65.7l24.1-33.4l0.4,0.3c6.9,4.9,12,11.9,14.4,20l0.1,0.4L205.1,65.7z M229.4,33.5l-22,30.5l35.7-11.7
			C240.7,44.8,235.9,38.2,229.4,33.5z"/>
		<path class="st2" d="M206.3,64.8V25.4c8.3-0.1,16.4,2.5,23.1,7.5L206.3,64.8z"/>
		<path class="st3" d="M205.8,66.2V24.9h0.4c8.4-0.1,16.6,2.6,23.4,7.6l0.4,0.3L205.8,66.2z M206.7,25.8v37.7l22-30.5
			C222.3,28.3,214.6,25.8,206.7,25.8L206.7,25.8z"/>
		<ellipse class="st4" cx="206.3" cy="64.9" rx="26.8" ry="26.9"/>
		<g class="st5">
			<path class="st6" d="M522.7,18.6l-3.4-8.2v8.2h-2.5V4h2.3l3.4,8.3V4h2.5v14.7H522.7z"/>
			<path class="st6" d="M535.4,14.2c0,1.5-0.4,2.7-1.1,3.4s-1.8,1.1-3.3,1.1c-1.5,0-2.6-0.4-3.3-1.1s-1-1.9-1-3.4V8.4
				c0-1.5,0.3-2.7,1-3.4s1.8-1.1,3.3-1.1s2.6,0.4,3.3,1.1c0.7,0.7,1,1.9,1,3.4V14.2z M532.7,8.6c0-0.9-0.1-1.5-0.4-1.8
				c-0.3-0.3-0.7-0.5-1.3-0.5c-0.6,0-1,0.2-1.3,0.5c-0.3,0.3-0.4,0.9-0.4,1.8V14c0,0.9,0.1,1.5,0.4,1.8s0.7,0.5,1.3,0.5
				c0.6,0,1-0.2,1.3-0.5s0.4-0.9,0.4-1.8V8.6z"/>
			<path class="st6" d="M542.1,18.6l-2.3-10.2v10.2h-2.6V4h3.8l1.9,8l2-8h3.8v14.7h-2.6V8.4l-2.3,10.2H542.1z"/>
			<path class="st6" d="M550.4,18.6V4h4c1.3,0,2.1,0.2,2.7,0.7c0.5,0.4,0.8,1.2,0.8,2.2v1.8c0,0.6-0.2,1.1-0.5,1.4s-0.9,0.6-1.7,0.6
				c1,0.1,1.6,0.3,2.1,0.7s0.6,1,0.6,1.8v2.2c0,1.1-0.3,1.9-0.9,2.4c-0.6,0.5-1.6,0.7-3,0.7H550.4z M554.2,6.2h-1.1v3.7h1.1
				c0.4,0,0.6-0.1,0.7-0.3c0.1-0.2,0.2-0.5,0.2-1V7.4c0-0.5-0.1-0.8-0.2-1C554.8,6.3,554.6,6.2,554.2,6.2z M554.4,12h-1.3v4.4h1.3
				c0.5,0,0.8-0.1,1-0.3c0.2-0.2,0.3-0.6,0.3-1.2v-1.5c0-0.6-0.1-0.9-0.3-1.1C555.2,12.1,554.9,12,554.4,12z"/>
			<path class="st6" d="M562.8,18.6h-2.7V4h3.9c0.7,0,1.3,0.1,1.8,0.2s0.8,0.3,1.1,0.6s0.5,0.6,0.6,1.1s0.2,1,0.2,1.7v2
				c0,0.7-0.1,1.3-0.3,1.7s-0.5,0.8-1,1.1l1.5,6.3h-2.8l-1.3-5.9h-1.1V18.6z M564,6.4h-1.2v4h1.2c0.4,0,0.7-0.1,0.8-0.3
				s0.2-0.5,0.2-1.1V7.8c0-0.5-0.1-0.9-0.2-1.1S564.4,6.4,564,6.4z"/>
			<path class="st6" d="M569.5,18.6V4h6.6v2.6h-3.9v3.3h3.7v2.4h-3.7v3.8h3.9v2.6H569.5z"/>
			<path class="st6" d="M582,18.6V4h4c1.6,0,2.7,0.3,3.4,1s1,1.9,1,3.5v5.5c0,1.7-0.3,2.8-1,3.5s-1.8,1-3.4,1H582z M586,6.4h-1.3
				v9.7h1.3c0.6,0,1-0.2,1.3-0.5s0.4-1,0.4-1.9V8.9c0-0.9-0.1-1.6-0.4-1.9C587.1,6.6,586.6,6.4,586,6.4z"/>
			<path class="st6" d="M592.1,18.6V4h6.6v2.6h-3.9v3.3h3.7v2.4h-3.7v3.8h3.9v2.6H592.1z"/>
			<path class="st6" d="M608.7,18.7c-1.5,0-2.5-0.3-3.1-1c-0.6-0.7-0.9-1.9-0.9-3.5V8.3c0-1.5,0.3-2.6,1-3.3c0.7-0.7,1.8-1,3.3-1
				c1.5,0,2.6,0.3,3.3,1s1,1.6,1,3v1.9h-2.7V8.1c0-0.6-0.1-1-0.4-1.3c-0.3-0.3-0.7-0.4-1.3-0.4c-0.6,0-1,0.2-1.3,0.5
				c-0.3,0.3-0.4,0.9-0.4,1.8v5.3c0,0.9,0.1,1.5,0.4,1.8c0.3,0.3,0.7,0.5,1.3,0.5c0.5,0,0.9-0.1,1.2-0.4s0.4-0.7,0.4-1.4V13h-1.7
				v-2.1h4.4v7.7h-1l-0.5-2c-0.2,0.7-0.5,1.2-1,1.6C610.3,18.5,609.6,18.7,608.7,18.7z"/>
			<path class="st6" d="M617.7,18.6h-2.7V4h3.9c0.7,0,1.4,0.1,1.8,0.2s0.8,0.3,1.1,0.6s0.5,0.6,0.6,1.1c0.1,0.4,0.2,1,0.2,1.7v2
				c0,0.7-0.1,1.3-0.3,1.7s-0.5,0.8-1,1.1l1.5,6.3h-2.8l-1.3-5.9h-1.1V18.6z M619,6.4h-1.2v4h1.2c0.4,0,0.7-0.1,0.8-0.3
				C620,10,620,9.7,620,9.1V7.8c0-0.5-0.1-0.9-0.2-1.1C619.6,6.5,619.4,6.4,619,6.4z"/>
			<path class="st6" d="M630.1,18.6l-0.5-3.6h-2.3l-0.5,3.6h-2.6L626.4,4h4.2l2.1,14.7H630.1z M629.4,12.9l-0.9-6.4l-0.9,6.4H629.4z
				"/>
			<path class="st6" d="M640.2,18.6l-3.4-8.2v8.2h-2.5V4h2.3l3.4,8.3V4h2.5v14.7H640.2z"/>
		</g>
		<g class="st5">
			<path class="st6" d="M644.3,18.6V4h4c1.6,0,2.7,0.3,3.4,1s1,1.9,1,3.5v5.5c0,1.7-0.3,2.8-1,3.5s-1.8,1-3.4,1H644.3z M648.3,6.4
				H647v9.7h1.3c0.6,0,1-0.2,1.3-0.5s0.4-1,0.4-1.9V8.9c0-0.9-0.1-1.6-0.4-1.9C649.4,6.6,648.9,6.4,648.3,6.4z"/>
		</g>
		<g class="st5">
			<path class="st6" d="M662.7,13.7v1.6c0,1.2-0.3,2.1-1,2.6c-0.7,0.5-1.7,0.8-3.2,0.8c-1.5,0-2.5-0.3-3.2-0.9s-1-1.6-1-2.9v-1.6
				h2.7v1.4c0,0.6,0.1,1,0.4,1.3c0.2,0.3,0.6,0.4,1.2,0.4c0.5,0,0.9-0.1,1.1-0.3s0.4-0.5,0.4-1v-1.3c0-0.4-0.1-0.7-0.4-0.9
				s-0.8-0.3-1.7-0.5c-0.5-0.1-0.9-0.2-1.2-0.3s-0.6-0.2-0.9-0.4s-0.5-0.3-0.7-0.5s-0.3-0.4-0.5-0.6s-0.2-0.5-0.3-0.8
				s-0.1-0.6-0.1-1V7.3c0-1.2,0.3-2.1,1-2.7s1.7-0.8,3.2-0.8c1.5,0,2.5,0.3,3.2,0.9c0.7,0.6,1,1.6,1,2.9v1.6h-2.7V7.8
				c0-0.6-0.1-0.9-0.4-1.2s-0.6-0.4-1.2-0.4s-0.9,0.1-1.1,0.3c-0.2,0.2-0.3,0.5-0.3,1v1.2c0,0.3,0.1,0.5,0.2,0.6s0.3,0.3,0.6,0.4
				s0.8,0.2,1.4,0.4c0.7,0.2,1.2,0.3,1.7,0.5s0.8,0.4,1.1,0.7c0.3,0.3,0.5,0.6,0.6,1S662.7,13.1,662.7,13.7z"/>
		</g>
		<g class="st5">
			<path class="st6" d="M516.8,43.6V29h6.6v2.6h-3.9v3.3h3.7v2.4h-3.7v3.8h3.9v2.6H516.8z M520.8,28.5h-1.7l0.3-1.1h2.4L520.8,28.5z
				"/>
			<path class="st6" d="M525.2,43.6V29h2.7v12.1h3.9v2.6H525.2z"/>
		</g>
		<g class="st5">
			<path class="st6" d="M533.5,43.6V29h6.6v2.6h-3.9v3.3h3.7v2.4h-3.7v3.8h3.9v2.6H533.5z"/>
		</g>
		<g class="st5">
			<path class="st6" d="M541.6,39.2v-5.9c0-1.5,0.3-2.7,1-3.4c0.7-0.7,1.8-1.1,3.3-1.1c1.5,0,2.6,0.3,3.3,1c0.7,0.7,1,1.7,1,3.2v2.1
				h-2.7v-1.8c0-0.7-0.1-1.2-0.4-1.5s-0.7-0.4-1.3-0.4c-0.6,0-1,0.2-1.3,0.5s-0.4,0.9-0.4,1.8v5.3c0,0.9,0.1,1.5,0.4,1.8
				c0.3,0.3,0.7,0.5,1.3,0.5c0.6,0,1-0.1,1.3-0.4s0.4-0.8,0.4-1.6v-2.1h2.7v2.4c0,1.5-0.4,2.6-1,3.3c-0.7,0.7-1.8,1-3.3,1
				c-1.6,0-2.7-0.3-3.3-1S541.6,40.9,541.6,39.2z"/>
		</g>
		<g class="st5">
			<path class="st6" d="M558.8,31.6h-2.3v12h-2.7v-12h-2.3V29h7.3V31.6z"/>
		</g>
		<g class="st5">
			<path class="st6" d="M560.5,43.6V29h6.6v2.6h-3.9v3.3h3.7v2.4h-3.7v3.8h3.9v2.6H560.5z"/>
		</g>
		<g class="st5">
			<path class="st6" d="M573,43.7c-0.8,0-1.4-0.1-1.9-0.2c-0.5-0.2-0.9-0.4-1.3-0.8s-0.6-0.9-0.7-1.4c-0.1-0.6-0.2-1.3-0.2-2.2V29
				h2.7v9.7c0,1,0.1,1.6,0.3,2s0.6,0.6,1.1,0.6c0.5,0,0.9-0.2,1.1-0.6s0.3-1,0.3-2V29h2.7v10c0,1.8-0.3,3-0.9,3.7
				S574.5,43.7,573,43.7z"/>
		</g>
		<g class="st5">
			<path class="st6" d="M581.6,43.6h-2.7V29h3.9c0.7,0,1.4,0.1,1.8,0.2s0.8,0.3,1.1,0.6s0.5,0.6,0.6,1.1s0.2,1,0.2,1.7v2
				c0,0.7-0.1,1.3-0.3,1.7s-0.5,0.8-1,1.1l1.5,6.3H584l-1.3-5.9h-1.1V43.6z M582.8,31.4h-1.2v4h1.2c0.4,0,0.7-0.1,0.8-0.3
				s0.2-0.5,0.2-1.1v-1.4c0-0.5-0.1-0.9-0.2-1.1S583.2,31.4,582.8,31.4z"/>
		</g>
		<g class="st5">
			<path class="st6" d="M596.6,38.7v1.6c0,1.2-0.3,2.1-1,2.6c-0.7,0.5-1.7,0.8-3.2,0.8c-1.5,0-2.5-0.3-3.2-0.9s-1-1.6-1-2.9v-1.6
				h2.7v1.4c0,0.6,0.1,1,0.4,1.3c0.2,0.3,0.6,0.4,1.2,0.4c0.5,0,0.9-0.1,1.1-0.3s0.4-0.5,0.4-1v-1.3c0-0.4-0.1-0.7-0.4-0.9
				s-0.8-0.3-1.7-0.5c-0.5-0.1-0.9-0.2-1.2-0.3s-0.6-0.2-0.9-0.4s-0.5-0.3-0.7-0.5s-0.3-0.4-0.5-0.6s-0.2-0.5-0.3-0.8
				s-0.1-0.6-0.1-1v-1.5c0-1.2,0.3-2.1,1-2.7s1.7-0.8,3.2-0.8c1.5,0,2.5,0.3,3.2,0.9c0.7,0.6,1,1.6,1,2.9v1.6H594v-1.4
				c0-0.6-0.1-0.9-0.4-1.2s-0.6-0.4-1.2-0.4s-0.9,0.1-1.1,0.3c-0.2,0.2-0.3,0.5-0.3,1v1.2c0,0.3,0.1,0.5,0.2,0.6s0.3,0.3,0.6,0.4
				s0.8,0.2,1.4,0.4c0.7,0.2,1.2,0.3,1.7,0.5s0.8,0.4,1.1,0.7c0.3,0.3,0.5,0.6,0.6,1S596.6,38.1,596.6,38.7z"/>
		</g>
		<g class="st5">
			<path class="st7" d="M253.9,96.9h1.5v3.3h-8.8v-0.7l5-5.1c1.3-1.3,1.9-2.4,1.9-3.7c0-1.4-0.8-2.3-2.3-2.3c-1.5,0-2.4,0.8-2.7,2.9
				h-1.5c0.2-2.5,1.7-4.1,4.2-4.1c2.4,0,3.9,1.4,3.9,3.6c0,1.6-1,3.1-2.6,4.7l-3.5,3.5h5V96.9z"/>
		</g>
		<g class="st5">
			<path class="st7" d="M257,94.2v-0.7c0-3.8,1.9-6.2,5.1-6.2c3.2,0,5,2.5,5,6.2v0.7c0,3.7-1.8,6.3-5,6.3
				C259,100.4,257,97.9,257,94.2z M265.5,94.1v-0.7c0-3-1.3-4.9-3.4-4.9c-2.2,0-3.5,1.8-3.5,5v0.7c0,3.3,1.4,5,3.5,5
				C264.3,99.1,265.5,97.4,265.5,94.1z"/>
		</g>
		<g class="st5">
			<path class="st7" d="M268.9,100.2V99h2.6V88.9l-2.9,2.1v-1.5l3-2.2h1.5V99h2.5v1.2H268.9z"/>
		</g>
		<g class="st5">
			<path class="st7" d="M281.3,100.4c-3.5,0-4.6-2.6-4.6-5.9v-0.3c0-4.6,2.1-7,5-7c2,0,3.4,1,3.8,3.1H284c-0.3-1.2-0.9-1.8-2.4-1.8
				c-1.9,0-3.3,1.7-3.4,5.1c0.6-1,1.8-1.7,3.3-1.7c2.6,0,4.2,1.9,4.2,4.2C285.8,98.7,284,100.4,281.3,100.4z M284.2,96.2
				c0-1.9-1.1-3.1-2.9-3.1c-1.7,0-3,1.2-3,2.8c0,2.1,1.2,3.2,3,3.2C283,99.2,284.2,98,284.2,96.2z"/>
		</g>
		<g class="st5">
			<path class="st7" d="M513.1,90.4h1.4c0.1,1.5,1.1,2.7,3.1,2.7c2,0,2.9-1,2.9-2.5c0-1.7-0.9-2.5-2.7-2.5h-1v-1.3h0.9
				c1.7,0,2.4-0.8,2.4-2.2c0-1.2-0.8-2.2-2.3-2.2c-1.6,0-2.7,1-2.8,2.4h-1.4c0.1-2,1.8-3.7,4.2-3.7c2.4,0,3.9,1.6,3.9,3.4
				c0,1.5-0.9,2.3-2,2.8c1.5,0.4,2.5,1.5,2.5,3.2c0,2.3-1.9,3.7-4.6,3.7C514.9,94.4,513.2,92.6,513.1,90.4z"/>
		</g>
		<g class="st5">
			<path class="st7" d="M556,90.9h1.5v3.3h-8.8v-0.7l5-5.1c1.3-1.3,1.9-2.4,1.9-3.7c0-1.4-0.8-2.3-2.3-2.3c-1.5,0-2.4,0.8-2.7,2.9
				H549c0.2-2.5,1.7-4.1,4.2-4.1c2.4,0,3.9,1.4,3.9,3.6c0,1.6-1,3.1-2.6,4.7l-3.5,3.5h5V90.9z"/>
		</g>
		<g class="st5">
			<path class="st7" d="M559.1,88.1v-0.7c0-3.8,1.9-6.2,5.1-6.2c3.2,0,5,2.5,5,6.2v0.7c0,3.7-1.8,6.3-5,6.3
				C561.1,94.4,559.1,91.9,559.1,88.1z M567.6,88.1v-0.7c0-3-1.3-4.9-3.4-4.9c-2.2,0-3.5,1.8-3.5,5v0.7c0,3.3,1.4,5,3.5,5
				C566.4,93.1,567.6,91.3,567.6,88.1z"/>
		</g>
		<g class="st5">
			<path class="st7" d="M594.5,90.7h1.5c0.3,1.4,0.8,2.4,2.8,2.4c1.7,0,2.8-1.2,2.8-3.1c0-1.8-1.1-3-2.7-3c-1.5,0-2.4,0.5-3,1.2
				h-0.6v-7h7.2V84h-1.5v-1.4h-4.5v4.1c0.5-0.5,1.4-0.9,2.6-0.9c2.3,0,4,1.6,4,4.2c0,2.7-2,4.3-4.4,4.3
				C596,94.4,594.7,92.8,594.5,90.7z"/>
		</g>
		<g class="st5">
			<path class="st7" d="M604.6,90.7h1.5c0.3,1.4,0.8,2.4,2.8,2.4c1.7,0,2.8-1.2,2.8-3.1c0-1.8-1.1-3-2.7-3c-1.5,0-2.4,0.5-3,1.2
				h-0.6v-7h7.2V84h-1.5v-1.4h-4.5v4.1c0.5-0.5,1.4-0.9,2.6-0.9c2.3,0,4,1.6,4,4.2c0,2.7-2,4.3-4.4,4.3
				C606.1,94.4,604.8,92.8,604.6,90.7z"/>
		</g>
		<g class="st5">
			<path class="st7" d="M261.4,64.5h1.5v3.3H254v-0.7l5-5.1c1.3-1.3,1.9-2.4,1.9-3.7c0-1.4-0.8-2.3-2.3-2.3c-1.5,0-2.4,0.8-2.7,2.9
				h-1.5c0.2-2.5,1.7-4.1,4.2-4.1c2.4,0,3.9,1.4,3.9,3.6c0,1.6-1,3.1-2.6,4.7l-3.5,3.5h5V64.5z"/>
		</g>
		<g class="st5">
			<path class="st7" d="M264.5,61.8v-0.7c0-3.8,1.9-6.2,5.1-6.2c3.2,0,5,2.5,5,6.2v0.7c0,3.7-1.8,6.3-5,6.3
				C266.5,68,264.5,65.5,264.5,61.8z M273,61.7V61c0-3-1.3-4.9-3.4-4.9c-2.2,0-3.5,1.8-3.5,5v0.7c0,3.3,1.4,5,3.5,5
				C271.8,66.7,273,65,273,61.7z"/>
			<path class="st7" d="M276.4,67.9v-1.2h2.6V56.5l-2.9,2.1v-1.5l3-2.2h1.5v11.6h2.5v1.2H276.4z"/>
			<path class="st7" d="M291.5,64.5h1.5v3.3h-8.8v-0.7l5-5.1c1.3-1.3,1.9-2.4,1.9-3.7c0-1.4-0.8-2.3-2.3-2.3c-1.5,0-2.4,0.8-2.7,2.9
				h-1.5c0.2-2.5,1.7-4.1,4.2-4.1c2.4,0,3.9,1.4,3.9,3.6c0,1.6-1,3.1-2.6,4.7l-3.5,3.5h5V64.5z"/>
		</g>
		<g class="st5">
			<path class="st7" d="M253.4,33.6h1.5v3.3h-8.8v-0.7l5-5.1c1.3-1.3,1.9-2.4,1.9-3.7c0-1.4-0.8-2.3-2.3-2.3c-1.5,0-2.4,0.8-2.7,2.9
				h-1.5c0.2-2.5,1.7-4.1,4.2-4.1c2.4,0,3.9,1.4,3.9,3.6c0,1.6-1,3.1-2.6,4.7l-3.5,3.5h5V33.6z"/>
		</g>
		<g class="st5">
			<path class="st7" d="M256.5,30.8v-0.7c0-3.8,1.9-6.2,5.1-6.2c3.2,0,5,2.5,5,6.2v0.7c0,3.7-1.8,6.3-5,6.3
				C258.5,37,256.5,34.5,256.5,30.8z M265,30.7V30c0-3-1.3-4.9-3.4-4.9c-2.2,0-3.5,1.8-3.5,5v0.7c0,3.3,1.4,5,3.5,5
				C263.9,35.7,265,34,265,30.7z"/>
		</g>
		<g class="st5">
			<path class="st7" d="M268.4,30.8v-0.7c0-3.8,1.9-6.2,5.1-6.2c3.2,0,5,2.5,5,6.2v0.7c0,3.7-1.8,6.3-5,6.3
				C270.4,37,268.4,34.5,268.4,30.8z M276.9,30.7V30c0-3-1.3-4.9-3.4-4.9c-2.2,0-3.5,1.8-3.5,5v0.7c0,3.3,1.4,5,3.5,5
				C275.8,35.7,276.9,34,276.9,30.7z"/>
		</g>
		<g class="st5">
			<path class="st7" d="M280,33.2c0-1.7,1.1-2.8,2.4-3.3c-1.2-0.5-1.9-1.4-1.9-2.7c0-2.1,2-3.3,4-3.3c2,0,3.9,1.3,3.9,3.3
				c0,1.3-0.8,2.2-2,2.7c1.5,0.5,2.5,1.7,2.5,3.3c0,2.6-2.3,3.9-4.4,3.9C282.3,37,280,35.8,280,33.2z M287.3,33.1
				c0-1.7-1.3-2.6-2.8-2.6s-2.9,0.9-2.9,2.6c0,1.7,1.4,2.6,2.8,2.6C286,35.8,287.3,34.8,287.3,33.1z M286.8,27.2
				c0-1.2-1-2.1-2.4-2.1s-2.4,0.8-2.4,2.1c0,1.4,1.1,2.1,2.4,2.1C285.9,29.3,286.8,28.5,286.8,27.2z"/>
		</g>
		<g class="st5">
			<path class="st7" d="M228,14.4h1.5v3.3h-8.8V17l5-5.1c1.3-1.3,1.9-2.4,1.9-3.7c0-1.4-0.8-2.3-2.3-2.3c-1.5,0-2.4,0.8-2.7,2.9
				h-1.5c0.2-2.5,1.7-4.1,4.2-4.1c2.4,0,3.9,1.4,3.9,3.6c0,1.6-1,3.1-2.6,4.7l-3.5,3.5h5V14.4z"/>
		</g>
		<g class="st5">
			<path class="st7" d="M231.1,11.6v-0.7c0-3.8,1.9-6.2,5.1-6.2c3.2,0,5,2.5,5,6.2v0.7c0,3.7-1.8,6.3-5,6.3
				C233.2,17.8,231.1,15.3,231.1,11.6z M239.6,11.5v-0.7c0-3-1.3-4.9-3.4-4.9c-2.2,0-3.5,1.8-3.5,5v0.7c0,3.3,1.4,5,3.5,5
				C238.5,16.5,239.6,14.8,239.6,11.5z"/>
		</g>
		<g class="st5">
			<path class="st7" d="M243,11.6v-0.7c0-3.8,1.9-6.2,5.1-6.2c3.2,0,5,2.5,5,6.2v0.7c0,3.7-1.8,6.3-5,6.3
				C245.1,17.8,243,15.3,243,11.6z M251.5,11.5v-0.7c0-3-1.3-4.9-3.4-4.9c-2.2,0-3.5,1.8-3.5,5v0.7c0,3.3,1.4,5,3.5,5
				C250.4,16.5,251.5,14.8,251.5,11.5z"/>
		</g>
		<g class="st5">
			<path class="st7" d="M259,17.7v-1.2h1.8v-1.8h-6.5V14l5.9-9.2h2.1v8.6h1.8v1.2h-1.8v1.8h1.6v1.2H259z M260.8,13.4V6l-4.7,7.4
				H260.8z"/>
		</g>
		<g class="st5">
			<path class="st7" d="M127.9,100.2V99h2.6V88.9l-2.9,2.1v-1.5l3-2.2h1.5V99h2.5v1.2H127.9z"/>
		</g>
		<g class="st5">
			<path class="st7" d="M135.7,97.1h1.5c0.3,1.3,1,2,2.7,2c2.1,0,3.3-1.7,3.3-5.1c-0.6,1-1.9,1.7-3.3,1.7c-2.5,0-4.2-1.8-4.2-4.2
				c0-2.6,1.7-4.3,4.4-4.3c3,0,4.6,2.1,4.6,5.8v0.8c0,4.3-1.8,6.6-4.8,6.6C137.5,100.4,136,99.1,135.7,97.1z M143,91.7
				c0-2.1-1.2-3.3-3-3.3c-1.7,0-2.8,1.2-2.8,3c0,1.9,1.1,3.1,2.9,3.1C141.8,94.5,143,93.4,143,91.7z"/>
		</g>
		<g class="st5">
			<path class="st7" d="M146.3,96.6c0-1.7,1.1-2.8,2.4-3.3c-1.2-0.5-1.9-1.4-1.9-2.7c0-2.1,2-3.3,4-3.3c2,0,3.9,1.3,3.9,3.3
				c0,1.3-0.8,2.2-2,2.7c1.5,0.5,2.5,1.7,2.5,3.3c0,2.6-2.3,3.9-4.4,3.9C148.7,100.4,146.3,99.1,146.3,96.6z M153.6,96.5
				c0-1.7-1.3-2.6-2.8-2.6s-2.9,0.9-2.9,2.6c0,1.7,1.4,2.6,2.8,2.6C152.4,99.1,153.6,98.2,153.6,96.5z M153.1,90.5
				c0-1.2-1-2.1-2.4-2.1s-2.4,0.8-2.4,2.1c0,1.4,1.1,2.1,2.4,2.1C152.2,92.7,153.1,91.9,153.1,90.5z"/>
		</g>
		<g class="st5">
			<path class="st7" d="M156.7,96.6c0-1.7,1.1-2.8,2.4-3.3c-1.2-0.5-1.9-1.4-1.9-2.7c0-2.1,2-3.3,4-3.3c2,0,3.9,1.3,3.9,3.3
				c0,1.3-0.8,2.2-2,2.7c1.5,0.5,2.5,1.7,2.5,3.3c0,2.6-2.3,3.9-4.4,3.9C159.1,100.4,156.7,99.1,156.7,96.6z M164,96.5
				c0-1.7-1.3-2.6-2.8-2.6s-2.9,0.9-2.9,2.6c0,1.7,1.4,2.6,2.8,2.6C162.7,99.1,164,98.2,164,96.5z M163.5,90.5c0-1.2-1-2.1-2.4-2.1
				s-2.4,0.8-2.4,2.1c0,1.4,1.1,2.1,2.4,2.1C162.6,92.7,163.5,91.9,163.5,90.5z"/>
		</g>
		<g class="st5">
			<path class="st7" d="M118.9,67.9v-1.2h2.6V56.5l-2.9,2.1v-1.5l3-2.2h1.5v11.6h2.5v1.2H118.9z"/>
		</g>
		<g class="st5">
			<path class="st7" d="M126.7,64.7h1.5c0.3,1.3,1,2,2.7,2c2.1,0,3.3-1.7,3.3-5.1c-0.6,1-1.9,1.7-3.3,1.7c-2.5,0-4.2-1.8-4.2-4.2
				c0-2.6,1.7-4.3,4.4-4.3c3,0,4.6,2.1,4.6,5.8v0.8c0,4.3-1.8,6.6-4.8,6.6C128.4,68,127,66.8,126.7,64.7z M134,59.3
				c0-2.1-1.2-3.3-3-3.3c-1.7,0-2.8,1.2-2.8,3c0,1.9,1.1,3.1,2.9,3.1C132.8,62.1,134,61,134,59.3z"/>
		</g>
		<g class="st5">
			<path class="st7" d="M137.4,64.7h1.5c0.3,1.3,1,2,2.7,2c2.1,0,3.3-1.7,3.3-5.1c-0.6,1-1.9,1.7-3.3,1.7c-2.5,0-4.2-1.8-4.2-4.2
				c0-2.6,1.7-4.3,4.4-4.3c3,0,4.6,2.1,4.6,5.8v0.8c0,4.3-1.8,6.6-4.8,6.6C139.1,68,137.7,66.8,137.4,64.7z M144.7,59.3
				c0-2.1-1.2-3.3-3-3.3c-1.7,0-2.8,1.2-2.8,3c0,1.9,1.1,3.1,2.9,3.1C143.5,62.1,144.7,61,144.7,59.3z"/>
		</g>
		<g class="st5">
			<path class="st7" d="M154.8,64.5h1.5v3.3h-8.8v-0.7l5-5.1c1.3-1.3,1.9-2.4,1.9-3.7c0-1.4-0.8-2.3-2.3-2.3c-1.5,0-2.4,0.8-2.7,2.9
				h-1.5c0.2-2.5,1.7-4.1,4.2-4.1c2.4,0,3.9,1.4,3.9,3.6c0,1.6-1,3.1-2.6,4.7l-3.5,3.5h5V64.5z"/>
		</g>
		<g class="st5">
			<path class="st7" d="M127.3,37.3v-1.2h2.6V26L127,28v-1.5l3-2.2h1.5v11.6h2.5v1.2H127.3z"/>
		</g>
		<g class="st5">
			<path class="st7" d="M135.1,34.1h1.5c0.3,1.3,1,2,2.7,2c2.1,0,3.3-1.7,3.3-5.1c-0.6,1-1.9,1.7-3.3,1.7c-2.5,0-4.2-1.8-4.2-4.2
				c0-2.6,1.7-4.3,4.4-4.3c3,0,4.6,2.1,4.6,5.8v0.8c0,4.3-1.8,6.6-4.8,6.6C136.8,37.4,135.4,36.2,135.1,34.1z M142.4,28.7
				c0-2.1-1.2-3.3-3-3.3c-1.7,0-2.8,1.2-2.8,3c0,1.9,1.1,3.1,2.9,3.1C141.2,31.5,142.4,30.4,142.4,28.7z"/>
		</g>
		<g class="st5">
			<path class="st7" d="M145.8,34.1h1.5c0.3,1.3,1,2,2.7,2c2.1,0,3.3-1.7,3.3-5.1c-0.6,1-1.9,1.7-3.3,1.7c-2.5,0-4.2-1.8-4.2-4.2
				c0-2.6,1.7-4.3,4.4-4.3c3,0,4.6,2.1,4.6,5.8v0.8c0,4.3-1.8,6.6-4.8,6.6C147.5,37.4,146.1,36.2,145.8,34.1z M153.1,28.7
				c0-2.1-1.2-3.3-3-3.3c-1.7,0-2.8,1.2-2.8,3c0,1.9,1.1,3.1,2.9,3.1C151.9,31.5,153.1,30.4,153.1,28.7z"/>
			<path class="st7" d="M161.2,37.5c-3.5,0-4.6-2.6-4.6-5.9v-0.3c0-4.6,2.1-7,5-7c2,0,3.4,1,3.8,3.1h-1.5c-0.3-1.2-0.9-1.8-2.4-1.8
				c-1.9,0-3.3,1.7-3.4,5.1c0.6-1,1.8-1.7,3.3-1.7c2.6,0,4.2,1.9,4.2,4.2C165.6,35.7,163.9,37.5,161.2,37.5z M164,33.2
				c0-1.9-1.1-3.1-2.9-3.1c-1.7,0-3,1.2-3,2.8c0,2.1,1.2,3.2,3,3.2C162.9,36.2,164,35,164,33.2z"/>
		</g>
		<g class="st5">
			<path class="st7" d="M153.8,14.4h1.5v3.3h-8.8V17l5-5.1c1.3-1.3,1.9-2.4,1.9-3.7c0-1.4-0.8-2.3-2.3-2.3c-1.5,0-2.4,0.8-2.7,2.9
				h-1.5c0.2-2.5,1.7-4.1,4.2-4.1c2.4,0,3.9,1.4,3.9,3.6c0,1.6-1,3.1-2.6,4.7l-3.5,3.5h5V14.4z"/>
		</g>
		<g class="st5">
			<path class="st7" d="M156.9,11.6v-0.7c0-3.8,1.9-6.2,5.1-6.2c3.2,0,5,2.5,5,6.2v0.7c0,3.7-1.8,6.3-5,6.3
				C158.9,17.8,156.9,15.3,156.9,11.6z M165.4,11.5v-0.7c0-3-1.3-4.9-3.4-4.9c-2.2,0-3.5,1.8-3.5,5v0.7c0,3.3,1.4,5,3.5,5
				C164.2,16.5,165.4,14.8,165.4,11.5z"/>
			<path class="st7" d="M168.8,11.6v-0.7c0-3.8,1.9-6.2,5.1-6.2c3.2,0,5,2.5,5,6.2v0.7c0,3.7-1.8,6.3-5,6.3
				C170.8,17.8,168.8,15.3,168.8,11.6z M177.3,11.5v-0.7c0-3-1.3-4.9-3.4-4.9c-2.2,0-3.5,1.8-3.5,5v0.7c0,3.3,1.4,5,3.5,5
				C176.1,16.5,177.3,14.8,177.3,11.5z"/>
			<path class="st7" d="M180.7,11.6v-0.7c0-3.8,1.9-6.2,5.1-6.2c3.2,0,5,2.5,5,6.2v0.7c0,3.7-1.8,6.3-5,6.3
				C182.7,17.8,180.7,15.3,180.7,11.6z M189.2,11.5v-0.7c0-3-1.3-4.9-3.4-4.9c-2.2,0-3.5,1.8-3.5,5v0.7c0,3.3,1.4,5,3.5,5
				C188,16.5,189.2,14.8,189.2,11.5z"/>
		</g>
		<line class="st0" x1="170.9" y1="90" x2="168.3" y2="91.8"/>
		<line class="st8" x1="206.3" y1="64.9" x2="170.9" y2="90"/>
		<line class="st0" x1="162.9" y1="64.8" x2="159.8" y2="64.8"/>
		<line class="st8" x1="206.3" y1="64.9" x2="162.9" y2="64.8"/>
		<line class="st0" x1="171" y1="39.7" x2="168.4" y2="37.9"/>
		<line class="st8" x1="206.3" y1="64.9" x2="171" y2="39.7"/>
		<line class="st0" x1="192.2" y1="24" x2="191.1" y2="21"/>
		<line class="st8" x1="206.3" y1="64.9" x2="192.2" y2="24"/>
		<line class="st0" x1="218.5" y1="23.4" x2="219.4" y2="20.3"/>
		<line class="st8" x1="206.3" y1="64.9" x2="218.5" y2="23.4"/>
		<line class="st0" x1="240.9" y1="40" x2="243.4" y2="38"/>
		<line class="st8" x1="206.3" y1="64.9" x2="240.4" y2="38.2"/>
		<line class="st0" x1="248.8" y1="65" x2="252" y2="64.8"/>
		<line class="st8" x1="206.3" y1="64.9" x2="249.5" y2="62.9"/>
		<line class="st0" x1="241.7" y1="89.1" x2="244.4" y2="90.8"/>
		<line class="st8" x1="206.3" y1="64.9" x2="242.6" y2="88.4"/>
		<g class="st5">
			<path class="st7" d="M379.7,47.9h1.6V37.5h-1.6v-1.2h5c4.4,0,6.5,2.7,6.5,6.3v0.2c0,3.6-2.1,6.4-6.6,6.4h-5V47.9z M384.7,47.9
				c3.3,0,5-2,5-5.1v-0.1c0-3-1.4-5.1-5-5.1h-1.7v10.3H384.7z"/>
		</g>
		<g class="st5">
			<path class="st7" d="M392.7,44.6v-0.1c0-2.8,1.8-4.8,4.4-4.8c2.2,0,4.2,1.3,4.2,4.7v0.5h-7.1c0.1,2.1,1.1,3.3,3,3.3
				c1.5,0,2.3-0.5,2.5-1.6h1.5c-0.3,1.9-1.9,2.9-4,2.9C394.6,49.3,392.7,47.5,392.7,44.6z M399.8,43.6c-0.1-1.9-1.2-2.7-2.7-2.7
				c-1.5,0-2.6,1-2.8,2.7H399.8z M397.5,35.5h1.9l-1.9,2.6h-1.1L397.5,35.5z"/>
		</g>
		<g class="st5">
			<path class="st7" d="M402.6,49.2V48h1.3v-7h-1.4v-1.2h2.8v1.5c0.4-0.9,1.4-1.7,2.8-1.7c1.2,0,2.3,0.5,2.8,1.9
				c0.6-1.3,1.9-1.9,3.1-1.9c1.7,0,3.1,1,3.1,3.7V48h1.3v1.2h-4.2V48h1.4v-4.8c0-1.7-0.6-2.3-1.9-2.3c-1.2,0-2.4,0.8-2.4,2.5V48h1.3
				v1.2h-4.2V48h1.3v-4.8c0-1.7-0.6-2.3-1.9-2.3c-1.2,0-2.4,0.8-2.4,2.5V48h1.4v1.2H402.6z"/>
		</g>
		<g class="st5">
			<path class="st7" d="M419.4,44.5v-0.1c0-2.8,2-4.8,4.6-4.8c2.7,0,4.6,2,4.6,4.8v0.1c0,2.8-2,4.8-4.6,4.8
				C421.3,49.3,419.4,47.3,419.4,44.5z M427.1,44.5v-0.1c0-2.2-1.2-3.6-3.1-3.6c-1.9,0-3.1,1.4-3.1,3.6v0.1c0,2.1,1.2,3.5,3.1,3.5
				C425.9,48.1,427.1,46.7,427.1,44.5z"/>
			<path class="st7" d="M437.4,39.8h1.3v3.2h-1.3c-0.3-1.3-1.2-2.1-2.8-2.1c-1.7,0-3,1.4-3,3.6v0.1c0,2.3,1.3,3.5,3.1,3.5
				c1.3,0,2.5-0.8,2.7-2.3h1.4c-0.2,2-1.8,3.5-4.1,3.5c-2.6,0-4.6-1.9-4.6-4.8v-0.1c0-2.9,2.1-4.8,4.6-4.8c1.6,0,2.4,0.6,2.8,1.4
				V39.8z"/>
		</g>
		<g class="st5">
			<path class="st7" d="M440.2,49.2V48h1.3v-7h-1.4v-1.2h2.8v1.8c0.5-1,1.4-1.9,3.4-2v1.5c-2.1,0-3.4,0.6-3.4,2.9v4h1.4v1.2H440.2z"
				/>
		</g>
		<g class="st5">
			<path class="st7" d="M450.4,49.3c-1.7,0-3.1-0.8-3.1-2.8c0-2.2,2.3-2.9,4.6-2.9h1.3V43c0-1.6-0.6-2.1-2-2.1
				c-1.3,0-1.9,0.5-2.1,1.7h-1.5c0.2-2.2,1.9-2.9,3.7-2.9c1.8,0,3.4,0.6,3.4,3.4v5h1.3v1.2h-2.8v-1.3
				C452.6,48.8,451.7,49.3,450.4,49.3z M453.3,45.9v-1.2H452c-1.9,0-3.2,0.5-3.2,1.9c0,0.8,0.4,1.6,1.7,1.6
				C452.1,48.1,453.3,47.3,453.3,45.9z"/>
		</g>
		<g class="st5">
			<path class="st7" d="M457.9,46.8V41h-1.4v-1.3h1.4v-2.1h1.5v2.1h2.4V41h-2.4v5.7c0,0.9,0.4,1.4,1.4,1.4c0.4,0,0.8-0.1,1.2-0.2
				v1.3c-0.4,0.1-0.8,0.2-1.4,0.2C458.7,49.3,457.9,48.3,457.9,46.8z"/>
		</g>
		<g class="st5">
			<path class="st7" d="M463,44.6v-0.1c0-2.8,1.8-4.8,4.4-4.8c2.2,0,4.2,1.3,4.2,4.7v0.5h-7.1c0.1,2.1,1.1,3.3,3,3.3
				c1.5,0,2.3-0.5,2.5-1.6h1.5c-0.3,1.9-1.9,2.9-4,2.9C464.9,49.3,463,47.5,463,44.6z M470.2,43.6c-0.1-1.9-1.2-2.7-2.7-2.7
				c-1.5,0-2.6,1-2.8,2.7H470.2z"/>
		</g>
		<g class="st5">
			<path class="st6" d="M358.5,18.6h-4L352.3,4h2.6l1.5,12.1L358,4h2.6L358.5,18.6z"/>
			<path class="st6" d="M362.2,18.6V4h2.7v14.7H362.2z"/>
		</g>
		<g class="st5">
			<path class="st6" d="M366.7,14.2V8.3c0-1.5,0.3-2.7,1-3.4c0.7-0.7,1.8-1.1,3.3-1.1c1.5,0,2.6,0.3,3.3,1c0.7,0.7,1,1.7,1,3.2v2.1
				h-2.7V8.4c0-0.7-0.1-1.2-0.4-1.5s-0.7-0.4-1.3-0.4c-0.6,0-1,0.2-1.3,0.5s-0.4,0.9-0.4,1.8v5.3c0,0.9,0.1,1.5,0.4,1.8
				c0.3,0.3,0.7,0.5,1.3,0.5c0.6,0,1-0.1,1.3-0.4s0.4-0.8,0.4-1.6v-2.1h2.7v2.4c0,1.5-0.4,2.6-1,3.3c-0.7,0.7-1.8,1-3.3,1
				c-1.6,0-2.7-0.3-3.3-1S366.7,15.9,366.7,14.2z"/>
			<path class="st6" d="M383.5,6.6h-2.3v12h-2.7v-12h-2.3V4h7.3V6.6z"/>
		</g>
		<g class="st5">
			<path class="st6" d="M393.8,14.2c0,1.5-0.4,2.7-1.1,3.4s-1.8,1.1-3.3,1.1c-1.5,0-2.6-0.4-3.3-1.1s-1-1.9-1-3.4V8.4
				c0-1.5,0.3-2.7,1-3.4s1.8-1.1,3.3-1.1s2.6,0.4,3.3,1.1c0.7,0.7,1,1.9,1,3.4V14.2z M391.1,8.6c0-0.9-0.1-1.5-0.4-1.8
				c-0.3-0.3-0.7-0.5-1.3-0.5c-0.6,0-1,0.2-1.3,0.5c-0.3,0.3-0.4,0.9-0.4,1.8V14c0,0.9,0.1,1.5,0.4,1.8s0.7,0.5,1.3,0.5
				c0.6,0,1-0.2,1.3-0.5s0.4-0.9,0.4-1.8V8.6z"/>
			<path class="st6" d="M395.5,18.6V4h2.7v14.7H395.5z"/>
			<path class="st6" d="M402.7,18.6H400V4h3.9c0.7,0,1.4,0.1,1.8,0.2s0.8,0.3,1.1,0.6s0.5,0.6,0.6,1.1s0.2,1,0.2,1.7v2
				c0,0.7-0.1,1.3-0.3,1.7s-0.5,0.8-1,1.1l1.5,6.3h-2.8l-1.3-5.9h-1.1V18.6z M403.9,6.4h-1.2v4h1.2c0.4,0,0.7-0.1,0.8-0.3
				s0.2-0.5,0.2-1.1V7.8c0-0.5-0.1-0.9-0.2-1.1S404.3,6.4,403.9,6.4z"/>
			<path class="st6" d="M409.4,18.6V4h6.6v2.6h-3.9v3.3h3.7v2.4h-3.7v3.8h3.9v2.6H409.4z"/>
			<path class="st6" d="M420.1,18.6h-2.4v-2.3h2.4V18.6z"/>
			<path class="st6" d="M424,18.6h-2.4v-2.3h2.4V18.6z"/>
		</g>
		<g class="st5">
			<path class="st6" d="M428,18.6h-2.4v-2.3h2.4V18.6z"/>
		</g>
		<g class="st5">
			<path class="st6" d="M6.8,17.7H4.1V3H8c0.7,0,1.4,0.1,1.8,0.2s0.8,0.3,1.1,0.6s0.5,0.6,0.6,1.1s0.2,1,0.2,1.7v2
				c0,0.7-0.1,1.3-0.3,1.7s-0.5,0.8-1,1.1l1.5,6.3H9.2l-1.3-5.9H6.8V17.7z M8,5.5H6.8v4H8c0.4,0,0.7-0.1,0.8-0.3s0.2-0.5,0.2-1.1
				V6.8c0-0.5-0.1-0.9-0.2-1.1S8.4,5.5,8,5.5z"/>
		</g>
		<g class="st5">
			<path class="st6" d="M13.6,17.7V3h6.6v2.6h-3.9v3.3H20v2.4h-3.7v3.8h3.9v2.6H13.6z M17.6,2.5h-1.7l0.3-1.1h2.4L17.6,2.5z"/>
		</g>
		<g class="st5">
			<path class="st6" d="M30.1,12.7v1.6c0,1.2-0.3,2.1-1,2.6c-0.7,0.5-1.7,0.8-3.2,0.8c-1.5,0-2.5-0.3-3.2-0.9s-1-1.6-1-2.9v-1.6h2.7
				v1.4c0,0.6,0.1,1,0.4,1.3c0.2,0.3,0.6,0.4,1.2,0.4c0.5,0,0.9-0.1,1.1-0.3s0.4-0.5,0.4-1v-1.3c0-0.4-0.1-0.7-0.4-0.9
				s-0.8-0.3-1.7-0.5c-0.5-0.1-0.9-0.2-1.2-0.3s-0.6-0.2-0.9-0.4s-0.5-0.3-0.7-0.5S22.2,9.9,22,9.7s-0.2-0.5-0.3-0.8s-0.1-0.6-0.1-1
				V6.4c0-1.2,0.3-2.1,1-2.7s1.7-0.8,3.2-0.8c1.5,0,2.5,0.3,3.2,0.9c0.7,0.6,1,1.6,1,2.9v1.6h-2.7V6.9c0-0.6-0.1-0.9-0.4-1.2
				s-0.6-0.4-1.2-0.4s-0.9,0.1-1.1,0.3c-0.2,0.2-0.3,0.5-0.3,1v1.2c0,0.3,0.1,0.5,0.2,0.6s0.3,0.3,0.6,0.4s0.8,0.2,1.4,0.4
				c0.7,0.2,1.2,0.3,1.7,0.5s0.8,0.4,1.1,0.7c0.3,0.3,0.5,0.6,0.6,1S30.1,12.2,30.1,12.7z"/>
			<path class="st6" d="M35.9,17.8c-0.8,0-1.4-0.1-1.9-0.2c-0.5-0.2-0.9-0.4-1.3-0.8s-0.6-0.9-0.7-1.4c-0.1-0.6-0.2-1.3-0.2-2.2V3
				h2.7v9.7c0,1,0.1,1.6,0.3,2s0.6,0.6,1.1,0.6c0.5,0,0.9-0.2,1.1-0.6s0.3-1,0.3-2V3H40v10c0,1.8-0.3,3-0.9,3.7S37.4,17.8,35.9,17.8
				z"/>
		</g>
		<g class="st5">
			<path class="st6" d="M41.8,17.7V3h2.7v12.1h3.9v2.6H41.8z"/>
		</g>
		<g class="st5">
			<path class="st6" d="M55.1,5.7h-2.3v12h-2.7v-12h-2.3V3h7.3V5.7z"/>
		</g>
		<g class="st5">
			<path class="st6" d="M61,17.7l-0.5-3.6h-2.3l-0.5,3.6h-2.6L57.3,3h4.2l2.1,14.7H61z M60.3,11.9l-0.9-6.4l-0.9,6.4H60.3z"/>
		</g>
		<g class="st5">
			<path class="st6" d="M70.9,5.7h-2.3v12h-2.7v-12h-2.3V3h7.3V5.7z"/>
		</g>
		<g class="st5">
			<path class="st6" d="M4.1,42.7V28h4c1.6,0,2.7,0.3,3.4,1s1,1.9,1,3.5v5.5c0,1.7-0.3,2.8-1,3.5s-1.8,1-3.4,1H4.1z M8.1,30.5H6.8
				v9.7h1.3c0.6,0,1-0.2,1.3-0.5s0.4-1,0.4-1.9v-4.9c0-0.9-0.1-1.6-0.4-1.9C9.1,30.6,8.7,30.5,8.1,30.5z"/>
			<path class="st6" d="M14.2,42.7V28h6.6v2.6h-3.9v3.3h3.7v2.4h-3.7v3.8h3.9v2.6H14.2z"/>
		</g>
		<g class="st5">
			<path class="st6" d="M26.7,42.7V28h2.7v12.1h3.9v2.6H26.7z"/>
		</g>
		<g class="st5">
			<path class="st6" d="M35.3,32h-1.3l-0.4-2.5V28h2v1.4L35.3,32z"/>
			<path class="st6" d="M37.4,42.7V28H44v2.6h-3.9v3.3h3.7v2.4h-3.7v3.8H44v2.6H37.4z M41.5,27.5h-1.7l0.3-1.1h2.4L41.5,27.5z"/>
			<path class="st6" d="M45.8,42.7V28h2.7v12.1h3.9v2.6H45.8z"/>
		</g>
		<g class="st5">
			<path class="st6" d="M54.1,42.7V28h6.6v2.6h-3.9v3.3h3.7v2.4h-3.7v3.8h3.9v2.6H54.1z"/>
		</g>
		<g class="st5">
			<path class="st6" d="M62.3,38.2v-5.9c0-1.5,0.3-2.7,1-3.4c0.7-0.7,1.8-1.1,3.3-1.1c1.5,0,2.6,0.3,3.3,1c0.7,0.7,1,1.7,1,3.2v2.1
				h-2.7v-1.8c0-0.7-0.1-1.2-0.4-1.5s-0.7-0.4-1.3-0.4c-0.6,0-1,0.2-1.3,0.5S65,31.8,65,32.7V38c0,0.9,0.1,1.5,0.4,1.8
				c0.3,0.3,0.7,0.5,1.3,0.5c0.6,0,1-0.1,1.3-0.4s0.4-0.8,0.4-1.6v-2.1h2.7v2.4c0,1.5-0.4,2.6-1,3.3c-0.7,0.7-1.8,1-3.3,1
				c-1.6,0-2.7-0.3-3.3-1S62.3,39.9,62.3,38.2z"/>
		</g>
		<g class="st5">
			<path class="st6" d="M79.5,30.7h-2.3v12h-2.7v-12h-2.3V28h7.3V30.7z"/>
			<path class="st6" d="M81.2,42.7V28h2.7v14.7H81.2z"/>
			<path class="st6" d="M94.3,38.3c0,1.5-0.4,2.7-1.1,3.4s-1.8,1.1-3.3,1.1c-1.5,0-2.6-0.4-3.3-1.1s-1-1.9-1-3.4v-5.9
				c0-1.5,0.3-2.7,1-3.4s1.8-1.1,3.3-1.1s2.6,0.4,3.3,1.1c0.7,0.7,1,1.9,1,3.4V38.3z M91.6,32.7c0-0.9-0.1-1.5-0.4-1.8
				c-0.3-0.3-0.7-0.5-1.3-0.5c-0.6,0-1,0.2-1.3,0.5c-0.3,0.3-0.4,0.9-0.4,1.8V38c0,0.9,0.1,1.5,0.4,1.8s0.7,0.5,1.3,0.5
				c0.6,0,1-0.2,1.3-0.5s0.4-0.9,0.4-1.8V32.7z"/>
			<path class="st6" d="M101.9,42.7l-3.4-8.2v8.2H96V28h2.3l3.4,8.3V28h2.5v14.7H101.9z"/>
		</g>
		<g class="st5">
			<path class="st6" d="M4.1,67.7V53h6.6v2.6H6.8v3.3h3.7v2.4H6.8v3.8h3.9v2.6H4.1z"/>
			<path class="st6" d="M18.4,67.7l-3.4-8.2v8.2h-2.5V53h2.3l3.4,8.3V53h2.5v14.7H18.4z"/>
			<path class="st6" d="M24.8,67.7h-2.4v-2.3h2.4V67.7z"/>
			<path class="st6" d="M28.7,67.7h-2.4v-2.3h2.4V67.7z"/>
		</g>
		<g class="st5">
			<path class="st6" d="M32.7,67.7h-2.4v-2.3h2.4V67.7z"/>
		</g>
		<g class="st5">
			<path class="st7" d="M379.7,81.9v-1.2h1.6V70.2h-1.6V69h5.6c2.4,0,4.4,1,4.4,3.6v0.1c0,2-1.4,3.2-3.2,3.5l3.1,4.5h1.2v1.2h-2.1
				l-3.8-5.6h-2v4.4h1.8v1.2H379.7z M385.3,75c1.8,0,2.8-0.8,2.8-2.4v-0.1c0-1.6-1.1-2.3-2.8-2.3h-2.4V75H385.3z"/>
		</g>
		<g class="st5">
			<path class="st7" d="M391.5,77.3v-0.1c0-2.8,1.8-4.8,4.4-4.8c2.2,0,4.2,1.3,4.2,4.7v0.5H393c0.1,2.1,1.1,3.3,3,3.3
				c1.5,0,2.3-0.5,2.5-1.6h1.5c-0.3,1.9-1.9,2.9-4,2.9C393.4,82.1,391.5,80.2,391.5,77.3z M398.6,76.3c-0.1-1.9-1.2-2.7-2.7-2.7
				c-1.5,0-2.6,1-2.8,2.7H398.6z M396.3,68.2h1.9l-1.9,2.6h-1.1L396.3,68.2z"/>
		</g>
		<g class="st5">
			<path class="st7" d="M401.3,85.2V84h1.3V73.7h-1.4v-1.2h2.8v1.7c0.5-1,1.8-1.8,3.2-1.8c2.5,0,4.3,1.8,4.3,4.7v0.1
				c0,2.9-1.7,4.9-4.3,4.9c-1.5,0-2.6-0.8-3.2-1.7V84h1.5v1.2H401.3z M410,77.3v-0.1c0-2.4-1.3-3.6-2.9-3.6c-1.7,0-3.1,1.2-3.1,3.6
				v0.1c0,2.4,1.3,3.5,3.1,3.5C409,80.8,410,79.5,410,77.3z"/>
		</g>
		<g class="st5">
			<path class="st7" d="M417,82.1c-1.9,0-3.2-1-3.2-3.7v-4.6h-1.3v-1.2h2.8v5.9c0,1.6,0.7,2.4,2.1,2.4c1.3,0,2.5-0.9,2.5-2.6v-4.5
				h-1.3v-1.2h2.8v8.2h1.3v1.2h-2.8v-1.6C419.5,81.2,418.5,82.1,417,82.1z"/>
		</g>
		<g class="st5">
			<path class="st7" d="M426.5,80.3v1.6h-2.8v-1.2h1.3V69.2h-1.4V68h2.8v6.2c0.5-1,1.8-1.8,3.2-1.8c2.5,0,4.3,1.8,4.3,4.7v0.1
				c0,2.9-1.7,4.9-4.3,4.9C428.1,82.1,427,81.3,426.5,80.3z M432.4,77.3v-0.1c0-2.4-1.3-3.6-2.9-3.6c-1.7,0-3.1,1.2-3.1,3.6v0.1
				c0,2.4,1.3,3.5,3.1,3.5C431.4,80.8,432.4,79.5,432.4,77.3z"/>
		</g>
		<g class="st5">
			<path class="st7" d="M435.1,81.9v-1.2h1.3V69.2h-1.4V68h2.9v12.7h1.3v1.2H435.1z"/>
			<path class="st7" d="M440.2,81.9v-1.2h1.3v-7h-1.4v-1.2h2.8v8.2h1.3v1.2H440.2z M441.2,69.5c0-0.6,0.5-1,1-1c0.6,0,1,0.4,1,1
				s-0.5,1-1,1C441.6,70.5,441.2,70.1,441.2,69.5z"/>
		</g>
		<g class="st5">
			<path class="st7" d="M452.8,72.5h1.3v3.2h-1.3c-0.3-1.3-1.2-2.1-2.8-2.1c-1.7,0-3,1.4-3,3.6v0.1c0,2.3,1.3,3.5,3.1,3.5
				c1.3,0,2.5-0.8,2.7-2.3h1.4c-0.2,2-1.8,3.5-4.1,3.5c-2.6,0-4.6-1.9-4.6-4.8v-0.1c0-2.9,2.1-4.8,4.6-4.8c1.6,0,2.4,0.6,2.8,1.4
				V72.5z"/>
		</g>
		<g class="st5">
			<path class="st7" d="M458.7,82.1c-1.7,0-3.1-0.8-3.1-2.8c0-2.2,2.3-2.9,4.6-2.9h1.3v-0.7c0-1.6-0.6-2.1-2-2.1
				c-1.3,0-1.9,0.5-2.1,1.7H456c0.2-2.2,1.9-2.9,3.7-2.9c1.8,0,3.4,0.6,3.4,3.4v5h1.3v1.2h-2.8v-1.3C461,81.6,460.1,82.1,458.7,82.1
				z M461.6,78.6v-1.2h-1.3c-1.9,0-3.2,0.5-3.2,1.9c0,0.8,0.4,1.6,1.7,1.6C460.4,80.9,461.6,80.1,461.6,78.6z"/>
			<path class="st7" d="M465.3,81.9v-1.2h1.3v-7h-1.4v-1.2h2.8v8.2h1.3v1.2H465.3z M466.3,69.5c0-0.6,0.5-1,1-1c0.6,0,1,0.4,1,1
				s-0.5,1-1,1C466.7,70.5,466.3,70.1,466.3,69.5z"/>
		</g>
		<g class="st5">
			<path class="st7" d="M470.5,81.9v-1.2h1.3v-7h-1.4v-1.2h2.8v1.6c0.4-0.9,1.5-1.7,3-1.7c1.9,0,3.3,1,3.3,3.7v4.7h1.3v1.2h-4.2
				v-1.2h1.4v-4.8c0-1.6-0.7-2.3-2.2-2.3c-1.3,0-2.6,0.9-2.6,2.5v4.6h1.4v1.2H470.5z"/>
		</g>
		<g class="st5">
			<path class="st7" d="M481.8,77.3v-0.1c0-2.8,1.8-4.8,4.4-4.8c2.2,0,4.2,1.3,4.2,4.7v0.5h-7.1c0.1,2.1,1.1,3.3,3,3.3
				c1.5,0,2.3-0.5,2.5-1.6h1.5c-0.3,1.9-1.9,2.9-4,2.9C483.7,82.1,481.8,80.2,481.8,77.3z M488.9,76.3c-0.1-1.9-1.2-2.7-2.7-2.7
				c-1.5,0-2.6,1-2.8,2.7H488.9z"/>
		</g>
		<path class="st9" d="M332.6,75.2L369.9,63c2.7,7.9,2.7,16.5,0,24.4L332.6,75.2z"/>
		<circle class="st4" cx="332.6" cy="75.2" r="23.6"/>
		<path class="st10" d="M332.6,43.9l37.4-12.2c2.7,7.9,2.7,16.5,0,24.4L332.6,43.9z"/>
		<circle class="st4" cx="332.6" cy="43.9" r="23.6"/>
	</g>
	<path d="M604,67.5V56.7c-6,0-10.8,4.8-10.8,10.8c0,6,4.8,10.8,10.8,10.8c6,0,10.8-4.8,10.8-10.8c0,0,0,0,0,0
		c0-6-4.8-10.8-10.8-10.8l0,0V67.5z"/>
	<path d="M558.6,67.5V61c-3.6,0-6.5,2.9-6.5,6.5s2.9,6.5,6.5,6.5s6.5-2.9,6.5-6.5s-2.9-6.5-6.5-6.5l0,0l0,0V67.5z"/>
	<path d="M517.7,67.5V65c-1.4,0-2.5,1.1-2.5,2.5c0,1.4,1.1,2.5,2.5,2.5c1.4,0,2.5-1.1,2.5-2.5s-1.1-2.5-2.5-2.5l0,0l0,0V67.5z"/>
</g>
<text transform="matrix(1 0 0 1 430 -87)" style="font-family:'MyriadPro-Regular'; font-size:12px;">Lorem ipsum</text>
</svg>
