<?xml version="1.0" encoding="utf-8"?>
<!-- Generator: Adobe Illustrator 24.0.1, SVG Export Plug-In . SVG Version: 6.00 Build 0)  -->
<svg version="1.1" id="Calque_1" xmlns="http://www.w3.org/2000/svg" xmlns:xlink="http://www.w3.org/1999/xlink" x="0px" y="0px"
	 viewBox="0 0 916 276.3" style="enable-background:new 0 0 916 276.3;" xml:space="preserve">
<style type="text/css">
	.st0{fill:none;stroke:#E30613;stroke-width:3;stroke-linecap:round;stroke-linejoin:round;stroke-dasharray:0,5;}
	.st1{fill:#FFFFFF;}
	.st2{enable-background:new    ;}
	.st3{fill:#E30613;}
	.st4{fill:#009FE3;}
	.st5{fill:#1D1D1B;}
	.st6{fill:#E30613;stroke:#FFFFFF;stroke-width:2.24;}
	.st7{fill:#009FE3;stroke:#FFFFFF;stroke-width:2.24;}
	.st8{fill:none;stroke:#1D1D1B;stroke-width:1.49;}
	.st9{fill:none;stroke:#1D1D1B;stroke-width:2.98;}
	.st10{fill:none;stroke:#FFFFFF;stroke-width:1.59;}
	.st11{fill:none;stroke:#009FE3;stroke-width:3;stroke-linecap:round;stroke-linejoin:round;stroke-dasharray:0,5;}
</style>
<g id="charte_1_">
</g>
<g id="Calque_1_2_">
	<g>
		<line class="st0" x1="852.6" y1="248.7" x2="852.6" y2="80.5"/>
		<rect x="828.3" y="107.5" class="st1" width="87.3" height="23.4"/>
	</g>
	<g>
		<g class="st2">
			<path class="st3" d="M239,127.3c-1.7,0-2.8-0.4-3.6-1.2s-1.1-2.1-1.1-3.9v-6.7c0-1.6,0.4-2.8,1.1-3.6s2-1.2,3.7-1.2
				c3.2,0,4.8,1.4,4.8,4.3v2.3h-2.5v-2.1c0-1.4-0.8-2.2-2.4-2.2c-0.8,0-1.4,0.2-1.8,0.6s-0.5,1.2-0.5,2.2v6c0,1,0.2,1.8,0.5,2.2
				s1,0.6,1.8,0.6c0.3,0,0.5,0,0.8,0s0.4-0.1,0.6-0.2s0.4-0.2,0.5-0.4s0.2-0.4,0.3-0.6s0.1-0.6,0.1-0.9v-1.9h-2.4v-2.1h4.9v8.5h-1
				l-0.5-2.2c-0.2,0.8-0.6,1.3-1.2,1.7S240,127.3,239,127.3z"/>
		</g>
		<g class="st2">
			<path class="st3" d="M248.1,127.2h-2.3v-2.3h2.3V127.2z"/>
		</g>
		<g class="st2">
			<path class="st3" d="M254.3,127.2v-16.3h4.2c1.3,0,2.2,0.2,2.7,0.7s0.8,1.2,0.8,2.3v2.3c0,0.7-0.2,1.2-0.6,1.5s-1,0.6-1.8,0.6
				c1.1,0,1.8,0.3,2.3,0.7s0.7,1.1,0.7,1.9v2.8c0,1.2-0.3,2-1,2.5s-1.7,0.8-3.1,0.8h-4.2V127.2z M258.4,113.1h-1.6v4.5h1.6
				c0.4,0,0.7-0.1,0.9-0.3s0.3-0.6,0.3-1.2v-1.6c0-0.5-0.1-0.9-0.3-1.1S258.8,113.1,258.4,113.1z M258.5,119.7h-1.8v5.2h1.8
				c0.6,0,1-0.1,1.3-0.4s0.4-0.7,0.4-1.3v-2c0-0.6-0.1-1-0.4-1.3S259.1,119.7,258.5,119.7z"/>
		</g>
		<g class="st2">
			<path class="st3" d="M268.8,127.3c-1.6,0-2.8-0.4-3.4-1.1s-1-2-1-3.9v-11.4h2.5V122c0,1.1,0.2,1.8,0.5,2.3s0.8,0.6,1.5,0.6
				s1.2-0.2,1.5-0.6s0.5-1.2,0.5-2.3v-11.1h2.5v11.4c0,1.8-0.3,3.1-1,3.9S270.5,127.3,268.8,127.3z"/>
			<path class="st3" d="M284.3,121.6v2c0,1.3-0.4,2.2-1.1,2.8s-1.9,0.9-3.5,0.9s-2.8-0.3-3.5-1s-1.1-1.7-1.1-3.2v-2h2.5v1.7
				c0,0.8,0.2,1.3,0.5,1.6s0.9,0.5,1.6,0.5s1.3-0.1,1.6-0.3s0.5-0.6,0.5-1.2v-1.7c0-0.5-0.2-0.9-0.5-1.1s-1-0.4-2-0.6
				c-0.8-0.2-1.5-0.3-2.1-0.5s-0.9-0.4-1.3-0.7s-0.6-0.6-0.7-1s-0.2-0.9-0.2-1.4v-2.1c0-1.2,0.4-2.2,1.1-2.7s1.9-0.9,3.5-0.9
				s2.8,0.3,3.5,1s1.1,1.7,1.1,3v2h-2.5v-1.8c0-0.7-0.2-1.1-0.5-1.5s-0.9-0.5-1.6-0.5c-0.8,0-1.3,0.1-1.6,0.4s-0.5,0.6-0.5,1.2v1.8
				c0,0.3,0.1,0.6,0.2,0.8s0.4,0.3,0.8,0.5s0.9,0.3,1.7,0.4c0.8,0.2,1.5,0.3,2,0.5s0.9,0.4,1.2,0.7s0.6,0.6,0.7,1
				S284.3,121,284.3,121.6z"/>
			<path class="st3" d="M292.6,127.2V120h-3.9v7.2h-2.5v-16.3h2.5v6.6h3.9v-6.6h2.5v16.3H292.6z"/>
		</g>
		<g class="st2">
			<path class="st4" d="M366.2,127.2v-16.3h4.2c1.3,0,2.2,0.2,2.7,0.7s0.8,1.2,0.8,2.3v2.3c0,0.7-0.2,1.2-0.6,1.5s-1,0.6-1.8,0.6
				c1.1,0,1.8,0.3,2.3,0.7s0.7,1.1,0.7,1.9v2.8c0,1.2-0.3,2-1,2.5s-1.7,0.8-3.1,0.8h-4.2V127.2z M370.3,113.1h-1.6v4.5h1.6
				c0.4,0,0.7-0.1,0.9-0.3s0.3-0.6,0.3-1.2v-1.6c0-0.5-0.1-0.9-0.3-1.1S370.7,113.1,370.3,113.1z M370.5,119.7h-1.8v5.2h1.8
				c0.6,0,1-0.1,1.3-0.4s0.4-0.7,0.4-1.3v-2c0-0.6-0.1-1-0.4-1.3S371.1,119.7,370.5,119.7z"/>
		</g>
		<g class="st2">
			<path class="st4" d="M378.6,127.2h-2.3v-2.3h2.3V127.2z"/>
		</g>
		<g class="st2">
			<path class="st4" d="M384.7,122.3v-6.6c0-1.6,0.4-2.9,1.1-3.7s2-1.2,3.7-1.2s2.9,0.4,3.7,1.1s1.2,1.9,1.2,3.4v2.4h-2.5v-2.1
				c0-0.8-0.2-1.4-0.6-1.8s-1-0.6-1.8-0.6s-1.4,0.2-1.8,0.6s-0.5,1.2-0.5,2.2v6c0,1,0.2,1.8,0.5,2.2s1,0.6,1.8,0.6s1.4-0.2,1.8-0.5
				s0.6-1,0.6-1.9V120h2.5v2.7c0,1.6-0.4,2.8-1.1,3.5s-2,1.1-3.7,1.1s-3-0.4-3.7-1.1S384.7,124.1,384.7,122.3z"/>
			<path class="st4" d="M396.2,127.2v-16.3h2.5v13.9h4.5v2.4H396.2z"/>
			<path class="st4" d="M405.1,127.2v-16.3h2.5v16.3H405.1z"/>
			<path class="st4" d="M416.2,127.2l-4.5-10v10h-2.3v-16.3h2.1L416,121v-10.1h2.3v16.3H416.2z"/>
		</g>
		<g class="st2">
			<path class="st4" d="M428.2,113.3h-2.8v13.8H423v-13.8h-2.8v-2.4h8.1v2.4H428.2z"/>
		</g>
		<g class="st2">
			<path class="st4" d="M439.1,122.3c0,1.6-0.4,2.9-1.2,3.7s-2,1.2-3.7,1.2s-2.9-0.4-3.7-1.2s-1.2-2.1-1.2-3.7v-6.6
				c0-1.6,0.4-2.9,1.2-3.7s2-1.2,3.7-1.2s2.9,0.4,3.7,1.2s1.2,2.1,1.2,3.7V122.3z M436.6,116c0-1.1-0.2-1.8-0.5-2.3s-1-0.6-1.8-0.6
				s-1.4,0.2-1.8,0.6s-0.6,1.2-0.6,2.3v6c0,1.1,0.2,1.8,0.6,2.3s1,0.6,1.8,0.6c0.6,0,1-0.1,1.3-0.2s0.6-0.5,0.8-0.9s0.3-1,0.3-1.8
				L436.6,116L436.6,116z"/>
			<path class="st4" d="M447.7,127.2l-4.5-10v10h-2.3v-16.3h2.1l4.5,10.1v-10.1h2.3v16.3H447.7z"/>
		</g>
		<g class="st2">
			<path class="st4" d="M704.7,127.2v-16.3h4.2c1.3,0,2.2,0.2,2.7,0.7s0.8,1.2,0.8,2.3v2.3c0,0.7-0.2,1.2-0.6,1.5s-1,0.6-1.8,0.6
				c1.1,0,1.8,0.3,2.3,0.7s0.7,1.1,0.7,1.9v2.8c0,1.2-0.3,2-1,2.5s-1.7,0.8-3.1,0.8h-4.2L704.7,127.2L704.7,127.2z M708.8,113.1
				h-1.6v4.5h1.6c0.4,0,0.7-0.1,0.9-0.3s0.3-0.6,0.3-1.2v-1.6c0-0.5-0.1-0.9-0.3-1.1S709.2,113.1,708.8,113.1z M709,119.7h-1.8v5.2
				h1.8c0.6,0,1-0.1,1.3-0.4c0.3-0.2,0.4-0.7,0.4-1.3v-2c0-0.6-0.1-1-0.4-1.3C710,119.8,709.6,119.7,709,119.7z"/>
		</g>
		<g class="st2">
			<path class="st4" d="M717.1,127.2h-2.3v-2.3h2.3V127.2z"/>
		</g>
		<g class="st2">
			<path class="st4" d="M732.9,122.3c0,1.6-0.4,2.9-1.2,3.7c-0.8,0.8-2,1.2-3.7,1.2s-2.9-0.4-3.7-1.2s-1.2-2.1-1.2-3.7v-6.6
				c0-1.6,0.4-2.9,1.2-3.7s2-1.2,3.7-1.2s2.9,0.4,3.7,1.2s1.2,2.1,1.2,3.7V122.3z M730.4,116c0-1.1-0.2-1.8-0.5-2.3
				c-0.4-0.4-1-0.6-1.8-0.6s-1.4,0.2-1.8,0.6c-0.4,0.4-0.6,1.2-0.6,2.3v6c0,1.1,0.2,1.8,0.6,2.3c0.4,0.4,1,0.6,1.8,0.6
				c0.6,0,1-0.1,1.3-0.2s0.6-0.5,0.8-0.9s0.3-1,0.3-1.8L730.4,116L730.4,116z"/>
		</g>
		<g class="st2">
			<path class="st4" d="M734.7,127.2v-16.3h4.2c1.3,0,2.2,0.2,2.7,0.7s0.8,1.2,0.8,2.3v2.3c0,0.7-0.2,1.2-0.6,1.5s-1,0.6-1.8,0.6
				c1.1,0,1.8,0.3,2.3,0.7s0.7,1.1,0.7,1.9v2.8c0,1.2-0.3,2-1,2.5s-1.7,0.8-3.1,0.8h-4.2L734.7,127.2L734.7,127.2z M738.8,113.1
				h-1.6v4.5h1.6c0.4,0,0.7-0.1,0.9-0.3s0.3-0.6,0.3-1.2v-1.6c0-0.5-0.1-0.9-0.3-1.1S739.2,113.1,738.8,113.1z M739,119.7h-1.8v5.2
				h1.8c0.6,0,1-0.1,1.3-0.4c0.2-0.2,0.4-0.7,0.4-1.3v-2c0-0.6-0.1-1-0.4-1.3C740,119.8,739.6,119.7,739,119.7z"/>
		</g>
		<g class="st2">
			<path class="st4" d="M751.2,127.2l-0.7-4.3h-3l-0.7,4.3h-2.4l2.9-16.3h3.6l2.9,16.3H751.2z M750.1,120.6l-1.1-6.8l-1.2,6.8H750.1
				z"/>
			<path class="st4" d="M760.6,127.2l-3-11.8v11.8h-2.4v-16.3h3.4l2.6,9.6l2.7-9.6h3.4v16.3h-2.4v-11.8l-3,11.8H760.6z"/>
		</g>
		<g class="st2">
			<path class="st4" d="M776.1,127.2l-0.7-4.3h-3l-0.7,4.3h-2.4l2.7-16.3h3.6l2.9,16.3H776.1z M775,120.6l-1.1-6.8l-1.2,6.8H775z"/>
		</g>
		<g class="st2">
			<path class="st3" d="M837.6,127.2v-16.3h4.3c1.7,0,2.9,0.4,3.7,1.2c0.7,0.8,1.1,2,1.1,3.7v6.6c0,1.7-0.4,2.9-1.1,3.7
				c-0.7,0.8-2,1.2-3.7,1.2L837.6,127.2L837.6,127.2z M841.9,113.2h-1.8v11.6h1.8c0.9,0,1.5-0.2,1.8-0.6s0.5-1.2,0.5-2.3v-5.7
				c0-1.1-0.2-1.9-0.5-2.3C843.3,113.4,842.7,113.2,841.9,113.2z"/>
		</g>
		<g class="st2">
			<path class="st3" d="M850.5,127.2h-2.3v-2.3h2.3V127.2z"/>
		</g>
		<g class="st2">
			<path class="st3" d="M864.6,113.3h-2.8v13.8h-2.5v-13.8h-2.8v-2.4h8.1V113.3z"/>
		</g>
		<g class="st2">
			<path class="st3" d="M868.9,127.2h-2.5v-16.3h4.1c1,0,1.8,0.1,2.4,0.4c0.6,0.2,0.9,0.6,1.2,1.1s0.3,1.2,0.3,2.1v2.5
				c0,1.6-0.5,2.6-1.6,3l1.8,7.2H872l-1.7-6.9h-1.5L868.9,127.2L868.9,127.2z M870.6,113.2h-1.7v4.8h1.7c0.5,0,0.9-0.1,1.1-0.3
				c0.2-0.2,0.3-0.6,0.3-1.2v-1.8c0-0.6-0.1-1-0.3-1.2C871.5,113.3,871.1,113.2,870.6,113.2z"/>
		</g>
		<g class="st2">
			<path class="st3" d="M880.7,127.3c-1.6,0-2.8-0.4-3.4-1.1c-0.7-0.7-1-2-1-3.9v-11.4h2.5V122c0,1.1,0.2,1.8,0.5,2.3
				c0.3,0.4,0.8,0.6,1.5,0.6s1.2-0.2,1.5-0.6s0.5-1.2,0.5-2.3v-11.1h2.5v11.4c0,1.8-0.3,3.1-1,3.9
				C883.5,126.9,882.4,127.3,880.7,127.3z"/>
			<path class="st3" d="M892.4,127.2l-3-11.8v11.8H887v-16.3h3.4l2.6,9.6l2.7-9.6h3.4v16.3h-2.4v-11.8l-3,11.8H892.4z"/>
		</g>
		<g class="st2">
			<path class="st3" d="M905.4,121.6h-1.8v5.6h-2.5v-16.3h4.3c1.5,0,2.5,0.3,3.2,0.9c0.6,0.6,0.9,1.5,0.9,2.8v3.4
				c0,1.3-0.3,2.2-0.9,2.7C907.9,121.3,906.9,121.6,905.4,121.6z M905.4,113.2h-1.8v6.1h1.8c0.6,0,1-0.1,1.3-0.4
				c0.2-0.3,0.4-0.7,0.4-1.4v-2.4c0-0.7-0.1-1.2-0.4-1.5C906.4,113.3,906,113.2,905.4,113.2z"/>
		</g>
	</g>
	<title>desktop_controle</title>
	<g id="charte">
		<g class="st2">
			<path class="st5" d="M94.1,200c-1.9,0-3.5-0.9-3.5-3.1c0-2.5,2.2-3.4,5.4-3.4h1.2v-0.4c0-1.3-0.4-1.9-1.7-1.9
				c-1.1,0-1.6,0.5-1.7,1.5H91c0.2-2.5,2.1-3.6,4.6-3.6s4.4,1,4.4,3.9v4.8h1.1v2.1h-3.9v-1.4C96.6,199.4,95.7,200,94.1,200z
				 M97.1,196.1v-0.8H96c-1.7,0-2.6,0.4-2.6,1.5c0,0.7,0.4,1.2,1.5,1.2C96.2,198,97.1,197.3,97.1,196.1z"/>
		</g>
		<g class="st2">
			<path class="st5" d="M106.1,200.1c-2,0-3.4-1.2-3.4-4v-4.6h-1.1v-2.1h4v6.3c0,1.4,0.6,2.1,1.8,2.1c1.1,0,2.1-0.8,2.1-2.3v-4h-1.1
				v-2.1h4v8.4h1.1v2.1h-4v-1.7C108.9,199.1,107.8,200.1,106.1,200.1z"/>
			<path class="st5" d="M121.1,198.4v1.4h-2.5v-4.5h2.7c0.3,1.3,1.3,2.4,3,2.4c1.3,0,2.2-0.8,2.2-1.8c0-1.1-0.6-1.8-2.6-2
				c-3.5-0.5-5.2-1.9-5.2-4.4c0-2.4,1.8-4.1,4.5-4.1c1.8,0,2.8,0.7,3.3,1.4v-1.3h2.4v4.1h-2.6c-0.3-1.2-1.1-2-2.5-2
				c-1.3,0-2,0.6-2,1.6s0.6,1.5,2.7,1.9c3.3,0.5,5.1,1.5,5.1,4.6c0,2.5-1.8,4.4-5,4.4C123,200,121.7,199.4,121.1,198.4z"/>
			<path class="st5" d="M130.8,194.7v-0.2c0-3.3,2.3-5.4,5.4-5.4c2.7,0,5.1,1.6,5.1,5.3v0.8h-7.5c0.1,1.8,1,2.7,2.6,2.7
				c1.3,0,2-0.6,2.2-1.5h2.7c-0.3,2.3-2.1,3.5-5,3.5C133.2,200,130.8,198,130.8,194.7z M138.5,193.4c-0.1-1.5-0.9-2.3-2.3-2.3
				c-1.3,0-2.2,0.9-2.4,2.3H138.5z M136.2,184.7h3l-2.1,3.2H135L136.2,184.7z"/>
			<path class="st5" d="M142.4,199.8v-2.1h1.1v-6.2h-1.2v-2.1h4v1.7c0.5-1,1.6-2,3.3-2c2,0,3.5,1.2,3.5,4v4.7h1.1v2.1H149v-2.1h1.2
				v-4.3c0-1.4-0.6-2-1.8-2s-2.1,0.8-2.1,2.3v4h1.2v2.1L142.4,199.8L142.4,199.8L142.4,199.8z"/>
		</g>
		<g class="st2">
			<path class="st5" d="M158.7,200c-1.9,0-3.5-0.9-3.5-3.1c0-2.5,2.2-3.4,5.4-3.4h1.2v-0.4c0-1.3-0.4-1.9-1.7-1.9
				c-1.1,0-1.6,0.5-1.7,1.5h-2.7c0.2-2.5,2.1-3.6,4.6-3.6s4.4,1,4.4,3.9v4.8h1.1v2.1h-3.9v-1.4C161.3,199.4,160.3,200,158.7,200z
				 M161.8,196.1v-0.8h-1.1c-1.7,0-2.6,0.4-2.6,1.5c0,0.7,0.4,1.2,1.5,1.2C160.8,198,161.8,197.3,161.8,196.1z"/>
		</g>
		<g class="st2">
			<path class="st5" d="M167.4,196.7v-5.2h-1.3v-2.1h1.3v-2.3h2.9v2.3h2.4v2.1h-2.4v5.1c0,0.8,0.4,1.2,1.3,1.2
				c0.4,0,0.8-0.1,1.2-0.2v2.2c-0.5,0.1-1.1,0.3-1.8,0.3C168.6,200,167.4,198.9,167.4,196.7z"/>
		</g>
		<g class="st2">
			<path class="st5" d="M46,247.3c-1.9,0-3.5-0.9-3.5-3.1c0-2.5,2.2-3.4,5.4-3.4h1.2v-0.4c0-1.3-0.4-1.9-1.7-1.9
				c-1.1,0-1.6,0.5-1.7,1.5H43c0.2-2.5,2.1-3.6,4.6-3.6s4.4,1,4.4,3.9v4.8h1v2.1h-3.9v-1.4C48.5,246.7,47.6,247.3,46,247.3z
				 M44.6,232h3l1.1,3.2h-2.1L44.6,232z M49.1,243.4v-0.8H48c-1.7,0-2.6,0.4-2.6,1.5c0,0.7,0.4,1.2,1.5,1.2
				C48.1,245.3,49.1,244.6,49.1,243.4z"/>
			<path class="st5" d="M57.8,247.1V245h1.1v-11h-1.2v-2.1h4V245H63v2.1H57.8z"/>
			<path class="st5" d="M67.4,247.3c-1.9,0-3.5-0.9-3.5-3.1c0-2.5,2.2-3.4,5.4-3.4h1.2v-0.4c0-1.3-0.4-1.9-1.7-1.9
				c-1.1,0-1.6,0.5-1.7,1.5h-2.7c0.2-2.5,2.1-3.6,4.6-3.6s4.4,1,4.4,3.9v4.8h1.1v2.1h-3.9v-1.4C69.9,246.7,69,247.3,67.4,247.3z
				 M70.4,243.4v-0.8h-1.1c-1.7,0-2.6,0.4-2.6,1.5c0,0.7,0.4,1.2,1.5,1.2C69.5,245.3,70.4,244.6,70.4,243.4z"/>
			<path class="st5" d="M86.6,247.3c-4.7,0-7.2-2.9-7.2-7.3v-0.2c0-4.3,2.8-7.3,6.7-7.3c2.2,0,3.5,0.8,4.1,1.9v-1.7h2.5v5h-3
				c-0.4-1.7-1.4-2.6-3.2-2.6c-2.3,0-3.7,1.7-3.7,4.8v0.1c0,3,1.4,4.7,3.7,4.7c1.8,0,3-0.9,3.3-2.8H93
				C92.6,245.5,90.1,247.3,86.6,247.3z"/>
			<path class="st5" d="M94,247.1V245h1.1v-11H94v-2.1h4v6.5c0.5-1,1.6-2,3.3-2c2,0,3.5,1.2,3.5,4v4.7h1.1v2.1h-5.1v-2.1h1.1v-4.3
				c0-1.4-0.6-2-1.8-2c-1.2,0-2.1,0.8-2.1,2.3v4h1.1v2.1L94,247.1L94,247.1z"/>
			<path class="st5" d="M110.4,247.3c-1.9,0-3.5-0.9-3.5-3.1c0-2.5,2.2-3.4,5.4-3.4h1.2v-0.4c0-1.3-0.4-1.9-1.7-1.9
				c-1.1,0-1.6,0.5-1.7,1.5h-2.7c0.2-2.5,2.1-3.6,4.6-3.6s4.4,1,4.4,3.9v4.8h1.1v2.1h-3.9v-1.4C112.9,246.7,112,247.3,110.4,247.3z
				 M113.5,243.4v-0.8h-1.1c-1.7,0-2.6,0.4-2.6,1.5c0,0.7,0.4,1.2,1.5,1.2C112.5,245.3,113.5,244.6,113.5,243.4z"/>
			<path class="st5" d="M118.2,247.1V245h1.1v-6.3h-1.2v-2.1h4v1.7c0.5-1.1,1.6-2,3.1-2c1.3,0,2.4,0.6,2.9,2c0.8-1.4,2.1-2,3.4-2
				c1.9,0,3.4,1.2,3.4,4v4.6h1.1v2.1h-5.1v-2.1h1.1v-4.4c0-1.3-0.6-2-1.6-2c-1.1,0-2,0.8-2,2.2v4.2h1.1v2.1h-5.1v-2.1h1.1v-4.4
				c0-1.3-0.6-2-1.6-2c-1.1,0-1.9,0.8-1.9,2.2v4.2h1.1v2.1h-4.9L118.2,247.1L118.2,247.1z"/>
			<path class="st5" d="M141,245.4v1.7h-4V245h1.1v-11H137v-2.1h4v6.5c0.6-1.1,1.8-2,3.4-2c2.5,0,4.5,1.9,4.5,5.4v0.2
				c0,3.5-1.9,5.4-4.6,5.4C142.7,247.3,141.5,246.5,141,245.4z M146,241.9v-0.2c0-2.1-1-3.2-2.5-3.2s-2.6,1.1-2.6,3.2v0.2
				c0,2.1,1,3.1,2.6,3.1C145.1,245.1,146,244,146,241.9z"/>
		</g>
		<g class="st2">
			<path class="st5" d="M150,247.1V245h1.1v-6.3H150v-2.1h4v2.1c0.6-1.4,1.7-2.3,3.6-2.3v2.7c-2.3-0.1-3.6,0.6-3.6,2.6v3.2h1.3v2.1
				H150V247.1z"/>
		</g>
		<g class="st2">
			<path class="st5" d="M158.4,242v-0.2c0-3.3,2.3-5.4,5.4-5.4c2.7,0,5.1,1.6,5.1,5.3v0.8h-7.5c0.1,1.8,1,2.7,2.6,2.7
				c1.3,0,2-0.6,2.2-1.5h2.7c-0.3,2.3-2.1,3.5-5,3.5C160.7,247.3,158.4,245.3,158.4,242z M166,240.7c-0.1-1.5-0.9-2.3-2.3-2.3
				c-1.3,0-2.2,0.9-2.4,2.3H166z"/>
		</g>
		<g class="st2">
			<path class="st5" d="M4.9,271.3c-2.5,0-4.5-1.8-4.5-5.3v-0.2c0-3.4,2-5.5,4.6-5.5c1.7,0,2.7,0.7,3.3,1.8v-4.2H7.1v-2.1h4.1v13.1
				h1.1v2.1h-4v-1.6C7.7,270.4,6.5,271.3,4.9,271.3z M8.4,265.9v-0.2c0-2.1-0.9-3.2-2.5-3.2s-2.5,1.1-2.5,3.2v0.2
				c0,2.1,1,3.1,2.4,3.1C7.3,269.1,8.4,268,8.4,265.9z"/>
			<path class="st5" d="M13.1,266v-0.2c0-3.3,2.3-5.4,5.4-5.4c2.7,0,5.1,1.6,5.1,5.3v0.8h-7.5c0.1,1.8,1,2.7,2.6,2.7
				c1.3,0,2-0.6,2.2-1.5h2.7c-0.3,2.3-2.1,3.5-5,3.5C15.4,271.3,13.1,269.3,13.1,266z M20.8,264.7c-0.1-1.5-0.9-2.3-2.3-2.3
				c-1.3,0-2.2,0.9-2.4,2.3H20.8z"/>
		</g>
		<g class="st2">
			<path class="st5" d="M26.8,270v1.1h-2.1v-3.5h2.1c0.2,1,0.9,1.8,2.2,1.8c1.1,0,1.7-0.5,1.7-1.3s-0.7-1.1-2.1-1.3
				c-2.8-0.4-3.8-1.5-3.8-3.3c0-2,1.5-3.2,3.6-3.2c1.7,0,2.4,0.6,2.7,1.2v-1h2v3.1H31c-0.2-0.9-1-1.5-2.1-1.5
				c-0.9,0-1.5,0.4-1.5,1.1s0.5,1,2,1.3c2.6,0.4,4,1.1,4,3.3c0,2.1-1.4,3.4-3.9,3.4C27.8,271.3,27.1,270.5,26.8,270z"/>
		</g>
		<g class="st2">
			<path class="st5" d="M38.5,271.1V269h1.1v-6.3h-1.2v-2.1h4v2.1c0.6-1.4,1.7-2.3,3.6-2.3v2.7c-2.3-0.1-3.6,0.6-3.6,2.6v3.2h1.3
				v2.1L38.5,271.1C38.5,271,38.5,271.1,38.5,271.1z"/>
		</g>
		<g class="st2">
			<path class="st5" d="M46.9,266v-0.2c0-3.3,2.3-5.4,5.4-5.4c2.7,0,5.1,1.6,5.1,5.3v0.8h-7.5c0.1,1.8,1,2.7,2.6,2.7
				c1.3,0,2-0.6,2.2-1.5h2.7c-0.3,2.3-2.1,3.5-5,3.5C49.2,271.3,46.9,269.3,46.9,266z M54.5,264.7c-0.1-1.5-0.9-2.3-2.3-2.3
				c-1.3,0-2.2,0.9-2.4,2.3H54.5z"/>
		</g>
		<g class="st2">
			<path class="st5" d="M58.3,274.7v-2.1h1.1v-9.9h-1.2v-2.1h4v1.7c0.6-1.1,1.8-1.9,3.4-1.9c2.5,0,4.5,1.9,4.5,5.4v0.2
				c0,3.5-1.9,5.4-4.6,5.4c-1.6,0-2.8-0.8-3.3-1.8v3.2h1.3v2.1h-5.2V274.7z M67.3,265.9v-0.2c0-2.1-1-3.2-2.5-3.2s-2.6,1.1-2.6,3.2
				v0.2c0,2.1,1,3.1,2.6,3.1C66.4,269.1,67.3,268,67.3,265.9z"/>
		</g>
		<g class="st2">
			<path class="st5" d="M71.3,271.1V269h1.1v-6.3h-1.2v-2.1h4v2.1c0.6-1.4,1.7-2.3,3.6-2.3v2.7c-2.3-0.1-3.6,0.6-3.6,2.6v3.2h1.3
				v2.1L71.3,271.1C71.3,271,71.3,271.1,71.3,271.1z"/>
		</g>
		<g class="st2">
			<path class="st5" d="M79.6,266v-0.2c0-3.3,2.3-5.4,5.4-5.4c2.7,0,5.1,1.6,5.1,5.3v0.8h-7.5c0.1,1.8,1,2.7,2.6,2.7
				c1.3,0,2-0.6,2.2-1.5h2.7c-0.3,2.3-2.1,3.5-5,3.5C81.9,271.3,79.6,269.3,79.6,266z M87.3,264.7c-0.1-1.5-0.9-2.3-2.3-2.3
				c-1.3,0-2.2,0.9-2.4,2.3H87.3z M85,256h3l-2.1,3.2h-2.1L85,256z"/>
			<path class="st5" d="M93.3,270v1.1h-2.1v-3.5h2.1c0.2,1,0.9,1.8,2.2,1.8c1.1,0,1.7-0.5,1.7-1.3s-0.7-1.1-2.1-1.3
				c-2.8-0.4-3.8-1.5-3.8-3.3c0-2,1.5-3.2,3.6-3.2c1.7,0,2.4,0.6,2.7,1.2v-1h2v3.1h-2.1c-0.2-0.9-1-1.5-2.1-1.5
				c-0.9,0-1.5,0.4-1.5,1.1s0.5,1,2,1.3c2.6,0.4,4,1.1,4,3.3c0,2.1-1.4,3.4-3.9,3.4C94.3,271.3,93.6,270.5,93.3,270z"/>
		</g>
		<g class="st2">
			<path class="st5" d="M101,266v-0.2c0-3.3,2.3-5.4,5.4-5.4c2.7,0,5.1,1.6,5.1,5.3v0.8H104c0.1,1.8,1,2.7,2.6,2.7
				c1.3,0,2-0.6,2.2-1.5h2.7c-0.3,2.3-2.1,3.5-5,3.5C103.3,271.3,101,269.3,101,266z M108.7,264.7c-0.1-1.5-0.9-2.3-2.3-2.3
				c-1.3,0-2.2,0.9-2.4,2.3H108.7z"/>
		</g>
		<g class="st2">
			<path class="st5" d="M112.5,271.1V269h1.1v-6.3h-1.2v-2.1h4v1.7c0.5-1,1.6-2,3.3-2c2,0,3.5,1.2,3.5,4v4.7h1.1v2.1h-5.2V269h1.2
				v-4.3c0-1.4-0.6-2-1.8-2c-1.2,0-2.1,0.8-2.1,2.3v4h1.2v2.1H112.5L112.5,271.1z"/>
		</g>
		<g class="st2">
			<path class="st5" d="M126.2,268v-5.2h-1.3v-2.1h1.3v-2.3h2.9v2.3h2.4v2.1h-2.4v5.1c0,0.8,0.4,1.2,1.3,1.2c0.4,0,0.8-0.1,1.2-0.2
				v2.2c-0.5,0.1-1.1,0.3-1.8,0.3C127.3,271.3,126.2,270.2,126.2,268z"/>
		</g>
		<g class="st2">
			<path class="st5" d="M136,271.3c-1.9,0-3.5-0.9-3.5-3.1c0-2.5,2.2-3.4,5.4-3.4h1.2v-0.4c0-1.3-0.4-1.9-1.7-1.9
				c-1.1,0-1.6,0.5-1.7,1.5H133c0.2-2.5,2.1-3.6,4.6-3.6s4.4,1,4.4,3.9v4.8h1.1v2.1h-3.9v-1.4C138.5,270.7,137.6,271.3,136,271.3z
				 M139,267.4v-0.8h-1.1c-1.7,0-2.6,0.4-2.6,1.5c0,0.7,0.4,1.2,1.5,1.2C138.1,269.3,139,268.6,139,267.4z"/>
		</g>
		<g class="st2">
			<path class="st5" d="M143.8,271.1V269h1.1v-6.3h-1.2v-2.1h4v1.7c0.5-1,1.6-2,3.3-2c2,0,3.5,1.2,3.5,4v4.7h1.1v2.1h-5.2V269h1.2
				v-4.3c0-1.4-0.6-2-1.8-2s-2.1,0.8-2.1,2.3v4h1.2v2.1H143.8L143.8,271.1z"/>
		</g>
		<g class="st2">
			<path class="st5" d="M157.4,268v-5.2h-1.3v-2.1h1.3v-2.3h2.9v2.3h2.4v2.1h-2.4v5.1c0,0.8,0.4,1.2,1.3,1.2c0.4,0,0.8-0.1,1.2-0.2
				v2.2c-0.5,0.1-1.1,0.3-1.8,0.3C158.6,271.3,157.4,270.2,157.4,268z"/>
			<path class="st5" d="M166.1,270v1.1H164v-3.5h2.1c0.2,1,0.9,1.8,2.2,1.8c1.1,0,1.7-0.5,1.7-1.3s-0.7-1.1-2.1-1.3
				c-2.8-0.4-3.8-1.5-3.8-3.3c0-2,1.5-3.2,3.6-3.2c1.7,0,2.4,0.6,2.7,1.2v-1h2v3.1h-2.1c-0.2-0.9-1-1.5-2.1-1.5
				c-0.9,0-1.5,0.4-1.5,1.1s0.5,1,2,1.3c2.6,0.4,4,1.1,4,3.3c0,2.1-1.4,3.4-3.9,3.4C167.1,271.3,166.4,270.5,166.1,270z"/>
		</g>
		<g class="st2">
			<path class="st5" d="M5.4,155.9H4.1v5H1.4v-14.7h4c1.4,0,2.5,0.3,3,0.8c0.6,0.6,0.9,1.6,0.9,2.9v2.6c0,1.3-0.3,2.1-0.9,2.7
				C7.8,155.8,6.9,155.9,5.4,155.9z M5.4,148.7H4.1v4.9h1.3c0.5,0,0.8-0.1,1-0.3s0.3-0.6,0.3-1.2v-1.8c0-0.6-0.1-1.1-0.3-1.3
				S5.9,148.7,5.4,148.7z"/>
		</g>
		<g class="st2">
			<path class="st5" d="M15.7,160.9l-0.4-3.6H13l-0.5,3.6H9.9l2.1-14.7h4.2l2.1,14.7C18.3,160.9,15.7,160.9,15.7,160.9z M15,155.2
				l-0.9-6.4l-0.9,6.4H15z"/>
		</g>
		<g class="st2">
			<path class="st5" d="M22.6,160.9h-2.7v-14.7h3.9c0.7,0,1.4,0.1,1.8,0.2c0.4,0.1,0.8,0.3,1.1,0.6s0.5,0.6,0.6,1.1s0.2,1,0.2,1.7v2
				c0,0.7-0.1,1.3-0.3,1.7c-0.2,0.4-0.5,0.8-1,1.1l1.5,6.3H25l-1.3-5.9h-1.1V160.9z M23.9,148.7h-1.2v4h1.2c0.4,0,0.7-0.1,0.8-0.3
				c0.1-0.2,0.2-0.5,0.2-1.1V150c0-0.5-0.1-0.9-0.2-1.1C24.6,148.7,24.3,148.7,23.9,148.7z"/>
		</g>
		<g class="st2">
			<path class="st5" d="M36.3,148.9H34v12h-2.7v-12H29v-2.7h7.3V148.9z"/>
			<path class="st5" d="M38.1,160.9v-14.7h2.7v14.7H38.1z"/>
		</g>
		<g class="st2">
			<path class="st5" d="M54,160.9l-2.3-10.2v10.2h-2.6v-14.7h3.8l1.9,8l2-8h3.8v14.7H58v-10.2l-2.3,10.2H54z"/>
			<path class="st5" d="M68,160.9l-0.4-3.6h-2.3l-0.5,3.6h-2.6l2.1-14.7h4.2l2.1,14.7H68z M67.3,155.2l-0.9-6.4l-0.9,6.4H67.3z"/>
			<path class="st5" d="M72.1,160.9v-2.6h0.7c1,0,1.5-0.6,1.5-1.7v-10.4H77v10.9c0,0.7-0.1,1.3-0.3,1.8c-0.2,0.5-0.4,0.9-0.7,1.2
				c-0.3,0.3-0.7,0.5-1.1,0.6s-0.9,0.2-1.4,0.2H72.1z"/>
			<path class="st5" d="M87.4,156.5c0,1.5-0.4,2.7-1.1,3.4S84.5,161,83,161s-2.6-0.4-3.3-1.1c-0.7-0.7-1-1.9-1-3.4v-5.9
				c0-1.5,0.3-2.7,1-3.4s1.8-1.1,3.3-1.1s2.6,0.4,3.3,1.1c0.7,0.7,1,1.9,1,3.4L87.4,156.5L87.4,156.5z M84.7,150.9
				c0-0.9-0.1-1.5-0.4-1.8s-0.7-0.5-1.3-0.5s-1,0.2-1.3,0.5s-0.4,0.9-0.4,1.8v5.3c0,0.9,0.1,1.5,0.4,1.8s0.7,0.5,1.3,0.5
				s1-0.2,1.3-0.5s0.4-0.9,0.4-1.8V150.9z"/>
			<path class="st5" d="M91.8,160.9h-2.7v-14.7H93c0.7,0,1.4,0.1,1.8,0.2c0.4,0.1,0.8,0.3,1.1,0.6c0.3,0.3,0.5,0.6,0.6,1.1
				s0.2,1,0.2,1.7v2c0,0.7-0.1,1.3-0.3,1.7c-0.2,0.4-0.5,0.8-1,1.1l1.5,6.3h-2.8l-1.3-5.9h-1.1L91.8,160.9L91.8,160.9z M93,148.7
				h-1.2v4H93c0.4,0,0.7-0.1,0.8-0.3c0.1-0.2,0.2-0.5,0.2-1.1v-1.4c0-0.5-0.1-0.9-0.2-1.1C93.7,148.6,93.4,148.7,93,148.7z"/>
			<path class="st5" d="M98.6,160.9v-14.7h2.7v14.7H98.6z"/>
		</g>
		<g class="st2">
			<path class="st5" d="M110.2,148.9h-2.3v12h-2.7v-12h-2.3v-2.7h7.3V148.9z"/>
		</g>
		<g class="st2">
			<path class="st5" d="M116.1,160.9l-0.4-3.6h-2.3l-0.5,3.6h-2.6l2.1-14.7h4.2l2.1,14.7H116.1z M115.4,155.2l-0.9-6.4l-0.8,6.4
				H115.4z"/>
			<path class="st5" d="M120.4,160.9v-14.7h2.7v14.7H120.4z"/>
			<path class="st5" d="M127.5,160.9h-2.7v-14.7h3.9c0.7,0,1.4,0.1,1.8,0.2c0.4,0.1,0.8,0.3,1.1,0.6s0.5,0.6,0.6,1.1s0.2,1,0.2,1.7
				v2c0,0.7-0.1,1.3-0.3,1.7s-0.5,0.8-1,1.1l1.5,6.3h-2.8l-1.3-5.9h-1.1L127.5,160.9L127.5,160.9L127.5,160.9z M128.7,148.7h-1.2v4
				h1.2c0.4,0,0.7-0.1,0.8-0.3s0.2-0.5,0.2-1.1v-1.4c0-0.5-0.1-0.9-0.2-1.1C129.4,148.6,129.1,148.7,128.7,148.7z"/>
			<path class="st5" d="M134.3,160.9v-14.7h6.6v2.6H137v3.3h3.7v2.4H137v3.8h3.9v2.6L134.3,160.9L134.3,160.9z"/>
			<path class="st5" d="M144.9,160.9h-2.4v-2.3h2.4V160.9z"/>
			<path class="st5" d="M148.9,160.9h-2.4v-2.3h2.4V160.9z"/>
		</g>
		<g class="st2">
			<path class="st5" d="M152.9,160.9h-2.4v-2.3h2.4V160.9z"/>
		</g>
		<g class="st2">
			<path class="st5" d="M190.7,39c0-1.7,1.1-2.8,2.4-3.3c-1.2-0.5-1.9-1.4-1.9-2.7c0-2.1,2-3.3,4-3.3s3.9,1.3,3.9,3.3
				c0,1.3-0.8,2.2-2,2.7c1.5,0.5,2.5,1.7,2.5,3.3c0,2.6-2.3,3.9-4.4,3.9C193,42.9,190.7,41.6,190.7,39z M198,39
				c0-1.7-1.3-2.6-2.8-2.6s-2.9,0.9-2.9,2.6c0,1.7,1.4,2.6,2.8,2.6C196.7,41.6,198,40.7,198,39z M197.5,33c0-1.2-1-2.1-2.4-2.1
				s-2.4,0.8-2.4,2.1c0,1.4,1.1,2.1,2.4,2.1C196.5,35.2,197.5,34.4,197.5,33z"/>
		</g>
		<g class="st2">
			<path class="st5" d="M202.1,33.1h-1.5v-3.3h8.8v0.5l-4.7,12.3h-1.6l4.5-11.6h-5.5V33.1z"/>
		</g>
		<g class="st2">
			<path class="st5" d="M232,39c0-1.7,1.1-2.8,2.4-3.3c-1.2-0.5-1.9-1.4-1.9-2.7c0-2.1,2-3.3,4-3.3s3.9,1.3,3.9,3.3
				c0,1.3-0.8,2.2-2,2.7c1.5,0.5,2.5,1.7,2.5,3.3c0,2.6-2.3,3.9-4.4,3.9C234.3,42.9,232,41.6,232,39z M239.3,39
				c0-1.7-1.3-2.6-2.8-2.6s-2.9,0.9-2.9,2.6c0,1.7,1.4,2.6,2.8,2.6C238,41.6,239.3,40.7,239.3,39z M238.8,33c0-1.2-1-2.1-2.4-2.1
				S234,31.7,234,33c0,1.4,1.1,2.1,2.4,2.1C237.9,35.2,238.8,34.4,238.8,33z"/>
		</g>
		<g class="st2">
			<path class="st5" d="M242.5,39.5h1.5c0.3,1.3,1,2,2.7,2c2.1,0,3.3-1.7,3.3-5.1c-0.6,1-1.9,1.7-3.3,1.7c-2.5,0-4.2-1.8-4.2-4.2
				c0-2.6,1.7-4.3,4.4-4.3c3,0,4.6,2.1,4.6,5.8v0.8c0,4.3-1.8,6.6-4.8,6.6C244.3,42.8,242.9,41.6,242.5,39.5z M249.9,34.1
				c0-2.1-1.2-3.3-3-3.3c-1.7,0-2.8,1.2-2.8,3c0,1.9,1.1,3.1,2.9,3.1C248.6,36.9,249.9,35.8,249.9,34.1z"/>
		</g>
		<g class="st2">
			<path class="st5" d="M285.9,42.7v-1.2h2.6V31.4l-2.9,2.1V32l3-2.2h1.5v11.6h2.5v1.2L285.9,42.7L285.9,42.7z"/>
		</g>
		<g class="st2">
			<path class="st5" d="M326.3,38.9h1.4c0.1,1.5,1.1,2.7,3.1,2.7s2.9-1,2.9-2.5c0-1.7-0.9-2.5-2.7-2.5h-1v-1.3h0.9
				c1.7,0,2.4-0.8,2.4-2.2c0-1.2-0.8-2.2-2.3-2.2c-1.6,0-2.7,1-2.8,2.4h-1.4c0.1-2,1.8-3.7,4.2-3.7s3.9,1.6,3.9,3.4
				c0,1.5-0.9,2.3-2,2.8c1.5,0.4,2.5,1.5,2.5,3.2c0,2.3-1.9,3.7-4.6,3.7C328.1,42.9,326.4,41.2,326.3,38.9z"/>
		</g>
		<g class="st2">
			<path class="st5" d="M402.6,39.5h1.5c0.3,1.3,1,2,2.7,2c2.1,0,3.3-1.7,3.3-5.1c-0.6,1-1.9,1.7-3.3,1.7c-2.5,0-4.2-1.8-4.2-4.2
				c0-2.6,1.7-4.3,4.4-4.3c3,0,4.6,2.1,4.6,5.8v0.8c0,4.3-1.8,6.6-4.8,6.6C404.3,42.8,402.9,41.6,402.6,39.5z M409.9,34.1
				c0-2.1-1.2-3.3-3-3.3c-1.7,0-2.8,1.2-2.8,3c0,1.9,1.1,3.1,2.9,3.1C408.7,36.9,409.9,35.8,409.9,34.1z"/>
		</g>
		<g class="st2">
			<path class="st5" d="M275.1,39.5h1.5c0.3,1.3,1,2,2.7,2c2.1,0,3.3-1.7,3.3-5.1c-0.6,1-1.9,1.7-3.3,1.7c-2.5,0-4.2-1.8-4.2-4.2
				c0-2.6,1.7-4.3,4.4-4.3c3,0,4.6,2.1,4.6,5.8v0.8c0,4.3-1.8,6.6-4.8,6.6C276.8,42.8,275.4,41.6,275.1,39.5z M282.4,34.1
				c0-2.1-1.2-3.3-3-3.3c-1.7,0-2.8,1.2-2.8,3c0,1.9,1.1,3.1,2.9,3.1C281.2,36.9,282.4,35.8,282.4,34.1z"/>
		</g>
		<g class="st2">
			<path class="st5" d="M315.7,39.5h1.5c0.3,1.3,1,2,2.7,2c2.1,0,3.3-1.7,3.3-5.1c-0.6,1-1.9,1.7-3.3,1.7c-2.5,0-4.2-1.8-4.2-4.2
				c0-2.6,1.7-4.3,4.4-4.3c3,0,4.6,2.1,4.6,5.8v0.8c0,4.3-1.8,6.6-4.8,6.6C317.4,42.8,316,41.6,315.7,39.5z M323,34.1
				c0-2.1-1.2-3.3-3-3.3c-1.7,0-2.8,1.2-2.8,3c0,1.9,1.1,3.1,2.9,3.1C321.8,36.9,323,35.8,323,34.1z"/>
		</g>
		<g class="st2">
			<path class="st5" d="M414.2,33.1h-1.5v-3.3h8.8v0.5l-4.7,12.3h-1.6l4.5-11.6h-5.5L414.2,33.1L414.2,33.1z"/>
		</g>
		<g class="st2">
			<path class="st5" d="M443.9,39.5h1.5c0.3,1.3,1,2,2.7,2c2.1,0,3.3-1.7,3.3-5.1c-0.6,1-1.9,1.7-3.3,1.7c-2.5,0-4.2-1.8-4.2-4.2
				c0-2.6,1.7-4.3,4.4-4.3c3,0,4.6,2.1,4.6,5.8v0.8c0,4.3-1.8,6.6-4.8,6.6C445.7,42.8,444.3,41.6,443.9,39.5z M451.3,34.1
				c0-2.1-1.2-3.3-3-3.3c-1.7,0-2.8,1.2-2.8,3c0,1.9,1.1,3.1,2.9,3.1C450,36.9,451.3,35.8,451.3,34.1z"/>
		</g>
		<g class="st2">
			<path class="st5" d="M454.6,39.5h1.5c0.3,1.3,1,2,2.7,2c2.1,0,3.3-1.7,3.3-5.1c-0.6,1-1.9,1.7-3.3,1.7c-2.5,0-4.2-1.8-4.2-4.2
				c0-2.6,1.7-4.3,4.4-4.3c3,0,4.6,2.1,4.6,5.8v0.8c0,4.3-1.8,6.6-4.8,6.6C456.4,42.8,455,41.6,454.6,39.5z M461.9,34.1
				c0-2.1-1.2-3.3-3-3.3c-1.7,0-2.8,1.2-2.8,3c0,1.9,1.1,3.1,2.9,3.1C460.7,36.9,461.9,35.8,461.9,34.1z"/>
		</g>
		<g class="st2">
			<path class="st5" d="M498,42.7v-1.2h2.6V31.4l-2.9,2.1V32l3-2.2h1.5v11.6h2.5v1.2L498,42.7L498,42.7z"/>
		</g>
		<g class="st2">
			<path class="st5" d="M538.4,38.9h1.4c0.1,1.5,1.1,2.7,3.1,2.7s2.9-1,2.9-2.5c0-1.7-0.9-2.5-2.7-2.5h-1v-1.3h0.9
				c1.7,0,2.4-0.8,2.4-2.2c0-1.2-0.8-2.2-2.3-2.2c-1.6,0-2.7,1-2.8,2.4h-1.4c0.1-2,1.8-3.7,4.2-3.7s3.9,1.6,3.9,3.4
				c0,1.5-0.9,2.3-2,2.8c1.5,0.4,2.5,1.5,2.5,3.2c0,2.3-1.9,3.7-4.6,3.7C540.1,42.9,538.5,41.2,538.4,38.9z"/>
		</g>
		<g class="st2">
			<path class="st5" d="M611.9,36.6v-0.7c0-3.8,1.9-6.2,5.1-6.2c3.2,0,5,2.5,5,6.2v0.7c0,3.7-1.8,6.3-5,6.3
				C614,42.9,611.9,40.4,611.9,36.6z M620.4,36.6v-0.7c0-3-1.3-4.9-3.4-4.9c-2.2,0-3.5,1.8-3.5,5v0.7c0,3.3,1.4,5,3.5,5
				C619.3,41.6,620.4,39.8,620.4,36.6z"/>
		</g>
		<g class="st2">
			<path class="st5" d="M485.7,36.6v-0.7c0-3.8,1.9-6.2,5.1-6.2c3.2,0,5,2.5,5,6.2v0.7c0,3.7-1.8,6.3-5,6.3
				C487.8,42.9,485.7,40.4,485.7,36.6z M494.2,36.6v-0.7c0-3-1.3-4.9-3.4-4.9c-2.2,0-3.5,1.8-3.5,5v0.7c0,3.3,1.4,5,3.5,5
				C493.1,41.6,494.2,39.8,494.2,36.6z"/>
		</g>
		<g class="st2">
			<path class="st5" d="M527.6,36.6v-0.7c0-3.8,1.9-6.2,5.1-6.2c3.2,0,5,2.5,5,6.2v0.7c0,3.7-1.8,6.3-5,6.3
				C529.7,42.9,527.6,40.4,527.6,36.6z M536.1,36.6v-0.7c0-3-1.3-4.9-3.4-4.9c-2.2,0-3.5,1.8-3.5,5v0.7c0,3.3,1.4,5,3.5,5
				C535,41.6,536.1,39.8,536.1,36.6z"/>
		</g>
		<g class="st2">
			<path class="st5" d="M624.7,33.1h-1.5v-3.3h8.8v0.5l-4.7,12.3h-1.6l4.5-11.6h-5.5V33.1z"/>
		</g>
		<g class="st2">
			<path class="st5" d="M653.4,36.6v-0.7c0-3.8,1.9-6.2,5.1-6.2c3.2,0,5,2.5,5,6.2v0.7c0,3.7-1.8,6.3-5,6.3
				C655.4,42.9,653.4,40.4,653.4,36.6z M661.9,36.6v-0.7c0-3-1.3-4.9-3.4-4.9s-3.5,1.8-3.5,5v0.7c0,3.3,1.4,5,3.5,5
				C660.7,41.6,661.9,39.8,661.9,36.6z"/>
		</g>
		<g class="st2">
			<path class="st5" d="M665.1,39.5h1.5c0.3,1.3,1,2,2.7,2c2.1,0,3.3-1.7,3.3-5.1c-0.6,1-1.9,1.7-3.3,1.7c-2.5,0-4.2-1.8-4.2-4.2
				c0-2.6,1.7-4.3,4.4-4.3c3,0,4.6,2.1,4.6,5.8v0.8c0,4.3-1.8,6.6-4.8,6.6C666.8,42.8,665.4,41.6,665.1,39.5z M672.4,34.1
				c0-2.1-1.2-3.3-3-3.3c-1.7,0-2.8,1.2-2.8,3c0,1.9,1.1,3.1,2.9,3.1C671.2,36.9,672.4,35.8,672.4,34.1z"/>
		</g>
		<g class="st2">
			<path class="st5" d="M823.9,42.7v-1.2h2.6V31.4l-2.9,2.1V32l3-2.2h1.5v11.6h2.5v1.2L823.9,42.7L823.9,42.7z"/>
		</g>
		<g class="st2">
			<path class="st5" d="M832.6,33.1h-1.5v-3.3h8.8v0.5l-4.7,12.3h-1.6l4.5-11.6h-5.5V33.1z"/>
		</g>
		<g class="st2">
			<path class="st5" d="M865.3,42.7v-1.2h2.6V31.4l-2.9,2.1V32l3-2.2h1.5v11.6h2.5v1.2L865.3,42.7L865.3,42.7z"/>
		</g>
		<g class="st2">
			<path class="st5" d="M873.1,39.5h1.5c0.3,1.3,1,2,2.7,2c2.1,0,3.3-1.7,3.3-5.1c-0.6,1-1.9,1.7-3.3,1.7c-2.5,0-4.2-1.8-4.2-4.2
				c0-2.6,1.7-4.3,4.4-4.3c3,0,4.6,2.1,4.6,5.8v0.8c0,4.3-1.8,6.6-4.8,6.6C874.8,42.8,873.4,41.6,873.1,39.5z M880.4,34.1
				c0-2.1-1.2-3.3-3-3.3c-1.7,0-2.8,1.2-2.8,3c0,1.9,1.1,3.1,2.9,3.1C879.2,36.9,880.4,35.8,880.4,34.1z"/>
		</g>
		<g class="st2">
			<path class="st5" d="M698.4,42.7v-1.2h2.6V31.4l-2.9,2.1V32l3-2.2h1.5v11.6h2.5v1.2L698.4,42.7L698.4,42.7z"/>
			<path class="st5" d="M706.7,42.7v-1.2h2.6V31.4l-2.9,2.1V32l3-2.2h1.5v11.6h2.5v1.2L706.7,42.7L706.7,42.7z"/>
		</g>
		<g class="st2">
			<path class="st5" d="M739.3,42.7v-1.2h2.6V31.4l-2.9,2.1V32l3-2.2h1.5v11.6h2.5v1.2L739.3,42.7L739.3,42.7z"/>
		</g>
		<g class="st2">
			<path class="st5" d="M747,38.9h1.4c0.1,1.5,1.1,2.7,3.1,2.7s2.9-1,2.9-2.5c0-1.7-0.9-2.5-2.7-2.5h-1v-1.3h0.9
				c1.7,0,2.4-0.8,2.4-2.2c0-1.2-0.8-2.2-2.3-2.2c-1.6,0-2.7,1-2.8,2.4h-1.4c0.1-2,1.8-3.7,4.2-3.7s3.9,1.6,3.9,3.4
				c0,1.5-0.9,2.3-2,2.8c1.5,0.4,2.5,1.5,2.5,3.2c0,2.3-1.9,3.7-4.6,3.7C748.8,42.9,747.1,41.2,747,38.9z"/>
		</g>
		<g class="st2">
			<path class="st5" d="M347.5,15.6v-1.8h2.4V5.1l-2.6,1.8V4.8l2.9-2.1h2.1v11.1h2.3v1.8C354.6,15.6,347.5,15.6,347.5,15.6z"/>
		</g>
		<g class="st2">
			<path class="st5" d="M355.6,12.3h2.3c0.2,1,0.8,1.7,2.2,1.7c1.9,0,2.8-1.5,2.9-4.4c-0.6,1-1.7,1.6-3.2,1.6
				c-2.5,0-4.3-1.7-4.3-4.2c0-2.6,1.9-4.4,4.8-4.4c3.3,0,5,2.3,5,6v0.7c0,4.2-1.9,6.6-5.2,6.6C357.5,15.8,355.9,14.5,355.6,12.3z
				 M362.8,7.1c0-1.7-1-2.7-2.5-2.7c-1.4,0-2.4,1-2.4,2.6c0,1.5,0.9,2.6,2.4,2.6S362.8,8.5,362.8,7.1z"/>
			<path class="st5" d="M366.8,12.3h2.3c0.2,1,0.8,1.7,2.2,1.7c1.9,0,2.8-1.5,2.9-4.4c-0.6,1-1.7,1.6-3.2,1.6
				c-2.5,0-4.3-1.7-4.3-4.2c0-2.6,1.9-4.4,4.8-4.4c3.3,0,5,2.3,5,6v0.7c0,4.2-1.9,6.6-5.2,6.6C368.7,15.8,367.1,14.5,366.8,12.3z
				 M373.9,7.1c0-1.7-1-2.7-2.5-2.7c-1.4,0-2.4,1-2.4,2.6c0,1.5,0.9,2.6,2.4,2.6S373.9,8.5,373.9,7.1z"/>
		</g>
		<g class="st2">
			<path class="st5" d="M377.8,11.9h2.2c0.2,1.2,0.7,2,2.3,2c1.5,0,2.3-1,2.3-2.6c0-1.5-0.9-2.5-2.3-2.5c-1.3,0-2.1,0.4-2.7,1.1
				h-1.2l0.1-7.2h7.8v3h-2V4.5h-3.9l-0.1,3.7c0.5-0.6,1.4-1,2.8-1c2.3,0,4,1.6,4,4.2c0,2.7-2,4.4-4.7,4.4
				C379.3,15.8,377.9,14.1,377.8,11.9z"/>
		</g>
		<g class="st2">
			<path class="st5" d="M564.7,12.1h2v3.5h-9.4v-1.2l4.7-4.6c1.4-1.4,2-2.3,2-3.5s-0.7-1.9-1.9-1.9c-1.3,0-2.1,0.7-2.3,2.6h-2.2
				c0.2-2.8,1.9-4.4,4.6-4.4c2.7,0,4.2,1.4,4.2,3.7c0,1.7-1,3.1-2.6,4.6l-3.3,3.1h4.2V12.1z"/>
		</g>
		<g class="st2">
			<path class="st5" d="M568.1,9.5V8.9c0-3.9,2.2-6.3,5.4-6.3c3.3,0,5.4,2.4,5.4,6.2v0.6c0,3.9-2,6.4-5.4,6.4
				C570.3,15.8,568.1,13.4,568.1,9.5z M576.5,9.5V8.8c0-2.7-1-4.4-3-4.4c-1.9,0-3,1.5-3,4.4v0.6c0,2.9,1.1,4.4,3,4.4
				C575.6,13.9,576.5,12.4,576.5,9.5z"/>
		</g>
		<g class="st2">
			<path class="st5" d="M580.5,9.5V8.9c0-3.9,2.2-6.3,5.4-6.3c3.3,0,5.4,2.4,5.4,6.2v0.6c0,3.9-2,6.4-5.4,6.4
				C582.6,15.8,580.5,13.4,580.5,9.5z M588.9,9.5V8.8c0-2.7-1-4.4-3-4.4c-1.9,0-3,1.5-3,4.4v0.6c0,2.9,1.1,4.4,3,4.4
				C587.9,13.9,588.9,12.4,588.9,9.5z"/>
		</g>
		<g class="st2">
			<path class="st5" d="M592.5,11.9h2.2c0.2,1.2,0.7,2,2.3,2c1.5,0,2.3-1,2.3-2.6c0-1.5-0.9-2.5-2.3-2.5c-1.3,0-2.1,0.4-2.7,1.1
				h-1.2l0.1-7.2h7.8v3h-2V4.5h-3.9L595,8.2c0.5-0.6,1.4-1,2.8-1c2.3,0,4,1.6,4,4.2c0,2.7-2,4.4-4.7,4.4
				C594,15.8,592.6,14.1,592.5,11.9z"/>
		</g>
		<g class="st2">
			<path class="st5" d="M776.6,12.1h2v3.5h-9.4v-1.2l4.7-4.6c1.4-1.4,2-2.3,2-3.5s-0.7-1.9-1.9-1.9c-1.3,0-2.1,0.7-2.3,2.6h-2.2
				c0.2-2.8,1.9-4.4,4.6-4.4c2.7,0,4.2,1.4,4.2,3.7c0,1.7-1,3.1-2.6,4.6l-3.3,3.1h4.2V12.1z"/>
		</g>
		<g class="st2">
			<path class="st5" d="M780,9.5V8.9c0-3.9,2.2-6.3,5.4-6.3c3.3,0,5.4,2.4,5.4,6.2v0.6c0,3.9-2,6.4-5.4,6.4
				C782.1,15.8,780,13.4,780,9.5z M788.4,9.5V8.8c0-2.7-1-4.4-3-4.4c-1.9,0-3,1.5-3,4.4v0.6c0,2.9,1.1,4.4,3,4.4
				C787.5,13.9,788.4,12.4,788.4,9.5z"/>
		</g>
		<g class="st2">
			<path class="st5" d="M792.5,15.6v-1.8h2.4V5.1l-2.6,1.8V4.8l2.9-2.1h2.1v11.1h2.3v1.8C799.6,15.6,792.5,15.6,792.5,15.6z"/>
		</g>
		<g class="st2">
			<path class="st5" d="M800.5,11.9h2.2c0.2,1.2,0.7,2,2.3,2c1.5,0,2.3-1,2.3-2.6c0-1.5-0.9-2.5-2.3-2.5c-1.3,0-2.1,0.4-2.7,1.1
				h-1.2l0.1-7.2h7.8v3h-2V4.5h-3.9L803,8.2c0.5-0.6,1.4-1,2.8-1c2.3,0,4,1.6,4,4.2c0,2.7-2,4.4-4.7,4.4
				C802,15.8,800.6,14.1,800.5,11.9z"/>
		</g>
	</g>
	<g id="Calque_1_1_">
		<rect x="831.6" y="176.4" class="st6" width="42" height="38.2"/>
		<rect x="201.9" y="176.4" class="st7" width="42" height="38.2"/>
		<rect x="243.8" y="176.4" class="st7" width="42" height="38.2"/>
		<rect x="285.8" y="176.4" class="st7" width="42" height="38.2"/>
		<rect x="327.8" y="176.4" class="st7" width="42" height="38.2"/>
		<rect x="369.8" y="176.4" class="st6" width="42" height="38.2"/>
		<rect x="411.8" y="176.4" class="st6" width="42" height="38.2"/>
		<rect x="453.8" y="176.4" class="st6" width="42" height="38.2"/>
		<rect x="495.8" y="176.4" class="st7" width="42" height="38.2"/>
		<rect x="537.7" y="176.4" class="st6" width="42" height="38.2"/>
		<rect x="579.7" y="176.4" class="st6" width="42" height="38.2"/>
		<rect x="621.7" y="176.4" class="st7" width="42" height="38.2"/>
		<rect x="663.7" y="176.4" class="st7" width="42" height="38.2"/>
		<rect x="705.7" y="176.4" class="st7" width="42" height="38.2"/>
		<rect x="747.7" y="176.4" class="st7" width="42" height="38.2"/>
		<rect x="789.7" y="176.4" class="st6" width="42" height="38.2"/>
		<line class="st8" x1="201.9" y1="50.3" x2="201.9" y2="62.8"/>
		<line class="st8" x1="243.8" y1="50.3" x2="243.8" y2="62.8"/>
		<line class="st8" x1="285.8" y1="50.3" x2="285.8" y2="62.8"/>
		<line class="st8" x1="327.8" y1="50.3" x2="327.8" y2="62.8"/>
		<line class="st9" x1="369.8" y1="22.6" x2="369.8" y2="62.8"/>
		<line class="st8" x1="411.8" y1="50.3" x2="411.8" y2="62.8"/>
		<line class="st8" x1="453.8" y1="50.3" x2="453.8" y2="62.8"/>
		<line class="st8" x1="495.8" y1="50.3" x2="495.8" y2="62.8"/>
		<line class="st8" x1="537.7" y1="50.3" x2="537.7" y2="62.8"/>
		<line class="st9" x1="579.7" y1="22.6" x2="579.7" y2="62.8"/>
		<line class="st8" x1="621.7" y1="50.3" x2="621.7" y2="62.8"/>
		<line class="st8" x1="663.7" y1="50.3" x2="663.7" y2="62.8"/>
		<line class="st8" x1="705.7" y1="50.3" x2="705.7" y2="62.8"/>
		<line class="st8" x1="747.7" y1="50.3" x2="747.7" y2="62.8"/>
		<line class="st9" x1="789.7" y1="22.6" x2="789.7" y2="62.8"/>
		<line class="st8" x1="831.6" y1="50.3" x2="831.6" y2="62.8"/>
		<line class="st8" x1="873.6" y1="50.3" x2="873.6" y2="62.8"/>
		<rect x="831.6" y="236.3" class="st6" width="42" height="38.2"/>
		<rect x="873.5" y="176.4" class="st6" width="42" height="38.2"/>
		<rect x="873.5" y="236.3" class="st7" width="42" height="38.2"/>
		<rect x="201.9" y="236.3" class="st7" width="42" height="38.2"/>
		<rect x="243.8" y="236.3" class="st7" width="42" height="38.2"/>
		<rect x="285.8" y="236.3" class="st7" width="42" height="38.2"/>
		<rect x="327.8" y="236.3" class="st7" width="42" height="38.2"/>
		<rect x="369.8" y="236.3" class="st6" width="42" height="38.2"/>
		<rect x="411.8" y="236.3" class="st6" width="42" height="38.2"/>
		<rect x="453.8" y="236.3" class="st6" width="42" height="38.2"/>
		<rect x="495.8" y="236.3" class="st6" width="42" height="38.2"/>
		<rect x="537.7" y="236.3" class="st6" width="42" height="38.2"/>
		<rect x="579.7" y="236.3" class="st6" width="42" height="38.2"/>
		<rect x="621.7" y="236.3" class="st7" width="42" height="38.2"/>
		<rect x="663.7" y="236.3" class="st7" width="42" height="38.2"/>
		<rect x="705.7" y="236.3" class="st6" width="42" height="38.2"/>
		<rect x="747.7" y="236.3" class="st6" width="42" height="38.2"/>
		<rect x="789.7" y="236.3" class="st6" width="42" height="38.2"/>
	</g>
	<g>
		<g>
			<ellipse class="st3" cx="852.6" cy="80.5" rx="8.9" ry="9.2"/>
			<ellipse class="st10" cx="852.6" cy="80.5" rx="8.9" ry="9.2"/>
			<ellipse class="st3" cx="222.8" cy="80.5" rx="8.9" ry="9.2"/>
			<ellipse class="st10" cx="222.8" cy="80.5" rx="8.9" ry="9.2"/>
			<ellipse class="st3" cx="264.8" cy="80.5" rx="8.9" ry="9.2"/>
			<ellipse class="st10" cx="264.8" cy="80.5" rx="8.9" ry="9.2"/>
			<ellipse class="st3" cx="306.8" cy="80.5" rx="8.9" ry="9.2"/>
			<ellipse class="st10" cx="306.8" cy="80.5" rx="8.9" ry="9.2"/>
			<ellipse class="st4" cx="348.8" cy="80.5" rx="8.9" ry="9.2"/>
			<ellipse class="st10" cx="348.8" cy="80.5" rx="8.9" ry="9.2"/>
			<ellipse class="st4" cx="390.8" cy="80.5" rx="8.9" ry="9.2"/>
			<ellipse class="st10" cx="390.8" cy="80.5" rx="8.9" ry="9.2"/>
			<ellipse class="st4" cx="432.8" cy="80.5" rx="8.9" ry="9.2"/>
			<ellipse class="st10" cx="432.8" cy="80.5" rx="8.9" ry="9.2"/>
			<ellipse class="st4" cx="474.8" cy="80.5" rx="8.9" ry="9.2"/>
			<ellipse class="st10" cx="474.8" cy="80.5" rx="8.9" ry="9.2"/>
			<ellipse class="st3" cx="516.8" cy="80.5" rx="8.9" ry="9.2"/>
			<ellipse class="st10" cx="516.8" cy="80.5" rx="8.9" ry="9.2"/>
			<ellipse class="st3" cx="558.7" cy="80.5" rx="8.9" ry="9.2"/>
			<ellipse class="st10" cx="558.7" cy="80.5" rx="8.9" ry="9.2"/>
			<ellipse class="st3" cx="600.7" cy="80.5" rx="8.9" ry="9.2"/>
			<ellipse class="st10" cx="600.7" cy="80.5" rx="8.9" ry="9.2"/>
			<ellipse class="st3" cx="642.7" cy="80.5" rx="8.9" ry="9.2"/>
			<ellipse class="st10" cx="642.7" cy="80.5" rx="8.9" ry="9.2"/>
			<ellipse class="st4" cx="684.7" cy="80.5" rx="8.9" ry="9.2"/>
			<ellipse class="st10" cx="684.7" cy="80.5" rx="8.9" ry="9.2"/>
			<ellipse class="st4" cx="726.7" cy="80.5" rx="8.9" ry="9.2"/>
			<ellipse class="st10" cx="726.7" cy="80.5" rx="8.9" ry="9.2"/>
			<ellipse class="st4" cx="768.7" cy="80.5" rx="8.9" ry="9.2"/>
			<ellipse class="st10" cx="768.7" cy="80.5" rx="8.9" ry="9.2"/>
			<ellipse class="st4" cx="810.7" cy="80.5" rx="8.9" ry="9.2"/>
			<ellipse class="st10" cx="810.7" cy="80.5" rx="8.9" ry="9.2"/>
			<ellipse class="st3" cx="894.5" cy="81.6" rx="8.9" ry="8.1"/>
		</g>
		<g>
			<g class="st2">
				<path class="st5" d="M6.5,89.7v-1.4h1.8V76.8H6.5v-1.4h5.9c2.7,0,5,1.2,5,4.2v0.1c0,3-2.3,4.2-5,4.2H10v4.5h2v1.4L6.5,89.7
					L6.5,89.7z M12.4,82.5c2,0,3.1-1,3.1-2.8v-0.1c0-2.1-1.2-2.8-3.1-2.8H10v5.7L12.4,82.5L12.4,82.5z"/>
			</g>
			<g class="st2">
				<path class="st5" d="M84.8,89.7v-1.4h1.8V76.8h-1.8v-1.4h5.9c2.7,0,5,1.2,5,4.2v0.1c0,3-2.3,4.2-5,4.2h-2.4v4.5h2v1.4L84.8,89.7
					L84.8,89.7z M90.7,82.5c2,0,3.1-1,3.1-2.8v-0.1c0-2.1-1.2-2.8-3.1-2.8h-2.4v5.7L90.7,82.5L90.7,82.5z"/>
			</g>
			<g class="st2">
				<path class="st5" d="M21.6,89.9c-1.9,0-3.4-0.9-3.4-3.1c0-2.4,2.5-3.2,5.2-3.2h1.5v-0.8c0-1.8-0.7-2.4-2.2-2.4
					c-1.4,0-2.2,0.5-2.3,1.9h-1.7c0.2-2.5,2.1-3.3,4.1-3.3s3.8,0.7,3.8,3.7v5.6H28v1.3h-3.1v-1.4C24.2,89.3,23.1,89.9,21.6,89.9z
					 M24.9,86v-1.3h-1.4c-2.1,0-3.6,0.5-3.6,2.1c0,0.9,0.5,1.8,1.9,1.8C23.5,88.6,24.9,87.7,24.9,86z"/>
			</g>
			<g class="st2">
				<path class="st5" d="M29,89.7v-1.3h1.5v-7.8H29v-1.4h3.2v2c0.5-1.1,1.6-2.2,3.8-2.2v1.6c-2.3,0-3.8,0.7-3.8,3.3v4.4h1.6v1.3
					L29,89.7L29,89.7z"/>
			</g>
			<g class="st2">
				<path class="st5" d="M38.6,87.1v-6.4h-1.5v-1.4h1.5v-2.4h1.7v2.4H43v1.4h-2.7V87c0,1,0.5,1.5,1.5,1.5c0.4,0,0.9-0.1,1.4-0.2v1.4
					c-0.5,0.1-0.9,0.2-1.5,0.2C39.5,89.8,38.6,88.7,38.6,87.1z"/>
				<path class="st5" d="M44.5,89.7v-1.3H46v-7.8h-1.5v-1.4h3.2v9.2h1.5v1.3C49.2,89.7,44.5,89.7,44.5,89.7z M45.5,75.9
					c0-0.6,0.5-1.1,1.1-1.1s1.1,0.5,1.1,1.1S47.2,77,46.6,77S45.5,76.6,45.5,75.9z"/>
			</g>
			<g class="st2">
				<path class="st5" d="M59.5,89.9c-2.7,0-4.7-1.9-4.7-5.2v-0.2c0-3.2,2-5.5,4.9-5.5c1.7,0,2.8,0.8,3.4,1.9v-5.3h-1.6v-1.4h3.2
					v14.2h1.5v1.3h-3.1v-1.8C62.5,88.9,61,89.9,59.5,89.9z M63.2,84.5v-0.2c0-2.7-1.3-4-3.3-4c-2.1,0-3.3,1.5-3.3,4.1v0.2
					c0,2.7,1.4,4,3.2,4C61.6,88.6,63.2,87.3,63.2,84.5z"/>
			</g>
			<g class="st2">
				<path class="st5" d="M72.1,89.9c-2.1,0-3.6-1.1-3.6-4.1v-5.1H67v-1.4h3.1v6.6c0,1.8,0.8,2.6,2.4,2.6c1.4,0,2.8-1,2.8-2.9v-5
					h-1.5v-1.4H77v9.2h1.5v1.3h-3.1v-1.8C74.8,88.9,73.7,89.9,72.1,89.9z"/>
			</g>
			<g class="st2">
				<path class="st5" d="M96.8,89.7v-1.3h1.5v-7.8h-1.5v-1.4h3.2v2c0.5-1.1,1.6-2.2,3.8-2.2v1.6c-2.3,0-3.8,0.7-3.8,3.3v4.4h1.6v1.3
					L96.8,89.7L96.8,89.7z"/>
			</g>
			<g class="st2">
				<path class="st5" d="M104.7,84.6v-0.2c0-3.2,2-5.4,4.9-5.4c2.4,0,4.7,1.5,4.7,5.2v0.5h-7.9c0.1,2.4,1.2,3.7,3.4,3.7
					c1.6,0,2.6-0.6,2.8-1.8h1.7c-0.4,2.1-2.1,3.2-4.5,3.2C106.8,89.9,104.7,87.8,104.7,84.6z M112.6,83.5c-0.2-2.2-1.3-3-3-3
					s-2.8,1.2-3.1,3H112.6z M110.1,74.5h2.1l-2.1,2.9h-1.2L110.1,74.5z"/>
			</g>
			<g class="st2">
				<path class="st5" d="M117.2,88.4v1.3h-1.4v-3.5h1.4c0.2,1.2,1.2,2.3,2.8,2.3c1.4,0,2.1-0.6,2.1-1.7s-0.8-1.5-2.5-1.8
					c-2.7-0.5-3.6-1.5-3.6-3.2c0-1.8,1.5-2.8,3.3-2.8c1.5,0,2.3,0.5,2.6,1.3v-1.1h1.4v3H122c-0.2-1.2-1.2-1.9-2.5-1.9
					c-1.2,0-1.9,0.5-1.9,1.4s0.5,1.4,2.4,1.8c2.1,0.4,3.7,1,3.7,3.2c0,1.9-1.3,3.1-3.8,3.1C118.3,89.9,117.5,89.1,117.2,88.4z"/>
				<path class="st5" d="M125.2,89.7v-1.3h1.5v-7.8h-1.5v-1.4h3.2v9.2h1.5v1.3C129.9,89.7,125.2,89.7,125.2,89.7z M126.2,75.9
					c0-0.6,0.5-1.1,1.1-1.1s1.1,0.5,1.1,1.1s-0.5,1.1-1.1,1.1S126.2,76.6,126.2,75.9z"/>
			</g>
			<g class="st2">
				<path class="st5" d="M135.7,89.9c-2.7,0-4.7-1.9-4.7-5.2v-0.2c0-3.2,2-5.5,4.9-5.5c1.7,0,2.8,0.8,3.4,1.9v-5.3h-1.6v-1.4h3.2
					v14.2h1.5v1.3h-3.1v-1.8C138.7,88.9,137.2,89.9,135.7,89.9z M139.4,84.5v-0.2c0-2.7-1.3-4-3.3-4c-2.1,0-3.3,1.5-3.3,4.1v0.2
					c0,2.7,1.4,4,3.2,4C137.8,88.6,139.4,87.3,139.4,84.5z"/>
			</g>
			<g class="st2">
				<path class="st5" d="M143.5,84.6v-0.2c0-3.2,2-5.4,4.9-5.4c2.4,0,4.7,1.5,4.7,5.2v0.5h-7.9c0.1,2.4,1.2,3.7,3.4,3.7
					c1.6,0,2.6-0.6,2.8-1.8h1.7c-0.4,2.1-2.1,3.2-4.5,3.2C145.6,89.9,143.5,87.8,143.5,84.6z M151.4,83.5c-0.2-2.2-1.3-3-3-3
					s-2.8,1.2-3.1,3H151.4z"/>
			</g>
			<g class="st2">
				<path class="st5" d="M154.5,89.7v-1.3h1.5v-7.8h-1.5v-1.4h3.2V81c0.5-1,1.6-1.9,3.3-1.9c2.1,0,3.6,1.1,3.6,4.1v5.2h1.5v1.3h-4.6
					v-1.3h1.5v-5.3c0-1.8-0.8-2.6-2.4-2.6c-1.5,0-2.8,1-2.8,2.8v5.1h1.5v1.3H154.5L154.5,89.7z"/>
			</g>
			<g class="st2">
				<path class="st5" d="M168.1,87.1v-6.4h-1.5v-1.4h1.5v-2.4h1.7v2.4h2.7v1.4h-2.7V87c0,1,0.5,1.5,1.5,1.5c0.4,0,0.9-0.1,1.4-0.2
					v1.4c-0.5,0.1-0.9,0.2-1.5,0.2C169,89.8,168.1,88.7,168.1,87.1z"/>
			</g>
		</g>
	</g>
</g>
<g id="Mode_Isolation_1_">
	<g>
		<line class="st11" x1="684.7" y1="248.7" x2="684.7" y2="80.5"/>
		<line class="st0" x1="600.7" y1="248.7" x2="600.7" y2="80.5"/>
		<line class="st0" x1="558.7" y1="248.7" x2="558.7" y2="80.5"/>
		<line class="st11" x1="348.8" y1="248.7" x2="348.8" y2="80.5"/>
	</g>
	<rect x="529.6" y="107.5" class="st1" width="87.3" height="23.4"/>
	<g class="st2">
		<path class="st3" d="M538.9,127.3c-1.7,0-2.8-0.4-3.6-1.2c-0.7-0.8-1.1-2.1-1.1-3.9v-6.7c0-1.6,0.4-2.8,1.1-3.6s2-1.2,3.7-1.2
			c3.2,0,4.8,1.4,4.8,4.3v2.3h-2.5v-2.1c0-1.4-0.8-2.2-2.4-2.2c-0.8,0-1.4,0.2-1.8,0.6c-0.4,0.4-0.5,1.2-0.5,2.2v6
			c0,1,0.2,1.8,0.5,2.2s1,0.6,1.8,0.6c0.3,0,0.5,0,0.8,0c0.2,0,0.4-0.1,0.6-0.2s0.4-0.2,0.5-0.4c0.1-0.2,0.2-0.4,0.3-0.6
			c0.1-0.3,0.1-0.6,0.1-0.9v-1.9h-2.4v-2.1h4.9v8.5h-1l-0.5-2.2c-0.2,0.8-0.6,1.3-1.2,1.7S540,127.3,538.9,127.3z"/>
	</g>
	<g class="st2">
		<path class="st3" d="M548.1,127.2h-2.3v-2.3h2.3V127.2z"/>
		<path class="st3" d="M550.4,127.2l-2.3-16.3h2.4l1.5,11.4l2-11.4h2.3l2,11.4l1.5-11.4h2.4l-2.3,16.3H557l-1.9-10.7l-1.9,10.7
			H550.4z"/>
	</g>
	<g class="st2">
		<path class="st3" d="M566.1,127.2h-2.3v-2.3h2.3V127.2z"/>
	</g>
	<g class="st2">
		<path class="st3" d="M572.3,127.2v-16.3h4.2c1.3,0,2.2,0.2,2.7,0.7s0.8,1.2,0.8,2.3v2.3c0,0.7-0.2,1.2-0.6,1.5s-1,0.6-1.8,0.6
			c1.1,0,1.8,0.3,2.3,0.7s0.7,1.1,0.7,1.9v2.8c0,1.2-0.3,2-1,2.5s-1.7,0.8-3.1,0.8h-4.2L572.3,127.2L572.3,127.2z M576.4,113.1h-1.6
			v4.5h1.6c0.4,0,0.7-0.1,0.9-0.3s0.3-0.6,0.3-1.2v-1.6c0-0.5-0.1-0.9-0.3-1.1S576.8,113.1,576.4,113.1z M576.5,119.7h-1.8v5.2h1.8
			c0.6,0,1-0.1,1.3-0.4s0.4-0.7,0.4-1.3v-2c0-0.6-0.1-1-0.4-1.3S577.1,119.7,576.5,119.7z"/>
	</g>
	<g class="st2">
		<path class="st3" d="M586.8,127.3c-1.6,0-2.8-0.4-3.4-1.1c-0.7-0.7-1-2-1-3.9v-11.4h2.5V122c0,1.1,0.2,1.8,0.5,2.3
			c0.3,0.4,0.8,0.6,1.5,0.6s1.2-0.2,1.5-0.6s0.5-1.2,0.5-2.3v-11.1h2.5v11.4c0,1.8-0.3,3.1-1,3.9
			C589.6,126.9,588.4,127.3,586.8,127.3z"/>
		<path class="st3" d="M602.3,121.6v2c0,1.3-0.4,2.2-1.1,2.8c-0.7,0.6-1.9,0.9-3.5,0.9s-2.8-0.3-3.5-1s-1.1-1.7-1.1-3.2v-2h2.5v1.7
			c0,0.8,0.2,1.3,0.5,1.6s0.9,0.5,1.6,0.5c0.7,0,1.3-0.1,1.6-0.3s0.5-0.6,0.5-1.2v-1.7c0-0.5-0.2-0.9-0.5-1.1s-1-0.4-2-0.6
			c-0.8-0.2-1.5-0.3-2.1-0.5c-0.5-0.2-0.9-0.4-1.3-0.7s-0.6-0.6-0.7-1c-0.1-0.4-0.2-0.9-0.2-1.4v-2.1c0-1.2,0.4-2.2,1.1-2.7
			c0.7-0.6,1.9-0.9,3.5-0.9s2.8,0.3,3.5,1s1.1,1.7,1.1,3v2h-2.5v-1.8c0-0.7-0.2-1.1-0.5-1.5s-0.9-0.5-1.6-0.5
			c-0.8,0-1.3,0.1-1.6,0.4c-0.3,0.2-0.5,0.6-0.5,1.2v1.8c0,0.3,0.1,0.6,0.2,0.8c0.1,0.2,0.4,0.3,0.8,0.5c0.4,0.1,0.9,0.3,1.7,0.4
			c0.8,0.2,1.5,0.3,2,0.5s0.9,0.4,1.2,0.7s0.6,0.6,0.7,1S602.3,121,602.3,121.6z"/>
		<path class="st3" d="M610.6,127.2V120h-3.9v7.2h-2.5v-16.3h2.5v6.6h3.9v-6.6h2.5v16.3H610.6z"/>
	</g>
</g>
</svg>
