<?xml version="1.0" encoding="utf-8"?>
<!-- Generator: Adobe Illustrator 24.0.1, SVG Export Plug-In . SVG Version: 6.00 Build 0)  -->
<svg version="1.1" id="Calque_1" xmlns="http://www.w3.org/2000/svg" xmlns:xlink="http://www.w3.org/1999/xlink" x="0px" y="0px"
	 viewBox="0 0 916 276.3" style="enable-background:new 0 0 916 276.3;" xml:space="preserve">
<style type="text/css">
	.st0{enable-background:new    ;}
	.st1{fill:#1D1D1B;}
	.st2{fill:#828282;}
	.st3{fill:#DBF0FD;}
	.st4{fill:#FCDFD2;}
	.st5{fill:#E30613;stroke:#FFFFFF;stroke-width:2.24;}
	.st6{fill:#009FE3;stroke:#FFFFFF;stroke-width:2.24;}
	.st7{fill:none;stroke:#1D1D1B;stroke-width:1.49;}
	.st8{fill:none;stroke:#1D1D1B;stroke-width:2.98;}
	.st9{fill:#E30613;}
	.st10{fill:none;stroke:#FFFFFF;stroke-width:1.59;}
	.st11{fill:#009FE3;}
	.st12{fill:none;stroke:#828282;stroke-width:2.98;}
</style>
<title>desktop_controle</title>
<g id="charte">
	<g class="st0">
		<path class="st1" d="M94.1,106.5c-1.9,0-3.5-0.9-3.5-3.1c0-2.5,2.2-3.4,5.4-3.4h1.2v-0.4c0-1.3-0.4-1.9-1.7-1.9
			c-1.1,0-1.6,0.5-1.7,1.5H91c0.2-2.5,2.1-3.6,4.6-3.6c2.5,0,4.4,1,4.4,3.9v4.8h1.1v2.1h-3.9v-1.4C96.6,105.9,95.7,106.5,94.1,106.5
			z M97.1,102.6v-0.8H96c-1.7,0-2.6,0.4-2.6,1.5c0,0.7,0.4,1.2,1.5,1.2C96.2,104.5,97.1,103.8,97.1,102.6z"/>
	</g>
	<g class="st0">
		<path class="st1" d="M106.1,106.6c-2,0-3.4-1.2-3.4-4V98h-1.1v-2.1h4v6.3c0,1.4,0.6,2.1,1.8,2.1c1.1,0,2.1-0.8,2.1-2.3V98h-1.1
			v-2.1h4v8.4h1.1v2.1h-4v-1.7C108.9,105.6,107.8,106.6,106.1,106.6z"/>
		<path class="st1" d="M121.1,104.9v1.4h-2.5v-4.5h2.7c0.3,1.3,1.3,2.4,3,2.4c1.3,0,2.2-0.8,2.2-1.8c0-1.1-0.6-1.8-2.6-2
			c-3.5-0.5-5.2-1.9-5.2-4.4c0-2.4,1.8-4.1,4.5-4.1c1.8,0,2.8,0.7,3.3,1.4V92h2.4v4.1h-2.6c-0.3-1.2-1.1-2-2.5-2c-1.3,0-2,0.6-2,1.6
			c0,1,0.6,1.5,2.7,1.9c3.3,0.5,5.1,1.5,5.1,4.6c0,2.5-1.8,4.4-5,4.4C123,106.5,121.7,105.9,121.1,104.9z"/>
		<path class="st1" d="M130.8,101.2V101c0-3.3,2.3-5.4,5.4-5.4c2.7,0,5.1,1.6,5.1,5.3v0.8h-7.5c0.1,1.8,1,2.7,2.6,2.7
			c1.3,0,2-0.6,2.2-1.5h2.7c-0.3,2.3-2.1,3.5-5,3.5C133.2,106.5,130.8,104.5,130.8,101.2z M138.5,99.9c-0.1-1.5-0.9-2.3-2.3-2.3
			c-1.3,0-2.2,0.9-2.4,2.3H138.5z M136.2,91.2h3l-2.1,3.2h-2.1L136.2,91.2z"/>
		<path class="st1" d="M142.4,106.3v-2.1h1.1V98h-1.2v-2.1h4v1.7c0.5-1,1.6-2,3.3-2c2,0,3.5,1.2,3.5,4v4.7h1.1v2.1h-5.2v-2.1h1.2
			V100c0-1.4-0.6-2-1.8-2c-1.2,0-2.1,0.8-2.1,2.3v4h1.2v2.1H142.4z"/>
	</g>
	<g class="st0">
		<path class="st1" d="M158.7,106.5c-1.9,0-3.5-0.9-3.5-3.1c0-2.5,2.2-3.4,5.4-3.4h1.2v-0.4c0-1.3-0.4-1.9-1.7-1.9
			c-1.1,0-1.6,0.5-1.7,1.5h-2.7c0.2-2.5,2.1-3.6,4.6-3.6c2.5,0,4.4,1,4.4,3.9v4.8h1.1v2.1h-3.9v-1.4
			C161.3,105.9,160.3,106.5,158.7,106.5z M161.8,102.6v-0.8h-1.1c-1.7,0-2.6,0.4-2.6,1.5c0,0.7,0.4,1.2,1.5,1.2
			C160.8,104.5,161.8,103.8,161.8,102.6z"/>
	</g>
	<g class="st0">
		<path class="st1" d="M167.4,103.2V98h-1.3v-2.1h1.3v-2.3h2.9v2.3h2.4V98h-2.4v5.1c0,0.8,0.4,1.2,1.3,1.2c0.4,0,0.8-0.1,1.2-0.2
			v2.2c-0.5,0.1-1.1,0.3-1.8,0.3C168.6,106.5,167.4,105.4,167.4,103.2z"/>
	</g>
	<g class="st0">
		<path class="st1" d="M46,144.9c-1.9,0-3.5-0.9-3.5-3.1c0-2.5,2.2-3.4,5.4-3.4h1.2V138c0-1.3-0.4-1.9-1.7-1.9
			c-1.1,0-1.6,0.5-1.7,1.5h-2.7c0.2-2.5,2.1-3.6,4.6-3.6c2.5,0,4.4,1,4.4,3.9v4.8H53v2.1h-3.9v-1.4C48.5,144.3,47.6,144.9,46,144.9z
			 M44.6,129.6h3l1.1,3.2h-2.1L44.6,129.6z M49.1,141v-0.8H48c-1.7,0-2.6,0.4-2.6,1.5c0,0.7,0.4,1.2,1.5,1.2
			C48.1,142.9,49.1,142.2,49.1,141z"/>
		<path class="st1" d="M57.8,144.7v-2.1h1.1v-11h-1.2v-2.1h4v13.1H63v2.1H57.8z"/>
		<path class="st1" d="M67.4,144.9c-1.9,0-3.5-0.9-3.5-3.1c0-2.5,2.2-3.4,5.4-3.4h1.2V138c0-1.3-0.4-1.9-1.7-1.9
			c-1.1,0-1.6,0.5-1.7,1.5h-2.7c0.2-2.5,2.1-3.6,4.6-3.6c2.5,0,4.4,1,4.4,3.9v4.8h1.1v2.1h-3.9v-1.4C69.9,144.3,69,144.9,67.4,144.9
			z M70.4,141v-0.8h-1.1c-1.7,0-2.6,0.4-2.6,1.5c0,0.7,0.4,1.2,1.5,1.2C69.5,142.9,70.4,142.2,70.4,141z"/>
		<path class="st1" d="M86.6,144.9c-4.7,0-7.2-2.9-7.2-7.3v-0.2c0-4.3,2.8-7.3,6.7-7.3c2.2,0,3.5,0.8,4.1,1.9v-1.7h2.5v5h-3
			c-0.4-1.7-1.4-2.6-3.2-2.6c-2.3,0-3.7,1.7-3.7,4.8v0.1c0,3,1.4,4.7,3.7,4.7c1.8,0,3-0.9,3.3-2.8H93
			C92.6,143.1,90.1,144.9,86.6,144.9z"/>
		<path class="st1" d="M94,144.7v-2.1h1.1v-11H94v-2.1h4v6.5c0.5-1,1.6-2,3.3-2c2,0,3.5,1.2,3.5,4v4.7h1.1v2.1h-5.1v-2.1h1.1v-4.3
			c0-1.4-0.6-2-1.8-2c-1.2,0-2.1,0.8-2.1,2.3v4h1.1v2.1H94z"/>
		<path class="st1" d="M110.4,144.9c-1.9,0-3.5-0.9-3.5-3.1c0-2.5,2.2-3.4,5.4-3.4h1.2V138c0-1.3-0.4-1.9-1.7-1.9
			c-1.1,0-1.6,0.5-1.7,1.5h-2.7c0.2-2.5,2.1-3.6,4.6-3.6c2.5,0,4.4,1,4.4,3.9v4.8h1.1v2.1h-3.9v-1.4
			C112.9,144.3,112,144.9,110.4,144.9z M113.5,141v-0.8h-1.1c-1.7,0-2.6,0.4-2.6,1.5c0,0.7,0.4,1.2,1.5,1.2
			C112.5,142.9,113.5,142.2,113.5,141z"/>
		<path class="st1" d="M118.2,144.7v-2.1h1.1v-6.3h-1.2v-2.1h4v1.7c0.5-1.1,1.6-2,3.1-2c1.3,0,2.4,0.6,2.9,2c0.8-1.4,2.1-2,3.4-2
			c1.9,0,3.4,1.2,3.4,4v4.6h1.1v2.1h-5.1v-2.1h1.1v-4.4c0-1.3-0.6-2-1.6-2c-1.1,0-2,0.8-2,2.2v4.2h1.1v2.1h-5.1v-2.1h1.1v-4.4
			c0-1.3-0.6-2-1.6-2c-1.1,0-1.9,0.8-1.9,2.2v4.2h1.1v2.1H118.2z"/>
		<path class="st1" d="M141,143v1.7h-4v-2.1h1.1v-11H137v-2.1h4v6.5c0.6-1.1,1.8-2,3.4-2c2.5,0,4.5,1.9,4.5,5.4v0.2
			c0,3.5-1.9,5.4-4.6,5.4C142.7,144.9,141.5,144.1,141,143z M146,139.5v-0.2c0-2.1-1-3.2-2.5-3.2c-1.5,0-2.6,1.1-2.6,3.2v0.2
			c0,2.1,1,3.1,2.6,3.1C145.1,142.7,146,141.6,146,139.5z"/>
	</g>
	<g class="st0">
		<path class="st1" d="M150,144.7v-2.1h1.1v-6.3H150v-2.1h4v2.1c0.6-1.4,1.7-2.3,3.6-2.3v2.7c-2.3-0.1-3.6,0.6-3.6,2.6v3.2h1.3v2.1
			H150z"/>
	</g>
	<g class="st0">
		<path class="st1" d="M158.4,139.6v-0.2c0-3.3,2.3-5.4,5.4-5.4c2.7,0,5.1,1.6,5.1,5.3v0.8h-7.5c0.1,1.8,1,2.7,2.6,2.7
			c1.3,0,2-0.6,2.2-1.5h2.7c-0.3,2.3-2.1,3.5-5,3.5C160.7,144.9,158.4,142.9,158.4,139.6z M166,138.3c-0.1-1.5-0.9-2.3-2.3-2.3
			c-1.3,0-2.2,0.9-2.4,2.3H166z"/>
	</g>
	<g class="st0">
		<path class="st1" d="M4.9,168.9c-2.5,0-4.5-1.8-4.5-5.3v-0.2c0-3.4,2-5.5,4.6-5.5c1.7,0,2.7,0.7,3.3,1.8v-4.2H7.1v-2.1h4.1v13.1
			h1.1v2.1h-4V167C7.7,168,6.5,168.9,4.9,168.9z M8.4,163.5v-0.2c0-2.1-0.9-3.2-2.5-3.2c-1.6,0-2.5,1.1-2.5,3.2v0.2
			c0,2.1,1,3.1,2.4,3.1C7.3,166.7,8.4,165.6,8.4,163.5z"/>
		<path class="st1" d="M13.1,163.6v-0.2c0-3.3,2.3-5.4,5.4-5.4c2.7,0,5.1,1.6,5.1,5.3v0.8h-7.5c0.1,1.8,1,2.7,2.6,2.7
			c1.3,0,2-0.6,2.2-1.5h2.7c-0.3,2.3-2.1,3.5-5,3.5C15.4,168.9,13.1,166.9,13.1,163.6z M20.8,162.3c-0.1-1.5-0.9-2.3-2.3-2.3
			c-1.3,0-2.2,0.9-2.4,2.3H20.8z"/>
	</g>
	<g class="st0">
		<path class="st1" d="M26.8,167.6v1.1h-2.1v-3.5h2.1c0.2,1,0.9,1.8,2.2,1.8c1.1,0,1.7-0.5,1.7-1.3c0-0.8-0.7-1.1-2.1-1.3
			c-2.8-0.4-3.8-1.5-3.8-3.3c0-2,1.5-3.2,3.6-3.2c1.7,0,2.4,0.6,2.7,1.2v-1h2v3.1H31c-0.2-0.9-1-1.5-2.1-1.5c-0.9,0-1.5,0.4-1.5,1.1
			c0,0.7,0.5,1,2,1.3c2.6,0.4,4,1.1,4,3.3c0,2.1-1.4,3.4-3.9,3.4C27.8,168.9,27.1,168.1,26.8,167.6z"/>
	</g>
	<g class="st0">
		<path class="st1" d="M38.5,168.7v-2.1h1.1v-6.3h-1.2v-2.1h4v2.1c0.6-1.4,1.7-2.3,3.6-2.3v2.7c-2.3-0.1-3.6,0.6-3.6,2.6v3.2h1.3
			v2.1H38.5z"/>
	</g>
	<g class="st0">
		<path class="st1" d="M46.9,163.6v-0.2c0-3.3,2.3-5.4,5.4-5.4c2.7,0,5.1,1.6,5.1,5.3v0.8h-7.5c0.1,1.8,1,2.7,2.6,2.7
			c1.3,0,2-0.6,2.2-1.5h2.7c-0.3,2.3-2.1,3.5-5,3.5C49.2,168.9,46.9,166.9,46.9,163.6z M54.5,162.3c-0.1-1.5-0.9-2.3-2.3-2.3
			c-1.3,0-2.2,0.9-2.4,2.3H54.5z"/>
	</g>
	<g class="st0">
		<path class="st1" d="M58.3,172.3v-2.1h1.1v-9.9h-1.2v-2.1h4v1.7c0.6-1.1,1.8-1.9,3.4-1.9c2.5,0,4.5,1.9,4.5,5.4v0.2
			c0,3.5-1.9,5.4-4.6,5.4c-1.6,0-2.8-0.8-3.3-1.8v3.2h1.3v2.1H58.3z M67.3,163.5v-0.2c0-2.1-1-3.2-2.5-3.2c-1.5,0-2.6,1.1-2.6,3.2
			v0.2c0,2.1,1,3.1,2.6,3.1C66.4,166.7,67.3,165.6,67.3,163.5z"/>
	</g>
	<g class="st0">
		<path class="st1" d="M71.3,168.7v-2.1h1.1v-6.3h-1.2v-2.1h4v2.1c0.6-1.4,1.7-2.3,3.6-2.3v2.7c-2.3-0.1-3.6,0.6-3.6,2.6v3.2h1.3
			v2.1H71.3z"/>
	</g>
	<g class="st0">
		<path class="st1" d="M79.6,163.6v-0.2c0-3.3,2.3-5.4,5.4-5.4c2.7,0,5.1,1.6,5.1,5.3v0.8h-7.5c0.1,1.8,1,2.7,2.6,2.7
			c1.3,0,2-0.6,2.2-1.5h2.7c-0.3,2.3-2.1,3.5-5,3.5C81.9,168.9,79.6,166.9,79.6,163.6z M87.3,162.3c-0.1-1.5-0.9-2.3-2.3-2.3
			c-1.3,0-2.2,0.9-2.4,2.3H87.3z M85,153.6h3l-2.1,3.2h-2.1L85,153.6z"/>
		<path class="st1" d="M93.3,167.6v1.1h-2.1v-3.5h2.1c0.2,1,0.9,1.8,2.2,1.8c1.1,0,1.7-0.5,1.7-1.3c0-0.8-0.7-1.1-2.1-1.3
			c-2.8-0.4-3.8-1.5-3.8-3.3c0-2,1.5-3.2,3.6-3.2c1.7,0,2.4,0.6,2.7,1.2v-1h2v3.1h-2.1c-0.2-0.9-1-1.5-2.1-1.5
			c-0.9,0-1.5,0.4-1.5,1.1c0,0.7,0.5,1,2,1.3c2.6,0.4,4,1.1,4,3.3c0,2.1-1.4,3.4-3.9,3.4C94.3,168.9,93.6,168.1,93.3,167.6z"/>
	</g>
	<g class="st0">
		<path class="st1" d="M101,163.6v-0.2c0-3.3,2.3-5.4,5.4-5.4c2.7,0,5.1,1.6,5.1,5.3v0.8H104c0.1,1.8,1,2.7,2.6,2.7
			c1.3,0,2-0.6,2.2-1.5h2.7c-0.3,2.3-2.1,3.5-5,3.5C103.3,168.9,101,166.9,101,163.6z M108.7,162.3c-0.1-1.5-0.9-2.3-2.3-2.3
			c-1.3,0-2.2,0.9-2.4,2.3H108.7z"/>
	</g>
	<g class="st0">
		<path class="st1" d="M112.5,168.7v-2.1h1.1v-6.3h-1.2v-2.1h4v1.7c0.5-1,1.6-2,3.3-2c2,0,3.5,1.2,3.5,4v4.7h1.1v2.1h-5.2v-2.1h1.2
			v-4.3c0-1.4-0.6-2-1.8-2c-1.2,0-2.1,0.8-2.1,2.3v4h1.2v2.1H112.5z"/>
	</g>
	<g class="st0">
		<path class="st1" d="M126.2,165.6v-5.2h-1.3v-2.1h1.3V156h2.9v2.3h2.4v2.1h-2.4v5.1c0,0.8,0.4,1.2,1.3,1.2c0.4,0,0.8-0.1,1.2-0.2
			v2.2c-0.5,0.1-1.1,0.3-1.8,0.3C127.3,168.9,126.2,167.8,126.2,165.6z"/>
	</g>
	<g class="st0">
		<path class="st1" d="M136,168.9c-1.9,0-3.5-0.9-3.5-3.1c0-2.5,2.2-3.4,5.4-3.4h1.2V162c0-1.3-0.4-1.9-1.7-1.9
			c-1.1,0-1.6,0.5-1.7,1.5h-2.7c0.2-2.5,2.1-3.6,4.6-3.6c2.5,0,4.4,1,4.4,3.9v4.8h1.1v2.1h-3.9v-1.4
			C138.5,168.3,137.6,168.9,136,168.9z M139,165v-0.8h-1.1c-1.7,0-2.6,0.4-2.6,1.5c0,0.7,0.4,1.2,1.5,1.2
			C138.1,166.9,139,166.2,139,165z"/>
	</g>
	<g class="st0">
		<path class="st1" d="M143.8,168.7v-2.1h1.1v-6.3h-1.2v-2.1h4v1.7c0.5-1,1.6-2,3.3-2c2,0,3.5,1.2,3.5,4v4.7h1.1v2.1h-5.2v-2.1h1.2
			v-4.3c0-1.4-0.6-2-1.8-2c-1.2,0-2.1,0.8-2.1,2.3v4h1.2v2.1H143.8z"/>
	</g>
	<g class="st0">
		<path class="st1" d="M157.4,165.6v-5.2h-1.3v-2.1h1.3V156h2.9v2.3h2.4v2.1h-2.4v5.1c0,0.8,0.4,1.2,1.3,1.2c0.4,0,0.8-0.1,1.2-0.2
			v2.2c-0.5,0.1-1.1,0.3-1.8,0.3C158.6,168.9,157.4,167.8,157.4,165.6z"/>
		<path class="st1" d="M166.1,167.6v1.1H164v-3.5h2.1c0.2,1,0.9,1.8,2.2,1.8c1.1,0,1.7-0.5,1.7-1.3c0-0.8-0.7-1.1-2.1-1.3
			c-2.8-0.4-3.8-1.5-3.8-3.3c0-2,1.5-3.2,3.6-3.2c1.7,0,2.4,0.6,2.7,1.2v-1h2v3.1h-2.1c-0.2-0.9-1-1.5-2.1-1.5
			c-0.9,0-1.5,0.4-1.5,1.1c0,0.7,0.5,1,2,1.3c2.6,0.4,4,1.1,4,3.3c0,2.1-1.4,3.4-3.9,3.4C167.1,168.9,166.4,168.1,166.1,167.6z"/>
	</g>
	<g class="st0">
		<path class="st1" d="M6.5,224.9v-1.4h1.8V212H6.5v-1.4h5.9c2.7,0,5,1.2,5,4.2v0.1c0,3-2.3,4.2-5,4.2H10v4.5h2v1.4H6.5z
			 M12.4,217.7c2,0,3.1-1,3.1-2.8v-0.1c0-2.1-1.2-2.8-3.1-2.8H10v5.7H12.4z"/>
	</g>
	<g class="st0">
		<path class="st1" d="M21.6,225.1c-1.9,0-3.4-0.9-3.4-3.1c0-2.4,2.5-3.2,5.2-3.2h1.5V218c0-1.8-0.7-2.4-2.2-2.4
			c-1.4,0-2.2,0.5-2.3,1.9h-1.7c0.2-2.5,2.1-3.3,4.1-3.3c2,0,3.8,0.7,3.8,3.7v5.6h1.4v1.3h-3.1v-1.4
			C24.2,224.5,23.1,225.1,21.6,225.1z M24.9,221.2v-1.3h-1.4c-2.1,0-3.6,0.5-3.6,2.1c0,0.9,0.5,1.8,1.9,1.8
			C23.5,223.8,24.9,222.9,24.9,221.2z"/>
	</g>
	<g class="st0">
		<path class="st1" d="M29,224.9v-1.3h1.5v-7.8H29v-1.4h3.2v2c0.5-1.1,1.6-2.2,3.8-2.2v1.6c-2.3,0-3.8,0.7-3.8,3.3v4.4h1.6v1.3H29z"
			/>
	</g>
	<g class="st0">
		<path class="st1" d="M38.6,222.3v-6.4h-1.5v-1.4h1.5v-2.4h1.7v2.4h2.7v1.4h-2.7v6.3c0,1,0.5,1.5,1.5,1.5c0.4,0,0.9-0.1,1.4-0.2
			v1.4c-0.5,0.1-0.9,0.2-1.5,0.2C39.5,225,38.6,223.9,38.6,222.3z"/>
		<path class="st1" d="M44.5,224.9v-1.3h1.5v-7.8h-1.5v-1.4h3.2v9.2h1.5v1.3H44.5z M45.5,211.1c0-0.6,0.5-1.1,1.1-1.1
			s1.1,0.5,1.1,1.1c0,0.6-0.5,1.1-1.1,1.1S45.5,211.8,45.5,211.1z"/>
	</g>
	<g class="st0">
		<path class="st1" d="M59.5,225.1c-2.7,0-4.7-1.9-4.7-5.2v-0.2c0-3.2,2-5.5,4.9-5.5c1.7,0,2.8,0.8,3.4,1.9v-5.3h-1.6v-1.4h3.2v14.2
			h1.5v1.3h-3.1v-1.8C62.5,224.1,61,225.1,59.5,225.1z M63.2,219.7v-0.2c0-2.7-1.3-4-3.3-4c-2.1,0-3.3,1.5-3.3,4.1v0.2
			c0,2.7,1.4,4,3.2,4C61.6,223.8,63.2,222.5,63.2,219.7z"/>
	</g>
	<g class="st0">
		<path class="st1" d="M72.1,225.1c-2.1,0-3.6-1.1-3.6-4.1v-5.1H67v-1.4h3.1v6.6c0,1.8,0.8,2.6,2.4,2.6c1.4,0,2.8-1,2.8-2.9v-5h-1.5
			v-1.4H77v9.2h1.5v1.3h-3.1v-1.8C74.8,224.1,73.7,225.1,72.1,225.1z"/>
		<path class="st1" d="M84,228.5v-1.3h1.5v-11.4H84v-1.4h3.2v1.8c0.6-1.1,2-2,3.5-2c2.7,0,4.8,2,4.8,5.3v0.2c0,3.2-1.9,5.4-4.8,5.4
			c-1.7,0-2.9-0.9-3.5-1.9v4.1h1.6v1.3H84z M93.7,219.8v-0.2c0-2.6-1.5-4-3.2-4c-1.9,0-3.4,1.3-3.4,4v0.2c0,2.6,1.4,3.9,3.4,3.9
			C92.6,223.7,93.7,222.3,93.7,219.8z"/>
	</g>
	<g class="st0">
		<path class="st1" d="M96.8,224.9v-1.3h1.5v-7.8h-1.5v-1.4h3.2v2c0.5-1.1,1.6-2.2,3.8-2.2v1.6c-2.3,0-3.8,0.7-3.8,3.3v4.4h1.6v1.3
			H96.8z"/>
	</g>
	<g class="st0">
		<path class="st1" d="M104.7,219.8v-0.2c0-3.2,2-5.4,4.9-5.4c2.4,0,4.7,1.5,4.7,5.2v0.5h-7.9c0.1,2.4,1.2,3.7,3.4,3.7
			c1.6,0,2.6-0.6,2.8-1.8h1.7c-0.4,2.1-2.1,3.2-4.5,3.2C106.8,225.1,104.7,223,104.7,219.8z M112.6,218.7c-0.2-2.2-1.3-3-3-3
			c-1.7,0-2.8,1.2-3.1,3H112.6z M110.1,209.7h2.1l-2.1,2.9h-1.2L110.1,209.7z"/>
	</g>
	<g class="st0">
		<path class="st1" d="M117.2,223.6v1.3h-1.4v-3.5h1.4c0.2,1.2,1.2,2.3,2.8,2.3c1.4,0,2.1-0.6,2.1-1.7c0-1.1-0.8-1.5-2.5-1.8
			c-2.7-0.5-3.6-1.5-3.6-3.2c0-1.8,1.5-2.8,3.3-2.8c1.5,0,2.3,0.5,2.6,1.3v-1.1h1.4v3H122c-0.2-1.2-1.2-1.9-2.5-1.9
			c-1.2,0-1.9,0.5-1.9,1.4c0,0.9,0.5,1.4,2.4,1.8c2.1,0.4,3.7,1,3.7,3.2c0,1.9-1.3,3.1-3.8,3.1C118.3,225.1,117.5,224.3,117.2,223.6
			z"/>
		<path class="st1" d="M125.2,224.9v-1.3h1.5v-7.8h-1.5v-1.4h3.2v9.2h1.5v1.3H125.2z M126.2,211.1c0-0.6,0.5-1.1,1.1-1.1
			s1.1,0.5,1.1,1.1c0,0.6-0.5,1.1-1.1,1.1S126.2,211.8,126.2,211.1z"/>
	</g>
	<g class="st0">
		<path class="st1" d="M135.7,225.1c-2.7,0-4.7-1.9-4.7-5.2v-0.2c0-3.2,2-5.5,4.9-5.5c1.7,0,2.8,0.8,3.4,1.9v-5.3h-1.6v-1.4h3.2
			v14.2h1.5v1.3h-3.1v-1.8C138.7,224.1,137.2,225.1,135.7,225.1z M139.4,219.7v-0.2c0-2.7-1.3-4-3.3-4c-2.1,0-3.3,1.5-3.3,4.1v0.2
			c0,2.7,1.4,4,3.2,4C137.8,223.8,139.4,222.5,139.4,219.7z"/>
	</g>
	<g class="st0">
		<path class="st1" d="M143.5,219.8v-0.2c0-3.2,2-5.4,4.9-5.4c2.4,0,4.7,1.5,4.7,5.2v0.5h-7.9c0.1,2.4,1.2,3.7,3.4,3.7
			c1.6,0,2.6-0.6,2.8-1.8h1.7c-0.4,2.1-2.1,3.2-4.5,3.2C145.6,225.1,143.5,223,143.5,219.8z M151.4,218.7c-0.2-2.2-1.3-3-3-3
			c-1.7,0-2.8,1.2-3.1,3H151.4z"/>
	</g>
	<g class="st0">
		<path class="st1" d="M154.5,224.9v-1.3h1.5v-7.8h-1.5v-1.4h3.2v1.8c0.5-1,1.6-1.9,3.3-1.9c2.1,0,3.6,1.1,3.6,4.1v5.2h1.5v1.3h-4.6
			v-1.3h1.5v-5.3c0-1.8-0.8-2.6-2.4-2.6c-1.5,0-2.8,1-2.8,2.8v5.1h1.5v1.3H154.5z"/>
	</g>
	<g class="st0">
		<path class="st1" d="M168.1,222.3v-6.4h-1.5v-1.4h1.5v-2.4h1.7v2.4h2.7v1.4h-2.7v6.3c0,1,0.5,1.5,1.5,1.5c0.4,0,0.9-0.1,1.4-0.2
			v1.4c-0.5,0.1-0.9,0.2-1.5,0.2C169,225,168.1,223.9,168.1,222.3z"/>
	</g>
	<g class="st0">
		<path class="st1" d="M5.4,10.6H4.1v5H1.4V0.9h4c1.4,0,2.5,0.3,3,0.8C9,2.3,9.3,3.3,9.3,4.6v2.6c0,1.3-0.3,2.1-0.9,2.7
			S6.9,10.6,5.4,10.6z M5.4,3.4H4.1v4.9h1.3c0.5,0,0.8-0.1,1-0.3s0.3-0.6,0.3-1.2V5c0-0.6-0.1-1.1-0.3-1.3S5.9,3.4,5.4,3.4z"/>
	</g>
	<g class="st0">
		<path class="st1" d="M15.7,15.6L15.3,12H13l-0.5,3.6H9.9L12,0.9h4.2l2.1,14.7H15.7z M15,9.9l-0.9-6.4l-0.9,6.4H15z"/>
	</g>
	<g class="st0">
		<path class="st1" d="M22.6,15.6h-2.7V0.9h3.9c0.7,0,1.4,0.1,1.8,0.2s0.8,0.3,1.1,0.6s0.5,0.6,0.6,1.1s0.2,1,0.2,1.7v2
			c0,0.7-0.1,1.3-0.3,1.7s-0.5,0.8-1,1.1l1.5,6.3H25l-1.3-5.9h-1.1V15.6z M23.9,3.4h-1.2v4h1.2c0.4,0,0.7-0.1,0.8-0.3
			s0.2-0.5,0.2-1.1V4.7c0-0.5-0.1-0.9-0.2-1.1S24.3,3.4,23.9,3.4z"/>
	</g>
	<g class="st0">
		<path class="st1" d="M36.3,3.6H34v12h-2.7v-12h-2.3V0.9h7.3V3.6z"/>
		<path class="st1" d="M38.1,15.6V0.9h2.7v14.7H38.1z"/>
	</g>
	<g class="st0">
		<path class="st1" d="M6.3,40.6L4,30.4v10.2H1.4V25.9h3.8l1.9,8l2-8h3.8v14.7h-2.6V30.4L8,40.6H6.3z"/>
		<path class="st1" d="M20.3,40.6L19.9,37h-2.3l-0.5,3.6h-2.6l2.1-14.7h4.2l2.1,14.7H20.3z M19.6,34.9l-0.9-6.4l-0.9,6.4H19.6z"/>
		<path class="st1" d="M24.4,40.6V38h0.7c1,0,1.5-0.6,1.5-1.7V25.9h2.7v10.9c0,0.7-0.1,1.3-0.3,1.8c-0.2,0.5-0.4,0.9-0.7,1.2
			c-0.3,0.3-0.7,0.5-1.1,0.6c-0.4,0.1-0.9,0.2-1.4,0.2H24.4z"/>
		<path class="st1" d="M39.7,36.2c0,1.5-0.4,2.7-1.1,3.4s-1.8,1.1-3.3,1.1c-1.5,0-2.6-0.4-3.3-1.1s-1-1.9-1-3.4v-5.9
			c0-1.5,0.3-2.7,1-3.4s1.8-1.1,3.3-1.1s2.6,0.4,3.3,1.1c0.7,0.7,1,1.9,1,3.4V36.2z M37,30.6c0-0.9-0.1-1.5-0.4-1.8
			c-0.3-0.3-0.7-0.5-1.3-0.5c-0.6,0-1,0.2-1.3,0.5c-0.3,0.3-0.4,0.9-0.4,1.8v5.3c0,0.9,0.1,1.5,0.4,1.8s0.7,0.5,1.3,0.5
			c0.6,0,1-0.2,1.3-0.5s0.4-0.9,0.4-1.8V30.6z"/>
		<path class="st1" d="M44.1,40.6h-2.7V25.9h3.9c0.7,0,1.4,0.1,1.8,0.2s0.8,0.3,1.1,0.6s0.5,0.6,0.6,1.1s0.2,1,0.2,1.7v2
			c0,0.7-0.1,1.3-0.3,1.7s-0.5,0.8-1,1.1l1.5,6.3h-2.8l-1.3-5.9h-1.1V40.6z M45.3,28.4h-1.2v4h1.2c0.4,0,0.7-0.1,0.8-0.3
			s0.2-0.5,0.2-1.1v-1.4c0-0.5-0.1-0.9-0.2-1.1S45.7,28.4,45.3,28.4z"/>
		<path class="st1" d="M50.9,40.6V25.9h2.7v14.7H50.9z"/>
	</g>
	<g class="st0">
		<path class="st1" d="M62.5,28.6h-2.3v12h-2.7v-12h-2.3v-2.7h7.3V28.6z"/>
	</g>
	<g class="st0">
		<path class="st1" d="M68.4,40.6L68,37h-2.3l-0.5,3.6h-2.6l2.1-14.7h4.2l2.1,14.7H68.4z M67.7,34.9l-0.9-6.4L66,34.9H67.7z"/>
		<path class="st1" d="M72.7,40.6V25.9h2.7v14.7H72.7z"/>
		<path class="st1" d="M79.8,40.6h-2.7V25.9H81c0.7,0,1.4,0.1,1.8,0.2s0.8,0.3,1.1,0.6s0.5,0.6,0.6,1.1s0.2,1,0.2,1.7v2
			c0,0.7-0.1,1.3-0.3,1.7s-0.5,0.8-1,1.1l1.5,6.3h-2.8l-1.3-5.9h-1.1V40.6z M81,28.4h-1.2v4H81c0.4,0,0.7-0.1,0.8-0.3
			s0.2-0.5,0.2-1.1v-1.4c0-0.5-0.1-0.9-0.2-1.1S81.4,28.4,81,28.4z"/>
		<path class="st1" d="M86.6,40.6V25.9h6.6v2.6h-3.9v3.3H93v2.4h-3.7v3.8h3.9v2.6H86.6z"/>
		<path class="st1" d="M97.2,40.6h-2.4v-2.3h2.4V40.6z"/>
		<path class="st1" d="M101.2,40.6h-2.4v-2.3h2.4V40.6z"/>
	</g>
	<g class="st0">
		<path class="st1" d="M105.2,40.6h-2.4v-2.3h2.4V40.6z"/>
	</g>
	<g class="st0">
		<path class="st1" d="M190.7,39c0-1.7,1.1-2.8,2.4-3.3c-1.2-0.5-1.9-1.4-1.9-2.7c0-2.1,2-3.3,4-3.3c2,0,3.9,1.3,3.9,3.3
			c0,1.3-0.8,2.2-2,2.7c1.5,0.5,2.5,1.7,2.5,3.3c0,2.6-2.3,3.9-4.4,3.9C193,42.9,190.7,41.6,190.7,39z M198,39
			c0-1.7-1.3-2.6-2.8-2.6s-2.9,0.9-2.9,2.6c0,1.7,1.4,2.6,2.8,2.6C196.7,41.6,198,40.7,198,39z M197.5,33c0-1.2-1-2.1-2.4-2.1
			s-2.4,0.8-2.4,2.1c0,1.4,1.1,2.1,2.4,2.1C196.5,35.2,197.5,34.4,197.5,33z"/>
	</g>
	<g class="st0">
		<path class="st1" d="M202.1,33.1h-1.5v-3.3h8.8v0.5l-4.7,12.3h-1.6l4.5-11.6h-5.5V33.1z"/>
	</g>
	<g class="st0">
		<path class="st1" d="M232,39c0-1.7,1.1-2.8,2.4-3.3c-1.2-0.5-1.9-1.4-1.9-2.7c0-2.1,2-3.3,4-3.3c2,0,3.9,1.3,3.9,3.3
			c0,1.3-0.8,2.2-2,2.7c1.5,0.5,2.5,1.7,2.5,3.3c0,2.6-2.3,3.9-4.4,3.9C234.3,42.9,232,41.6,232,39z M239.3,39
			c0-1.7-1.3-2.6-2.8-2.6s-2.9,0.9-2.9,2.6c0,1.7,1.4,2.6,2.8,2.6C238,41.6,239.3,40.7,239.3,39z M238.8,33c0-1.2-1-2.1-2.4-2.1
			s-2.4,0.8-2.4,2.1c0,1.4,1.1,2.1,2.4,2.1C237.9,35.2,238.8,34.4,238.8,33z"/>
	</g>
	<g class="st0">
		<path class="st1" d="M242.5,39.5h1.5c0.3,1.3,1,2,2.7,2c2.1,0,3.3-1.7,3.3-5.1c-0.6,1-1.9,1.7-3.3,1.7c-2.5,0-4.2-1.8-4.2-4.2
			c0-2.6,1.7-4.3,4.4-4.3c3,0,4.6,2.1,4.6,5.8v0.8c0,4.3-1.8,6.6-4.8,6.6C244.3,42.8,242.9,41.6,242.5,39.5z M249.9,34.1
			c0-2.1-1.2-3.3-3-3.3c-1.7,0-2.8,1.2-2.8,3c0,1.9,1.1,3.1,2.9,3.1C248.6,36.9,249.9,35.8,249.9,34.1z"/>
	</g>
	<g class="st0">
		<path class="st1" d="M275.2,39c0-1.7,1.1-2.8,2.4-3.3c-1.2-0.5-1.9-1.4-1.9-2.7c0-2.1,2-3.3,4-3.3c2,0,3.9,1.3,3.9,3.3
			c0,1.3-0.8,2.2-2,2.7c1.5,0.5,2.5,1.7,2.5,3.3c0,2.6-2.3,3.9-4.4,3.9C277.6,42.9,275.2,41.6,275.2,39z M282.5,39
			c0-1.7-1.3-2.6-2.8-2.6s-2.9,0.9-2.9,2.6c0,1.7,1.4,2.6,2.8,2.6C281.3,41.6,282.5,40.7,282.5,39z M282.1,33c0-1.2-1-2.1-2.4-2.1
			s-2.4,0.8-2.4,2.1c0,1.4,1.1,2.1,2.4,2.1C281.1,35.2,282.1,34.4,282.1,33z"/>
	</g>
	<g class="st0">
		<path class="st1" d="M285.9,42.7v-1.2h2.6V31.4l-2.9,2.1V32l3-2.2h1.5v11.6h2.5v1.2H285.9z"/>
	</g>
	<g class="st0">
		<path class="st1" d="M316.1,39c0-1.7,1.1-2.8,2.4-3.3c-1.2-0.5-1.9-1.4-1.9-2.7c0-2.1,2-3.3,4-3.3c2,0,3.9,1.3,3.9,3.3
			c0,1.3-0.8,2.2-2,2.7c1.5,0.5,2.5,1.7,2.5,3.3c0,2.6-2.3,3.9-4.4,3.9C318.4,42.9,316.1,41.6,316.1,39z M323.3,39
			c0-1.7-1.3-2.6-2.8-2.6s-2.9,0.9-2.9,2.6c0,1.7,1.4,2.6,2.8,2.6C322.1,41.6,323.3,40.7,323.3,39z M322.9,33c0-1.2-1-2.1-2.4-2.1
			s-2.4,0.8-2.4,2.1c0,1.4,1.1,2.1,2.4,2.1C321.9,35.2,322.9,34.4,322.9,33z"/>
	</g>
	<g class="st0">
		<path class="st1" d="M326.3,38.9h1.4c0.1,1.5,1.1,2.7,3.1,2.7c2,0,2.9-1,2.9-2.5c0-1.7-0.9-2.5-2.7-2.5h-1v-1.3h0.9
			c1.7,0,2.4-0.8,2.4-2.2c0-1.2-0.8-2.2-2.3-2.2c-1.6,0-2.7,1-2.8,2.4h-1.4c0.1-2,1.8-3.7,4.2-3.7s3.9,1.6,3.9,3.4
			c0,1.5-0.9,2.3-2,2.8c1.5,0.4,2.5,1.5,2.5,3.2c0,2.3-1.9,3.7-4.6,3.7C328.1,42.9,326.4,41.2,326.3,38.9z"/>
	</g>
	<g class="st0">
		<path class="st1" d="M402.6,39.5h1.5c0.3,1.3,1,2,2.7,2c2.1,0,3.3-1.7,3.3-5.1c-0.6,1-1.9,1.7-3.3,1.7c-2.5,0-4.2-1.8-4.2-4.2
			c0-2.6,1.7-4.3,4.4-4.3c3,0,4.6,2.1,4.6,5.8v0.8c0,4.3-1.8,6.6-4.8,6.6C404.3,42.8,402.9,41.6,402.6,39.5z M409.9,34.1
			c0-2.1-1.2-3.3-3-3.3c-1.7,0-2.8,1.2-2.8,3c0,1.9,1.1,3.1,2.9,3.1C408.7,36.9,409.9,35.8,409.9,34.1z"/>
	</g>
	<g class="st0">
		<path class="st1" d="M414.2,33.1h-1.5v-3.3h8.8v0.5l-4.7,12.3h-1.6l4.5-11.6h-5.5V33.1z"/>
	</g>
	<g class="st0">
		<path class="st1" d="M443.9,39.5h1.5c0.3,1.3,1,2,2.7,2c2.1,0,3.3-1.7,3.3-5.1c-0.6,1-1.9,1.7-3.3,1.7c-2.5,0-4.2-1.8-4.2-4.2
			c0-2.6,1.7-4.3,4.4-4.3c3,0,4.6,2.1,4.6,5.8v0.8c0,4.3-1.8,6.6-4.8,6.6C445.7,42.8,444.3,41.6,443.9,39.5z M451.3,34.1
			c0-2.1-1.2-3.3-3-3.3c-1.7,0-2.8,1.2-2.8,3c0,1.9,1.1,3.1,2.9,3.1C450,36.9,451.3,35.8,451.3,34.1z"/>
	</g>
	<g class="st0">
		<path class="st1" d="M454.6,39.5h1.5c0.3,1.3,1,2,2.7,2c2.1,0,3.3-1.7,3.3-5.1c-0.6,1-1.9,1.7-3.3,1.7c-2.5,0-4.2-1.8-4.2-4.2
			c0-2.6,1.7-4.3,4.4-4.3c3,0,4.6,2.1,4.6,5.8v0.8c0,4.3-1.8,6.6-4.8,6.6C456.4,42.8,455,41.6,454.6,39.5z M461.9,34.1
			c0-2.1-1.2-3.3-3-3.3c-1.7,0-2.8,1.2-2.8,3c0,1.9,1.1,3.1,2.9,3.1C460.7,36.9,461.9,35.8,461.9,34.1z"/>
	</g>
	<g class="st0">
		<path class="st1" d="M487.1,39.5h1.5c0.3,1.3,1,2,2.7,2c2.1,0,3.3-1.7,3.3-5.1c-0.6,1-1.9,1.7-3.3,1.7c-2.5,0-4.2-1.8-4.2-4.2
			c0-2.6,1.7-4.3,4.4-4.3c3,0,4.6,2.1,4.6,5.8v0.8c0,4.3-1.8,6.6-4.8,6.6C488.9,42.8,487.5,41.6,487.1,39.5z M494.4,34.1
			c0-2.1-1.2-3.3-3-3.3c-1.7,0-2.8,1.2-2.8,3c0,1.9,1.1,3.1,2.9,3.1C493.2,36.9,494.4,35.8,494.4,34.1z"/>
		<path class="st1" d="M498,42.7v-1.2h2.6V31.4l-2.9,2.1V32l3-2.2h1.5v11.6h2.5v1.2H498z"/>
	</g>
	<g class="st0">
		<path class="st1" d="M528,39.5h1.5c0.3,1.3,1,2,2.7,2c2.1,0,3.3-1.7,3.3-5.1c-0.6,1-1.9,1.7-3.3,1.7c-2.5,0-4.2-1.8-4.2-4.2
			c0-2.6,1.7-4.3,4.4-4.3c3,0,4.6,2.1,4.6,5.8v0.8c0,4.3-1.8,6.6-4.8,6.6C529.8,42.8,528.4,41.6,528,39.5z M535.4,34.1
			c0-2.1-1.2-3.3-3-3.3c-1.7,0-2.8,1.2-2.8,3c0,1.9,1.1,3.1,2.9,3.1C534.1,36.9,535.4,35.8,535.4,34.1z"/>
	</g>
	<g class="st0">
		<path class="st1" d="M538.4,38.9h1.4c0.1,1.5,1.1,2.7,3.1,2.7c2,0,2.9-1,2.9-2.5c0-1.7-0.9-2.5-2.7-2.5h-1v-1.3h0.9
			c1.7,0,2.4-0.8,2.4-2.2c0-1.2-0.8-2.2-2.3-2.2c-1.6,0-2.7,1-2.8,2.4h-1.4c0.1-2,1.8-3.7,4.2-3.7c2.4,0,3.9,1.6,3.9,3.4
			c0,1.5-0.9,2.3-2,2.8c1.5,0.4,2.5,1.5,2.5,3.2c0,2.3-1.9,3.7-4.6,3.7C540.1,42.9,538.5,41.2,538.4,38.9z"/>
	</g>
	<g class="st0">
		<path class="st1" d="M611.9,36.6v-0.7c0-3.8,1.9-6.2,5.1-6.2c3.2,0,5,2.5,5,6.2v0.7c0,3.7-1.8,6.3-5,6.3
			C614,42.9,611.9,40.4,611.9,36.6z M620.4,36.6v-0.7c0-3-1.3-4.9-3.4-4.9c-2.2,0-3.5,1.8-3.5,5v0.7c0,3.3,1.4,5,3.5,5
			C619.3,41.6,620.4,39.8,620.4,36.6z"/>
	</g>
	<g class="st0">
		<path class="st1" d="M624.7,33.1h-1.5v-3.3h8.8v0.5l-4.7,12.3h-1.6l4.5-11.6h-5.5V33.1z"/>
	</g>
	<g class="st0">
		<path class="st1" d="M653.4,36.6v-0.7c0-3.8,1.9-6.2,5.1-6.2c3.2,0,5,2.5,5,6.2v0.7c0,3.7-1.8,6.3-5,6.3
			C655.4,42.9,653.4,40.4,653.4,36.6z M661.9,36.6v-0.7c0-3-1.3-4.9-3.4-4.9s-3.5,1.8-3.5,5v0.7c0,3.3,1.4,5,3.5,5
			C660.7,41.6,661.9,39.8,661.9,36.6z"/>
	</g>
	<g class="st0">
		<path class="st1" d="M665.1,39.5h1.5c0.3,1.3,1,2,2.7,2c2.1,0,3.3-1.7,3.3-5.1c-0.6,1-1.9,1.7-3.3,1.7c-2.5,0-4.2-1.8-4.2-4.2
			c0-2.6,1.7-4.3,4.4-4.3c3,0,4.6,2.1,4.6,5.8v0.8c0,4.3-1.8,6.6-4.8,6.6C666.8,42.8,665.4,41.6,665.1,39.5z M672.4,34.1
			c0-2.1-1.2-3.3-3-3.3c-1.7,0-2.8,1.2-2.8,3c0,1.9,1.1,3.1,2.9,3.1C671.2,36.9,672.4,35.8,672.4,34.1z"/>
	</g>
	<g class="st0">
		<path class="st1" d="M823.9,42.7v-1.2h2.6V31.4l-2.9,2.1V32l3-2.2h1.5v11.6h2.5v1.2H823.9z"/>
	</g>
	<g class="st0">
		<path class="st1" d="M832.6,33.1h-1.5v-3.3h8.8v0.5l-4.7,12.3h-1.6l4.5-11.6h-5.5V33.1z"/>
	</g>
	<g class="st0">
		<path class="st1" d="M865.3,42.7v-1.2h2.6V31.4l-2.9,2.1V32l3-2.2h1.5v11.6h2.5v1.2H865.3z"/>
	</g>
	<g class="st0">
		<path class="st1" d="M873.1,39.5h1.5c0.3,1.3,1,2,2.7,2c2.1,0,3.3-1.7,3.3-5.1c-0.6,1-1.9,1.7-3.3,1.7c-2.5,0-4.2-1.8-4.2-4.2
			c0-2.6,1.7-4.3,4.4-4.3c3,0,4.6,2.1,4.6,5.8v0.8c0,4.3-1.8,6.6-4.8,6.6C874.8,42.8,873.4,41.6,873.1,39.5z M880.4,34.1
			c0-2.1-1.2-3.3-3-3.3c-1.7,0-2.8,1.2-2.8,3c0,1.9,1.1,3.1,2.9,3.1C879.2,36.9,880.4,35.8,880.4,34.1z"/>
	</g>
	<g class="st0">
		<path class="st1" d="M698.4,42.7v-1.2h2.6V31.4l-2.9,2.1V32l3-2.2h1.5v11.6h2.5v1.2H698.4z"/>
		<path class="st1" d="M706.7,42.7v-1.2h2.6V31.4l-2.9,2.1V32l3-2.2h1.5v11.6h2.5v1.2H706.7z"/>
	</g>
	<g class="st0">
		<path class="st1" d="M739.3,42.7v-1.2h2.6V31.4l-2.9,2.1V32l3-2.2h1.5v11.6h2.5v1.2H739.3z"/>
	</g>
	<g class="st0">
		<path class="st1" d="M747,38.9h1.4c0.1,1.5,1.1,2.7,3.1,2.7c2,0,2.9-1,2.9-2.5c0-1.7-0.9-2.5-2.7-2.5h-1v-1.3h0.9
			c1.7,0,2.4-0.8,2.4-2.2c0-1.2-0.8-2.2-2.3-2.2c-1.6,0-2.7,1-2.8,2.4h-1.4c0.1-2,1.8-3.7,4.2-3.7c2.4,0,3.9,1.6,3.9,3.4
			c0,1.5-0.9,2.3-2,2.8c1.5,0.4,2.5,1.5,2.5,3.2c0,2.3-1.9,3.7-4.6,3.7C748.8,42.9,747.1,41.2,747,38.9z"/>
	</g>
	<g class="st0">
		<path class="st1" d="M347.5,15.6v-1.8h2.4V5.1l-2.6,1.8V4.8l2.9-2.1h2.1v11.1h2.3v1.8H347.5z"/>
	</g>
	<g class="st0">
		<path class="st1" d="M355.6,12.3h2.3c0.2,1,0.8,1.7,2.2,1.7c1.9,0,2.8-1.5,2.9-4.4c-0.6,1-1.7,1.6-3.2,1.6c-2.5,0-4.3-1.7-4.3-4.2
			c0-2.6,1.9-4.4,4.8-4.4c3.3,0,5,2.3,5,6v0.7c0,4.2-1.9,6.6-5.2,6.6C357.5,15.8,355.9,14.5,355.6,12.3z M362.8,7.1
			c0-1.7-1-2.7-2.5-2.7c-1.4,0-2.4,1-2.4,2.6c0,1.5,0.9,2.6,2.4,2.6S362.8,8.5,362.8,7.1z"/>
		<path class="st1" d="M366.8,12.3h2.3c0.2,1,0.8,1.7,2.2,1.7c1.9,0,2.8-1.5,2.9-4.4c-0.6,1-1.7,1.6-3.2,1.6c-2.5,0-4.3-1.7-4.3-4.2
			c0-2.6,1.9-4.4,4.8-4.4c3.3,0,5,2.3,5,6v0.7c0,4.2-1.9,6.6-5.2,6.6C368.7,15.8,367.1,14.5,366.8,12.3z M373.9,7.1
			c0-1.7-1-2.7-2.5-2.7c-1.4,0-2.4,1-2.4,2.6c0,1.5,0.9,2.6,2.4,2.6S373.9,8.5,373.9,7.1z"/>
	</g>
	<g class="st0">
		<path class="st1" d="M377.8,11.9h2.2c0.2,1.2,0.7,2,2.3,2c1.5,0,2.3-1,2.3-2.6c0-1.5-0.9-2.5-2.3-2.5c-1.3,0-2.1,0.4-2.7,1.1h-1.2
			l0.1-7.2h7.8v3h-2V4.5h-3.9l-0.1,3.7c0.5-0.6,1.4-1,2.8-1c2.3,0,4,1.6,4,4.2c0,2.7-2,4.4-4.7,4.4
			C379.3,15.8,377.9,14.1,377.8,11.9z"/>
	</g>
	<g class="st0">
		<path class="st1" d="M564.7,12.1h2v3.5h-9.4v-1.2l4.7-4.6c1.4-1.4,2-2.3,2-3.5c0-1.2-0.7-1.9-1.9-1.9c-1.3,0-2.1,0.7-2.3,2.6h-2.2
			c0.2-2.8,1.9-4.4,4.6-4.4c2.7,0,4.2,1.4,4.2,3.7c0,1.7-1,3.1-2.6,4.6l-3.3,3.1h4.2V12.1z"/>
	</g>
	<g class="st0">
		<path class="st1" d="M568.1,9.5V8.9c0-3.9,2.2-6.3,5.4-6.3c3.3,0,5.4,2.4,5.4,6.2v0.6c0,3.9-2,6.4-5.4,6.4
			C570.3,15.8,568.1,13.4,568.1,9.5z M576.5,9.5V8.8c0-2.7-1-4.4-3-4.4c-1.9,0-3,1.5-3,4.4v0.6c0,2.9,1.1,4.4,3,4.4
			C575.6,13.9,576.5,12.4,576.5,9.5z"/>
	</g>
	<g class="st0">
		<path class="st1" d="M580.5,9.5V8.9c0-3.9,2.2-6.3,5.4-6.3c3.3,0,5.4,2.4,5.4,6.2v0.6c0,3.9-2,6.4-5.4,6.4
			C582.6,15.8,580.5,13.4,580.5,9.5z M588.9,9.5V8.8c0-2.7-1-4.4-3-4.4c-1.9,0-3,1.5-3,4.4v0.6c0,2.9,1.1,4.4,3,4.4
			C587.9,13.9,588.9,12.4,588.9,9.5z"/>
	</g>
	<g class="st0">
		<path class="st1" d="M592.5,11.9h2.2c0.2,1.2,0.7,2,2.3,2c1.5,0,2.3-1,2.3-2.6c0-1.5-0.9-2.5-2.3-2.5c-1.3,0-2.1,0.4-2.7,1.1h-1.2
			l0.1-7.2h7.8v3h-2V4.5h-3.9l-0.1,3.7c0.5-0.6,1.4-1,2.8-1c2.3,0,4,1.6,4,4.2c0,2.7-2,4.4-4.7,4.4C594,15.8,592.6,14.1,592.5,11.9z
			"/>
	</g>
	<g class="st0">
		<path class="st1" d="M776.6,12.1h2v3.5h-9.4v-1.2l4.7-4.6c1.4-1.4,2-2.3,2-3.5c0-1.2-0.7-1.9-1.9-1.9c-1.3,0-2.1,0.7-2.3,2.6h-2.2
			c0.2-2.8,1.9-4.4,4.6-4.4c2.7,0,4.2,1.4,4.2,3.7c0,1.7-1,3.1-2.6,4.6l-3.3,3.1h4.2V12.1z"/>
	</g>
	<g class="st0">
		<path class="st1" d="M780,9.5V8.9c0-3.9,2.2-6.3,5.4-6.3c3.3,0,5.4,2.4,5.4,6.2v0.6c0,3.9-2,6.4-5.4,6.4
			C782.1,15.8,780,13.4,780,9.5z M788.4,9.5V8.8c0-2.7-1-4.4-3-4.4c-1.9,0-3,1.5-3,4.4v0.6c0,2.9,1.1,4.4,3,4.4
			C787.5,13.9,788.4,12.4,788.4,9.5z"/>
	</g>
	<g class="st0">
		<path class="st1" d="M792.5,15.6v-1.8h2.4V5.1l-2.6,1.8V4.8l2.9-2.1h2.1v11.1h2.3v1.8H792.5z"/>
	</g>
	<g class="st0">
		<path class="st1" d="M800.5,11.9h2.2c0.2,1.2,0.7,2,2.3,2c1.5,0,2.3-1,2.3-2.6c0-1.5-0.9-2.5-2.3-2.5c-1.3,0-2.1,0.4-2.7,1.1h-1.2
			l0.1-7.2h7.8v3h-2V4.5h-3.9L803,8.2c0.5-0.6,1.4-1,2.8-1c2.3,0,4,1.6,4,4.2c0,2.7-2,4.4-4.7,4.4C802,15.8,800.6,14.1,800.5,11.9z"
			/>
	</g>
</g>
<g id="Calque_1_1_">
	<g class="st0">
		<path class="st2" d="M239,276.4c-1.7,0-2.8-0.4-3.6-1.2s-1.1-2.1-1.1-3.9v-6.7c0-1.6,0.4-2.8,1.1-3.6s2-1.2,3.7-1.2
			c3.2,0,4.8,1.4,4.8,4.3v2.3h-2.5v-2.1c0-1.4-0.8-2.2-2.4-2.2c-0.8,0-1.4,0.2-1.8,0.6s-0.5,1.2-0.5,2.2v6c0,1,0.2,1.8,0.5,2.2
			s1,0.6,1.8,0.6c0.3,0,0.5,0,0.8,0s0.4-0.1,0.6-0.2s0.4-0.2,0.5-0.4s0.2-0.4,0.3-0.6s0.1-0.6,0.1-0.9v-1.9h-2.4v-2.1h4.9v8.5h-1
			l-0.5-2.2c-0.2,0.8-0.6,1.3-1.2,1.7S240,276.4,239,276.4z"/>
	</g>
	<g class="st0">
		<path class="st2" d="M248.1,276.3h-2.3V274h2.3V276.3z"/>
	</g>
	<g class="st0">
	</g>
	<g class="st0">
		<path class="st2" d="M254.3,276.3V260h4.2c1.3,0,2.2,0.2,2.7,0.7s0.8,1.2,0.8,2.3v2.3c0,0.7-0.2,1.2-0.6,1.5s-1,0.6-1.8,0.6
			c1.1,0,1.8,0.3,2.3,0.7s0.7,1.1,0.7,1.9v2.8c0,1.2-0.3,2-1,2.5s-1.7,0.8-3.1,0.8H254.3z M258.4,262.2h-1.6v4.5h1.6
			c0.4,0,0.7-0.1,0.9-0.3s0.3-0.6,0.3-1.2v-1.6c0-0.5-0.1-0.9-0.3-1.1S258.8,262.2,258.4,262.2z M258.5,268.8h-1.8v5.2h1.8
			c0.6,0,1-0.1,1.3-0.4s0.4-0.7,0.4-1.3v-2c0-0.6-0.1-1-0.4-1.3S259.1,268.8,258.5,268.8z"/>
	</g>
	<g class="st0">
		<path class="st2" d="M268.8,276.4c-1.6,0-2.8-0.4-3.4-1.1s-1-2-1-3.9V260h2.5v11.1c0,1.1,0.2,1.8,0.5,2.3s0.8,0.6,1.5,0.6
			c0.7,0,1.2-0.2,1.5-0.6s0.5-1.2,0.5-2.3V260h2.5v11.4c0,1.8-0.3,3.1-1,3.9S270.5,276.4,268.8,276.4z"/>
		<path class="st2" d="M284.3,270.7v2c0,1.3-0.4,2.2-1.1,2.8s-1.9,0.9-3.5,0.9c-1.6,0-2.8-0.3-3.5-1s-1.1-1.7-1.1-3.2v-2h2.5v1.7
			c0,0.8,0.2,1.3,0.5,1.6s0.9,0.5,1.6,0.5c0.7,0,1.3-0.1,1.6-0.3s0.5-0.6,0.5-1.2v-1.7c0-0.5-0.2-0.9-0.5-1.1s-1-0.4-2-0.6
			c-0.8-0.2-1.5-0.3-2.1-0.5s-0.9-0.4-1.3-0.7s-0.6-0.6-0.7-1s-0.2-0.9-0.2-1.4v-2.1c0-1.2,0.4-2.2,1.1-2.7s1.9-0.9,3.5-0.9
			c1.6,0,2.8,0.3,3.5,1s1.1,1.7,1.1,3v2h-2.5v-1.8c0-0.7-0.2-1.1-0.5-1.5s-0.9-0.5-1.6-0.5c-0.8,0-1.3,0.1-1.6,0.4s-0.5,0.6-0.5,1.2
			v1.8c0,0.3,0.1,0.6,0.2,0.8s0.4,0.3,0.8,0.5s0.9,0.3,1.7,0.4c0.8,0.2,1.5,0.3,2,0.5s0.9,0.4,1.2,0.7s0.6,0.6,0.7,1
			S284.3,270.1,284.3,270.7z"/>
		<path class="st2" d="M292.6,276.3v-7.2h-3.9v7.2h-2.5V260h2.5v6.6h3.9V260h2.5v16.3H292.6z"/>
	</g>
	<g class="st0">
		<path class="st2" d="M366.2,276.3V260h4.2c1.3,0,2.2,0.2,2.7,0.7s0.8,1.2,0.8,2.3v2.3c0,0.7-0.2,1.2-0.6,1.5s-1,0.6-1.8,0.6
			c1.1,0,1.8,0.3,2.3,0.7s0.7,1.1,0.7,1.9v2.8c0,1.2-0.3,2-1,2.5s-1.7,0.8-3.1,0.8H366.2z M370.3,262.2h-1.6v4.5h1.6
			c0.4,0,0.7-0.1,0.9-0.3s0.3-0.6,0.3-1.2v-1.6c0-0.5-0.1-0.9-0.3-1.1S370.7,262.2,370.3,262.2z M370.5,268.8h-1.8v5.2h1.8
			c0.6,0,1-0.1,1.3-0.4s0.4-0.7,0.4-1.3v-2c0-0.6-0.1-1-0.4-1.3S371.1,268.8,370.5,268.8z"/>
	</g>
	<g class="st0">
		<path class="st2" d="M378.6,276.3h-2.3V274h2.3V276.3z"/>
	</g>
	<g class="st0">
		<path class="st2" d="M384.7,271.4v-6.6c0-1.6,0.4-2.9,1.1-3.7s2-1.2,3.7-1.2c1.7,0,2.9,0.4,3.7,1.1s1.2,1.9,1.2,3.4v2.4h-2.5v-2.1
			c0-0.8-0.2-1.4-0.6-1.8s-1-0.6-1.8-0.6s-1.4,0.2-1.8,0.6s-0.5,1.2-0.5,2.2v6c0,1,0.2,1.8,0.5,2.2s1,0.6,1.8,0.6s1.4-0.2,1.8-0.5
			s0.6-1,0.6-1.9v-2.4h2.5v2.7c0,1.6-0.4,2.8-1.1,3.5s-2,1.1-3.7,1.1c-1.7,0-3-0.4-3.7-1.1S384.7,273.2,384.7,271.4z"/>
		<path class="st2" d="M396.2,276.3V260h2.5v13.9h4.5v2.4H396.2z"/>
		<path class="st2" d="M405.1,276.3V260h2.5v16.3H405.1z"/>
		<path class="st2" d="M416.2,276.3l-4.5-10v10h-2.3V260h2.1l4.5,10.1V260h2.3v16.3H416.2z"/>
	</g>
	<g class="st0">
		<path class="st2" d="M428.2,262.4h-2.8v13.8H423v-13.8h-2.8V260h8.1V262.4z"/>
	</g>
	<g class="st0">
		<path class="st2" d="M439.1,271.4c0,1.6-0.4,2.9-1.2,3.7s-2,1.2-3.7,1.2c-1.7,0-2.9-0.4-3.7-1.2s-1.2-2.1-1.2-3.7v-6.6
			c0-1.6,0.4-2.9,1.2-3.7s2-1.2,3.7-1.2s2.9,0.4,3.7,1.2s1.2,2.1,1.2,3.7V271.4z M436.6,265.1c0-1.1-0.2-1.8-0.5-2.3s-1-0.6-1.8-0.6
			c-0.8,0-1.4,0.2-1.8,0.6s-0.6,1.2-0.6,2.3v6c0,1.1,0.2,1.8,0.6,2.3s1,0.6,1.8,0.6c0.6,0,1-0.1,1.3-0.2s0.6-0.5,0.8-0.9
			s0.3-1,0.3-1.8V265.1z"/>
		<path class="st2" d="M447.7,276.3l-4.5-10v10h-2.3V260h2.1l4.5,10.1V260h2.3v16.3H447.7z"/>
	</g>
	<g class="st0">
		<path class="st2" d="M538.9,276.4c-1.7,0-2.8-0.4-3.6-1.2c-0.7-0.8-1.1-2.1-1.1-3.9v-6.7c0-1.6,0.4-2.8,1.1-3.6s2-1.2,3.7-1.2
			c3.2,0,4.8,1.4,4.8,4.3v2.3h-2.5v-2.1c0-1.4-0.8-2.2-2.4-2.2c-0.8,0-1.4,0.2-1.8,0.6c-0.4,0.4-0.5,1.2-0.5,2.2v6
			c0,1,0.2,1.8,0.5,2.2s1,0.6,1.8,0.6c0.3,0,0.5,0,0.8,0c0.2,0,0.4-0.1,0.6-0.2s0.4-0.2,0.5-0.4c0.1-0.2,0.2-0.4,0.3-0.6
			c0.1-0.3,0.1-0.6,0.1-0.9v-1.9h-2.4v-2.1h4.9v8.5h-1l-0.5-2.2c-0.2,0.8-0.6,1.3-1.2,1.7S540,276.4,538.9,276.4z"/>
	</g>
	<g class="st0">
		<path class="st2" d="M548.1,276.3h-2.3V274h2.3V276.3z"/>
		<path class="st2" d="M550.4,276.3l-2.3-16.3h2.4l1.5,11.4l2-11.4h2.3l2,11.4l1.5-11.4h2.4l-2.3,16.3H557l-1.9-10.7l-1.9,10.7
			H550.4z"/>
	</g>
	<g class="st0">
		<path class="st2" d="M566.1,276.3h-2.3V274h2.3V276.3z"/>
	</g>
	<g class="st0">
	</g>
	<g class="st0">
		<path class="st2" d="M572.3,276.3V260h4.2c1.3,0,2.2,0.2,2.7,0.7s0.8,1.2,0.8,2.3v2.3c0,0.7-0.2,1.2-0.6,1.5s-1,0.6-1.8,0.6
			c1.1,0,1.8,0.3,2.3,0.7s0.7,1.1,0.7,1.9v2.8c0,1.2-0.3,2-1,2.5s-1.7,0.8-3.1,0.8H572.3z M576.4,262.2h-1.6v4.5h1.6
			c0.4,0,0.7-0.1,0.9-0.3s0.3-0.6,0.3-1.2v-1.6c0-0.5-0.1-0.9-0.3-1.1S576.8,262.2,576.4,262.2z M576.5,268.8h-1.8v5.2h1.8
			c0.6,0,1-0.1,1.3-0.4s0.4-0.7,0.4-1.3v-2c0-0.6-0.1-1-0.4-1.3S577.1,268.8,576.5,268.8z"/>
	</g>
	<g class="st0">
		<path class="st2" d="M586.8,276.4c-1.6,0-2.8-0.4-3.4-1.1c-0.7-0.7-1-2-1-3.9V260h2.5v11.1c0,1.1,0.2,1.8,0.5,2.3
			c0.3,0.4,0.8,0.6,1.5,0.6c0.7,0,1.2-0.2,1.5-0.6c0.3-0.4,0.5-1.2,0.5-2.3V260h2.5v11.4c0,1.8-0.3,3.1-1,3.9
			C589.6,276,588.4,276.4,586.8,276.4z"/>
		<path class="st2" d="M602.3,270.7v2c0,1.3-0.4,2.2-1.1,2.8c-0.7,0.6-1.9,0.9-3.5,0.9c-1.6,0-2.8-0.3-3.5-1s-1.1-1.7-1.1-3.2v-2
			h2.5v1.7c0,0.8,0.2,1.3,0.5,1.6s0.9,0.5,1.6,0.5c0.7,0,1.3-0.1,1.6-0.3s0.5-0.6,0.5-1.2v-1.7c0-0.5-0.2-0.9-0.5-1.1
			c-0.3-0.2-1-0.4-2-0.6c-0.8-0.2-1.5-0.3-2.1-0.5c-0.5-0.2-0.9-0.4-1.3-0.7s-0.6-0.6-0.7-1c-0.1-0.4-0.2-0.9-0.2-1.4v-2.1
			c0-1.2,0.4-2.2,1.1-2.7c0.7-0.6,1.9-0.9,3.5-0.9c1.6,0,2.8,0.3,3.5,1c0.7,0.7,1.1,1.7,1.1,3v2h-2.5v-1.8c0-0.7-0.2-1.1-0.5-1.5
			s-0.9-0.5-1.6-0.5c-0.8,0-1.3,0.1-1.6,0.4c-0.3,0.2-0.5,0.6-0.5,1.2v1.8c0,0.3,0.1,0.6,0.2,0.8c0.1,0.2,0.4,0.3,0.8,0.5
			c0.4,0.1,0.9,0.3,1.7,0.4c0.8,0.2,1.5,0.3,2,0.5c0.5,0.2,0.9,0.4,1.2,0.7s0.6,0.6,0.7,1S602.3,270.1,602.3,270.7z"/>
		<path class="st2" d="M610.6,276.3v-7.2h-3.9v7.2h-2.5V260h2.5v6.6h3.9V260h2.5v16.3H610.6z"/>
	</g>
	<g class="st0">
		<path class="st2" d="M704.7,276.3V260h4.2c1.3,0,2.2,0.2,2.7,0.7c0.5,0.5,0.8,1.2,0.8,2.3v2.3c0,0.7-0.2,1.2-0.6,1.5
			s-1,0.6-1.8,0.6c1.1,0,1.8,0.3,2.3,0.7s0.7,1.1,0.7,1.9v2.8c0,1.2-0.3,2-1,2.5s-1.7,0.8-3.1,0.8H704.7z M708.8,262.2h-1.6v4.5h1.6
			c0.4,0,0.7-0.1,0.9-0.3s0.3-0.6,0.3-1.2v-1.6c0-0.5-0.1-0.9-0.3-1.1S709.2,262.2,708.8,262.2z M709,268.8h-1.8v5.2h1.8
			c0.6,0,1-0.1,1.3-0.4c0.3-0.2,0.4-0.7,0.4-1.3v-2c0-0.6-0.1-1-0.4-1.3C710,268.9,709.6,268.8,709,268.8z"/>
	</g>
	<g class="st0">
		<path class="st2" d="M717.1,276.3h-2.3V274h2.3V276.3z"/>
	</g>
	<g class="st0">
		<path class="st2" d="M732.9,271.4c0,1.6-0.4,2.9-1.2,3.7c-0.8,0.8-2,1.2-3.7,1.2c-1.7,0-2.9-0.4-3.7-1.2s-1.2-2.1-1.2-3.7v-6.6
			c0-1.6,0.4-2.9,1.2-3.7s2-1.2,3.7-1.2c1.7,0,2.9,0.4,3.7,1.2s1.2,2.1,1.2,3.7V271.4z M730.4,265.1c0-1.1-0.2-1.8-0.5-2.3
			c-0.4-0.4-1-0.6-1.8-0.6c-0.8,0-1.4,0.2-1.8,0.6c-0.4,0.4-0.6,1.2-0.6,2.3v6c0,1.1,0.2,1.8,0.6,2.3c0.4,0.4,1,0.6,1.8,0.6
			c0.6,0,1-0.1,1.3-0.2s0.6-0.5,0.8-0.9c0.2-0.4,0.3-1,0.3-1.8V265.1z"/>
	</g>
	<g class="st0">
		<path class="st2" d="M734.7,276.3V260h4.2c1.3,0,2.2,0.2,2.7,0.7c0.5,0.5,0.8,1.2,0.8,2.3v2.3c0,0.7-0.2,1.2-0.6,1.5
			s-1,0.6-1.8,0.6c1.1,0,1.8,0.3,2.3,0.7s0.7,1.1,0.7,1.9v2.8c0,1.2-0.3,2-1,2.5s-1.7,0.8-3.1,0.8H734.7z M738.8,262.2h-1.6v4.5h1.6
			c0.4,0,0.7-0.1,0.9-0.3s0.3-0.6,0.3-1.2v-1.6c0-0.5-0.1-0.9-0.3-1.1S739.2,262.2,738.8,262.2z M739,268.8h-1.8v5.2h1.8
			c0.6,0,1-0.1,1.3-0.4c0.2-0.2,0.4-0.7,0.4-1.3v-2c0-0.6-0.1-1-0.4-1.3C740,268.9,739.6,268.8,739,268.8z"/>
	</g>
	<g class="st0">
		<path class="st2" d="M751.2,276.3l-0.7-4.3h-3l-0.7,4.3h-2.4l2.9-16.3h3.6l2.9,16.3H751.2z M750.1,269.7l-1.1-6.8l-1.2,6.8H750.1z
			"/>
		<path class="st2" d="M760.6,276.3l-3-11.8v11.8h-2.4V260h3.4l2.6,9.6l2.7-9.6h3.4v16.3h-2.4v-11.8l-3,11.8H760.6z"/>
	</g>
	<g class="st0">
		<path class="st2" d="M776.1,276.3l-0.7-4.3h-3l-0.7,4.3h-2.4L772,260h3.6l2.9,16.3H776.1z M775,269.7l-1.1-6.8l-1.2,6.8H775z"/>
	</g>
	<g class="st0">
		<path class="st2" d="M837.6,276.3V260h4.3c1.7,0,2.9,0.4,3.7,1.2c0.7,0.8,1.1,2,1.1,3.7v6.6c0,1.7-0.4,2.9-1.1,3.7
			c-0.7,0.8-2,1.2-3.7,1.2H837.6z M841.9,262.3h-1.8v11.6h1.8c0.9,0,1.5-0.2,1.8-0.6s0.5-1.2,0.5-2.3v-5.7c0-1.1-0.2-1.9-0.5-2.3
			C843.3,262.5,842.7,262.3,841.9,262.3z"/>
	</g>
	<g class="st0">
		<path class="st2" d="M850.5,276.3h-2.3V274h2.3V276.3z"/>
	</g>
	<g class="st0">
		<path class="st2" d="M864.6,262.4h-2.8v13.8h-2.5v-13.8h-2.8V260h8.1V262.4z"/>
	</g>
	<g class="st0">
		<path class="st2" d="M868.9,276.3h-2.5V260h4.1c1,0,1.8,0.1,2.4,0.4c0.6,0.2,0.9,0.6,1.2,1.1s0.3,1.2,0.3,2.1v2.5
			c0,1.6-0.5,2.6-1.6,3l1.8,7.2h-2.6l-1.7-6.9h-1.5V276.3z M870.6,262.3h-1.7v4.8h1.7c0.5,0,0.9-0.1,1.1-0.3
			c0.2-0.2,0.3-0.6,0.3-1.2v-1.8c0-0.6-0.1-1-0.3-1.2C871.5,262.4,871.1,262.3,870.6,262.3z"/>
	</g>
	<g class="st0">
		<path class="st2" d="M880.7,276.4c-1.6,0-2.8-0.4-3.4-1.1c-0.7-0.7-1-2-1-3.9V260h2.5v11.1c0,1.1,0.2,1.8,0.5,2.3
			c0.3,0.4,0.8,0.6,1.5,0.6c0.7,0,1.2-0.2,1.5-0.6c0.3-0.4,0.5-1.2,0.5-2.3V260h2.5v11.4c0,1.8-0.3,3.1-1,3.9
			C883.5,276,882.4,276.4,880.7,276.4z"/>
		<path class="st2" d="M892.4,276.3l-3-11.8v11.8h-2.4V260h3.4l2.6,9.6l2.7-9.6h3.4v16.3h-2.4v-11.8l-3,11.8H892.4z"/>
	</g>
	<g class="st0">
		<path class="st2" d="M905.4,270.7h-1.8v5.6h-2.5V260h4.3c1.5,0,2.5,0.3,3.2,0.9c0.6,0.6,0.9,1.5,0.9,2.8v3.4
			c0,1.3-0.3,2.2-0.9,2.7C907.9,270.4,906.9,270.7,905.4,270.7z M905.4,262.3h-1.8v6.1h1.8c0.6,0,1-0.1,1.3-0.4
			c0.2-0.3,0.4-0.7,0.4-1.4v-2.4c0-0.7-0.1-1.2-0.4-1.5C906.4,262.4,906,262.3,905.4,262.3z"/>
	</g>
	<rect x="327.8" y="69.1" class="st3" width="42" height="165.1"/>
	<rect x="537.7" y="69.1" class="st4" width="84" height="165.1"/>
	<rect x="662.8" y="69.1" class="st3" width="42.8" height="165.1"/>
	<rect x="831.6" y="69.1" class="st4" width="42.8" height="165.1"/>
	<rect x="831.6" y="82.9" class="st5" width="42" height="38.2"/>
	<rect x="201.9" y="82.9" class="st6" width="42" height="38.2"/>
	<rect x="243.8" y="82.9" class="st6" width="42" height="38.2"/>
	<rect x="285.8" y="82.9" class="st6" width="42" height="38.2"/>
	<rect x="327.8" y="82.9" class="st6" width="42" height="38.2"/>
	<rect x="369.8" y="82.9" class="st5" width="42" height="38.2"/>
	<rect x="411.8" y="82.9" class="st5" width="42" height="38.2"/>
	<rect x="453.8" y="82.9" class="st5" width="42" height="38.2"/>
	<rect x="495.8" y="82.9" class="st6" width="42" height="38.2"/>
	<rect x="537.7" y="82.9" class="st5" width="42" height="38.2"/>
	<rect x="579.7" y="82.9" class="st5" width="42" height="38.2"/>
	<rect x="621.7" y="82.9" class="st6" width="42" height="38.2"/>
	<rect x="663.7" y="82.9" class="st6" width="42" height="38.2"/>
	<rect x="705.7" y="82.9" class="st6" width="42" height="38.2"/>
	<rect x="747.7" y="82.9" class="st6" width="42" height="38.2"/>
	<rect x="789.7" y="82.9" class="st5" width="42" height="38.2"/>
	<line class="st7" x1="201.9" y1="50.3" x2="201.9" y2="62.8"/>
	<line class="st7" x1="243.8" y1="50.3" x2="243.8" y2="62.8"/>
	<line class="st7" x1="285.8" y1="50.3" x2="285.8" y2="62.8"/>
	<line class="st7" x1="327.8" y1="50.3" x2="327.8" y2="62.8"/>
	<line class="st8" x1="369.8" y1="22.6" x2="369.8" y2="62.8"/>
	<line class="st7" x1="411.8" y1="50.3" x2="411.8" y2="62.8"/>
	<line class="st7" x1="453.8" y1="50.3" x2="453.8" y2="62.8"/>
	<line class="st7" x1="495.8" y1="50.3" x2="495.8" y2="62.8"/>
	<line class="st7" x1="537.7" y1="50.3" x2="537.7" y2="62.8"/>
	<line class="st8" x1="579.7" y1="22.6" x2="579.7" y2="62.8"/>
	<line class="st7" x1="621.7" y1="50.3" x2="621.7" y2="62.8"/>
	<line class="st7" x1="663.7" y1="50.3" x2="663.7" y2="62.8"/>
	<line class="st7" x1="705.7" y1="50.3" x2="705.7" y2="62.8"/>
	<line class="st7" x1="747.7" y1="50.3" x2="747.7" y2="62.8"/>
	<line class="st8" x1="789.7" y1="22.6" x2="789.7" y2="62.8"/>
	<line class="st7" x1="831.6" y1="50.3" x2="831.6" y2="62.8"/>
	<line class="st7" x1="873.6" y1="50.3" x2="873.6" y2="62.8"/>
	<ellipse class="st9" cx="852.6" cy="215.7" rx="8.9" ry="9.2"/>
	<ellipse class="st10" cx="852.6" cy="215.7" rx="8.9" ry="9.2"/>
	<ellipse class="st9" cx="222.8" cy="215.7" rx="8.9" ry="9.2"/>
	<ellipse class="st10" cx="222.8" cy="215.7" rx="8.9" ry="9.2"/>
	<ellipse class="st9" cx="264.8" cy="215.7" rx="8.9" ry="9.2"/>
	<ellipse class="st10" cx="264.8" cy="215.7" rx="8.9" ry="9.2"/>
	<ellipse class="st9" cx="306.8" cy="215.7" rx="8.9" ry="9.2"/>
	<ellipse class="st10" cx="306.8" cy="215.7" rx="8.9" ry="9.2"/>
	<ellipse class="st11" cx="348.8" cy="215.7" rx="8.9" ry="9.2"/>
	<ellipse class="st10" cx="348.8" cy="215.7" rx="8.9" ry="9.2"/>
	<ellipse class="st11" cx="390.8" cy="215.7" rx="8.9" ry="9.2"/>
	<ellipse class="st10" cx="390.8" cy="215.7" rx="8.9" ry="9.2"/>
	<ellipse class="st11" cx="432.8" cy="215.7" rx="8.9" ry="9.2"/>
	<ellipse class="st10" cx="432.8" cy="215.7" rx="8.9" ry="9.2"/>
	<ellipse class="st11" cx="474.8" cy="215.7" rx="8.9" ry="9.2"/>
	<ellipse class="st10" cx="474.8" cy="215.7" rx="8.9" ry="9.2"/>
	<ellipse class="st9" cx="516.8" cy="215.7" rx="8.9" ry="9.2"/>
	<ellipse class="st10" cx="516.8" cy="215.7" rx="8.9" ry="9.2"/>
	<ellipse class="st9" cx="558.7" cy="215.7" rx="8.9" ry="9.2"/>
	<ellipse class="st10" cx="558.7" cy="215.7" rx="8.9" ry="9.2"/>
	<ellipse class="st9" cx="600.7" cy="215.7" rx="8.9" ry="9.2"/>
	<ellipse class="st10" cx="600.7" cy="215.7" rx="8.9" ry="9.2"/>
	<ellipse class="st9" cx="642.7" cy="215.7" rx="8.9" ry="9.2"/>
	<ellipse class="st10" cx="642.7" cy="215.7" rx="8.9" ry="9.2"/>
	<ellipse class="st11" cx="684.7" cy="215.7" rx="8.9" ry="9.2"/>
	<ellipse class="st10" cx="684.7" cy="215.7" rx="8.9" ry="9.2"/>
	<ellipse class="st11" cx="726.7" cy="215.7" rx="8.9" ry="9.2"/>
	<ellipse class="st10" cx="726.7" cy="215.7" rx="8.9" ry="9.2"/>
	<ellipse class="st11" cx="768.7" cy="215.7" rx="8.9" ry="9.2"/>
	<ellipse class="st10" cx="768.7" cy="215.7" rx="8.9" ry="9.2"/>
	<ellipse class="st11" cx="810.7" cy="215.7" rx="8.9" ry="9.2"/>
	<ellipse class="st10" cx="810.7" cy="215.7" rx="8.9" ry="9.2"/>
	<rect x="831.6" y="133.9" class="st5" width="42" height="38.2"/>
	<rect x="873.5" y="82.9" class="st5" width="21" height="38.2"/>
	<ellipse class="st9" cx="894.5" cy="216.8" rx="8.9" ry="8.1"/>
	<rect x="873.5" y="133.9" class="st6" width="21" height="38.2"/>
	<rect x="201.9" y="133.9" class="st6" width="42" height="38.2"/>
	<rect x="243.8" y="133.9" class="st6" width="42" height="38.2"/>
	<rect x="285.8" y="133.9" class="st6" width="42" height="38.2"/>
	<rect x="327.8" y="133.9" class="st6" width="42" height="38.2"/>
	<rect x="369.8" y="133.9" class="st5" width="42" height="38.2"/>
	<rect x="411.8" y="133.9" class="st5" width="42" height="38.2"/>
	<rect x="453.8" y="133.9" class="st5" width="42" height="38.2"/>
	<rect x="495.8" y="133.9" class="st5" width="42" height="38.2"/>
	<rect x="537.7" y="133.9" class="st5" width="42" height="38.2"/>
	<rect x="579.7" y="133.9" class="st5" width="42" height="38.2"/>
	<rect x="621.7" y="133.9" class="st6" width="42" height="38.2"/>
	<rect x="663.7" y="133.9" class="st6" width="42" height="38.2"/>
	<rect x="705.7" y="133.9" class="st5" width="42" height="38.2"/>
	<rect x="747.7" y="133.9" class="st5" width="42" height="38.2"/>
	<rect x="789.7" y="133.9" class="st5" width="42" height="38.2"/>
</g>
<g id="Mode_Isolation">
	<line class="st12" x1="915.3" y1="250.6" x2="832" y2="250.6"/>
	<rect x="914.6" y="245.7" class="st2" width="1.5" height="9.7"/>
	<rect x="831.2" y="245.7" class="st2" width="1.5" height="9.7"/>
	<line class="st12" x1="315.2" y1="250.6" x2="214.2" y2="250.6"/>
	<rect x="314.5" y="245.7" class="st2" width="1.5" height="9.7"/>
	<rect x="213.5" y="245.7" class="st2" width="1.5" height="9.7"/>
	<line class="st12" x1="819.4" y1="250.6" x2="663.6" y2="250.6"/>
	<rect x="818.7" y="245.7" class="st2" width="1.5" height="9.7"/>
	<rect x="662.8" y="245.7" class="st2" width="1.5" height="9.7"/>
	<line class="st12" x1="483.1" y1="250.6" x2="326.5" y2="250.6"/>
	<rect x="482.3" y="245.7" class="st2" width="1.5" height="9.7"/>
	<rect x="325.8" y="245.7" class="st2" width="1.5" height="9.7"/>
	<line class="st12" x1="650.9" y1="250.6" x2="496.5" y2="250.6"/>
	<rect x="650.1" y="245.7" class="st2" width="1.5" height="9.7"/>
	<rect x="495.8" y="245.7" class="st2" width="1.5" height="9.7"/>
</g>
</svg>
