<?xml version="1.0" encoding="utf-8"?>
<!-- Generator: Adobe Illustrator 24.0.1, SVG Export Plug-In . SVG Version: 6.00 Build 0)  -->
<svg version="1.1" id="Calque_1" xmlns="http://www.w3.org/2000/svg" xmlns:xlink="http://www.w3.org/1999/xlink" x="0px" y="0px"
	 viewBox="0 0 236.7 19.4" style="enable-background:new 0 0 236.7 19.4;" xml:space="preserve">
<style type="text/css">
	.st0{enable-background:new    ;}
	.st1{fill:#010101;}
	.st2{fill:none;stroke:#1D1D1B;stroke-width:2.27;stroke-miterlimit:10;}
</style>
<title>desktop_majoritelegende</title>
<g id="charte">
	<g class="st0">
		<path class="st1" d="M25.7,15.7v-1.2h1.6V4.1h-1.6V2.9h5.6c2.4,0,4.4,1,4.4,3.6v0.1c0,2-1.4,3.2-3.2,3.5l3.1,4.5h1.2v1.2h-2.1
			l-3.8-5.6h-2v4.4h1.8v1.2H25.7z M31.3,8.9c1.8,0,2.8-0.8,2.8-2.4V6.4c0-1.6-1.1-2.3-2.8-2.3h-2.4v4.8H31.3z"/>
	</g>
	<g class="st0">
		<path class="st1" d="M37.5,11.1V11c0-2.8,1.8-4.8,4.4-4.8c2.2,0,4.2,1.3,4.2,4.7v0.5H39c0.1,2.1,1.1,3.3,3,3.3
			c1.5,0,2.3-0.5,2.5-1.6H46c-0.3,1.9-1.9,2.9-4,2.9C39.4,15.9,37.5,14,37.5,11.1z M44.6,10.1c-0.1-1.9-1.2-2.7-2.7-2.7
			c-1.5,0-2.6,1-2.8,2.7H44.6z"/>
	</g>
	<g class="st0">
		<path class="st1" d="M47.3,15.7v-1.2h1.3v-7h-1.4V6.3h2.8v1.6c0.4-0.9,1.5-1.7,3-1.7c1.9,0,3.3,1,3.3,3.7v4.7h1.3v1.2h-4.2v-1.2
			h1.4V9.8c0-1.6-0.7-2.3-2.2-2.3c-1.3,0-2.6,0.9-2.6,2.5v4.6h1.4v1.2H47.3z"/>
	</g>
	<g class="st0">
		<path class="st1" d="M58.7,11.1V11c0-2.8,2-4.8,4.6-4.8c2.7,0,4.6,2,4.6,4.8v0.1c0,2.8-2,4.8-4.6,4.8
			C60.6,15.9,58.7,13.9,58.7,11.1z M66.4,11.1V11c0-2.2-1.2-3.6-3.1-3.6c-1.9,0-3.1,1.4-3.1,3.6v0.1c0,2.1,1.2,3.5,3.1,3.5
			C65.2,14.7,66.4,13.2,66.4,11.1z"/>
	</g>
	<g class="st0">
		<path class="st1" d="M73.4,15.9c-1.9,0-3.2-1-3.2-3.7V7.5h-1.3V6.3h2.8v5.9c0,1.6,0.7,2.4,2.1,2.4c1.3,0,2.5-0.9,2.5-2.6V7.5H75
			V6.3h2.8v8.2h1.3v1.2h-2.8v-1.6C75.9,15,74.9,15.9,73.4,15.9z"/>
	</g>
	<g class="st0">
		<path class="st1" d="M88.4,7.5l-2.9,8.2h-1.8l-3.1-8.2h-1.2V6.3h4.1v1.2h-1.3l2.4,6.8L87,7.5h-1.4V6.3h4v1.2H88.4z"/>
	</g>
	<g class="st0">
		<path class="st1" d="M90,11.1V11c0-2.8,1.8-4.8,4.4-4.8c2.2,0,4.2,1.3,4.2,4.7v0.5h-7.1c0.1,2.1,1.1,3.3,3,3.3
			c1.5,0,2.3-0.5,2.5-1.6h1.5c-0.3,1.9-1.9,2.9-4,2.9C91.9,15.9,90,14,90,11.1z M97.1,10.1C97,8.2,96,7.4,94.4,7.4
			c-1.5,0-2.6,1-2.8,2.7H97.1z"/>
	</g>
	<g class="st0">
		<path class="st1" d="M99.7,15.7v-1.2h1.3V3h-1.4V1.8h2.9v12.7h1.3v1.2H99.7z"/>
	</g>
	<g class="st0">
		<path class="st1" d="M104.8,15.7v-1.2h1.3V3h-1.4V1.8h2.9v12.7h1.3v1.2H104.8z"/>
	</g>
	<g class="st0">
		<path class="st1" d="M110,11.1V11c0-2.8,1.8-4.8,4.4-4.8c2.2,0,4.2,1.3,4.2,4.7v0.5h-7.1c0.1,2.1,1.1,3.3,3,3.3
			c1.5,0,2.3-0.5,2.5-1.6h1.5c-0.3,1.9-1.9,2.9-4,2.9C111.8,15.9,110,14,110,11.1z M117.1,10.1c-0.1-1.9-1.2-2.7-2.7-2.7
			c-1.5,0-2.6,1-2.8,2.7H117.1z"/>
	</g>
	<g class="st0">
		<path class="st1" d="M119.8,15.7v-1.2h1.3v-7h-1.4V6.3h2.8v1.5c0.4-0.9,1.4-1.7,2.8-1.7c1.2,0,2.3,0.5,2.8,1.9
			c0.6-1.3,1.9-1.9,3.1-1.9c1.7,0,3.1,1,3.1,3.7v4.7h1.3v1.2h-4.2v-1.2h1.3V9.8c0-1.7-0.6-2.3-1.9-2.3c-1.2,0-2.4,0.8-2.4,2.5v4.6
			h1.4v1.2h-4.2v-1.2h1.4V9.8c0-1.7-0.6-2.3-1.9-2.3c-1.2,0-2.4,0.8-2.4,2.5v4.6h1.4v1.2H119.8z"/>
	</g>
	<g class="st0">
		<path class="st1" d="M136.7,11.1V11c0-2.8,1.8-4.8,4.4-4.8c2.2,0,4.2,1.3,4.2,4.7v0.5h-7.1c0.1,2.1,1.1,3.3,3,3.3
			c1.5,0,2.3-0.5,2.5-1.6h1.5c-0.3,1.9-1.9,2.9-4,2.9C138.6,15.9,136.7,14,136.7,11.1z M143.8,10.1c-0.1-1.9-1.2-2.7-2.7-2.7
			c-1.5,0-2.6,1-2.8,2.7H143.8z"/>
	</g>
	<g class="st0">
		<path class="st1" d="M146.6,15.7v-1.2h1.3v-7h-1.4V6.3h2.8v1.6c0.4-0.9,1.5-1.7,3-1.7c1.9,0,3.3,1,3.3,3.7v4.7h1.3v1.2h-4.2v-1.2
			h1.4V9.8c0-1.6-0.7-2.3-2.2-2.3c-1.3,0-2.6,0.9-2.6,2.5v4.6h1.4v1.2H146.6z"/>
	</g>
	<g class="st0">
		<path class="st1" d="M158.8,13.4V7.6h-1.3V6.3h1.3V4.2h1.5v2.1h2.4v1.3h-2.4v5.7c0,0.9,0.4,1.4,1.4,1.4c0.4,0,0.8-0.1,1.2-0.2v1.3
			c-0.4,0.1-0.8,0.2-1.4,0.2C159.6,15.9,158.8,14.8,158.8,13.4z"/>
		<path class="st1" d="M168.3,11.1V11c0-2.8,1.8-4.8,4.4-4.8c2.2,0,4.2,1.3,4.2,4.7v0.5h-7.1c0.1,2.1,1.1,3.3,3,3.3
			c1.5,0,2.3-0.5,2.5-1.6h1.5c-0.3,1.9-1.9,2.9-4,2.9C170.1,15.9,168.3,14,168.3,11.1z M175.4,10.1c-0.1-1.9-1.2-2.7-2.7-2.7
			c-1.5,0-2.6,1-2.8,2.7H175.4z"/>
		<path class="st1" d="M178.1,15.7v-1.2h1.3v-7h-1.4V6.3h2.8v1.6c0.4-0.9,1.5-1.7,3-1.7c1.9,0,3.3,1,3.3,3.7v4.7h1.3v1.2h-4.2v-1.2
			h1.4V9.8c0-1.6-0.7-2.3-2.2-2.3c-1.3,0-2.6,0.9-2.6,2.5v4.6h1.4v1.2H178.1z"/>
	</g>
	<g class="st0">
		<path class="st1" d="M200.7,12.4h1.5v3.3h-8.8V15l5-5.1c1.3-1.3,1.9-2.4,1.9-3.7c0-1.4-0.8-2.3-2.3-2.3c-1.5,0-2.4,0.8-2.7,2.9
			h-1.5c0.2-2.5,1.7-4.1,4.2-4.1c2.4,0,3.9,1.4,3.9,3.6c0,1.6-1,3.1-2.6,4.7l-3.5,3.5h5V12.4z"/>
	</g>
	<g class="st0">
		<path class="st1" d="M203.8,9.7V8.9c0-3.8,1.9-6.2,5.1-6.2c3.2,0,5,2.5,5,6.2v0.7c0,3.7-1.8,6.3-5,6.3
			C205.8,15.9,203.8,13.4,203.8,9.7z M212.3,9.6V8.9c0-3-1.3-4.9-3.4-4.9s-3.5,1.8-3.5,5v0.7c0,3.3,1.4,5,3.5,5
			C211.2,14.6,212.3,12.9,212.3,9.6z"/>
	</g>
	<g class="st0">
		<path class="st1" d="M222.3,12.4h1.5v3.3H215V15l5-5.1c1.3-1.3,1.9-2.4,1.9-3.7c0-1.4-0.8-2.3-2.3-2.3c-1.5,0-2.4,0.8-2.7,2.9
			h-1.5c0.2-2.5,1.7-4.1,4.2-4.1c2.4,0,3.9,1.4,3.9,3.6c0,1.6-1,3.1-2.6,4.7l-3.5,3.5h5V12.4z"/>
	</g>
	<g class="st0">
		<path class="st1" d="M225.4,9.7V8.9c0-3.8,1.9-6.2,5.1-6.2c3.2,0,5,2.5,5,6.2v0.7c0,3.7-1.8,6.3-5,6.3
			C227.4,15.9,225.4,13.4,225.4,9.7z M233.9,9.6V8.9c0-3-1.3-4.9-3.4-4.9s-3.5,1.8-3.5,5v0.7c0,3.3,1.4,5,3.5,5
			C232.8,14.6,233.9,12.9,233.9,9.6z"/>
	</g>
	<rect x="1.9" y="2.2" class="st2" width="14.1" height="15"/>
</g>
</svg>
