<?xml version="1.0" encoding="utf-8"?>
<!-- Generator: Adobe Illustrator 24.0.1, SVG Export Plug-In . SVG Version: 6.00 Build 0)  -->
<svg version="1.1" id="Calque_1" xmlns="http://www.w3.org/2000/svg" xmlns:xlink="http://www.w3.org/1999/xlink" x="0px" y="0px"
	 viewBox="0 0 510.4 57.2" style="enable-background:new 0 0 510.4 57.2;" xml:space="preserve">
<style type="text/css">
	.st0{enable-background:new    ;}
	.st1{fill:#010101;}
	.st2{fill:#E30613;stroke:#FFFFFF;stroke-width:1.71;}
	.st3{fill:#009FE3;stroke:#FFFFFF;stroke-width:1.71;}
	
		.st4{fill:none;stroke:#009FE3;stroke-width:2;stroke-linecap:round;stroke-linejoin:round;stroke-miterlimit:10;stroke-dasharray:0,5;}
	
		.st5{fill:none;stroke:#E30613;stroke-width:2;stroke-linecap:round;stroke-linejoin:round;stroke-miterlimit:10;stroke-dasharray:0,5;}
</style>
<title>desktop_controlelegende</title>
<g id="charte">
	<g class="st0">
		<path class="st1" d="M207.4,17.1v-1.2h1.6V5.5h-1.6V4.2h5.3c2.5,0,4.5,1.1,4.5,3.8v0.1c0,2.7-2.1,3.8-4.5,3.8h-2.1v4h1.8v1.2
			H207.4z M212.7,10.6c1.8,0,2.8-0.9,2.8-2.6l0,0c0-1.9-1.1-2.5-2.8-2.5h-2.2v5.2L212.7,10.6L212.7,10.6z"/>
	</g>
	<g class="st0">
		<path class="st1" d="M217.9,12.5v-0.1c0-2.8,1.8-4.8,4.4-4.8c2.2,0,4.2,1.3,4.2,4.7v0.5h-7.1c0.1,2.1,1.1,3.3,3,3.3
			c1.5,0,2.3-0.5,2.5-1.6h1.5c-0.3,1.9-1.9,2.9-4,2.9C219.8,17.3,217.9,15.4,217.9,12.5z M225,11.5c-0.1-1.9-1.2-2.7-2.7-2.7
			s-2.6,1-2.8,2.7H225z M222.8,3.4h1.9L222.8,6h-1.1L222.8,3.4z"/>
		<path class="st1" d="M227.8,17.1V16h1.3V9h-1.4V7.7h2.8v1.8c0.4-1,1.4-1.9,3.4-2V9c-2.1,0-3.4,0.6-3.4,2.9v4h1.4v1.2H227.8z"/>
		<path class="st1" d="M235.3,17.1V16h1.3V9h-1.4V7.7h2.8V16h1.4v1.2h-4.1V17.1z M236.2,4.7c0-0.6,0.5-1,1-1s1,0.4,1,1s-0.5,1-1,1
			S236.2,5.3,236.2,4.7z"/>
		<path class="st1" d="M240.5,12.5v-0.1c0-2.8,2-4.8,4.6-4.8c2.7,0,4.6,2,4.6,4.8v0.1c0,2.8-2,4.8-4.6,4.8
			C242.4,17.3,240.5,15.2,240.5,12.5z M248.2,12.5v-0.1c0-2.2-1.2-3.6-3.1-3.6c-1.9,0-3.1,1.4-3.1,3.6v0.1c0,2.1,1.2,3.5,3.1,3.5
			S248.2,14.6,248.2,12.5z"/>
	</g>
	<g class="st0">
		<path class="st1" d="M255.4,17.3c-2.5,0-4.2-1.7-4.2-4.7v-0.1c0-2.9,1.8-4.9,4.4-4.9c1.6,0,2.5,0.8,3.1,1.7V4.4h-1.4V3.2h2.9V16
			h1.3v1.2h-2.8v-1.6C258.1,16.4,256.7,17.3,255.4,17.3z M258.7,12.5v-0.1c0-2.5-1.2-3.6-3-3.6c-1.9,0-3,1.3-3,3.7v0.1
			c0,2.4,1.3,3.6,2.9,3.6C257.3,16.1,258.7,14.9,258.7,12.5z"/>
		<path class="st1" d="M262.4,12.5v-0.1c0-2.8,1.8-4.8,4.4-4.8c2.2,0,4.2,1.3,4.2,4.7v0.5h-7c0.1,2.1,1.1,3.3,3,3.3
			c1.5,0,2.3-0.5,2.5-1.6h1.5c-0.3,1.9-1.9,2.9-4,2.9C264.3,17.3,262.4,15.4,262.4,12.5z M269.5,11.5c-0.1-1.9-1.2-2.7-2.7-2.7
			s-2.6,1-2.8,2.7H269.5z"/>
	</g>
	<g class="st0">
		<path class="st1" d="M273.6,16v1.2h-1.3V14h1.2c0.2,1.1,1.1,2.1,2.5,2.1c1.3,0,1.9-0.5,1.9-1.5s-0.8-1.3-2.2-1.6
			c-2.4-0.4-3.3-1.3-3.3-2.9s1.4-2.5,3-2.5c1.4,0,2,0.5,2.4,1.2v-1h1.3v2.7h-1.2c-0.2-1-1-1.7-2.2-1.7c-1.1,0-1.7,0.4-1.7,1.3
			c0,0.8,0.5,1.2,2.2,1.6c1.9,0.4,3.3,0.9,3.3,2.8c0,1.7-1.2,2.8-3.4,2.8C274.6,17.3,273.9,16.5,273.6,16z"/>
	</g>
	<g class="st0">
		<path class="st1" d="M285,12.5v-0.1c0-2.8,2-4.8,4.6-4.8s4.6,2,4.6,4.8v0.1c0,2.8-2,4.8-4.6,4.8C286.9,17.3,285,15.2,285,12.5z
			 M292.7,12.5v-0.1c0-2.2-1.2-3.6-3.1-3.6s-3.1,1.4-3.1,3.6v0.1c0,2.1,1.2,3.5,3.1,3.5S292.7,14.6,292.7,12.5z"/>
	</g>
	<g class="st0">
		<path class="st1" d="M299.7,17.3c-1.9,0-3.2-1-3.2-3.7V8.9h-1.3V7.7h2.8v5.9c0,1.6,0.7,2.4,2.1,2.4c1.3,0,2.5-0.9,2.5-2.6V8.9
			h-1.3V7.7h2.8V16h1.3v1.2h-2.8v-1.6C302.2,16.4,301.1,17.3,299.7,17.3z M297.8,3.4h1.9l1.1,2.6h-1.1L297.8,3.4z"/>
		<path class="st1" d="M314.8,17.3c-1.9,0-3.2-1-3.2-3.7V8.9h-1.3V7.7h2.8v5.9c0,1.6,0.7,2.4,2.1,2.4c1.3,0,2.5-0.9,2.5-2.6V8.9
			h-1.3V7.7h2.8V16h1.3v1.2h-2.8v-1.6C317.3,16.4,316.2,17.3,314.8,17.3z"/>
		<path class="st1" d="M321.5,17.1V16h1.3V9h-1.4V7.7h2.8v1.6c0.4-0.9,1.5-1.7,3-1.7c1.9,0,3.3,1,3.3,3.7V16h1.3v1.2h-4.2V16h1.4
			v-4.8c0-1.6-0.7-2.3-2.2-2.3c-1.3,0-2.6,0.9-2.6,2.5V16h1.4v1.2h-4.1V17.1z"/>
	</g>
	<g class="st0">
		<path class="st1" d="M336.9,17.1V16h1.3V9h-1.4V7.7h2.8v1.5c0.4-0.9,1.4-1.7,2.8-1.7c1.2,0,2.3,0.5,2.8,1.9
			c0.6-1.3,1.9-1.9,3.1-1.9c1.7,0,3.1,1,3.1,3.7V16h1.3v1.2h-4.2V16h1.4v-4.8c0-1.7-0.6-2.3-1.9-2.3c-1.2,0-2.4,0.8-2.4,2.5V16h1.3
			v1.2h-4.2V16h1.3v-4.8c0-1.7-0.6-2.3-1.9-2.3c-1.2,0-2.4,0.8-2.4,2.5V16h1.4v1.2h-4.2V17.1z"/>
	</g>
	<g class="st0">
		<path class="st1" d="M353.7,12.5v-0.1c0-2.8,1.8-4.8,4.4-4.8c2.2,0,4.2,1.3,4.2,4.7v0.5h-7.1c0.1,2.1,1.1,3.3,3,3.3
			c1.5,0,2.3-0.5,2.5-1.6h1.5c-0.3,1.9-1.9,2.9-4,2.9C355.6,17.3,353.7,15.4,353.7,12.5z M360.8,11.5c-0.1-1.9-1.2-2.7-2.7-2.7
			s-2.6,1-2.8,2.7H360.8z M357.4,3.5h1.4l1.9,2.6h-1.1l-1.5-1.4l-1.5,1.4h-1.1L357.4,3.5z"/>
	</g>
	<g class="st0">
		<path class="st1" d="M363.6,17.1V16h1.3V9h-1.4V7.7h2.8v1.5c0.4-0.9,1.4-1.7,2.8-1.7c1.2,0,2.3,0.5,2.8,1.9
			c0.6-1.3,1.9-1.9,3.1-1.9c1.7,0,3.1,1,3.1,3.7V16h1.3v1.2h-4.2V16h1.3v-4.8c0-1.7-0.6-2.3-1.9-2.3c-1.2,0-2.4,0.8-2.4,2.5V16h1.4
			v1.2h-4.2V16h1.4v-4.8c0-1.7-0.6-2.3-1.9-2.3c-1.2,0-2.4,0.8-2.4,2.5V16h1.4v1.2h-4.3V17.1z"/>
	</g>
	<g class="st0">
		<path class="st1" d="M380.4,12.5v-0.1c0-2.8,1.8-4.8,4.4-4.8c2.2,0,4.2,1.3,4.2,4.7v0.5h-7c0.1,2.1,1.1,3.3,3,3.3
			c1.5,0,2.3-0.5,2.5-1.6h1.5c-0.3,1.9-1.9,2.9-4,2.9C382.3,17.3,380.4,15.4,380.4,12.5z M387.5,11.5c-0.1-1.9-1.2-2.7-2.7-2.7
			s-2.6,1-2.8,2.7H387.5z"/>
	</g>
	<g class="st0">
		<path class="st1" d="M394.4,20.4v-1.2h1.3V8.9h-1.4V7.7h2.8v1.7c0.5-1,1.8-1.8,3.2-1.8c2.5,0,4.3,1.8,4.3,4.7v0.1
			c0,2.9-1.7,4.9-4.3,4.9c-1.5,0-2.6-0.8-3.2-1.7v3.7h1.5v1.2h-4.2V20.4z M403.1,12.5v-0.1c0-2.4-1.3-3.6-2.9-3.6
			c-1.7,0-3.1,1.2-3.1,3.6v0.1c0,2.4,1.3,3.5,3.1,3.5C402.1,16,403.1,14.8,403.1,12.5z"/>
	</g>
	<g class="st0">
		<path class="st1" d="M409,17.3c-1.7,0-3.1-0.8-3.1-2.8c0-2.2,2.3-2.9,4.6-2.9h1.3v-0.7c0-1.6-0.6-2.1-2-2.1
			c-1.3,0-1.9,0.5-2.1,1.7h-1.5c0.2-2.2,1.9-2.9,3.7-2.9c1.8,0,3.4,0.6,3.4,3.4v5h1.3v1.2h-2.8v-1.3C411.3,16.8,410.4,17.3,409,17.3
			z M411.9,13.8v-1.2h-1.3c-1.9,0-3.2,0.5-3.2,1.9c0,0.8,0.4,1.6,1.7,1.6C410.7,16.1,411.9,15.3,411.9,13.8z"/>
	</g>
	<g class="st0">
		<path class="st1" d="M415.6,17.1V16h1.3V9h-1.4V7.7h2.8v1.8c0.5-1,1.4-1.9,3.4-2V9c-2.1,0-3.4,0.6-3.4,2.9v4h1.4v1.2H415.6z"/>
	</g>
	<g class="st0">
		<path class="st1" d="M424.2,14.8V9h-1.3V7.7h1.3V5.6h1.5v2.1h2.4V9h-2.4v5.7c0,0.9,0.4,1.4,1.4,1.4c0.4,0,0.8-0.1,1.2-0.2V17
			c-0.4,0.1-0.8,0.2-1.4,0.2C425.1,17.2,424.2,16.2,424.2,14.8z"/>
		<path class="st1" d="M429.6,17.1V16h1.3V9h-1.4V7.7h2.8V16h1.3v1.2h-4V17.1z M430.5,4.7c0-0.6,0.5-1,1-1c0.6,0,1,0.4,1,1
			s-0.5,1-1,1C431,5.8,430.5,5.3,430.5,4.7z"/>
	</g>
	<g class="st0">
		<path class="st1" d="M446.2,7.7h1.3v3.2h-1.3c-0.3-1.3-1.2-2.1-2.8-2.1c-1.7,0-3,1.4-3,3.6v0.1c0,2.3,1.3,3.5,3.1,3.5
			c1.3,0,2.5-0.8,2.7-2.3h1.4c-0.2,2-1.8,3.5-4.1,3.5c-2.6,0-4.6-1.9-4.6-4.8v-0.1c0-2.9,2.1-4.8,4.6-4.8c1.6,0,2.4,0.6,2.8,1.4V7.7
			H446.2z"/>
	</g>
	<g class="st0">
		<path class="st1" d="M449,12.5v-0.1c0-2.8,2-4.8,4.6-4.8s4.6,2,4.6,4.8v0.1c0,2.8-2,4.8-4.6,4.8C450.9,17.3,449,15.2,449,12.5z
			 M456.7,12.5v-0.1c0-2.2-1.2-3.6-3.1-3.6s-3.1,1.4-3.1,3.6v0.1c0,2.1,1.2,3.5,3.1,3.5S456.7,14.6,456.7,12.5z"/>
	</g>
	<g class="st0">
		<path class="st1" d="M459.5,17.1V16h1.3V9h-1.4V7.7h2.8v1.6c0.4-0.9,1.5-1.7,3-1.7c1.9,0,3.3,1,3.3,3.7V16h1.3v1.2h-4.2V16h1.4
			v-4.8c0-1.6-0.7-2.3-2.2-2.3c-1.3,0-2.6,0.9-2.6,2.5V16h1.4v1.2h-4.1V17.1z"/>
	</g>
	<g class="st0">
		<path class="st1" d="M471.7,14.8V9h-1.3V7.7h1.3V5.6h1.5v2.1h2.4V9h-2.4v5.7c0,0.9,0.4,1.4,1.4,1.4c0.4,0,0.8-0.1,1.2-0.2V17
			c-0.4,0.1-0.8,0.2-1.4,0.2C472.6,17.2,471.7,16.2,471.7,14.8z"/>
	</g>
	<g class="st0">
		<path class="st1" d="M477.1,17.1V16h1.3V9H477V7.7h2.8v1.8c0.5-1,1.4-1.9,3.4-2V9c-2.1,0-3.4,0.6-3.4,2.9v4h1.4v1.2H477.1z"/>
	</g>
	<g class="st0">
		<path class="st1" d="M484.2,12.5v-0.1c0-2.8,2-4.8,4.6-4.8s4.6,2,4.6,4.8v0.1c0,2.8-2,4.8-4.6,4.8
			C486.1,17.3,484.2,15.2,484.2,12.5z M491.9,12.5v-0.1c0-2.2-1.2-3.6-3.1-3.6s-3.1,1.4-3.1,3.6v0.1c0,2.1,1.2,3.5,3.1,3.5
			C490.7,16,491.9,14.6,491.9,12.5z M488.1,3.5h1.3l1.9,2.6h-1.1l-1.5-1.4l-1.5,1.4h-1.1L488.1,3.5z"/>
		<path class="st1" d="M494.6,17.1V16h1.3V4.4h-1.4V3.2h2.9V16h1.3v1.2h-4.1V17.1z"/>
	</g>
	<g class="st0">
		<path class="st1" d="M499.7,12.5v-0.1c0-2.8,1.8-4.8,4.4-4.8c2.2,0,4.2,1.3,4.2,4.7v0.5h-7.1c0.1,2.1,1.1,3.3,3,3.3
			c1.5,0,2.3-0.5,2.5-1.6h1.5c-0.3,1.9-1.9,2.9-4,2.9C501.6,17.3,499.7,15.4,499.7,12.5z M506.8,11.5c-0.1-1.9-1.2-2.7-2.7-2.7
			s-2.6,1-2.8,2.7H506.8z"/>
	</g>
	<g class="st0">
		<path class="st1" d="M207.3,38.7v-1.2h1.3V26h-1.4v-1.2h2.9v12.7h1.3v1.2H207.3z"/>
	</g>
	<g class="st0">
		<path class="st1" d="M212.4,34.1L212.4,34.1c0-2.9,1.8-4.9,4.4-4.9c2.2,0,4.2,1.3,4.2,4.7v0.5h-7c0.1,2.1,1.1,3.3,3,3.3
			c1.5,0,2.3-0.5,2.5-1.6h1.5c-0.3,1.9-1.9,2.9-4,2.9C214.3,38.9,212.4,37,212.4,34.1z M219.5,33.1c-0.1-1.9-1.2-2.7-2.7-2.7
			s-2.6,1-2.8,2.7H219.5z"/>
	</g>
	<g class="st0">
		<path class="st1" d="M232.6,38.9c-3.7,0-6-2.6-6-6.5v-0.1c0-3.8,2.6-6.6,6.1-6.6c1.6,0,3,0.5,3.7,1.7v-1.5h1.4v4h-1.3
			c-0.5-2.1-1.9-3-3.8-3c-2.7,0-4.4,2.1-4.4,5.3v0.1c0,3.3,1.7,5.3,4.4,5.3c2.1,0,3.6-1.1,3.9-3.2h1.5
			C237.5,37.4,235.5,38.9,232.6,38.9z"/>
	</g>
	<g class="st0">
		<path class="st1" d="M239.3,34.1L239.3,34.1c0-2.9,2-4.9,4.6-4.9c2.7,0,4.6,2,4.6,4.8v0.1c0,2.8-2,4.8-4.6,4.8
			C241.3,38.9,239.3,36.8,239.3,34.1z M247,34.1L247,34.1c0-2.3-1.2-3.7-3.1-3.7c-1.9,0-3.1,1.4-3.1,3.6v0.1c0,2.1,1.2,3.5,3.1,3.5
			C245.9,37.6,247,36.2,247,34.1z"/>
	</g>
	<g class="st0">
		<path class="st1" d="M249.8,38.7v-1.2h1.3v-7h-1.4v-1.2h2.8v1.6c0.4-0.9,1.5-1.7,3-1.7c1.9,0,3.3,1,3.3,3.7v4.7h1.3v1.2H256v-1.2
			h1.4v-4.8c0-1.6-0.7-2.3-2.2-2.3c-1.3,0-2.6,0.9-2.6,2.5v4.6h1.4v1.2L249.8,38.7L249.8,38.7z"/>
	</g>
	<g class="st0">
		<path class="st1" d="M261.4,39.3h1.5c0.2,1.1,1.1,1.6,2.7,1.6c1.9,0,3-0.9,3-2.9v-1.4c-0.5,0.9-1.8,1.8-3.2,1.8
			c-2.5,0-4.3-1.9-4.3-4.5v-0.1c0-2.6,1.8-4.7,4.4-4.7c1.6,0,2.5,0.8,3.1,1.7v-1.5h2.8v1.2h-1.3v7.6c0,2.7-1.9,4.1-4.5,4.1
			C262.9,42.2,261.6,40.8,261.4,39.3z M268.7,33.8L268.7,33.8c0-2.2-1.2-3.4-3-3.4c-1.9,0-3,1.4-3,3.4v0.1c0,2.1,1.3,3.3,2.9,3.3
			C267.4,37.2,268.7,35.9,268.7,33.8z"/>
	</g>
	<g class="st0">
		<path class="st1" d="M272.3,38.7v-1.2h1.3v-7h-1.3v-1.2h2.8v1.8c0.5-1,1.4-1.9,3.4-2v1.5c-2.1,0-3.4,0.6-3.4,2.9v4h1.4v1.2H272.3z
			"/>
	</g>
	<g class="st0">
		<path class="st1" d="M279.5,34.1L279.5,34.1c0-2.9,1.8-4.9,4.4-4.9c2.2,0,4.2,1.3,4.2,4.7v0.5H281c0.1,2.1,1.1,3.3,3,3.3
			c1.5,0,2.3-0.5,2.5-1.6h1.5c-0.3,1.9-1.9,2.9-4,2.9C281.3,38.9,279.5,37,279.5,34.1z M286.6,33.1c-0.1-1.9-1.2-2.7-2.7-2.7
			s-2.6,1-2.8,2.7H286.6z M281.6,25h1.9l1.1,2.6h-1.1L281.6,25z"/>
	</g>
	<g class="st0">
		<path class="st1" d="M290.7,37.6v1.2h-1.3v-3.1h1.2c0.2,1.1,1.1,2.1,2.5,2.1c1.3,0,1.9-0.5,1.9-1.5s-0.8-1.3-2.2-1.6
			c-2.4-0.4-3.3-1.3-3.3-2.9s1.4-2.5,3-2.5c1.4,0,2,0.5,2.4,1.2v-1h1.3V32H295c-0.2-1-1-1.7-2.2-1.7c-1.1,0-1.7,0.4-1.7,1.3
			c0,0.8,0.5,1.2,2.2,1.6c1.9,0.4,3.3,0.9,3.3,2.8c0,1.7-1.2,2.8-3.4,2.8C291.7,38.9,290.9,38.1,290.7,37.6z"/>
	</g>
	<g class="st0">
		<path class="st1" d="M302,34.1L302,34.1c0-2.9,1.8-4.9,4.4-4.9c2.2,0,4.2,1.3,4.2,4.7v0.5h-7.1c0.1,2.1,1.1,3.3,3,3.3
			c1.5,0,2.3-0.5,2.5-1.6h1.5c-0.3,1.9-1.9,2.9-4,2.9C303.9,38.9,302,37,302,34.1z M309.1,33.1c-0.1-1.9-1.2-2.7-2.7-2.7
			s-2.6,1-2.8,2.7H309.1z"/>
	</g>
	<g class="st0">
		<path class="st1" d="M313,36.4v-5.8h-1.4v-1.3h1.4v-2.1h1.5v2.1h2.4v1.3h-2.4v5.7c0,0.9,0.4,1.4,1.4,1.4c0.4,0,0.8-0.1,1.2-0.2
			v1.3c-0.4,0.1-0.8,0.2-1.4,0.2C313.8,38.8,313,37.8,313,36.4z"/>
		<path class="st1" d="M322.3,38.7v-1.2h1.3V26h-1.4v-1.2h2.9v12.7h1.3v1.2H322.3z"/>
		<path class="st1" d="M330.6,38.9c-1.7,0-3.1-0.8-3.1-2.8c0-2.2,2.3-2.9,4.6-2.9h1.3v-0.7c0-1.6-0.6-2.1-2-2.1
			c-1.3,0-1.9,0.5-2.1,1.7H328c0.2-2.2,1.9-2.9,3.7-2.9c1.8,0,3.4,0.6,3.4,3.4v5h1.3v1.2h-2.8v-1.3C332.9,38.4,332,38.9,330.6,38.9z
			 M333.5,35.4v-1.2h-1.3c-1.9,0-3.2,0.5-3.2,1.9c0,0.8,0.4,1.6,1.7,1.6C332.3,37.7,333.5,36.9,333.5,35.4z"/>
	</g>
	<g class="st0">
		<path class="st1" d="M346,38.7h-4.7v-1.2h1.6V27.1h-1.6v-1.2h4.1l3.7,10l3.7-10h4v1.2h-1.6v10.4h1.6v1.2H352v-1.2h1.6v-10
			l-4.3,11.2h-0.5l-4.4-11.2v10h1.6L346,38.7L346,38.7z"/>
	</g>
	<g class="st0">
		<path class="st1" d="M361,38.9c-1.7,0-3.1-0.8-3.1-2.8c0-2.2,2.3-2.9,4.6-2.9h1.3v-0.7c0-1.6-0.6-2.1-2-2.1
			c-1.3,0-1.9,0.5-2.1,1.7h-1.5c0.2-2.2,1.9-2.9,3.7-2.9c1.8,0,3.4,0.6,3.4,3.4v5h1.3v1.2h-2.8v-1.3C363.3,38.4,362.3,38.9,361,38.9
			z M363.9,35.4v-1.2h-1.3c-1.9,0-3.2,0.5-3.2,1.9c0,0.8,0.4,1.6,1.7,1.6C362.7,37.7,363.9,36.9,363.9,35.4z"/>
		<path class="st1" d="M367.6,38.7v-1.2h1.3v-7h-1.4v-1.2h2.8v8.2h1.4v1.2H367.6z M368.6,26.3c0-0.6,0.5-1,1-1c0.6,0,1,0.4,1,1
			s-0.5,1-1,1C369,27.4,368.6,26.9,368.6,26.3z"/>
	</g>
	<g class="st0">
		<path class="st1" d="M374.2,37.6v1.2h-1.3v-3.1h1.2c0.2,1.1,1.1,2.1,2.5,2.1c1.3,0,1.9-0.5,1.9-1.5s-0.8-1.3-2.2-1.6
			c-2.4-0.4-3.3-1.3-3.3-2.9s1.3-2.5,3-2.5c1.4,0,2,0.5,2.4,1.2v-1h1.3V32h-1.2c-0.2-1-1-1.7-2.3-1.7c-1.1,0-1.7,0.4-1.7,1.3
			c0,0.8,0.5,1.2,2.2,1.6c1.9,0.4,3.3,0.9,3.3,2.8c0,1.7-1.2,2.8-3.4,2.8C375.2,38.9,374.4,38.1,374.2,37.6z"/>
	</g>
	<g class="st0">
		<path class="st1" d="M381.4,34.1L381.4,34.1c0-2.9,2-4.9,4.6-4.9c2.7,0,4.6,2,4.6,4.8v0.1c0,2.8-2,4.8-4.6,4.8
			S381.4,36.8,381.4,34.1z M389.1,34.1L389.1,34.1c0-2.3-1.2-3.7-3.1-3.7s-3.1,1.4-3.1,3.6v0.1c0,2.1,1.2,3.5,3.1,3.5
			S389.1,36.2,389.1,34.1z"/>
		<path class="st1" d="M391.9,38.7v-1.2h1.3v-7h-1.4v-1.2h2.8v1.6c0.4-0.9,1.5-1.7,3-1.7c1.9,0,3.3,1,3.3,3.7v4.7h1.3v1.2H398v-1.2
			h1.4v-4.8c0-1.6-0.7-2.3-2.2-2.3c-1.3,0-2.6,0.9-2.6,2.5v4.6h1.4v1.2L391.9,38.7L391.9,38.7z"/>
		<path class="st1" d="M407.3,37.5h1.6V27.1h-1.6v-1.2h5.5c2.4,0,4.1,0.8,4.1,3.3v0.1c0,1.2-0.5,2.2-1.9,2.7
			c1.9,0.5,2.6,1.4,2.6,3.1v0.1c0,2.4-1.7,3.6-4.2,3.6h-6v-1.3H407.3z M412.8,31.5c1.9,0,2.6-0.7,2.6-2.3v-0.1
			c0-1.5-0.8-2.1-2.6-2.1h-2.3v4.4h2.3V31.5z M413.3,37.5c1.9,0,2.7-0.8,2.7-2.4V35c0-1.6-0.9-2.3-3-2.3h-2.6v4.8H413.3z"/>
		<path class="st1" d="M418.8,38.7v-1.2h1.3V26h-1.4v-1.2h2.9v12.7h1.3v1.2H418.8z"/>
		<path class="st1" d="M427.1,38.9c-1.7,0-3.1-0.8-3.1-2.8c0-2.2,2.3-2.9,4.6-2.9h1.3v-0.7c0-1.6-0.6-2.1-2-2.1
			c-1.3,0-1.9,0.5-2.1,1.7h-1.5c0.2-2.2,1.9-2.9,3.7-2.9c1.8,0,3.4,0.6,3.4,3.4v5h1.3v1.2H430v-1.3
			C429.4,38.4,428.5,38.9,427.1,38.9z M430,35.4v-1.2h-1.3c-1.9,0-3.2,0.5-3.2,1.9c0,0.8,0.4,1.6,1.7,1.6
			C428.8,37.7,430,36.9,430,35.4z"/>
	</g>
	<g class="st0">
		<path class="st1" d="M433.7,38.7v-1.2h1.3v-7h-1.4v-1.2h2.8v1.6c0.4-0.9,1.5-1.7,3-1.7c1.9,0,3.3,1,3.3,3.7v4.7h1.3v1.2h-4.2v-1.2
			h1.4v-4.8c0-1.6-0.7-2.3-2.2-2.3c-1.3,0-2.6,0.9-2.6,2.5v4.6h1.4v1.2L433.7,38.7L433.7,38.7z"/>
		<path class="st1" d="M452.2,29.3h1.3v3.2h-1.3c-0.3-1.3-1.2-2.1-2.8-2.1c-1.7,0-3,1.4-3,3.6v0.1c0,2.3,1.3,3.5,3.1,3.5
			c1.3,0,2.5-0.8,2.7-2.3h1.4c-0.2,2-1.8,3.5-4.1,3.5c-2.6,0-4.6-1.9-4.6-4.8l0,0c0-2.9,2.1-4.8,4.6-4.8c1.6,0,2.4,0.6,2.8,1.4v-1.3
			H452.2z"/>
		<path class="st1" d="M454.8,38.7v-1.2h1.3V26h-1.4v-1.2h2.8v6.1c0.4-0.9,1.5-1.7,3-1.7c1.9,0,3.3,1,3.3,3.7v4.7h1.3v1.2H461v-1.2
			h1.4v-4.8c0-1.6-0.7-2.3-2.2-2.3c-1.3,0-2.6,0.9-2.6,2.5v4.6h1.4v1.2L454.8,38.7L454.8,38.7z"/>
	</g>
	<g class="st0">
		<path class="st1" d="M466.5,34.1L466.5,34.1c0-2.9,1.8-4.9,4.4-4.9c2.2,0,4.2,1.3,4.2,4.7v0.5H468c0.1,2.1,1.1,3.3,3,3.3
			c1.5,0,2.3-0.5,2.5-1.6h1.5c-0.3,1.9-1.9,2.9-4,2.9C468.4,38.9,466.5,37,466.5,34.1z M473.6,33.1c-0.1-1.9-1.2-2.7-2.7-2.7
			s-2.6,1-2.8,2.7H473.6z"/>
	</g>
	<g class="st0">
		<path class="st1" d="M31.1,18.2V17h1.6V6.6h-1.6V5.3h5.6c2.4,0,4.4,1,4.4,3.6V9c0,2-1.4,3.2-3.2,3.5L41,17h1.2v1.2h-2.1l-3.8-5.6
			h-2V17h1.8v1.2H31.1z M36.7,11.4c1.8,0,2.8-0.8,2.8-2.4V8.9c0-1.6-1.1-2.3-2.8-2.3h-2.4v4.8H36.7z"/>
	</g>
	<g class="st0">
		<path class="st1" d="M42.9,13.6v-0.1c0-2.8,1.8-4.8,4.4-4.8c2.2,0,4.2,1.3,4.2,4.7v0.5h-7.1c0.1,2.1,1.1,3.3,3,3.3
			c1.5,0,2.3-0.5,2.5-1.6h1.5c-0.3,1.9-1.9,2.9-4,2.9C44.7,18.4,42.9,16.5,42.9,13.6z M50,12.6c-0.1-1.9-1.2-2.7-2.7-2.7
			s-2.6,1-2.8,2.7H50z M47.7,4.5h1.9l-1.9,2.6h-1.1L47.7,4.5z"/>
	</g>
	<g class="st0">
		<path class="st1" d="M52.6,21.5v-1.2H54V10h-1.4V8.8h2.8v1.7c0.5-1,1.8-1.8,3.2-1.8c2.5,0,4.3,1.8,4.3,4.7v0.1
			c0,2.9-1.7,4.9-4.3,4.9c-1.5,0-2.6-0.8-3.2-1.7v3.7h1.5v1.2h-4.3V21.5z M61.4,13.6v-0.1c0-2.4-1.3-3.6-2.9-3.6
			c-1.7,0-3.1,1.2-3.1,3.6v0.1c0,2.4,1.3,3.5,3.1,3.5C60.4,17.1,61.4,15.9,61.4,13.6z"/>
	</g>
	<g class="st0">
		<path class="st1" d="M68.4,18.4c-1.9,0-3.2-1-3.2-3.7V10h-1.3V8.8h2.8v5.9c0,1.6,0.7,2.4,2.1,2.4c1.3,0,2.5-0.9,2.5-2.6V10H70V8.8
			h2.8V17h1.3v1.2h-2.8v-1.6C70.9,17.5,69.8,18.4,68.4,18.4z"/>
	</g>
	<g class="st0">
		<path class="st1" d="M77.8,16.6v1.6H75V17h1.3V5.5H75V4.3h2.8v6.2c0.5-1,1.8-1.8,3.2-1.8c2.5,0,4.3,1.8,4.3,4.7v0.1
			c0,2.9-1.7,4.9-4.3,4.9C79.5,18.4,78.4,17.6,77.8,16.6z M83.8,13.6v-0.1c0-2.4-1.3-3.6-2.9-3.6c-1.7,0-3.1,1.2-3.1,3.6v0.1
			c0,2.4,1.3,3.5,3.1,3.5C82.8,17.1,83.8,15.9,83.8,13.6z"/>
	</g>
	<g class="st0">
		<path class="st1" d="M86.5,18.2V17h1.3V5.5h-1.4V4.3h2.9V17h1.3v1.2H86.5z"/>
		<path class="st1" d="M91.6,18.2V17h1.3v-7h-1.4V8.8h2.8V17h1.4v1.2H91.6z M92.6,5.8c0-0.6,0.5-1,1-1s1,0.4,1,1s-0.5,1-1,1
			S92.6,6.4,92.6,5.8z"/>
	</g>
	<g class="st0">
		<path class="st1" d="M104.2,8.8h1.3V12h-1.3c-0.3-1.3-1.2-2.1-2.8-2.1c-1.7,0-3,1.4-3,3.6v0.1c0,2.3,1.3,3.5,3.1,3.5
			c1.3,0,2.5-0.8,2.7-2.3h1.4c-0.2,2-1.8,3.5-4.1,3.5c-2.6,0-4.6-1.9-4.6-4.8v-0.1c0-2.9,2.1-4.8,4.6-4.8c1.6,0,2.4,0.6,2.8,1.4
			L104.2,8.8L104.2,8.8z"/>
	</g>
	<g class="st0">
		<path class="st1" d="M110.1,18.4c-1.7,0-3.1-0.8-3.1-2.8c0-2.2,2.3-2.9,4.6-2.9h1.3V12c0-1.6-0.6-2.1-2-2.1
			c-1.3,0-1.9,0.5-2.1,1.7h-1.5c0.2-2.2,1.9-2.9,3.7-2.9c1.8,0,3.4,0.6,3.4,3.4v5h1.3v1.2H113V17C112.4,17.9,111.4,18.4,110.1,18.4z
			 M113,14.9v-1.2h-1.3c-1.9,0-3.2,0.5-3.2,1.9c0,0.8,0.4,1.6,1.7,1.6C111.8,17.2,113,16.4,113,14.9z"/>
		<path class="st1" d="M116.7,18.2V17h1.3v-7h-1.4V8.8h2.8V17h1.4v1.2H116.7z M117.7,5.8c0-0.6,0.5-1,1-1s1,0.4,1,1s-0.5,1-1,1
			S117.7,6.4,117.7,5.8z"/>
		<path class="st1" d="M121.8,18.2V17h1.3v-7h-1.4V8.8h2.8v1.6c0.4-0.9,1.5-1.7,3-1.7c1.9,0,3.3,1,3.3,3.7v4.7h1.3v1.2H128v-1.2h1.4
			v-4.8c0-1.6-0.7-2.3-2.2-2.3c-1.3,0-2.6,0.9-2.6,2.5v4.6h1.4v1.2h-4.2V18.2z"/>
		<path class="st1" d="M134.6,17.1v1.2h-1.3v-3.1h1.2c0.2,1.1,1.1,2.1,2.5,2.1c1.3,0,1.9-0.5,1.9-1.5s-0.8-1.3-2.2-1.6
			c-2.4-0.4-3.3-1.3-3.3-2.9s1.4-2.5,3-2.5c1.4,0,2,0.5,2.4,1.2V9h1.3v2.7h-1.2c-0.2-1-1-1.7-2.3-1.7c-1.1,0-1.7,0.4-1.7,1.3
			c0,0.8,0.5,1.2,2.2,1.6c1.9,0.4,3.3,0.9,3.3,2.8c0,1.7-1.2,2.8-3.4,2.8C135.6,18.4,134.9,17.6,134.6,17.1z"/>
	</g>
	<g class="st0">
		<path class="st1" d="M31.9,50.5h1.6V40.1h-1.6v-1.2h5c4.4,0,6.5,2.7,6.5,6.3v0.2c0,3.6-2.1,6.4-6.6,6.4h-5L31.9,50.5L31.9,50.5z
			 M36.9,50.5c3.3,0,5-2,5-5.1v-0.1c0-3-1.4-5.1-5-5.1h-1.7v10.3C35.2,50.5,36.9,50.5,36.9,50.5z"/>
	</g>
	<g class="st0">
		<path class="st1" d="M44.9,47.2V47c0-2.8,1.8-4.8,4.4-4.8c2.2,0,4.2,1.3,4.2,4.7v0.5h-7.1c0.1,2.1,1.1,3.3,3,3.3
			c1.5,0,2.3-0.5,2.5-1.6h1.5c-0.3,1.9-1.9,2.9-4,2.9C46.8,51.9,44.9,50.1,44.9,47.2z M52,46.2c-0.1-1.9-1.2-2.7-2.7-2.7
			s-2.6,1-2.8,2.7H52z M49.7,38.1h1.9l-1.9,2.6h-1.1L49.7,38.1z"/>
	</g>
	<g class="st0">
		<path class="st1" d="M54.8,51.8v-1.2h1.3v-7h-1.4v-1.2h2.8v1.5c0.4-0.9,1.4-1.7,2.8-1.7c1.2,0,2.3,0.5,2.8,1.9
			c0.6-1.3,1.9-1.9,3.1-1.9c1.7,0,3.1,1,3.1,3.7v4.7h1.3v1.2h-4.2v-1.2h1.4v-4.8c0-1.7-0.6-2.3-1.9-2.3c-1.2,0-2.4,0.8-2.4,2.5v4.6
			h1.4v1.2h-4.2v-1.2H62v-4.8c0-1.7-0.6-2.3-1.9-2.3c-1.2,0-2.4,0.8-2.4,2.5v4.6h1.4v1.2H54.8z"/>
	</g>
	<g class="st0">
		<path class="st1" d="M71.6,47.1L71.6,47.1c0-2.9,2-4.9,4.6-4.9c2.7,0,4.6,2,4.6,4.8v0.1c0,2.8-2,4.8-4.6,4.8
			C73.5,51.9,71.6,49.9,71.6,47.1z M79.3,47.1L79.3,47.1c0-2.3-1.2-3.7-3.1-3.7s-3.1,1.4-3.1,3.6v0.1c0,2.1,1.2,3.5,3.1,3.5
			C78.1,50.7,79.3,49.3,79.3,47.1z"/>
		<path class="st1" d="M89.6,42.4h1.3v3.2h-1.3c-0.3-1.3-1.2-2.1-2.8-2.1c-1.7,0-3,1.4-3,3.6v0.1c0,2.3,1.3,3.5,3.1,3.5
			c1.3,0,2.5-0.8,2.7-2.3H91c-0.2,2-1.8,3.5-4.1,3.5c-2.6,0-4.6-1.9-4.6-4.8V47c0-2.9,2.1-4.8,4.6-4.8c1.6,0,2.4,0.6,2.8,1.4
			L89.6,42.4L89.6,42.4z"/>
	</g>
	<g class="st0">
		<path class="st1" d="M92.4,51.8v-1.2h1.3v-7h-1.4v-1.2h2.8v1.8c0.5-1,1.4-1.9,3.4-2v1.5c-2.1,0-3.4,0.6-3.4,2.9v4h1.4v1.2H92.4z"
			/>
	</g>
	<g class="st0">
		<path class="st1" d="M102.6,51.9c-1.7,0-3.1-0.8-3.1-2.8c0-2.2,2.3-2.9,4.6-2.9h1.3v-0.7c0-1.6-0.6-2.1-2-2.1
			c-1.3,0-1.9,0.5-2.1,1.7h-1.5c0.2-2.2,1.9-2.9,3.7-2.9c1.8,0,3.4,0.6,3.4,3.4v5h1.3v1.2h-2.8v-1.3
			C104.8,51.4,103.9,51.9,102.6,51.9z M105.5,48.5v-1.2h-1.3c-1.9,0-3.2,0.5-3.2,1.9c0,0.8,0.4,1.6,1.7,1.6
			C104.3,50.7,105.5,49.9,105.5,48.5z"/>
	</g>
	<g class="st0">
		<path class="st1" d="M110.1,49.4v-5.8h-1.4v-1.3h1.4v-2.1h1.5v2.1h2.4v1.3h-2.4v5.7c0,0.9,0.4,1.4,1.4,1.4c0.4,0,0.8-0.1,1.2-0.2
			v1.3c-0.4,0.1-0.8,0.2-1.4,0.2C110.9,51.9,110.1,50.9,110.1,49.4z"/>
	</g>
	<g class="st0">
		<path class="st1" d="M115.2,47.2V47c0-2.8,1.8-4.8,4.4-4.8c2.2,0,4.2,1.3,4.2,4.7v0.5h-7.1c0.1,2.1,1.1,3.3,3,3.3
			c1.5,0,2.3-0.5,2.5-1.6h1.5c-0.3,1.9-1.9,2.9-4,2.9C117.1,51.9,115.2,50.1,115.2,47.2z M122.4,46.2c-0.1-1.9-1.2-2.7-2.7-2.7
			s-2.6,1-2.8,2.7H122.4z"/>
	</g>
	<g class="st0">
		<path class="st1" d="M126.5,50.6v1.2h-1.3v-3.1h1.2c0.2,1.1,1.1,2.1,2.5,2.1c1.3,0,1.9-0.5,1.9-1.5s-0.8-1.3-2.2-1.6
			c-2.4-0.4-3.3-1.3-3.3-2.9c0-1.6,1.4-2.5,3-2.5c1.4,0,2,0.5,2.4,1.2v-1h1.3v2.7h-1.2c-0.2-1-1-1.7-2.3-1.7c-1.1,0-1.7,0.4-1.7,1.3
			c0,0.8,0.5,1.2,2.2,1.6c1.9,0.4,3.3,0.9,3.3,2.8c0,1.7-1.2,2.8-3.4,2.8C127.5,51.9,126.7,51.2,126.5,50.6z"/>
	</g>
	<rect x="2.6" y="1.3" class="st2" width="22.4" height="22.4"/>
	<rect x="2.6" y="34.8" class="st3" width="22.4" height="22.4"/>
</g>
<line class="st4" x1="193" y1="7.5" x2="193" y2="39"/>
<line class="st5" x1="198.4" y1="7.5" x2="198.4" y2="39"/>
</svg>
