<?xml version="1.0" encoding="utf-8"?>
<!-- Generator: Adobe Illustrator 24.0.1, SVG Export Plug-In . SVG Version: 6.00 Build 0)  -->
<svg version="1.1" xmlns="http://www.w3.org/2000/svg" xmlns:xlink="http://www.w3.org/1999/xlink" x="0px" y="0px"
	 viewBox="0 0 916 341.8" style="enable-background:new 0 0 916 341.8;" xml:space="preserve">
<style type="text/css">
	.st0{fill:#83D0F5;stroke:#FFFFFF;stroke-width:2.97;stroke-miterlimit:10;}
	.st1{fill:#E3E2E2;stroke:#FFFFFF;stroke-width:2.97;stroke-miterlimit:10;}
	.st2{fill:#F3997B;stroke:#FFFFFF;stroke-width:2.97;stroke-miterlimit:10;}
	.st3{fill:none;stroke:#1D1D1B;stroke-width:2.97;stroke-miterlimit:10;}
	.st4{fill:none;stroke:#1D1D1B;stroke-width:2.97;stroke-linecap:round;stroke-linejoin:round;}
	.st5{fill:none;stroke:#1D1D1B;stroke-width:2.97;stroke-linecap:round;stroke-linejoin:round;stroke-dasharray:0,5.8565;}
	.st6{fill:none;stroke:#1D1D1B;stroke-width:2.97;stroke-linecap:round;stroke-linejoin:round;stroke-dasharray:0,6.05;}
	.st7{fill:none;stroke:#1D1D1B;stroke-width:2.97;stroke-linecap:round;stroke-linejoin:round;stroke-dasharray:0,5.8826;}
	.st8{fill:none;stroke:#1D1D1B;stroke-width:2.97;stroke-linecap:round;stroke-linejoin:round;stroke-dasharray:0,5.94;}
	.st9{enable-background:new    ;}
	.st10{fill:#1D1D1B;}
	.st11{fill:#83D0F5;}
	.st12{fill:#F3997B;}
	.st13{fill:none;stroke:#FFFFFF;stroke-width:2.97;stroke-miterlimit:10;}
</style>
<g id="Calque_1">
	<title>desktop_majorites</title>
	<g id="charte">
		<polygon class="st0" points="895.5,77.1 901.5,82 895.5,86.9 889.4,82 		"/>
		<polygon class="st0" points="895.5,59.7 901.5,64.6 895.5,69.5 889.4,64.6 		"/>
		<polygon class="st0" points="895.5,42.3 901.5,47.2 895.5,52.2 889.4,47.2 		"/>
		<polygon class="st0" points="895.5,94.5 901.5,99.4 895.5,104.3 889.4,99.4 		"/>
		<polygon class="st0" points="895.5,111.8 901.5,116.8 895.5,121.7 889.4,116.8 		"/>
		<polygon class="st0" points="895.5,129.2 901.5,134.1 895.5,139 889.4,134.1 		"/>
		<polygon class="st0" points="895.5,146.6 901.5,151.5 895.5,156.4 889.4,151.5 		"/>
		<polygon class="st0" points="895.5,164 901.5,168.9 895.5,173.8 889.4,168.9 		"/>
		<polygon class="st0" points="895.5,181.4 901.5,186.3 895.5,191.2 889.4,186.3 		"/>
		<polygon class="st0" points="895.5,198.8 901.5,203.7 895.5,208.6 889.4,203.6 		"/>
		<polygon class="st0" points="895.5,216.1 901.5,221.1 895.5,225.9 889.4,221 		"/>
		<polygon class="st0" points="895.5,233.5 901.5,238.4 895.5,243.3 889.4,238.4 		"/>
		<polygon class="st0" points="895.5,250.9 901.5,255.8 895.5,260.7 889.4,255.8 		"/>
		<polygon class="st0" points="895.5,268.3 901.5,273.2 895.5,278.1 889.4,273.2 		"/>
		<polygon class="st0" points="895.5,285.6 901.5,290.6 895.5,295.5 889.4,290.5 		"/>
		<polygon class="st0" points="883.4,42.3 889.5,47.2 883.4,52.2 877.4,47.2 		"/>
		<polygon class="st0" points="883.4,59.7 889.5,64.6 883.4,69.5 877.4,64.6 		"/>
		<polygon class="st0" points="883.4,77.1 889.5,82 883.4,86.9 877.4,82 		"/>
		<polygon class="st0" points="883.4,94.5 889.5,99.4 883.4,104.3 877.4,99.4 		"/>
		<polygon class="st0" points="883.4,111.8 889.5,116.8 883.4,121.7 877.4,116.8 		"/>
		<polygon class="st0" points="883.4,129.2 889.5,134.1 883.4,139 877.4,134.1 		"/>
		<polygon class="st0" points="883.4,146.6 889.5,151.5 883.4,156.4 877.4,151.5 		"/>
		<polygon class="st0" points="883.4,164 889.5,168.9 883.4,173.8 877.4,168.9 		"/>
		<polygon class="st0" points="883.4,181.4 889.5,186.3 883.4,191.2 877.4,186.3 		"/>
		<polygon class="st0" points="883.4,198.8 889.5,203.7 883.4,208.6 877.4,203.6 		"/>
		<polygon class="st0" points="883.4,216.1 889.5,221.1 883.4,225.9 877.4,221 		"/>
		<polygon class="st0" points="883.4,233.5 889.5,238.4 883.4,243.3 877.4,238.4 		"/>
		<polygon class="st0" points="883.4,250.9 889.5,255.8 883.4,260.7 877.4,255.8 		"/>
		<polygon class="st0" points="883.4,268.3 889.5,273.2 883.4,278.1 877.4,273.2 		"/>
		<polygon class="st0" points="883.4,285.6 889.5,290.6 883.4,295.5 877.4,290.5 		"/>
		<polygon class="st0" points="871.3,42.3 877.4,47.2 871.3,52.2 865.3,47.2 		"/>
		<polygon class="st0" points="871.3,59.7 877.4,64.6 871.3,69.5 865.3,64.6 		"/>
		<polygon class="st0" points="871.3,77.1 877.4,82 871.3,86.9 865.3,82 		"/>
		<polygon class="st0" points="871.3,94.5 877.4,99.4 871.3,104.3 865.3,99.4 		"/>
		<polygon class="st0" points="871.3,111.8 877.4,116.8 871.3,121.7 865.3,116.8 		"/>
		<polygon class="st0" points="871.3,129.2 877.4,134.1 871.3,139 865.3,134.1 		"/>
		<polygon class="st0" points="871.3,146.6 877.4,151.5 871.3,156.4 865.3,151.5 		"/>
		<polygon class="st0" points="871.3,164 877.4,168.9 871.3,173.8 865.3,168.9 		"/>
		<polygon class="st0" points="871.3,181.4 877.4,186.3 871.3,191.2 865.3,186.3 		"/>
		<polygon class="st0" points="871.3,198.8 877.4,203.7 871.3,208.6 865.3,203.6 		"/>
		<polygon class="st0" points="871.3,216.1 877.4,221.1 871.3,225.9 865.3,221 		"/>
		<polygon class="st0" points="871.3,233.5 877.4,238.4 871.3,243.3 865.3,238.4 		"/>
		<polygon class="st0" points="871.3,250.9 877.4,255.8 871.3,260.7 865.3,255.8 		"/>
		<polygon class="st0" points="871.3,268.3 877.4,273.2 871.3,278.1 865.3,273.2 		"/>
		<polygon class="st0" points="871.3,285.6 877.4,290.6 871.3,295.5 865.3,290.5 		"/>
		<polygon class="st0" points="859.2,42.3 865.3,47.2 859.3,52.2 853.2,47.2 		"/>
		<polygon class="st0" points="859.2,59.7 865.3,64.6 859.3,69.5 853.2,64.6 		"/>
		<polygon class="st0" points="859.2,77.1 865.3,82 859.3,86.9 853.2,82 		"/>
		<polygon class="st0" points="859.2,94.5 865.3,99.4 859.3,104.3 853.2,99.4 		"/>
		<polygon class="st0" points="859.2,111.8 865.3,116.8 859.3,121.7 853.2,116.8 		"/>
		<polygon class="st0" points="859.2,129.2 865.3,134.1 859.3,139 853.2,134.1 		"/>
		<polygon class="st0" points="859.2,146.6 865.3,151.5 859.3,156.4 853.2,151.5 		"/>
		<polygon class="st0" points="859.2,164 865.3,168.9 859.3,173.8 853.2,168.9 		"/>
		<polygon class="st0" points="859.2,181.4 865.3,186.3 859.3,191.2 853.2,186.3 		"/>
		<polygon class="st0" points="859.2,198.8 865.3,203.7 859.3,208.6 853.2,203.6 		"/>
		<polygon class="st0" points="859.2,216.1 865.3,221.1 859.3,225.9 853.2,221 		"/>
		<polygon class="st0" points="859.2,233.5 865.3,238.4 859.3,243.3 853.2,238.4 		"/>
		<polygon class="st0" points="859.2,250.9 865.3,255.8 859.3,260.7 853.2,255.8 		"/>
		<polygon class="st0" points="859.2,268.3 865.3,273.2 859.3,278.1 853.2,273.2 		"/>
		<polygon class="st0" points="859.2,285.6 865.3,290.6 859.3,295.5 853.2,290.5 		"/>
		<polygon class="st0" points="847.2,42.3 853.2,47.2 847.2,52.2 841.1,47.2 		"/>
		<polygon class="st0" points="847.2,59.7 853.2,64.6 847.2,69.5 841.1,64.6 		"/>
		<polygon class="st0" points="847.2,77.1 853.2,82 847.2,86.9 841.1,82 		"/>
		<polygon class="st0" points="847.2,94.5 853.2,99.4 847.2,104.3 841.1,99.4 		"/>
		<polygon class="st0" points="847.2,111.8 853.2,116.8 847.2,121.7 841.1,116.8 		"/>
		<polygon class="st0" points="847.2,129.2 853.2,134.1 847.2,139 841.1,134.1 		"/>
		<polygon class="st0" points="847.2,146.6 853.2,151.5 847.2,156.4 841.1,151.5 		"/>
		<polygon class="st0" points="847.2,164 853.2,168.9 847.2,173.8 841.1,168.9 		"/>
		<polygon class="st0" points="847.2,181.4 853.2,186.3 847.2,191.2 841.1,186.3 		"/>
		<polygon class="st0" points="847.2,198.8 853.2,203.7 847.2,208.6 841.1,203.6 		"/>
		<polygon class="st0" points="847.2,216.1 853.2,221.1 847.2,225.9 841.1,221 		"/>
		<polygon class="st0" points="847.2,233.5 853.2,238.4 847.2,243.3 841.1,238.4 		"/>
		<polygon class="st0" points="847.2,250.9 853.2,255.8 847.2,260.7 841.1,255.8 		"/>
		<polygon class="st0" points="847.2,268.3 853.2,273.2 847.2,278.1 841.1,273.2 		"/>
		<polygon class="st0" points="847.2,285.6 853.2,290.6 847.2,295.5 841.1,290.5 		"/>
		<polygon class="st0" points="835.1,42.3 841.2,47.2 835.1,52.2 829.1,47.2 		"/>
		<polygon class="st0" points="835.1,59.7 841.2,64.6 835.1,69.5 829.1,64.6 		"/>
		<polygon class="st0" points="835.1,77.1 841.2,82 835.1,86.9 829.1,82 		"/>
		<polygon class="st0" points="835.1,94.5 841.2,99.4 835.1,104.3 829.1,99.4 		"/>
		<polygon class="st0" points="835.1,111.8 841.2,116.8 835.1,121.7 829.1,116.8 		"/>
		<polygon class="st0" points="835.1,129.2 841.2,134.1 835.1,139 829.1,134.1 		"/>
		<polygon class="st0" points="835.1,146.6 841.2,151.5 835.1,156.4 829.1,151.5 		"/>
		<polygon class="st0" points="835.1,164 841.2,168.9 835.1,173.8 829.1,168.9 		"/>
		<polygon class="st0" points="835.1,181.4 841.2,186.3 835.1,191.2 829.1,186.3 		"/>
		<polygon class="st0" points="835.1,198.8 841.2,203.7 835.1,208.6 829.1,203.6 		"/>
		<polygon class="st0" points="835.1,216.1 841.2,221.1 835.1,225.9 829.1,221 		"/>
		<polygon class="st0" points="835.1,233.5 841.2,238.4 835.1,243.3 829.1,238.4 		"/>
		<polygon class="st0" points="835.1,250.9 841.2,255.8 835.1,260.7 829.1,255.8 		"/>
		<polygon class="st0" points="835.1,268.3 841.2,273.2 835.1,278.1 829.1,273.2 		"/>
		<polygon class="st0" points="835.1,285.6 841.2,290.6 835.1,295.5 829.1,290.5 		"/>
		<polygon class="st0" points="823,42.3 829.1,47.2 823,52.2 817,47.2 		"/>
		<polygon class="st0" points="823,59.7 829.1,64.6 823,69.5 817,64.6 		"/>
		<polygon class="st0" points="823,77.1 829.1,82 823,86.9 817,82 		"/>
		<polygon class="st0" points="823,94.5 829.1,99.4 823,104.3 817,99.4 		"/>
		<polygon class="st0" points="823,111.8 829.1,116.8 823,121.7 817,116.8 		"/>
		<polygon class="st0" points="823,129.2 829.1,134.1 823,139 817,134.1 		"/>
		<polygon class="st0" points="823,146.6 829.1,151.5 823,156.4 817,151.5 		"/>
		<polygon class="st0" points="823,164 829.1,168.9 823,173.8 817,168.9 		"/>
		<polygon class="st0" points="823,181.4 829.1,186.3 823,191.2 817,186.3 		"/>
		<polygon class="st0" points="823,198.8 829.1,203.7 823,208.6 817,203.6 		"/>
		<polygon class="st0" points="823,216.1 829.1,221.1 823,225.9 817,221 		"/>
		<polygon class="st0" points="823,233.5 829.1,238.4 823,243.3 817,238.4 		"/>
		<polygon class="st0" points="823,250.9 829.1,255.8 823,260.7 817,255.8 		"/>
		<polygon class="st0" points="823,268.3 829.1,273.2 823,278.1 817,273.2 		"/>
		<polygon class="st0" points="823,285.6 829.1,290.6 823,295.5 817,290.5 		"/>
		<polygon class="st0" points="810.9,42.3 817,47.2 811,52.2 804.9,47.2 		"/>
		<polygon class="st0" points="810.9,59.7 817,64.6 811,69.5 804.9,64.6 		"/>
		<polygon class="st0" points="810.9,77.1 817,82 811,86.9 804.9,82 		"/>
		<polygon class="st0" points="810.9,94.5 817,99.4 811,104.3 804.9,99.4 		"/>
		<polygon class="st0" points="810.9,111.8 817,116.8 811,121.7 804.9,116.8 		"/>
		<polygon class="st0" points="810.9,129.2 817,134.1 811,139 804.9,134.1 		"/>
		<polygon class="st0" points="810.9,146.6 817,151.5 811,156.4 804.9,151.5 		"/>
		<polygon class="st0" points="810.9,164 817,168.9 811,173.8 804.9,168.9 		"/>
		<polygon class="st0" points="810.9,181.4 817,186.3 811,191.2 804.9,186.3 		"/>
		<polygon class="st0" points="810.9,198.8 817,203.7 811,208.6 804.9,203.6 		"/>
		<polygon class="st0" points="810.9,216.1 817,221.1 811,225.9 804.9,221 		"/>
		<polygon class="st0" points="810.9,233.5 817,238.4 811,243.3 804.9,238.4 		"/>
		<polygon class="st0" points="810.9,250.9 817,255.8 811,260.7 804.9,255.8 		"/>
		<polygon class="st0" points="810.9,268.3 817,273.2 811,278.1 804.9,273.2 		"/>
		<polygon class="st0" points="810.9,285.6 817,290.6 811,295.5 804.9,290.5 		"/>
		<polygon class="st0" points="798.9,42.3 804.9,47.2 798.9,52.2 792.8,47.2 		"/>
		<polygon class="st0" points="798.9,59.7 804.9,64.6 798.9,69.5 792.8,64.6 		"/>
		<polygon class="st0" points="798.9,77.1 804.9,82 798.9,86.9 792.8,82 		"/>
		<polygon class="st0" points="798.9,94.5 804.9,99.4 798.9,104.3 792.8,99.4 		"/>
		<polygon class="st0" points="798.9,111.8 804.9,116.8 798.9,121.7 792.8,116.8 		"/>
		<polygon class="st0" points="798.9,129.2 804.9,134.1 798.9,139 792.8,134.1 		"/>
		<polygon class="st0" points="798.9,146.6 804.9,151.5 798.9,156.4 792.8,151.5 		"/>
		<polygon class="st0" points="798.9,164 804.9,168.9 798.9,173.8 792.8,168.9 		"/>
		<polygon class="st0" points="798.9,181.4 804.9,186.3 798.9,191.2 792.8,186.3 		"/>
		<polygon class="st0" points="798.9,198.8 804.9,203.7 798.9,208.6 792.8,203.6 		"/>
		<polygon class="st0" points="798.9,216.1 804.9,221.1 798.9,225.9 792.8,221 		"/>
		<polygon class="st0" points="798.9,233.5 804.9,238.4 798.9,243.3 792.8,238.4 		"/>
		<polygon class="st0" points="798.9,250.9 804.9,255.8 798.9,260.7 792.8,255.8 		"/>
		<polygon class="st0" points="798.9,268.3 804.9,273.2 798.9,278.1 792.8,273.2 		"/>
		<polygon class="st0" points="798.9,285.6 804.9,290.6 798.9,295.5 792.8,290.5 		"/>
		<polygon class="st0" points="786.8,42.3 792.8,47.2 786.8,52.2 780.8,47.2 		"/>
		<polygon class="st0" points="786.8,59.7 792.8,64.6 786.8,69.5 780.8,64.6 		"/>
		<polygon class="st0" points="786.8,77.1 792.8,82 786.8,86.9 780.8,82 		"/>
		<polygon class="st0" points="786.8,94.5 792.8,99.4 786.8,104.3 780.8,99.4 		"/>
		<polygon class="st0" points="786.8,111.8 792.8,116.8 786.8,121.7 780.8,116.8 		"/>
		<polygon class="st0" points="786.8,129.2 792.8,134.1 786.8,139 780.8,134.1 		"/>
		<polygon class="st0" points="786.8,146.6 792.8,151.5 786.8,156.4 780.8,151.5 		"/>
		<polygon class="st0" points="786.8,164 792.8,168.9 786.8,173.8 780.8,168.9 		"/>
		<polygon class="st0" points="786.8,181.4 792.8,186.3 786.8,191.2 780.8,186.3 		"/>
		<polygon class="st0" points="786.8,198.8 792.8,203.7 786.8,208.6 780.8,203.6 		"/>
		<polygon class="st0" points="786.8,216.1 792.8,221.1 786.8,225.9 780.8,221 		"/>
		<polygon class="st0" points="786.8,233.5 792.8,238.4 786.8,243.3 780.8,238.4 		"/>
		<polygon class="st0" points="786.8,250.9 792.8,255.8 786.8,260.7 780.8,255.8 		"/>
		<polygon class="st0" points="786.8,268.3 792.8,273.2 786.8,278.1 780.8,273.2 		"/>
		<polygon class="st0" points="786.8,285.6 792.8,290.6 786.8,295.5 780.8,290.5 		"/>
		<polygon class="st0" points="774.7,42.3 780.8,47.2 774.7,52.2 768.7,47.2 		"/>
		<polygon class="st0" points="774.7,59.7 780.8,64.6 774.7,69.5 768.7,64.6 		"/>
		<polygon class="st0" points="774.7,77.1 780.8,82 774.7,86.9 768.7,82 		"/>
		<polygon class="st0" points="774.7,94.5 780.8,99.4 774.7,104.3 768.7,99.4 		"/>
		<polygon class="st0" points="774.7,111.8 780.8,116.8 774.7,121.7 768.7,116.8 		"/>
		<polygon class="st0" points="774.7,129.2 780.8,134.1 774.7,139 768.7,134.1 		"/>
		<polygon class="st0" points="774.7,146.6 780.8,151.5 774.7,156.4 768.7,151.5 		"/>
		<polygon class="st0" points="774.7,164 780.8,168.9 774.7,173.8 768.7,168.9 		"/>
		<polygon class="st0" points="774.7,181.4 780.8,186.3 774.7,191.2 768.7,186.3 		"/>
		<polygon class="st0" points="774.7,198.8 780.8,203.7 774.7,208.6 768.7,203.6 		"/>
		<polygon class="st0" points="774.7,216.1 780.8,221.1 774.7,225.9 768.7,221 		"/>
		<polygon class="st0" points="774.7,233.5 780.8,238.4 774.7,243.3 768.7,238.4 		"/>
		<polygon class="st0" points="774.7,250.9 780.8,255.8 774.7,260.7 768.7,255.8 		"/>
		<polygon class="st0" points="774.7,268.3 780.8,273.2 774.7,278.1 768.7,273.2 		"/>
		<polygon class="st0" points="774.7,285.6 780.8,290.6 774.7,295.5 768.7,290.5 		"/>
		<polygon class="st0" points="762.6,42.3 768.7,47.2 762.7,52.2 756.6,47.2 		"/>
		<polygon class="st0" points="762.6,59.7 768.7,64.6 762.7,69.5 756.6,64.6 		"/>
		<polygon class="st0" points="762.6,77.1 768.7,82 762.7,86.9 756.6,82 		"/>
		<polygon class="st0" points="762.6,94.5 768.7,99.4 762.7,104.3 756.6,99.4 		"/>
		<polygon class="st0" points="762.6,111.8 768.7,116.8 762.7,121.7 756.6,116.8 		"/>
		<polygon class="st0" points="762.6,129.2 768.7,134.1 762.7,139 756.6,134.1 		"/>
		<polygon class="st0" points="762.6,146.6 768.7,151.5 762.7,156.4 756.6,151.5 		"/>
		<polygon class="st0" points="762.6,164 768.7,168.9 762.7,173.8 756.6,168.9 		"/>
		<polygon class="st0" points="762.6,181.4 768.7,186.3 762.7,191.2 756.6,186.3 		"/>
		<polygon class="st0" points="762.6,198.8 768.7,203.7 762.7,208.6 756.6,203.6 		"/>
		<polygon class="st0" points="762.6,216.1 768.7,221.1 762.7,225.9 756.6,221 		"/>
		<polygon class="st0" points="762.6,233.5 768.7,238.4 762.7,243.3 756.6,238.4 		"/>
		<polygon class="st0" points="762.6,250.9 768.7,255.8 762.7,260.7 756.6,255.8 		"/>
		<polygon class="st0" points="762.6,268.3 768.7,273.2 762.7,278.1 756.6,273.2 		"/>
		<polygon class="st0" points="762.6,285.6 768.7,290.6 762.7,295.5 756.6,290.5 		"/>
		<polygon class="st0" points="750.6,42.3 756.6,47.2 750.6,52.2 744.5,47.2 		"/>
		<polygon class="st0" points="750.6,59.7 756.6,64.6 750.6,69.5 744.5,64.6 		"/>
		<polygon class="st0" points="750.6,77.1 756.6,82 750.6,86.9 744.5,82 		"/>
		<polygon class="st0" points="750.6,94.5 756.6,99.4 750.6,104.3 744.5,99.4 		"/>
		<polygon class="st0" points="750.6,111.8 756.6,116.8 750.6,121.7 744.5,116.8 		"/>
		<polygon class="st0" points="750.6,129.2 756.6,134.1 750.6,139 744.5,134.1 		"/>
		<polygon class="st0" points="750.6,146.6 756.6,151.5 750.6,156.4 744.5,151.5 		"/>
		<polygon class="st0" points="750.6,164 756.6,168.9 750.6,173.8 744.5,168.9 		"/>
		<polygon class="st0" points="750.6,181.4 756.6,186.3 750.6,191.2 744.5,186.3 		"/>
		<polygon class="st0" points="750.6,198.8 756.6,203.7 750.6,208.6 744.5,203.6 		"/>
		<polygon class="st0" points="750.6,216.1 756.6,221.1 750.6,225.9 744.5,221 		"/>
		<polygon class="st0" points="750.6,233.5 756.6,238.4 750.6,243.3 744.5,238.4 		"/>
		<polygon class="st0" points="750.6,250.9 756.6,255.8 750.6,260.7 744.5,255.8 		"/>
		<polygon class="st0" points="750.6,268.3 756.6,273.2 750.6,278.1 744.5,273.2 		"/>
		<polygon class="st0" points="750.6,285.6 756.6,290.6 750.6,295.5 744.5,290.5 		"/>
		<polygon class="st0" points="738.5,42.3 744.5,47.2 738.5,52.2 732.5,47.2 		"/>
		<polygon class="st0" points="738.5,59.7 744.5,64.6 738.5,69.5 732.5,64.6 		"/>
		<polygon class="st0" points="738.5,77.1 744.5,82 738.5,86.9 732.5,82 		"/>
		<polygon class="st0" points="738.5,94.5 744.5,99.4 738.5,104.3 732.5,99.4 		"/>
		<polygon class="st0" points="738.5,111.8 744.5,116.8 738.5,121.7 732.5,116.8 		"/>
		<polygon class="st0" points="738.5,129.2 744.5,134.1 738.5,139 732.5,134.1 		"/>
		<polygon class="st0" points="738.5,146.6 744.5,151.5 738.5,156.4 732.5,151.5 		"/>
		<polygon class="st0" points="738.5,164 744.5,168.9 738.5,173.8 732.5,168.9 		"/>
		<polygon class="st0" points="738.5,181.4 744.5,186.3 738.5,191.2 732.5,186.3 		"/>
		<polygon class="st0" points="738.5,198.8 744.5,203.7 738.5,208.6 732.5,203.6 		"/>
		<polygon class="st0" points="738.5,216.1 744.5,221.1 738.5,225.9 732.5,221 		"/>
		<polygon class="st0" points="738.5,233.5 744.5,238.4 738.5,243.3 732.5,238.4 		"/>
		<polygon class="st0" points="738.5,250.9 744.5,255.8 738.5,260.7 732.5,255.8 		"/>
		<polygon class="st0" points="738.5,268.3 744.5,273.2 738.5,278.1 732.5,273.2 		"/>
		<polygon class="st0" points="738.5,285.6 744.5,290.6 738.5,295.5 732.5,290.5 		"/>
		<polygon class="st0" points="726.4,42.3 732.5,47.2 726.4,52.2 720.4,47.2 		"/>
		<polygon class="st0" points="726.4,59.7 732.5,64.6 726.4,69.5 720.4,64.6 		"/>
		<polygon class="st0" points="726.4,77.1 732.5,82 726.4,86.9 720.4,82 		"/>
		<polygon class="st0" points="726.4,94.5 732.5,99.4 726.4,104.3 720.4,99.4 		"/>
		<polygon class="st0" points="726.4,111.8 732.5,116.8 726.4,121.7 720.4,116.8 		"/>
		<polygon class="st0" points="726.4,129.2 732.5,134.1 726.4,139 720.4,134.1 		"/>
		<polygon class="st0" points="726.4,146.6 732.5,151.5 726.4,156.4 720.4,151.5 		"/>
		<polygon class="st0" points="726.4,164 732.5,168.9 726.4,173.8 720.4,168.9 		"/>
		<polygon class="st0" points="726.4,181.4 732.5,186.3 726.4,191.2 720.4,186.3 		"/>
		<polygon class="st0" points="726.4,198.8 732.5,203.7 726.4,208.6 720.4,203.6 		"/>
		<polygon class="st0" points="726.4,216.1 732.5,221.1 726.4,225.9 720.4,221 		"/>
		<polygon class="st0" points="726.4,233.5 732.5,238.4 726.4,243.3 720.4,238.4 		"/>
		<polygon class="st0" points="726.4,250.9 732.5,255.8 726.4,260.7 720.4,255.8 		"/>
		<polygon class="st0" points="726.4,268.3 732.5,273.2 726.4,278.1 720.4,273.2 		"/>
		<polygon class="st0" points="726.4,285.6 732.5,290.6 726.4,295.5 720.4,290.5 		"/>
		<polygon class="st0" points="714.3,42.3 720.4,47.2 714.4,52.2 708.3,47.2 		"/>
		<polygon class="st0" points="714.3,59.7 720.4,64.6 714.4,69.5 708.3,64.6 		"/>
		<polygon class="st0" points="714.3,77.1 720.4,82 714.4,86.9 708.3,82 		"/>
		<polygon class="st0" points="714.3,94.5 720.4,99.4 714.4,104.3 708.3,99.4 		"/>
		<polygon class="st0" points="714.3,111.8 720.4,116.8 714.4,121.7 708.3,116.8 		"/>
		<polygon class="st0" points="714.3,129.2 720.4,134.1 714.4,139 708.3,134.1 		"/>
		<polygon class="st0" points="714.3,146.6 720.4,151.5 714.4,156.4 708.3,151.5 		"/>
		<polygon class="st1" points="714.3,164 720.4,168.9 714.4,173.8 708.3,168.9 		"/>
		<polygon class="st1" points="714.3,181.4 720.4,186.3 714.4,191.2 708.3,186.3 		"/>
		<polygon class="st1" points="714.3,198.8 720.4,203.7 714.4,208.6 708.3,203.6 		"/>
		<polygon class="st1" points="714.3,216.1 720.4,221.1 714.4,225.9 708.3,221 		"/>
		<polygon class="st1" points="714.3,233.5 720.4,238.4 714.4,243.3 708.3,238.4 		"/>
		<polygon class="st1" points="714.3,250.9 720.4,255.8 714.4,260.7 708.3,255.8 		"/>
		<polygon class="st2" points="714.3,268.3 720.4,273.2 714.4,278.1 708.3,273.2 		"/>
		<polygon class="st2" points="714.3,285.6 720.4,290.6 714.4,295.5 708.3,290.5 		"/>
		<polygon class="st2" points="702.3,42.3 708.3,47.2 702.3,52.2 696.2,47.2 		"/>
		<polygon class="st2" points="702.3,59.7 708.3,64.6 702.3,69.5 696.2,64.6 		"/>
		<polygon class="st2" points="702.3,77.1 708.3,82 702.3,86.9 696.2,82 		"/>
		<polygon class="st2" points="702.3,94.5 708.3,99.4 702.3,104.3 696.2,99.4 		"/>
		<polygon class="st2" points="702.3,111.8 708.3,116.8 702.3,121.7 696.2,116.8 		"/>
		<polygon class="st2" points="702.3,129.2 708.3,134.1 702.3,139 696.2,134.1 		"/>
		<polygon class="st2" points="702.3,146.6 708.3,151.5 702.3,156.4 696.2,151.5 		"/>
		<polygon class="st2" points="702.3,164 708.3,168.9 702.3,173.8 696.2,168.9 		"/>
		<polygon class="st2" points="702.3,181.4 708.3,186.3 702.3,191.2 696.2,186.3 		"/>
		<polygon class="st2" points="702.3,198.8 708.3,203.7 702.3,208.6 696.2,203.6 		"/>
		<polygon class="st2" points="702.3,216.1 708.3,221.1 702.3,225.9 696.2,221 		"/>
		<polygon class="st2" points="702.3,233.5 708.3,238.4 702.3,243.3 696.2,238.4 		"/>
		<polygon class="st2" points="702.3,250.9 708.3,255.8 702.3,260.7 696.2,255.8 		"/>
		<polygon class="st2" points="702.3,268.3 708.3,273.2 702.3,278.1 696.2,273.2 		"/>
		<polygon class="st2" points="702.3,285.6 708.3,290.6 702.3,295.5 696.2,290.5 		"/>
		<polygon class="st2" points="690.2,42.3 696.2,47.2 690.2,52.2 684.2,47.2 		"/>
		<polygon class="st2" points="690.2,59.7 696.2,64.6 690.2,69.5 684.2,64.6 		"/>
		<polygon class="st2" points="690.2,77.1 696.2,82 690.2,86.9 684.2,82 		"/>
		<polygon class="st2" points="690.2,94.5 696.2,99.4 690.2,104.3 684.2,99.4 		"/>
		<polygon class="st2" points="690.2,111.8 696.2,116.8 690.2,121.7 684.2,116.8 		"/>
		<polygon class="st2" points="690.2,129.2 696.2,134.1 690.2,139 684.2,134.1 		"/>
		<polygon class="st2" points="690.2,146.6 696.2,151.5 690.2,156.4 684.2,151.5 		"/>
		<polygon class="st2" points="690.2,164 696.2,168.9 690.2,173.8 684.2,168.9 		"/>
		<polygon class="st2" points="690.2,181.4 696.2,186.3 690.2,191.2 684.2,186.3 		"/>
		<polygon class="st2" points="690.2,198.8 696.2,203.7 690.2,208.6 684.2,203.6 		"/>
		<polygon class="st2" points="690.2,216.1 696.2,221.1 690.2,225.9 684.2,221 		"/>
		<polygon class="st2" points="690.2,233.5 696.2,238.4 690.2,243.3 684.2,238.4 		"/>
		<polygon class="st2" points="690.2,250.9 696.2,255.8 690.2,260.7 684.2,255.8 		"/>
		<polygon class="st2" points="690.2,268.3 696.2,273.2 690.2,278.1 684.2,273.2 		"/>
		<polygon class="st2" points="690.2,285.6 696.2,290.6 690.2,295.5 684.2,290.5 		"/>
		<polygon class="st2" points="678.1,42.3 684.2,47.2 678.1,52.2 672.1,47.2 		"/>
		<polygon class="st2" points="678.1,59.7 684.2,64.6 678.1,69.5 672.1,64.6 		"/>
		<polygon class="st2" points="678.1,77.1 684.2,82 678.1,86.9 672.1,82 		"/>
		<polygon class="st2" points="678.1,94.5 684.2,99.4 678.1,104.3 672.1,99.4 		"/>
		<polygon class="st2" points="678.1,111.8 684.2,116.8 678.1,121.7 672.1,116.8 		"/>
		<polygon class="st2" points="678.1,129.2 684.2,134.1 678.1,139 672.1,134.1 		"/>
		<polygon class="st2" points="678.1,146.6 684.2,151.5 678.1,156.4 672.1,151.5 		"/>
		<polygon class="st2" points="678.1,164 684.2,168.9 678.1,173.8 672.1,168.9 		"/>
		<polygon class="st2" points="678.1,181.4 684.2,186.3 678.1,191.2 672.1,186.3 		"/>
		<polygon class="st2" points="678.1,198.8 684.2,203.7 678.1,208.6 672.1,203.6 		"/>
		<polygon class="st2" points="678.1,216.1 684.2,221.1 678.1,225.9 672.1,221 		"/>
		<polygon class="st2" points="678.1,233.5 684.2,238.4 678.1,243.3 672.1,238.4 		"/>
		<polygon class="st2" points="678.1,250.9 684.2,255.8 678.1,260.7 672.1,255.8 		"/>
		<polygon class="st2" points="678.1,268.3 684.2,273.2 678.1,278.1 672.1,273.2 		"/>
		<polygon class="st2" points="678.1,285.6 684.2,290.6 678.1,295.5 672.1,290.5 		"/>
		<polygon class="st2" points="666,42.3 672.1,47.2 666.1,52.2 660,47.2 		"/>
		<polygon class="st2" points="666,59.7 672.1,64.6 666.1,69.5 660,64.6 		"/>
		<polygon class="st2" points="666,77.1 672.1,82 666.1,86.9 660,82 		"/>
		<polygon class="st2" points="666,94.5 672.1,99.4 666.1,104.3 660,99.4 		"/>
		<polygon class="st2" points="666,111.8 672.1,116.8 666.1,121.7 660,116.8 		"/>
		<polygon class="st2" points="666,129.2 672.1,134.1 666.1,139 660,134.1 		"/>
		<polygon class="st2" points="666,146.6 672.1,151.5 666.1,156.4 660,151.5 		"/>
		<polygon class="st2" points="666,164 672.1,168.9 666.1,173.8 660,168.9 		"/>
		<polygon class="st2" points="666,181.4 672.1,186.3 666.1,191.2 660,186.3 		"/>
		<polygon class="st2" points="666,198.8 672.1,203.7 666.1,208.6 660,203.6 		"/>
		<polygon class="st2" points="666,216.1 672.1,221.1 666.1,225.9 660,221 		"/>
		<polygon class="st2" points="666,233.5 672.1,238.4 666.1,243.3 660,238.4 		"/>
		<polygon class="st2" points="666,250.9 672.1,255.8 666.1,260.7 660,255.8 		"/>
		<polygon class="st2" points="666,268.3 672.1,273.2 666.1,278.1 660,273.2 		"/>
		<polygon class="st2" points="666,285.6 672.1,290.6 666.1,295.5 660,290.5 		"/>
		<polygon class="st2" points="654,42.3 660,47.2 654,52.2 647.9,47.2 		"/>
		<polygon class="st2" points="654,59.7 660,64.6 654,69.5 647.9,64.6 		"/>
		<polygon class="st2" points="654,77.1 660,82 654,86.9 647.9,82 		"/>
		<polygon class="st2" points="654,94.5 660,99.4 654,104.3 647.9,99.4 		"/>
		<polygon class="st2" points="654,111.8 660,116.8 654,121.7 647.9,116.8 		"/>
		<polygon class="st2" points="654,129.2 660,134.1 654,139 647.9,134.1 		"/>
		<polygon class="st2" points="654,146.6 660,151.5 654,156.4 647.9,151.5 		"/>
		<polygon class="st2" points="654,164 660,168.9 654,173.8 647.9,168.9 		"/>
		<polygon class="st2" points="654,181.4 660,186.3 654,191.2 647.9,186.3 		"/>
		<polygon class="st2" points="654,198.8 660,203.7 654,208.6 647.9,203.6 		"/>
		<polygon class="st2" points="654,216.1 660,221.1 654,225.9 647.9,221 		"/>
		<polygon class="st2" points="654,233.5 660,238.4 654,243.3 647.9,238.4 		"/>
		<polygon class="st2" points="654,250.9 660,255.8 654,260.7 647.9,255.8 		"/>
		<polygon class="st2" points="654,268.3 660,273.2 654,278.1 647.9,273.2 		"/>
		<polygon class="st2" points="654,285.6 660,290.6 654,295.5 647.9,290.5 		"/>
		<polygon class="st2" points="641.9,42.3 648,47.2 641.9,52.2 635.8,47.2 		"/>
		<polygon class="st2" points="641.9,59.7 648,64.6 641.9,69.5 635.8,64.6 		"/>
		<polygon class="st2" points="641.9,77.1 648,82 641.9,86.9 635.8,82 		"/>
		<polygon class="st2" points="641.9,94.5 648,99.4 641.9,104.3 635.8,99.4 		"/>
		<polygon class="st2" points="641.9,111.8 648,116.8 641.9,121.7 635.8,116.8 		"/>
		<polygon class="st2" points="641.9,129.2 648,134.1 641.9,139 635.8,134.1 		"/>
		<polygon class="st2" points="641.9,146.6 648,151.5 641.9,156.4 635.8,151.5 		"/>
		<polygon class="st2" points="641.9,164 648,168.9 641.9,173.8 635.8,168.9 		"/>
		<polygon class="st2" points="641.9,181.4 648,186.3 641.9,191.2 635.8,186.3 		"/>
		<polygon class="st2" points="641.9,198.8 648,203.7 641.9,208.6 635.8,203.6 		"/>
		<polygon class="st2" points="641.9,216.1 648,221.1 641.9,225.9 635.8,221 		"/>
		<polygon class="st2" points="641.9,233.5 648,238.4 641.9,243.3 635.8,238.4 		"/>
		<polygon class="st2" points="641.9,250.9 648,255.8 641.9,260.7 635.8,255.8 		"/>
		<polygon class="st2" points="641.9,268.3 648,273.2 641.9,278.1 635.8,273.2 		"/>
		<polygon class="st2" points="641.9,285.6 648,290.6 641.9,295.5 635.8,290.5 		"/>
		<polygon class="st2" points="629.8,42.3 635.9,47.2 629.8,52.2 623.8,47.2 		"/>
		<polygon class="st2" points="629.8,59.7 635.9,64.6 629.8,69.5 623.8,64.6 		"/>
		<polygon class="st2" points="629.8,77.1 635.9,82 629.8,86.9 623.8,82 		"/>
		<polygon class="st2" points="629.8,94.5 635.9,99.4 629.8,104.3 623.8,99.4 		"/>
		<polygon class="st2" points="629.8,111.8 635.9,116.8 629.8,121.7 623.8,116.8 		"/>
		<polygon class="st2" points="629.8,129.2 635.9,134.1 629.8,139 623.8,134.1 		"/>
		<polygon class="st2" points="629.8,146.6 635.9,151.5 629.8,156.4 623.8,151.5 		"/>
		<polygon class="st2" points="629.8,164 635.9,168.9 629.8,173.8 623.8,168.9 		"/>
		<polygon class="st2" points="629.8,181.4 635.9,186.3 629.8,191.2 623.8,186.3 		"/>
		<polygon class="st2" points="629.8,198.8 635.9,203.7 629.8,208.6 623.8,203.6 		"/>
		<polygon class="st2" points="629.8,216.1 635.9,221.1 629.8,225.9 623.8,221 		"/>
		<polygon class="st2" points="629.8,233.5 635.9,238.4 629.8,243.3 623.8,238.4 		"/>
		<polygon class="st2" points="629.8,250.9 635.9,255.8 629.8,260.7 623.8,255.8 		"/>
		<polygon class="st2" points="629.8,268.3 635.9,273.2 629.8,278.1 623.8,273.2 		"/>
		<polygon class="st2" points="629.8,285.6 635.9,290.6 629.8,295.5 623.8,290.5 		"/>
		<polygon class="st2" points="617.7,42.3 623.8,47.2 617.8,52.2 611.7,47.2 		"/>
		<polygon class="st2" points="617.7,59.7 623.8,64.6 617.8,69.5 611.7,64.6 		"/>
		<polygon class="st2" points="617.7,77.1 623.8,82 617.8,86.9 611.7,82 		"/>
		<polygon class="st2" points="617.7,94.5 623.8,99.4 617.8,104.3 611.7,99.4 		"/>
		<polygon class="st2" points="617.7,111.8 623.8,116.8 617.8,121.7 611.7,116.8 		"/>
		<polygon class="st2" points="617.7,129.2 623.8,134.1 617.8,139 611.7,134.1 		"/>
		<polygon class="st2" points="617.7,146.6 623.8,151.5 617.8,156.4 611.7,151.5 		"/>
		<polygon class="st2" points="617.7,164 623.8,168.9 617.8,173.8 611.7,168.9 		"/>
		<polygon class="st2" points="617.7,181.4 623.8,186.3 617.8,191.2 611.7,186.3 		"/>
		<polygon class="st2" points="617.7,198.8 623.8,203.7 617.8,208.6 611.7,203.6 		"/>
		<polygon class="st2" points="617.7,216.1 623.8,221.1 617.8,225.9 611.7,221 		"/>
		<polygon class="st2" points="617.7,233.5 623.8,238.4 617.8,243.3 611.7,238.4 		"/>
		<polygon class="st2" points="617.7,250.9 623.8,255.8 617.8,260.7 611.7,255.8 		"/>
		<polygon class="st2" points="617.7,268.3 623.8,273.2 617.8,278.1 611.7,273.2 		"/>
		<polygon class="st2" points="617.7,285.6 623.8,290.6 617.8,295.5 611.7,290.5 		"/>
		<polygon class="st2" points="605.7,42.3 611.7,47.2 605.7,52.2 599.6,47.2 		"/>
		<polygon class="st2" points="605.7,59.7 611.7,64.6 605.7,69.5 599.6,64.6 		"/>
		<polygon class="st2" points="605.7,77.1 611.7,82 605.7,86.9 599.6,82 		"/>
		<polygon class="st2" points="605.7,94.5 611.7,99.4 605.7,104.3 599.6,99.4 		"/>
		<polygon class="st2" points="605.7,111.8 611.7,116.8 605.7,121.7 599.6,116.8 		"/>
		<polygon class="st2" points="605.7,129.2 611.7,134.1 605.7,139 599.6,134.1 		"/>
		<polygon class="st2" points="605.7,146.6 611.7,151.5 605.7,156.4 599.6,151.5 		"/>
		<polygon class="st2" points="605.7,164 611.7,168.9 605.7,173.8 599.6,168.9 		"/>
		<polygon class="st2" points="605.7,181.4 611.7,186.3 605.7,191.2 599.6,186.3 		"/>
		<polygon class="st2" points="605.7,198.8 611.7,203.7 605.7,208.6 599.6,203.6 		"/>
		<polygon class="st2" points="605.7,216.1 611.7,221.1 605.7,225.9 599.6,221 		"/>
		<polygon class="st2" points="605.7,233.5 611.7,238.4 605.7,243.3 599.6,238.4 		"/>
		<polygon class="st2" points="605.7,250.9 611.7,255.8 605.7,260.7 599.6,255.8 		"/>
		<polygon class="st2" points="605.7,268.3 611.7,273.2 605.7,278.1 599.6,273.2 		"/>
		<polygon class="st2" points="605.7,285.6 611.7,290.6 605.7,295.5 599.6,290.5 		"/>
		<polygon class="st2" points="593.6,42.3 599.7,47.2 593.6,52.2 587.5,47.2 		"/>
		<polygon class="st2" points="593.6,59.7 599.7,64.6 593.6,69.5 587.5,64.6 		"/>
		<polygon class="st2" points="593.6,77.1 599.7,82 593.6,86.9 587.5,82 		"/>
		<polygon class="st2" points="593.6,94.5 599.7,99.4 593.6,104.3 587.5,99.4 		"/>
		<polygon class="st2" points="593.6,111.8 599.7,116.8 593.6,121.7 587.5,116.8 		"/>
		<polygon class="st2" points="593.6,129.2 599.7,134.1 593.6,139 587.5,134.1 		"/>
		<polygon class="st2" points="593.6,146.6 599.7,151.5 593.6,156.4 587.5,151.5 		"/>
		<polygon class="st2" points="593.6,164 599.7,168.9 593.6,173.8 587.5,168.9 		"/>
		<polygon class="st2" points="593.6,181.4 599.7,186.3 593.6,191.2 587.5,186.3 		"/>
		<polygon class="st2" points="593.6,198.8 599.7,203.7 593.6,208.6 587.5,203.6 		"/>
		<polygon class="st2" points="593.6,216.1 599.7,221.1 593.6,225.9 587.5,221 		"/>
		<polygon class="st2" points="593.6,233.5 599.7,238.4 593.6,243.3 587.5,238.4 		"/>
		<polygon class="st2" points="593.6,250.9 599.7,255.8 593.6,260.7 587.5,255.8 		"/>
		<polygon class="st2" points="593.6,268.3 599.7,273.2 593.6,278.1 587.5,273.2 		"/>
		<polygon class="st2" points="593.6,285.6 599.7,290.6 593.6,295.5 587.5,290.5 		"/>
		<polygon class="st2" points="581.5,42.3 587.6,47.2 581.5,52.2 575.5,47.2 		"/>
		<polygon class="st2" points="581.5,59.7 587.6,64.6 581.5,69.5 575.5,64.6 		"/>
		<polygon class="st2" points="581.5,77.1 587.6,82 581.5,86.9 575.5,82 		"/>
		<polygon class="st2" points="581.5,94.5 587.6,99.4 581.5,104.3 575.5,99.4 		"/>
		<polygon class="st2" points="581.5,111.8 587.6,116.8 581.5,121.7 575.5,116.8 		"/>
		<polygon class="st2" points="581.5,129.2 587.6,134.1 581.5,139 575.5,134.1 		"/>
		<polygon class="st2" points="581.5,146.6 587.6,151.5 581.5,156.4 575.5,151.5 		"/>
		<polygon class="st2" points="581.5,164 587.6,168.9 581.5,173.8 575.5,168.9 		"/>
		<polygon class="st2" points="581.5,181.4 587.6,186.3 581.5,191.2 575.5,186.3 		"/>
		<polygon class="st2" points="581.5,198.8 587.6,203.7 581.5,208.6 575.5,203.6 		"/>
		<polygon class="st2" points="581.5,216.1 587.6,221.1 581.5,225.9 575.5,221 		"/>
		<polygon class="st2" points="581.5,233.5 587.6,238.4 581.5,243.3 575.5,238.4 		"/>
		<polygon class="st2" points="581.5,250.9 587.6,255.8 581.5,260.7 575.5,255.8 		"/>
		<polygon class="st2" points="581.5,268.3 587.6,273.2 581.5,278.1 575.5,273.2 		"/>
		<polygon class="st2" points="581.5,285.6 587.6,290.6 581.5,295.5 575.5,290.5 		"/>
		<polygon class="st2" points="569.4,42.3 575.5,47.2 569.5,52.2 563.4,47.2 		"/>
		<polygon class="st2" points="569.4,59.7 575.5,64.6 569.5,69.5 563.4,64.6 		"/>
		<polygon class="st2" points="569.4,77.1 575.5,82 569.5,86.9 563.4,82 		"/>
		<polygon class="st2" points="569.4,94.5 575.5,99.4 569.5,104.3 563.4,99.4 		"/>
		<polygon class="st2" points="569.4,111.8 575.5,116.8 569.5,121.7 563.4,116.8 		"/>
		<polygon class="st2" points="569.4,129.2 575.5,134.1 569.5,139 563.4,134.1 		"/>
		<polygon class="st2" points="569.4,146.6 575.5,151.5 569.5,156.4 563.4,151.5 		"/>
		<polygon class="st2" points="569.4,164 575.5,168.9 569.5,173.8 563.4,168.9 		"/>
		<polygon class="st2" points="569.4,181.4 575.5,186.3 569.5,191.2 563.4,186.3 		"/>
		<polygon class="st2" points="569.4,198.8 575.5,203.7 569.5,208.6 563.4,203.6 		"/>
		<polygon class="st2" points="569.4,216.1 575.5,221.1 569.5,225.9 563.4,221 		"/>
		<polygon class="st2" points="569.4,233.5 575.5,238.4 569.5,243.3 563.4,238.4 		"/>
		<polygon class="st2" points="569.4,250.9 575.5,255.8 569.5,260.7 563.4,255.8 		"/>
		<polygon class="st2" points="569.4,268.3 575.5,273.2 569.5,278.1 563.4,273.2 		"/>
		<polygon class="st2" points="569.4,285.6 575.5,290.6 569.5,295.5 563.4,290.5 		"/>
		<polygon class="st2" points="557.4,42.3 563.4,47.2 557.4,52.2 551.3,47.2 		"/>
		<polygon class="st2" points="557.4,59.7 563.4,64.6 557.4,69.5 551.3,64.6 		"/>
		<polygon class="st2" points="557.4,77.1 563.4,82 557.4,86.9 551.3,82 		"/>
		<polygon class="st2" points="557.4,94.5 563.4,99.4 557.4,104.3 551.3,99.4 		"/>
		<polygon class="st2" points="557.4,111.8 563.4,116.8 557.4,121.7 551.3,116.8 		"/>
		<polygon class="st2" points="557.4,129.2 563.4,134.1 557.4,139 551.3,134.1 		"/>
		<polygon class="st2" points="557.4,146.6 563.4,151.5 557.4,156.4 551.3,151.5 		"/>
		<polygon class="st2" points="557.4,164 563.4,168.9 557.4,173.8 551.3,168.9 		"/>
		<polygon class="st2" points="557.4,181.4 563.4,186.3 557.4,191.2 551.3,186.3 		"/>
		<polygon class="st2" points="557.4,198.8 563.4,203.7 557.4,208.6 551.3,203.6 		"/>
		<polygon class="st2" points="557.4,216.1 563.4,221.1 557.4,225.9 551.3,221 		"/>
		<polygon class="st2" points="557.4,233.5 563.4,238.4 557.4,243.3 551.3,238.4 		"/>
		<polygon class="st2" points="557.4,250.9 563.4,255.8 557.4,260.7 551.3,255.8 		"/>
		<polygon class="st2" points="557.4,268.3 563.4,273.2 557.4,278.1 551.3,273.2 		"/>
		<polygon class="st2" points="557.4,285.6 563.4,290.6 557.4,295.5 551.3,290.5 		"/>
		<polyline class="st3" points="726.5,306 538.5,306 538.5,34.2 726.5,34.2 		"/>
		<polyline class="st3" points="726.5,34.2 913.1,34.2 913.1,306 726.5,306 		"/>
	</g>
	<g id="Calque_1_1_">
		<g>
			<g>
				<line class="st4" x1="720.4" y1="34.2" x2="720.4" y2="34.2"/>
				<line class="st5" x1="720.4" y1="40.1" x2="720.4" y2="166"/>
				<line class="st4" x1="720.4" y1="168.9" x2="720.4" y2="168.9"/>
				<line class="st6" x1="726.5" y1="168.9" x2="729.5" y2="168.9"/>
				<line class="st4" x1="732.5" y1="168.9" x2="732.5" y2="168.9"/>
				<line class="st7" x1="732.5" y1="174.8" x2="732.5" y2="301.3"/>
				<line class="st4" x1="732.5" y1="304.2" x2="732.5" y2="304.2"/>
			</g>
		</g>
		<line class="st8" x1="185.5" y1="29.8" x2="185.5" y2="310"/>
	</g>
	<g id="Mode_Isolation">
		<g class="st9">
			<path class="st10" d="M538,14.8V8.9c0-1.5,0.3-2.7,1-3.4s1.8-1.1,3.3-1.1s2.6,0.3,3.3,1s1,1.7,1,3.2v2.1h-2.7V9
				c0-0.7-0.1-1.2-0.4-1.5S542.9,7,542.3,7c-0.6,0-1,0.2-1.3,0.5s-0.4,0.9-0.4,1.8v5.3c0,0.9,0.1,1.5,0.4,1.8
				c0.3,0.3,0.7,0.5,1.3,0.5s1-0.1,1.3-0.4s0.4-0.8,0.4-1.6v-2.1h2.7V15c0,1.5-0.4,2.6-1,3.3c-0.7,0.7-1.8,1-3.3,1
				c-1.6,0-2.7-0.3-3.3-1S538,16.5,538,14.8z"/>
			<path class="st10" d="M553.9,19.2V13H551v6.3h-2.7V4.6h2.7v5.7h2.8V4.6h2.7v14.7L553.9,19.2L553.9,19.2z"/>
			<path class="st10" d="M564,19.2l-0.5-3.6h-2.3l-0.5,3.6h-2.6l2.1-14.7h4.2l2.1,14.7H564z M563.3,13.5l-0.9-6.4l-0.9,6.4H563.3z"
				/>
			<path class="st10" d="M573.1,19.2L570.8,9v10.2h-2.6V4.6h3.8l1.9,8l2-8h3.8v14.7h-2.6V9l-2.3,10.2H573.1z"/>
			<path class="st10" d="M581.5,19.2V4.6h4c1.3,0,2.1,0.2,2.7,0.7s0.8,1.2,0.8,2.2v1.8c0,0.6-0.2,1.1-0.5,1.4s-0.9,0.6-1.7,0.6
				c1,0.1,1.6,0.3,2.1,0.7s0.6,1,0.6,1.8V16c0,1.1-0.3,1.9-0.9,2.4s-1.6,0.7-3,0.7h-4.1V19.2z M585.3,6.8h-1.1v3.7h1.1
				c0.4,0,0.6-0.1,0.7-0.3c0.1-0.2,0.2-0.5,0.2-1V8c0-0.5-0.1-0.8-0.2-1C585.9,6.9,585.6,6.8,585.3,6.8z M585.5,12.6h-1.3V17h1.3
				c0.5,0,0.8-0.1,1-0.3c0.2-0.2,0.3-0.6,0.3-1.2V14c0-0.6-0.1-0.9-0.3-1.1S585.9,12.6,585.5,12.6z"/>
			<path class="st10" d="M593.8,19.2h-2.7V4.6h3.9c0.7,0,1.4,0.1,1.8,0.2s0.8,0.3,1.1,0.6s0.5,0.6,0.6,1.1s0.2,1,0.2,1.7v2
				c0,0.7-0.1,1.3-0.3,1.7s-0.5,0.8-1,1.1l1.5,6.3h-2.8l-1.3-5.9h-1.1L593.8,19.2L593.8,19.2z M595,7h-1.2v4h1.2
				c0.4,0,0.7-0.1,0.8-0.3s0.2-0.5,0.2-1.1V8.4c0-0.5-0.1-0.9-0.2-1.1S595.4,7,595,7z"/>
			<path class="st10" d="M600.6,19.2V4.6h6.6v2.6h-3.9v3.3h3.7v2.4h-3.7v3.8h3.9v2.6L600.6,19.2L600.6,19.2z"/>
			<path class="st10" d="M613.1,19.2V4.6h4c1.6,0,2.7,0.3,3.4,1s1,1.9,1,3.5v5.5c0,1.7-0.3,2.8-1,3.5s-1.8,1-3.4,1h-4V19.2z
				 M617.1,7h-1.3v9.7h1.3c0.6,0,1-0.2,1.3-0.5s0.4-1,0.4-1.9V9.5c0-0.9-0.1-1.6-0.4-1.9C618.1,7.2,617.7,7,617.1,7z"/>
		</g>
		<g class="st9">
			<path class="st10" d="M623.2,19.2V4.6h6.6v2.6h-3.9v3.3h3.7v2.4h-3.7v3.8h3.9v2.6L623.2,19.2L623.2,19.2z"/>
		</g>
		<g class="st9">
			<path class="st10" d="M639.7,14.3v1.6c0,1.2-0.3,2.1-1,2.6s-1.7,0.8-3.2,0.8s-2.5-0.3-3.2-0.9s-1-1.6-1-2.9v-1.6h2.7v1.4
				c0,0.6,0.1,1,0.4,1.3c0.2,0.3,0.6,0.4,1.2,0.4c0.5,0,0.9-0.1,1.1-0.3s0.4-0.5,0.4-1v-1.3c0-0.4-0.1-0.7-0.4-0.9s-0.8-0.3-1.7-0.5
				c-0.5-0.1-0.9-0.2-1.2-0.3s-0.6-0.2-0.9-0.4s-0.5-0.3-0.7-0.5s-0.3-0.4-0.5-0.6s-0.2-0.5-0.3-0.8s-0.1-0.6-0.1-1V8
				c0-1.2,0.3-2.1,1-2.7s1.7-0.8,3.2-0.8s2.5,0.3,3.2,0.9s1,1.6,1,2.9v1.6H637V8.4c0-0.6-0.1-0.9-0.4-1.2s-0.6-0.4-1.2-0.4
				s-0.9,0.1-1.1,0.3c-0.2,0.2-0.3,0.5-0.3,1v1.2c0,0.3,0.1,0.5,0.2,0.6s0.3,0.3,0.6,0.4s0.8,0.2,1.4,0.4c0.7,0.2,1.2,0.3,1.7,0.5
				s0.8,0.4,1.1,0.7s0.5,0.6,0.6,1S639.7,13.7,639.7,14.3z"/>
			<path class="st10" d="M648.3,19.2h-2.7V4.6h3.9c0.7,0,1.4,0.1,1.8,0.2s0.8,0.3,1.1,0.6s0.5,0.6,0.6,1.1s0.2,1,0.2,1.7v2
				c0,0.7-0.1,1.3-0.3,1.7s-0.5,0.8-1,1.1l1.5,6.3h-2.8l-1.3-5.9h-1.1L648.3,19.2L648.3,19.2z M649.5,7h-1.2v4h1.2
				c0.4,0,0.7-0.1,0.8-0.3s0.2-0.5,0.2-1.1V8.4c0-0.5-0.1-0.9-0.2-1.1S649.9,7,649.5,7z"/>
			<path class="st10" d="M655,19.2V4.6h6.6v2.6h-3.9v3.3h3.7v2.4h-3.7v3.8h3.9v2.6L655,19.2L655,19.2z"/>
			<path class="st10" d="M667.4,14.3h-1.3v5h-2.7V4.6h4c1.4,0,2.5,0.3,3,0.8c0.6,0.6,0.9,1.5,0.9,2.8v2.6c0,1.3-0.3,2.1-0.9,2.7
				S668.9,14.3,667.4,14.3z M667.4,7h-1.3v5h1.3c0.5,0,0.8-0.1,1-0.3s0.3-0.6,0.3-1.2V8.7c0-0.6-0.1-1.1-0.3-1.3S667.8,7,667.4,7z"
				/>
			<path class="st10" d="M675.7,19.2H673V4.6h3.9c0.7,0,1.4,0.1,1.8,0.2s0.8,0.3,1.1,0.6s0.5,0.6,0.6,1.1s0.2,1,0.2,1.7v2
				c0,0.7-0.1,1.3-0.3,1.7s-0.5,0.8-1,1.1l1.5,6.3H678l-1.3-5.9h-1.1L675.7,19.2L675.7,19.2z M677,7h-1.2v4h1.2
				c0.4,0,0.7-0.1,0.8-0.3s0.2-0.5,0.2-1.1V8.4c0-0.5-0.1-0.9-0.2-1.1S677.3,7,677,7z"/>
		</g>
		<g class="st9">
			<path class="st10" d="M682.5,19.2V4.6h6.6v2.6h-3.9v3.3h3.7v2.4h-3.7v3.8h3.9v2.6L682.5,19.2L682.5,19.2z M686.5,4.1h-1.7
				l0.3-1.1h2.4L686.5,4.1z"/>
		</g>
		<g class="st9">
			<path class="st10" d="M699,14.3v1.6c0,1.2-0.3,2.1-1,2.6s-1.7,0.8-3.2,0.8s-2.5-0.3-3.2-0.9s-1-1.6-1-2.9v-1.6h2.7v1.4
				c0,0.6,0.1,1,0.4,1.3c0.2,0.3,0.6,0.4,1.2,0.4c0.5,0,0.9-0.1,1.1-0.3s0.4-0.5,0.4-1v-1.3c0-0.4-0.1-0.7-0.4-0.9s-0.8-0.3-1.7-0.5
				c-0.5-0.1-0.9-0.2-1.2-0.3s-0.6-0.2-0.9-0.4s-0.5-0.3-0.7-0.5s-0.3-0.4-0.5-0.6s-0.2-0.5-0.3-0.8s-0.1-0.6-0.1-1V8
				c0-1.2,0.3-2.1,1-2.7s1.7-0.8,3.2-0.8s2.5,0.3,3.2,0.9s1,1.6,1,2.9v1.6h-2.7V8.4c0-0.6-0.1-0.9-0.4-1.2s-0.6-0.4-1.2-0.4
				s-0.9,0.1-1.1,0.3c-0.2,0.2-0.3,0.5-0.3,1v1.2c0,0.3,0.1,0.5,0.2,0.6s0.3,0.3,0.6,0.4s0.8,0.2,1.4,0.4c0.7,0.2,1.2,0.3,1.7,0.5
				s0.8,0.4,1.1,0.7s0.5,0.6,0.6,1S699,13.7,699,14.3z"/>
			<path class="st10" d="M700.7,19.2V4.6h6.6v2.6h-3.9v3.3h3.7v2.4h-3.7v3.8h3.9v2.6L700.7,19.2L700.7,19.2z"/>
			<path class="st10" d="M715,19.2l-3.4-8.2v8.2h-2.5V4.6h2.3l3.4,8.3V4.6h2.5v14.7L715,19.2L715,19.2z"/>
		</g>
		<g class="st9">
			<path class="st10" d="M726.3,7.3H724v12h-2.7v-12H719V4.6h7.3V7.3z"/>
		</g>
		<g class="st9">
			<path class="st10" d="M732.2,19.2l-0.5-3.6h-2.3l-0.5,3.6h-2.6l2.1-14.7h4.2l2.1,14.7H732.2z M731.4,13.5l-0.9-6.4l-0.9,6.4
				H731.4z"/>
			<path class="st10" d="M742.3,19.2l-3.4-8.2v8.2h-2.5V4.6h2.3l3.4,8.3V4.6h2.5v14.7L742.3,19.2L742.3,19.2z"/>
		</g>
		<g class="st9">
			<path class="st10" d="M753.6,7.3h-2.3v12h-2.7v-12h-2.3V4.6h7.3V7.3z"/>
		</g>
		<g class="st9">
			<path class="st10" d="M763.4,14.3v1.6c0,1.2-0.3,2.1-1,2.6s-1.7,0.8-3.2,0.8s-2.5-0.3-3.2-0.9s-1-1.6-1-2.9v-1.6h2.7v1.4
				c0,0.6,0.1,1,0.4,1.3c0.2,0.3,0.6,0.4,1.2,0.4c0.5,0,0.9-0.1,1.1-0.3s0.4-0.5,0.4-1v-1.3c0-0.4-0.1-0.7-0.4-0.9s-0.8-0.3-1.7-0.5
				c-0.5-0.1-0.9-0.2-1.2-0.3s-0.6-0.2-0.9-0.4s-0.5-0.3-0.7-0.5s-0.3-0.4-0.5-0.6s-0.2-0.5-0.3-0.8s-0.1-0.6-0.1-1V8
				c0-1.2,0.3-2.1,1-2.7s1.7-0.8,3.2-0.8s2.5,0.3,3.2,0.9s1,1.6,1,2.9v1.6h-2.7V8.4c0-0.6-0.1-0.9-0.4-1.2s-0.6-0.4-1.2-0.4
				S758.3,7,758,7.2c-0.2,0.2-0.3,0.5-0.3,1v1.2c0,0.3,0.1,0.5,0.2,0.6s0.3,0.3,0.6,0.4s0.8,0.2,1.4,0.4c0.7,0.2,1.2,0.3,1.7,0.5
				s0.8,0.4,1.1,0.7s0.5,0.6,0.6,1S763.4,13.7,763.4,14.3z"/>
		</g>
		<g class="st9">
			<path class="st10" d="M9.8,14.3v1.6c0,1.2-0.3,2.1-1,2.6s-1.7,0.8-3.2,0.8S3.1,19,2.4,18.4s-1-1.6-1-2.9v-1.6h2.7v1.4
				c0,0.6,0.1,1,0.4,1.3C4.7,16.8,5.1,17,5.6,17s0.9-0.1,1.1-0.3s0.4-0.5,0.4-1v-1.3c0-0.4-0.1-0.7-0.4-0.9S5.9,13.2,5,13
				c-0.5-0.1-0.9-0.2-1.2-0.3s-0.6-0.2-0.9-0.4S2.3,12,2.2,11.8s-0.3-0.4-0.5-0.6s-0.2-0.5-0.3-0.8s-0.1-0.6-0.1-1V8
				c0-1.2,0.3-2.1,1-2.7S4,4.5,5.5,4.5S8,4.8,8.7,5.4s1,1.6,1,2.9v1.6H7.1V8.4c0-0.6-0.1-0.9-0.4-1.2S6.1,6.9,5.5,6.9S4.6,7,4.4,7.2
				C4.1,7.4,4,7.7,4,8.1v1.2C4,9.7,4.1,9.9,4.2,10s0.3,0.3,0.6,0.4s0.8,0.2,1.4,0.4c0.7,0.2,1.2,0.3,1.7,0.5S8.7,11.7,9,12
				s0.5,0.6,0.6,1S9.8,13.7,9.8,14.3z"/>
			<path class="st10" d="M11.5,19.2V4.6h6.6v2.6h-3.9v3.3h3.7v2.4h-3.7v3.8h3.9v2.6L11.5,19.2L11.5,19.2z M15.5,4.1h-1.7L14.2,3h2.4
				L15.5,4.1z"/>
			<path class="st10" d="M25.7,19.2L22.3,11v8.2h-2.5V4.6h2.3l3.4,8.3V4.6H28v14.7L25.7,19.2L25.7,19.2z"/>
		</g>
		<g class="st9">
			<path class="st10" d="M35.5,19.2L35,15.7h-2.3l-0.5,3.6h-2.6l2.1-14.7h4.2L38,19.3L35.5,19.2L35.5,19.2z M34.7,13.5l-0.9-6.4
				L33,13.5H34.7z"/>
		</g>
		<g class="st9">
			<path class="st10" d="M45.4,7.3h-2.3v12h-2.7v-12h-2.3V4.6h7.3V7.3z"/>
		</g>
		<g class="st9">
			<path class="st11" d="M231.7,18h1.6V7.6h-1.6V6.4h5c4.4,0,6.5,2.7,6.5,6.3v0.2c0,3.6-2.1,6.4-6.6,6.4h-5V18H231.7z M236.6,18
				c3.3,0,5-2,5-5.1v-0.1c0-3-1.4-5.1-5-5.1h-1.7V18H236.6z"/>
		</g>
		<g class="st9">
			<path class="st11" d="M244.6,14.6v-0.1c0-2.8,1.8-4.8,4.4-4.8c2.2,0,4.2,1.3,4.2,4.7v0.5h-7.1c0.1,2.1,1.1,3.3,3,3.3
				c1.5,0,2.3-0.5,2.5-1.6h1.5c-0.3,1.9-1.9,2.9-4,2.9C246.5,19.4,244.6,17.5,244.6,14.6z M251.7,13.6c-0.1-1.9-1.2-2.7-2.7-2.7
				s-2.6,1-2.8,2.7H251.7z M249.4,5.6h1.9l-1.9,2.6h-1.1L249.4,5.6z"/>
		</g>
		<g class="st9">
			<path class="st11" d="M254.5,19.2V18h1.3v-7h-1.4V9.8h2.8v1.5c0.4-0.9,1.4-1.7,2.8-1.7c1.2,0,2.3,0.5,2.8,1.9
				c0.6-1.3,1.9-1.9,3.1-1.9c1.7,0,3.1,1,3.1,3.7V18h1.3v1.2h-4.2V18h1.4v-4.8c0-1.7-0.6-2.3-1.9-2.3c-1.2,0-2.4,0.8-2.4,2.5V18h1.4
				v1.2h-4.2V18h1.4v-4.8c0-1.7-0.6-2.3-1.9-2.3c-1.2,0-2.4,0.8-2.4,2.5V18h1.4v1.2H254.5z"/>
		</g>
		<g class="st9">
			<path class="st11" d="M271.3,14.6v-0.1c0-2.8,2-4.8,4.6-4.8c2.7,0,4.6,2,4.6,4.8v0.1c0,2.8-2,4.8-4.6,4.8
				C273.3,19.4,271.3,17.4,271.3,14.6z M279,14.6v-0.1c0-2.2-1.2-3.6-3.1-3.6s-3.1,1.4-3.1,3.6v0.1c0,2.1,1.2,3.5,3.1,3.5
				C277.9,18.2,279,16.7,279,14.6z"/>
			<path class="st11" d="M289.3,9.8h1.3V13h-1.3c-0.3-1.3-1.2-2.1-2.8-2.1c-1.7,0-3,1.4-3,3.6v0.1c0,2.3,1.3,3.5,3.1,3.5
				c1.3,0,2.5-0.8,2.7-2.3h1.4c-0.2,2-1.8,3.5-4.1,3.5c-2.6,0-4.6-1.9-4.6-4.8v-0.1c0-2.9,2.1-4.8,4.6-4.8c1.6,0,2.4,0.6,2.8,1.4
				V9.8H289.3z"/>
		</g>
		<g class="st9">
			<path class="st11" d="M292.1,19.2V18h1.3v-7H292V9.8h2.8v1.8c0.5-1,1.4-1.9,3.4-2v1.5c-2.1,0-3.4,0.6-3.4,2.9v4h1.4v1.2H292.1z"
				/>
		</g>
		<g class="st9">
			<path class="st11" d="M302.3,19.4c-1.7,0-3.1-0.8-3.1-2.8c0-2.2,2.3-2.9,4.6-2.9h1.3V13c0-1.6-0.6-2.1-2-2.1
				c-1.3,0-1.9,0.5-2.1,1.7h-1.5c0.2-2.2,1.9-2.9,3.7-2.9c1.8,0,3.4,0.6,3.4,3.4v5h1.3v1.2h-2.8V18
				C304.6,18.9,303.6,19.4,302.3,19.4z M305.2,15.9v-1.2h-1.3c-1.9,0-3.2,0.5-3.2,1.9c0,0.8,0.4,1.6,1.7,1.6
				C304,18.2,305.2,17.4,305.2,15.9z"/>
		</g>
		<g class="st9">
			<path class="st11" d="M309.8,16.9v-5.8h-1.4V9.8h1.4V7.7h1.5v2.1h2.4v1.3h-2.4v5.7c0,0.9,0.4,1.4,1.4,1.4c0.4,0,0.8-0.1,1.2-0.2
				v1.3c-0.4,0.1-0.8,0.2-1.4,0.2C310.6,19.4,309.8,18.4,309.8,16.9z"/>
		</g>
		<g class="st9">
			<path class="st11" d="M315,14.6v-0.1c0-2.8,1.8-4.8,4.4-4.8c2.2,0,4.2,1.3,4.2,4.7v0.5h-7.1c0.1,2.1,1.1,3.3,3,3.3
				c1.5,0,2.3-0.5,2.5-1.6h1.5c-0.3,1.9-1.9,2.9-4,2.9C316.9,19.4,315,17.5,315,14.6z M322.1,13.6c-0.1-1.9-1.2-2.7-2.7-2.7
				s-2.6,1-2.8,2.7H322.1z"/>
		</g>
		<g class="st9">
			<path class="st11" d="M326.2,18.1v1.2h-1.3v-3.1h1.2c0.2,1.1,1.1,2.1,2.5,2.1c1.3,0,1.9-0.5,1.9-1.5s-0.8-1.3-2.2-1.6
				c-2.4-0.4-3.3-1.3-3.3-2.9s1.4-2.5,3-2.5c1.4,0,2,0.5,2.4,1.2v-1h1.3v2.7h-1.2c-0.2-1-1-1.7-2.3-1.7c-1.1,0-1.7,0.4-1.7,1.3
				c0,0.8,0.5,1.2,2.2,1.6c1.9,0.4,3.3,0.9,3.3,2.8c0,1.7-1.2,2.8-3.4,2.8C327.2,19.4,326.4,18.7,326.2,18.1z"/>
		</g>
		<g class="st9">
			<path class="st11" d="M341.9,19.2V18h1.8v-1.8h-6.5v-0.7l5.9-9.2h2.1V15h1.8v1.2h-1.8V18h1.6v1.2H341.9z M343.7,15V7.6L339,15
				H343.7z"/>
		</g>
		<g class="st9">
			<path class="st11" d="M349.3,9.6h-1.5V6.4h8.8v0.5l-4.7,12.3h-1.6l4.5-11.6h-5.5L349.3,9.6L349.3,9.6z"/>
		</g>
		<g class="st9">
			<path class="st12" d="M3,336.6v-1.2h1.6V325H3v-1.2h5.6c2.4,0,4.4,1,4.4,3.6v0.1c0,2-1.4,3.2-3.2,3.5l3.1,4.5h1.2v1.2H12L8.2,331
				h-2v4.4H8v1.2H3z M8.6,329.8c1.8,0,2.8-0.8,2.8-2.4v-0.1c0-1.6-1.1-2.3-2.8-2.3H6.2v4.8H8.6z"/>
		</g>
		<g class="st9">
			<path class="st12" d="M14.8,332v-0.1c0-2.8,1.8-4.8,4.4-4.8c2.2,0,4.2,1.3,4.2,4.7v0.5h-7.1c0.1,2.1,1.1,3.3,3,3.3
				c1.5,0,2.3-0.5,2.5-1.6h1.5c-0.3,1.9-1.9,2.9-4,2.9C16.7,336.8,14.8,334.9,14.8,332z M21.9,331c-0.1-1.9-1.2-2.7-2.7-2.7
				s-2.6,1-2.8,2.7H21.9z M19.6,322.9h1.9l-1.9,2.6h-1.1L19.6,322.9z"/>
		</g>
		<g class="st9">
			<path class="st12" d="M24.6,339.9v-1.2h1.3v-10.3h-1.4v-1.2h2.8v1.7c0.5-1,1.8-1.8,3.2-1.8c2.5,0,4.3,1.8,4.3,4.7v0.1
				c0,2.9-1.7,4.9-4.3,4.9c-1.5,0-2.6-0.8-3.2-1.7v3.7h1.5v1.2h-4.2V339.9z M33.3,332v-0.1c0-2.4-1.3-3.6-2.9-3.6
				c-1.7,0-3.1,1.2-3.1,3.6v0.1c0,2.4,1.3,3.5,3.1,3.5C32.3,335.5,33.3,334.3,33.3,332z"/>
		</g>
		<g class="st9">
			<path class="st12" d="M40.3,336.8c-1.9,0-3.2-1-3.2-3.7v-4.6h-1.3v-1.2h2.8v5.9c0,1.6,0.7,2.4,2.1,2.4c1.3,0,2.5-0.9,2.5-2.6
				v-4.5h-1.3v-1.2h2.8v8.2H46v1.2h-2.8V335C42.8,335.9,41.8,336.8,40.3,336.8z"/>
		</g>
		<g class="st9">
			<path class="st12" d="M49.8,335v1.6H47v-1.2h1.3v-11.5h-1.4v-1.2h2.8v6.2c0.5-1,1.8-1.8,3.2-1.8c2.5,0,4.3,1.8,4.3,4.7v0.1
				c0,2.9-1.7,4.9-4.3,4.9C51.4,336.8,50.3,336,49.8,335z M55.7,332v-0.1c0-2.4-1.3-3.6-2.9-3.6c-1.7,0-3.1,1.2-3.1,3.6v0.1
				c0,2.4,1.3,3.5,3.1,3.5C54.7,335.5,55.7,334.3,55.7,332z"/>
		</g>
		<g class="st9">
			<path class="st12" d="M58.4,336.6v-1.2h1.3v-11.5h-1.4v-1.2h2.9v12.7h1.3v1.2H58.4z"/>
			<path class="st12" d="M63.5,336.6v-1.2h1.3v-7h-1.4v-1.2h2.8v8.2h1.4v1.2H63.5z M64.5,324.2c0-0.6,0.5-1,1-1s1,0.4,1,1
				s-0.5,1-1,1S64.5,324.8,64.5,324.2z"/>
		</g>
		<g class="st9">
			<path class="st12" d="M76.1,327.2h1.3v3.2h-1.3c-0.3-1.3-1.2-2.1-2.8-2.1c-1.7,0-3,1.4-3,3.6v0.1c0,2.3,1.3,3.5,3.1,3.5
				c1.3,0,2.5-0.8,2.7-2.3h1.4c-0.2,2-1.8,3.5-4.1,3.5c-2.6,0-4.6-1.9-4.6-4.8v-0.1c0-2.9,2.1-4.8,4.6-4.8c1.6,0,2.4,0.6,2.8,1.4
				L76.1,327.2L76.1,327.2z"/>
		</g>
		<g class="st9">
			<path class="st12" d="M82,336.8c-1.7,0-3.1-0.8-3.1-2.8c0-2.2,2.3-2.9,4.6-2.9h1.3v-0.7c0-1.6-0.6-2.1-2-2.1
				c-1.3,0-1.9,0.5-2.1,1.7h-1.5c0.2-2.2,1.9-2.9,3.7-2.9c1.8,0,3.4,0.6,3.4,3.4v5h1.3v1.2h-2.8v-1.3
				C84.3,336.3,83.4,336.8,82,336.8z M84.9,333.3v-1.2h-1.3c-1.9,0-3.2,0.5-3.2,1.9c0,0.8,0.4,1.6,1.7,1.6
				C83.7,335.6,84.9,334.8,84.9,333.3z"/>
			<path class="st12" d="M88.6,336.6v-1.2h1.3v-7h-1.4v-1.2h2.8v8.2h1.3v1.2H88.6z M89.6,324.2c0-0.6,0.5-1,1-1c0.6,0,1,0.4,1,1
				s-0.5,1-1,1C90,325.2,89.6,324.8,89.6,324.2z"/>
			<path class="st12" d="M93.8,336.6v-1.2h1.3v-7h-1.4v-1.2h2.8v1.6c0.4-0.9,1.5-1.7,3-1.7c1.9,0,3.3,1,3.3,3.7v4.7h1.3v1.2H100
				v-1.2h1.4v-4.8c0-1.6-0.7-2.3-2.2-2.3c-1.3,0-2.6,0.9-2.6,2.5v4.6h1.3v1.2h-4.1V336.6z"/>
			<path class="st12" d="M106.5,335.4v1.2h-1.3v-3.1h1.2c0.2,1.1,1.1,2.1,2.5,2.1c1.3,0,1.9-0.5,1.9-1.5s-0.8-1.3-2.2-1.6
				c-2.4-0.4-3.3-1.3-3.3-2.9s1.3-2.5,3-2.5c1.4,0,2,0.5,2.4,1.2v-1h1.3v2.7h-1.2c-0.2-1-1-1.7-2.3-1.7c-1.1,0-1.7,0.4-1.7,1.3
				c0,0.8,0.5,1.2,2.2,1.6c1.9,0.4,3.3,0.9,3.3,2.8c0,1.7-1.2,2.8-3.4,2.8C107.5,336.8,106.8,336,106.5,335.4z"/>
		</g>
		<g class="st9">
			<path class="st12" d="M117.8,333.1h1.5c0.3,1.4,0.8,2.4,2.8,2.4c1.7,0,2.8-1.2,2.8-3.1c0-1.8-1.1-3-2.7-3c-1.5,0-2.4,0.5-3,1.2
				h-0.6v-7h7.2v2.7h-1.5V325h-4.5v4.1c0.5-0.5,1.4-0.9,2.6-0.9c2.3,0,4,1.6,4,4.2c0,2.7-2,4.3-4.4,4.3
				C119.4,336.8,118,335.2,117.8,333.1z"/>
		</g>
		<g class="st9">
			<path class="st12" d="M127.9,332.8h1.4c0.1,1.5,1.1,2.7,3.1,2.7s2.9-1,2.9-2.5c0-1.7-0.9-2.5-2.7-2.5h-1v-1.3h0.9
				c1.7,0,2.4-0.8,2.4-2.2c0-1.2-0.8-2.2-2.3-2.2c-1.6,0-2.7,1-2.8,2.4h-1.4c0.1-2,1.8-3.7,4.2-3.7s3.9,1.6,3.9,3.4
				c0,1.5-0.9,2.3-2,2.8c1.5,0.4,2.5,1.5,2.5,3.2c0,2.3-1.9,3.7-4.6,3.7C129.7,336.8,128,335.1,127.9,332.8z"/>
		</g>
		<g class="st9">
			<path class="st11" d="M890.2,22.2h1.5v3.3h-8.8v-0.7l5-5.1c1.3-1.3,1.9-2.4,1.9-3.7c0-1.4-0.8-2.3-2.3-2.3s-2.4,0.8-2.7,2.9h-1.5
				c0.2-2.5,1.7-4.1,4.2-4.1c2.4,0,3.9,1.4,3.9,3.6c0,1.6-1,3.1-2.6,4.7l-3.5,3.5h5v-2.1H890.2z"/>
			<path class="st11" d="M893,21.7h1.4c0.1,1.5,1.1,2.7,3.1,2.7s2.9-1,2.9-2.5c0-1.7-0.9-2.5-2.7-2.5h-1v-1.3h0.9
				c1.7,0,2.4-0.8,2.4-2.2c0-1.2-0.8-2.2-2.3-2.2c-1.6,0-2.7,1-2.8,2.4h-1.4c0.1-2,1.8-3.7,4.2-3.7s3.9,1.6,3.9,3.4
				c0,1.5-0.9,2.3-2,2.8c1.5,0.4,2.5,1.5,2.5,3.2c0,2.3-1.9,3.7-4.6,3.7C894.7,25.7,893.1,24,893,21.7z"/>
		</g>
		<g class="st9">
			<path class="st11" d="M910.7,22.2h1.5v3.3h-8.8v-0.7l5-5.1c1.3-1.3,1.9-2.4,1.9-3.7c0-1.4-0.8-2.3-2.3-2.3s-2.4,0.8-2.7,2.9h-1.5
				c0.2-2.5,1.7-4.1,4.2-4.1c2.4,0,3.9,1.4,3.9,3.6c0,1.6-1,3.1-2.6,4.7l-3.5,3.5h5v-2.1H910.7z"/>
		</g>
		<g class="st9">
			<path class="st12" d="M538.7,330.3v-1.2h2.6V319l-2.9,2.1v-1.5l3-2.2h1.5V329h2.5v1.2L538.7,330.3L538.7,330.3z"/>
		</g>
		<g class="st9">
			<path class="st12" d="M546.5,327.1h1.5c0.3,1.3,1,2,2.7,2c2.1,0,3.3-1.7,3.3-5.1c-0.6,1-1.9,1.7-3.3,1.7c-2.5,0-4.2-1.8-4.2-4.2
				c0-2.6,1.7-4.3,4.4-4.3c3,0,4.6,2.1,4.6,5.8v0.8c0,4.3-1.8,6.6-4.8,6.6C548.2,330.5,546.8,329.2,546.5,327.1z M553.8,321.8
				c0-2.1-1.2-3.3-3-3.3c-1.7,0-2.8,1.2-2.8,3c0,1.9,1.1,3.1,2.9,3.1C552.6,324.5,553.8,323.4,553.8,321.8z"/>
		</g>
		<g class="st9">
			<path class="st12" d="M558.1,320.7h-1.5v-3.3h8.8v0.5l-4.7,12.3h-1.6l4.5-11.6h-5.5V320.7z"/>
		</g>
		<polygon class="st12" points="193.9,239 204.3,249 214.9,238.7 204.6,228.6 		"/>
		<polygon class="st12" points="193.9,266.5 204.3,276.6 214.9,266.2 204.6,256.2 		"/>
		<polygon class="st12" points="193.9,294.1 204.3,304.2 214.9,293.8 204.6,283.7 		"/>
		<polygon class="st12" points="155.3,46 165.7,56 176.4,45.7 166,35.6 		"/>
		<polygon class="st12" points="155.3,73.6 165.7,83.6 176.4,73.2 166,63.2 		"/>
		<polygon class="st12" points="155.3,101.1 165.7,111.2 176.4,100.8 166,90.8 		"/>
		<polygon class="st12" points="155.3,128.7 165.7,138.8 176.4,128.4 166,118.3 		"/>
		<polygon class="st12" points="155.3,156.2 165.7,166.3 176.4,155.9 166,145.9 		"/>
		<polygon class="st12" points="155.3,183.8 165.7,193.9 176.4,183.5 166,173.5 		"/>
		<polygon class="st12" points="155.3,211.4 165.7,221.4 176.4,211.1 166,201 		"/>
		<polygon class="st12" points="155.3,239 165.7,249 176.4,238.7 166,228.6 		"/>
		<polygon class="st12" points="155.3,266.5 165.7,276.6 176.4,266.2 166,256.2 		"/>
		<polygon class="st12" points="155.3,294.1 165.7,304.2 176.4,293.8 166,283.7 		"/>
		<polygon class="st12" points="116.8,46 127.2,56 137.9,45.7 127.5,35.6 		"/>
		<polygon class="st12" points="116.8,73.6 127.2,83.6 137.9,73.2 127.5,63.2 		"/>
		<polygon class="st12" points="116.8,101.1 127.2,111.2 137.9,100.8 127.5,90.8 		"/>
		<polygon class="st12" points="116.8,128.7 127.2,138.8 137.9,128.4 127.5,118.3 		"/>
		<polygon class="st12" points="116.8,156.2 127.2,166.3 137.9,155.9 127.5,145.9 		"/>
		<polygon class="st12" points="116.8,183.8 127.2,193.9 137.9,183.5 127.5,173.5 		"/>
		<polygon class="st12" points="116.8,211.4 127.2,221.4 137.9,211.1 127.5,201 		"/>
		<polygon class="st12" points="116.8,239 127.2,249 137.9,238.7 127.5,228.6 		"/>
		<polygon class="st12" points="116.8,266.5 127.2,276.6 137.9,266.2 127.5,256.2 		"/>
		<polygon class="st12" points="116.8,294.1 127.2,304.2 137.9,293.8 127.5,283.7 		"/>
		<polygon class="st12" points="78.2,46 88.6,56 99.3,45.7 88.9,35.6 		"/>
		<polygon class="st12" points="78.2,73.6 88.6,83.6 99.3,73.2 88.9,63.2 		"/>
		<polygon class="st12" points="78.2,101.1 88.6,111.2 99.3,100.8 88.9,90.8 		"/>
		<polygon class="st12" points="78.2,128.7 88.6,138.8 99.3,128.4 88.9,118.3 		"/>
		<polygon class="st12" points="78.2,156.2 88.6,166.3 99.3,155.9 88.9,145.9 		"/>
		<polygon class="st12" points="78.2,183.8 88.6,193.9 99.3,183.5 88.9,173.5 		"/>
		<polygon class="st12" points="78.2,211.4 88.6,221.4 99.3,211.1 88.9,201 		"/>
		<polygon class="st12" points="78.2,239 88.6,249 99.3,238.7 88.9,228.6 		"/>
		<polygon class="st12" points="78.2,266.5 88.6,276.6 99.3,266.2 88.9,256.2 		"/>
		<polygon class="st12" points="78.2,294.1 88.6,304.2 99.3,293.8 88.9,283.7 		"/>
		<polygon class="st12" points="39.7,46 50.1,56 60.8,45.7 50.4,35.6 		"/>
		<polygon class="st12" points="39.7,73.6 50.1,83.6 60.8,73.2 50.4,63.2 		"/>
		<polygon class="st12" points="39.7,101.1 50.1,111.2 60.8,100.8 50.4,90.8 		"/>
		<polygon class="st12" points="39.7,128.7 50.1,138.8 60.8,128.4 50.4,118.3 		"/>
		<polygon class="st12" points="39.7,156.2 50.1,166.3 60.8,155.9 50.4,145.9 		"/>
		<polygon class="st12" points="39.7,183.8 50.1,193.9 60.8,183.5 50.4,173.5 		"/>
		<polygon class="st12" points="39.7,211.4 50.1,221.4 60.8,211.1 50.4,201 		"/>
		<polygon class="st12" points="39.7,239 50.1,249 60.8,238.7 50.4,228.6 		"/>
		<polygon class="st12" points="39.7,266.5 50.1,276.6 60.8,266.2 50.4,256.2 		"/>
		<polygon class="st12" points="39.7,294.1 50.1,304.2 60.8,293.8 50.4,283.7 		"/>
		<polygon class="st12" points="1.1,46 11.5,56 22.2,45.7 11.8,35.6 		"/>
		<polygon class="st12" points="1.1,73.6 11.5,83.6 22.2,73.2 11.8,63.2 		"/>
		<polygon class="st12" points="1.1,101.1 11.5,111.2 22.2,100.8 11.8,90.8 		"/>
		<polygon class="st12" points="1.1,128.7 11.5,138.8 22.2,128.4 11.8,118.3 		"/>
		<polygon class="st12" points="1.1,156.2 11.5,166.3 22.2,155.9 11.8,145.9 		"/>
		<polygon class="st12" points="1.1,183.8 11.5,193.9 22.2,183.5 11.8,173.5 		"/>
		<polygon class="st12" points="1.1,211.4 11.5,221.4 22.2,211.1 11.8,201 		"/>
		<polygon class="st12" points="1.1,239 11.5,249 22.2,238.7 11.8,228.6 		"/>
		<polygon class="st12" points="1.1,266.5 11.5,276.6 22.2,266.2 11.8,256.2 		"/>
		<polygon class="st12" points="1.1,294.1 11.5,304.2 22.2,293.8 11.8,283.7 		"/>
		<polygon class="st11" points="348.1,46 358.4,56 369.1,45.7 358.8,35.6 		"/>
		<polygon class="st13" points="348.1,46 358.4,56 369.1,45.7 358.8,35.6 		"/>
		<polygon class="st11" points="348.1,73.6 358.4,83.6 369.1,73.2 358.8,63.2 		"/>
		<polygon class="st13" points="348.1,73.6 358.4,83.6 369.1,73.2 358.8,63.2 		"/>
		<polygon class="st11" points="348.1,101.1 358.4,111.2 369.1,100.8 358.8,90.8 		"/>
		<polygon class="st13" points="348.1,101.1 358.4,111.2 369.1,100.8 358.8,90.8 		"/>
		<polygon class="st11" points="348.1,128.7 358.4,138.8 369.1,128.4 358.8,118.3 		"/>
		<polygon class="st13" points="348.1,128.7 358.4,138.8 369.1,128.4 358.8,118.3 		"/>
		<polygon class="st11" points="348.1,156.2 358.4,166.3 369.1,155.9 358.8,145.9 		"/>
		<polygon class="st13" points="348.1,156.2 358.4,166.3 369.1,155.9 358.8,145.9 		"/>
		<polygon class="st11" points="348.1,183.8 358.4,193.9 369.1,183.5 358.8,173.5 		"/>
		<polygon class="st13" points="348.1,183.8 358.4,193.9 369.1,183.5 358.8,173.5 		"/>
		<polygon class="st11" points="348.1,211.4 358.4,221.4 369.1,211.1 358.8,201 		"/>
		<polygon class="st13" points="348.1,211.4 358.4,221.4 369.1,211.1 358.8,201 		"/>
		<polygon class="st11" points="348.1,239 358.4,249 369.1,238.7 358.8,228.6 		"/>
		<polygon class="st13" points="348.1,239 358.4,249 369.1,238.7 358.8,228.6 		"/>
		<polygon class="st11" points="348.1,266.5 358.4,276.6 369.1,266.2 358.8,256.2 		"/>
		<polygon class="st13" points="348.1,266.5 358.4,276.6 369.1,266.2 358.8,256.2 		"/>
		<polygon class="st11" points="348.1,294.1 358.4,304.2 369.1,293.8 358.8,283.7 		"/>
		<polygon class="st13" points="348.1,294.1 358.4,304.2 369.1,293.8 358.8,283.7 		"/>
		<polygon class="st11" points="309.5,46 319.9,56 330.6,45.7 320.2,35.6 		"/>
		<polygon class="st13" points="309.5,46 319.9,56 330.6,45.7 320.2,35.6 		"/>
		<polygon class="st11" points="309.5,73.6 319.9,83.6 330.6,73.2 320.2,63.2 		"/>
		<polygon class="st13" points="309.5,73.6 319.9,83.6 330.6,73.2 320.2,63.2 		"/>
		<polygon class="st11" points="309.5,101.1 319.9,111.2 330.6,100.8 320.2,90.8 		"/>
		<polygon class="st13" points="309.5,101.1 319.9,111.2 330.6,100.8 320.2,90.8 		"/>
		<polygon class="st11" points="309.5,128.7 319.9,138.8 330.6,128.4 320.2,118.3 		"/>
		<polygon class="st13" points="309.5,128.7 319.9,138.8 330.6,128.4 320.2,118.3 		"/>
		<polygon class="st11" points="309.5,156.2 319.9,166.3 330.6,155.9 320.2,145.9 		"/>
		<polygon class="st13" points="309.5,156.2 319.9,166.3 330.6,155.9 320.2,145.9 		"/>
		<polygon class="st11" points="309.5,183.8 319.9,193.9 330.6,183.5 320.2,173.5 		"/>
		<polygon class="st13" points="309.5,183.8 319.9,193.9 330.6,183.5 320.2,173.5 		"/>
		<polygon class="st11" points="309.5,211.4 319.9,221.4 330.6,211.1 320.2,201 		"/>
		<polygon class="st13" points="309.5,211.4 319.9,221.4 330.6,211.1 320.2,201 		"/>
		<polygon class="st11" points="309.5,239 319.9,249 330.6,238.7 320.2,228.6 		"/>
		<polygon class="st13" points="309.5,239 319.9,249 330.6,238.7 320.2,228.6 		"/>
		<polygon class="st11" points="309.5,266.5 319.9,276.6 330.6,266.2 320.2,256.2 		"/>
		<polygon class="st13" points="309.5,266.5 319.9,276.6 330.6,266.2 320.2,256.2 		"/>
		<polygon class="st11" points="309.5,294.1 319.9,304.2 330.6,293.8 320.2,283.7 		"/>
		<polygon class="st13" points="309.5,294.1 319.9,304.2 330.6,293.8 320.2,283.7 		"/>
		<polygon class="st11" points="271,46 281.4,56 292,45.7 281.7,35.6 		"/>
		<polygon class="st13" points="271,46 281.4,56 292,45.7 281.7,35.6 		"/>
		<polygon class="st11" points="271,73.6 281.4,83.6 292,73.2 281.7,63.2 		"/>
		<polygon class="st13" points="271,73.6 281.4,83.6 292,73.2 281.7,63.2 		"/>
		<polygon class="st11" points="271,101.1 281.4,111.2 292,100.8 281.7,90.8 		"/>
		<polygon class="st13" points="271,101.1 281.4,111.2 292,100.8 281.7,90.8 		"/>
		<polygon class="st11" points="271,128.7 281.4,138.8 292,128.4 281.7,118.3 		"/>
		<polygon class="st13" points="271,128.7 281.4,138.8 292,128.4 281.7,118.3 		"/>
		<polygon class="st11" points="271,156.2 281.4,166.3 292,155.9 281.7,145.9 		"/>
		<polygon class="st13" points="271,156.2 281.4,166.3 292,155.9 281.7,145.9 		"/>
		<polygon class="st11" points="271,183.8 281.4,193.9 292,183.5 281.7,173.5 		"/>
		<polygon class="st13" points="271,183.8 281.4,193.9 292,183.5 281.7,173.5 		"/>
		<polygon class="st11" points="271,211.4 281.4,221.4 292,211.1 281.7,201 		"/>
		<polygon class="st13" points="271,211.4 281.4,221.4 292,211.1 281.7,201 		"/>
		<polygon class="st11" points="271,239 281.4,249 292,238.7 281.7,228.6 		"/>
		<polygon class="st13" points="271,239 281.4,249 292,238.7 281.7,228.6 		"/>
		<polygon class="st11" points="271,266.5 281.4,276.6 292,266.2 281.7,256.2 		"/>
		<polygon class="st13" points="271,266.5 281.4,276.6 292,266.2 281.7,256.2 		"/>
		<polygon class="st11" points="271,294.1 281.4,304.2 292,293.8 281.7,283.7 		"/>
		<polygon class="st13" points="271,294.1 281.4,304.2 292,293.8 281.7,283.7 		"/>
		<polygon class="st11" points="232.4,46 242.8,56 253.5,45.7 243.1,35.6 		"/>
		<polygon class="st13" points="232.4,46 242.8,56 253.5,45.7 243.1,35.6 		"/>
		<polygon class="st11" points="232.4,73.6 242.8,83.6 253.5,73.2 243.1,63.2 		"/>
		<polygon class="st13" points="232.4,73.6 242.8,83.6 253.5,73.2 243.1,63.2 		"/>
		<polygon class="st11" points="232.4,101.1 242.8,111.2 253.5,100.8 243.1,90.8 		"/>
		<polygon class="st13" points="232.4,101.1 242.8,111.2 253.5,100.8 243.1,90.8 		"/>
		<polygon class="st11" points="232.4,128.7 242.8,138.8 253.5,128.4 243.1,118.3 		"/>
		<polygon class="st13" points="232.4,128.7 242.8,138.8 253.5,128.4 243.1,118.3 		"/>
		<polygon class="st11" points="232.4,156.2 242.8,166.3 253.5,155.9 243.1,145.9 		"/>
		<polygon class="st13" points="232.4,156.2 242.8,166.3 253.5,155.9 243.1,145.9 		"/>
		<polygon class="st11" points="232.4,183.8 242.8,193.9 253.5,183.5 243.1,173.5 		"/>
		<polygon class="st13" points="232.4,183.8 242.8,193.9 253.5,183.5 243.1,173.5 		"/>
		<polygon class="st11" points="232.4,211.4 242.8,221.4 253.5,211.1 243.1,201 		"/>
		<polygon class="st13" points="232.4,211.4 242.8,221.4 253.5,211.1 243.1,201 		"/>
		<polygon class="st11" points="232.4,239 242.8,249 253.5,238.7 243.1,228.6 		"/>
		<polygon class="st13" points="232.4,239 242.8,249 253.5,238.7 243.1,228.6 		"/>
		<polygon class="st11" points="232.4,266.5 242.8,276.6 253.5,266.2 243.1,256.2 		"/>
		<polygon class="st13" points="232.4,266.5 242.8,276.6 253.5,266.2 243.1,256.2 		"/>
		<polygon class="st11" points="232.4,294.1 242.8,304.2 253.5,293.8 243.1,283.7 		"/>
		<polygon class="st13" points="232.4,294.1 242.8,304.2 253.5,293.8 243.1,283.7 		"/>
		<polygon class="st11" points="193.9,46 204.3,56 214.9,45.7 204.6,35.6 		"/>
		<polygon class="st13" points="193.9,46 204.3,56 214.9,45.7 204.6,35.6 		"/>
		<polygon class="st11" points="193.9,73.6 204.3,83.6 214.9,73.2 204.6,63.2 		"/>
		<polygon class="st13" points="193.9,73.6 204.3,83.6 214.9,73.2 204.6,63.2 		"/>
		<polygon class="st11" points="193.9,101.1 204.3,111.2 214.9,100.8 204.6,90.8 		"/>
		<polygon class="st13" points="193.9,101.1 204.3,111.2 214.9,100.8 204.6,90.8 		"/>
		<polygon class="st11" points="193.9,128.7 204.3,138.8 214.9,128.4 204.6,118.3 		"/>
		<polygon class="st13" points="193.9,128.7 204.3,138.8 214.9,128.4 204.6,118.3 		"/>
		<polygon class="st11" points="193.9,156.2 204.3,166.3 214.9,155.9 204.6,145.9 		"/>
		<polygon class="st13" points="193.9,156.2 204.3,166.3 214.9,155.9 204.6,145.9 		"/>
		<polygon class="st11" points="193.9,183.8 204.3,193.9 214.9,183.5 204.6,173.5 		"/>
		<polygon class="st13" points="193.9,183.8 204.3,193.9 214.9,183.5 204.6,173.5 		"/>
		<polygon class="st11" points="193.9,211.4 204.3,221.4 214.9,211.1 204.6,201 		"/>
		<polygon class="st13" points="193.9,211.4 204.3,221.4 214.9,211.1 204.6,201 		"/>
		<polygon class="st13" points="193.9,239 204.3,249 214.9,238.7 204.6,228.6 		"/>
		<polygon class="st13" points="193.9,266.5 204.3,276.6 214.9,266.2 204.6,256.2 		"/>
		<polygon class="st13" points="193.9,294.1 204.3,304.2 214.9,293.8 204.6,283.7 		"/>
		<polygon class="st13" points="155.3,46 165.7,56 176.4,45.7 166,35.6 		"/>
		<polygon class="st13" points="155.3,73.6 165.7,83.6 176.4,73.2 166,63.2 		"/>
		<polygon class="st13" points="155.3,101.1 165.7,111.2 176.4,100.8 166,90.8 		"/>
		<polygon class="st13" points="155.3,128.7 165.7,138.8 176.4,128.4 166,118.3 		"/>
		<polygon class="st13" points="155.3,156.2 165.7,166.3 176.4,155.9 166,145.9 		"/>
		<polygon class="st13" points="155.3,183.8 165.7,193.9 176.4,183.5 166,173.5 		"/>
		<polygon class="st13" points="155.3,211.4 165.7,221.4 176.4,211.1 166,201 		"/>
		<polygon class="st13" points="155.3,239 165.7,249 176.4,238.7 166,228.6 		"/>
		<polygon class="st13" points="155.3,266.5 165.7,276.6 176.4,266.2 166,256.2 		"/>
		<polygon class="st13" points="155.3,294.1 165.7,304.2 176.4,293.8 166,283.7 		"/>
		<polygon class="st13" points="116.8,46 127.2,56 137.9,45.7 127.5,35.6 		"/>
		<polygon class="st13" points="116.8,73.6 127.2,83.6 137.9,73.2 127.5,63.2 		"/>
		<polygon class="st13" points="116.8,101.1 127.2,111.2 137.9,100.8 127.5,90.8 		"/>
		<polygon class="st13" points="116.8,128.7 127.2,138.8 137.9,128.4 127.5,118.3 		"/>
		<polygon class="st13" points="116.8,156.2 127.2,166.3 137.9,155.9 127.5,145.9 		"/>
		<polygon class="st13" points="116.8,183.8 127.2,193.9 137.9,183.5 127.5,173.5 		"/>
		<polygon class="st13" points="116.8,211.4 127.2,221.4 137.9,211.1 127.5,201 		"/>
		<polygon class="st13" points="116.8,239 127.2,249 137.9,238.7 127.5,228.6 		"/>
		<polygon class="st13" points="116.8,266.5 127.2,276.6 137.9,266.2 127.5,256.2 		"/>
		<polygon class="st13" points="116.8,294.1 127.2,304.2 137.9,293.8 127.5,283.7 		"/>
		<polygon class="st13" points="78.2,46 88.6,56 99.3,45.7 88.9,35.6 		"/>
		<polygon class="st13" points="78.2,73.6 88.6,83.6 99.3,73.2 88.9,63.2 		"/>
		<polygon class="st13" points="78.2,101.1 88.6,111.2 99.3,100.8 88.9,90.8 		"/>
		<polygon class="st13" points="78.2,128.7 88.6,138.8 99.3,128.4 88.9,118.3 		"/>
		<polygon class="st13" points="78.2,156.2 88.6,166.3 99.3,155.9 88.9,145.9 		"/>
		<polygon class="st13" points="78.2,183.8 88.6,193.9 99.3,183.5 88.9,173.5 		"/>
		<polygon class="st13" points="78.2,211.4 88.6,221.4 99.3,211.1 88.9,201 		"/>
		<polygon class="st13" points="78.2,239 88.6,249 99.3,238.7 88.9,228.6 		"/>
		<polygon class="st13" points="78.2,266.5 88.6,276.6 99.3,266.2 88.9,256.2 		"/>
		<polygon class="st13" points="78.2,294.1 88.6,304.2 99.3,293.8 88.9,283.7 		"/>
		<polygon class="st13" points="39.7,46 50.1,56 60.8,45.7 50.4,35.6 		"/>
		<polygon class="st13" points="39.7,73.6 50.1,83.6 60.8,73.2 50.4,63.2 		"/>
		<polygon class="st13" points="39.7,101.1 50.1,111.2 60.8,100.8 50.4,90.8 		"/>
		<polygon class="st13" points="39.7,128.7 50.1,138.8 60.8,128.4 50.4,118.3 		"/>
		<polygon class="st13" points="39.7,156.2 50.1,166.3 60.8,155.9 50.4,145.9 		"/>
		<polygon class="st13" points="39.7,183.8 50.1,193.9 60.8,183.5 50.4,173.5 		"/>
		<polygon class="st13" points="39.7,211.4 50.1,221.4 60.8,211.1 50.4,201 		"/>
		<polygon class="st13" points="39.7,239 50.1,249 60.8,238.7 50.4,228.6 		"/>
		<polygon class="st13" points="39.7,266.5 50.1,276.6 60.8,266.2 50.4,256.2 		"/>
		<polygon class="st13" points="39.7,294.1 50.1,304.2 60.8,293.8 50.4,283.7 		"/>
		<polygon class="st13" points="1.1,46 11.5,56 22.2,45.7 11.8,35.6 		"/>
		<polygon class="st13" points="1.1,73.6 11.5,83.6 22.2,73.2 11.8,63.2 		"/>
		<polygon class="st13" points="1.1,101.1 11.5,111.2 22.2,100.8 11.8,90.8 		"/>
		<polygon class="st13" points="1.1,128.7 11.5,138.8 22.2,128.4 11.8,118.3 		"/>
		<polygon class="st13" points="1.1,156.2 11.5,166.3 22.2,155.9 11.8,145.9 		"/>
		<polygon class="st13" points="1.1,183.8 11.5,193.9 22.2,183.5 11.8,173.5 		"/>
		<polygon class="st13" points="1.1,211.4 11.5,221.4 22.2,211.1 11.8,201 		"/>
		<polygon class="st13" points="1.1,239 11.5,249 22.2,238.7 11.8,228.6 		"/>
		<polygon class="st13" points="1.1,266.5 11.5,276.6 22.2,266.2 11.8,256.2 		"/>
		<polygon class="st13" points="1.1,294.1 11.5,304.2 22.2,293.8 11.8,283.7 		"/>
		<polygon class="st3" points="264.9,168.7 225.1,168.7 225.1,29.3 185.2,29.3 185.2,29.3 108.1,29.3 108.1,309 185.2,309 
			185.2,309 225,309 225,309 264.9,309 		"/>
	</g>
</g>
<g id="Mode_Isolation_1_">
</g>
</svg>
