<?xml version="1.0" encoding="utf-8"?>
<!-- Generator: Adobe Illustrator 24.0.1, SVG Export Plug-In . SVG Version: 6.00 Build 0)  -->
<svg version="1.1" id="Calque_1" xmlns="http://www.w3.org/2000/svg" xmlns:xlink="http://www.w3.org/1999/xlink" x="0px" y="0px"
	 viewBox="0 0 277.3 201.8" style="enable-background:new 0 0 277.3 201.8;" xml:space="preserve">
<style type="text/css">
	.st0{fill:none;stroke:#231F20;stroke-width:0.7;stroke-miterlimit:10;}
	.st1{fill:#231F20;}
	.st2{fill:#A1A1A1;}
	.st3{fill:#E0E0E0;}
	.st4{fill:#FFFFFF;}
	.st5{enable-background:new    ;}
	.st6{fill:#1D1D1B;}
	.st7{fill:#010101;}
	.st8{fill:none;}
	.st9{fill:#E30613;}
	.st10{fill:#009FE3;}
</style>
<title>mobile_cartelegende</title>
<g id="Mode_Isolation">
	<g id="Légende">
		<g id="CA">
			<path class="st0" d="M150.8,85.2c-16.7-10.8-21.4-33.1-10.6-49.7c10.8-16.7,33.1-21.4,49.7-10.6s21.4,33.1,10.6,49.7
				c-3.3,5.1-7.9,9.3-13.3,12.2"/>
			<polygon class="st1" points="186.9,85 184.9,87.9 188.4,88.1 			"/>
		</g>
		<path class="st2" d="M170.7,54.8L151.3,28c5.6-4.2,12.4-6.4,19.4-6.3V54.8z"/>
		<path class="st3" d="M171,56l-20.2-28l0.3-0.2c5.6-4.2,12.5-6.5,19.6-6.4h0.3L171,56L171,56z M151.8,28.2l18.5,25.6V22.1
			C163.6,22.1,157.2,24.2,151.8,28.2L151.8,28.2z"/>
		<path class="st2" d="M170.7,54.8l-31.3-10.2c2.1-6.7,6.3-12.5,12-16.5L170.7,54.8z"/>
		<path class="st3" d="M171.6,55.5l-32.7-10.7l0.1-0.3c2.1-6.8,6.3-12.6,12.1-16.7l0.3-0.2L171.6,55.5z M139.8,44.4l29.9,9.8
			l-18.5-25.6C145.8,32.5,141.8,38,139.8,44.4z"/>
		<path class="st2" d="M170.7,54.8L139.4,65c-2.3-6.6-2.3-13.8,0-20.5L170.7,54.8z"/>
		<path class="st3" d="M139.1,65.5l-0.1-0.3c-2.3-6.7-2.3-14,0-20.7l0.1-0.3l32.7,10.7L139.1,65.5z M139.6,45.1
			c-2.1,6.3-2.1,13.2,0,19.5l29.9-9.8L139.6,45.1z"/>
		<path class="st2" d="M170.7,54.8l-19.4,26.8c-5.7-4-9.9-9.9-12-16.5L170.7,54.8z"/>
		<path class="st3" d="M151.4,82.1l-0.3-0.2c-5.8-4.1-10-10-12.1-16.7l-0.1-0.3l32.7-10.7L151.4,82.1z M139.8,65.3
			c2,6.3,6,11.9,11.4,15.8l18.5-25.5L139.8,65.3z"/>
		<path class="st2" d="M170.7,54.8L202,65.1c-2.1,6.7-6.3,12.5-12,16.5L170.7,54.8z"/>
		<path class="st3" d="M189.9,82.1l-20.2-28l32.7,10.7l-0.1,0.3c-2.1,6.8-6.3,12.6-12.1,16.7L189.9,82.1z M171.6,55.5L190.1,81
			c5.4-3.9,9.4-9.4,11.4-15.8L171.6,55.5z"/>
		<path class="st2" d="M170.7,54.8L202,44.6c2.2,6.6,2.2,13.8,0,20.5L170.7,54.8z"/>
		<path class="st3" d="M202.2,65.5l-32.7-10.7l32.7-10.7l0.1,0.3c2.3,6.7,2.3,14,0,20.7L202.2,65.5z M171.9,54.8l29.9,9.8
			c2.1-6.3,2.1-13.2,0-19.5L171.9,54.8z"/>
		<path class="st2" d="M170.7,54.8L190,28c5.7,4,9.9,9.9,12,16.5L170.7,54.8z"/>
		<path class="st3" d="M169.7,55.5l20.2-28l0.3,0.2c5.8,4.1,10,10,12.1,16.7l0.1,0.3L169.7,55.5z M190.1,28.6l-18.5,25.5l29.9-9.8
			C199.5,38,195.5,32.5,190.1,28.6z"/>
		<path class="st2" d="M170.7,54.8V21.7c7-0.1,13.8,2.1,19.3,6.3L170.7,54.8z"/>
		<path class="st3" d="M170.3,56V21.4h0.4c7-0.1,13.9,2.1,19.6,6.4l0.3,0.2L170.3,56z M171,22.1v31.6l18.5-25.5
			C184.1,24.2,177.6,22.1,171,22.1z"/>
		<ellipse class="st4" cx="170.7" cy="54.9" rx="22.4" ry="22.5"/>
		<g class="st5">
			<path class="st6" d="M152.2,136.2l-3-7.3v7.3H147v-13h2.1l3,7.3v-7.3h2.2v13H152.2z"/>
			<path class="st6" d="M163.6,132.3c0,1.4-0.3,2.4-0.9,3s-1.6,1-2.9,1c-1.3,0-2.3-0.3-2.9-1s-0.9-1.7-0.9-3v-5.2
				c0-1.4,0.3-2.4,0.9-3s1.6-1,2.9-1s2.3,0.3,2.9,1s0.9,1.7,0.9,3V132.3z M161.2,127.3c0-0.8-0.1-1.3-0.3-1.6s-0.6-0.4-1.1-0.4
				s-0.9,0.1-1.1,0.4s-0.3,0.8-0.3,1.6v4.7c0,0.8,0.1,1.3,0.3,1.6s0.6,0.4,1.1,0.4s0.9-0.1,1.1-0.4s0.3-0.8,0.3-1.6V127.3z"/>
			<path class="st6" d="M169.5,136.2l-2.1-9.1v9.1h-2.3v-13h3.4l1.7,7.1l1.7-7.1h3.4v13H173v-9.1l-2.1,9.1L169.5,136.2L169.5,136.2z
				"/>
			<path class="st6" d="M176.9,136.2v-13h3.5c1.1,0,1.9,0.2,2.4,0.6s0.7,1,0.7,1.9v1.6c0,0.5-0.2,1-0.5,1.3s-0.8,0.5-1.5,0.6
				c0.8,0.1,1.5,0.3,1.8,0.7s0.6,0.9,0.6,1.6v2c0,1-0.3,1.7-0.8,2.1c-0.5,0.4-1.4,0.7-2.7,0.7h-3.5V136.2z M180.3,125.1h-1v3.3h1
				c0.3,0,0.5-0.1,0.7-0.2c0.1-0.2,0.2-0.5,0.2-0.9v-1.1c0-0.4-0.1-0.7-0.2-0.9C180.8,125.2,180.6,125.1,180.3,125.1z M180.5,130.3
				h-1.2v3.9h1.2c0.4,0,0.7-0.1,0.9-0.3s0.3-0.5,0.3-1.1v-1.3c0-0.5-0.1-0.8-0.3-1C181.1,130.4,180.9,130.3,180.5,130.3z"/>
			<path class="st6" d="M187.9,136.2h-2.4v-13h3.5c0.7,0,1.2,0,1.6,0.1c0.4,0.1,0.8,0.3,1,0.5c0.3,0.2,0.4,0.6,0.5,0.9
				s0.2,0.9,0.2,1.5v1.8c0,0.6-0.1,1.1-0.3,1.6s-0.5,0.7-0.9,1l1.3,5.6H190l-1.1-5.2h-1V136.2z M189,125.3h-1.1v3.6h1.1
				c0.4,0,0.6-0.1,0.7-0.2c0.1-0.2,0.2-0.5,0.2-0.9v-1.2c0-0.5-0.1-0.8-0.2-1C189.6,125.4,189.3,125.3,189,125.3z"/>
			<path class="st6" d="M193.9,136.2v-13h5.9v2.3h-3.5v3h3.3v2.2h-3.3v3.4h3.5v2.3h-5.9V136.2z"/>
			<path class="st6" d="M205,136.2v-13h3.6c1.4,0,2.4,0.3,3,0.9s0.9,1.7,0.9,3.1v4.9c0,1.5-0.3,2.5-0.9,3.1s-1.6,0.9-3,0.9H205
				V136.2z M208.6,125.3h-1.2v8.7h1.2c0.5,0,0.9-0.2,1.1-0.5s0.3-0.9,0.3-1.7v-4.3c0-0.8-0.1-1.4-0.3-1.7S209.1,125.3,208.6,125.3z"
				/>
			<path class="st6" d="M214,136.2v-13h5.9v2.3h-3.5v3h3.3v2.2h-3.3v3.4h3.5v2.3H214V136.2z"/>
			<path class="st6" d="M228.7,136.3c-1.3,0-2.2-0.3-2.8-0.9s-0.8-1.7-0.8-3.1V127c0-1.4,0.3-2.3,0.9-3s1.6-0.9,2.9-0.9
				c1.3,0,2.3,0.3,2.9,0.9s0.9,1.5,0.9,2.7v1.7h-2.4V127c0-0.5-0.1-0.9-0.4-1.2s-0.6-0.4-1.1-0.4s-0.9,0.1-1.1,0.4s-0.3,0.8-0.3,1.6
				v4.7c0,0.8,0.1,1.3,0.3,1.6s0.6,0.4,1.1,0.4s0.8-0.1,1.1-0.3s0.4-0.6,0.4-1.2v-1.3h-1.5v-1.9h3.9v6.9h-0.9l-0.4-1.8
				c-0.2,0.6-0.5,1.1-0.9,1.4S229.5,136.3,228.7,136.3z"/>
			<path class="st6" d="M236.7,136.2h-2.4v-13h3.5c0.7,0,1.2,0,1.6,0.1c0.4,0.1,0.8,0.3,1,0.5c0.3,0.2,0.4,0.6,0.5,0.9
				s0.2,0.9,0.2,1.5v1.8c0,0.6-0.1,1.1-0.3,1.6s-0.5,0.7-0.9,1l1.3,5.6h-2.5l-1.1-5.2h-1L236.7,136.2L236.7,136.2z M237.8,125.3
				h-1.1v3.6h1.1c0.4,0,0.6-0.1,0.7-0.2c0.1-0.2,0.2-0.5,0.2-0.9v-1.2c0-0.5-0.1-0.8-0.2-1C238.4,125.4,238.2,125.3,237.8,125.3z"/>
			<path class="st6" d="M247.7,136.2l-0.4-3.2h-2l-0.4,3.2h-2.3l1.9-13h3.7l1.9,13H247.7z M247.1,131.1l-0.8-5.7l-0.8,5.7H247.1z"/>
			<path class="st6" d="M256.7,136.2l-3-7.3v7.3h-2.2v-13h2.1l3,7.3v-7.3h2.2v13H256.7z"/>
		</g>
		<g class="st5">
			<path class="st6" d="M260.4,136.2v-13h3.6c1.4,0,2.4,0.3,3,0.9s0.9,1.7,0.9,3.1v4.9c0,1.5-0.3,2.5-0.9,3.1s-1.6,0.9-3,0.9h-3.6
				V136.2z M263.9,125.3h-1.2v8.7h1.2c0.5,0,0.9-0.2,1.1-0.5s0.3-0.9,0.3-1.7v-4.3c0-0.8-0.1-1.4-0.3-1.7S264.5,125.3,263.9,125.3z"
				/>
		</g>
		<g class="st5">
			<path class="st6" d="M276.7,131.8v1.4c0,1.1-0.3,1.9-0.9,2.4s-1.5,0.7-2.8,0.7s-2.3-0.3-2.8-0.8s-0.9-1.4-0.9-2.6v-1.4h2.4v1.2
				c0,0.5,0.1,0.9,0.3,1.2s0.6,0.3,1,0.3c0.5,0,0.8-0.1,1-0.2s0.3-0.5,0.3-0.9V132c0-0.4-0.1-0.6-0.3-0.8s-0.7-0.3-1.5-0.5
				c-0.4-0.1-0.8-0.2-1.1-0.3s-0.6-0.2-0.8-0.3s-0.5-0.3-0.6-0.4s-0.3-0.3-0.4-0.5s-0.2-0.4-0.2-0.7s-0.1-0.6-0.1-0.9v-1.4
				c0-1.1,0.3-1.9,0.9-2.4s1.5-0.7,2.8-0.7s2.2,0.3,2.8,0.8s0.9,1.4,0.9,2.5v1.4h-2.4v-1.2c0-0.5-0.1-0.8-0.3-1.1s-0.6-0.3-1-0.3
				s-0.8,0.1-1,0.3s-0.3,0.5-0.3,0.9v1.1c0,0.2,0,0.4,0.1,0.6s0.3,0.2,0.5,0.3s0.7,0.2,1.3,0.3c0.6,0.1,1.1,0.3,1.5,0.4
				s0.7,0.3,1,0.6s0.4,0.5,0.5,0.9S276.7,131.3,276.7,131.8z"/>
		</g>
		<g class="st5">
			<path class="st6" d="M147,157.1v-13h5.9v2.3h-3.5v3h3.3v2.2h-3.3v3.4h3.5v2.3H147V157.1z M150.6,143.7h-1.5l0.3-1h2.2
				L150.6,143.7z"/>
			<path class="st6" d="M154.4,157.1v-13h2.4v10.8h3.5v2.3h-5.9V157.1z"/>
		</g>
		<g class="st5">
			<path class="st6" d="M161.8,157.1v-13h5.9v2.3h-3.5v3h3.3v2.2h-3.3v3.4h3.5v2.3h-5.9V157.1z"/>
		</g>
		<g class="st5">
			<path class="st6" d="M169.1,153.2V148c0-1.4,0.3-2.4,0.9-3s1.6-1,2.9-1c1.3,0,2.3,0.3,2.9,0.9s0.9,1.6,0.9,2.9v1.9h-2.4V148
				c0-0.6-0.1-1.1-0.4-1.4c-0.2-0.3-0.6-0.4-1.1-0.4s-0.9,0.1-1.1,0.4c-0.2,0.3-0.3,0.8-0.3,1.6v4.7c0,0.8,0.1,1.3,0.3,1.6
				s0.6,0.4,1.1,0.4s0.9-0.1,1.1-0.4c0.2-0.3,0.3-0.7,0.4-1.4v-1.9h2.4v2.1c0,1.4-0.3,2.3-0.9,2.9s-1.6,0.9-2.9,0.9
				c-1.4,0-2.4-0.3-3-0.9C169.4,155.7,169.1,154.7,169.1,153.2z"/>
		</g>
		<g class="st5">
			<path class="st6" d="M184.3,146.5h-2v10.7h-2.4v-10.7h-2v-2.4h6.4V146.5z"/>
		</g>
		<g class="st5">
			<path class="st6" d="M185.9,157.1v-13h5.9v2.3h-3.5v3h3.3v2.2h-3.3v3.4h3.5v2.3h-5.9V157.1z"/>
		</g>
		<g class="st5">
			<path class="st6" d="M196.9,157.2c-0.7,0-1.3-0.1-1.7-0.2s-0.8-0.4-1.1-0.7s-0.5-0.8-0.6-1.3s-0.2-1.2-0.2-2v-8.9h2.4v8.6
				c0,0.9,0.1,1.5,0.3,1.8s0.5,0.5,1,0.5c0.4,0,0.8-0.2,1-0.5s0.3-0.9,0.3-1.8v-8.6h2.4v8.9c0,1.6-0.3,2.7-0.8,3.3
				S198.3,157.2,196.9,157.2z"/>
		</g>
		<g class="st5">
			<path class="st6" d="M204.6,157.1h-2.4v-13h3.5c0.7,0,1.2,0,1.6,0.1c0.4,0.1,0.8,0.3,1,0.5c0.3,0.2,0.4,0.6,0.5,0.9
				s0.2,0.9,0.2,1.5v1.8c0,0.6-0.1,1.1-0.3,1.6s-0.5,0.7-0.9,1l1.3,5.6h-2.5l-1.1-5.2h-1L204.6,157.1L204.6,157.1z M205.7,146.3
				h-1.1v3.6h1.1c0.4,0,0.6-0.1,0.7-0.2c0.1-0.2,0.2-0.5,0.2-0.9v-1.2c0-0.5-0.1-0.8-0.2-1C206.3,146.4,206,146.3,205.7,146.3z"/>
		</g>
		<g class="st5">
			<path class="st6" d="M218,152.7v1.4c0,1.1-0.3,1.9-0.9,2.4s-1.5,0.7-2.8,0.7s-2.3-0.3-2.8-0.8s-0.9-1.4-0.9-2.6v-1.4h2.4v1.2
				c0,0.5,0.1,0.9,0.3,1.2c0.2,0.2,0.6,0.3,1,0.3c0.5,0,0.8-0.1,1-0.2c0.2-0.2,0.3-0.5,0.3-0.9v-1.1c0-0.4-0.1-0.6-0.3-0.8
				c-0.2-0.1-0.7-0.3-1.5-0.5c-0.4-0.1-0.8-0.2-1.1-0.3s-0.6-0.2-0.8-0.3s-0.5-0.3-0.6-0.4c-0.2-0.1-0.3-0.3-0.4-0.5
				c-0.1-0.2-0.2-0.4-0.2-0.7s-0.1-0.6-0.1-0.9v-1.4c0-1.1,0.3-1.9,0.9-2.4s1.5-0.7,2.8-0.7s2.2,0.3,2.8,0.8s0.9,1.4,0.9,2.5v1.4
				h-2.4v-1.2c0-0.5-0.1-0.8-0.3-1.1c-0.2-0.2-0.6-0.3-1-0.3c-0.5,0-0.8,0.1-1,0.3s-0.3,0.5-0.3,0.9v1.1c0,0.2,0,0.4,0.1,0.6
				c0.1,0.1,0.3,0.2,0.5,0.3s0.7,0.2,1.3,0.3s1.1,0.3,1.5,0.4c0.4,0.2,0.7,0.3,1,0.6c0.3,0.2,0.4,0.5,0.5,0.9S218,152.2,218,152.7z"
				/>
		</g>
		<g class="st5">
			<path class="st7" d="M210.9,81.5h1.3v2.9h-7.8v-0.6l4.4-4.5c1.1-1.2,1.6-2.1,1.6-3.3c0-1.3-0.8-2-2-2c-1.3,0-2.2,0.8-2.4,2.5
				h-1.3c0.2-2.2,1.5-3.7,3.7-3.7c2.1,0,3.4,1.2,3.4,3.2c0,1.4-0.9,2.7-2.3,4.2l-3.1,3.1h4.5L210.9,81.5L210.9,81.5z"/>
		</g>
		<g class="st5">
			<path class="st7" d="M213.7,79.1v-0.6c0-3.4,1.7-5.6,4.5-5.6s4.5,2.3,4.5,5.5V79c0,3.3-1.6,5.6-4.4,5.6
				C215.5,84.6,213.7,82.4,213.7,79.1z M221.3,79v-0.6c0-2.7-1.1-4.4-3.1-4.4s-3.1,1.6-3.1,4.4V79c0,2.9,1.2,4.4,3.1,4.4
				C220.2,83.5,221.3,81.9,221.3,79z"/>
		</g>
		<g class="st5">
			<path class="st7" d="M224.3,84.5v-1.1h2.3v-9l-2.6,1.8v-1.3l2.7-1.9h1.3v10.4h2.2v1.1H224.3z"/>
		</g>
		<g class="st5">
			<path class="st7" d="M235.3,84.6c-3.1,0-4.1-2.3-4.1-5.2v-0.3c0-4.1,1.9-6.3,4.5-6.3c1.8,0,3,0.9,3.3,2.8h-1.3
				c-0.3-1.1-0.8-1.6-2.1-1.6c-1.7,0-2.9,1.6-3,4.6c0.5-0.9,1.6-1.6,2.9-1.6c2.3,0,3.7,1.6,3.7,3.7
				C239.3,83.1,237.8,84.6,235.3,84.6z M237.9,80.9c0-1.6-1-2.7-2.5-2.7s-2.6,1-2.6,2.5c0,1.9,1.1,2.9,2.6,2.9
				C236.8,83.5,237.9,82.5,237.9,80.9z"/>
		</g>
		<g class="st5">
			<path class="st7" d="M143.7,196.1h1.3c0.1,1.4,0.9,2.4,2.8,2.4c1.8,0,2.6-0.9,2.6-2.2c0-1.5-0.8-2.2-2.4-2.2h-1v-1.2h0.8
				c1.5,0,2.1-0.7,2.1-2c0-1.1-0.7-1.9-2.1-1.9c-1.4,0-2.4,0.9-2.5,2.2h-1.2c0.1-1.8,1.6-3.3,3.7-3.3s3.4,1.4,3.4,3
				c0,1.3-0.8,2.1-1.8,2.5c1.3,0.4,2.2,1.3,2.2,2.9c0,2.1-1.7,3.3-4.1,3.3C145.2,199.6,143.7,198.1,143.7,196.1z"/>
		</g>
		<g class="st5">
			<path class="st7" d="M179.7,196.6h1.3v2.9h-7.8v-0.6l4.4-4.5c1.1-1.2,1.6-2.1,1.6-3.3c0-1.3-0.8-2-2-2c-1.3,0-2.2,0.8-2.4,2.5
				h-1.3c0.2-2.2,1.5-3.7,3.7-3.7c2.1,0,3.4,1.2,3.4,3.2c0,1.4-0.9,2.7-2.3,4.2l-3.1,3.1h4.5L179.7,196.6L179.7,196.6z"/>
		</g>
		<g class="st5">
			<path class="st7" d="M182.4,194.1v-0.6c0-3.4,1.7-5.6,4.5-5.6s4.5,2.3,4.5,5.5v0.6c0,3.3-1.6,5.6-4.4,5.6
				C184.2,199.6,182.4,197.4,182.4,194.1z M190,194.1v-0.6c0-2.7-1.1-4.4-3.1-4.4s-3.1,1.6-3.1,4.4v0.6c0,2.9,1.2,4.4,3.1,4.4
				C188.9,198.5,190,197,190,194.1z"/>
		</g>
		<g class="st5">
			<path class="st7" d="M211.6,196.4h1.3c0.2,1.2,0.7,2.1,2.5,2.1c1.6,0,2.5-1,2.5-2.7c0-1.6-0.9-2.6-2.4-2.6
				c-1.3,0-2.1,0.4-2.7,1.1h-0.5v-6.2h6.4v2.4h-1.3v-1.2h-4v3.6c0.5-0.4,1.2-0.8,2.3-0.8c2,0,3.6,1.4,3.6,3.7c0,2.4-1.7,3.9-3.9,3.9
				C213,199.6,211.8,198.3,211.6,196.4z"/>
		</g>
		<g class="st5">
			<path class="st7" d="M220.6,196.4h1.3c0.2,1.2,0.7,2.1,2.5,2.1c1.6,0,2.5-1,2.5-2.7c0-1.6-0.9-2.6-2.4-2.6
				c-1.3,0-2.1,0.4-2.7,1.1h-0.5v-6.2h6.4v2.4h-1.3v-1.2h-4v3.6c0.5-0.4,1.2-0.8,2.3-0.8c2,0,3.6,1.4,3.6,3.7c0,2.4-1.7,3.9-3.9,3.9
				C222,199.6,220.8,198.3,220.6,196.4z"/>
		</g>
		<g class="st5">
			<path class="st7" d="M217.2,54.4h1.3v2.9h-7.8v-0.6l4.4-4.5c1.1-1.2,1.6-2.1,1.6-3.3c0-1.3-0.8-2-2-2c-1.3,0-2.2,0.8-2.4,2.5H211
				c0.2-2.2,1.5-3.7,3.7-3.7c2.1,0,3.4,1.2,3.4,3.2c0,1.4-0.9,2.7-2.3,4.2l-3.1,3.1h4.5L217.2,54.4L217.2,54.4z"/>
		</g>
		<g class="st5">
			<path class="st7" d="M220,52v-0.6c0-3.4,1.7-5.6,4.5-5.6s4.5,2.3,4.5,5.5v0.6c0,3.3-1.6,5.6-4.4,5.6C221.8,57.5,220,55.3,220,52z
				 M227.6,51.9v-0.6c0-2.7-1.1-4.4-3.1-4.4s-3.1,1.6-3.1,4.4v0.6c0,2.9,1.2,4.4,3.1,4.4C226.5,56.3,227.6,54.8,227.6,51.9z"/>
			<path class="st7" d="M230.6,57.4v-1.1h2.3v-9l-2.6,1.8v-1.3l2.7-1.9h1.3v10.4h2.2v1.1H230.6z"/>
			<path class="st7" d="M244,54.4h1.3v2.9h-7.8v-0.6l4.4-4.5c1.1-1.2,1.6-2.1,1.6-3.3c0-1.3-0.8-2-2-2c-1.3,0-2.2,0.8-2.4,2.5h-1.3
				c0.2-2.2,1.5-3.7,3.7-3.7c2.1,0,3.4,1.2,3.4,3.2c0,1.4-0.9,2.7-2.3,4.2l-3.1,3.1h4.5L244,54.4L244,54.4z"/>
		</g>
		<g class="st5">
			<path class="st7" d="M210.6,28.4h1.3v2.9H204v-0.6l4.4-4.5c1.1-1.2,1.6-2.1,1.6-3.3c0-1.3-0.8-2-2-2c-1.3,0-2.2,0.8-2.4,2.5h-1.3
				c0.2-2.2,1.5-3.7,3.7-3.7c2.1,0,3.4,1.2,3.4,3.2c0,1.4-0.9,2.7-2.3,4.2l-3.1,3.1h4.5v-1.8H210.6z"/>
		</g>
		<g class="st5">
			<path class="st7" d="M213.3,26v-0.6c0-3.4,1.7-5.6,4.5-5.6s4.5,2.3,4.5,5.5V26c0,3.3-1.6,5.6-4.4,5.6
				C215.1,31.5,213.3,29.3,213.3,26z M220.9,25.9v-0.6c0-2.7-1.1-4.4-3.1-4.4s-3.1,1.6-3.1,4.4V26c0,2.9,1.2,4.4,3.1,4.4
				C219.9,30.4,220.9,28.8,220.9,25.9z"/>
		</g>
		<g class="st5">
			<path class="st7" d="M223.9,26v-0.6c0-3.4,1.7-5.6,4.5-5.6s4.5,2.3,4.5,5.5V26c0,3.3-1.6,5.6-4.4,5.6
				C225.7,31.5,223.9,29.3,223.9,26z M231.5,25.9v-0.6c0-2.7-1.1-4.4-3.1-4.4s-3.1,1.6-3.1,4.4V26c0,2.9,1.2,4.4,3.1,4.4
				C230.4,30.4,231.5,28.8,231.5,25.9z"/>
		</g>
		<g class="st5">
			<path class="st7" d="M234.2,28.1c0-1.5,0.9-2.5,2.2-3c-1.1-0.4-1.7-1.3-1.7-2.4c0-1.9,1.8-3,3.5-3c1.8,0,3.5,1.2,3.5,2.9
				c0,1.2-0.7,2-1.8,2.4c1.3,0.5,2.2,1.5,2.2,2.9c0,2.3-2,3.4-3.9,3.4C236.3,31.5,234.2,30.4,234.2,28.1z M240.6,28.1
				c0-1.5-1.1-2.3-2.5-2.3s-2.6,0.8-2.6,2.3s1.2,2.3,2.5,2.3C239.5,30.4,240.6,29.6,240.6,28.1z M240.2,22.8c0-1.1-0.9-1.9-2.1-1.9
				s-2.1,0.7-2.1,1.9c0,1.2,1,1.9,2.2,1.9C239.4,24.7,240.2,24,240.2,22.8z"/>
		</g>
		<g class="st5">
			<path class="st7" d="M189.3,12.4h1.3v2.9h-7.8v-0.6l4.4-4.5c1.1-1.2,1.6-2.1,1.6-3.3c0-1.3-0.8-2-2-2c-1.3,0-2.2,0.8-2.4,2.5
				h-1.3c0.2-2.2,1.5-3.7,3.7-3.7c2.1,0,3.4,1.2,3.4,3.2c0,1.4-0.9,2.7-2.3,4.2l-3.1,3.1h4.5L189.3,12.4L189.3,12.4z"/>
		</g>
		<g class="st5">
			<path class="st7" d="M192.1,9.9V9.3c0-3.4,1.7-5.6,4.5-5.6s4.5,2.3,4.5,5.5v0.6c0,3.3-1.6,5.6-4.4,5.6
				C193.9,15.4,192.1,13.2,192.1,9.9z M199.6,9.9V9.2c0-2.7-1.1-4.4-3.1-4.4c-1.9,0-3.1,1.6-3.1,4.4v0.6c0,2.9,1.2,4.4,3.1,4.4
				C198.6,14.3,199.6,12.8,199.6,9.9z"/>
		</g>
		<g class="st5">
			<path class="st7" d="M202.6,9.9V9.3c0-3.4,1.7-5.6,4.5-5.6s4.5,2.3,4.5,5.5v0.6c0,3.3-1.6,5.6-4.4,5.6
				C204.4,15.4,202.6,13.2,202.6,9.9z M210.2,9.9V9.2c0-2.7-1.1-4.4-3.1-4.4c-1.9,0-3.1,1.6-3.1,4.4v0.6c0,2.9,1.2,4.4,3.1,4.4
				C209.2,14.3,210.2,12.8,210.2,9.9z"/>
		</g>
		<g class="st5">
			<path class="st7" d="M216.8,15.3v-1.1h1.6v-1.6h-5.7V12l5.2-8.1h1.9v7.7h1.6v1.1h-1.6v1.6h1.4v1.1h-4.4V15.3z M218.4,11.5V4.9
				l-4.2,6.6H218.4z"/>
		</g>
		<g class="st5">
			<path class="st7" d="M103.1,84.5v-1.1h2.3v-9l-2.6,1.8V75l2.7-1.9h1.3v10.4h2.2v1.1L103.1,84.5L103.1,84.5z"/>
		</g>
		<g class="st5">
			<path class="st7" d="M110,81.7h1.3c0.3,1.1,0.9,1.8,2.4,1.8c1.8,0,2.9-1.5,2.9-4.5c-0.5,0.9-1.6,1.5-3,1.5
				c-2.2,0-3.8-1.6-3.8-3.7c0-2.3,1.5-3.8,4-3.8c2.7,0,4.1,1.8,4.1,5.1v0.7c0,3.8-1.6,5.9-4.3,5.9C111.5,84.6,110.3,83.5,110,81.7z
				 M116.5,76.9c0-1.9-1.1-2.9-2.6-2.9s-2.5,1.1-2.5,2.7s1,2.7,2.5,2.7C115.4,79.4,116.5,78.4,116.5,76.9z"/>
		</g>
		<g class="st5">
			<path class="st7" d="M119.4,81.2c0-1.5,0.9-2.5,2.2-3c-1.1-0.4-1.7-1.3-1.7-2.4c0-1.9,1.8-3,3.5-3c1.8,0,3.5,1.2,3.5,2.9
				c0,1.2-0.7,2-1.8,2.4c1.3,0.5,2.2,1.5,2.2,2.9c0,2.3-2,3.4-3.9,3.4C121.5,84.6,119.4,83.5,119.4,81.2z M125.9,81.2
				c0-1.5-1.1-2.3-2.5-2.3s-2.6,0.8-2.6,2.3s1.2,2.3,2.5,2.3C124.8,83.5,125.9,82.7,125.9,81.2z M125.5,75.9c0-1.1-0.9-1.9-2.1-1.9
				s-2.1,0.7-2.1,1.9c0,1.2,1,1.9,2.2,1.9C124.6,77.8,125.5,77.1,125.5,75.9z"/>
		</g>
		<g class="st5">
			<path class="st7" d="M128.7,81.2c0-1.5,0.9-2.5,2.2-3c-1.1-0.4-1.7-1.3-1.7-2.4c0-1.9,1.8-3,3.5-3c1.8,0,3.5,1.2,3.5,2.9
				c0,1.2-0.7,2-1.8,2.4c1.3,0.5,2.2,1.5,2.2,2.9c0,2.3-2,3.4-3.9,3.4C130.7,84.6,128.7,83.5,128.7,81.2z M135.1,81.2
				c0-1.5-1.1-2.3-2.5-2.3s-2.6,0.8-2.6,2.3s1.2,2.3,2.5,2.3C134,83.5,135.1,82.7,135.1,81.2z M134.7,75.9c0-1.1-0.9-1.9-2.1-1.9
				s-2.1,0.7-2.1,1.9c0,1.2,1,1.9,2.2,1.9C133.9,77.8,134.7,77.1,134.7,75.9z"/>
		</g>
		<g class="st5">
			<path class="st7" d="M95.5,57.4v-1.1h2.3v-9l-2.6,1.8v-1.3l2.7-1.9h1.3v10.4h2.2v1.1H95.5z"/>
		</g>
		<g class="st5">
			<path class="st7" d="M102.4,54.5h1.3c0.3,1.1,0.9,1.8,2.4,1.8c1.8,0,2.9-1.5,2.9-4.5c-0.5,0.9-1.6,1.5-3,1.5
				c-2.2,0-3.8-1.6-3.8-3.7c0-2.3,1.5-3.8,4-3.8c2.7,0,4.1,1.8,4.1,5.1v0.7c0,3.8-1.6,5.9-4.3,5.9C104,57.5,102.7,56.4,102.4,54.5z
				 M108.9,49.7c0-1.9-1.1-2.9-2.6-2.9s-2.5,1.1-2.5,2.7c0,1.6,1,2.7,2.5,2.7S108.9,51.2,108.9,49.7z"/>
		</g>
		<g class="st5">
			<path class="st7" d="M111.9,54.5h1.3c0.3,1.1,0.9,1.8,2.4,1.8c1.8,0,2.9-1.5,2.9-4.5c-0.5,0.9-1.6,1.5-3,1.5
				c-2.2,0-3.8-1.6-3.8-3.7c0-2.3,1.5-3.8,4-3.8c2.7,0,4.1,1.8,4.1,5.1v0.7c0,3.8-1.6,5.9-4.3,5.9C113.5,57.5,112.2,56.4,111.9,54.5
				z M118.4,49.7c0-1.9-1.1-2.9-2.6-2.9s-2.5,1.1-2.5,2.7c0,1.6,1,2.7,2.5,2.7S118.4,51.2,118.4,49.7z"/>
		</g>
		<g class="st5">
			<path class="st7" d="M127.5,54.4h1.3v2.9H121v-0.6l4.4-4.5c1.1-1.2,1.6-2.1,1.6-3.3c0-1.3-0.8-2-2-2c-1.3,0-2.2,0.8-2.4,2.5h-1.3
				c0.2-2.2,1.5-3.7,3.7-3.7c2.1,0,3.4,1.2,3.4,3.2c0,1.4-0.9,2.7-2.3,4.2l-3.1,3.1h4.5C127.5,56.2,127.5,54.4,127.5,54.4z"/>
		</g>
		<g class="st5">
			<path class="st7" d="M102.5,31.8v-1.1h2.3v-9l-2.6,1.8v-1.3l2.7-1.9h1.3v10.4h2.2v1.1H102.5z"/>
		</g>
		<g class="st5">
			<path class="st7" d="M109.4,28.9h1.3c0.3,1.1,0.9,1.8,2.4,1.8c1.8,0,2.9-1.5,2.9-4.5c-0.5,0.9-1.6,1.5-3,1.5
				c-2.2,0-3.8-1.6-3.8-3.7c0-2.3,1.5-3.8,4-3.8c2.7,0,4.1,1.8,4.1,5.1V26c0,3.8-1.6,5.9-4.3,5.9C111,31.9,109.7,30.8,109.4,28.9z
				 M115.9,24.1c0-1.9-1.1-2.9-2.6-2.9s-2.5,1.1-2.5,2.7s1,2.7,2.5,2.7C114.8,26.6,115.9,25.6,115.9,24.1z"/>
		</g>
		<g class="st5">
			<path class="st7" d="M118.9,28.9h1.3c0.3,1.1,0.9,1.8,2.4,1.8c1.8,0,2.9-1.5,2.9-4.5c-0.5,0.9-1.6,1.5-3,1.5
				c-2.2,0-3.8-1.6-3.8-3.7c0-2.3,1.5-3.8,4-3.8c2.7,0,4.1,1.8,4.1,5.1V26c0,3.8-1.6,5.9-4.3,5.9C120.5,31.9,119.2,30.8,118.9,28.9z
				 M125.4,24.1c0-1.9-1.1-2.9-2.6-2.9s-2.5,1.1-2.5,2.7s1,2.7,2.5,2.7C124.3,26.6,125.4,25.6,125.4,24.1z"/>
			<path class="st7" d="M132.6,31.9c-3.1,0-4.1-2.3-4.1-5.2v-0.3c0-4.1,1.9-6.3,4.5-6.3c1.8,0,3,0.9,3.3,2.8H135
				c-0.3-1.1-0.8-1.6-2.1-1.6c-1.7,0-2.9,1.6-3,4.6c0.5-0.9,1.6-1.6,2.9-1.6c2.3,0,3.7,1.6,3.7,3.7C136.6,30.4,135,31.9,132.6,31.9z
				 M135.1,28.1c0-1.6-1-2.7-2.5-2.7s-2.6,1-2.6,2.5c0,1.9,1.1,2.9,2.6,2.9S135.1,29.7,135.1,28.1z"/>
		</g>
		<g class="st5">
			<path class="st7" d="M124.7,12.4h1.3v2.9h-7.8v-0.6l4.4-4.5c1.1-1.2,1.6-2.1,1.6-3.3c0-1.3-0.8-2-2-2c-1.3,0-2.2,0.8-2.4,2.5
				h-1.3c0.2-2.2,1.5-3.7,3.7-3.7c2.1,0,3.4,1.2,3.4,3.2c0,1.4-0.9,2.7-2.3,4.2l-3.1,3.1h4.5C124.7,14.2,124.7,12.4,124.7,12.4z"/>
		</g>
		<g class="st5">
			<path class="st7" d="M127.5,9.9V9.3c0-3.4,1.7-5.6,4.5-5.6s4.5,2.3,4.5,5.5v0.6c0,3.3-1.6,5.6-4.4,5.6
				C129.3,15.4,127.5,13.2,127.5,9.9z M135.1,9.9V9.2c0-2.7-1.1-4.4-3.1-4.4c-1.9,0-3.1,1.6-3.1,4.4v0.6c0,2.9,1.2,4.4,3.1,4.4
				C134,14.3,135.1,12.8,135.1,9.9z"/>
			<path class="st7" d="M138.1,9.9V9.3c0-3.4,1.7-5.6,4.5-5.6s4.5,2.3,4.5,5.5v0.6c0,3.3-1.6,5.6-4.4,5.6
				C139.9,15.4,138.1,13.2,138.1,9.9z M145.6,9.9V9.2c0-2.7-1.1-4.4-3.1-4.4c-1.9,0-3.1,1.6-3.1,4.4v0.6c0,2.9,1.2,4.4,3.1,4.4
				C144.6,14.3,145.6,12.8,145.6,9.9z"/>
			<path class="st7" d="M148.6,9.9V9.3c0-3.4,1.7-5.6,4.5-5.6s4.5,2.3,4.5,5.5v0.6c0,3.3-1.6,5.6-4.4,5.6
				C150.5,15.4,148.6,13.2,148.6,9.9z M156.2,9.9V9.2c0-2.7-1.1-4.4-3.1-4.4S150,6.4,150,9.2v0.6c0,2.9,1.2,4.4,3.1,4.4
				C155.2,14.3,156.2,12.8,156.2,9.9z"/>
		</g>
		<line class="st0" x1="141.1" y1="75.9" x2="138.9" y2="77.4"/>
		<line class="st8" x1="170.7" y1="54.9" x2="141.1" y2="75.9"/>
		<line class="st0" x1="134.4" y1="54.8" x2="131.7" y2="54.8"/>
		<line class="st8" x1="170.7" y1="54.9" x2="134.4" y2="54.8"/>
		<line class="st0" x1="141.1" y1="33.8" x2="139" y2="32.2"/>
		<line class="st8" x1="170.7" y1="54.9" x2="141.1" y2="33.8"/>
		<line class="st0" x1="158.9" y1="20.6" x2="158" y2="18"/>
		<line class="st8" x1="170.7" y1="54.9" x2="158.9" y2="20.6"/>
		<line class="st0" x1="180.9" y1="20.1" x2="181.7" y2="17.5"/>
		<line class="st8" x1="170.7" y1="54.9" x2="180.9" y2="20.1"/>
		<line class="st0" x1="199.6" y1="34" x2="201.8" y2="32.3"/>
		<line class="st8" x1="170.7" y1="54.9" x2="199.2" y2="32.5"/>
		<line class="st0" x1="206.3" y1="54.9" x2="208.9" y2="54.8"/>
		<line class="st8" x1="170.7" y1="54.9" x2="206.9" y2="53.2"/>
		<line class="st0" x1="200.4" y1="75.2" x2="202.6" y2="76.6"/>
		<line class="st8" x1="170.7" y1="54.9" x2="201.1" y2="74.6"/>
		<g class="st5">
			<path class="st7" d="M24.3,160.7h1.4v-9.3h-1.4v-1.1h4.5c3.9,0,5.8,2.4,5.8,5.6v0.1c0,3.2-1.8,5.7-5.8,5.7h-4.4v-1H24.3z
				 M28.7,160.6c2.9,0,4.4-1.8,4.4-4.6v-0.1c0-2.6-1.3-4.5-4.4-4.5h-1.6v9.2L28.7,160.6L28.7,160.6z"/>
		</g>
		<g class="st5">
			<path class="st7" d="M35.8,157.7v-0.1c0-2.5,1.6-4.3,3.9-4.3c1.9,0,3.8,1.2,3.8,4.2v0.4h-6.3c0.1,1.9,1,3,2.7,3
				c1.3,0,2-0.5,2.2-1.5h1.3c-0.3,1.7-1.7,2.6-3.6,2.6C37.4,161.9,35.8,160.2,35.8,157.7z M42.1,156.8c-0.1-1.7-1-2.4-2.4-2.4
				s-2.3,0.9-2.5,2.4H42.1z M40.1,149.6h1.7l-1.7,2.4h-1L40.1,149.6z"/>
		</g>
		<g class="st5">
			<path class="st7" d="M44.6,161.8v-1h1.2v-6.2h-1.2v-1.1H47v1.4c0.3-0.8,1.2-1.5,2.4-1.5c1.1,0,2,0.4,2.4,1.7
				c0.6-1.2,1.7-1.7,2.8-1.7c1.5,0,2.8,0.9,2.8,3.3v4.1h1.2v1H55v-1h1.2v-4.2c0-1.5-0.6-2.1-1.7-2.1c-1.1,0-2.2,0.7-2.2,2.2v4.1h1.2
				v1h-3.7v-1H51v-4.2c0-1.5-0.6-2.1-1.7-2.1c-1.1,0-2.2,0.7-2.2,2.2v4.1h1.2v1H44.6z"/>
		</g>
		<g class="st5">
			<path class="st7" d="M59.5,157.7v-0.1c0-2.5,1.7-4.3,4.1-4.3c2.4,0,4.1,1.7,4.1,4.3v0.1c0,2.5-1.7,4.3-4.1,4.3
				C61.2,161.9,59.5,160.1,59.5,157.7z M66.4,157.7v-0.1c0-1.9-1.1-3.2-2.7-3.2c-1.7,0-2.7,1.2-2.7,3.2v0.1c0,1.9,1,3.2,2.7,3.2
				C65.3,160.8,66.4,159.5,66.4,157.7z"/>
			<path class="st7" d="M75.5,153.4h1.2v2.8h-1.1c-0.3-1.1-1.1-1.9-2.5-1.9c-1.5,0-2.7,1.2-2.7,3.2v0.1c0,2,1.1,3.1,2.7,3.1
				c1.2,0,2.3-0.7,2.4-2h1.2c-0.2,1.8-1.6,3.2-3.6,3.2c-2.3,0-4.1-1.6-4.1-4.2v-0.1c0-2.6,1.8-4.3,4.1-4.3c1.4,0,2.1,0.6,2.4,1.2
				V153.4z"/>
		</g>
		<g class="st5">
			<path class="st7" d="M78,161.8v-1h1.2v-6.2H78v-1.1h2.5v1.6c0.4-0.9,1.2-1.7,3-1.7v1.3c-1.8,0-3,0.6-3,2.6v3.6h1.3v1H78V161.8z"
				/>
		</g>
		<g class="st5">
			<path class="st7" d="M87,161.9c-1.5,0-2.7-0.8-2.7-2.5c0-2,2-2.6,4.1-2.6h1.2v-0.6c0-1.4-0.6-1.9-1.8-1.9c-1.1,0-1.7,0.4-1.9,1.5
				h-1.3c0.2-2,1.7-2.6,3.2-2.6c1.6,0,3,0.6,3,3v4.5h1.1v1h-2.4v-1.2C89.1,161.5,88.2,161.9,87,161.9z M89.6,158.8v-1h-1.1
				c-1.6,0-2.8,0.4-2.8,1.6c0,0.8,0.4,1.4,1.5,1.4C88.6,160.9,89.6,160.1,89.6,158.8z"/>
		</g>
		<g class="st5">
			<path class="st7" d="M93.7,159.7v-5.2h-1.2v-1.1h1.2v-1.9H95v1.9h2.2v1.1H95v5c0,0.8,0.4,1.2,1.2,1.2c0.3,0,0.7-0.1,1.1-0.2v1.1
				c-0.4,0.1-0.7,0.2-1.2,0.2C94.5,161.9,93.7,161,93.7,159.7z"/>
		</g>
		<g class="st5">
			<path class="st7" d="M98.3,157.7v-0.1c0-2.5,1.6-4.3,3.9-4.3c1.9,0,3.8,1.2,3.8,4.2v0.4h-6.3c0.1,1.9,1,3,2.7,3
				c1.3,0,2-0.5,2.2-1.5h1.3c-0.3,1.7-1.7,2.6-3.6,2.6C100,161.9,98.3,160.2,98.3,157.7z M104.6,156.8c-0.1-1.7-1-2.4-2.4-2.4
				s-2.3,0.9-2.5,2.4H104.6z"/>
		</g>
		<g class="st5">
			<path class="st6" d="M6.7,136.2H3.1l-1.9-13h2.3l1.4,10.7l1.4-10.7h2.3L6.7,136.2z"/>
			<path class="st6" d="M10,136.2v-13h2.4v13H10z"/>
		</g>
		<g class="st5">
			<path class="st6" d="M14,132.3V127c0-1.4,0.3-2.4,0.9-3s1.6-1,2.9-1s2.3,0.3,2.9,0.9s0.9,1.6,0.9,2.9v1.9h-2.4v-1.6
				c0-0.6-0.1-1.1-0.4-1.4c-0.2-0.3-0.6-0.4-1.1-0.4s-0.9,0.1-1.1,0.4s-0.3,0.8-0.3,1.6v4.7c0,0.8,0.1,1.3,0.3,1.6
				c0.2,0.3,0.6,0.4,1.1,0.4s0.9-0.1,1.1-0.4c0.2-0.3,0.4-0.7,0.4-1.4v-1.9h2.4v2.1c0,1.4-0.3,2.3-0.9,2.9s-1.6,0.9-2.9,0.9
				c-1.4,0-2.4-0.3-3-0.9C14.3,134.8,14,133.7,14,132.3z"/>
			<path class="st6" d="M28.9,125.5h-2v10.7h-2.4v-10.7h-2v-2.4h6.4V125.5z"/>
		</g>
		<g class="st5">
			<path class="st6" d="M38.1,132.3c0,1.4-0.3,2.4-0.9,3c-0.6,0.7-1.6,1-2.9,1c-1.3,0-2.3-0.3-2.9-1s-0.9-1.7-0.9-3v-5.2
				c0-1.4,0.3-2.4,0.9-3c0.6-0.7,1.6-1,2.9-1s2.3,0.3,2.9,1c0.6,0.6,0.9,1.7,0.9,3V132.3z M35.7,127.3c0-0.8-0.1-1.3-0.3-1.6
				s-0.6-0.4-1.1-0.4s-0.9,0.1-1.1,0.4s-0.3,0.8-0.3,1.6v4.7c0,0.8,0.1,1.3,0.3,1.6s0.6,0.4,1.1,0.4s0.9-0.1,1.1-0.4
				s0.3-0.8,0.3-1.6V127.3z"/>
			<path class="st6" d="M39.6,136.2v-13H42v13H39.6z"/>
			<path class="st6" d="M46,136.2h-2.4v-13h3.5c0.7,0,1.2,0,1.6,0.1c0.4,0.1,0.8,0.3,1,0.5c0.3,0.2,0.4,0.6,0.5,0.9s0.2,0.9,0.2,1.5
				v1.8c0,0.6-0.1,1.1-0.3,1.6s-0.5,0.7-0.9,1l1.3,5.6H48l-1-5.2h-1V136.2z M47.1,125.3H46v3.6h1.1c0.4,0,0.6-0.1,0.7-0.2
				c0.1-0.2,0.2-0.5,0.2-0.9v-1.2c0-0.5-0.1-0.8-0.2-1C47.7,125.4,47.5,125.3,47.1,125.3z"/>
			<path class="st6" d="M52,136.2v-13h5.9v2.3h-3.5v3h3.3v2.2h-3.3v3.4h3.5v2.3H52V136.2z"/>
			<path class="st6" d="M61.5,136.2h-2.1v-2h2.1V136.2z"/>
			<path class="st6" d="M65,136.2h-2.1v-2H65V136.2z"/>
		</g>
		<g class="st5">
			<path class="st6" d="M68.5,136.2h-2.1v-2h2.1V136.2z"/>
		</g>
		<g class="st5">
			<path class="st6" d="M3.7,15.3H1.3v-13h3.5c0.7,0,1.2,0,1.6,0.1s0.8,0.3,1,0.5c0.3,0.3,0.5,0.6,0.6,1c0.1,0.4,0.2,0.9,0.2,1.5
				v1.8c0,0.6-0.1,1.1-0.3,1.6S7.4,9.4,7,9.7l1.3,5.6H5.8l-1.1-5.2h-1C3.7,10.1,3.7,15.3,3.7,15.3z M4.8,4.4H3.7V8h1.1
				c0.3,0,0.6,0,0.7-0.2s0.2-0.5,0.2-0.9V5.6c0-0.5-0.1-0.8-0.2-1C5.4,4.5,5.1,4.4,4.8,4.4z"/>
		</g>
		<g class="st5">
			<path class="st6" d="M9.7,15.3v-13h5.9v2.3h-3.5v3h3.3v2.2h-3.3V13h3.5v2.3H9.7z M13.3,1.8h-1.5l0.3-1h2.2L13.3,1.8z"/>
		</g>
		<g class="st5">
			<path class="st6" d="M24.4,10.9v1.4c0,1.1-0.3,1.9-0.9,2.4s-1.5,0.7-2.8,0.7s-2.3-0.3-2.8-0.8S17,13.2,17,12v-1.4h2.4v1.2
				c0,0.5,0.1,0.9,0.3,1.2c0.2,0.2,0.6,0.3,1,0.3c0.5,0,0.8-0.1,1-0.2c0.2-0.2,0.3-0.5,0.3-0.9V11c0-0.4-0.1-0.6-0.3-0.8
				c-0.2-0.1-0.7-0.3-1.5-0.5c-0.4-0.1-0.8-0.2-1.1-0.3c-0.3-0.1-0.6-0.2-0.8-0.3s-0.5-0.3-0.6-0.4c-0.2-0.1-0.3-0.3-0.4-0.5
				C17.1,8,17,7.8,17,7.5S16.9,7,16.9,6.6V5.3c0-1.1,0.3-1.9,0.9-2.4s1.5-0.7,2.8-0.7s2.2,0.3,2.8,0.8c0.6,0.5,0.9,1.4,0.9,2.5v1.4
				H22V5.7c0-0.5-0.1-0.8-0.3-1.1c-0.2-0.2-0.6-0.3-1-0.3c-0.5,0-0.8,0.1-1,0.3c-0.2,0.2-0.3,0.5-0.3,0.9v1.1c0,0.2,0,0.4,0.1,0.6
				c0.1,0.1,0.3,0.2,0.5,0.3s0.7,0.2,1.3,0.3c0.6,0.1,1.1,0.3,1.5,0.4c0.4,0.2,0.7,0.3,1,0.6c0.3,0.2,0.4,0.5,0.5,0.9
				S24.4,10.4,24.4,10.9z"/>
			<path class="st6" d="M29.6,15.4c-0.7,0-1.3-0.1-1.7-0.2s-0.8-0.4-1.1-0.7c-0.3-0.3-0.5-0.8-0.6-1.3S26,12,26,11.2V2.3h2.4v8.6
				c0,0.9,0.1,1.5,0.3,1.8s0.5,0.5,1,0.5c0.4,0,0.8-0.2,1-0.5s0.3-0.9,0.3-1.8V2.3h2.4v8.9c0,1.6-0.3,2.7-0.8,3.3
				C31.9,15.1,30.9,15.4,29.6,15.4z"/>
		</g>
		<g class="st5">
			<path class="st6" d="M34.8,15.3v-13h2.4V13h3.5v2.3H34.8z"/>
		</g>
		<g class="st5">
			<path class="st6" d="M46.6,4.6h-2v10.7h-2.4V4.6h-2V2.3h6.4V4.6z"/>
		</g>
		<g class="st5">
			<path class="st6" d="M51.9,15.3l-0.4-3.2h-2L49,15.3h-2.3l1.9-13h3.7l1.9,13H51.9z M51.2,10.2l-0.8-5.7l-0.8,5.7H51.2z"/>
		</g>
		<g class="st5">
			<path class="st6" d="M60.7,4.6h-2v10.7h-2.4V4.6h-2V2.3h6.4V4.6z"/>
		</g>
		<g class="st5">
			<path class="st6" d="M1.3,36.2v-13h3.6c1.4,0,2.4,0.3,3,0.9s0.9,1.7,0.9,3.1v4.9c0,1.5-0.3,2.5-0.9,3.1s-1.6,0.9-3,0.9L1.3,36.2
				L1.3,36.2z M4.8,25.4H3.7v8.7h1.2c0.5,0,0.9-0.2,1.1-0.5s0.3-0.9,0.3-1.7v-4.3c0-0.8-0.1-1.4-0.3-1.7C5.8,25.6,5.4,25.4,4.8,25.4
				z"/>
			<path class="st6" d="M10.3,36.2v-13h5.9v2.3h-3.5v3H16v2.2h-3.3V34h3.5v2.3L10.3,36.2L10.3,36.2z"/>
		</g>
		<g class="st5">
			<path class="st6" d="M21.4,36.2v-13h2.4V34h3.5v2.3L21.4,36.2L21.4,36.2z"/>
		</g>
		<g class="st5">
			<path class="st6" d="M29,26.7h-1.1l-0.3-2.3v-1.3h1.8v1.3L29,26.7z"/>
			<path class="st6" d="M30.9,36.2v-13h5.9v2.3h-3.5v3h3.3v2.2h-3.3V34h3.5v2.3L30.9,36.2L30.9,36.2z M34.5,22.8H33l0.3-1h2.2
				L34.5,22.8z"/>
			<path class="st6" d="M38.4,36.2v-13h2.4V34h3.5v2.3L38.4,36.2L38.4,36.2z"/>
		</g>
		<g class="st5">
			<path class="st6" d="M45.8,36.2v-13h5.9v2.3h-3.5v3h3.3v2.2h-3.3V34h3.5v2.3L45.8,36.2L45.8,36.2z"/>
		</g>
		<g class="st5">
			<path class="st6" d="M53,32.3v-5.2c0-1.4,0.3-2.4,0.9-3s1.6-1,2.9-1c1.3,0,2.3,0.3,2.9,0.9s0.9,1.6,0.9,2.9v1.9h-2.4v-1.6
				c0-0.6-0.1-1.1-0.4-1.4c-0.2-0.3-0.6-0.4-1.1-0.4s-0.9,0.1-1.1,0.4c-0.2,0.3-0.3,0.8-0.3,1.6v4.7c0,0.8,0.1,1.3,0.3,1.6
				s0.6,0.4,1.1,0.4s0.9-0.1,1.1-0.4c0.2-0.3,0.4-0.7,0.4-1.4v-1.9h2.4v2.1c0,1.4-0.3,2.3-0.9,2.9s-1.6,0.9-2.9,0.9
				c-1.4,0-2.4-0.3-3-0.9C53.3,34.8,53,33.8,53,32.3z"/>
		</g>
		<g class="st5">
			<path class="st6" d="M68.3,25.6h-2v10.7h-2.4V25.6h-2v-2.4h6.4V25.6z"/>
			<path class="st6" d="M69.8,36.2v-13h2.4v13H69.8z"/>
			<path class="st6" d="M81.4,32.3c0,1.4-0.3,2.4-0.9,3c-0.6,0.7-1.6,1-2.9,1s-2.3-0.3-2.9-1s-0.9-1.7-0.9-3v-5.2
				c0-1.4,0.3-2.4,0.9-3c0.6-0.7,1.6-1,2.9-1s2.3,0.3,2.9,1c0.6,0.6,0.9,1.7,0.9,3V32.3z M79.1,27.4c0-0.8-0.1-1.3-0.3-1.6
				s-0.6-0.4-1.1-0.4s-0.9,0.1-1.1,0.4s-0.3,0.8-0.3,1.6v4.7c0,0.8,0.1,1.3,0.3,1.6s0.6,0.4,1.1,0.4s0.9-0.1,1.1-0.4
				s0.3-0.8,0.3-1.6V27.4z"/>
			<path class="st6" d="M88.2,36.2l-3-7.3v7.3H83v-13h2.1l3,7.3v-7.3h2.2v13H88.2z"/>
		</g>
		<g class="st5">
			<path class="st6" d="M1.3,57.2v-13h5.9v2.3H3.7v3H7v2.2H3.7v3.4h3.5v2.3H1.3V57.2z"/>
			<path class="st6" d="M14,57.2l-3-7.3v7.3H8.7v-13h2.1l3,7.3v-7.3H16v13H14z"/>
			<path class="st6" d="M19.6,57.2h-2.1v-2h2.1V57.2z"/>
			<path class="st6" d="M23.2,57.2h-2.1v-2h2.1V57.2z"/>
		</g>
		<g class="st5">
			<path class="st6" d="M26.7,57.2h-2.1v-2h2.1V57.2z"/>
		</g>
		<g class="st5">
			<path class="st7" d="M24.3,189.2v-1.1h1.4v-9.3h-1.4v-1.1h5c2.2,0,3.9,0.9,3.9,3.2v0.1c0,1.8-1.2,2.8-2.8,3.1l2.8,4h1v1.1h-1.8
				l-3.4-5h-1.8v3.9h1.6v1.1H24.3z M29.2,183.1c1.6,0,2.5-0.7,2.5-2.2v-0.1c0-1.4-1-2-2.5-2h-2.1v4.3H29.2z"/>
		</g>
		<g class="st5">
			<path class="st7" d="M34.7,185.1V185c0-2.5,1.6-4.3,3.9-4.3c1.9,0,3.8,1.2,3.8,4.2v0.4h-6.3c0.1,1.9,1,3,2.7,3
				c1.3,0,2-0.5,2.2-1.5h1.3c-0.3,1.7-1.7,2.6-3.6,2.6C36.4,189.3,34.7,187.7,34.7,185.1z M41,184.2c-0.1-1.7-1-2.4-2.4-2.4
				s-2.3,0.9-2.5,2.4H41z M39,177h1.7l-1.7,2.4h-1L39,177z"/>
		</g>
		<g class="st5">
			<path class="st7" d="M43.4,192.1v-1h1.2v-9.2h-1.2v-1.1h2.5v1.5c0.5-0.9,1.6-1.6,2.8-1.6c2.2,0,3.8,1.6,3.8,4.2v0.1
				c0,2.6-1.5,4.3-3.8,4.3c-1.4,0-2.4-0.7-2.8-1.6v3.3h1.3v1h-3.8V192.1z M51.2,185.1V185c0-2.1-1.2-3.2-2.6-3.2
				c-1.6,0-2.7,1-2.7,3.2v0.1c0,2.1,1.1,3.2,2.8,3.2C50.3,188.2,51.2,187.1,51.2,185.1z"/>
		</g>
		<g class="st5">
			<path class="st7" d="M57.4,189.3c-1.6,0-2.9-0.9-2.9-3.3v-4.1h-1.2v-1.1h2.5v5.2c0,1.5,0.6,2.1,1.9,2.1c1.2,0,2.2-0.8,2.2-2.3v-4
				h-1.2v-1.1h2.5v7.3h1.2v1H60v-1.4C59.6,188.6,58.7,189.3,57.4,189.3z"/>
		</g>
		<g class="st5">
			<path class="st7" d="M65.8,187.8v1.4h-2.5v-1h1.2V178h-1.2v-1.1h2.5v5.5c0.5-0.9,1.6-1.6,2.8-1.6c2.2,0,3.8,1.6,3.8,4.2v0.1
				c0,2.6-1.5,4.3-3.8,4.3C67.3,189.3,66.3,188.6,65.8,187.8z M71.1,185.1V185c0-2.1-1.2-3.2-2.6-3.2c-1.6,0-2.7,1-2.7,3.2v0.1
				c0,2.1,1.1,3.2,2.8,3.2C70.2,188.2,71.1,187.1,71.1,185.1z"/>
		</g>
		<g class="st5">
			<path class="st7" d="M73.5,189.2v-1h1.2V178h-1.2v-1.1H76v11.3h1.2v1H73.5z"/>
			<path class="st7" d="M78,189.2v-1h1.2V182H78v-1.1h2.5v7.3h1.2v1H78z M78.9,178.2c0-0.5,0.4-0.9,0.9-0.9s0.9,0.4,0.9,0.9
				s-0.4,0.9-0.9,0.9S78.9,178.7,78.9,178.2z"/>
		</g>
		<g class="st5">
			<path class="st7" d="M89.2,180.8h1.2v2.8h-1.1c-0.3-1.1-1.1-1.9-2.5-1.9c-1.5,0-2.7,1.2-2.7,3.2v0.1c0,2,1.1,3.1,2.7,3.1
				c1.2,0,2.3-0.7,2.4-2h1.2c-0.2,1.8-1.6,3.2-3.6,3.2c-2.3,0-4.1-1.6-4.1-4.2V185c0-2.6,1.8-4.3,4.1-4.3c1.4,0,2.1,0.6,2.4,1.2
				V180.8z"/>
		</g>
		<g class="st5">
			<path class="st7" d="M94.5,189.3c-1.5,0-2.7-0.8-2.7-2.5c0-2,2-2.6,4.1-2.6H97v-0.6c0-1.4-0.6-1.9-1.8-1.9
				c-1.1,0-1.7,0.4-1.9,1.5H92c0.2-2,1.7-2.6,3.2-2.6c1.6,0,3,0.6,3,3v4.5h1.1v1H97V188C96.5,188.9,95.7,189.3,94.5,189.3z
				 M97,186.3v-1h-1.1c-1.6,0-2.8,0.4-2.8,1.6c0,0.8,0.4,1.4,1.5,1.4C96,188.3,97,187.6,97,186.3z"/>
			<path class="st7" d="M100.3,189.2v-1h1.2V182h-1.2v-1.1h2.5v7.3h1.2v1H100.3z M101.2,178.2c0-0.5,0.4-0.9,0.9-0.9
				s0.9,0.4,0.9,0.9s-0.4,0.9-0.9,0.9S101.2,178.7,101.2,178.2z"/>
		</g>
		<g class="st5">
			<path class="st7" d="M104.9,189.2v-1h1.2V182h-1.2v-1.1h2.5v1.4c0.4-0.8,1.3-1.6,2.6-1.6c1.7,0,2.9,0.9,2.9,3.3v4.2h1.2v1h-3.7
				v-1h1.2v-4.3c0-1.4-0.6-2.1-1.9-2.1c-1.2,0-2.3,0.8-2.3,2.3v4.1h1.2v1L104.9,189.2L104.9,189.2z"/>
		</g>
		<g class="st5">
			<path class="st7" d="M115,185.1V185c0-2.5,1.6-4.3,3.9-4.3c1.9,0,3.8,1.2,3.8,4.2v0.4h-6.3c0.1,1.9,1,3,2.7,3
				c1.3,0,2-0.5,2.2-1.5h1.3c-0.3,1.7-1.7,2.6-3.6,2.6C116.7,189.3,115,187.7,115,185.1z M121.3,184.2c-0.1-1.7-1-2.4-2.4-2.4
				s-2.3,0.9-2.5,2.4H121.3z"/>
		</g>
		<g>
			<path class="st9" d="M3.5,177.4c0.6,1.9,1,4,1,6.1c0,2.2-0.4,4.2-1,6.2l12.5,4.1c2.3-6.6,2.3-13.8,0-20.5L3.5,177.4z"/>
			<path class="st10" d="M3.5,163.5l12.5,4.1c2.3-6.6,2.3-13.8,0-20.5l-12.5,4.1c0.6,1.9,1,4,1,6.2C4.5,159.5,4.2,161.6,3.5,163.5z"
				/>
		</g>
	</g>
</g>
<g>
	<path d="M220.6,179.3V175c2.4,0,4.4,2,4.4,4.4s-2,4.4-4.4,4.4s-4.4-2-4.4-4.4l0,0c0-2.4,2-4.4,4.4-4.4l0,0V179.3z"/>
	<path d="M181.8,179.4v-2.7c1.5,0,2.6,1.2,2.6,2.7s-1.2,2.6-2.7,2.6c-1.4,0-2.6-1.2-2.6-2.6c0-1.5,1.2-2.6,2.6-2.7l0,0l0,0
		L181.8,179.4z"/>
	<path d="M146.9,179.4v-1c0.6,0,1,0.4,1,1s-0.4,1-1,1c-0.6,0-1-0.4-1-1s0.4-1,1-1l0,0V179.4z"/>
</g>
</svg>
