<?xml version="1.0" encoding="utf-8"?>
<!-- Generator: Adobe Illustrator 24.0.1, SVG Export Plug-In . SVG Version: 6.00 Build 0)  -->
<svg version="1.1" id="Calque_1" xmlns="http://www.w3.org/2000/svg" xmlns:xlink="http://www.w3.org/1999/xlink" x="0px" y="0px"
	 viewBox="0 0 224.8 17.8" style="enable-background:new 0 0 224.8 17.8;" xml:space="preserve">
<style type="text/css">
	.st0{enable-background:new    ;}
	.st1{fill:#1D1D1B;}
	.st2{fill:none;stroke:#1D1D1B;stroke-width:2.27;stroke-miterlimit:10;}
</style>
<title>mobile_majoritelegende</title>
<g id="Mode_Isolation">
	<g class="st0">
		<path class="st1" d="M47.9,14.7h-3.2c-0.7-1.1-1.3-2.1-1.9-2.9c-0.6-0.8-1.2-1.6-1.8-2.5h-1.2v3.7c0,0.2,0,0.4,0.1,0.5
			s0.2,0.3,0.4,0.3c0.1,0,0.3,0.1,0.5,0.1s0.5,0.1,0.6,0.1v0.6h-5v-0.6c0.1,0,0.3,0,0.6-0.1c0.3,0,0.4-0.1,0.5-0.1
			c0.2-0.1,0.3-0.2,0.4-0.3c0.1-0.1,0.1-0.3,0.1-0.5V4.5c0-0.2,0-0.4-0.1-0.5c-0.1-0.2-0.2-0.3-0.4-0.3c-0.1,0-0.3-0.1-0.5-0.1
			c-0.2,0-0.4-0.1-0.6-0.1V2.9h5.4c0.5,0,1,0.1,1.4,0.2s0.8,0.3,1.2,0.5c0.3,0.2,0.6,0.5,0.8,0.9c0.2,0.4,0.3,0.8,0.3,1.3
			c0,0.5-0.1,0.9-0.2,1.2S45,7.5,44.7,7.8c-0.2,0.2-0.5,0.4-0.9,0.6c-0.3,0.2-0.7,0.3-1.2,0.4c0.6,0.8,1.1,1.4,1.4,1.9
			c0.4,0.5,0.9,1.2,1.4,1.9c0.2,0.3,0.5,0.6,0.7,0.7c0.2,0.2,0.4,0.3,0.6,0.4c0.1,0.1,0.3,0.1,0.5,0.2c0.2,0,0.4,0.1,0.5,0.1V14.7z
			 M43.5,5.9c0-0.7-0.2-1.3-0.6-1.7s-1-0.6-1.7-0.6h-1.4v5h1.1c0.8,0,1.4-0.2,1.9-0.7C43.3,7.4,43.5,6.7,43.5,5.9z"/>
		<path class="st1" d="M55.4,12.7c-0.3,0.7-0.8,1.2-1.4,1.6s-1.2,0.6-2,0.6c-0.7,0-1.2-0.1-1.7-0.3c-0.5-0.2-0.9-0.5-1.2-0.9
			s-0.6-0.9-0.7-1.4c-0.2-0.5-0.2-1.1-0.2-1.7c0-0.5,0.1-1.1,0.3-1.6c0.2-0.5,0.4-1,0.7-1.4c0.3-0.4,0.7-0.7,1.2-1
			c0.5-0.2,1-0.4,1.6-0.4c0.6,0,1.1,0.1,1.5,0.3s0.8,0.4,1,0.8C54.7,7.6,54.9,8,55,8.4c0.1,0.4,0.2,0.9,0.2,1.4v0.5h-5.4
			c0,0.5,0.1,1,0.2,1.5c0.1,0.4,0.3,0.8,0.5,1.2c0.2,0.3,0.5,0.6,0.8,0.8S52,14,52.5,14c0.5,0,0.9-0.1,1.3-0.3
			c0.4-0.2,0.7-0.6,1-1.2L55.4,12.7z M53.6,9.6c0-0.3,0-0.6-0.1-1c-0.1-0.4-0.1-0.6-0.3-0.9c-0.1-0.3-0.3-0.5-0.5-0.6
			s-0.5-0.2-0.9-0.2c-0.6,0-1.1,0.2-1.4,0.7c-0.4,0.5-0.6,1.2-0.6,2H53.6z"/>
		<path class="st1" d="M65.4,14.7h-4v-0.5c0.1,0,0.3,0,0.4,0c0.2,0,0.3,0,0.4-0.1c0.2,0,0.3-0.1,0.3-0.3c0.1-0.1,0.1-0.3,0.1-0.5
			V9.1c0-0.6-0.1-1-0.4-1.3c-0.3-0.3-0.6-0.5-1-0.5c-0.3,0-0.6,0-0.8,0.1c-0.2,0.1-0.5,0.2-0.6,0.3c-0.2,0.1-0.3,0.3-0.4,0.4
			c-0.1,0.1-0.2,0.3-0.2,0.4v4.7c0,0.2,0,0.3,0.1,0.5s0.2,0.2,0.3,0.3c0.1,0.1,0.2,0.1,0.4,0.1c0.1,0,0.3,0,0.4,0.1v0.5h-4v-0.5
			c0.1,0,0.3,0,0.4,0c0.1,0,0.3,0,0.4-0.1c0.2,0,0.3-0.1,0.3-0.3c0.1-0.1,0.1-0.3,0.1-0.5v-5c0-0.2,0-0.4-0.1-0.5
			c-0.1-0.2-0.2-0.3-0.3-0.4c-0.1-0.1-0.2-0.1-0.4-0.1s-0.3-0.1-0.5-0.1V6.6L59,6.4l0.1,0.1v1.2h0c0.1-0.1,0.3-0.3,0.5-0.5
			s0.4-0.3,0.6-0.5c0.2-0.1,0.4-0.2,0.7-0.3c0.3-0.1,0.6-0.1,1-0.1c0.8,0,1.4,0.2,1.7,0.7c0.4,0.5,0.6,1.1,0.6,2v4.3
			c0,0.2,0,0.3,0.1,0.5s0.2,0.2,0.3,0.3c0.1,0.1,0.2,0.1,0.3,0.1c0.1,0,0.2,0,0.4,0V14.7z"/>
		<path class="st1" d="M74.4,10.5c0,0.6-0.1,1.1-0.3,1.7c-0.2,0.6-0.4,1-0.8,1.4c-0.4,0.4-0.8,0.8-1.3,1c-0.5,0.2-1.1,0.3-1.7,0.3
			c-0.5,0-1-0.1-1.5-0.3s-0.9-0.5-1.3-0.9c-0.4-0.4-0.6-0.8-0.9-1.4s-0.3-1.1-0.3-1.8c0-1.3,0.4-2.3,1.1-3.1
			c0.7-0.8,1.7-1.2,2.9-1.2c1.1,0,2.1,0.4,2.8,1.2C74,8.2,74.4,9.2,74.4,10.5z M72.7,10.5c0-0.4,0-0.9-0.1-1.3
			c-0.1-0.5-0.2-0.9-0.4-1.2c-0.2-0.3-0.4-0.6-0.7-0.8c-0.3-0.2-0.6-0.3-1.1-0.3c-0.4,0-0.8,0.1-1.1,0.3s-0.5,0.5-0.7,0.9
			c-0.2,0.3-0.3,0.7-0.4,1.2c-0.1,0.4-0.1,0.8-0.1,1.3c0,0.5,0,1,0.1,1.5s0.2,0.9,0.4,1.2c0.2,0.4,0.4,0.6,0.7,0.8s0.6,0.3,1.1,0.3
			c0.7,0,1.2-0.3,1.6-1C72.5,12.6,72.7,11.7,72.7,10.5z"/>
		<path class="st1" d="M84.3,14.5l-2.7,0.2l-0.1-0.1v-1h0c-0.1,0.1-0.3,0.3-0.4,0.4c-0.2,0.2-0.4,0.3-0.6,0.4
			c-0.2,0.1-0.5,0.3-0.7,0.3c-0.2,0.1-0.6,0.1-1,0.1c-0.7,0-1.3-0.2-1.7-0.7s-0.6-1.2-0.6-2.1V8.2c0-0.2,0-0.4-0.1-0.5
			c-0.1-0.1-0.2-0.3-0.3-0.4c-0.1-0.1-0.2-0.1-0.4-0.1s-0.3-0.1-0.5-0.1V6.6L78,6.4l0.1,0.1v5.7c0,0.6,0.1,1,0.4,1.3s0.6,0.4,1,0.4
			c0.3,0,0.6,0,0.8-0.1s0.4-0.2,0.6-0.3c0.1-0.1,0.3-0.2,0.4-0.4c0.1-0.1,0.2-0.2,0.3-0.4V8.1c0-0.2,0-0.3-0.1-0.5
			c-0.1-0.1-0.2-0.3-0.3-0.4c-0.1-0.1-0.2-0.1-0.4-0.1c-0.2,0-0.4,0-0.7,0V6.6l3-0.2l0.1,0.1V13c0,0.2,0,0.3,0.1,0.5
			s0.2,0.2,0.3,0.3c0.1,0.1,0.2,0.1,0.4,0.1s0.3,0,0.5,0V14.5z"/>
		<path class="st1" d="M93.4,7c-0.2,0-0.5,0.1-0.7,0.3c-0.2,0.1-0.4,0.4-0.6,0.7c-0.3,0.7-0.7,1.5-1,2.3c-0.3,0.8-0.7,1.7-1.1,2.5
			c-0.1,0.3-0.2,0.6-0.4,0.9c-0.1,0.3-0.2,0.7-0.3,1h-0.6c-0.5-1.3-1-2.5-1.5-3.6c-0.4-1.1-0.9-2.2-1.4-3.3
			c-0.1-0.3-0.3-0.5-0.5-0.6c-0.2-0.1-0.5-0.2-0.7-0.3V6.5h3.8v0.6c-0.2,0-0.4,0-0.6,0.1s-0.4,0.2-0.4,0.3c0,0,0,0.1,0,0.1
			s0.1,0.1,0.1,0.2c0.2,0.6,0.5,1.4,1,2.4c0.4,1,0.8,1.8,1,2.4c0.2-0.5,0.4-1.1,0.8-1.8c0.3-0.7,0.6-1.5,1-2.4
			c0.1-0.1,0.1-0.3,0.2-0.4c0-0.1,0.1-0.3,0.1-0.4c0-0.1,0-0.2-0.1-0.3c-0.1-0.1-0.2-0.1-0.3-0.2c-0.1-0.1-0.3-0.1-0.4-0.1
			c-0.1,0-0.2,0-0.3-0.1V6.5h3.1V7z"/>
		<path class="st1" d="M101,12.7c-0.3,0.7-0.8,1.2-1.4,1.6s-1.2,0.6-2,0.6c-0.7,0-1.2-0.1-1.7-0.3c-0.5-0.2-0.9-0.5-1.2-0.9
			s-0.6-0.9-0.7-1.4c-0.2-0.5-0.2-1.1-0.2-1.7c0-0.5,0.1-1.1,0.3-1.6c0.2-0.5,0.4-1,0.7-1.4c0.3-0.4,0.7-0.7,1.2-1
			c0.5-0.2,1-0.4,1.6-0.4c0.6,0,1.1,0.1,1.5,0.3s0.8,0.4,1,0.8c0.3,0.3,0.4,0.7,0.6,1.1c0.1,0.4,0.2,0.9,0.2,1.4v0.5h-5.4
			c0,0.5,0.1,1,0.2,1.5c0.1,0.4,0.3,0.8,0.5,1.2c0.2,0.3,0.5,0.6,0.8,0.8s0.8,0.3,1.2,0.3c0.5,0,0.9-0.1,1.3-0.3
			c0.4-0.2,0.7-0.6,1-1.2L101,12.7z M99.2,9.6c0-0.3,0-0.6-0.1-1C99.1,8.3,99,8,98.9,7.7c-0.1-0.3-0.3-0.5-0.5-0.6s-0.5-0.2-0.9-0.2
			c-0.6,0-1.1,0.2-1.4,0.7c-0.4,0.5-0.6,1.2-0.6,2H99.2z"/>
		<path class="st1" d="M105.8,14.7h-4v-0.5c0.1,0,0.3,0,0.4,0s0.3,0,0.4-0.1c0.2,0,0.3-0.1,0.3-0.3s0.1-0.3,0.1-0.5V3.8
			c0-0.2,0-0.4-0.1-0.6c-0.1-0.2-0.2-0.3-0.3-0.4c-0.1-0.1-0.3-0.1-0.5-0.2s-0.5-0.1-0.6-0.1V2l3.1-0.2l0.1,0.1v11.2
			c0,0.2,0,0.4,0.1,0.5c0.1,0.1,0.2,0.2,0.3,0.3c0.1,0.1,0.2,0.1,0.4,0.1c0.1,0,0.3,0,0.4,0.1V14.7z"/>
		<path class="st1" d="M110.7,14.7h-4v-0.5c0.1,0,0.3,0,0.4,0s0.3,0,0.4-0.1c0.2,0,0.3-0.1,0.3-0.3s0.1-0.3,0.1-0.5V3.8
			c0-0.2,0-0.4-0.1-0.6c-0.1-0.2-0.2-0.3-0.3-0.4c-0.1-0.1-0.3-0.1-0.5-0.2s-0.5-0.1-0.6-0.1V2l3.1-0.2l0.1,0.1v11.2
			c0,0.2,0,0.4,0.1,0.5c0.1,0.1,0.2,0.2,0.3,0.3c0.1,0.1,0.2,0.1,0.4,0.1c0.1,0,0.3,0,0.4,0.1V14.7z"/>
		<path class="st1" d="M119,12.7c-0.3,0.7-0.8,1.2-1.4,1.6c-0.6,0.4-1.2,0.6-2,0.6c-0.7,0-1.2-0.1-1.7-0.3c-0.5-0.2-0.9-0.5-1.2-0.9
			c-0.3-0.4-0.6-0.9-0.7-1.4c-0.2-0.5-0.2-1.1-0.2-1.7c0-0.5,0.1-1.1,0.3-1.6s0.4-1,0.7-1.4c0.3-0.4,0.7-0.7,1.2-1
			c0.5-0.2,1-0.4,1.6-0.4c0.6,0,1.1,0.1,1.5,0.3c0.4,0.2,0.8,0.4,1,0.8c0.3,0.3,0.4,0.7,0.6,1.1c0.1,0.4,0.2,0.9,0.2,1.4v0.5h-5.4
			c0,0.5,0.1,1,0.2,1.5c0.1,0.4,0.3,0.8,0.5,1.2c0.2,0.3,0.5,0.6,0.8,0.8s0.8,0.3,1.2,0.3c0.5,0,0.9-0.1,1.3-0.3
			c0.4-0.2,0.7-0.6,1-1.2L119,12.7z M117.2,9.6c0-0.3,0-0.6-0.1-1c-0.1-0.4-0.1-0.6-0.3-0.9c-0.1-0.3-0.3-0.5-0.5-0.6
			c-0.2-0.2-0.5-0.2-0.9-0.2c-0.6,0-1.1,0.2-1.4,0.7c-0.4,0.5-0.6,1.2-0.6,2H117.2z"/>
		<path class="st1" d="M133.9,14.7h-4v-0.5c0.1,0,0.3,0,0.4,0s0.2,0,0.3-0.1c0.2,0,0.3-0.1,0.3-0.3c0.1-0.1,0.1-0.3,0.1-0.5V9
			c0-0.6-0.1-1-0.4-1.3c-0.3-0.3-0.6-0.5-1-0.5c-0.3,0-0.5,0-0.8,0.1c-0.2,0.1-0.5,0.2-0.7,0.3c-0.2,0.1-0.3,0.3-0.4,0.4
			c-0.1,0.1-0.2,0.3-0.2,0.4v4.7c0,0.2,0,0.4,0.1,0.5c0.1,0.1,0.2,0.2,0.3,0.3c0.1,0,0.2,0.1,0.3,0.1c0.1,0,0.2,0,0.4,0.1v0.5H125
			v-0.5c0.1,0,0.3,0,0.4,0c0.1,0,0.2,0,0.3-0.1c0.2,0,0.3-0.1,0.3-0.3c0.1-0.1,0.1-0.3,0.1-0.5V9c0-0.6-0.1-1-0.4-1.3
			s-0.6-0.5-1-0.5c-0.3,0-0.5,0-0.8,0.1c-0.2,0.1-0.5,0.2-0.7,0.4c-0.2,0.1-0.3,0.3-0.4,0.4c-0.1,0.2-0.2,0.3-0.2,0.3v4.7
			c0,0.2,0,0.3,0.1,0.5c0.1,0.1,0.2,0.2,0.3,0.3c0.1,0.1,0.2,0.1,0.4,0.1c0.1,0,0.3,0,0.4,0.1v0.5h-4v-0.5c0.1,0,0.3,0,0.4,0
			c0.1,0,0.3,0,0.4-0.1c0.2,0,0.3-0.1,0.3-0.3c0.1-0.1,0.1-0.3,0.1-0.5V8.2c0-0.2,0-0.3-0.1-0.5c-0.1-0.1-0.2-0.3-0.3-0.4
			c-0.1-0.1-0.2-0.1-0.4-0.2c-0.2,0-0.3-0.1-0.5-0.1V6.6l2.7-0.2l0.1,0.1v1.2h0.1c0.1-0.1,0.3-0.3,0.5-0.5s0.4-0.3,0.6-0.5
			c0.2-0.1,0.4-0.2,0.7-0.3c0.3-0.1,0.6-0.1,0.9-0.1c0.5,0,1,0.1,1.4,0.4s0.7,0.6,0.8,1c0.2-0.2,0.4-0.4,0.5-0.5s0.4-0.3,0.6-0.5
			c0.2-0.1,0.5-0.3,0.7-0.3c0.3-0.1,0.6-0.1,0.9-0.1c0.7,0,1.2,0.2,1.6,0.7c0.4,0.5,0.6,1.2,0.6,2.1v4.2c0,0.2,0,0.4,0.1,0.5
			c0.1,0.1,0.2,0.2,0.3,0.3c0.1,0,0.3,0.1,0.4,0.1c0.1,0,0.3,0,0.4,0.1V14.7z"/>
		<path class="st1" d="M142.2,12.7c-0.3,0.7-0.8,1.2-1.4,1.6s-1.2,0.6-2,0.6c-0.7,0-1.2-0.1-1.7-0.3s-0.9-0.5-1.2-0.9
			c-0.3-0.4-0.6-0.9-0.7-1.4c-0.2-0.5-0.2-1.1-0.2-1.7c0-0.5,0.1-1.1,0.3-1.6c0.2-0.5,0.4-1,0.7-1.4c0.3-0.4,0.7-0.7,1.2-1
			c0.5-0.2,1-0.4,1.6-0.4c0.6,0,1.1,0.1,1.5,0.3s0.8,0.4,1,0.8c0.3,0.3,0.4,0.7,0.6,1.1c0.1,0.4,0.2,0.9,0.2,1.4v0.5h-5.4
			c0,0.5,0.1,1,0.2,1.5c0.1,0.4,0.3,0.8,0.5,1.2c0.2,0.3,0.5,0.6,0.8,0.8s0.8,0.3,1.2,0.3c0.5,0,0.9-0.1,1.3-0.3
			c0.4-0.2,0.7-0.6,1-1.2L142.2,12.7z M140.3,9.6c0-0.3,0-0.6-0.1-1c-0.1-0.4-0.1-0.6-0.3-0.9c-0.1-0.3-0.3-0.5-0.5-0.6
			s-0.5-0.2-0.9-0.2c-0.6,0-1.1,0.2-1.4,0.7c-0.4,0.5-0.6,1.2-0.6,2H140.3z"/>
		<path class="st1" d="M152.2,14.7h-4v-0.5c0.1,0,0.3,0,0.4,0s0.3,0,0.4-0.1c0.2,0,0.3-0.1,0.3-0.3c0.1-0.1,0.1-0.3,0.1-0.5V9.1
			c0-0.6-0.1-1-0.4-1.3c-0.3-0.3-0.6-0.5-1-0.5c-0.3,0-0.6,0-0.8,0.1c-0.2,0.1-0.5,0.2-0.6,0.3c-0.2,0.1-0.3,0.3-0.4,0.4
			c-0.1,0.1-0.2,0.3-0.2,0.4v4.7c0,0.2,0,0.3,0.1,0.5c0.1,0.1,0.2,0.2,0.3,0.3c0.1,0.1,0.2,0.1,0.4,0.1c0.1,0,0.3,0,0.4,0.1v0.5h-4
			v-0.5c0.1,0,0.3,0,0.4,0s0.3,0,0.4-0.1c0.2,0,0.3-0.1,0.3-0.3c0.1-0.1,0.1-0.3,0.1-0.5v-5c0-0.2,0-0.4-0.1-0.5s-0.2-0.3-0.3-0.4
			c-0.1-0.1-0.2-0.1-0.4-0.1c-0.1,0-0.3-0.1-0.5-0.1V6.6l2.7-0.2l0.1,0.1v1.2h0c0.1-0.1,0.3-0.3,0.5-0.5s0.4-0.3,0.6-0.5
			c0.2-0.1,0.4-0.2,0.7-0.3c0.3-0.1,0.6-0.1,1-0.1c0.8,0,1.4,0.2,1.7,0.7c0.4,0.5,0.6,1.1,0.6,2v4.3c0,0.2,0,0.3,0.1,0.5
			s0.2,0.2,0.3,0.3c0.1,0.1,0.2,0.1,0.3,0.1s0.2,0,0.4,0V14.7z"/>
		<path class="st1" d="M158.2,14.3c-0.4,0.2-0.7,0.3-1,0.4s-0.7,0.2-1.2,0.2c-0.7,0-1.2-0.2-1.4-0.5s-0.4-0.8-0.4-1.5V7.3h-1.5V6.5
			h1.5V4h1.5v2.5h2.3v0.8h-2.3v4.6c0,0.3,0,0.6,0,0.9c0,0.2,0.1,0.4,0.2,0.6c0.1,0.2,0.2,0.3,0.4,0.4c0.2,0.1,0.4,0.1,0.7,0.1
			c0.1,0,0.3,0,0.6,0c0.3,0,0.5-0.1,0.6-0.1V14.3z"/>
		<path class="st1" d="M170.4,12.7c-0.3,0.7-0.8,1.2-1.4,1.6s-1.2,0.6-2,0.6c-0.7,0-1.2-0.1-1.7-0.3s-0.9-0.5-1.2-0.9
			c-0.3-0.4-0.6-0.9-0.7-1.4c-0.2-0.5-0.2-1.1-0.2-1.7c0-0.5,0.1-1.1,0.3-1.6s0.4-1,0.7-1.4c0.3-0.4,0.7-0.7,1.2-1
			c0.5-0.2,1-0.4,1.6-0.4c0.6,0,1.1,0.1,1.5,0.3s0.8,0.4,1,0.8c0.3,0.3,0.4,0.7,0.6,1.1c0.1,0.4,0.2,0.9,0.2,1.4v0.5h-5.4
			c0,0.5,0.1,1,0.2,1.5c0.1,0.4,0.3,0.8,0.5,1.2c0.2,0.3,0.5,0.6,0.8,0.8s0.8,0.3,1.2,0.3c0.5,0,0.9-0.1,1.3-0.3
			c0.4-0.2,0.7-0.6,1-1.2L170.4,12.7z M168.6,9.6c0-0.3,0-0.6-0.1-1c-0.1-0.4-0.1-0.6-0.3-0.9c-0.1-0.3-0.3-0.5-0.5-0.6
			s-0.5-0.2-0.9-0.2c-0.6,0-1.1,0.2-1.4,0.7c-0.4,0.5-0.6,1.2-0.6,2H168.6z"/>
		<path class="st1" d="M180.4,14.7h-4v-0.5c0.1,0,0.3,0,0.4,0s0.3,0,0.4-0.1c0.2,0,0.3-0.1,0.3-0.3c0.1-0.1,0.1-0.3,0.1-0.5V9.1
			c0-0.6-0.1-1-0.4-1.3c-0.3-0.3-0.6-0.5-1-0.5c-0.3,0-0.6,0-0.8,0.1c-0.2,0.1-0.5,0.2-0.6,0.3c-0.2,0.1-0.3,0.3-0.4,0.4
			c-0.1,0.1-0.2,0.3-0.2,0.4v4.7c0,0.2,0,0.3,0.1,0.5c0.1,0.1,0.2,0.2,0.3,0.3c0.1,0.1,0.2,0.1,0.4,0.1c0.1,0,0.3,0,0.4,0.1v0.5h-4
			v-0.5c0.1,0,0.3,0,0.4,0s0.3,0,0.4-0.1c0.2,0,0.3-0.1,0.3-0.3c0.1-0.1,0.1-0.3,0.1-0.5v-5c0-0.2,0-0.4-0.1-0.5s-0.2-0.3-0.3-0.4
			c-0.1-0.1-0.2-0.1-0.4-0.1c-0.1,0-0.3-0.1-0.5-0.1V6.6l2.7-0.2l0.1,0.1v1.2h0c0.1-0.1,0.3-0.3,0.5-0.5s0.4-0.3,0.6-0.5
			c0.2-0.1,0.4-0.2,0.7-0.3c0.3-0.1,0.6-0.1,1-0.1c0.8,0,1.4,0.2,1.7,0.7c0.4,0.5,0.6,1.1,0.6,2v4.3c0,0.2,0,0.3,0.1,0.5
			s0.2,0.2,0.3,0.3c0.1,0.1,0.2,0.1,0.3,0.1s0.2,0,0.4,0V14.7z"/>
		<path class="st1" d="M193.6,14.7h-7.8v-1.1c0.1-0.2,0.4-0.4,0.6-0.6s0.6-0.4,0.9-0.7c0.2-0.1,0.5-0.3,0.8-0.5
			c0.3-0.2,0.7-0.4,1.1-0.6c0.4-0.2,0.8-0.4,1-0.6s0.4-0.4,0.6-0.7c0.1-0.2,0.2-0.4,0.3-0.6s0.1-0.6,0.1-1.1c0-0.7-0.2-1.2-0.6-1.5
			c-0.4-0.3-0.8-0.5-1.4-0.5c-0.4,0-0.7,0.1-1,0.2c-0.3,0.1-0.6,0.3-0.7,0.6c0,0.2,0.1,0.4,0.1,0.6c0.1,0.2,0.1,0.5,0.1,0.7
			c0,0.2-0.1,0.4-0.3,0.6c-0.2,0.2-0.4,0.2-0.8,0.2c-0.3,0-0.5-0.1-0.6-0.3c-0.1-0.2-0.2-0.4-0.2-0.8c0-0.3,0.1-0.6,0.2-0.9
			s0.4-0.6,0.7-0.8c0.3-0.2,0.7-0.5,1.1-0.6c0.4-0.2,0.9-0.2,1.5-0.2c1.1,0,2,0.3,2.7,0.8s1,1.2,1,2c0,0.4-0.1,0.8-0.2,1.1
			c-0.1,0.3-0.3,0.6-0.6,0.9c-0.3,0.3-0.6,0.5-1,0.7c-0.4,0.2-1,0.5-1.8,0.8c-0.5,0.2-0.9,0.4-1.3,0.7c-0.4,0.2-0.8,0.5-1,0.7h6.4
			V14.7z"/>
		<path class="st1" d="M202.9,6.9c0.4,0.4,0.6,0.9,0.8,1.5c0.2,0.6,0.3,1.2,0.3,1.8c0,0.8-0.1,1.4-0.3,2c-0.2,0.6-0.5,1.1-0.9,1.5
			c-0.4,0.4-0.8,0.7-1.4,0.9c-0.5,0.2-1.1,0.3-1.8,0.3c-0.7,0-1.4-0.1-1.9-0.4c-0.6-0.2-1-0.6-1.4-1c-0.4-0.4-0.6-0.9-0.8-1.5
			s-0.3-1.2-0.3-1.9c0-0.7,0.1-1.3,0.3-1.8c0.2-0.6,0.4-1.1,0.8-1.5c0.4-0.4,0.8-0.8,1.4-1s1.2-0.4,1.9-0.4c0.8,0,1.4,0.1,2,0.4
			C202.1,6.1,202.6,6.5,202.9,6.9z M202.1,10.2c0-1.3-0.2-2.3-0.7-3.1s-1.1-1.1-1.8-1.1c-0.8,0-1.4,0.4-1.9,1.1s-0.7,1.7-0.7,3.1
			c0,1.2,0.2,2.3,0.7,3s1.1,1.1,1.9,1.1s1.4-0.4,1.9-1.1S202.1,11.5,202.1,10.2z"/>
		<path class="st1" d="M213.5,14.7h-7.8v-1.1c0.1-0.2,0.4-0.4,0.6-0.6s0.6-0.4,0.9-0.7c0.2-0.1,0.5-0.3,0.8-0.5
			c0.3-0.2,0.7-0.4,1.1-0.6c0.4-0.2,0.8-0.4,1-0.6s0.4-0.4,0.6-0.7c0.1-0.2,0.2-0.4,0.3-0.6s0.1-0.6,0.1-1.1c0-0.7-0.2-1.2-0.6-1.5
			c-0.4-0.3-0.8-0.5-1.4-0.5c-0.4,0-0.7,0.1-1,0.2c-0.3,0.1-0.6,0.3-0.7,0.6c0,0.2,0.1,0.4,0.1,0.6c0.1,0.2,0.1,0.5,0.1,0.7
			c0,0.2-0.1,0.4-0.3,0.6c-0.2,0.2-0.4,0.2-0.8,0.2c-0.3,0-0.5-0.1-0.6-0.3c-0.1-0.2-0.2-0.4-0.2-0.8c0-0.3,0.1-0.6,0.2-0.9
			s0.4-0.6,0.7-0.8c0.3-0.2,0.7-0.5,1.1-0.6c0.4-0.2,0.9-0.2,1.5-0.2c1.1,0,2,0.3,2.7,0.8s1,1.2,1,2c0,0.4-0.1,0.8-0.2,1.1
			c-0.1,0.3-0.3,0.6-0.6,0.9c-0.3,0.3-0.6,0.5-1,0.7c-0.4,0.2-1,0.5-1.8,0.8c-0.5,0.2-0.9,0.4-1.3,0.7c-0.4,0.2-0.8,0.5-1,0.7h6.4
			V14.7z"/>
		<path class="st1" d="M222.9,6.9c0.4,0.4,0.6,0.9,0.8,1.5c0.2,0.6,0.3,1.2,0.3,1.8c0,0.8-0.1,1.4-0.3,2c-0.2,0.6-0.5,1.1-0.9,1.5
			c-0.4,0.4-0.8,0.7-1.4,0.9c-0.5,0.2-1.1,0.3-1.8,0.3c-0.7,0-1.4-0.1-1.9-0.4c-0.6-0.2-1-0.6-1.4-1c-0.4-0.4-0.6-0.9-0.8-1.5
			s-0.3-1.2-0.3-1.9c0-0.7,0.1-1.3,0.3-1.8c0.2-0.6,0.4-1.1,0.8-1.5c0.4-0.4,0.8-0.8,1.4-1s1.2-0.4,1.9-0.4c0.8,0,1.4,0.1,2,0.4
			C222,6.1,222.5,6.5,222.9,6.9z M222.1,10.2c0-1.3-0.2-2.3-0.7-3.1s-1.1-1.1-1.8-1.1c-0.8,0-1.4,0.4-1.9,1.1s-0.7,1.7-0.7,3.1
			c0,1.2,0.2,2.3,0.7,3s1.1,1.1,1.9,1.1s1.4-0.4,1.9-1.1S222.1,11.5,222.1,10.2z"/>
	</g>
	<rect x="1.3" y="1.1" class="st2" width="14.1" height="15"/>
</g>
</svg>
