<?xml version="1.0" encoding="utf-8"?>
<!-- Generator: Adobe Illustrator 24.0.1, SVG Export Plug-In . SVG Version: 6.00 Build 0)  -->
<svg version="1.1" id="Calque_1" xmlns="http://www.w3.org/2000/svg" xmlns:xlink="http://www.w3.org/1999/xlink" x="0px" y="0px"
	 viewBox="0 0 365 55.9" style="enable-background:new 0 0 365 55.9;" xml:space="preserve">
<style type="text/css">
	.st0{enable-background:new    ;}
	.st1{fill:#010101;}
	.st2{fill:#E30613;stroke:#FFFFFF;stroke-width:1.49;}
	.st3{fill:#009FE3;stroke:#FFFFFF;stroke-width:1.49;}
	
		.st4{fill:none;stroke:#009FE3;stroke-width:2;stroke-linecap:round;stroke-linejoin:round;stroke-miterlimit:10;stroke-dasharray:0,5;}
	
		.st5{fill:none;stroke:#E30613;stroke-width:2;stroke-linecap:round;stroke-linejoin:round;stroke-miterlimit:10;stroke-dasharray:0,5;}
</style>
<title>mobile_controlelegende</title>
<g id="Mode_Isolation">
	<g class="st0">
		<path class="st1" d="M177.8,14.1V13h1.4V3.7h-1.4V2.6h4.7c2.2,0,4,1,4,3.3V6c0,2.4-1.8,3.4-4,3.4h-1.9V13h1.6v1.1H177.8z
			 M182.6,8.3c1.6,0,2.5-0.8,2.5-2.3l0,0c0-1.6-1-2.3-2.5-2.3h-2v4.6H182.6z"/>
	</g>
	<g class="st0">
		<path class="st1" d="M187.2,10V9.9c0-2.5,1.6-4.3,3.9-4.3c1.9,0,3.8,1.2,3.8,4.2v0.4h-6.3c0.1,1.9,1,3,2.7,3c1.3,0,2-0.5,2.2-1.5
			h1.3c-0.3,1.7-1.7,2.6-3.6,2.6C188.9,14.2,187.2,12.6,187.2,10z M193.5,9.1c-0.1-1.7-1-2.4-2.4-2.4s-2.3,0.9-2.5,2.4H193.5z
			 M191.5,1.9h1.7l-1.7,2.4h-1L191.5,1.9z"/>
		<path class="st1" d="M196,14.1v-1h1.2V6.8H196V5.7h2.5v1.6c0.4-0.9,1.2-1.7,3-1.7v1.3c-1.8,0-3,0.6-3,2.6V13h1.3v1H196V14.1z"/>
		<path class="st1" d="M202.6,14.1v-1h1.2V6.8h-1.2V5.7h2.5V13h1.2v1h-3.7V14.1z M203.5,3.1c0-0.5,0.4-0.9,0.9-0.9s0.9,0.4,0.9,0.9
			S204.9,4,204.4,4S203.5,3.6,203.5,3.1z"/>
		<path class="st1" d="M207.3,10V9.8c0-2.5,1.7-4.3,4.1-4.3s4.1,1.7,4.1,4.3V10c0,2.5-1.7,4.3-4.1,4.3C209,14.2,207.3,12.4,207.3,10
			z M214.1,10V9.9c0-1.9-1.1-3.2-2.7-3.2c-1.7,0-2.7,1.2-2.7,3.2V10c0,1.9,1,3.2,2.7,3.2C213.1,13.1,214.1,11.9,214.1,10z"/>
	</g>
	<g class="st0">
		<path class="st1" d="M220.5,14.2c-2.2,0-3.8-1.6-3.8-4.2V9.9c0-2.6,1.6-4.4,3.9-4.4c1.4,0,2.3,0.7,2.7,1.5V2.8h-1.2V1.7h2.6V13
			h1.2v1h-2.5v-1.4C222.9,13.5,221.7,14.2,220.5,14.2z M223.4,10V9.8c0-2.2-1-3.2-2.7-3.2S218,7.8,218,9.8V10c0,2.1,1.1,3.2,2.5,3.2
			C222.2,13.2,223.4,12.1,223.4,10z"/>
		<path class="st1" d="M226.8,10V9.9c0-2.5,1.6-4.3,3.9-4.3c1.9,0,3.8,1.2,3.8,4.2v0.4h-6.3c0.1,1.9,1,3,2.7,3c1.3,0,2-0.5,2.2-1.5
			h1.3c-0.3,1.7-1.7,2.6-3.6,2.6C228.4,14.2,226.8,12.6,226.8,10z M233.1,9.1c-0.1-1.7-1-2.4-2.4-2.4s-2.3,0.9-2.5,2.4H233.1z"/>
	</g>
	<g class="st0">
		<path class="st1" d="M236.7,13.1v1h-1.1v-2.8h1.1c0.2,1,0.9,1.9,2.2,1.9c1.2,0,1.7-0.5,1.7-1.4s-0.7-1.2-2-1.4
			c-2.2-0.4-2.9-1.2-2.9-2.6s1.2-2.2,2.6-2.2c1.2,0,1.8,0.4,2.1,1V5.7h1.1v2.4h-1.1c-0.2-0.9-0.9-1.5-2-1.5c-0.9,0-1.5,0.4-1.5,1.2
			c0,0.7,0.4,1.1,2,1.4c1.7,0.3,3,0.8,3,2.5c0,1.5-1,2.5-3,2.5C237.6,14.2,237,13.6,236.7,13.1z"/>
	</g>
	<g class="st0">
		<path class="st1" d="M246.8,10V9.8c0-2.5,1.7-4.3,4.1-4.3s4.1,1.7,4.1,4.3V10c0,2.5-1.7,4.3-4.1,4.3
			C248.5,14.2,246.8,12.4,246.8,10z M253.6,10V9.9c0-1.9-1.1-3.2-2.7-3.2c-1.7,0-2.7,1.2-2.7,3.2V10c0,1.9,1,3.2,2.7,3.2
			C252.6,13.1,253.6,11.9,253.6,10z"/>
	</g>
	<g class="st0">
		<path class="st1" d="M259.9,14.2c-1.6,0-2.9-0.9-2.9-3.3V6.8h-1.2V5.7h2.5V11c0,1.5,0.6,2.1,1.9,2.1c1.2,0,2.2-0.8,2.2-2.3v-4
			h-1.2V5.7h2.5V13h1.2v1h-2.5v-1.4C262.1,13.5,261.2,14.2,259.9,14.2z M258.2,1.9h1.7l1,2.4h-1L258.2,1.9z"/>
		<path class="st1" d="M273.3,14.2c-1.6,0-2.9-0.9-2.9-3.3V6.8h-1.2V5.7h2.5V11c0,1.5,0.6,2.1,1.9,2.1c1.2,0,2.2-0.8,2.2-2.3v-4
			h-1.2V5.7h2.5V13h1.2v1h-2.5v-1.4C275.5,13.5,274.6,14.2,273.3,14.2z"/>
		<path class="st1" d="M279.3,14.1v-1h1.2V6.8h-1.2V5.7h2.5v1.4c0.4-0.8,1.3-1.6,2.6-1.6c1.7,0,2.9,0.9,2.9,3.3V13h1.2v1h-3.7v-1
			h1.2V8.8c0-1.4-0.6-2.1-1.9-2.1c-1.2,0-2.3,0.8-2.3,2.3v4h1.2v1h-3.7V14.1z"/>
	</g>
	<g class="st0">
		<path class="st1" d="M292.9,14.1v-1h1.2V6.8h-1.2V5.7h2.5v1.4c0.3-0.8,1.2-1.5,2.4-1.5c1.1,0,2,0.4,2.4,1.7
			c0.6-1.2,1.7-1.7,2.8-1.7c1.5,0,2.8,0.9,2.8,3.3V13h1.2v1h-3.7v-1h1.2V8.8c0-1.5-0.6-2.1-1.7-2.1s-2.2,0.7-2.2,2.2V13h1.2v1h-3.7
			v-1h1.2V8.8c0-1.5-0.6-2.1-1.7-2.1s-2.2,0.7-2.2,2.2V13h1.2v1h-3.7V14.1z"/>
	</g>
	<g class="st0">
		<path class="st1" d="M307.9,10V9.9c0-2.5,1.6-4.3,3.9-4.3c1.9,0,3.8,1.2,3.8,4.2v0.4h-6.3c0.1,1.9,1,3,2.7,3c1.3,0,2-0.5,2.2-1.5
			h1.3c-0.3,1.7-1.7,2.6-3.6,2.6C309.6,14.2,307.9,12.6,307.9,10z M314.2,9.1c-0.1-1.7-1-2.4-2.4-2.4s-2.3,0.9-2.5,2.4H314.2z
			 M311.2,2h1.2l1.7,2.3h-1l-1.4-1.2l-1.4,1.2h-0.9L311.2,2z"/>
	</g>
	<g class="st0">
		<path class="st1" d="M316.7,14.1v-1h1.2V6.8h-1.2V5.7h2.5v1.4c0.3-0.8,1.2-1.5,2.4-1.5c1.1,0,2,0.4,2.4,1.7
			c0.6-1.2,1.7-1.7,2.8-1.7c1.5,0,2.8,0.9,2.8,3.3V13h1.2v1h-3.7v-1h1.2V8.8c0-1.5-0.6-2.1-1.7-2.1s-2.2,0.7-2.2,2.2V13h1.2v1h-3.7
			v-1h1.2V8.8c0-1.5-0.6-2.1-1.7-2.1s-2.2,0.7-2.2,2.2V13h1.2v1h-3.7V14.1z"/>
	</g>
	<g class="st0">
		<path class="st1" d="M331.7,10V9.9c0-2.5,1.6-4.3,3.9-4.3c1.9,0,3.8,1.2,3.8,4.2v0.4H333c0.1,1.9,1,3,2.7,3c1.3,0,2-0.5,2.2-1.5
			h1.3c-0.3,1.7-1.7,2.6-3.6,2.6C333.3,14.2,331.7,12.6,331.7,10z M338,9.1c-0.1-1.7-1-2.4-2.4-2.4s-2.3,0.9-2.5,2.4H338z"/>
	</g>
	<g class="st0">
		<path class="st1" d="M177.8,36.2v-1h1.2V26h-1.2v-1.1h2.5v1.5c0.5-0.9,1.6-1.6,2.8-1.6c2.2,0,3.8,1.6,3.8,4.2v0.1
			c0,2.6-1.5,4.3-3.8,4.3c-1.4,0-2.4-0.7-2.8-1.6v3.3h1.3v1L177.8,36.2L177.8,36.2z M185.5,29.2V29c0-2.1-1.2-3.2-2.6-3.2
			c-1.6,0-2.7,1-2.7,3.2v0.1c0,2.1,1.1,3.2,2.8,3.2C184.6,32.3,185.5,31.2,185.5,29.2z"/>
	</g>
	<g class="st0">
		<path class="st1" d="M190.8,33.4c-1.5,0-2.7-0.8-2.7-2.5c0-2,2-2.6,4.1-2.6h1.2v-0.6c0-1.4-0.6-1.9-1.8-1.9
			c-1.1,0-1.7,0.4-1.9,1.5h-1.3c0.2-2,1.7-2.6,3.2-2.6c1.6,0,3,0.6,3,3v4.5h1.1v1h-2.4V32C192.8,33,192,33.4,190.8,33.4z
			 M193.4,30.4v-1h-1.1c-1.6,0-2.8,0.4-2.8,1.6c0,0.8,0.4,1.4,1.5,1.4C192.3,32.4,193.4,31.7,193.4,30.4z"/>
	</g>
	<g class="st0">
		<path class="st1" d="M196.7,33.3v-1h1.2V26h-1.2v-1.1h2.5v1.6c0.4-0.9,1.2-1.7,3-1.7v1.3c-1.8,0-3,0.6-3,2.6v3.6h1.3v1H196.7z"/>
	</g>
	<g class="st0">
		<path class="st1" d="M204.3,31.2V26h-1.2v-1.1h1.2V23h1.3v1.9h2.2V26h-2.2v5c0,0.8,0.4,1.2,1.2,1.2c0.3,0,0.7-0.1,1.1-0.2v1.1
			c-0.4,0.1-0.7,0.2-1.2,0.2C205.1,33.4,204.3,32.5,204.3,31.2z"/>
		<path class="st1" d="M209,33.3v-1h1.2V26H209v-1.1h2.5v7.3h1.2v1L209,33.3L209,33.3z M209.9,22.3c0-0.5,0.4-0.9,0.9-0.9
			s0.9,0.4,0.9,0.9s-0.4,0.9-0.9,0.9S209.9,22.8,209.9,22.3z"/>
	</g>
	<g class="st0">
		<path class="st1" d="M223.8,24.9h1.2v2.8h-1.1c-0.3-1.1-1.1-1.9-2.5-1.9c-1.5,0-2.7,1.2-2.7,3.2v0.1c0,2,1.1,3.1,2.7,3.1
			c1.2,0,2.3-0.7,2.4-2h1.2c-0.2,1.8-1.6,3.2-3.6,3.2c-2.3,0-4.1-1.6-4.1-4.2v-0.1c0-2.6,1.8-4.3,4.1-4.3c1.4,0,2.1,0.6,2.4,1.2
			L223.8,24.9L223.8,24.9z"/>
	</g>
	<g class="st0">
		<path class="st1" d="M226.3,29.2V29c0-2.5,1.7-4.3,4.1-4.3s4.1,1.7,4.1,4.3v0.1c0,2.5-1.7,4.3-4.1,4.3
			C228.1,33.4,226.3,31.6,226.3,29.2z M233.2,29.2v-0.1c0-1.9-1.1-3.2-2.7-3.2c-1.7,0-2.7,1.2-2.7,3.2v0.1c0,1.9,1,3.2,2.7,3.2
			C232.1,32.3,233.2,31.1,233.2,29.2z"/>
	</g>
	<g class="st0">
		<path class="st1" d="M235.7,33.3v-1h1.2V26h-1.2v-1.1h2.5v1.4c0.4-0.8,1.3-1.6,2.6-1.6c1.7,0,2.9,0.9,2.9,3.3v4.2h1.2v1h-3.7v-1
			h1.2V28c0-1.4-0.6-2.1-1.9-2.1c-1.2,0-2.3,0.8-2.3,2.3v4.1h1.2v1H235.7z"/>
	</g>
	<g class="st0">
		<path class="st1" d="M246.5,31.2V26h-1.2v-1.1h1.2V23h1.3v1.9h2.2V26h-2.2v5c0,0.8,0.4,1.2,1.2,1.2c0.3,0,0.7-0.1,1.1-0.2v1.1
			c-0.4,0.1-0.7,0.2-1.2,0.2C247.3,33.4,246.5,32.5,246.5,31.2z"/>
	</g>
	<g class="st0">
		<path class="st1" d="M251.3,33.3v-1h1.2V26h-1.2v-1.1h2.5v1.6c0.4-0.9,1.2-1.7,3-1.7v1.3c-1.8,0-3,0.6-3,2.6v3.6h1.3v1H251.3z"/>
	</g>
	<g class="st0">
		<path class="st1" d="M257.6,29.2V29c0-2.5,1.7-4.3,4.1-4.3s4.1,1.7,4.1,4.3v0.1c0,2.5-1.7,4.3-4.1,4.3
			C259.3,33.4,257.6,31.6,257.6,29.2z M264.4,29.2v-0.1c0-1.9-1.1-3.2-2.7-3.2c-1.7,0-2.7,1.2-2.7,3.2v0.1c0,1.9,1,3.2,2.7,3.2
			C263.4,32.3,264.4,31.1,264.4,29.2z M261.1,21.2h1.2l1.7,2.3h-1l-1.4-1.2l-1.4,1.2h-0.9L261.1,21.2z"/>
		<path class="st1" d="M266.7,33.3v-1h1.2V22h-1.2v-1.1h2.5v11.3h1.2v1L266.7,33.3L266.7,33.3z"/>
	</g>
	<g class="st0">
		<path class="st1" d="M271.4,29.2v-0.1c0-2.5,1.6-4.3,3.9-4.3c1.9,0,3.8,1.2,3.8,4.2v0.4h-6.3c0.1,1.9,1,3,2.7,3
			c1.3,0,2-0.5,2.2-1.5h1.3c-0.3,1.7-1.7,2.6-3.6,2.6C273.1,33.4,271.4,31.8,271.4,29.2z M277.7,28.3c-0.1-1.7-1-2.4-2.4-2.4
			s-2.3,0.9-2.5,2.4H277.7z"/>
	</g>
	<g class="st0">
		<path class="st1" d="M283.8,33.3v-1h1.2V22h-1.2v-1.1h2.5v11.3h1.2v1L283.8,33.3L283.8,33.3z"/>
	</g>
	<g class="st0">
		<path class="st1" d="M288.4,29.2v-0.1c0-2.5,1.6-4.3,3.9-4.3c1.9,0,3.8,1.2,3.8,4.2v0.4h-6.3c0.1,1.9,1,3,2.7,3
			c1.3,0,2-0.5,2.2-1.5h1.3c-0.3,1.7-1.7,2.6-3.6,2.6C290,33.4,288.4,31.8,288.4,29.2z M294.7,28.3c-0.1-1.7-1-2.4-2.4-2.4
			s-2.3,0.9-2.5,2.4H294.7z"/>
	</g>
	<g class="st0">
		<path class="st1" d="M306.3,33.4c-3.3,0-5.3-2.3-5.3-5.8v-0.1c0-3.4,2.3-5.8,5.4-5.8c1.4,0,2.7,0.5,3.3,1.5v-1.4h1.2v3.6h-1.2
			c-0.5-1.9-1.6-2.6-3.4-2.6c-2.4,0-4,1.8-4,4.7v0.1c0,2.9,1.5,4.7,3.9,4.7c1.9,0,3.2-0.9,3.5-2.8h1.3
			C310.7,32.1,308.8,33.4,306.3,33.4z"/>
	</g>
	<g class="st0">
		<path class="st1" d="M312.3,29.2V29c0-2.5,1.7-4.3,4.1-4.3s4.1,1.7,4.1,4.3v0.1c0,2.5-1.7,4.3-4.1,4.3S312.3,31.6,312.3,29.2z
			 M319.1,29.2v-0.1c0-1.9-1.1-3.2-2.7-3.2c-1.7,0-2.7,1.2-2.7,3.2v0.1c0,1.9,1,3.2,2.7,3.2C318.1,32.3,319.1,31.1,319.1,29.2z"/>
	</g>
	<g class="st0">
		<path class="st1" d="M321.6,33.3v-1h1.2V26h-1.2v-1.1h2.5v1.4c0.4-0.8,1.3-1.6,2.6-1.6c1.7,0,2.9,0.9,2.9,3.3v4.2h1.2v1h-3.7v-1
			h1.2V28c0-1.4-0.6-2.1-1.9-2.1c-1.2,0-2.3,0.8-2.3,2.3v4.1h1.2v1H321.6z"/>
	</g>
	<g class="st0">
		<path class="st1" d="M331.9,33.8h1.4c0.2,1,1,1.5,2.4,1.5c1.6,0,2.7-0.8,2.7-2.6v-1.2c-0.5,0.8-1.6,1.6-2.8,1.6
			c-2.2,0-3.8-1.7-3.8-4V29c0-2.3,1.6-4.2,3.9-4.2c1.4,0,2.3,0.7,2.7,1.5V25h2.5v1h-1.1v6.7c0,2.4-1.7,3.6-4,3.6
			C333.2,36.3,332.1,35.2,331.9,33.8z M338.4,29v-0.1c0-1.9-1-3-2.7-3s-2.7,1.2-2.7,3V29c0,1.8,1.2,2.9,2.6,2.9
			C337.2,31.9,338.4,30.8,338.4,29z"/>
	</g>
	<g class="st0">
		<path class="st1" d="M341.6,33.3v-1h1.2V26h-1.2v-1.1h2.5v1.6c0.4-0.9,1.2-1.7,3-1.7v1.3c-1.8,0-3,0.6-3,2.6v3.6h1.3v1H341.6z"/>
	</g>
	<g class="st0">
		<path class="st1" d="M347.9,29.2v-0.1c0-2.5,1.6-4.3,3.9-4.3c1.9,0,3.8,1.2,3.8,4.2v0.4h-6.3c0.1,1.9,1,3,2.7,3
			c1.3,0,2-0.5,2.2-1.5h1.3c-0.3,1.7-1.7,2.6-3.6,2.6C349.6,33.4,347.9,31.8,347.9,29.2z M354.3,28.3c-0.1-1.7-1-2.4-2.4-2.4
			s-2.3,0.9-2.5,2.4H354.3z M349.8,21.1h1.7l1,2.4h-1L349.8,21.1z"/>
	</g>
	<g class="st0">
		<path class="st1" d="M357.9,32.3v1h-1.1v-2.8h1.1c0.2,1,0.9,1.9,2.2,1.9c1.2,0,1.7-0.5,1.7-1.4s-0.7-1.2-2-1.4
			c-2.2-0.4-2.9-1.2-2.9-2.6s1.2-2.2,2.6-2.2c1.2,0,1.8,0.4,2.1,1v-0.9h1.1v2.4h-1.1c-0.2-0.9-0.9-1.5-2-1.5c-0.9,0-1.5,0.4-1.5,1.2
			c0,0.7,0.4,1.1,2,1.4c1.7,0.3,3,0.8,3,2.5c0,1.5-1,2.5-3,2.5C358.8,33.4,358.1,32.8,357.9,32.3z"/>
	</g>
	<g class="st0">
		<path class="st1" d="M177.9,48.4L177.9,48.4c0-2.6,1.6-4.4,3.9-4.4c1.9,0,3.8,1.2,3.8,4.2v0.4h-6.3c0.1,1.9,1,3,2.7,3
			c1.3,0,2-0.5,2.2-1.5h1.3c-0.3,1.7-1.7,2.6-3.6,2.6C179.5,52.6,177.9,51,177.9,48.4z M184.2,47.5c-0.1-1.7-1-2.4-2.4-2.4
			s-2.3,0.9-2.5,2.4H184.2z"/>
	</g>
	<g class="st0">
		<path class="st1" d="M187.6,50.4v-5.2h-1.2v-1.1h1.2v-1.9h1.3v1.9h2.2v1.1h-2.2v5c0,0.8,0.4,1.2,1.2,1.2c0.3,0,0.7-0.1,1.1-0.2
			v1.1c-0.4,0.1-0.7,0.2-1.2,0.2C188.3,52.6,187.6,51.7,187.6,50.4z"/>
		<path class="st1" d="M195.9,52.5v-1h1.2V41.2h-1.2v-1.1h2.5v11.3h1.2v1L195.9,52.5L195.9,52.5z"/>
		<path class="st1" d="M203.3,52.6c-1.5,0-2.7-0.8-2.7-2.5c0-2,2-2.6,4.1-2.6h1.2V47c0-1.4-0.6-1.9-1.8-1.9c-1.1,0-1.7,0.4-1.9,1.5
			h-1.3c0.2-2,1.7-2.6,3.2-2.6c1.6,0,3,0.6,3,3v4.5h1.1v1h-2.4v-1.2C205.3,52.2,204.5,52.6,203.3,52.6z M205.9,49.6v-1h-1.1
			c-1.6,0-2.8,0.4-2.8,1.6c0,0.8,0.4,1.4,1.5,1.4C204.8,51.6,205.9,50.9,205.9,49.6z"/>
	</g>
	<g class="st0">
		<path class="st1" d="M217,52.5h-4.2v-1.1h1.4v-9.3h-1.4V41h3.6l3.3,8.9L223,41h3.5v1.1h-1.4v9.3h1.4v1.1h-4.3v-1.1h1.4v-8.9
			l-3.8,10h-0.4l-3.9-10v8.9h1.4v1.1H217z"/>
	</g>
	<g class="st0">
		<path class="st1" d="M230.3,52.6c-1.5,0-2.7-0.8-2.7-2.5c0-2,2-2.6,4.1-2.6h1.2V47c0-1.4-0.6-1.9-1.8-1.9c-1.1,0-1.7,0.4-1.9,1.5
			h-1.3c0.2-2,1.7-2.6,3.2-2.6c1.6,0,3,0.6,3,3v4.5h1.1v1h-2.4v-1.2C232.3,52.2,231.5,52.6,230.3,52.6z M232.9,49.6v-1h-1.1
			c-1.6,0-2.8,0.4-2.8,1.6c0,0.8,0.4,1.4,1.5,1.4C231.8,51.6,232.9,50.9,232.9,49.6z"/>
		<path class="st1" d="M236.2,52.5v-1h1.2v-6.2h-1.2v-1.1h2.5v7.3h1.2v1H236.2z M237,41.5c0-0.5,0.4-0.9,0.9-0.9s0.9,0.4,0.9,0.9
			s-0.4,0.9-0.9,0.9S237,42,237,41.5z"/>
	</g>
	<g class="st0">
		<path class="st1" d="M242,51.5v1h-1.1v-2.8h1.1c0.2,1,0.9,1.9,2.2,1.9c1.2,0,1.7-0.5,1.7-1.4s-0.7-1.2-2-1.4
			c-2.2-0.4-2.9-1.2-2.9-2.6c0-1.4,1.2-2.2,2.6-2.2c1.2,0,1.8,0.4,2.1,1v-0.9h1.1v2.4h-1.1c-0.2-0.9-0.9-1.5-2-1.5
			c-0.9,0-1.5,0.4-1.5,1.2c0,0.7,0.4,1.1,2,1.4c1.7,0.3,3,0.8,3,2.5c0,1.5-1,2.5-3,2.5C242.9,52.6,242.2,52,242,51.5z"/>
	</g>
	<g class="st0">
		<path class="st1" d="M248.4,48.4L248.4,48.4c0-2.6,1.7-4.4,4.1-4.4s4.1,1.7,4.1,4.3v0.1c0,2.5-1.7,4.3-4.1,4.3
			C250.1,52.6,248.4,50.8,248.4,48.4z M255.2,48.4L255.2,48.4c0-2-1.1-3.3-2.7-3.3c-1.7,0-2.7,1.2-2.7,3.2v0.1c0,1.9,1,3.2,2.7,3.2
			C254.2,51.5,255.2,50.3,255.2,48.4z"/>
		<path class="st1" d="M257.7,52.5v-1h1.2v-6.2h-1.2v-1.1h2.5v1.4c0.4-0.8,1.3-1.6,2.6-1.6c1.7,0,2.9,0.9,2.9,3.3v4.2h1.2v1h-3.7v-1
			h1.2v-4.3c0-1.4-0.6-2.1-1.9-2.1c-1.2,0-2.3,0.8-2.3,2.3v4.1h1.2v1C261.4,52.5,257.7,52.5,257.7,52.5z"/>
		<path class="st1" d="M271.4,51.4h1.4v-9.3h-1.4V41h4.9c2.1,0,3.7,0.7,3.7,3v0.1c0,1-0.4,2-1.7,2.4c1.7,0.4,2.3,1.2,2.3,2.7v0.1
			c0,2.2-1.5,3.2-3.8,3.2h-5.4V51.4z M276.3,46c1.7,0,2.3-0.6,2.3-2l0,0c0-1.3-0.8-1.8-2.4-1.8h-2V46H276.3z M276.8,51.4
			c1.7,0,2.4-0.7,2.4-2.1v-0.1c0-1.4-0.8-2.1-2.6-2.1h-2.3v4.3C274.3,51.4,276.8,51.4,276.8,51.4z"/>
		<path class="st1" d="M281.7,52.5v-1h1.2V41.2h-1.2v-1.1h2.5v11.3h1.2v1L281.7,52.5L281.7,52.5z"/>
		<path class="st1" d="M289.1,52.6c-1.5,0-2.7-0.8-2.7-2.5c0-2,2-2.6,4.1-2.6h1.2V47c0-1.4-0.6-1.9-1.8-1.9c-1.1,0-1.7,0.4-1.9,1.5
			h-1.3c0.2-2,1.7-2.6,3.2-2.6c1.6,0,3,0.6,3,3v4.5h1.1v1h-2.4v-1.2C291.1,52.2,290.3,52.6,289.1,52.6z M291.6,49.6v-1h-1.1
			c-1.6,0-2.8,0.4-2.8,1.6c0,0.8,0.4,1.4,1.5,1.4C290.6,51.6,291.6,50.9,291.6,49.6z"/>
	</g>
	<g class="st0">
		<path class="st1" d="M294.9,52.5v-1h1.2v-6.2h-1.2v-1.1h2.5v1.4c0.4-0.8,1.3-1.6,2.6-1.6c1.7,0,2.9,0.9,2.9,3.3v4.2h1.2v1h-3.7v-1
			h1.2v-4.3c0-1.4-0.6-2.1-1.9-2.1c-1.2,0-2.3,0.8-2.3,2.3v4.1h1.2v1C298.6,52.5,294.9,52.5,294.9,52.5z"/>
		<path class="st1" d="M311.4,44.1h1.2V47h-1.1c-0.3-1.1-1.1-1.9-2.5-1.9c-1.5,0-2.7,1.2-2.7,3.2v0.1c0,2,1.1,3.1,2.7,3.1
			c1.2,0,2.3-0.7,2.4-2h1.2c-0.2,1.8-1.6,3.2-3.6,3.2c-2.3,0-4.1-1.6-4.1-4.2v-0.1c0-2.6,1.8-4.3,4.1-4.3c1.4,0,2.1,0.6,2.4,1.2
			V44.1z"/>
		<path class="st1" d="M313.6,52.5v-1h1.2V41.2h-1.2v-1.1h2.5v5.4c0.4-0.8,1.3-1.6,2.6-1.6c1.7,0,2.9,0.9,2.9,3.3v4.2h1.2v1h-3.7v-1
			h1.2v-4.3c0-1.4-0.6-2.1-1.9-2.1c-1.2,0-2.3,0.8-2.3,2.3v4.1h1.2v1L313.6,52.5L313.6,52.5z"/>
	</g>
	<g class="st0">
		<path class="st1" d="M324,48.4L324,48.4c0-2.6,1.6-4.4,3.9-4.4c1.9,0,3.8,1.2,3.8,4.2v0.4h-6.3c0.1,1.9,1,3,2.7,3
			c1.3,0,2-0.5,2.2-1.5h1.3c-0.3,1.7-1.7,2.6-3.6,2.6C325.7,52.6,324,51,324,48.4z M330.4,47.5c-0.1-1.7-1-2.4-2.4-2.4
			s-2.3,0.9-2.5,2.4H330.4z"/>
	</g>
	<g class="st0">
		<path class="st1" d="M24.8,14.7v-1.1h1.4V4.4h-1.4V3.3h5c2.2,0,3.9,0.9,3.9,3.2v0.1c0,1.8-1.2,2.8-2.8,3.1l2.8,4h1v1.1h-1.8
			l-3.4-5h-1.8v3.9h1.6v1.1h-4.5V14.7z M29.7,8.6c1.6,0,2.5-0.7,2.5-2.2v0c0-1.4-1-2-2.5-2h-2.1v4.3h2.1V8.6z"/>
	</g>
	<g class="st0">
		<path class="st1" d="M35.2,10.6v-0.1c0-2.5,1.6-4.3,3.9-4.3c1.9,0,3.8,1.2,3.8,4.2v0.4h-6.3c0.1,1.9,1,3,2.7,3
			c1.3,0,2-0.5,2.2-1.5h1.3c-0.3,1.7-1.7,2.6-3.6,2.6C36.9,14.9,35.2,13.2,35.2,10.6z M41.5,9.7c-0.1-1.7-1-2.4-2.4-2.4
			s-2.3,0.9-2.5,2.4H41.5z M39.5,2.6h1.7L39.5,5h-1L39.5,2.6z"/>
	</g>
	<g class="st0">
		<path class="st1" d="M43.9,17.6v-1h1.2V7.4h-1.2v-1h2.5v1.5C46.9,7,48,6.2,49.2,6.2c2.2,0,3.8,1.6,3.8,4.2v0.1
			c0,2.6-1.5,4.3-3.8,4.3c-1.4,0-2.4-0.7-2.8-1.6v3.3h1.3v1h-3.8V17.6z M51.7,10.6v-0.1c0-2.1-1.2-3.2-2.6-3.2c-1.6,0-2.7,1-2.7,3.2
			v0.1c0,2.1,1.1,3.2,2.8,3.2C50.8,13.8,51.7,12.6,51.7,10.6z"/>
	</g>
	<g class="st0">
		<path class="st1" d="M57.9,14.9c-1.6,0-2.9-0.9-2.9-3.3V7.4h-1.2v-1h2.5v5.2c0,1.5,0.6,2.1,1.9,2.1c1.2,0,2.2-0.8,2.2-2.3v-4h-1.2
			v-1h2.5v7.3H63v1h-2.5v-1.4C60.1,14.1,59.2,14.9,57.9,14.9z"/>
	</g>
	<g class="st0">
		<path class="st1" d="M66.3,13.3v1.4h-2.5v-1H65V3.4h-1.2v-1h2.5v5.5c0.5-0.9,1.6-1.6,2.8-1.6c2.2,0,3.8,1.6,3.8,4.2v0.1
			c0,2.6-1.5,4.3-3.8,4.3C67.8,14.9,66.8,14.2,66.3,13.3z M71.6,10.6v-0.1c0-2.1-1.2-3.2-2.6-3.2c-1.6,0-2.7,1-2.7,3.2v0.1
			c0,2.1,1.1,3.2,2.8,3.2C70.7,13.8,71.6,12.6,71.6,10.6z"/>
	</g>
	<g class="st0">
		<path class="st1" d="M74,14.7v-1h1.2V3.4H74v-1h2.5v11.3h1.2v1C77.7,14.7,74,14.7,74,14.7z"/>
		<path class="st1" d="M78.5,14.7v-1h1.2V7.4h-1.2v-1H81v7.3h1.2v1C82.2,14.7,78.5,14.7,78.5,14.7z M79.4,3.7c0-0.5,0.4-0.9,0.9-0.9
			s0.9,0.4,0.9,0.9s-0.4,0.9-0.9,0.9S79.4,4.2,79.4,3.7z"/>
	</g>
	<g class="st0">
		<path class="st1" d="M89.7,6.4h1.2v2.8h-1.1c-0.3-1.1-1.1-1.9-2.5-1.9c-1.5,0-2.7,1.2-2.7,3.2v0.1c0,2,1.1,3.1,2.7,3.1
			c1.2,0,2.3-0.7,2.4-2h1.2c-0.2,1.8-1.6,3.2-3.6,3.2c-2.3,0-4.1-1.6-4.1-4.2v-0.1c0-2.6,1.8-4.3,4.1-4.3c1.4,0,2.1,0.6,2.4,1.2V6.4
			z"/>
	</g>
	<g class="st0">
		<path class="st1" d="M95,14.9c-1.5,0-2.7-0.8-2.7-2.5c0-2,2-2.6,4.1-2.6h1.2V9.2c0-1.4-0.6-1.9-1.8-1.9c-1.1,0-1.7,0.4-1.9,1.5
			h-1.3c0.2-2,1.7-2.6,3.2-2.6c1.6,0,3,0.6,3,3v4.5h1.1v1h-2.4v-1.2C97,14.4,96.2,14.9,95,14.9z M97.5,11.8v-1h-1.1
			c-1.6,0-2.8,0.4-2.8,1.6c0,0.8,0.4,1.4,1.5,1.4C96.5,13.8,97.5,13.1,97.5,11.8z"/>
		<path class="st1" d="M100.8,14.7v-1h1.2V7.4h-1.2v-1h2.5v7.3h1.2v1C104.5,14.7,100.8,14.7,100.8,14.7z M101.7,3.7
			c0-0.5,0.4-0.9,0.9-0.9s0.9,0.4,0.9,0.9s-0.4,0.9-0.9,0.9S101.7,4.2,101.7,3.7z"/>
		<path class="st1" d="M105.4,14.7v-1h1.2V7.4h-1.2v-1h2.5v1.4c0.4-0.8,1.3-1.6,2.6-1.6c1.7,0,2.9,0.9,2.9,3.3v4.2h1.2v1h-3.7v-1
			h1.2V9.4c0-1.4-0.6-2.1-1.9-2.1c-1.2,0-2.3,0.8-2.3,2.3v4.1h1.2v1C109.1,14.7,105.4,14.7,105.4,14.7z"/>
		<path class="st1" d="M116.7,13.7v1h-1.1v-2.8h1.1c0.2,1,0.9,1.9,2.2,1.9c1.2,0,1.7-0.5,1.7-1.4s-0.7-1.2-2-1.4
			c-2.2-0.4-2.9-1.2-2.9-2.6s1.2-2.2,2.6-2.2c1.2,0,1.8,0.4,2.1,1V6.4h1.1v2.4h-1.1c-0.2-0.9-0.9-1.5-2-1.5c-0.9,0-1.5,0.4-1.5,1.2
			c0,0.7,0.4,1.1,2,1.4c1.7,0.3,3,0.8,3,2.5c0,1.5-1,2.5-3,2.5C117.6,14.9,117,14.2,116.7,13.7z"/>
	</g>
	<g class="st0">
		<path class="st1" d="M25.5,42.8h1.4v-9.3h-1.4v-1.1H30c3.9,0,5.8,2.4,5.8,5.6v0.1c0,3.2-1.8,5.7-5.8,5.7h-4.4v-1H25.5z M29.9,42.7
			c2.9,0,4.4-1.8,4.4-4.6V38c0-2.6-1.3-4.5-4.4-4.5h-1.6v9.2C28.3,42.7,29.9,42.7,29.9,42.7z"/>
	</g>
	<g class="st0">
		<path class="st1" d="M37,39.8L37,39.8c0-2.6,1.6-4.4,3.9-4.4c1.9,0,3.8,1.2,3.8,4.2V40h-6.3c0.1,1.9,1,3,2.7,3
			c1.3,0,2-0.5,2.2-1.5h1.3C44.3,43.1,42.9,44,41,44C38.6,44,37,42.4,37,39.8z M43.3,38.9c-0.1-1.7-1-2.4-2.4-2.4s-2.3,0.9-2.5,2.4
			H43.3z M41.3,31.7H43l-1.7,2.4h-1L41.3,31.7z"/>
	</g>
	<g class="st0">
		<path class="st1" d="M45.8,43.9v-1H47v-6.2h-1.2v-1.1h2.5V37c0.3-0.8,1.2-1.5,2.4-1.5c1.1,0,2,0.4,2.4,1.7
			c0.6-1.2,1.7-1.7,2.8-1.7c1.5,0,2.8,0.9,2.8,3.3v4.1h1.2v1h-3.7v-1h1.2v-4.2c0-1.5-0.6-2.1-1.7-2.1c-1.1,0-2.2,0.7-2.2,2.2v4.1
			h1.2v1H51v-1h1.2v-4.2c0-1.5-0.6-2.1-1.7-2.1c-1.1,0-2.2,0.7-2.2,2.2v4.1h1.2v1H45.8z"/>
	</g>
	<g class="st0">
		<path class="st1" d="M60.7,39.8L60.7,39.8c0-2.6,1.7-4.4,4.1-4.4s4.1,1.7,4.1,4.3v0.1c0,2.5-1.7,4.3-4.1,4.3
			C62.4,44,60.7,42.2,60.7,39.8z M67.6,39.8L67.6,39.8c0-2-1.1-3.3-2.7-3.3c-1.7,0-2.7,1.2-2.7,3.2v0.1c0,1.9,1,3.2,2.7,3.2
			C66.5,42.9,67.6,41.7,67.6,39.8z"/>
		<path class="st1" d="M76.7,35.5h1.2v2.8h-1.1c-0.3-1.1-1.1-1.9-2.5-1.9c-1.5,0-2.7,1.2-2.7,3.2v0.1c0,2,1.1,3.1,2.7,3.1
			c1.2,0,2.3-0.7,2.4-2h1.2c-0.2,1.8-1.6,3.2-3.6,3.2c-2.3,0-4.1-1.6-4.1-4.2v-0.1c0-2.6,1.8-4.3,4.1-4.3c1.4,0,2.1,0.6,2.4,1.2
			V35.5z"/>
	</g>
	<g class="st0">
		<path class="st1" d="M79.2,43.9v-1h1.2v-6.2h-1.2v-1.1h2.5v1.6c0.4-0.9,1.2-1.7,3-1.7v1.3c-1.8,0-3,0.6-3,2.6V43H83v1L79.2,43.9
			L79.2,43.9z"/>
	</g>
	<g class="st0">
		<path class="st1" d="M88.2,44c-1.5,0-2.7-0.8-2.7-2.5c0-2,2-2.6,4.1-2.6h1.2v-0.6c0-1.4-0.6-1.9-1.8-1.9c-1.1,0-1.7,0.4-1.9,1.5
			h-1.3c0.2-2,1.7-2.6,3.2-2.6c1.6,0,3,0.6,3,3v4.5h1.1v1h-2.4v-1.2C90.3,43.6,89.4,44,88.2,44z M90.8,41v-1h-1.1
			c-1.6,0-2.8,0.4-2.8,1.6c0,0.8,0.4,1.4,1.5,1.4C89.8,43,90.8,42.2,90.8,41z"/>
	</g>
	<g class="st0">
		<path class="st1" d="M94.9,41.8v-5.2h-1.2v-1.1h1.2v-1.9h1.3v1.9h2.2v1.1h-2.2v5c0,0.8,0.4,1.2,1.2,1.2c0.3,0,0.7-0.1,1.1-0.2v1.1
			c-0.4,0.1-0.7,0.2-1.2,0.2C95.7,44,94.9,43.1,94.9,41.8z"/>
	</g>
	<g class="st0">
		<path class="st1" d="M99.5,39.8L99.5,39.8c0-2.6,1.6-4.4,3.9-4.4c1.9,0,3.8,1.2,3.8,4.2V40h-6.3c0.1,1.9,1,3,2.7,3
			c1.3,0,2-0.5,2.2-1.5h1.3c-0.3,1.7-1.7,2.6-3.6,2.6C101.2,44,99.5,42.4,99.5,39.8z M105.8,38.9c-0.1-1.7-1-2.4-2.4-2.4
			s-2.3,0.9-2.5,2.4H105.8z"/>
	</g>
	<g class="st0">
		<path class="st1" d="M109.5,42.9v1h-1.1v-2.8h1.1c0.2,1,0.9,1.9,2.2,1.9c1.2,0,1.7-0.5,1.7-1.4s-0.7-1.2-2-1.4
			c-2.2-0.4-2.9-1.2-2.9-2.6c0-1.4,1.2-2.2,2.6-2.2c1.2,0,1.8,0.4,2.1,1v-0.9h1.1v2.4h-1.1c-0.2-0.9-0.9-1.5-2-1.5
			c-0.9,0-1.5,0.4-1.5,1.2c0,0.7,0.4,1.1,2,1.4c1.7,0.3,3,0.8,3,2.5c0,1.5-1,2.5-3,2.5C110.4,44,109.7,43.4,109.5,42.9z"/>
	</g>
	<rect class="st2" width="19.5" height="19.5"/>
	<rect y="29.1" class="st3" width="19.5" height="19.5"/>
</g>
<line class="st4" x1="162.3" y1="2" x2="162.3" y2="52.7"/>
<line class="st5" x1="167.7" y1="2" x2="167.7" y2="52.7"/>
</svg>
