<?xml version="1.0" encoding="utf-8"?>
<!-- Generator: Adobe Illustrator 24.0.1, SVG Export Plug-In . SVG Version: 6.00 Build 0)  -->
<svg version="1.1" id="Calque_1" xmlns="http://www.w3.org/2000/svg" xmlns:xlink="http://www.w3.org/1999/xlink" x="0px" y="0px"
	 viewBox="0 0 370.4 658.1" style="enable-background:new 0 0 370.4 658.1;" xml:space="preserve">
<style type="text/css">
	.st0{enable-background:new    ;}
	.st1{fill:#1D1D1B;}
	.st2{fill:#DBF0FD;}
	.st3{fill:#FCDFD2;}
	.st4{fill:#E30613;stroke:#FFFFFF;stroke-width:1.68;}
	.st5{fill:#009FE3;stroke:#FFFFFF;stroke-width:1.68;}
	.st6{fill:none;stroke:#1D1D1B;stroke-width:1.12;}
	.st7{fill:none;stroke:#1D1D1B;stroke-width:2.24;}
	.st8{fill:#E30613;}
	.st9{fill:none;stroke:#FFFFFF;stroke-width:1.19;}
	.st10{fill:#009FE3;}
	.st11{fill:none;}
	.st12{fill:none;stroke:#828282;stroke-width:2.24;}
	.st13{fill:#828282;}
</style>
<title>mobile_controle</title>
<g id="Mode_Isolation">
	<g class="st0">
		<path class="st1" d="M6.6,9.7H5.4v4.4H3v-13h3.6c1.3,0,2.2,0.2,2.7,0.7c0.5,0.5,0.8,1.3,0.8,2.5v2.3c0,1.1-0.3,1.9-0.8,2.4
			C8.8,9.5,7.9,9.7,6.6,9.7z M6.6,3.3H5.4v4.4h1.2c0.4,0,0.7-0.1,0.9-0.3c0.2-0.2,0.3-0.6,0.3-1.1V4.7c0-0.6-0.1-0.9-0.3-1.1
			C7.2,3.4,7,3.3,6.6,3.3z"/>
	</g>
	<g class="st0">
		<path class="st1" d="M15.7,14.1l-0.4-3.2h-2l-0.4,3.2h-2.3l1.9-13h3.7l1.9,13H15.7z M15.1,9l-0.8-5.7L13.5,9H15.1z"/>
	</g>
	<g class="st0">
		<path class="st1" d="M21.8,14.1h-2.4v-13h3.5c0.7,0,1.2,0,1.6,0.1c0.4,0.1,0.8,0.3,1,0.5C25.8,2,26,2.3,26.1,2.7s0.2,0.9,0.2,1.5
			V6c0,0.6-0.1,1.1-0.3,1.6s-0.5,0.7-0.9,1l1.3,5.6H24l-1.1-5.2h-1V14.1z M22.9,3.3h-1.1v3.6h1.1c0.4,0,0.6-0.1,0.7-0.2
			c0.1-0.2,0.2-0.5,0.2-0.9V4.5c0-0.5-0.1-0.8-0.2-1C23.5,3.3,23.3,3.3,22.9,3.3z"/>
	</g>
	<g class="st0">
		<path class="st1" d="M34,3.5h-2v10.7h-2.4V3.5h-2V1.1H34V3.5z"/>
		<path class="st1" d="M35.6,14.1v-13H38v13H35.6z"/>
	</g>
	<g class="st0">
		<path class="st1" d="M7.4,35.1L5.3,26v9.1H3V22h3.4l1.7,7.1L9.9,22h3.4v13h-2.3V26l-2.1,9.1H7.4z"/>
		<path class="st1" d="M19.8,35.1l-0.4-3.2h-2L17,35.1h-2.3l1.9-13h3.7l1.9,13H19.8z M19.2,30l-0.8-5.7L17.6,30H19.2z"/>
		<path class="st1" d="M23.4,35.1v-2.4H24c0.9,0,1.3-0.5,1.3-1.6V22h2.4v9.7c0,0.6-0.1,1.2-0.2,1.6c-0.2,0.4-0.4,0.8-0.7,1
			c-0.3,0.2-0.6,0.4-1,0.5s-0.8,0.2-1.3,0.2H23.4z"/>
		<path class="st1" d="M37,31.1c0,1.4-0.3,2.4-0.9,3c-0.6,0.7-1.6,1-2.9,1c-1.3,0-2.3-0.3-2.9-1c-0.6-0.7-0.9-1.7-0.9-3v-5.2
			c0-1.4,0.3-2.4,0.9-3c0.6-0.7,1.6-1,2.9-1s2.3,0.3,2.9,1c0.6,0.6,0.9,1.7,0.9,3V31.1z M34.6,26.2c0-0.8-0.1-1.3-0.3-1.6
			s-0.6-0.4-1.1-0.4c-0.5,0-0.9,0.1-1.1,0.4s-0.3,0.8-0.3,1.6v4.7c0,0.8,0.1,1.3,0.3,1.6s0.6,0.4,1.1,0.4c0.5,0,0.9-0.1,1.1-0.4
			s0.3-0.8,0.3-1.6V26.2z"/>
		<path class="st1" d="M41,35.1h-2.4V22h3.5c0.7,0,1.2,0,1.6,0.1c0.4,0.1,0.8,0.3,1,0.5c0.3,0.2,0.4,0.6,0.5,0.9s0.2,0.9,0.2,1.5
			v1.8c0,0.6-0.1,1.1-0.3,1.6s-0.5,0.7-0.9,1l1.3,5.6h-2.5L42,29.9h-1V35.1z M42.1,24.2H41v3.6h1.1c0.4,0,0.6-0.1,0.7-0.2
			c0.1-0.2,0.2-0.5,0.2-0.9v-1.2c0-0.5-0.1-0.8-0.2-1C42.7,24.3,42.4,24.2,42.1,24.2z"/>
		<path class="st1" d="M47,35.1V22h2.4v13H47z"/>
	</g>
	<g class="st0">
		<path class="st1" d="M57.3,24.4h-2v10.7h-2.4V24.4h-2V22h6.4V24.4z"/>
	</g>
	<g class="st0">
		<path class="st1" d="M62.6,35.1l-0.4-3.2h-2l-0.4,3.2h-2.3l1.9-13H63l1.9,13H62.6z M61.9,30l-0.8-5.7L60.4,30H61.9z"/>
		<path class="st1" d="M66.3,35.1V22h2.4v13H66.3z"/>
		<path class="st1" d="M72.7,35.1h-2.4V22h3.5c0.7,0,1.2,0,1.6,0.1c0.4,0.1,0.8,0.3,1,0.5c0.3,0.2,0.4,0.6,0.5,0.9s0.2,0.9,0.2,1.5
			v1.8c0,0.6-0.1,1.1-0.3,1.6s-0.5,0.7-0.9,1l1.3,5.6h-2.5l-1.1-5.2h-1V35.1z M73.8,24.2h-1.1v3.6h1.1c0.4,0,0.6-0.1,0.7-0.2
			c0.1-0.2,0.2-0.5,0.2-0.9v-1.2c0-0.5-0.1-0.8-0.2-1C74.4,24.3,74.1,24.2,73.8,24.2z"/>
		<path class="st1" d="M78.7,35.1V22h5.9v2.3h-3.5v3h3.3v2.2h-3.3v3.4h3.5v2.3H78.7z"/>
		<path class="st1" d="M88.2,35.1H86v-2h2.1V35.1z"/>
		<path class="st1" d="M91.7,35.1h-2.1v-2h2.1V35.1z"/>
	</g>
	<g class="st0">
		<path class="st1" d="M95.2,35.1h-2.1v-2h2.1V35.1z"/>
	</g>
	<g class="st0">
		<path class="st1" d="M99.2,75.1L98.7,72h-2l-0.4,3.2H94l1.9-13h3.7l1.9,13H99.2z M98.5,70l-0.8-5.7L97,70H98.5z"/>
	</g>
	<g class="st0">
		<path class="st1" d="M106.1,75.2c-0.7,0-1.3-0.1-1.7-0.2s-0.8-0.4-1.1-0.7c-0.3-0.3-0.5-0.8-0.6-1.3c-0.1-0.5-0.2-1.2-0.2-2v-8.9
			h2.4v8.6c0,0.9,0.1,1.5,0.3,1.8s0.5,0.5,1,0.5c0.4,0,0.8-0.2,1-0.5s0.3-0.9,0.3-1.8v-8.6h2.4V71c0,1.6-0.3,2.7-0.8,3.3
			C108.4,74.9,107.5,75.2,106.1,75.2z"/>
	</g>
	<g class="st0">
		<path class="st1" d="M89.9,91.7v1.4c0,1.1-0.3,1.9-0.9,2.4s-1.5,0.7-2.8,0.7c-1.3,0-2.3-0.3-2.8-0.8s-0.9-1.4-0.9-2.6v-1.4h2.4
			v1.2c0,0.5,0.1,0.9,0.3,1.2c0.2,0.2,0.6,0.3,1,0.3c0.5,0,0.8-0.1,1-0.2c0.2-0.2,0.3-0.5,0.3-0.9v-1.1c0-0.4-0.1-0.6-0.3-0.8
			c-0.2-0.1-0.7-0.3-1.5-0.5c-0.4-0.1-0.8-0.2-1.1-0.3c-0.3-0.1-0.6-0.2-0.8-0.3s-0.5-0.3-0.6-0.4c-0.2-0.1-0.3-0.3-0.4-0.5
			c-0.1-0.2-0.2-0.4-0.2-0.7s-0.1-0.6-0.1-0.9v-1.4c0-1.1,0.3-1.9,0.9-2.4s1.5-0.7,2.8-0.7c1.3,0,2.2,0.3,2.8,0.8
			c0.6,0.5,0.9,1.4,0.9,2.5v1.4h-2.4v-1.2c0-0.5-0.1-0.8-0.3-1.1c-0.2-0.2-0.6-0.3-1-0.3c-0.5,0-0.8,0.1-1,0.3
			c-0.2,0.2-0.3,0.5-0.3,0.9v1.1c0,0.2,0,0.4,0.1,0.6c0.1,0.1,0.3,0.2,0.5,0.3s0.7,0.2,1.3,0.3c0.6,0.1,1.1,0.3,1.5,0.4
			c0.4,0.2,0.7,0.3,1,0.6c0.3,0.2,0.4,0.5,0.5,0.9S89.9,91.2,89.9,91.7z"/>
		<path class="st1" d="M91.4,96.1v-13h5.9v2.3h-3.5v3h3.3v2.2h-3.3v3.4h3.5v2.3H91.4z M95,82.6h-1.5l0.3-1H96L95,82.6z"/>
		<path class="st1" d="M104.1,96.1l-3-7.3v7.3h-2.2v-13h2.1l3,7.3v-7.3h2.2v13H104.1z"/>
	</g>
	<g class="st0">
		<path class="st1" d="M112.7,96.1l-0.4-3.2h-2l-0.4,3.2h-2.3l1.9-13h3.7l1.9,13H112.7z M112.1,91l-0.8-5.7l-0.8,5.7H112.1z"/>
	</g>
	<g class="st0">
		<path class="st1" d="M121.5,85.4h-2v10.7h-2.4V85.4h-2v-2.4h6.4V85.4z"/>
	</g>
	<g class="st0">
		<path class="st1" d="M163.6,75.1l-0.4-3.2h-2l-0.4,3.2h-2.3l1.9-13h3.7l1.9,13H163.6z M161.4,61.7l-1-1h2.2l0.3,1H161.4z
			 M162.9,70l-0.8-5.7l-0.8,5.7H162.9z"/>
	</g>
	<g class="st0">
	</g>
	<g class="st0">
		<path class="st1" d="M171,75.1v-13h2.4v10.8h3.5v2.3H171z"/>
		<path class="st1" d="M183.4,75.1l-0.4-3.2h-2l-0.4,3.2h-2.3l1.9-13h3.7l1.9,13H183.4z M182.7,70l-0.8-5.7l-0.8,5.7H182.7z"/>
	</g>
	<g class="st0">
		<path class="st1" d="M190.7,71.2V66c0-1.4,0.3-2.4,0.9-3s1.6-1,2.9-1c1.3,0,2.3,0.3,2.9,0.9s0.9,1.6,0.9,2.9v1.9H196V66
			c0-0.6-0.1-1.1-0.4-1.4s-0.6-0.4-1.1-0.4c-0.5,0-0.9,0.1-1.1,0.4s-0.3,0.8-0.3,1.6V71c0,0.8,0.1,1.3,0.3,1.6s0.6,0.4,1.1,0.4
			c0.5,0,0.9-0.1,1.1-0.4s0.4-0.7,0.4-1.4v-1.9h2.4v2.1c0,1.4-0.3,2.3-0.9,2.9s-1.6,0.9-2.9,0.9c-1.4,0-2.4-0.3-3-0.9
			S190.7,72.7,190.7,71.2z"/>
		<path class="st1" d="M204.9,75.1v-5.6h-2.5v5.6H200v-13h2.4v5.1h2.5v-5.1h2.4v13H204.9z"/>
		<path class="st1" d="M213.9,75.1l-0.4-3.2h-2l-0.4,3.2h-2.3l1.9-13h3.7l1.9,13H213.9z M213.2,70l-0.8-5.7l-0.8,5.7H213.2z"/>
		<path class="st1" d="M222,75.1l-2.1-9.1v9.1h-2.3v-13h3.4l1.7,7.1l1.7-7.1h3.4v13h-2.3V66l-2.1,9.1H222z"/>
		<path class="st1" d="M229.4,75.1v-13h3.5c1.1,0,1.9,0.2,2.4,0.6s0.7,1,0.7,1.9v1.6c0,0.5-0.2,1-0.5,1.3c-0.3,0.3-0.8,0.5-1.5,0.6
			c0.8,0.1,1.5,0.3,1.8,0.7s0.6,0.9,0.6,1.6v2c0,1-0.3,1.7-0.8,2.1c-0.5,0.4-1.4,0.7-2.7,0.7H229.4z M232.8,64.1h-1v3.3h1
			c0.3,0,0.5-0.1,0.7-0.2c0.1-0.2,0.2-0.5,0.2-0.9v-1.1c0-0.4-0.1-0.7-0.2-0.9C233.3,64.2,233.1,64.1,232.8,64.1z M233,69.3h-1.2
			v3.9h1.2c0.4,0,0.7-0.1,0.9-0.3c0.2-0.2,0.3-0.5,0.3-1.1v-1.3c0-0.5-0.1-0.8-0.3-1C233.7,69.3,233.4,69.3,233,69.3z"/>
		<path class="st1" d="M240.4,75.1H238v-13h3.5c0.7,0,1.2,0,1.6,0.1c0.4,0.1,0.8,0.3,1,0.5c0.3,0.2,0.4,0.6,0.5,0.9s0.2,0.9,0.2,1.5
			V67c0,0.6-0.1,1.1-0.3,1.6s-0.5,0.7-0.9,1l1.3,5.6h-2.5l-1.1-5.2h-1V75.1z M241.5,64.3h-1.1v3.6h1.1c0.4,0,0.6-0.1,0.7-0.2
			c0.1-0.2,0.2-0.5,0.2-0.9v-1.2c0-0.5-0.1-0.8-0.2-1C242.1,64.4,241.8,64.3,241.5,64.3z"/>
		<path class="st1" d="M246.4,75.1v-13h5.9v2.3h-3.5v3h3.3v2.2h-3.3v3.4h3.5v2.3H246.4z"/>
	</g>
	<g class="st0">
		<path class="st1" d="M140.5,96.1v-13h3.6c1.4,0,2.4,0.3,3,0.9s0.9,1.7,0.9,3.1V92c0,1.5-0.3,2.5-0.9,3.1s-1.6,0.9-3,0.9H140.5z
			 M144,85.2h-1.2v8.7h1.2c0.5,0,0.9-0.2,1.1-0.5c0.2-0.3,0.3-0.9,0.3-1.7v-4.3c0-0.8-0.1-1.4-0.3-1.7
			C144.9,85.4,144.6,85.2,144,85.2z"/>
	</g>
	<g class="st0">
		<path class="st1" d="M149.5,96.1v-13h5.9v2.3h-3.5v3h3.3v2.2h-3.3v3.4h3.5v2.3H149.5z"/>
	</g>
	<g class="st0">
		<path class="st1" d="M164.1,91.7v1.4c0,1.1-0.3,1.9-0.9,2.4s-1.5,0.7-2.8,0.7c-1.3,0-2.3-0.3-2.8-0.8s-0.9-1.4-0.9-2.6v-1.4h2.4
			v1.2c0,0.5,0.1,0.9,0.3,1.2c0.2,0.2,0.6,0.3,1,0.3c0.5,0,0.8-0.1,1-0.2c0.2-0.2,0.3-0.5,0.3-0.9v-1.1c0-0.4-0.1-0.6-0.3-0.8
			c-0.2-0.1-0.7-0.3-1.5-0.5c-0.4-0.1-0.8-0.2-1.1-0.3c-0.3-0.1-0.6-0.2-0.8-0.3s-0.5-0.3-0.6-0.4c-0.2-0.1-0.3-0.3-0.4-0.5
			c-0.1-0.2-0.2-0.4-0.2-0.7s-0.1-0.6-0.1-0.9v-1.4c0-1.1,0.3-1.9,0.9-2.4s1.5-0.7,2.8-0.7c1.3,0,2.2,0.3,2.8,0.8
			c0.6,0.5,0.9,1.4,0.9,2.5v1.4h-2.4v-1.2c0-0.5-0.1-0.8-0.3-1.1c-0.2-0.2-0.6-0.3-1-0.3c-0.5,0-0.8,0.1-1,0.3
			c-0.2,0.2-0.3,0.5-0.3,0.9v1.1c0,0.2,0,0.4,0.1,0.6c0.1,0.1,0.3,0.2,0.5,0.3s0.7,0.2,1.3,0.3c0.6,0.1,1.1,0.3,1.5,0.4
			c0.4,0.2,0.7,0.3,1,0.6c0.3,0.2,0.4,0.5,0.5,0.9S164.1,91.2,164.1,91.7z"/>
		<path class="st1" d="M171.8,96.1h-2.4v-13h3.5c0.7,0,1.2,0,1.6,0.1c0.4,0.1,0.8,0.3,1,0.5c0.3,0.2,0.4,0.6,0.5,0.9
			s0.2,0.9,0.2,1.5v1.8c0,0.6-0.1,1.1-0.3,1.6s-0.5,0.7-0.9,1l1.3,5.6h-2.5l-1.1-5.2h-1V96.1z M172.9,85.2h-1.1v3.6h1.1
			c0.4,0,0.6-0.1,0.7-0.2c0.1-0.2,0.2-0.5,0.2-0.9v-1.2c0-0.5-0.1-0.8-0.2-1C173.5,85.3,173.2,85.2,172.9,85.2z"/>
		<path class="st1" d="M177.8,96.1v-13h5.9v2.3h-3.5v3h3.3v2.2h-3.3v3.4h3.5v2.3H177.8z"/>
		<path class="st1" d="M188.8,91.7h-1.2v4.4h-2.4v-13h3.6c1.3,0,2.2,0.2,2.7,0.7s0.8,1.3,0.8,2.5v2.3c0,1.1-0.3,1.9-0.8,2.4
			S190,91.7,188.8,91.7z M188.8,85.2h-1.2v4.4h1.2c0.4,0,0.7-0.1,0.9-0.3s0.3-0.6,0.3-1.1v-1.5c0-0.6-0.1-0.9-0.3-1.1
			S189.2,85.2,188.8,85.2z"/>
		<path class="st1" d="M196.1,96.1h-2.4v-13h3.5c0.7,0,1.2,0,1.6,0.1s0.8,0.3,1,0.5s0.4,0.6,0.5,0.9s0.2,0.9,0.2,1.5v1.8
			c0,0.6-0.1,1.1-0.3,1.6s-0.5,0.7-0.9,1l1.3,5.6h-2.5l-1.1-5.2h-1V96.1z M197.2,85.2h-1.1v3.6h1.1c0.4,0,0.6-0.1,0.7-0.2
			s0.2-0.5,0.2-0.9v-1.2c0-0.5-0.1-0.8-0.2-1S197.6,85.2,197.2,85.2z"/>
	</g>
	<g class="st0">
		<path class="st1" d="M202.2,96.1v-13h5.9v2.3h-3.5v3h3.3v2.2h-3.3v3.4h3.5v2.3H202.2z M205.8,82.6h-1.5l0.3-1h2.2L205.8,82.6z"/>
	</g>
	<g class="st0">
		<path class="st1" d="M216.8,91.7v1.4c0,1.1-0.3,1.9-0.9,2.4s-1.5,0.7-2.8,0.7c-1.3,0-2.3-0.3-2.8-0.8s-0.9-1.4-0.9-2.6v-1.4h2.4
			v1.2c0,0.5,0.1,0.9,0.3,1.2c0.2,0.2,0.6,0.3,1,0.3c0.5,0,0.8-0.1,1-0.2c0.2-0.2,0.3-0.5,0.3-0.9v-1.1c0-0.4-0.1-0.6-0.3-0.8
			c-0.2-0.1-0.7-0.3-1.5-0.5c-0.4-0.1-0.8-0.2-1.1-0.3c-0.3-0.1-0.6-0.2-0.8-0.3s-0.5-0.3-0.6-0.4c-0.2-0.1-0.3-0.3-0.4-0.5
			c-0.1-0.2-0.2-0.4-0.2-0.7s-0.1-0.6-0.1-0.9v-1.4c0-1.1,0.3-1.9,0.9-2.4s1.5-0.7,2.8-0.7c1.3,0,2.2,0.3,2.8,0.8
			c0.6,0.5,0.9,1.4,0.9,2.5v1.4h-2.4v-1.2c0-0.5-0.1-0.8-0.3-1.1c-0.2-0.2-0.6-0.3-1-0.3c-0.5,0-0.8,0.1-1,0.3
			c-0.2,0.2-0.3,0.5-0.3,0.9v1.1c0,0.2,0,0.4,0.1,0.6c0.1,0.1,0.3,0.2,0.5,0.3s0.7,0.2,1.3,0.3c0.6,0.1,1.1,0.3,1.5,0.4
			c0.4,0.2,0.7,0.3,1,0.6c0.3,0.2,0.4,0.5,0.5,0.9S216.8,91.2,216.8,91.7z"/>
		<path class="st1" d="M218.4,96.1v-13h5.9v2.3h-3.5v3h3.3v2.2h-3.3v3.4h3.5v2.3H218.4z"/>
		<path class="st1" d="M231,96.1l-3-7.3v7.3h-2.2v-13h2.1l3,7.3v-7.3h2.2v13H231z"/>
	</g>
	<g class="st0">
		<path class="st1" d="M241.1,85.4h-2v10.7h-2.4V85.4h-2v-2.4h6.4V85.4z"/>
	</g>
	<g class="st0">
		<path class="st1" d="M246.3,96.1l-0.4-3.2h-2l-0.4,3.2h-2.3l1.9-13h3.7l1.9,13H246.3z M245.7,91l-0.8-5.7l-0.8,5.7H245.7z"/>
		<path class="st1" d="M255.3,96.1l-3-7.3v7.3h-2.2v-13h2.1l3,7.3v-7.3h2.2v13H255.3z"/>
	</g>
	<g class="st0">
		<path class="st1" d="M265.4,85.4h-2v10.7h-2.4V85.4h-2v-2.4h6.4V85.4z"/>
	</g>
	<g class="st0">
		<path class="st1" d="M274.1,91.7v1.4c0,1.1-0.3,1.9-0.9,2.4s-1.5,0.7-2.8,0.7c-1.3,0-2.3-0.3-2.8-0.8s-0.9-1.4-0.9-2.6v-1.4h2.4
			v1.2c0,0.5,0.1,0.9,0.3,1.2s0.6,0.3,1,0.3c0.5,0,0.8-0.1,1-0.2s0.3-0.5,0.3-0.9v-1.1c0-0.4-0.1-0.6-0.3-0.8s-0.7-0.3-1.5-0.5
			c-0.4-0.1-0.8-0.2-1.1-0.3s-0.6-0.2-0.8-0.3s-0.5-0.3-0.6-0.4s-0.3-0.3-0.4-0.5s-0.2-0.4-0.2-0.7s-0.1-0.6-0.1-0.9v-1.4
			c0-1.1,0.3-1.9,0.9-2.4s1.5-0.7,2.8-0.7c1.3,0,2.2,0.3,2.8,0.8s0.9,1.4,0.9,2.5v1.4h-2.4v-1.2c0-0.5-0.1-0.8-0.3-1.1
			s-0.6-0.3-1-0.3s-0.8,0.1-1,0.3s-0.3,0.5-0.3,0.9v1.1c0,0.2,0,0.4,0.1,0.6s0.3,0.2,0.5,0.3s0.7,0.2,1.3,0.3
			c0.6,0.1,1.1,0.3,1.5,0.4s0.7,0.3,1,0.6s0.4,0.5,0.5,0.9S274.1,91.2,274.1,91.7z"/>
	</g>
	<g class="st0">
		<path class="st1" d="M311.3,70.7h-1.2v4.4h-2.4v-13h3.6c1.3,0,2.2,0.2,2.7,0.7c0.5,0.5,0.8,1.3,0.8,2.5v2.3c0,1.1-0.3,1.9-0.8,2.4
			C313.5,70.5,312.6,70.7,311.3,70.7z M311.3,64.3h-1.2v4.4h1.2c0.4,0,0.7-0.1,0.9-0.3c0.2-0.2,0.3-0.6,0.3-1.1v-1.5
			c0-0.6-0.1-0.9-0.3-1.1C312,64.4,311.7,64.3,311.3,64.3z"/>
	</g>
	<g class="st0">
		<path class="st1" d="M320.5,75.1l-0.4-3.2h-2l-0.4,3.2h-2.3l1.9-13h3.7l1.9,13H320.5z M319.8,70l-0.8-5.7l-0.8,5.7H319.8z"/>
	</g>
	<g class="st0">
		<path class="st1" d="M326.6,75.1h-2.4v-13h3.5c0.7,0,1.2,0,1.6,0.1c0.4,0.1,0.8,0.3,1,0.5c0.3,0.2,0.4,0.6,0.5,0.9
			s0.2,0.9,0.2,1.5V67c0,0.6-0.1,1.1-0.3,1.6s-0.5,0.7-0.9,1l1.3,5.6h-2.5l-1.1-5.2h-1V75.1z M327.7,64.3h-1.1v3.6h1.1
			c0.4,0,0.6-0.1,0.7-0.2c0.1-0.2,0.2-0.5,0.2-0.9v-1.2c0-0.5-0.1-0.8-0.2-1C328.3,64.4,328.1,64.3,327.7,64.3z"/>
	</g>
	<g class="st0">
		<path class="st1" d="M338.8,64.5h-2v10.7h-2.4V64.5h-2v-2.4h6.4V64.5z"/>
		<path class="st1" d="M340.3,75.1v-13h2.4v13H340.3z"/>
		<path class="st1" d="M348,75.1v-13h3.6c1.4,0,2.4,0.3,3,0.9s0.9,1.7,0.9,3.1v4.9c0,1.5-0.3,2.5-0.9,3.1s-1.6,0.9-3,0.9H348z
			 M351.6,64.3h-1.2V73h1.2c0.5,0,0.9-0.2,1.1-0.5c0.2-0.3,0.3-0.9,0.3-1.7v-4.3c0-0.8-0.1-1.4-0.3-1.7
			C352.5,64.5,352.1,64.3,351.6,64.3z"/>
		<path class="st1" d="M360.6,75.2c-0.7,0-1.3-0.1-1.7-0.2s-0.8-0.4-1.1-0.7c-0.3-0.3-0.5-0.8-0.6-1.3c-0.1-0.5-0.2-1.2-0.2-2v-8.9
			h2.4v8.6c0,0.9,0.1,1.5,0.3,1.8s0.5,0.5,1,0.5c0.4,0,0.8-0.2,1-0.5s0.3-0.9,0.3-1.8v-8.6h2.4V71c0,1.6-0.3,2.7-0.8,3.3
			C363,74.9,362,75.2,360.6,75.2z"/>
	</g>
	<g class="st0">
		<path class="st1" d="M305.2,91.7H304v4.4h-2.4v-13h3.6c1.3,0,2.2,0.2,2.7,0.7c0.5,0.5,0.8,1.3,0.8,2.5v2.3c0,1.1-0.3,1.9-0.8,2.4
			C307.4,91.4,306.5,91.7,305.2,91.7z M305.2,85.2H304v4.4h1.2c0.4,0,0.7-0.1,0.9-0.3c0.2-0.2,0.3-0.6,0.3-1.1v-1.5
			c0-0.6-0.1-0.9-0.3-1.1C305.9,85.3,305.6,85.2,305.2,85.2z"/>
		<path class="st1" d="M312.6,96.1h-2.4v-13h3.5c0.7,0,1.2,0,1.6,0.1c0.4,0.1,0.8,0.3,1,0.5c0.3,0.2,0.4,0.6,0.5,0.9
			s0.2,0.9,0.2,1.5v1.8c0,0.6-0.1,1.1-0.3,1.6s-0.5,0.7-0.9,1l1.3,5.6h-2.5l-1.1-5.2h-1V96.1z M313.7,85.2h-1.1v3.6h1.1
			c0.4,0,0.6-0.1,0.7-0.2c0.1-0.2,0.2-0.5,0.2-0.9v-1.2c0-0.5-0.1-0.8-0.2-1C314.3,85.3,314,85.2,313.7,85.2z"/>
	</g>
	<g class="st0">
		<path class="st1" d="M318.6,96.1v-13h5.9v2.3H321v3h3.3v2.2H321v3.4h3.5v2.3H318.6z M322.2,82.6h-1.5l0.3-1h2.2L322.2,82.6z"/>
	</g>
	<g class="st0">
		<path class="st1" d="M333.3,91.7v1.4c0,1.1-0.3,1.9-0.9,2.4s-1.5,0.7-2.8,0.7c-1.3,0-2.3-0.3-2.8-0.8s-0.9-1.4-0.9-2.6v-1.4h2.4
			v1.2c0,0.5,0.1,0.9,0.3,1.2s0.6,0.3,1,0.3c0.5,0,0.8-0.1,1-0.2s0.3-0.5,0.3-0.9v-1.1c0-0.4-0.1-0.6-0.3-0.8s-0.7-0.3-1.5-0.5
			c-0.4-0.1-0.8-0.2-1.1-0.3s-0.6-0.2-0.8-0.3s-0.5-0.3-0.6-0.4s-0.3-0.3-0.4-0.5s-0.2-0.4-0.2-0.7s-0.1-0.6-0.1-0.9v-1.4
			c0-1.1,0.3-1.9,0.9-2.4s1.5-0.7,2.8-0.7c1.3,0,2.2,0.3,2.8,0.8s0.9,1.4,0.9,2.5v1.4h-2.4v-1.2c0-0.5-0.1-0.8-0.3-1.1
			s-0.6-0.3-1-0.3s-0.8,0.1-1,0.3s-0.3,0.5-0.3,0.9v1.1c0,0.2,0,0.4,0.1,0.6s0.3,0.2,0.5,0.3s0.7,0.2,1.3,0.3
			c0.6,0.1,1.1,0.3,1.5,0.4s0.7,0.3,1,0.6s0.4,0.5,0.5,0.9S333.3,91.2,333.3,91.7z"/>
		<path class="st1" d="M334.8,96.1v-13h2.4v13H334.8z"/>
		<path class="st1" d="M338.8,96.1v-13h3.6c1.4,0,2.4,0.3,3,0.9s0.9,1.7,0.9,3.1V92c0,1.5-0.3,2.5-0.9,3.1s-1.6,0.9-3,0.9H338.8z
			 M342.3,85.2h-1.2v8.7h1.2c0.5,0,0.9-0.2,1.1-0.5s0.3-0.9,0.3-1.7v-4.3c0-0.8-0.1-1.4-0.3-1.7S342.9,85.2,342.3,85.2z"/>
		<path class="st1" d="M347.8,96.1v-13h5.9v2.3h-3.5v3h3.3v2.2h-3.3v3.4h3.5v2.3H347.8z"/>
		<path class="st1" d="M360.4,96.1l-3-7.3v7.3h-2.2v-13h2.1l3,7.3v-7.3h2.2v13H360.4z"/>
		<path class="st1" d="M370.5,85.4h-2v10.7h-2.4V85.4h-2v-2.4h6.4V85.4z"/>
	</g>
	<rect x="80" y="215.8" class="st2" width="271.8" height="31.5"/>
	<rect x="80" y="373.1" class="st3" width="271.8" height="62.9"/>
	<rect x="80" y="466.9" class="st2" width="271.8" height="32.1"/>
	<rect x="80" y="593.4" class="st3" width="271.8" height="32.1"/>
	<rect x="87.6" y="593.8" class="st4" width="28.6" height="31.5"/>
	<rect x="87.7" y="121.7" class="st5" width="28.6" height="31.5"/>
	<rect x="87.6" y="153.1" class="st5" width="28.6" height="31.5"/>
	<rect x="87.6" y="184.6" class="st5" width="28.6" height="31.5"/>
	<rect x="87.6" y="216.1" class="st5" width="28.6" height="31.5"/>
	<rect x="87.6" y="247.6" class="st4" width="28.6" height="31.5"/>
	<rect x="87.6" y="279" class="st4" width="28.6" height="31.5"/>
	<rect x="87.6" y="310.5" class="st4" width="28.6" height="31.5"/>
	<rect x="87.6" y="342" class="st5" width="28.6" height="31.5"/>
	<rect x="87.6" y="373.5" class="st4" width="28.6" height="31.5"/>
	<rect x="87.6" y="404.9" class="st4" width="28.6" height="31.5"/>
	<rect x="87.6" y="436.4" class="st5" width="28.6" height="31.5"/>
	<rect x="87.6" y="467.9" class="st5" width="28.6" height="31.5"/>
	<rect x="87.6" y="499.3" class="st5" width="28.6" height="31.5"/>
	<rect x="87.6" y="530.8" class="st5" width="28.6" height="31.5"/>
	<rect x="87.6" y="562.3" class="st4" width="28.6" height="31.5"/>
	<line class="st6" x1="68" y1="121.7" x2="77.3" y2="121.7"/>
	<line class="st6" x1="68" y1="153.1" x2="77.3" y2="153.1"/>
	<line class="st6" x1="68" y1="184.6" x2="77.3" y2="184.6"/>
	<line class="st6" x1="68" y1="216.1" x2="77.3" y2="216.1"/>
	<line class="st7" x1="47.2" y1="247.6" x2="77.3" y2="247.6"/>
	<line class="st6" x1="68" y1="279" x2="77.3" y2="279"/>
	<line class="st6" x1="68" y1="310.5" x2="77.3" y2="310.5"/>
	<line class="st6" x1="68" y1="342" x2="77.3" y2="342"/>
	<line class="st6" x1="68" y1="373.5" x2="77.3" y2="373.5"/>
	<line class="st7" x1="47.2" y1="404.9" x2="77.3" y2="404.9"/>
	<line class="st6" x1="68" y1="436.4" x2="77.3" y2="436.4"/>
	<line class="st6" x1="68" y1="467.9" x2="77.3" y2="467.9"/>
	<line class="st6" x1="68" y1="499.3" x2="77.3" y2="499.3"/>
	<line class="st6" x1="68" y1="530.8" x2="77.3" y2="530.8"/>
	<line class="st7" x1="47.2" y1="562.3" x2="77.3" y2="562.3"/>
	<line class="st6" x1="68" y1="593.8" x2="77.3" y2="593.8"/>
	<line class="st6" x1="68" y1="625.2" x2="77.3" y2="625.2"/>
	<ellipse class="st8" cx="335.2" cy="609.5" rx="6.9" ry="6.7"/>
	<ellipse class="st9" cx="335.2" cy="609.5" rx="6.9" ry="6.7"/>
	<ellipse class="st8" cx="335.2" cy="137.4" rx="6.9" ry="6.7"/>
	<ellipse class="st9" cx="335.2" cy="137.4" rx="6.9" ry="6.7"/>
	<ellipse class="st8" cx="335.2" cy="168.9" rx="6.9" ry="6.7"/>
	<ellipse class="st9" cx="335.2" cy="168.9" rx="6.9" ry="6.7"/>
	<ellipse class="st8" cx="335.2" cy="200.4" rx="6.9" ry="6.7"/>
	<ellipse class="st9" cx="335.2" cy="200.4" rx="6.9" ry="6.7"/>
	<ellipse class="st10" cx="335.2" cy="231.8" rx="6.9" ry="6.7"/>
	<ellipse class="st9" cx="335.2" cy="231.8" rx="6.9" ry="6.7"/>
	<ellipse class="st10" cx="335.2" cy="263.3" rx="6.9" ry="6.7"/>
	<ellipse class="st9" cx="335.2" cy="263.3" rx="6.9" ry="6.7"/>
	<ellipse class="st10" cx="335.2" cy="294.8" rx="6.9" ry="6.7"/>
	<ellipse class="st9" cx="335.2" cy="294.8" rx="6.9" ry="6.7"/>
	<ellipse class="st10" cx="335.2" cy="326.2" rx="6.9" ry="6.7"/>
	<ellipse class="st9" cx="335.2" cy="326.2" rx="6.9" ry="6.7"/>
	<ellipse class="st8" cx="335.2" cy="357.7" rx="6.9" ry="6.7"/>
	<ellipse class="st9" cx="335.2" cy="357.7" rx="6.9" ry="6.7"/>
	<ellipse class="st8" cx="335.2" cy="389.2" rx="6.9" ry="6.7"/>
	<ellipse class="st9" cx="335.2" cy="389.2" rx="6.9" ry="6.7"/>
	<ellipse class="st8" cx="335.2" cy="420.7" rx="6.9" ry="6.7"/>
	<ellipse class="st9" cx="335.2" cy="420.7" rx="6.9" ry="6.7"/>
	<ellipse class="st8" cx="335.2" cy="452.1" rx="6.9" ry="6.7"/>
	<ellipse class="st9" cx="335.2" cy="452.1" rx="6.9" ry="6.7"/>
	<ellipse class="st10" cx="335.2" cy="483.6" rx="6.9" ry="6.7"/>
	<ellipse class="st9" cx="335.2" cy="483.6" rx="6.9" ry="6.7"/>
	<ellipse class="st10" cx="335.2" cy="515.1" rx="6.9" ry="6.7"/>
	<ellipse class="st9" cx="335.2" cy="515.1" rx="6.9" ry="6.7"/>
	<ellipse class="st10" cx="335.2" cy="546.5" rx="6.9" ry="6.7"/>
	<ellipse class="st9" cx="335.2" cy="546.5" rx="6.9" ry="6.7"/>
	<ellipse class="st10" cx="335.2" cy="578" rx="6.9" ry="6.7"/>
	<ellipse class="st9" cx="335.2" cy="578" rx="6.9" ry="6.7"/>
	<rect x="182.5" y="593.8" class="st4" width="28.6" height="31.5"/>
	<rect x="87.6" y="625.1" class="st4" width="28.6" height="15.7"/>
	<ellipse class="st8" cx="336" cy="640.9" rx="6.1" ry="6.7"/>
	<rect x="182.5" y="625.2" class="st5" width="28.6" height="15.7"/>
	<rect x="182.5" y="121.7" class="st5" width="28.6" height="31.5"/>
	<rect x="182.5" y="153.2" class="st5" width="28.6" height="31.5"/>
	<rect x="182.5" y="184.6" class="st5" width="28.6" height="31.5"/>
	<rect x="182.5" y="216.1" class="st5" width="28.6" height="31.5"/>
	<rect x="182.5" y="247.6" class="st4" width="28.6" height="31.5"/>
	<rect x="182.5" y="279" class="st4" width="28.6" height="31.5"/>
	<rect x="182.5" y="310.5" class="st4" width="28.6" height="31.5"/>
	<rect x="182.5" y="342" class="st4" width="28.6" height="31.5"/>
	<rect x="182.5" y="373.5" class="st4" width="28.6" height="31.5"/>
	<rect x="182.5" y="404.9" class="st4" width="28.6" height="31.5"/>
	<rect x="182.5" y="436.4" class="st5" width="28.6" height="31.5"/>
	<rect x="182.5" y="467.9" class="st5" width="28.6" height="31.5"/>
	<rect x="182.5" y="499.3" class="st4" width="28.6" height="31.5"/>
	<rect x="182.5" y="530.8" class="st4" width="28.6" height="31.5"/>
	<rect x="182.5" y="562.3" class="st4" width="28.6" height="31.5"/>
	<line class="st11" x1="312.8" y1="657" x2="312.8" y2="593.4"/>
	<line class="st12" x1="312.8" y1="656.5" x2="312.8" y2="594"/>
	<rect x="309.2" y="655.9" class="st13" width="7.3" height="1.1"/>
	<rect x="309.2" y="593.4" class="st13" width="7.3" height="1.1"/>
	<line class="st11" x1="312.8" y1="207.2" x2="312.8" y2="130.4"/>
	<line class="st12" x1="312.8" y1="206.6" x2="312.8" y2="131"/>
	<rect x="309.2" y="206.1" class="st13" width="7.3" height="1.1"/>
	<rect x="309.2" y="130.4" class="st13" width="7.3" height="1.1"/>
	<line class="st11" x1="312.8" y1="585.1" x2="312.8" y2="467.2"/>
	<line class="st12" x1="312.8" y1="584.6" x2="312.8" y2="467.8"/>
	<rect x="309.2" y="584" class="st13" width="7.3" height="1.1"/>
	<rect x="309.2" y="467.2" class="st13" width="7.3" height="1.1"/>
	<line class="st11" x1="312.8" y1="333" x2="312.8" y2="214.6"/>
	<line class="st12" x1="312.8" y1="332.5" x2="312.8" y2="215.1"/>
	<rect x="309.2" y="331.9" class="st13" width="7.3" height="1.1"/>
	<rect x="309.2" y="214.6" class="st13" width="7.3" height="1.1"/>
	<line class="st11" x1="312.8" y1="458.8" x2="312.8" y2="342"/>
	<line class="st12" x1="312.8" y1="458.2" x2="312.8" y2="342.5"/>
	<rect x="309.2" y="457.7" class="st13" width="7.3" height="1.1"/>
	<rect x="309.2" y="342" class="st13" width="7.3" height="1.1"/>
	<g class="st0">
		<path class="st1" d="M37.9,124.1c0-1.3,0.8-2.1,1.8-2.5c-0.9-0.4-1.5-1.1-1.5-2c0-1.6,1.5-2.5,3-2.5c1.5,0,3,1,3,2.5
			c0,1-0.6,1.6-1.5,2c1.1,0.4,1.8,1.2,1.8,2.5c0,1.9-1.7,2.9-3.3,2.9C39.7,127,37.9,126,37.9,124.1z M43.4,124
			c0-1.3-0.9-1.9-2.1-1.9s-2.2,0.7-2.2,1.9c0,1.3,1,1.9,2.1,1.9C42.4,126,43.4,125.3,43.4,124z M43,119.6c0-0.9-0.8-1.6-1.8-1.6
			s-1.8,0.6-1.8,1.6c0,1,0.8,1.6,1.8,1.6C42.3,121.2,43,120.6,43,119.6z"/>
	</g>
	<g class="st0">
		<path class="st1" d="M46.5,119.6h-1.1v-2.4h6.6v0.4l-3.5,9.2h-1.2l3.4-8.7h-4.1V119.6z"/>
	</g>
	<g class="st0">
		<path class="st1" d="M37.4,155.6c0-1.3,0.8-2.1,1.8-2.5c-0.9-0.4-1.5-1.1-1.5-2c0-1.6,1.5-2.5,3-2.5c1.5,0,3,1,3,2.5
			c0,1-0.6,1.6-1.5,2c1.1,0.4,1.8,1.2,1.8,2.5c0,1.9-1.7,2.9-3.3,2.9C39.2,158.4,37.4,157.5,37.4,155.6z M42.9,155.5
			c0-1.3-0.9-1.9-2.1-1.9s-2.2,0.7-2.2,1.9c0,1.3,1,1.9,2.1,1.9C41.9,157.5,42.9,156.8,42.9,155.5z M42.5,151c0-0.9-0.8-1.6-1.8-1.6
			s-1.8,0.6-1.8,1.6c0,1,0.8,1.6,1.8,1.6C41.8,152.7,42.5,152.1,42.5,151z"/>
	</g>
	<g class="st0">
		<path class="st1" d="M45.3,155.9h1.1c0.2,0.9,0.8,1.5,2,1.5c1.5,0,2.4-1.3,2.5-3.8c-0.5,0.8-1.4,1.3-2.5,1.3
			c-1.9,0-3.2-1.3-3.2-3.2c0-1.9,1.3-3.2,3.3-3.2c2.3,0,3.5,1.5,3.5,4.3v0.6c0,3.2-1.3,5-3.6,5C46.6,158.4,45.6,157.5,45.3,155.9z
			 M50.8,151.9c0-1.6-0.9-2.5-2.2-2.5c-1.3,0-2.1,0.9-2.1,2.3c0,1.4,0.8,2.3,2.1,2.3C49.9,154,50.8,153.2,50.8,151.9z"/>
	</g>
	<g class="st0">
		<path class="st1" d="M38.4,187.1c0-1.3,0.8-2.1,1.8-2.5c-0.9-0.4-1.5-1.1-1.5-2c0-1.6,1.5-2.5,3-2.5c1.5,0,3,1,3,2.5
			c0,1-0.6,1.6-1.5,2c1.1,0.4,1.8,1.2,1.8,2.5c0,1.9-1.7,2.9-3.3,2.9C40.1,189.9,38.4,189,38.4,187.1z M43.8,187
			c0-1.3-0.9-1.9-2.1-1.9s-2.2,0.7-2.2,1.9c0,1.3,1,1.9,2.1,1.9C42.9,189,43.8,188.3,43.8,187z M43.5,182.5c0-0.9-0.8-1.6-1.8-1.6
			s-1.8,0.6-1.8,1.6c0,1,0.8,1.6,1.8,1.6C42.8,184.1,43.5,183.5,43.5,182.5z"/>
	</g>
	<g class="st0">
		<path class="st1" d="M46.3,189.8v-0.9h1.9v-7.6l-2.2,1.6v-1.1l2.2-1.6h1.1v8.7h1.9v0.9H46.3z"/>
	</g>
	<g class="st0">
		<path class="st1" d="M37.5,218.5c0-1.3,0.8-2.1,1.8-2.5c-0.9-0.4-1.5-1.1-1.5-2c0-1.6,1.5-2.5,3-2.5c1.5,0,3,1,3,2.5
			c0,1-0.6,1.6-1.5,2c1.1,0.4,1.8,1.2,1.8,2.5c0,1.9-1.7,2.9-3.3,2.9C39.2,221.4,37.5,220.4,37.5,218.5z M42.9,218.5
			c0-1.3-0.9-1.9-2.1-1.9s-2.2,0.7-2.2,1.9c0,1.3,1,1.9,2.1,1.9C42,220.4,42.9,219.7,42.9,218.5z M42.6,214c0-0.9-0.8-1.6-1.8-1.6
			S39,213,39,214c0,1,0.8,1.6,1.8,1.6C41.9,215.6,42.6,215,42.6,214z"/>
	</g>
	<g class="st0">
		<path class="st1" d="M45.2,218.4h1.1c0.1,1.1,0.8,2,2.3,2c1.5,0,2.2-0.7,2.2-1.9c0-1.2-0.7-1.9-2-1.9H48v-1h0.7
			c1.3,0,1.8-0.6,1.8-1.6c0-0.9-0.6-1.6-1.8-1.6c-1.2,0-2,0.7-2.1,1.8h-1c0.1-1.5,1.3-2.8,3.2-2.8s2.9,1.2,2.9,2.5
			c0,1.1-0.6,1.7-1.5,2.1c1.1,0.3,1.9,1.1,1.9,2.4c0,1.8-1.4,2.8-3.4,2.8C46.5,221.4,45.3,220.1,45.2,218.4z"/>
	</g>
	<g class="st0">
		<path class="st1" d="M37.8,283.4H39c0.2,0.9,0.8,1.5,2,1.5c1.5,0,2.4-1.3,2.5-3.8c-0.5,0.8-1.4,1.3-2.5,1.3
			c-1.9,0-3.2-1.3-3.2-3.2c0-1.9,1.3-3.2,3.3-3.2c2.3,0,3.5,1.5,3.5,4.3v0.6c0,3.2-1.3,5-3.6,5C39.2,285.8,38.1,284.9,37.8,283.4z
			 M43.3,279.3c0-1.6-0.9-2.5-2.2-2.5c-1.3,0-2.1,0.9-2.1,2.3c0,1.4,0.8,2.3,2.1,2.3C42.4,281.4,43.3,280.6,43.3,279.3z"/>
	</g>
	<g class="st0">
		<path class="st1" d="M46.6,278.5h-1.1v-2.4h6.6v0.4l-3.5,9.2h-1.2l3.4-8.7h-4.1V278.5z"/>
	</g>
	<g class="st0">
		<path class="st1" d="M37.4,314.8h1.1c0.2,0.9,0.8,1.5,2,1.5c1.5,0,2.4-1.3,2.5-3.8c-0.5,0.8-1.4,1.3-2.5,1.3
			c-1.9,0-3.2-1.3-3.2-3.2c0-1.9,1.3-3.2,3.3-3.2c2.3,0,3.5,1.5,3.5,4.3v0.6c0,3.2-1.3,5-3.6,5C38.7,317.3,37.6,316.4,37.4,314.8z
			 M42.9,310.8c0-1.6-0.9-2.5-2.2-2.5c-1.3,0-2.1,0.9-2.1,2.3c0,1.4,0.8,2.3,2.1,2.3C42,312.9,42.9,312.1,42.9,310.8z"/>
	</g>
	<g class="st0">
		<path class="st1" d="M45.4,314.8h1.1c0.2,0.9,0.8,1.5,2,1.5c1.5,0,2.4-1.3,2.5-3.8c-0.5,0.8-1.4,1.3-2.5,1.3
			c-1.9,0-3.2-1.3-3.2-3.2c0-1.9,1.3-3.2,3.3-3.2c2.3,0,3.5,1.5,3.5,4.3v0.6c0,3.2-1.3,5-3.6,5C46.7,317.3,45.7,316.4,45.4,314.8z
			 M50.9,310.8c0-1.6-0.9-2.5-2.2-2.5c-1.3,0-2.1,0.9-2.1,2.3c0,1.4,0.8,2.3,2.1,2.3C50,312.9,50.9,312.1,50.9,310.8z"/>
	</g>
	<g class="st0">
		<path class="st1" d="M38.3,346.3h1.1c0.2,0.9,0.8,1.5,2,1.5c1.5,0,2.4-1.3,2.5-3.8c-0.5,0.8-1.4,1.3-2.5,1.3
			c-1.9,0-3.2-1.3-3.2-3.2c0-1.9,1.3-3.2,3.3-3.2c2.3,0,3.5,1.5,3.5,4.3v0.6c0,3.2-1.3,5-3.6,5C39.6,348.8,38.6,347.9,38.3,346.3z
			 M43.8,342.3c0-1.6-0.9-2.5-2.2-2.5c-1.3,0-2.1,0.9-2.1,2.3c0,1.4,0.8,2.3,2.1,2.3C42.9,344.4,43.8,343.5,43.8,342.3z"/>
		<path class="st1" d="M46.4,348.7v-0.9h1.9v-7.6l-2.2,1.6v-1.1l2.2-1.6h1.1v8.7h1.9v0.9H46.4z"/>
	</g>
	<g class="st0">
		<path class="st1" d="M37.5,377.8h1.1c0.2,0.9,0.8,1.5,2,1.5c1.5,0,2.4-1.3,2.5-3.8c-0.5,0.8-1.4,1.3-2.5,1.3
			c-1.9,0-3.2-1.3-3.2-3.2c0-1.9,1.3-3.2,3.3-3.2c2.3,0,3.5,1.5,3.5,4.3v0.6c0,3.2-1.3,5-3.6,5C38.8,380.3,37.7,379.3,37.5,377.8z
			 M43,373.7c0-1.6-0.9-2.5-2.2-2.5c-1.3,0-2.1,0.9-2.1,2.3c0,1.4,0.8,2.3,2.1,2.3C42.1,375.8,43,375,43,373.7z"/>
	</g>
	<g class="st0">
		<path class="st1" d="M45.2,377.3h1.1c0.1,1.1,0.8,2,2.3,2c1.5,0,2.2-0.7,2.2-1.9c0-1.2-0.7-1.9-2-1.9h-0.7v-1h0.7
			c1.3,0,1.8-0.6,1.8-1.6c0-0.9-0.6-1.6-1.8-1.6c-1.2,0-2,0.7-2.1,1.8h-1c0.1-1.5,1.3-2.8,3.2-2.8s2.9,1.2,2.9,2.5
			c0,1.1-0.6,1.7-1.5,2.1c1.1,0.3,1.9,1.1,1.9,2.4c0,1.8-1.4,2.8-3.4,2.8C46.6,380.3,45.3,379,45.2,377.3z"/>
	</g>
	<g class="st0">
		<path class="st1" d="M37.4,438.6V438c0-2.8,1.4-4.7,3.8-4.7c2.4,0,3.8,1.9,3.8,4.7v0.5c0,2.8-1.4,4.7-3.7,4.7
			C38.9,443.2,37.4,441.4,37.4,438.6z M43.8,438.5V438c0-2.2-0.9-3.7-2.6-3.7c-1.6,0-2.6,1.3-2.6,3.7v0.5c0,2.4,1,3.7,2.6,3.7
			C42.9,442.2,43.8,441,43.8,438.5z"/>
	</g>
	<g class="st0">
		<path class="st1" d="M47,435.9h-1.1v-2.4h6.6v0.4l-3.5,9.2h-1.2l3.4-8.7H47V435.9z"/>
	</g>
	<g class="st0">
		<path class="st1" d="M37,470v-0.5c0-2.8,1.4-4.7,3.8-4.7c2.4,0,3.8,1.9,3.8,4.7v0.5c0,2.8-1.4,4.7-3.7,4.7
			C38.5,474.7,37,472.8,37,470z M43.4,470v-0.5c0-2.2-0.9-3.7-2.6-3.7c-1.6,0-2.6,1.3-2.6,3.7v0.5c0,2.4,1,3.7,2.6,3.7
			C42.5,473.7,43.4,472.4,43.4,470z"/>
	</g>
	<g class="st0">
		<path class="st1" d="M45.8,472.2h1.1c0.2,0.9,0.8,1.5,2,1.5c1.5,0,2.4-1.3,2.5-3.8c-0.5,0.8-1.4,1.3-2.5,1.3
			c-1.9,0-3.2-1.3-3.2-3.2c0-1.9,1.3-3.2,3.3-3.2c2.3,0,3.5,1.5,3.5,4.3v0.6c0,3.2-1.3,5-3.6,5C47.1,474.7,46,473.7,45.8,472.2z
			 M51.3,468.2c0-1.6-0.9-2.5-2.2-2.5c-1.3,0-2.1,0.9-2.1,2.3c0,1.4,0.8,2.3,2.1,2.3C50.4,470.3,51.3,469.4,51.3,468.2z"/>
	</g>
	<g class="st0">
		<path class="st1" d="M39,600.5v-0.9h1.9V592l-2.2,1.6v-1.1l2.2-1.6h1.1v8.7H44v0.9H39z"/>
	</g>
	<g class="st0">
		<path class="st1" d="M45.5,593.3h-1.1v-2.4H51v0.4l-3.5,9.2h-1.2l3.4-8.7h-4.1V593.3z"/>
	</g>
	<g class="st0">
		<path class="st1" d="M38.5,631.9V631h1.9v-7.6l-2.2,1.6v-1.1l2.2-1.6h1.1v8.7h1.9v0.9H38.5z"/>
	</g>
	<g class="st0">
		<path class="st1" d="M44.3,629.6h1.1c0.2,0.9,0.8,1.5,2,1.5c1.5,0,2.4-1.3,2.5-3.8c-0.5,0.8-1.4,1.3-2.5,1.3
			c-1.9,0-3.2-1.3-3.2-3.2c0-1.9,1.3-3.2,3.3-3.2c2.3,0,3.5,1.5,3.5,4.3v0.6c0,3.2-1.3,5-3.6,5C45.6,632,44.6,631.1,44.3,629.6z
			 M49.8,625.5c0-1.6-0.9-2.5-2.2-2.5c-1.3,0-2.1,0.9-2.1,2.3c0,1.4,0.8,2.3,2.1,2.3C48.9,627.6,49.8,626.8,49.8,625.5z"/>
	</g>
	<g class="st0">
		<path class="st1" d="M39.3,506v-0.9h1.9v-7.6l-2.2,1.6V498l2.2-1.6h1.1v8.7h1.9v0.9H39.3z"/>
		<path class="st1" d="M45.5,506v-0.9h1.9v-7.6l-2.2,1.6V498l2.2-1.6h1.1v8.7h1.9v0.9H45.5z"/>
	</g>
	<g class="st0">
		<path class="st1" d="M38.5,537.5v-0.9h1.9V529l-2.2,1.6v-1.1l2.2-1.6h1.1v8.7h1.9v0.9H38.5z"/>
	</g>
	<g class="st0">
		<path class="st1" d="M44.3,534.7h1.1c0.1,1.1,0.8,2,2.3,2c1.5,0,2.2-0.7,2.2-1.9c0-1.2-0.7-1.9-2-1.9h-0.7v-1h0.7
			c1.3,0,1.8-0.6,1.8-1.6c0-0.9-0.6-1.6-1.8-1.6c-1.2,0-2,0.7-2.1,1.8h-1c0.1-1.5,1.3-2.8,3.2-2.8s2.9,1.2,2.9,2.5
			c0,1.1-0.6,1.7-1.5,2.1c1.1,0.3,1.9,1.1,1.9,2.4c0,1.8-1.4,2.8-3.4,2.8C45.6,537.6,44.3,536.3,44.3,534.7z"/>
	</g>
	<g class="st0">
		<path class="st1" d="M9.7,252.4V251h1.8v-6.5l-2,1.4v-1.6l2.2-1.6h1.6v8.3H15v1.3H9.7z"/>
	</g>
	<g class="st0">
		<path class="st1" d="M15.7,249.9h1.7c0.2,0.8,0.6,1.2,1.6,1.2c1.4,0,2.1-1.1,2.2-3.3c-0.4,0.7-1.2,1.2-2.4,1.2
			c-1.9,0-3.2-1.2-3.2-3.1c0-2,1.4-3.3,3.6-3.3c2.5,0,3.8,1.7,3.8,4.5v0.5c0,3.2-1.4,4.9-3.9,4.9C17.1,252.5,16,251.5,15.7,249.9z
			 M21.1,246c0-1.3-0.8-2-1.9-2c-1.1,0-1.8,0.8-1.8,1.9c0,1.2,0.7,1.9,1.8,1.9C20.3,247.8,21.1,247,21.1,246z"/>
		<path class="st1" d="M24.1,249.9h1.7c0.2,0.8,0.6,1.2,1.6,1.2c1.4,0,2.1-1.1,2.2-3.3c-0.4,0.7-1.2,1.2-2.4,1.2
			c-1.9,0-3.2-1.2-3.2-3.1c0-2,1.4-3.3,3.6-3.3c2.5,0,3.8,1.7,3.8,4.5v0.5c0,3.2-1.4,4.9-3.9,4.9C25.5,252.5,24.3,251.5,24.1,249.9z
			 M29.5,246c0-1.3-0.8-2-1.9-2c-1.1,0-1.8,0.8-1.8,1.9c0,1.2,0.7,1.9,1.8,1.9C28.7,247.8,29.5,247,29.5,246z"/>
	</g>
	<g class="st0">
		<path class="st1" d="M32.3,249.6H34c0.2,0.9,0.5,1.5,1.8,1.5c1.1,0,1.7-0.8,1.7-1.9c0-1.1-0.7-1.9-1.7-1.9c-1,0-1.6,0.3-2,0.8
			h-0.9l0.1-5.4h5.9v2.2h-1.5V244h-3l0,2.8c0.4-0.4,1.1-0.8,2.1-0.8c1.7,0,3,1.2,3,3.2c0,2.1-1.5,3.3-3.5,3.3
			C33.5,252.5,32.4,251.3,32.3,249.6z"/>
	</g>
	<g class="st0">
		<path class="st1" d="M13.2,409h1.5v2.6h-7v-0.9l3.5-3.4c1.1-1,1.5-1.7,1.5-2.6c0-0.9-0.5-1.4-1.4-1.4c-0.9,0-1.6,0.5-1.7,1.9H7.8
			c0.1-2.1,1.4-3.3,3.4-3.3c2,0,3.2,1.1,3.2,2.8c0,1.3-0.8,2.3-2,3.4l-2.4,2.3h3.2V409z"/>
	</g>
	<g class="st0">
		<path class="st1" d="M15.8,407.1v-0.5c0-2.9,1.6-4.7,4.1-4.7c2.4,0,4,1.8,4,4.7v0.5c0,2.9-1.5,4.8-4,4.8
			C17.4,411.8,15.8,410,15.8,407.1z M22.1,407v-0.5c0-2.1-0.8-3.3-2.2-3.3c-1.4,0-2.2,1.2-2.2,3.3v0.5c0,2.2,0.8,3.3,2.3,3.3
			C21.3,410.3,22.1,409.2,22.1,407z"/>
	</g>
	<g class="st0">
		<path class="st1" d="M25,407.1v-0.5c0-2.9,1.6-4.7,4.1-4.7c2.4,0,4,1.8,4,4.7v0.5c0,2.9-1.5,4.8-4,4.8C26.6,411.8,25,410,25,407.1
			z M31.3,407v-0.5c0-2.1-0.8-3.3-2.2-3.3c-1.4,0-2.2,1.2-2.2,3.3v0.5c0,2.2,0.8,3.3,2.3,3.3C30.6,410.3,31.3,409.2,31.3,407z"/>
	</g>
	<g class="st0">
		<path class="st1" d="M34,408.9h1.7c0.2,0.9,0.5,1.5,1.8,1.5c1.1,0,1.7-0.8,1.7-1.9c0-1.1-0.7-1.9-1.7-1.9c-1,0-1.6,0.3-2,0.8h-0.9
			l0.1-5.4h5.9v2.2h-1.5v-0.9h-3l0,2.8c0.4-0.4,1.1-0.8,2.1-0.8c1.7,0,3,1.2,3,3.2c0,2.1-1.5,3.3-3.5,3.3
			C35.2,411.8,34.1,410.5,34,408.9z"/>
	</g>
	<g class="st0">
		<path class="st1" d="M14.7,566.4h1.5v2.6h-7v-0.9l3.5-3.4c1.1-1,1.5-1.7,1.5-2.6c0-0.9-0.5-1.4-1.4-1.4c-0.9,0-1.6,0.5-1.7,1.9
			H9.3c0.1-2.1,1.4-3.3,3.4-3.3c2,0,3.2,1.1,3.2,2.8c0,1.3-0.8,2.3-2,3.4l-2.4,2.3h3.2V566.4z"/>
	</g>
	<g class="st0">
		<path class="st1" d="M17.2,564.4v-0.5c0-2.9,1.6-4.7,4.1-4.7c2.4,0,4,1.8,4,4.7v0.5c0,2.9-1.5,4.8-4,4.8
			C18.8,569.1,17.2,567.3,17.2,564.4z M23.5,564.4v-0.5c0-2.1-0.8-3.3-2.2-3.3c-1.4,0-2.2,1.2-2.2,3.3v0.5c0,2.2,0.8,3.3,2.3,3.3
			C22.8,567.7,23.5,566.6,23.5,564.4z"/>
	</g>
	<g class="st0">
		<path class="st1" d="M26.6,569v-1.3h1.8v-6.5l-2,1.4v-1.6l2.2-1.6h1.6v8.3h1.7v1.3H26.6z"/>
	</g>
	<g class="st0">
		<path class="st1" d="M32.5,566.2h1.7c0.2,0.9,0.5,1.5,1.8,1.5c1.1,0,1.7-0.8,1.7-1.9c0-1.1-0.7-1.9-1.7-1.9c-1,0-1.6,0.3-2,0.8H33
			l0.1-5.4H39v2.2h-1.5v-0.9h-3l0,2.8c0.4-0.4,1.1-0.8,2.1-0.8c1.7,0,3,1.2,3,3.2c0,2.1-1.5,3.3-3.5,3.3
			C33.7,569.1,32.7,567.9,32.5,566.2z"/>
	</g>
	<g class="st0">
		<path class="st13" d="M244.7,175.5c-1.4,0-2.4-0.3-3-1c-0.6-0.7-0.9-1.8-0.9-3.3v-5.7c0-1.4,0.3-2.4,1-3.1c0.6-0.7,1.7-1,3.1-1
			c2.7,0,4.1,1.2,4.1,3.7v1.9h-2.1v-1.8c0-1.2-0.7-1.8-2-1.8c-0.7,0-1.2,0.2-1.5,0.5c-0.3,0.4-0.5,1-0.5,1.9v5.1
			c0,0.9,0.2,1.5,0.5,1.9c0.3,0.4,0.8,0.5,1.5,0.5c0.2,0,0.5,0,0.6,0c0.2,0,0.4-0.1,0.5-0.2c0.2-0.1,0.3-0.2,0.4-0.3
			s0.2-0.3,0.3-0.5c0.1-0.2,0.1-0.5,0.1-0.8V170h-2v-1.8h4.2v7.2h-0.9l-0.4-1.8c-0.2,0.6-0.5,1.1-1,1.4
			C246.2,175.3,245.6,175.5,244.7,175.5z"/>
	</g>
	<g class="st0">
		<path class="st13" d="M252.5,175.4h-2v-1.9h2V175.4z"/>
	</g>
	<g class="st0">
	</g>
	<g class="st0">
		<path class="st13" d="M257.7,175.4v-13.9h3.6c1.1,0,1.9,0.2,2.3,0.6c0.5,0.4,0.7,1,0.7,1.9v2c0,0.6-0.2,1-0.5,1.3
			c-0.3,0.3-0.8,0.5-1.6,0.5c0.9,0,1.6,0.2,2,0.6c0.4,0.4,0.6,0.9,0.6,1.6v2.4c0,1-0.3,1.7-0.8,2.2c-0.5,0.5-1.4,0.7-2.7,0.7H257.7z
			 M261.2,163.4h-1.4v3.8h1.4c0.4,0,0.6-0.1,0.8-0.3c0.2-0.2,0.2-0.5,0.2-1v-1.4c0-0.5-0.1-0.8-0.2-0.9
			C261.8,163.5,261.5,163.4,261.2,163.4z M261.3,169h-1.5v4.5h1.5c0.5,0,0.9-0.1,1.1-0.3c0.2-0.2,0.3-0.6,0.3-1.1v-1.7
			c0-0.5-0.1-0.9-0.3-1.1C262.2,169.1,261.8,169,261.3,169z"/>
	</g>
	<g class="st0">
		<path class="st13" d="M270.1,175.5c-1.4,0-2.4-0.3-2.9-0.9c-0.6-0.6-0.8-1.7-0.8-3.3v-9.7h2.1v9.5c0,0.9,0.1,1.5,0.4,1.9
			c0.3,0.4,0.7,0.6,1.3,0.6c0.6,0,1-0.2,1.3-0.5s0.4-1,0.4-1.9v-9.5h2.1v9.7c0,1.6-0.3,2.7-0.9,3.3
			C272.4,175.2,271.4,175.5,270.1,175.5z"/>
		<path class="st13" d="M283.2,170.7v1.7c0,1.1-0.3,1.9-0.9,2.4c-0.6,0.5-1.6,0.7-3,0.7c-1.4,0-2.4-0.3-3-0.8
			c-0.6-0.5-0.9-1.4-0.9-2.7v-1.7h2.1v1.5c0,0.6,0.1,1.1,0.4,1.4s0.8,0.4,1.4,0.4c0.6,0,1.1-0.1,1.4-0.3c0.3-0.2,0.4-0.5,0.4-1v-1.4
			c0-0.4-0.1-0.7-0.4-0.9c-0.3-0.2-0.8-0.3-1.7-0.5c-0.7-0.1-1.3-0.3-1.7-0.4c-0.4-0.2-0.8-0.4-1.1-0.6s-0.5-0.5-0.6-0.9
			c-0.1-0.3-0.2-0.7-0.2-1.2v-1.8c0-1.1,0.3-1.8,0.9-2.3c0.6-0.5,1.6-0.8,3-0.8c1.4,0,2.3,0.3,3,0.8c0.6,0.6,0.9,1.4,0.9,2.6v1.7
			h-2.1V165c0-0.6-0.1-1-0.4-1.2c-0.3-0.3-0.8-0.4-1.4-0.4c-0.6,0-1.1,0.1-1.4,0.3c-0.3,0.2-0.4,0.5-0.4,1v1.5
			c0,0.3,0.1,0.5,0.2,0.6c0.1,0.2,0.3,0.3,0.6,0.4c0.3,0.1,0.8,0.2,1.5,0.3c0.7,0.1,1.2,0.3,1.7,0.4c0.4,0.2,0.8,0.3,1.1,0.6
			s0.5,0.5,0.6,0.9C283.2,169.8,283.2,170.2,283.2,170.7z"/>
		<path class="st13" d="M290.3,175.4v-6.1h-3.3v6.1h-2.1v-13.9h2.1v5.6h3.3v-5.6h2.1v13.9H290.3z"/>
	</g>
	<g class="st0">
		<path class="st13" d="M229.9,282.8v-13.9h3.6c1.1,0,1.9,0.2,2.3,0.6c0.5,0.4,0.7,1,0.7,1.9v2c0,0.6-0.2,1-0.5,1.3
			c-0.3,0.3-0.8,0.5-1.6,0.5c0.9,0,1.6,0.2,2,0.6c0.4,0.4,0.6,0.9,0.6,1.6v2.4c0,1-0.3,1.7-0.8,2.2c-0.5,0.5-1.4,0.7-2.7,0.7H229.9z
			 M233.4,270.8H232v3.8h1.4c0.4,0,0.6-0.1,0.8-0.3c0.2-0.2,0.2-0.5,0.2-1V272c0-0.5-0.1-0.8-0.2-0.9
			C234,270.9,233.7,270.8,233.4,270.8z M233.5,276.4H232v4.5h1.5c0.5,0,0.9-0.1,1.1-0.3c0.2-0.2,0.3-0.6,0.3-1.1v-1.7
			c0-0.5-0.1-0.9-0.3-1.1C234.4,276.5,234,276.4,233.5,276.4z"/>
	</g>
	<g class="st0">
		<path class="st13" d="M240.4,282.8h-2v-1.9h2V282.8z"/>
	</g>
	<g class="st0">
		<path class="st13" d="M245.6,278.6V273c0-1.4,0.3-2.4,1-3.1c0.6-0.7,1.7-1,3.1-1c1.4,0,2.5,0.3,3.1,0.9c0.7,0.6,1,1.6,1,2.9v2
			h-2.1v-1.8c0-0.7-0.2-1.2-0.5-1.5c-0.3-0.3-0.8-0.5-1.5-0.5s-1.2,0.2-1.5,0.5c-0.3,0.4-0.5,1-0.5,1.9v5.1c0,0.9,0.2,1.5,0.5,1.9
			c0.3,0.4,0.8,0.5,1.5,0.5c0.7,0,1.2-0.2,1.5-0.5c0.3-0.3,0.5-0.8,0.5-1.6v-2.1h2.1v2.3c0,1.4-0.3,2.4-1,3
			c-0.6,0.6-1.7,0.9-3.1,0.9c-1.5,0-2.5-0.3-3.2-0.9C245.9,281.3,245.6,280.2,245.6,278.6z"/>
		<path class="st13" d="M255.4,282.8v-13.9h2.1v11.8h3.8v2H255.4z"/>
		<path class="st13" d="M262.9,282.8v-13.9h2.1v13.9H262.9z"/>
		<path class="st13" d="M272.4,282.8l-3.8-8.5v8.5h-2v-13.9h1.8l3.8,8.6v-8.6h2v13.9H272.4z"/>
	</g>
	<g class="st0">
		<path class="st13" d="M282.6,271h-2.4v11.8h-2.1V271h-2.4v-2.1h6.9V271z"/>
	</g>
	<g class="st0">
		<path class="st13" d="M291.8,278.7c0,1.4-0.3,2.4-1,3.1c-0.7,0.7-1.7,1.1-3.1,1.1c-1.4,0-2.5-0.3-3.1-1c-0.7-0.7-1-1.8-1-3.2V273
			c0-1.4,0.3-2.4,1-3.1c0.7-0.7,1.7-1.1,3.1-1.1c1.4,0,2.5,0.4,3.1,1.1s1,1.7,1,3.1V278.7z M289.7,273.3c0-0.9-0.2-1.6-0.5-1.9
			c-0.3-0.4-0.8-0.5-1.5-0.5c-0.7,0-1.2,0.2-1.5,0.5c-0.3,0.4-0.5,1-0.5,1.9v5.1c0,0.9,0.2,1.6,0.5,1.9c0.3,0.4,0.8,0.5,1.5,0.5
			c0.5,0,0.9-0.1,1.1-0.2c0.3-0.1,0.5-0.4,0.6-0.7c0.1-0.4,0.2-0.9,0.2-1.5V273.3z"/>
		<path class="st13" d="M299.1,282.8l-3.8-8.5v8.5h-2v-13.9h1.8l3.8,8.6v-8.6h2v13.9H299.1z"/>
	</g>
	<g class="st0">
		<path class="st13" d="M236.1,407.1c-1.4,0-2.4-0.3-3-1c-0.6-0.7-0.9-1.8-0.9-3.3v-5.7c0-1.4,0.3-2.4,1-3.1c0.6-0.7,1.7-1,3.1-1
			c2.7,0,4.1,1.2,4.1,3.7v1.9h-2.1v-1.8c0-1.2-0.7-1.8-2-1.8c-0.7,0-1.2,0.2-1.5,0.5c-0.3,0.4-0.5,1-0.5,1.9v5.1
			c0,0.9,0.2,1.5,0.5,1.9c0.3,0.4,0.8,0.5,1.5,0.5c0.2,0,0.5,0,0.6,0s0.4-0.1,0.5-0.2c0.2-0.1,0.3-0.2,0.4-0.3s0.2-0.3,0.3-0.5
			c0.1-0.2,0.1-0.5,0.1-0.8v-1.6h-2v-1.8h4.2v7.2h-0.9l-0.4-1.8c-0.2,0.6-0.5,1.1-1,1.4C237.7,406.9,237,407.1,236.1,407.1z"/>
	</g>
	<g class="st0">
		<path class="st13" d="M243.9,407h-2v-1.9h2V407z"/>
		<path class="st13" d="M245.9,407l-1.9-13.9h2.1l1.3,9.7l1.7-9.7h1.9l1.7,9.7l1.3-9.7h2.1l-1.9,13.9h-2.4l-1.6-9.1l-1.6,9.1H245.9z
			"/>
	</g>
	<g class="st0">
		<path class="st13" d="M259.2,407h-2v-1.9h2V407z"/>
	</g>
	<g class="st0">
	</g>
	<g class="st0">
		<path class="st13" d="M264.5,407v-13.9h3.6c1.1,0,1.9,0.2,2.3,0.6c0.5,0.4,0.7,1,0.7,1.9v2c0,0.6-0.2,1-0.5,1.3
			c-0.3,0.3-0.8,0.5-1.6,0.5c0.9,0,1.6,0.2,2,0.6c0.4,0.4,0.6,0.9,0.6,1.6v2.4c0,1-0.3,1.7-0.8,2.2c-0.5,0.5-1.4,0.7-2.7,0.7H264.5z
			 M267.9,395h-1.4v3.8h1.4c0.4,0,0.6-0.1,0.8-0.3c0.2-0.2,0.2-0.5,0.2-1v-1.4c0-0.5-0.1-0.8-0.2-0.9
			C268.6,395.1,268.3,395,267.9,395z M268.1,400.6h-1.5v4.5h1.5c0.5,0,0.9-0.1,1.1-0.3s0.3-0.6,0.3-1.1V402c0-0.5-0.1-0.9-0.3-1.1
			C268.9,400.7,268.6,400.6,268.1,400.6z"/>
	</g>
	<g class="st0">
		<path class="st13" d="M276.8,407.1c-1.4,0-2.4-0.3-2.9-0.9c-0.6-0.6-0.8-1.7-0.8-3.3v-9.7h2.1v9.5c0,0.9,0.1,1.5,0.4,1.9
			c0.3,0.4,0.7,0.6,1.3,0.6c0.6,0,1-0.2,1.3-0.5s0.4-1,0.4-1.9v-9.5h2.1v9.7c0,1.6-0.3,2.7-0.9,3.3
			C279.2,406.7,278.2,407.1,276.8,407.1z"/>
		<path class="st13" d="M290,402.3v1.7c0,1.1-0.3,1.9-0.9,2.4c-0.6,0.5-1.6,0.7-3,0.7c-1.4,0-2.4-0.3-3-0.8
			c-0.6-0.5-0.9-1.4-0.9-2.7v-1.7h2.1v1.5c0,0.6,0.1,1.1,0.4,1.4s0.8,0.4,1.4,0.4c0.6,0,1.1-0.1,1.4-0.3c0.3-0.2,0.4-0.5,0.4-1v-1.4
			c0-0.4-0.1-0.7-0.4-0.9c-0.3-0.2-0.8-0.3-1.7-0.5c-0.7-0.1-1.3-0.3-1.7-0.4c-0.4-0.2-0.8-0.4-1.1-0.6s-0.5-0.5-0.6-0.9
			c-0.1-0.3-0.2-0.7-0.2-1.2v-1.8c0-1.1,0.3-1.8,0.9-2.3c0.6-0.5,1.6-0.8,3-0.8c1.4,0,2.3,0.3,3,0.8c0.6,0.6,0.9,1.4,0.9,2.6v1.7
			h-2.1v-1.6c0-0.6-0.1-1-0.4-1.2c-0.3-0.3-0.8-0.4-1.4-0.4c-0.6,0-1.1,0.1-1.4,0.3c-0.3,0.2-0.4,0.5-0.4,1v1.5
			c0,0.3,0.1,0.5,0.2,0.6c0.1,0.2,0.3,0.3,0.6,0.4c0.3,0.1,0.8,0.2,1.5,0.3c0.7,0.1,1.2,0.3,1.7,0.4c0.4,0.2,0.8,0.3,1.1,0.6
			s0.5,0.5,0.6,0.9C289.9,401.3,290,401.8,290,402.3z"/>
		<path class="st13" d="M297,407v-6.1h-3.3v6.1h-2.1v-13.9h2.1v5.6h3.3v-5.6h2.1V407H297z"/>
	</g>
	<g class="st0">
		<path class="st13" d="M235.5,647.6v-13.9h3.6c1.5,0,2.5,0.3,3.1,1c0.6,0.7,1,1.7,1,3.1v5.6c0,1.4-0.3,2.5-1,3.1
			c-0.6,0.7-1.7,1-3.1,1H235.5z M239.1,635.7h-1.5v9.9h1.5c0.7,0,1.2-0.2,1.5-0.5c0.3-0.4,0.5-1,0.5-2v-4.9c0-1-0.2-1.6-0.5-2
			C240.3,635.9,239.8,635.7,239.1,635.7z"/>
	</g>
	<g class="st0">
		<path class="st13" d="M246.4,647.6h-2v-1.9h2V647.6z"/>
	</g>
	<g class="st0">
		<path class="st13" d="M258.4,635.8h-2.4v11.8H254v-11.8h-2.4v-2.1h6.9V635.8z"/>
	</g>
	<g class="st0">
		<path class="st13" d="M262.1,647.6H260v-13.9h3.5c0.9,0,1.5,0.1,2,0.3c0.5,0.2,0.8,0.5,1,0.9c0.2,0.4,0.3,1,0.3,1.8v2.1
			c0,1.3-0.5,2.2-1.4,2.6l1.6,6.1h-2.2l-1.5-5.9h-1.2V647.6z M263.5,635.7h-1.4v4.1h1.4c0.4,0,0.7-0.1,0.9-0.2
			c0.2-0.2,0.3-0.5,0.3-1V637c0-0.5-0.1-0.9-0.3-1C264.2,635.8,263.9,635.7,263.5,635.7z"/>
	</g>
	<g class="st0">
		<path class="st13" d="M272.1,647.7c-1.4,0-2.4-0.3-2.9-0.9c-0.6-0.6-0.8-1.7-0.8-3.3v-9.7h2.1v9.5c0,0.9,0.1,1.5,0.4,1.9
			c0.3,0.4,0.7,0.6,1.3,0.6c0.6,0,1-0.2,1.3-0.5c0.3-0.4,0.4-1,0.4-1.9v-9.5h2.1v9.7c0,1.6-0.3,2.7-0.9,3.3S273.5,647.7,272.1,647.7
			z"/>
		<path class="st13" d="M282,647.6l-2.5-10v10h-2v-13.9h2.9l2.2,8.1l2.3-8.1h2.9v13.9h-2v-10l-2.5,10H282z"/>
	</g>
	<g class="st0">
		<path class="st13" d="M293.1,642.8h-1.5v4.7h-2.1v-13.9h3.6c1.3,0,2.1,0.3,2.7,0.8c0.5,0.5,0.8,1.3,0.8,2.4v2.9
			c0,1.1-0.3,1.8-0.8,2.3C295.2,642.6,294.4,642.8,293.1,642.8z M293.1,635.7h-1.5v5.2h1.5c0.5,0,0.9-0.1,1.1-0.3s0.3-0.6,0.3-1.2
			v-2.1c0-0.6-0.1-1-0.3-1.3C293.9,635.8,293.6,635.7,293.1,635.7z"/>
	</g>
	<g class="st0">
		<path class="st13" d="M243.4,532.8v-12.2h3.2c1,0,1.6,0.2,2,0.5c0.4,0.4,0.6,0.9,0.6,1.7v1.8c0,0.5-0.1,0.9-0.4,1.2
			c-0.3,0.3-0.7,0.4-1.4,0.5c0.8,0,1.4,0.2,1.7,0.6s0.5,0.8,0.5,1.5v2.1c0,0.9-0.2,1.5-0.7,1.9c-0.5,0.4-1.3,0.6-2.4,0.6H243.4z
			 M246.4,522.2h-1.2v3.4h1.2c0.3,0,0.6-0.1,0.7-0.2c0.1-0.2,0.2-0.4,0.2-0.9v-1.2c0-0.4-0.1-0.7-0.2-0.8
			C247,522.3,246.7,522.2,246.4,522.2z M246.5,527.2h-1.3v3.9h1.3c0.4,0,0.8-0.1,0.9-0.3c0.2-0.2,0.3-0.5,0.3-1v-1.5
			c0-0.5-0.1-0.8-0.3-0.9S247,527.2,246.5,527.2z"/>
	</g>
	<g class="st0">
		<path class="st13" d="M252.7,532.8h-1.7v-1.7h1.7V532.8z"/>
	</g>
	<g class="st0">
		<path class="st13" d="M264.4,529.1c0,1.2-0.3,2.1-0.9,2.8c-0.6,0.6-1.5,0.9-2.7,0.9c-1.2,0-2.2-0.3-2.7-0.9s-0.9-1.5-0.9-2.8v-5
			c0-1.2,0.3-2.2,0.9-2.8s1.5-0.9,2.7-0.9s2.2,0.3,2.8,0.9c0.6,0.6,0.9,1.5,0.9,2.8V529.1z M262.6,524.4c0-0.8-0.1-1.4-0.4-1.7
			s-0.7-0.5-1.4-0.5c-0.6,0-1.1,0.2-1.4,0.5c-0.3,0.3-0.4,0.9-0.4,1.7v4.5c0,0.8,0.1,1.4,0.4,1.7c0.3,0.3,0.7,0.5,1.4,0.5
			c0.4,0,0.8-0.1,1-0.2c0.2-0.1,0.4-0.3,0.6-0.7c0.1-0.3,0.2-0.8,0.2-1.3V524.4z"/>
	</g>
	<g class="st0">
		<path class="st13" d="M265.9,532.8v-12.2h3.2c1,0,1.6,0.2,2,0.5c0.4,0.4,0.6,0.9,0.6,1.7v1.8c0,0.5-0.1,0.9-0.4,1.2
			c-0.3,0.3-0.7,0.4-1.4,0.5c0.8,0,1.4,0.2,1.7,0.6s0.5,0.8,0.5,1.5v2.1c0,0.9-0.2,1.5-0.7,1.9c-0.5,0.4-1.3,0.6-2.4,0.6H265.9z
			 M268.9,522.2h-1.2v3.4h1.2c0.3,0,0.6-0.1,0.7-0.2c0.1-0.2,0.2-0.4,0.2-0.9v-1.2c0-0.4-0.1-0.7-0.2-0.8
			C269.5,522.3,269.2,522.2,268.9,522.2z M269,527.2h-1.3v3.9h1.3c0.4,0,0.8-0.1,0.9-0.3c0.2-0.2,0.3-0.5,0.3-1v-1.5
			c0-0.5-0.1-0.8-0.3-0.9S269.5,527.2,269,527.2z"/>
	</g>
	<g class="st0">
		<path class="st13" d="M278.2,532.8l-0.5-3.2h-2.3l-0.5,3.2H273l2.1-12.2h2.7l2.1,12.2H278.2z M277.4,527.9l-0.9-5.1l-0.9,5.1
			H277.4z"/>
		<path class="st13" d="M285.3,532.8l-2.2-8.8v8.8h-1.8v-12.2h2.6l2,7.2l2-7.2h2.6v12.2h-1.8v-8.8l-2.2,8.8H285.3z"/>
	</g>
	<g class="st0">
		<path class="st13" d="M296.9,532.8l-0.5-3.2h-2.3l-0.5,3.2h-1.8l2.1-12.2h2.7l2.1,12.2H296.9z M296,527.9l-0.9-5.1l-0.9,5.1H296z"
			/>
	</g>
</g>
</svg>
