<?xml version="1.0" encoding="utf-8"?>
<!-- Generator: Adobe Illustrator 24.0.1, SVG Export Plug-In . SVG Version: 6.00 Build 0)  -->
<svg version="1.1" id="Calque_1" xmlns="http://www.w3.org/2000/svg" xmlns:xlink="http://www.w3.org/1999/xlink" x="0px" y="0px"
	 viewBox="0 0 279.7 526.5" style="enable-background:new 0 0 279.7 526.5;" xml:space="preserve">
<style type="text/css">
	.st0{fill:#83D0F5;stroke:#FFFFFF;stroke-width:2.17;stroke-miterlimit:10;}
	.st1{fill:#E3E2E2;stroke:#FFFFFF;stroke-width:2.17;stroke-miterlimit:10;}
	.st2{fill:#F3997B;stroke:#FFFFFF;stroke-width:2.17;stroke-miterlimit:10;}
	.st3{fill:none;stroke:#1D1D1B;stroke-width:2.17;stroke-miterlimit:10;}
	.st4{fill:none;stroke:#1D1D1B;stroke-width:2.17;stroke-linecap:round;stroke-linejoin:round;stroke-dasharray:0,4.35;}
	.st5{enable-background:new    ;}
	.st6{fill:#1D1D1B;}
	.st7{fill:#83D0F5;}
	.st8{fill:#F3997B;}
	.st9{fill:none;stroke:#FFFFFF;stroke-width:2.17;stroke-miterlimit:10;}
</style>
<title>mobile_majorite</title>
<g id="Mode_Isolation">
	<polygon class="st0" points="263.1,339.1 267.5,342.8 263.1,346.3 258.7,342.7 	"/>
	<polygon class="st0" points="263.1,326.4 267.5,330 263.1,333.6 258.7,330 	"/>
	<polygon class="st0" points="263.1,313.7 267.5,317.3 263.1,320.9 258.7,317.3 	"/>
	<polygon class="st0" points="263.1,351.9 267.5,355.5 263.1,359 258.7,355.5 	"/>
	<polygon class="st0" points="263.1,364.6 267.5,368.2 263.1,371.8 258.7,368.2 	"/>
	<polygon class="st0" points="263.1,377.3 267.5,380.9 263.1,384.5 258.7,380.9 	"/>
	<polygon class="st0" points="263.1,390 267.5,393.6 263.1,397.2 258.7,393.6 	"/>
	<polygon class="st0" points="263.1,402.8 267.5,406.4 263.1,409.9 258.7,406.3 	"/>
	<polygon class="st0" points="263.1,415.5 267.5,419.1 263.1,422.7 258.7,419.1 	"/>
	<polygon class="st0" points="263.1,428.2 267.5,431.8 263.1,435.4 258.7,431.8 	"/>
	<polygon class="st0" points="263.1,440.9 267.5,444.5 263.1,448.1 258.7,444.5 	"/>
	<polygon class="st0" points="263.1,453.6 267.5,457.2 263.1,460.8 258.7,457.2 	"/>
	<polygon class="st0" points="263.1,466.4 267.5,470 263.1,473.5 258.7,470 	"/>
	<polygon class="st0" points="263.1,479.1 267.5,482.7 263.1,486.3 258.7,482.7 	"/>
	<polygon class="st0" points="263.1,491.8 267.5,495.4 263.1,499 258.7,495.4 	"/>
	<polygon class="st0" points="254.2,313.7 258.7,317.3 254.3,320.9 249.8,317.3 	"/>
	<polygon class="st0" points="254.2,326.4 258.7,330 254.3,333.6 249.8,330 	"/>
	<polygon class="st0" points="254.2,339.1 258.7,342.8 254.3,346.3 249.8,342.7 	"/>
	<polygon class="st0" points="254.2,351.9 258.7,355.5 254.3,359 249.8,355.5 	"/>
	<polygon class="st0" points="254.2,364.6 258.7,368.2 254.3,371.8 249.8,368.2 	"/>
	<polygon class="st0" points="254.2,377.3 258.7,380.9 254.3,384.5 249.8,380.9 	"/>
	<polygon class="st0" points="254.2,390 258.7,393.6 254.3,397.2 249.8,393.6 	"/>
	<polygon class="st0" points="254.2,402.8 258.7,406.4 254.3,409.9 249.8,406.3 	"/>
	<polygon class="st0" points="254.2,415.5 258.7,419.1 254.3,422.7 249.8,419.1 	"/>
	<polygon class="st0" points="254.2,428.2 258.7,431.8 254.3,435.4 249.8,431.8 	"/>
	<polygon class="st0" points="254.2,440.9 258.7,444.5 254.3,448.1 249.8,444.5 	"/>
	<polygon class="st0" points="254.2,453.6 258.7,457.2 254.3,460.8 249.8,457.2 	"/>
	<polygon class="st0" points="254.2,466.4 258.7,470 254.3,473.5 249.8,470 	"/>
	<polygon class="st0" points="254.2,479.1 258.7,482.7 254.3,486.3 249.8,482.7 	"/>
	<polygon class="st0" points="254.2,491.8 258.7,495.4 254.3,499 249.8,495.4 	"/>
	<polygon class="st0" points="245.4,313.7 249.9,317.3 245.4,320.9 241,317.3 	"/>
	<polygon class="st0" points="245.4,326.4 249.9,330 245.4,333.6 241,330 	"/>
	<polygon class="st0" points="245.4,339.1 249.9,342.8 245.4,346.3 241,342.7 	"/>
	<polygon class="st0" points="245.4,351.9 249.9,355.5 245.4,359 241,355.5 	"/>
	<polygon class="st0" points="245.4,364.6 249.9,368.2 245.4,371.8 241,368.2 	"/>
	<polygon class="st0" points="245.4,377.3 249.9,380.9 245.4,384.5 241,380.9 	"/>
	<polygon class="st0" points="245.4,390 249.9,393.6 245.4,397.2 241,393.6 	"/>
	<polygon class="st0" points="245.4,402.8 249.9,406.4 245.4,409.9 241,406.3 	"/>
	<polygon class="st0" points="245.4,415.5 249.9,419.1 245.4,422.7 241,419.1 	"/>
	<polygon class="st0" points="245.4,428.2 249.9,431.8 245.4,435.4 241,431.8 	"/>
	<polygon class="st0" points="245.4,440.9 249.9,444.5 245.4,448.1 241,444.5 	"/>
	<polygon class="st0" points="245.4,453.6 249.9,457.2 245.4,460.8 241,457.2 	"/>
	<polygon class="st0" points="245.4,466.4 249.9,470 245.4,473.5 241,470 	"/>
	<polygon class="st0" points="245.4,479.1 249.9,482.7 245.4,486.3 241,482.7 	"/>
	<polygon class="st0" points="245.4,491.8 249.9,495.4 245.4,499 241,495.4 	"/>
	<polygon class="st0" points="236.6,313.7 241,317.3 236.6,320.9 232.2,317.3 	"/>
	<polygon class="st0" points="236.6,326.4 241,330 236.6,333.6 232.2,330 	"/>
	<polygon class="st0" points="236.6,339.1 241,342.8 236.6,346.3 232.2,342.7 	"/>
	<polygon class="st0" points="236.6,351.9 241,355.5 236.6,359 232.2,355.5 	"/>
	<polygon class="st0" points="236.6,364.6 241,368.2 236.6,371.8 232.2,368.2 	"/>
	<polygon class="st0" points="236.6,377.3 241,380.9 236.6,384.5 232.2,380.9 	"/>
	<polygon class="st0" points="236.6,390 241,393.6 236.6,397.2 232.2,393.6 	"/>
	<polygon class="st0" points="236.6,402.8 241,406.4 236.6,409.9 232.2,406.3 	"/>
	<polygon class="st0" points="236.6,415.5 241,419.1 236.6,422.7 232.2,419.1 	"/>
	<polygon class="st0" points="236.6,428.2 241,431.8 236.6,435.4 232.2,431.8 	"/>
	<polygon class="st0" points="236.6,440.9 241,444.5 236.6,448.1 232.2,444.5 	"/>
	<polygon class="st0" points="236.6,453.6 241,457.2 236.6,460.8 232.2,457.2 	"/>
	<polygon class="st0" points="236.6,466.4 241,470 236.6,473.5 232.2,470 	"/>
	<polygon class="st0" points="236.6,479.1 241,482.7 236.6,486.3 232.2,482.7 	"/>
	<polygon class="st0" points="236.6,491.8 241,495.4 236.6,499 232.2,495.4 	"/>
	<polygon class="st0" points="227.7,313.7 232.2,317.3 227.8,320.9 223.3,317.3 	"/>
	<polygon class="st0" points="227.7,326.4 232.2,330 227.8,333.6 223.3,330 	"/>
	<polygon class="st0" points="227.7,339.1 232.2,342.8 227.8,346.3 223.3,342.7 	"/>
	<polygon class="st0" points="227.7,351.9 232.2,355.5 227.8,359 223.3,355.5 	"/>
	<polygon class="st0" points="227.7,364.6 232.2,368.2 227.8,371.8 223.3,368.2 	"/>
	<polygon class="st0" points="227.7,377.3 232.2,380.9 227.8,384.5 223.3,380.9 	"/>
	<polygon class="st0" points="227.7,390 232.2,393.6 227.8,397.2 223.3,393.6 	"/>
	<polygon class="st0" points="227.7,402.8 232.2,406.4 227.8,409.9 223.3,406.3 	"/>
	<polygon class="st0" points="227.7,415.5 232.2,419.1 227.8,422.7 223.3,419.1 	"/>
	<polygon class="st0" points="227.7,428.2 232.2,431.8 227.8,435.4 223.3,431.8 	"/>
	<polygon class="st0" points="227.7,440.9 232.2,444.5 227.8,448.1 223.3,444.5 	"/>
	<polygon class="st0" points="227.7,453.6 232.2,457.2 227.8,460.8 223.3,457.2 	"/>
	<polygon class="st0" points="227.7,466.4 232.2,470 227.8,473.5 223.3,470 	"/>
	<polygon class="st0" points="227.7,479.1 232.2,482.7 227.8,486.3 223.3,482.7 	"/>
	<polygon class="st0" points="227.7,491.8 232.2,495.4 227.8,499 223.3,495.4 	"/>
	<polygon class="st0" points="218.9,313.7 223.3,317.3 218.9,320.9 214.5,317.3 	"/>
	<polygon class="st0" points="218.9,326.4 223.3,330 218.9,333.6 214.5,330 	"/>
	<polygon class="st0" points="218.9,339.1 223.3,342.8 218.9,346.3 214.5,342.7 	"/>
	<polygon class="st0" points="218.9,351.9 223.3,355.5 218.9,359 214.5,355.5 	"/>
	<polygon class="st0" points="218.9,364.6 223.3,368.2 218.9,371.8 214.5,368.2 	"/>
	<polygon class="st0" points="218.9,377.3 223.3,380.9 218.9,384.5 214.5,380.9 	"/>
	<polygon class="st0" points="218.9,390 223.3,393.6 218.9,397.2 214.5,393.6 	"/>
	<polygon class="st0" points="218.9,402.8 223.3,406.4 218.9,409.9 214.5,406.3 	"/>
	<polygon class="st0" points="218.9,415.5 223.3,419.1 218.9,422.7 214.5,419.1 	"/>
	<polygon class="st0" points="218.9,428.2 223.3,431.8 218.9,435.4 214.5,431.8 	"/>
	<polygon class="st0" points="218.9,440.9 223.3,444.5 218.9,448.1 214.5,444.5 	"/>
	<polygon class="st0" points="218.9,453.6 223.3,457.2 218.9,460.8 214.5,457.2 	"/>
	<polygon class="st0" points="218.9,466.4 223.3,470 218.9,473.5 214.5,470 	"/>
	<polygon class="st0" points="218.9,479.1 223.3,482.7 218.9,486.3 214.5,482.7 	"/>
	<polygon class="st0" points="218.9,491.8 223.3,495.4 218.9,499 214.5,495.4 	"/>
	<polygon class="st0" points="210.1,313.7 214.5,317.3 210.1,320.9 205.6,317.3 	"/>
	<polygon class="st0" points="210.1,326.4 214.5,330 210.1,333.6 205.6,330 	"/>
	<polygon class="st0" points="210.1,339.1 214.5,342.8 210.1,346.3 205.6,342.7 	"/>
	<polygon class="st0" points="210.1,351.9 214.5,355.5 210.1,359 205.6,355.5 	"/>
	<polygon class="st0" points="210.1,364.6 214.5,368.2 210.1,371.8 205.6,368.2 	"/>
	<polygon class="st0" points="210.1,377.3 214.5,380.9 210.1,384.5 205.6,380.9 	"/>
	<polygon class="st0" points="210.1,390 214.5,393.6 210.1,397.2 205.6,393.6 	"/>
	<polygon class="st0" points="210.1,402.8 214.5,406.4 210.1,409.9 205.6,406.3 	"/>
	<polygon class="st0" points="210.1,415.5 214.5,419.1 210.1,422.7 205.6,419.1 	"/>
	<polygon class="st0" points="210.1,428.2 214.5,431.8 210.1,435.4 205.6,431.8 	"/>
	<polygon class="st0" points="210.1,440.9 214.5,444.5 210.1,448.1 205.6,444.5 	"/>
	<polygon class="st0" points="210.1,453.6 214.5,457.2 210.1,460.8 205.6,457.2 	"/>
	<polygon class="st0" points="210.1,466.4 214.5,470 210.1,473.5 205.6,470 	"/>
	<polygon class="st0" points="210.1,479.1 214.5,482.7 210.1,486.3 205.6,482.7 	"/>
	<polygon class="st0" points="210.1,491.8 214.5,495.4 210.1,499 205.6,495.4 	"/>
	<polygon class="st0" points="201.2,313.7 205.6,317.3 201.2,320.9 196.8,317.3 	"/>
	<polygon class="st0" points="201.2,326.4 205.6,330 201.2,333.6 196.8,330 	"/>
	<polygon class="st0" points="201.2,339.1 205.6,342.8 201.2,346.3 196.8,342.7 	"/>
	<polygon class="st0" points="201.2,351.9 205.6,355.5 201.2,359 196.8,355.5 	"/>
	<polygon class="st0" points="201.2,364.6 205.6,368.2 201.2,371.8 196.8,368.2 	"/>
	<polygon class="st0" points="201.2,377.3 205.6,380.9 201.2,384.5 196.8,380.9 	"/>
	<polygon class="st0" points="201.2,390 205.6,393.6 201.2,397.2 196.8,393.6 	"/>
	<polygon class="st0" points="201.2,402.8 205.6,406.4 201.2,409.9 196.8,406.3 	"/>
	<polygon class="st0" points="201.2,415.5 205.6,419.1 201.2,422.7 196.8,419.1 	"/>
	<polygon class="st0" points="201.2,428.2 205.6,431.8 201.2,435.4 196.8,431.8 	"/>
	<polygon class="st0" points="201.2,440.9 205.6,444.5 201.2,448.1 196.8,444.5 	"/>
	<polygon class="st0" points="201.2,453.6 205.6,457.2 201.2,460.8 196.8,457.2 	"/>
	<polygon class="st0" points="201.2,466.4 205.6,470 201.2,473.5 196.8,470 	"/>
	<polygon class="st0" points="201.2,479.1 205.6,482.7 201.2,486.3 196.8,482.7 	"/>
	<polygon class="st0" points="201.2,491.8 205.6,495.4 201.2,499 196.8,495.4 	"/>
	<polygon class="st0" points="192.4,313.7 196.8,317.3 192.4,320.9 188,317.3 	"/>
	<polygon class="st0" points="192.4,326.4 196.8,330 192.4,333.6 188,330 	"/>
	<polygon class="st0" points="192.4,339.1 196.8,342.8 192.4,346.3 188,342.7 	"/>
	<polygon class="st0" points="192.4,351.9 196.8,355.5 192.4,359 188,355.5 	"/>
	<polygon class="st0" points="192.4,364.6 196.8,368.2 192.4,371.8 188,368.2 	"/>
	<polygon class="st0" points="192.4,377.3 196.8,380.9 192.4,384.5 188,380.9 	"/>
	<polygon class="st0" points="192.4,390 196.8,393.6 192.4,397.2 188,393.6 	"/>
	<polygon class="st0" points="192.4,402.8 196.8,406.4 192.4,409.9 188,406.3 	"/>
	<polygon class="st0" points="192.4,415.5 196.8,419.1 192.4,422.7 188,419.1 	"/>
	<polygon class="st0" points="192.4,428.2 196.8,431.8 192.4,435.4 188,431.8 	"/>
	<polygon class="st0" points="192.4,440.9 196.8,444.5 192.4,448.1 188,444.5 	"/>
	<polygon class="st0" points="192.4,453.6 196.8,457.2 192.4,460.8 188,457.2 	"/>
	<polygon class="st0" points="192.4,466.4 196.8,470 192.4,473.5 188,470 	"/>
	<polygon class="st0" points="192.4,479.1 196.8,482.7 192.4,486.3 188,482.7 	"/>
	<polygon class="st0" points="192.4,491.8 196.8,495.4 192.4,499 188,495.4 	"/>
	<polygon class="st0" points="183.5,313.7 188,317.3 183.6,320.9 179.1,317.3 	"/>
	<polygon class="st0" points="183.5,326.4 188,330 183.6,333.6 179.1,330 	"/>
	<polygon class="st0" points="183.5,339.1 188,342.8 183.6,346.3 179.1,342.7 	"/>
	<polygon class="st0" points="183.5,351.9 188,355.5 183.6,359 179.1,355.5 	"/>
	<polygon class="st0" points="183.5,364.6 188,368.2 183.6,371.8 179.1,368.2 	"/>
	<polygon class="st0" points="183.5,377.3 188,380.9 183.6,384.5 179.1,380.9 	"/>
	<polygon class="st0" points="183.5,390 188,393.6 183.6,397.2 179.1,393.6 	"/>
	<polygon class="st0" points="183.5,402.8 188,406.4 183.6,409.9 179.1,406.3 	"/>
	<polygon class="st0" points="183.5,415.5 188,419.1 183.6,422.7 179.1,419.1 	"/>
	<polygon class="st0" points="183.5,428.2 188,431.8 183.6,435.4 179.1,431.8 	"/>
	<polygon class="st0" points="183.5,440.9 188,444.5 183.6,448.1 179.1,444.5 	"/>
	<polygon class="st0" points="183.5,453.6 188,457.2 183.6,460.8 179.1,457.2 	"/>
	<polygon class="st0" points="183.5,466.4 188,470 183.6,473.5 179.1,470 	"/>
	<polygon class="st0" points="183.5,479.1 188,482.7 183.6,486.3 179.1,482.7 	"/>
	<polygon class="st0" points="183.5,491.8 188,495.4 183.6,499 179.1,495.4 	"/>
	<polygon class="st0" points="174.7,313.7 179.1,317.3 174.7,320.9 170.3,317.3 	"/>
	<polygon class="st0" points="174.7,326.4 179.1,330 174.7,333.6 170.3,330 	"/>
	<polygon class="st0" points="174.7,339.1 179.1,342.8 174.7,346.3 170.3,342.7 	"/>
	<polygon class="st0" points="174.7,351.9 179.1,355.5 174.7,359 170.3,355.5 	"/>
	<polygon class="st0" points="174.7,364.6 179.1,368.2 174.7,371.8 170.3,368.2 	"/>
	<polygon class="st0" points="174.7,377.3 179.1,380.9 174.7,384.5 170.3,380.9 	"/>
	<polygon class="st0" points="174.7,390 179.1,393.6 174.7,397.2 170.3,393.6 	"/>
	<polygon class="st0" points="174.7,402.8 179.1,406.4 174.7,409.9 170.3,406.3 	"/>
	<polygon class="st0" points="174.7,415.5 179.1,419.1 174.7,422.7 170.3,419.1 	"/>
	<polygon class="st0" points="174.7,428.2 179.1,431.8 174.7,435.4 170.3,431.8 	"/>
	<polygon class="st0" points="174.7,440.9 179.1,444.5 174.7,448.1 170.3,444.5 	"/>
	<polygon class="st0" points="174.7,453.6 179.1,457.2 174.7,460.8 170.3,457.2 	"/>
	<polygon class="st0" points="174.7,466.4 179.1,470 174.7,473.5 170.3,470 	"/>
	<polygon class="st0" points="174.7,479.1 179.1,482.7 174.7,486.3 170.3,482.7 	"/>
	<polygon class="st0" points="174.7,491.8 179.1,495.4 174.7,499 170.3,495.4 	"/>
	<polygon class="st0" points="165.9,313.7 170.3,317.3 165.9,320.9 161.4,317.3 	"/>
	<polygon class="st0" points="165.9,326.4 170.3,330 165.9,333.6 161.4,330 	"/>
	<polygon class="st0" points="165.9,339.1 170.3,342.8 165.9,346.3 161.4,342.7 	"/>
	<polygon class="st0" points="165.9,351.9 170.3,355.5 165.9,359 161.4,355.5 	"/>
	<polygon class="st0" points="165.9,364.6 170.3,368.2 165.9,371.8 161.4,368.2 	"/>
	<polygon class="st0" points="165.9,377.3 170.3,380.9 165.9,384.5 161.4,380.9 	"/>
	<polygon class="st0" points="165.9,390 170.3,393.6 165.9,397.2 161.4,393.6 	"/>
	<polygon class="st0" points="165.9,402.8 170.3,406.4 165.9,409.9 161.4,406.3 	"/>
	<polygon class="st0" points="165.9,415.5 170.3,419.1 165.9,422.7 161.4,419.1 	"/>
	<polygon class="st0" points="165.9,428.2 170.3,431.8 165.9,435.4 161.4,431.8 	"/>
	<polygon class="st0" points="165.9,440.9 170.3,444.5 165.9,448.1 161.4,444.5 	"/>
	<polygon class="st0" points="165.9,453.6 170.3,457.2 165.9,460.8 161.4,457.2 	"/>
	<polygon class="st0" points="165.9,466.4 170.3,470 165.9,473.5 161.4,470 	"/>
	<polygon class="st0" points="165.9,479.1 170.3,482.7 165.9,486.3 161.4,482.7 	"/>
	<polygon class="st0" points="165.9,491.8 170.3,495.4 165.9,499 161.4,495.4 	"/>
	<polygon class="st0" points="157,313.7 161.5,317.3 157,320.9 152.6,317.3 	"/>
	<polygon class="st0" points="157,326.4 161.5,330 157,333.6 152.6,330 	"/>
	<polygon class="st0" points="157,339.1 161.5,342.8 157,346.3 152.6,342.7 	"/>
	<polygon class="st0" points="157,351.9 161.5,355.5 157,359 152.6,355.5 	"/>
	<polygon class="st0" points="157,364.6 161.5,368.2 157,371.8 152.6,368.2 	"/>
	<polygon class="st0" points="157,377.3 161.5,380.9 157,384.5 152.6,380.9 	"/>
	<polygon class="st0" points="157,390 161.5,393.6 157,397.2 152.6,393.6 	"/>
	<polygon class="st0" points="157,402.8 161.5,406.4 157,409.9 152.6,406.3 	"/>
	<polygon class="st0" points="157,415.5 161.5,419.1 157,422.7 152.6,419.1 	"/>
	<polygon class="st0" points="157,428.2 161.5,431.8 157,435.4 152.6,431.8 	"/>
	<polygon class="st0" points="157,440.9 161.5,444.5 157,448.1 152.6,444.5 	"/>
	<polygon class="st0" points="157,453.6 161.5,457.2 157,460.8 152.6,457.2 	"/>
	<polygon class="st0" points="157,466.4 161.5,470 157,473.5 152.6,470 	"/>
	<polygon class="st0" points="157,479.1 161.5,482.7 157,486.3 152.6,482.7 	"/>
	<polygon class="st0" points="157,491.8 161.5,495.4 157,499 152.6,495.4 	"/>
	<polygon class="st0" points="148.2,313.7 152.6,317.3 148.2,320.9 143.8,317.3 	"/>
	<polygon class="st0" points="148.2,326.4 152.6,330 148.2,333.6 143.8,330 	"/>
	<polygon class="st0" points="148.2,339.1 152.6,342.8 148.2,346.3 143.8,342.7 	"/>
	<polygon class="st0" points="148.2,351.9 152.6,355.5 148.2,359 143.8,355.5 	"/>
	<polygon class="st0" points="148.2,364.6 152.6,368.2 148.2,371.8 143.8,368.2 	"/>
	<polygon class="st0" points="148.2,377.3 152.6,380.9 148.2,384.5 143.8,380.9 	"/>
	<polygon class="st0" points="148.2,390 152.6,393.6 148.2,397.2 143.8,393.6 	"/>
	<polygon class="st0" points="148.2,402.8 152.6,406.4 148.2,409.9 143.8,406.3 	"/>
	<polygon class="st0" points="148.2,415.5 152.6,419.1 148.2,422.7 143.8,419.1 	"/>
	<polygon class="st0" points="148.2,428.2 152.6,431.8 148.2,435.4 143.8,431.8 	"/>
	<polygon class="st0" points="148.2,440.9 152.6,444.5 148.2,448.1 143.8,444.5 	"/>
	<polygon class="st0" points="148.2,453.6 152.6,457.2 148.2,460.8 143.8,457.2 	"/>
	<polygon class="st0" points="148.2,466.4 152.6,470 148.2,473.5 143.8,470 	"/>
	<polygon class="st0" points="148.2,479.1 152.6,482.7 148.2,486.3 143.8,482.7 	"/>
	<polygon class="st0" points="148.2,491.8 152.6,495.4 148.2,499 143.8,495.4 	"/>
	<polygon class="st0" points="139.3,313.7 143.8,317.3 139.4,320.9 134.9,317.3 	"/>
	<polygon class="st0" points="139.3,326.4 143.8,330 139.4,333.6 134.9,330 	"/>
	<polygon class="st0" points="139.3,339.1 143.8,342.8 139.4,346.3 134.9,342.7 	"/>
	<polygon class="st0" points="139.3,351.9 143.8,355.5 139.4,359 134.9,355.5 	"/>
	<polygon class="st0" points="139.3,364.6 143.8,368.2 139.4,371.8 134.9,368.2 	"/>
	<polygon class="st0" points="139.3,377.3 143.8,380.9 139.4,384.5 134.9,380.9 	"/>
	<polygon class="st0" points="139.3,390 143.8,393.6 139.4,397.2 134.9,393.6 	"/>
	<polygon class="st0" points="139.3,402.8 143.8,406.4 139.4,409.9 134.9,406.3 	"/>
	<polygon class="st0" points="139.3,415.5 143.8,419.1 139.4,422.7 134.9,419.1 	"/>
	<polygon class="st0" points="139.3,428.2 143.8,431.8 139.4,435.4 134.9,431.8 	"/>
	<polygon class="st0" points="139.3,440.9 143.8,444.5 139.4,448.1 134.9,444.5 	"/>
	<polygon class="st0" points="139.3,453.6 143.8,457.2 139.4,460.8 134.9,457.2 	"/>
	<polygon class="st0" points="139.3,466.4 143.8,470 139.4,473.5 134.9,470 	"/>
	<polygon class="st0" points="139.3,479.1 143.8,482.7 139.4,486.3 134.9,482.7 	"/>
	<polygon class="st0" points="139.3,491.8 143.8,495.4 139.4,499 134.9,495.4 	"/>
	<polygon class="st0" points="130.5,313.7 134.9,317.3 130.5,320.9 126.1,317.3 	"/>
	<polygon class="st0" points="130.5,326.4 134.9,330 130.5,333.6 126.1,330 	"/>
	<polygon class="st0" points="130.5,339.1 134.9,342.8 130.5,346.3 126.1,342.7 	"/>
	<polygon class="st0" points="130.5,351.9 134.9,355.5 130.5,359 126.1,355.5 	"/>
	<polygon class="st0" points="130.5,364.6 134.9,368.2 130.5,371.8 126.1,368.2 	"/>
	<polygon class="st0" points="130.5,377.3 134.9,380.9 130.5,384.5 126.1,380.9 	"/>
	<polygon class="st0" points="130.5,390 134.9,393.6 130.5,397.2 126.1,393.6 	"/>
	<polygon class="st1" points="130.5,402.8 134.9,406.4 130.5,409.9 126.1,406.3 	"/>
	<polygon class="st1" points="130.5,415.5 134.9,419.1 130.5,422.7 126.1,419.1 	"/>
	<polygon class="st1" points="130.5,428.2 134.9,431.8 130.5,435.4 126.1,431.8 	"/>
	<polygon class="st1" points="130.5,440.9 134.9,444.5 130.5,448.1 126.1,444.5 	"/>
	<polygon class="st1" points="130.5,453.6 134.9,457.2 130.5,460.8 126.1,457.2 	"/>
	<polygon class="st1" points="130.5,466.4 134.9,470 130.5,473.5 126.1,470 	"/>
	<polygon class="st2" points="130.5,479.1 134.9,482.7 130.5,486.3 126.1,482.7 	"/>
	<polygon class="st2" points="130.5,491.8 134.9,495.4 130.5,499 126.1,495.4 	"/>
	<polygon class="st2" points="121.7,313.7 126.1,317.3 121.7,320.9 117.2,317.3 	"/>
	<polygon class="st2" points="121.7,326.4 126.1,330 121.7,333.6 117.2,330 	"/>
	<polygon class="st2" points="121.7,339.1 126.1,342.8 121.7,346.3 117.2,342.7 	"/>
	<polygon class="st2" points="121.7,351.9 126.1,355.5 121.7,359 117.2,355.5 	"/>
	<polygon class="st2" points="121.7,364.6 126.1,368.2 121.7,371.8 117.2,368.2 	"/>
	<polygon class="st2" points="121.7,377.3 126.1,380.9 121.7,384.5 117.2,380.9 	"/>
	<polygon class="st2" points="121.7,390 126.1,393.6 121.7,397.2 117.2,393.6 	"/>
	<polygon class="st2" points="121.7,402.8 126.1,406.4 121.7,409.9 117.2,406.3 	"/>
	<polygon class="st2" points="121.7,415.5 126.1,419.1 121.7,422.7 117.2,419.1 	"/>
	<polygon class="st2" points="121.7,428.2 126.1,431.8 121.7,435.4 117.2,431.8 	"/>
	<polygon class="st2" points="121.7,440.9 126.1,444.5 121.7,448.1 117.2,444.5 	"/>
	<polygon class="st2" points="121.7,453.6 126.1,457.2 121.7,460.8 117.2,457.2 	"/>
	<polygon class="st2" points="121.7,466.4 126.1,470 121.7,473.5 117.2,470 	"/>
	<polygon class="st2" points="121.7,479.1 126.1,482.7 121.7,486.3 117.2,482.7 	"/>
	<polygon class="st2" points="121.7,491.8 126.1,495.4 121.7,499 117.2,495.4 	"/>
	<polygon class="st2" points="112.8,313.7 117.3,317.3 112.8,320.9 108.4,317.3 	"/>
	<polygon class="st2" points="112.8,326.4 117.3,330 112.8,333.6 108.4,330 	"/>
	<polygon class="st2" points="112.8,339.1 117.3,342.8 112.8,346.3 108.4,342.7 	"/>
	<polygon class="st2" points="112.8,351.9 117.3,355.5 112.8,359 108.4,355.5 	"/>
	<polygon class="st2" points="112.8,364.6 117.3,368.2 112.8,371.8 108.4,368.2 	"/>
	<polygon class="st2" points="112.8,377.3 117.3,380.9 112.8,384.5 108.4,380.9 	"/>
	<polygon class="st2" points="112.8,390 117.3,393.6 112.8,397.2 108.4,393.6 	"/>
	<polygon class="st2" points="112.8,402.8 117.3,406.4 112.8,409.9 108.4,406.3 	"/>
	<polygon class="st2" points="112.8,415.5 117.3,419.1 112.8,422.7 108.4,419.1 	"/>
	<polygon class="st2" points="112.8,428.2 117.3,431.8 112.8,435.4 108.4,431.8 	"/>
	<polygon class="st2" points="112.8,440.9 117.3,444.5 112.8,448.1 108.4,444.5 	"/>
	<polygon class="st2" points="112.8,453.6 117.3,457.2 112.8,460.8 108.4,457.2 	"/>
	<polygon class="st2" points="112.8,466.4 117.3,470 112.8,473.5 108.4,470 	"/>
	<polygon class="st2" points="112.8,479.1 117.3,482.7 112.8,486.3 108.4,482.7 	"/>
	<polygon class="st2" points="112.8,491.8 117.3,495.4 112.8,499 108.4,495.4 	"/>
	<polygon class="st2" points="104,313.7 108.4,317.3 104,320.9 99.6,317.3 	"/>
	<polygon class="st2" points="104,326.4 108.4,330 104,333.6 99.6,330 	"/>
	<polygon class="st2" points="104,339.1 108.4,342.8 104,346.3 99.6,342.7 	"/>
	<polygon class="st2" points="104,351.9 108.4,355.5 104,359 99.6,355.5 	"/>
	<polygon class="st2" points="104,364.6 108.4,368.2 104,371.8 99.6,368.2 	"/>
	<polygon class="st2" points="104,377.3 108.4,380.9 104,384.5 99.6,380.9 	"/>
	<polygon class="st2" points="104,390 108.4,393.6 104,397.2 99.6,393.6 	"/>
	<polygon class="st2" points="104,402.8 108.4,406.4 104,409.9 99.6,406.3 	"/>
	<polygon class="st2" points="104,415.5 108.4,419.1 104,422.7 99.6,419.1 	"/>
	<polygon class="st2" points="104,428.2 108.4,431.8 104,435.4 99.6,431.8 	"/>
	<polygon class="st2" points="104,440.9 108.4,444.5 104,448.1 99.6,444.5 	"/>
	<polygon class="st2" points="104,453.6 108.4,457.2 104,460.8 99.6,457.2 	"/>
	<polygon class="st2" points="104,466.4 108.4,470 104,473.5 99.6,470 	"/>
	<polygon class="st2" points="104,479.1 108.4,482.7 104,486.3 99.6,482.7 	"/>
	<polygon class="st2" points="104,491.8 108.4,495.4 104,499 99.6,495.4 	"/>
	<polygon class="st2" points="95.2,313.7 99.6,317.3 95.2,320.9 90.7,317.3 	"/>
	<polygon class="st2" points="95.2,326.4 99.6,330 95.2,333.6 90.7,330 	"/>
	<polygon class="st2" points="95.2,339.1 99.6,342.8 95.2,346.3 90.7,342.7 	"/>
	<polygon class="st2" points="95.2,351.9 99.6,355.5 95.2,359 90.7,355.5 	"/>
	<polygon class="st2" points="95.2,364.6 99.6,368.2 95.2,371.8 90.7,368.2 	"/>
	<polygon class="st2" points="95.2,377.3 99.6,380.9 95.2,384.5 90.7,380.9 	"/>
	<polygon class="st2" points="95.2,390 99.6,393.6 95.2,397.2 90.7,393.6 	"/>
	<polygon class="st2" points="95.2,402.8 99.6,406.4 95.2,409.9 90.7,406.3 	"/>
	<polygon class="st2" points="95.2,415.5 99.6,419.1 95.2,422.7 90.7,419.1 	"/>
	<polygon class="st2" points="95.2,428.2 99.6,431.8 95.2,435.4 90.7,431.8 	"/>
	<polygon class="st2" points="95.2,440.9 99.6,444.5 95.2,448.1 90.7,444.5 	"/>
	<polygon class="st2" points="95.2,453.6 99.6,457.2 95.2,460.8 90.7,457.2 	"/>
	<polygon class="st2" points="95.2,466.4 99.6,470 95.2,473.5 90.7,470 	"/>
	<polygon class="st2" points="95.2,479.1 99.6,482.7 95.2,486.3 90.7,482.7 	"/>
	<polygon class="st2" points="95.2,491.8 99.6,495.4 95.2,499 90.7,495.4 	"/>
	<polygon class="st2" points="86.3,313.7 90.8,317.3 86.3,320.9 81.9,317.3 	"/>
	<polygon class="st2" points="86.3,326.4 90.8,330 86.3,333.6 81.9,330 	"/>
	<polygon class="st2" points="86.3,339.1 90.8,342.8 86.3,346.3 81.9,342.7 	"/>
	<polygon class="st2" points="86.3,351.9 90.8,355.5 86.3,359 81.9,355.5 	"/>
	<polygon class="st2" points="86.3,364.6 90.8,368.2 86.3,371.8 81.9,368.2 	"/>
	<polygon class="st2" points="86.3,377.3 90.8,380.9 86.3,384.5 81.9,380.9 	"/>
	<polygon class="st2" points="86.3,390 90.8,393.6 86.3,397.2 81.9,393.6 	"/>
	<polygon class="st2" points="86.3,402.8 90.8,406.4 86.3,409.9 81.9,406.3 	"/>
	<polygon class="st2" points="86.3,415.5 90.8,419.1 86.3,422.7 81.9,419.1 	"/>
	<polygon class="st2" points="86.3,428.2 90.8,431.8 86.3,435.4 81.9,431.8 	"/>
	<polygon class="st2" points="86.3,440.9 90.8,444.5 86.3,448.1 81.9,444.5 	"/>
	<polygon class="st2" points="86.3,453.6 90.8,457.2 86.3,460.8 81.9,457.2 	"/>
	<polygon class="st2" points="86.3,466.4 90.8,470 86.3,473.5 81.9,470 	"/>
	<polygon class="st2" points="86.3,479.1 90.8,482.7 86.3,486.3 81.9,482.7 	"/>
	<polygon class="st2" points="86.3,491.8 90.8,495.4 86.3,499 81.9,495.4 	"/>
	<polygon class="st2" points="77.5,313.7 81.9,317.3 77.5,320.9 73.1,317.3 	"/>
	<polygon class="st2" points="77.5,326.4 81.9,330 77.5,333.6 73.1,330 	"/>
	<polygon class="st2" points="77.5,339.1 81.9,342.8 77.5,346.3 73.1,342.7 	"/>
	<polygon class="st2" points="77.5,351.9 81.9,355.5 77.5,359 73.1,355.5 	"/>
	<polygon class="st2" points="77.5,364.6 81.9,368.2 77.5,371.8 73.1,368.2 	"/>
	<polygon class="st2" points="77.5,377.3 81.9,380.9 77.5,384.5 73.1,380.9 	"/>
	<polygon class="st2" points="77.5,390 81.9,393.6 77.5,397.2 73.1,393.6 	"/>
	<polygon class="st2" points="77.5,402.8 81.9,406.4 77.5,409.9 73.1,406.3 	"/>
	<polygon class="st2" points="77.5,415.5 81.9,419.1 77.5,422.7 73.1,419.1 	"/>
	<polygon class="st2" points="77.5,428.2 81.9,431.8 77.5,435.4 73.1,431.8 	"/>
	<polygon class="st2" points="77.5,440.9 81.9,444.5 77.5,448.1 73.1,444.5 	"/>
	<polygon class="st2" points="77.5,453.6 81.9,457.2 77.5,460.8 73.1,457.2 	"/>
	<polygon class="st2" points="77.5,466.4 81.9,470 77.5,473.5 73.1,470 	"/>
	<polygon class="st2" points="77.5,479.1 81.9,482.7 77.5,486.3 73.1,482.7 	"/>
	<polygon class="st2" points="77.5,491.8 81.9,495.4 77.5,499 73.1,495.4 	"/>
	<polygon class="st2" points="68.6,313.7 73.1,317.3 68.7,320.9 64.2,317.3 	"/>
	<polygon class="st2" points="68.6,326.4 73.1,330 68.7,333.6 64.2,330 	"/>
	<polygon class="st2" points="68.6,339.1 73.1,342.8 68.7,346.3 64.2,342.7 	"/>
	<polygon class="st2" points="68.6,351.9 73.1,355.5 68.7,359 64.2,355.5 	"/>
	<polygon class="st2" points="68.6,364.6 73.1,368.2 68.7,371.8 64.2,368.2 	"/>
	<polygon class="st2" points="68.6,377.3 73.1,380.9 68.7,384.5 64.2,380.9 	"/>
	<polygon class="st2" points="68.6,390 73.1,393.6 68.7,397.2 64.2,393.6 	"/>
	<polygon class="st2" points="68.6,402.8 73.1,406.4 68.7,409.9 64.2,406.3 	"/>
	<polygon class="st2" points="68.6,415.5 73.1,419.1 68.7,422.7 64.2,419.1 	"/>
	<polygon class="st2" points="68.6,428.2 73.1,431.8 68.7,435.4 64.2,431.8 	"/>
	<polygon class="st2" points="68.6,440.9 73.1,444.5 68.7,448.1 64.2,444.5 	"/>
	<polygon class="st2" points="68.6,453.6 73.1,457.2 68.7,460.8 64.2,457.2 	"/>
	<polygon class="st2" points="68.6,466.4 73.1,470 68.7,473.5 64.2,470 	"/>
	<polygon class="st2" points="68.6,479.1 73.1,482.7 68.7,486.3 64.2,482.7 	"/>
	<polygon class="st2" points="68.6,491.8 73.1,495.4 68.7,499 64.2,495.4 	"/>
	<polygon class="st2" points="59.8,313.7 64.2,317.3 59.8,320.9 55.4,317.3 	"/>
	<polygon class="st2" points="59.8,326.4 64.2,330 59.8,333.6 55.4,330 	"/>
	<polygon class="st2" points="59.8,339.1 64.2,342.8 59.8,346.3 55.4,342.7 	"/>
	<polygon class="st2" points="59.8,351.9 64.2,355.5 59.8,359 55.4,355.5 	"/>
	<polygon class="st2" points="59.8,364.6 64.2,368.2 59.8,371.8 55.4,368.2 	"/>
	<polygon class="st2" points="59.8,377.3 64.2,380.9 59.8,384.5 55.4,380.9 	"/>
	<polygon class="st2" points="59.8,390 64.2,393.6 59.8,397.2 55.4,393.6 	"/>
	<polygon class="st2" points="59.8,402.8 64.2,406.4 59.8,409.9 55.4,406.3 	"/>
	<polygon class="st2" points="59.8,415.5 64.2,419.1 59.8,422.7 55.4,419.1 	"/>
	<polygon class="st2" points="59.8,428.2 64.2,431.8 59.8,435.4 55.4,431.8 	"/>
	<polygon class="st2" points="59.8,440.9 64.2,444.5 59.8,448.1 55.4,444.5 	"/>
	<polygon class="st2" points="59.8,453.6 64.2,457.2 59.8,460.8 55.4,457.2 	"/>
	<polygon class="st2" points="59.8,466.4 64.2,470 59.8,473.5 55.4,470 	"/>
	<polygon class="st2" points="59.8,479.1 64.2,482.7 59.8,486.3 55.4,482.7 	"/>
	<polygon class="st2" points="59.8,491.8 64.2,495.4 59.8,499 55.4,495.4 	"/>
	<polygon class="st2" points="51,313.7 55.4,317.3 51,320.9 46.5,317.3 	"/>
	<polygon class="st2" points="51,326.4 55.4,330 51,333.6 46.5,330 	"/>
	<polygon class="st2" points="51,339.1 55.4,342.8 51,346.3 46.5,342.7 	"/>
	<polygon class="st2" points="51,351.9 55.4,355.5 51,359 46.5,355.5 	"/>
	<polygon class="st2" points="51,364.6 55.4,368.2 51,371.8 46.5,368.2 	"/>
	<polygon class="st2" points="51,377.3 55.4,380.9 51,384.5 46.5,380.9 	"/>
	<polygon class="st2" points="51,390 55.4,393.6 51,397.2 46.5,393.6 	"/>
	<polygon class="st2" points="51,402.8 55.4,406.4 51,409.9 46.5,406.3 	"/>
	<polygon class="st2" points="51,415.5 55.4,419.1 51,422.7 46.5,419.1 	"/>
	<polygon class="st2" points="51,428.2 55.4,431.8 51,435.4 46.5,431.8 	"/>
	<polygon class="st2" points="51,440.9 55.4,444.5 51,448.1 46.5,444.5 	"/>
	<polygon class="st2" points="51,453.6 55.4,457.2 51,460.8 46.5,457.2 	"/>
	<polygon class="st2" points="51,466.4 55.4,470 51,473.5 46.5,470 	"/>
	<polygon class="st2" points="51,479.1 55.4,482.7 51,486.3 46.5,482.7 	"/>
	<polygon class="st2" points="51,491.8 55.4,495.4 51,499 46.5,495.4 	"/>
	<polygon class="st2" points="42.1,313.7 46.5,317.3 42.1,320.9 37.7,317.3 	"/>
	<polygon class="st2" points="42.1,326.4 46.5,330 42.1,333.6 37.7,330 	"/>
	<polygon class="st2" points="42.1,339.1 46.5,342.8 42.1,346.3 37.7,342.7 	"/>
	<polygon class="st2" points="42.1,351.9 46.5,355.5 42.1,359 37.7,355.5 	"/>
	<polygon class="st2" points="42.1,364.6 46.5,368.2 42.1,371.8 37.7,368.2 	"/>
	<polygon class="st2" points="42.1,377.3 46.5,380.9 42.1,384.5 37.7,380.9 	"/>
	<polygon class="st2" points="42.1,390 46.5,393.6 42.1,397.2 37.7,393.6 	"/>
	<polygon class="st2" points="42.1,402.8 46.5,406.4 42.1,409.9 37.7,406.3 	"/>
	<polygon class="st2" points="42.1,415.5 46.5,419.1 42.1,422.7 37.7,419.1 	"/>
	<polygon class="st2" points="42.1,428.2 46.5,431.8 42.1,435.4 37.7,431.8 	"/>
	<polygon class="st2" points="42.1,440.9 46.5,444.5 42.1,448.1 37.7,444.5 	"/>
	<polygon class="st2" points="42.1,453.6 46.5,457.2 42.1,460.8 37.7,457.2 	"/>
	<polygon class="st2" points="42.1,466.4 46.5,470 42.1,473.5 37.7,470 	"/>
	<polygon class="st2" points="42.1,479.1 46.5,482.7 42.1,486.3 37.7,482.7 	"/>
	<polygon class="st2" points="42.1,491.8 46.5,495.4 42.1,499 37.7,495.4 	"/>
	<polygon class="st2" points="33.3,313.7 37.7,317.3 33.3,320.9 28.9,317.3 	"/>
	<polygon class="st2" points="33.3,326.4 37.7,330 33.3,333.6 28.9,330 	"/>
	<polygon class="st2" points="33.3,339.1 37.7,342.8 33.3,346.3 28.9,342.7 	"/>
	<polygon class="st2" points="33.3,351.9 37.7,355.5 33.3,359 28.9,355.5 	"/>
	<polygon class="st2" points="33.3,364.6 37.7,368.2 33.3,371.8 28.9,368.2 	"/>
	<polygon class="st2" points="33.3,377.3 37.7,380.9 33.3,384.5 28.9,380.9 	"/>
	<polygon class="st2" points="33.3,390 37.7,393.6 33.3,397.2 28.9,393.6 	"/>
	<polygon class="st2" points="33.3,402.8 37.7,406.4 33.3,409.9 28.9,406.3 	"/>
	<polygon class="st2" points="33.3,415.5 37.7,419.1 33.3,422.7 28.9,419.1 	"/>
	<polygon class="st2" points="33.3,428.2 37.7,431.8 33.3,435.4 28.9,431.8 	"/>
	<polygon class="st2" points="33.3,440.9 37.7,444.5 33.3,448.1 28.9,444.5 	"/>
	<polygon class="st2" points="33.3,453.6 37.7,457.2 33.3,460.8 28.9,457.2 	"/>
	<polygon class="st2" points="33.3,466.4 37.7,470 33.3,473.5 28.9,470 	"/>
	<polygon class="st2" points="33.3,479.1 37.7,482.7 33.3,486.3 28.9,482.7 	"/>
	<polygon class="st2" points="33.3,491.8 37.7,495.4 33.3,499 28.9,495.4 	"/>
	<polygon class="st2" points="24.4,313.7 28.9,317.3 24.5,320.9 20,317.3 	"/>
	<polygon class="st2" points="24.4,326.4 28.9,330 24.5,333.6 20,330 	"/>
	<polygon class="st2" points="24.4,339.1 28.9,342.8 24.5,346.3 20,342.7 	"/>
	<polygon class="st2" points="24.4,351.9 28.9,355.5 24.5,359 20,355.5 	"/>
	<polygon class="st2" points="24.4,364.6 28.9,368.2 24.5,371.8 20,368.2 	"/>
	<polygon class="st2" points="24.4,377.3 28.9,380.9 24.5,384.5 20,380.9 	"/>
	<polygon class="st2" points="24.4,390 28.9,393.6 24.5,397.2 20,393.6 	"/>
	<polygon class="st2" points="24.4,402.8 28.9,406.4 24.5,409.9 20,406.3 	"/>
	<polygon class="st2" points="24.4,415.5 28.9,419.1 24.5,422.7 20,419.1 	"/>
	<polygon class="st2" points="24.4,428.2 28.9,431.8 24.5,435.4 20,431.8 	"/>
	<polygon class="st2" points="24.4,440.9 28.9,444.5 24.5,448.1 20,444.5 	"/>
	<polygon class="st2" points="24.4,453.6 28.9,457.2 24.5,460.8 20,457.2 	"/>
	<polygon class="st2" points="24.4,466.4 28.9,470 24.5,473.5 20,470 	"/>
	<polygon class="st2" points="24.4,479.1 28.9,482.7 24.5,486.3 20,482.7 	"/>
	<polygon class="st2" points="24.4,491.8 28.9,495.4 24.5,499 20,495.4 	"/>
	<polygon class="st2" points="15.6,313.7 20,317.3 15.6,320.9 11.2,317.3 	"/>
	<polygon class="st2" points="15.6,326.4 20,330 15.6,333.6 11.2,330 	"/>
	<polygon class="st2" points="15.6,339.1 20,342.8 15.6,346.3 11.2,342.7 	"/>
	<polygon class="st2" points="15.6,351.9 20,355.5 15.6,359 11.2,355.5 	"/>
	<polygon class="st2" points="15.6,364.6 20,368.2 15.6,371.8 11.2,368.2 	"/>
	<polygon class="st2" points="15.6,377.3 20,380.9 15.6,384.5 11.2,380.9 	"/>
	<polygon class="st2" points="15.6,390 20,393.6 15.6,397.2 11.2,393.6 	"/>
	<polygon class="st2" points="15.6,402.8 20,406.4 15.6,409.9 11.2,406.3 	"/>
	<polygon class="st2" points="15.6,415.5 20,419.1 15.6,422.7 11.2,419.1 	"/>
	<polygon class="st2" points="15.6,428.2 20,431.8 15.6,435.4 11.2,431.8 	"/>
	<polygon class="st2" points="15.6,440.9 20,444.5 15.6,448.1 11.2,444.5 	"/>
	<polygon class="st2" points="15.6,453.6 20,457.2 15.6,460.8 11.2,457.2 	"/>
	<polygon class="st2" points="15.6,466.4 20,470 15.6,473.5 11.2,470 	"/>
	<polygon class="st2" points="15.6,479.1 20,482.7 15.6,486.3 11.2,482.7 	"/>
	<polygon class="st2" points="15.6,491.8 20,495.4 15.6,499 11.2,495.4 	"/>
	<polyline class="st3" points="139.4,506.7 1.8,506.7 1.8,307.8 139.4,307.8 	"/>
	<polyline class="st3" points="139.4,307.8 276,307.8 276,506.7 139.4,506.7 	"/>
	<line class="st4" x1="139.3" y1="307.8" x2="139.3" y2="506.7"/>
	<line class="st4" x1="138.9" y1="22.6" x2="138.9" y2="227.8"/>
	<g class="st5">
		<path class="st6" d="M1.4,292.9v-5.2c0-1.4,0.3-2.4,0.9-3s1.6-1,2.9-1c1.3,0,2.3,0.3,2.9,0.9s0.9,1.6,0.9,2.9v1.9H6.8v-1.6
			c0-0.6-0.1-1.1-0.4-1.4c-0.2-0.3-0.6-0.4-1.1-0.4c-0.5,0-0.9,0.1-1.1,0.4c-0.2,0.3-0.3,0.8-0.3,1.6v4.7c0,0.8,0.1,1.3,0.3,1.6
			c0.2,0.3,0.6,0.4,1.1,0.4c0.5,0,0.9-0.1,1.1-0.4c0.2-0.3,0.4-0.7,0.4-1.4V291h2.4v2.1c0,1.4-0.3,2.3-0.9,2.9s-1.6,0.9-2.9,0.9
			c-1.4,0-2.4-0.3-3-0.9C1.7,295.4,1.4,294.3,1.4,292.9z"/>
		<path class="st6" d="M15.5,296.8v-5.6h-2.5v5.6h-2.4v-13h2.4v5.1h2.5v-5.1h2.4v13H15.5z"/>
		<path class="st6" d="M24.3,296.8l-0.4-3.2h-2l-0.4,3.2h-2.3l1.9-13h3.7l1.9,13H24.3z M23.7,291.7l-0.8-5.7l-0.8,5.7H23.7z"/>
		<path class="st6" d="M32.3,296.8l-2.1-9.1v9.1h-2.3v-13h3.4l1.7,7.1l1.7-7.1h3.4v13h-2.3v-9.1l-2.1,9.1H32.3z"/>
		<path class="st6" d="M39.6,296.8v-13h3.5c1.1,0,1.9,0.2,2.4,0.6s0.7,1,0.7,1.9v1.6c0,0.5-0.2,1-0.5,1.3c-0.3,0.3-0.8,0.5-1.5,0.6
			c0.8,0.1,1.5,0.3,1.8,0.7s0.6,0.9,0.6,1.6v2c0,1-0.3,1.7-0.8,2.1c-0.5,0.4-1.4,0.7-2.7,0.7H39.6z M43,285.7h-1v3.3h1
			c0.3,0,0.5-0.1,0.7-0.2c0.1-0.2,0.2-0.5,0.2-0.9v-1.1c0-0.4-0.1-0.7-0.2-0.9C43.5,285.8,43.3,285.7,43,285.7z M43.2,290.9H42v3.9
			h1.2c0.4,0,0.7-0.1,0.9-0.3c0.2-0.2,0.3-0.5,0.3-1.1v-1.3c0-0.5-0.1-0.8-0.3-1C43.9,291,43.6,290.9,43.2,290.9z"/>
		<path class="st6" d="M50.4,296.8H48v-13h3.5c0.7,0,1.2,0,1.6,0.1c0.4,0.1,0.8,0.3,1,0.5c0.3,0.2,0.4,0.6,0.5,0.9s0.2,0.9,0.2,1.5
			v1.8c0,0.6-0.1,1.1-0.3,1.6s-0.5,0.7-0.9,1l1.3,5.6h-2.5l-1.1-5.2h-1V296.8z M51.5,285.9h-1.1v3.6h1.1c0.4,0,0.6-0.1,0.7-0.2
			c0.1-0.2,0.2-0.5,0.2-0.9v-1.2c0-0.5-0.1-0.8-0.2-1C52.1,286,51.9,285.9,51.5,285.9z"/>
		<path class="st6" d="M56.3,296.8v-13h5.9v2.3h-3.5v3H62v2.2h-3.3v3.4h3.5v2.3H56.3z"/>
		<path class="st6" d="M67.2,296.8v-13h3.6c1.4,0,2.4,0.3,3,0.9s0.9,1.7,0.9,3.1v4.9c0,1.5-0.3,2.5-0.9,3.1s-1.6,0.9-3,0.9H67.2z
			 M70.7,285.9h-1.2v8.7h1.2c0.5,0,0.9-0.2,1.1-0.5c0.2-0.3,0.3-0.9,0.3-1.7v-4.3c0-0.8-0.1-1.4-0.3-1.7
			C71.7,286.1,71.3,285.9,70.7,285.9z"/>
	</g>
	<g class="st5">
		<path class="st6" d="M77.2,296.8v-13h5.9v2.3h-3.5v3h3.3v2.2h-3.3v3.4h3.5v2.3H77.2z"/>
	</g>
	<g class="st5">
		<path class="st6" d="M91.9,292.4v1.4c0,1.1-0.3,1.9-0.9,2.4s-1.5,0.7-2.8,0.7c-1.3,0-2.3-0.3-2.8-0.8s-0.9-1.4-0.9-2.6v-1.4h2.4
			v1.2c0,0.5,0.1,0.9,0.3,1.2c0.2,0.2,0.6,0.3,1,0.3c0.5,0,0.8-0.1,1-0.2c0.2-0.2,0.3-0.5,0.3-0.9v-1.1c0-0.4-0.1-0.6-0.3-0.8
			c-0.2-0.1-0.7-0.3-1.5-0.5c-0.4-0.1-0.8-0.2-1.1-0.3c-0.3-0.1-0.6-0.2-0.8-0.3s-0.5-0.3-0.6-0.4c-0.2-0.1-0.3-0.3-0.4-0.5
			c-0.1-0.2-0.2-0.4-0.2-0.7s-0.1-0.6-0.1-0.9v-1.4c0-1.1,0.3-1.9,0.9-2.4s1.5-0.7,2.8-0.7c1.3,0,2.2,0.3,2.8,0.8
			c0.6,0.5,0.9,1.4,0.9,2.5v1.4h-2.4v-1.2c0-0.5-0.1-0.8-0.3-1.1c-0.2-0.2-0.6-0.3-1-0.3c-0.5,0-0.8,0.1-1,0.3
			c-0.2,0.2-0.3,0.5-0.3,0.9v1.1c0,0.2,0,0.4,0.1,0.6c0.1,0.1,0.3,0.2,0.5,0.3s0.7,0.2,1.3,0.3c0.6,0.1,1.1,0.3,1.5,0.4
			c0.4,0.2,0.7,0.3,1,0.6c0.3,0.2,0.4,0.5,0.5,0.9S91.9,291.9,91.9,292.4z"/>
		<path class="st6" d="M99.2,296.8h-2.4v-13h3.5c0.7,0,1.2,0,1.6,0.1c0.4,0.1,0.8,0.3,1,0.5c0.3,0.2,0.4,0.6,0.5,0.9
			s0.2,0.9,0.2,1.5v1.8c0,0.6-0.1,1.1-0.3,1.6s-0.5,0.7-0.9,1l1.3,5.6h-2.5l-1.1-5.2h-1V296.8z M100.3,285.9h-1.1v3.6h1.1
			c0.4,0,0.6-0.1,0.7-0.2c0.1-0.2,0.2-0.5,0.2-0.9v-1.2c0-0.5-0.1-0.8-0.2-1C100.9,286,100.7,285.9,100.3,285.9z"/>
		<path class="st6" d="M105.1,296.8v-13h5.9v2.3h-3.5v3h3.3v2.2h-3.3v3.4h3.5v2.3H105.1z"/>
		<path class="st6" d="M116,292.4h-1.2v4.4h-2.4v-13h3.6c1.3,0,2.2,0.2,2.7,0.7c0.5,0.5,0.8,1.3,0.8,2.5v2.3c0,1.1-0.3,1.9-0.8,2.4
			C118.2,292.1,117.3,292.4,116,292.4z M116,285.9h-1.2v4.4h1.2c0.4,0,0.7-0.1,0.9-0.3c0.2-0.2,0.3-0.6,0.3-1.1v-1.5
			c0-0.6-0.1-0.9-0.3-1.1C116.7,286,116.4,285.9,116,285.9z"/>
		<path class="st6" d="M123.2,296.8h-2.4v-13h3.5c0.7,0,1.2,0,1.6,0.1c0.4,0.1,0.8,0.3,1,0.5c0.3,0.2,0.4,0.6,0.5,0.9
			s0.2,0.9,0.2,1.5v1.8c0,0.6-0.1,1.1-0.3,1.6s-0.5,0.7-0.9,1l1.3,5.6h-2.5l-1.1-5.2h-1V296.8z M124.3,285.9h-1.1v3.6h1.1
			c0.4,0,0.6-0.1,0.7-0.2c0.1-0.2,0.2-0.5,0.2-0.9v-1.2c0-0.5-0.1-0.8-0.2-1C124.9,286,124.7,285.9,124.3,285.9z"/>
	</g>
	<g class="st5">
		<path class="st6" d="M129.9,296.8v-13h5.9v2.3h-3.5v3h3.3v2.2h-3.3v3.4h3.5v2.3H129.9z M133.5,283.3H132l0.3-1h2.2L133.5,283.3z"
			/>
	</g>
	<g class="st5">
		<path class="st6" d="M144.6,292.4v1.4c0,1.1-0.3,1.9-0.9,2.4s-1.5,0.7-2.8,0.7c-1.3,0-2.3-0.3-2.8-0.8s-0.9-1.4-0.9-2.6v-1.4h2.4
			v1.2c0,0.5,0.1,0.9,0.3,1.2c0.2,0.2,0.6,0.3,1,0.3c0.5,0,0.8-0.1,1-0.2s0.3-0.5,0.3-0.9v-1.1c0-0.4-0.1-0.6-0.3-0.8
			s-0.7-0.3-1.5-0.5c-0.4-0.1-0.8-0.2-1.1-0.3c-0.3-0.1-0.6-0.2-0.8-0.3s-0.5-0.3-0.6-0.4c-0.2-0.1-0.3-0.3-0.4-0.5
			c-0.1-0.2-0.2-0.4-0.2-0.7s-0.1-0.6-0.1-0.9v-1.4c0-1.1,0.3-1.9,0.9-2.4s1.5-0.7,2.8-0.7c1.3,0,2.2,0.3,2.8,0.8s0.9,1.4,0.9,2.5
			v1.4h-2.4v-1.2c0-0.5-0.1-0.8-0.3-1.1s-0.6-0.3-1-0.3s-0.8,0.1-1,0.3c-0.2,0.2-0.3,0.5-0.3,0.9v1.1c0,0.2,0,0.4,0.1,0.6
			c0.1,0.1,0.3,0.2,0.5,0.3c0.3,0.1,0.7,0.2,1.3,0.3c0.6,0.1,1.1,0.3,1.5,0.4s0.7,0.3,1,0.6s0.4,0.5,0.5,0.9
			S144.6,291.9,144.6,292.4z"/>
		<path class="st6" d="M146,296.8v-13h5.9v2.3h-3.5v3h3.3v2.2h-3.3v3.4h3.5v2.3H146z"/>
		<path class="st6" d="M158.5,296.8l-3-7.3v7.3h-2.2v-13h2.1l3,7.3v-7.3h2.2v13H158.5z"/>
	</g>
	<g class="st5">
		<path class="st6" d="M168.8,286.1h-2v10.7h-2.4v-10.7h-2v-2.4h6.4V286.1z"/>
	</g>
	<g class="st5">
		<path class="st6" d="M174.1,296.8l-0.4-3.2h-2l-0.4,3.2h-2.3l1.9-13h3.7l1.9,13H174.1z M173.4,291.7l-0.8-5.7l-0.8,5.7H173.4z"/>
		<path class="st6" d="M182.9,296.8l-3-7.3v7.3h-2.2v-13h2.1l3,7.3v-7.3h2.2v13H182.9z"/>
	</g>
	<g class="st5">
		<path class="st6" d="M193.1,286.1h-2v10.7h-2.4v-10.7h-2v-2.4h6.4V286.1z"/>
	</g>
	<g class="st5">
		<path class="st6" d="M201.8,292.4v1.4c0,1.1-0.3,1.9-0.9,2.4s-1.5,0.7-2.8,0.7c-1.3,0-2.3-0.3-2.8-0.8s-0.9-1.4-0.9-2.6v-1.4h2.4
			v1.2c0,0.5,0.1,0.9,0.3,1.2s0.6,0.3,1,0.3c0.5,0,0.8-0.1,1-0.2s0.3-0.5,0.3-0.9v-1.1c0-0.4-0.1-0.6-0.3-0.8s-0.7-0.3-1.5-0.5
			c-0.4-0.1-0.8-0.2-1.1-0.3s-0.6-0.2-0.8-0.3s-0.5-0.3-0.6-0.4s-0.3-0.3-0.4-0.5s-0.2-0.4-0.2-0.7s-0.1-0.6-0.1-0.9v-1.4
			c0-1.1,0.3-1.9,0.9-2.4s1.5-0.7,2.8-0.7c1.3,0,2.2,0.3,2.8,0.8s0.9,1.4,0.9,2.5v1.4h-2.4v-1.2c0-0.5-0.1-0.8-0.3-1.1
			s-0.6-0.3-1-0.3s-0.8,0.1-1,0.3s-0.3,0.5-0.3,0.9v1.1c0,0.2,0,0.4,0.1,0.6s0.3,0.2,0.5,0.3s0.7,0.2,1.3,0.3
			c0.6,0.1,1.1,0.3,1.5,0.4s0.7,0.3,1,0.6s0.4,0.5,0.5,0.9S201.8,291.9,201.8,292.4z"/>
	</g>
	<g class="st5">
		<path class="st6" d="M11.7,10.5v1.4c0,1.1-0.3,1.9-0.9,2.4S9.2,15,8,15c-1.3,0-2.3-0.3-2.8-0.8s-0.9-1.4-0.9-2.6v-1.4h2.4v1.2
			c0,0.5,0.1,0.9,0.3,1.2c0.2,0.2,0.6,0.3,1,0.3c0.5,0,0.8-0.1,1-0.2c0.2-0.2,0.3-0.5,0.3-0.9v-1.1c0-0.4-0.1-0.6-0.3-0.8
			C8.7,9.7,8.2,9.5,7.4,9.4C7,9.2,6.7,9.1,6.4,9.1C6.1,9,5.8,8.9,5.6,8.7S5.1,8.5,4.9,8.3C4.8,8.2,4.7,8,4.5,7.8
			C4.4,7.6,4.3,7.4,4.3,7.1S4.2,6.6,4.2,6.2V4.9c0-1.1,0.3-1.9,0.9-2.4S6.6,1.8,8,1.8c1.3,0,2.2,0.3,2.8,0.8
			c0.6,0.5,0.9,1.4,0.9,2.5v1.4H9.3V5.3c0-0.5-0.1-0.8-0.3-1.1C8.7,4,8.4,3.9,7.9,3.9c-0.5,0-0.8,0.1-1,0.3C6.7,4.3,6.6,4.6,6.6,5
			v1.1c0,0.2,0,0.4,0.1,0.6C6.8,6.8,7,6.9,7.3,7S8,7.2,8.5,7.4C9.2,7.5,9.6,7.6,10,7.8c0.4,0.2,0.7,0.3,1,0.6
			c0.3,0.2,0.4,0.5,0.5,0.9S11.7,10,11.7,10.5z"/>
		<path class="st6" d="M13.1,14.9v-13H19v2.3h-3.5v3h3.3v2.2h-3.3v3.4H19v2.3H13.1z M16.7,1.4h-1.5l0.3-1h2.2L16.7,1.4z"/>
		<path class="st6" d="M25.6,14.9l-3-7.3v7.3h-2.2v-13h2.1l3,7.3V1.9h2.2v13H25.6z"/>
	</g>
	<g class="st5">
		<path class="st6" d="M34.5,14.9l-0.4-3.2h-2l-0.4,3.2h-2.3l1.9-13H35l1.9,13H34.5z M33.9,9.8l-0.8-5.7l-0.8,5.7H33.9z"/>
	</g>
	<g class="st5">
		<path class="st6" d="M43.3,4.2h-2v10.7h-2.4V4.2h-2V1.9h6.4V4.2z"/>
	</g>
	<g class="st5">
		<path class="st7" d="M184,14h1.2V6.4H184V5.5h3.7c3.2,0,4.8,2,4.8,4.6v0.1c0,2.6-1.5,4.7-4.8,4.7H184V14z M187.6,14
			c2.4,0,3.6-1.5,3.6-3.8v-0.1c0-2.2-1.1-3.7-3.7-3.7h-1.3V14H187.6z"/>
	</g>
	<g class="st5">
		<path class="st7" d="M193.4,11.5v-0.1c0-2.1,1.3-3.5,3.2-3.5c1.6,0,3.1,1,3.1,3.4v0.4h-5.2c0.1,1.6,0.8,2.4,2.2,2.4
			c1.1,0,1.7-0.4,1.8-1.2h1.1c-0.2,1.4-1.4,2.1-2.9,2.1C194.8,15,193.4,13.6,193.4,11.5z M198.6,10.8c-0.1-1.4-0.8-2-2-2
			c-1.1,0-1.9,0.8-2.1,2H198.6z M197,4.9h1.4L197,6.8h-0.8L197,4.9z"/>
	</g>
	<g class="st5">
		<path class="st7" d="M200.7,14.9V14h1V8.9h-1V8h2.1v1.1c0.3-0.7,1-1.3,2-1.3c0.9,0,1.7,0.4,2,1.4c0.5-1,1.4-1.4,2.3-1.4
			c1.2,0,2.3,0.7,2.3,2.7V14h1v0.9h-3V14h1v-3.5c0-1.2-0.5-1.7-1.4-1.7c-0.9,0-1.8,0.6-1.8,1.8V14h1v0.9h-3.1V14h1v-3.5
			c0-1.2-0.5-1.7-1.4-1.7c-0.9,0-1.8,0.6-1.8,1.8V14h1v0.9H200.7z"/>
	</g>
	<g class="st5">
		<path class="st7" d="M213,11.5v-0.1c0-2.1,1.4-3.5,3.4-3.5s3.4,1.4,3.4,3.5v0.1c0,2.1-1.4,3.5-3.4,3.5C214.4,15,213,13.5,213,11.5
			z M218.6,11.5L218.6,11.5c0-1.7-0.9-2.7-2.3-2.7c-1.4,0-2.3,1-2.3,2.6v0.1c0,1.6,0.9,2.6,2.3,2.6
			C217.8,14.1,218.6,13.1,218.6,11.5z"/>
		<path class="st7" d="M226.1,8h1v2.3h-0.9c-0.2-0.9-0.9-1.5-2-1.5c-1.3,0-2.2,1-2.2,2.6v0.1c0,1.7,0.9,2.6,2.3,2.6
			c1,0,1.9-0.6,2-1.7h1c-0.1,1.5-1.3,2.6-3,2.6c-1.9,0-3.4-1.4-3.4-3.5v-0.1c0-2.1,1.5-3.5,3.3-3.5c1.2,0,1.7,0.5,2,1V8z"/>
	</g>
	<g class="st5">
		<path class="st7" d="M228.2,14.9V14h1V8.9h-1V8h2.1v1.3c0.3-0.7,1-1.4,2.5-1.4V9c-1.5,0-2.5,0.5-2.5,2.1V14h1.1v0.9H228.2z"/>
	</g>
	<g class="st5">
		<path class="st7" d="M235.7,15c-1.3,0-2.2-0.6-2.2-2c0-1.6,1.7-2.1,3.4-2.1h1v-0.5c0-1.2-0.5-1.6-1.5-1.6c-0.9,0-1.4,0.3-1.5,1.2
			h-1.1c0.1-1.6,1.4-2.1,2.7-2.1c1.3,0,2.5,0.5,2.5,2.5V14h0.9v0.9h-2v-0.9C237.3,14.7,236.6,15,235.7,15z M237.8,12.5v-0.9h-0.9
			c-1.4,0-2.3,0.4-2.3,1.4c0,0.6,0.3,1.2,1.3,1.2C236.9,14.1,237.8,13.5,237.8,12.5z"/>
	</g>
	<g class="st5">
		<path class="st7" d="M241.2,13.2V8.9h-1V8h1V6.4h1.1V8h1.8v0.9h-1.8v4.1c0,0.7,0.3,1,1,1c0.3,0,0.6-0.1,0.9-0.2v0.9
			c-0.3,0.1-0.6,0.2-1,0.2C241.8,15,241.2,14.2,241.2,13.2z"/>
	</g>
	<g class="st5">
		<path class="st7" d="M244.9,11.5v-0.1c0-2.1,1.3-3.5,3.2-3.5c1.6,0,3.1,1,3.1,3.4v0.4h-5.2c0.1,1.6,0.8,2.4,2.2,2.4
			c1.1,0,1.7-0.4,1.8-1.2h1.1c-0.2,1.4-1.4,2.1-2.9,2.1C246.3,15,244.9,13.6,244.9,11.5z M250.1,10.8c-0.1-1.4-0.8-2-2-2
			c-1.1,0-1.9,0.8-2.1,2H250.1z"/>
	</g>
	<g class="st5">
		<path class="st7" d="M253.2,14v0.8h-0.9v-2.3h0.9c0.2,0.8,0.8,1.5,1.8,1.5c0.9,0,1.4-0.4,1.4-1.1c0-0.7-0.6-1-1.6-1.2
			c-1.8-0.3-2.4-1-2.4-2.1c0-1.2,1-1.8,2.2-1.8c1,0,1.5,0.4,1.7,0.8V8h0.9v2h-0.9c-0.2-0.8-0.8-1.2-1.6-1.2c-0.8,0-1.3,0.3-1.3,0.9
			c0,0.6,0.3,0.9,1.6,1.2c1.4,0.3,2.4,0.6,2.4,2.1c0,1.2-0.8,2.1-2.5,2.1C253.9,15,253.3,14.5,253.2,14z"/>
	</g>
	<g class="st5">
		<path class="st7" d="M264.6,14.9V14h1.3v-1.3h-4.7v-0.5l4.3-6.7h1.5v6.3h1.3v0.9h-1.3V14h1.2v0.9H264.6z M265.9,11.8V6.3l-3.5,5.4
			H265.9z"/>
	</g>
	<g class="st5">
		<path class="st7" d="M270.1,7.9H269V5.5h6.4v0.4l-3.4,9h-1.2l3.3-8.5h-4V7.9z"/>
	</g>
	<g class="st5">
		<path class="st8" d="M5.4,247.2v-0.9h1.2v-7.6H5.4v-0.9h4.1c1.8,0,3.2,0.7,3.2,2.6v0.1c0,1.5-1,2.3-2.3,2.6l2.3,3.3h0.8v0.9H12
			l-2.8-4.1H7.7v3.2H9v0.9H5.4z M9.5,242.2c1.3,0,2.1-0.6,2.1-1.8v-0.1c0-1.2-0.8-1.7-2.1-1.7H7.7v3.5H9.5z"/>
	</g>
	<g class="st5">
		<path class="st8" d="M14,243.8v-0.1c0-2.1,1.3-3.5,3.2-3.5c1.6,0,3.1,1,3.1,3.4v0.4h-5.2c0.1,1.6,0.8,2.4,2.2,2.4
			c1.1,0,1.7-0.4,1.8-1.2h1.1c-0.2,1.4-1.4,2.1-2.9,2.1C15.4,247.3,14,245.9,14,243.8z M19.2,243.1c-0.1-1.4-0.8-2-2-2
			c-1.1,0-1.9,0.8-2.1,2H19.2z M17.5,237.2h1.4l-1.4,1.9h-0.8L17.5,237.2z"/>
	</g>
	<g class="st5">
		<path class="st8" d="M21.2,249.6v-0.9h1v-7.5h-1v-0.9h2.1v1.2c0.4-0.7,1.3-1.3,2.3-1.3c1.8,0,3.1,1.3,3.1,3.5v0.1
			c0,2.1-1.2,3.6-3.1,3.6c-1.1,0-1.9-0.6-2.3-1.3v2.7h1.1v0.9H21.2z M27.6,243.8v-0.1c0-1.7-1-2.6-2.1-2.6c-1.3,0-2.3,0.9-2.3,2.6
			v0.1c0,1.7,0.9,2.6,2.3,2.6C26.8,246.4,27.6,245.5,27.6,243.8z"/>
	</g>
	<g class="st5">
		<path class="st8" d="M32.7,247.3c-1.4,0-2.4-0.7-2.4-2.7v-3.4h-1v-0.9h2.1v4.3c0,1.2,0.5,1.7,1.6,1.7c0.9,0,1.8-0.6,1.8-1.9v-3.3
			h-1v-0.9h2.1v6h1v0.9h-2.1V246C34.5,246.7,33.8,247.3,32.7,247.3z"/>
	</g>
	<g class="st5">
		<path class="st8" d="M39.6,246v1.2h-2.1v-0.9h1v-8.4h-1V237h2.1v4.5c0.4-0.7,1.3-1.3,2.3-1.3c1.8,0,3.1,1.3,3.1,3.5v0.1
			c0,2.1-1.2,3.6-3.1,3.6C40.8,247.3,40,246.8,39.6,246z M44,243.8v-0.1c0-1.7-1-2.6-2.1-2.6c-1.3,0-2.3,0.8-2.3,2.6v0.1
			c0,1.8,0.9,2.6,2.3,2.6C43.2,246.4,44,245.5,44,243.8z"/>
	</g>
	<g class="st5">
		<path class="st8" d="M45.9,247.2v-0.9h1v-8.4h-1V237H48v9.3h1v0.9H45.9z"/>
		<path class="st8" d="M49.7,247.2v-0.9h1v-5.1h-1v-0.9h2.1v6h1v0.9H49.7z M50.4,238.1c0-0.4,0.3-0.7,0.8-0.7s0.8,0.3,0.8,0.7
			s-0.3,0.8-0.8,0.8S50.4,238.6,50.4,238.1z"/>
	</g>
	<g class="st5">
		<path class="st8" d="M58.9,240.3h1v2.3h-0.9c-0.2-0.9-0.9-1.5-2-1.5c-1.3,0-2.2,1-2.2,2.6v0.1c0,1.7,0.9,2.6,2.3,2.6
			c1,0,1.9-0.6,2-1.7h1c-0.1,1.5-1.3,2.6-3,2.6c-1.9,0-3.4-1.4-3.4-3.5v-0.1c0-2.1,1.5-3.5,3.3-3.5c1.2,0,1.7,0.5,2,1V240.3z"/>
	</g>
	<g class="st5">
		<path class="st8" d="M63.2,247.3c-1.3,0-2.2-0.6-2.2-2c0-1.6,1.7-2.1,3.4-2.1h1v-0.5c0-1.2-0.5-1.6-1.5-1.6
			c-0.9,0-1.4,0.3-1.5,1.2h-1.1c0.1-1.6,1.4-2.1,2.7-2.1c1.3,0,2.5,0.5,2.5,2.5v3.7h0.9v0.9h-2v-0.9C64.9,247,64.2,247.3,63.2,247.3
			z M65.3,244.8v-0.9h-0.9c-1.4,0-2.3,0.4-2.3,1.4c0,0.6,0.3,1.2,1.3,1.2C64.5,246.4,65.3,245.9,65.3,244.8z"/>
		<path class="st8" d="M68.1,247.2v-0.9h1v-5.1h-1v-0.9h2.1v6h1v0.9H68.1z M68.8,238.1c0-0.4,0.3-0.7,0.8-0.7s0.8,0.3,0.8,0.7
			s-0.3,0.8-0.8,0.8S68.8,238.6,68.8,238.1z"/>
		<path class="st8" d="M71.8,247.2v-0.9h1v-5.1h-1v-0.9h2.1v1.2c0.3-0.6,1.1-1.3,2.2-1.3c1.4,0,2.4,0.7,2.4,2.7v3.4h1v0.9h-3v-0.9h1
			v-3.5c0-1.2-0.5-1.7-1.6-1.7c-1,0-1.9,0.6-1.9,1.9v3.3h1v0.9H71.8z"/>
		<path class="st8" d="M81.2,246.4v0.8h-0.9v-2.3h0.9c0.2,0.8,0.8,1.5,1.8,1.5c0.9,0,1.4-0.4,1.4-1.1c0-0.7-0.6-1-1.6-1.2
			c-1.8-0.3-2.4-1-2.4-2.1c0-1.2,1-1.8,2.2-1.8c1,0,1.5,0.4,1.7,0.8v-0.7h0.9v2h-0.9c-0.2-0.8-0.8-1.2-1.6-1.2
			c-0.8,0-1.3,0.3-1.3,0.9c0,0.6,0.3,0.9,1.6,1.2c1.4,0.3,2.4,0.6,2.4,2.1c0,1.2-0.8,2.1-2.5,2.1C81.9,247.3,81.4,246.8,81.2,246.4z
			"/>
	</g>
	<g class="st5">
		<path class="st8" d="M89.5,244.7h1.1c0.2,1,0.6,1.7,2,1.7c1.3,0,2.1-0.9,2.1-2.3c0-1.3-0.8-2.2-2-2.2c-1.1,0-1.7,0.3-2.2,0.9H90
			v-5.1h5.3v2h-1.1v-1H91v3c0.4-0.4,1-0.6,1.9-0.6c1.7,0,2.9,1.2,2.9,3.1c0,2-1.4,3.2-3.2,3.2C90.6,247.3,89.6,246.2,89.5,244.7z"/>
	</g>
	<g class="st5">
		<path class="st8" d="M96.8,244.4h1.1c0.1,1.1,0.8,2,2.3,2c1.5,0,2.1-0.7,2.1-1.8c0-1.2-0.7-1.8-2-1.8h-0.7v-1h0.7
			c1.2,0,1.8-0.6,1.8-1.6c0-0.9-0.6-1.6-1.7-1.6c-1.2,0-2,0.7-2.1,1.8h-1c0.1-1.5,1.3-2.7,3.1-2.7s2.8,1.2,2.8,2.5
			c0,1.1-0.6,1.7-1.5,2.1c1.1,0.3,1.8,1.1,1.8,2.4c0,1.7-1.4,2.7-3.3,2.7C98.1,247.3,96.9,246.1,96.8,244.4z"/>
	</g>
	<g class="st5">
		<path class="st7" d="M259.3,299h1.1v2.4h-6.4v-0.5l3.7-3.7c0.9-0.9,1.4-1.8,1.4-2.7c0-1.1-0.6-1.7-1.7-1.7c-1.1,0-1.8,0.6-2,2.1
			h-1.1c0.1-1.8,1.3-3,3-3c1.7,0,2.8,1,2.8,2.7c0,1.2-0.7,2.3-1.9,3.4l-2.6,2.6h3.7V299z"/>
		<path class="st7" d="M261.4,298.6h1.1c0.1,1.1,0.8,2,2.3,2c1.5,0,2.1-0.7,2.1-1.8c0-1.2-0.7-1.8-2-1.8h-0.7v-1h0.7
			c1.2,0,1.8-0.6,1.8-1.6c0-0.9-0.6-1.6-1.7-1.6c-1.2,0-2,0.7-2.1,1.8h-1c0.1-1.5,1.3-2.7,3.1-2.7s2.8,1.2,2.8,2.5
			c0,1.1-0.6,1.7-1.5,2.1c1.1,0.3,1.8,1.1,1.8,2.4c0,1.7-1.4,2.7-3.3,2.7C262.7,301.5,261.5,300.3,261.4,298.6z"/>
	</g>
	<g class="st5">
		<path class="st7" d="M274.2,299h1.1v2.4h-6.4v-0.5l3.7-3.7c0.9-0.9,1.4-1.8,1.4-2.7c0-1.1-0.6-1.7-1.7-1.7c-1.1,0-1.8,0.6-2,2.1
			h-1.1c0.1-1.8,1.3-3,3-3c1.7,0,2.8,1,2.8,2.7c0,1.2-0.7,2.3-1.9,3.4l-2.6,2.6h3.7V299z"/>
	</g>
	<g class="st5">
		<path class="st8" d="M3.3,524.5v-0.9h1.9v-7.4l-2.1,1.5v-1.1l2.2-1.6h1.1v8.5h1.8v0.9H3.3z"/>
	</g>
	<g class="st5">
		<path class="st8" d="M9,522.2h1.1c0.2,0.9,0.7,1.5,2,1.5c1.5,0,2.4-1.2,2.4-3.7c-0.4,0.8-1.4,1.3-2.4,1.3c-1.8,0-3.1-1.3-3.1-3.1
			c0-1.9,1.3-3.2,3.3-3.2c2.2,0,3.4,1.5,3.4,4.2v0.6c0,3.1-1.3,4.9-3.5,4.9C10.3,524.6,9.3,523.7,9,522.2z M14.4,518.2
			c0-1.5-0.9-2.4-2.2-2.4c-1.2,0-2.1,0.9-2.1,2.2c0,1.4,0.8,2.2,2.1,2.2C13.5,520.3,14.4,519.5,14.4,518.2z"/>
	</g>
	<g class="st5">
		<path class="st8" d="M17.5,517.5h-1.1v-2.4h6.4v0.4l-3.4,9h-1.2l3.3-8.5h-4V517.5z"/>
	</g>
	<polygon class="st8" points="145.1,175.7 152.7,183.1 160.5,175.5 152.9,168.1 	"/>
	<polygon class="st8" points="145.1,195.9 152.7,203.3 160.5,195.7 152.9,188.3 	"/>
	<polygon class="st8" points="145.1,216.1 152.7,223.4 160.5,215.9 152.9,208.5 	"/>
	<polygon class="st8" points="116.9,34.5 124.5,41.8 132.3,34.2 124.7,26.9 	"/>
	<polygon class="st8" points="116.9,54.6 124.5,62 132.3,54.4 124.7,47.1 	"/>
	<polygon class="st8" points="116.9,74.8 124.5,82.2 132.3,74.6 124.7,67.2 	"/>
	<polygon class="st8" points="116.9,95 124.5,102.4 132.3,94.8 124.7,87.4 	"/>
	<polygon class="st8" points="116.9,115.2 124.5,122.6 132.3,115 124.7,107.6 	"/>
	<polygon class="st8" points="116.9,135.4 124.5,142.7 132.3,135.1 124.7,127.8 	"/>
	<polygon class="st8" points="116.9,155.5 124.5,162.9 132.3,155.3 124.7,148 	"/>
	<polygon class="st8" points="116.9,175.7 124.5,183.1 132.3,175.5 124.7,168.1 	"/>
	<polygon class="st8" points="116.9,195.9 124.5,203.3 132.3,195.7 124.7,188.3 	"/>
	<polygon class="st8" points="116.9,216.1 124.5,223.4 132.3,215.9 124.7,208.5 	"/>
	<polygon class="st8" points="88.7,34.5 96.3,41.8 104.1,34.2 96.5,26.9 	"/>
	<polygon class="st8" points="88.7,54.6 96.3,62 104.1,54.4 96.5,47.1 	"/>
	<polygon class="st8" points="88.7,74.8 96.3,82.2 104.1,74.6 96.5,67.2 	"/>
	<polygon class="st8" points="88.7,95 96.3,102.4 104.1,94.8 96.5,87.4 	"/>
	<polygon class="st8" points="88.7,115.2 96.3,122.6 104.1,115 96.5,107.6 	"/>
	<polygon class="st8" points="88.7,135.4 96.3,142.7 104.1,135.1 96.5,127.8 	"/>
	<polygon class="st8" points="88.7,155.5 96.3,162.9 104.1,155.3 96.5,148 	"/>
	<polygon class="st8" points="88.7,175.7 96.3,183.1 104.1,175.5 96.5,168.1 	"/>
	<polygon class="st8" points="88.7,195.9 96.3,203.3 104.1,195.7 96.5,188.3 	"/>
	<polygon class="st8" points="88.7,216.1 96.3,223.4 104.1,215.9 96.5,208.5 	"/>
	<polygon class="st8" points="60.5,34.5 68.1,41.8 75.9,34.2 68.3,26.9 	"/>
	<polygon class="st8" points="60.5,54.6 68.1,62 75.9,54.4 68.3,47.1 	"/>
	<polygon class="st8" points="60.5,74.8 68.1,82.2 75.9,74.6 68.3,67.2 	"/>
	<polygon class="st8" points="60.5,95 68.1,102.4 75.9,94.8 68.3,87.4 	"/>
	<polygon class="st8" points="60.5,115.2 68.1,122.6 75.9,115 68.3,107.6 	"/>
	<polygon class="st8" points="60.5,135.4 68.1,142.7 75.9,135.1 68.3,127.8 	"/>
	<polygon class="st8" points="60.5,155.5 68.1,162.9 75.9,155.3 68.3,148 	"/>
	<polygon class="st8" points="60.5,175.7 68.1,183.1 75.9,175.5 68.3,168.1 	"/>
	<polygon class="st8" points="60.5,195.9 68.1,203.3 75.9,195.7 68.3,188.3 	"/>
	<polygon class="st8" points="60.5,216.1 68.1,223.4 75.9,215.9 68.3,208.5 	"/>
	<polygon class="st8" points="32.2,34.5 39.8,41.8 47.7,34.2 40.1,26.9 	"/>
	<polygon class="st8" points="32.2,54.6 39.8,62 47.7,54.4 40.1,47.1 	"/>
	<polygon class="st8" points="32.2,74.8 39.8,82.2 47.7,74.6 40.1,67.2 	"/>
	<polygon class="st8" points="32.2,95 39.8,102.4 47.7,94.8 40.1,87.4 	"/>
	<polygon class="st8" points="32.2,115.2 39.8,122.6 47.7,115 40.1,107.6 	"/>
	<polygon class="st8" points="32.2,135.4 39.8,142.7 47.7,135.1 40.1,127.8 	"/>
	<polygon class="st8" points="32.2,155.5 39.8,162.9 47.7,155.3 40.1,148 	"/>
	<polygon class="st8" points="32.2,175.7 39.8,183.1 47.7,175.5 40.1,168.1 	"/>
	<polygon class="st8" points="32.2,195.9 39.8,203.3 47.7,195.7 40.1,188.3 	"/>
	<polygon class="st8" points="32.2,216.1 39.8,223.4 47.7,215.9 40.1,208.5 	"/>
	<polygon class="st8" points="4,34.5 11.6,41.8 19.5,34.2 11.9,26.9 	"/>
	<polygon class="st8" points="4,54.6 11.6,62 19.5,54.4 11.9,47.1 	"/>
	<polygon class="st8" points="4,74.8 11.6,82.2 19.5,74.6 11.9,67.2 	"/>
	<polygon class="st8" points="4,95 11.6,102.4 19.5,94.8 11.9,87.4 	"/>
	<polygon class="st8" points="4,115.2 11.6,122.6 19.5,115 11.9,107.6 	"/>
	<polygon class="st8" points="4,135.4 11.6,142.7 19.5,135.1 11.9,127.8 	"/>
	<polygon class="st8" points="4,155.5 11.6,162.9 19.5,155.3 11.9,148 	"/>
	<polygon class="st8" points="4,175.7 11.6,183.1 19.5,175.5 11.9,168.1 	"/>
	<polygon class="st8" points="4,195.9 11.6,203.3 19.5,195.7 11.9,188.3 	"/>
	<polygon class="st8" points="4,216.1 11.6,223.4 19.5,215.9 11.9,208.5 	"/>
	<polygon class="st7" points="258,34.5 265.6,41.8 273.4,34.2 265.8,26.9 	"/>
	<polygon class="st9" points="258,34.5 265.6,41.8 273.4,34.2 265.8,26.9 	"/>
	<polygon class="st7" points="258,54.6 265.6,62 273.4,54.4 265.8,47.1 	"/>
	<polygon class="st9" points="258,54.6 265.6,62 273.4,54.4 265.8,47.1 	"/>
	<polygon class="st7" points="258,74.8 265.6,82.2 273.4,74.6 265.8,67.2 	"/>
	<polygon class="st9" points="258,74.8 265.6,82.2 273.4,74.6 265.8,67.2 	"/>
	<polygon class="st7" points="258,95 265.6,102.4 273.4,94.8 265.8,87.4 	"/>
	<polygon class="st9" points="258,95 265.6,102.4 273.4,94.8 265.8,87.4 	"/>
	<polygon class="st7" points="258,115.2 265.6,122.6 273.4,115 265.8,107.6 	"/>
	<polygon class="st9" points="258,115.2 265.6,122.6 273.4,115 265.8,107.6 	"/>
	<polygon class="st7" points="258,135.4 265.6,142.7 273.4,135.1 265.8,127.8 	"/>
	<polygon class="st9" points="258,135.4 265.6,142.7 273.4,135.1 265.8,127.8 	"/>
	<polygon class="st7" points="258,155.5 265.6,162.9 273.4,155.3 265.8,148 	"/>
	<polygon class="st9" points="258,155.5 265.6,162.9 273.4,155.3 265.8,148 	"/>
	<polygon class="st7" points="258,175.7 265.6,183.1 273.4,175.5 265.8,168.1 	"/>
	<polygon class="st9" points="258,175.7 265.6,183.1 273.4,175.5 265.8,168.1 	"/>
	<polygon class="st7" points="258,195.9 265.6,203.3 273.4,195.7 265.8,188.3 	"/>
	<polygon class="st9" points="258,195.9 265.6,203.3 273.4,195.7 265.8,188.3 	"/>
	<polygon class="st7" points="258,216.1 265.6,223.4 273.4,215.9 265.8,208.5 	"/>
	<polygon class="st9" points="258,216.1 265.6,223.4 273.4,215.9 265.8,208.5 	"/>
	<polygon class="st7" points="229.8,34.5 237.4,41.8 245.2,34.2 237.6,26.9 	"/>
	<polygon class="st9" points="229.8,34.5 237.4,41.8 245.2,34.2 237.6,26.9 	"/>
	<polygon class="st7" points="229.8,54.6 237.4,62 245.2,54.4 237.6,47.1 	"/>
	<polygon class="st9" points="229.8,54.6 237.4,62 245.2,54.4 237.6,47.1 	"/>
	<polygon class="st7" points="229.8,74.8 237.4,82.2 245.2,74.6 237.6,67.2 	"/>
	<polygon class="st9" points="229.8,74.8 237.4,82.2 245.2,74.6 237.6,67.2 	"/>
	<polygon class="st7" points="229.8,95 237.4,102.4 245.2,94.8 237.6,87.4 	"/>
	<polygon class="st9" points="229.8,95 237.4,102.4 245.2,94.8 237.6,87.4 	"/>
	<polygon class="st7" points="229.8,115.2 237.4,122.6 245.2,115 237.6,107.6 	"/>
	<polygon class="st9" points="229.8,115.2 237.4,122.6 245.2,115 237.6,107.6 	"/>
	<polygon class="st7" points="229.8,135.4 237.4,142.7 245.2,135.1 237.6,127.8 	"/>
	<polygon class="st9" points="229.8,135.4 237.4,142.7 245.2,135.1 237.6,127.8 	"/>
	<polygon class="st7" points="229.8,155.5 237.4,162.9 245.2,155.3 237.6,148 	"/>
	<polygon class="st9" points="229.8,155.5 237.4,162.9 245.2,155.3 237.6,148 	"/>
	<polygon class="st7" points="229.8,175.7 237.4,183.1 245.2,175.5 237.6,168.1 	"/>
	<polygon class="st9" points="229.8,175.7 237.4,183.1 245.2,175.5 237.6,168.1 	"/>
	<polygon class="st7" points="229.8,195.9 237.4,203.3 245.2,195.7 237.6,188.3 	"/>
	<polygon class="st9" points="229.8,195.9 237.4,203.3 245.2,195.7 237.6,188.3 	"/>
	<polygon class="st7" points="229.8,216.1 237.4,223.4 245.2,215.9 237.6,208.5 	"/>
	<polygon class="st9" points="229.8,216.1 237.4,223.4 245.2,215.9 237.6,208.5 	"/>
	<polygon class="st7" points="201.5,34.5 209.1,41.8 217,34.2 209.4,26.9 	"/>
	<polygon class="st9" points="201.5,34.5 209.1,41.8 217,34.2 209.4,26.9 	"/>
	<polygon class="st7" points="201.5,54.6 209.1,62 217,54.4 209.4,47.1 	"/>
	<polygon class="st9" points="201.5,54.6 209.1,62 217,54.4 209.4,47.1 	"/>
	<polygon class="st7" points="201.5,74.8 209.1,82.2 217,74.6 209.4,67.2 	"/>
	<polygon class="st9" points="201.5,74.8 209.1,82.2 217,74.6 209.4,67.2 	"/>
	<polygon class="st7" points="201.5,95 209.1,102.4 217,94.8 209.4,87.4 	"/>
	<polygon class="st9" points="201.5,95 209.1,102.4 217,94.8 209.4,87.4 	"/>
	<polygon class="st7" points="201.5,115.2 209.1,122.6 217,115 209.4,107.6 	"/>
	<polygon class="st9" points="201.5,115.2 209.1,122.6 217,115 209.4,107.6 	"/>
	<polygon class="st7" points="201.5,135.4 209.1,142.7 217,135.1 209.4,127.8 	"/>
	<polygon class="st9" points="201.5,135.4 209.1,142.7 217,135.1 209.4,127.8 	"/>
	<polygon class="st7" points="201.5,155.5 209.1,162.9 217,155.3 209.4,148 	"/>
	<polygon class="st9" points="201.5,155.5 209.1,162.9 217,155.3 209.4,148 	"/>
	<polygon class="st7" points="201.5,175.7 209.1,183.1 217,175.5 209.4,168.1 	"/>
	<polygon class="st9" points="201.5,175.7 209.1,183.1 217,175.5 209.4,168.1 	"/>
	<polygon class="st7" points="201.5,195.9 209.1,203.3 217,195.7 209.4,188.3 	"/>
	<polygon class="st9" points="201.5,195.9 209.1,203.3 217,195.7 209.4,188.3 	"/>
	<polygon class="st7" points="201.5,216.1 209.1,223.4 217,215.9 209.4,208.5 	"/>
	<polygon class="st9" points="201.5,216.1 209.1,223.4 217,215.9 209.4,208.5 	"/>
	<polygon class="st7" points="173.3,34.5 180.9,41.8 188.8,34.2 181.1,26.9 	"/>
	<polygon class="st9" points="173.3,34.5 180.9,41.8 188.8,34.2 181.1,26.9 	"/>
	<polygon class="st7" points="173.3,54.6 180.9,62 188.8,54.4 181.1,47.1 	"/>
	<polygon class="st9" points="173.3,54.6 180.9,62 188.8,54.4 181.1,47.1 	"/>
	<polygon class="st7" points="173.3,74.8 180.9,82.2 188.8,74.6 181.1,67.2 	"/>
	<polygon class="st9" points="173.3,74.8 180.9,82.2 188.8,74.6 181.1,67.2 	"/>
	<polygon class="st7" points="173.3,95 180.9,102.4 188.8,94.8 181.1,87.4 	"/>
	<polygon class="st9" points="173.3,95 180.9,102.4 188.8,94.8 181.1,87.4 	"/>
	<polygon class="st7" points="173.3,115.2 180.9,122.6 188.8,115 181.1,107.6 	"/>
	<polygon class="st9" points="173.3,115.2 180.9,122.6 188.8,115 181.1,107.6 	"/>
	<polygon class="st7" points="173.3,135.4 180.9,142.7 188.8,135.1 181.1,127.8 	"/>
	<polygon class="st9" points="173.3,135.4 180.9,142.7 188.8,135.1 181.1,127.8 	"/>
	<polygon class="st7" points="173.3,155.5 180.9,162.9 188.8,155.3 181.1,148 	"/>
	<polygon class="st9" points="173.3,155.5 180.9,162.9 188.8,155.3 181.1,148 	"/>
	<polygon class="st7" points="173.3,175.7 180.9,183.1 188.8,175.5 181.1,168.1 	"/>
	<polygon class="st9" points="173.3,175.7 180.9,183.1 188.8,175.5 181.1,168.1 	"/>
	<polygon class="st7" points="173.3,195.9 180.9,203.3 188.8,195.7 181.1,188.3 	"/>
	<polygon class="st9" points="173.3,195.9 180.9,203.3 188.8,195.7 181.1,188.3 	"/>
	<polygon class="st7" points="173.3,216.1 180.9,223.4 188.8,215.9 181.1,208.5 	"/>
	<polygon class="st9" points="173.3,216.1 180.9,223.4 188.8,215.9 181.1,208.5 	"/>
	<polygon class="st7" points="145.1,34.5 152.7,41.8 160.5,34.2 152.9,26.9 	"/>
	<polygon class="st9" points="145.1,34.5 152.7,41.8 160.5,34.2 152.9,26.9 	"/>
	<polygon class="st7" points="145.1,54.6 152.7,62 160.5,54.4 152.9,47.1 	"/>
	<polygon class="st9" points="145.1,54.6 152.7,62 160.5,54.4 152.9,47.1 	"/>
	<polygon class="st7" points="145.1,74.8 152.7,82.2 160.5,74.6 152.9,67.2 	"/>
	<polygon class="st9" points="145.1,74.8 152.7,82.2 160.5,74.6 152.9,67.2 	"/>
	<polygon class="st7" points="145.1,95 152.7,102.4 160.5,94.8 152.9,87.4 	"/>
	<polygon class="st9" points="145.1,95 152.7,102.4 160.5,94.8 152.9,87.4 	"/>
	<polygon class="st7" points="145.1,115.2 152.7,122.6 160.5,115 152.9,107.6 	"/>
	<polygon class="st9" points="145.1,115.2 152.7,122.6 160.5,115 152.9,107.6 	"/>
	<polygon class="st7" points="145.1,135.4 152.7,142.7 160.5,135.1 152.9,127.8 	"/>
	<polygon class="st9" points="145.1,135.4 152.7,142.7 160.5,135.1 152.9,127.8 	"/>
	<polygon class="st7" points="145.1,155.5 152.7,162.9 160.5,155.3 152.9,148 	"/>
	<polygon class="st9" points="145.1,155.5 152.7,162.9 160.5,155.3 152.9,148 	"/>
	<polygon class="st9" points="145.1,175.7 152.7,183.1 160.5,175.5 152.9,168.1 	"/>
	<polygon class="st9" points="145.1,195.9 152.7,203.3 160.5,195.7 152.9,188.3 	"/>
	<polygon class="st9" points="145.1,216.1 152.7,223.4 160.5,215.9 152.9,208.5 	"/>
	<polygon class="st9" points="116.9,34.5 124.5,41.8 132.3,34.2 124.7,26.9 	"/>
	<polygon class="st9" points="116.9,54.6 124.5,62 132.3,54.4 124.7,47.1 	"/>
	<polygon class="st9" points="116.9,74.8 124.5,82.2 132.3,74.6 124.7,67.2 	"/>
	<polygon class="st9" points="116.9,95 124.5,102.4 132.3,94.8 124.7,87.4 	"/>
	<polygon class="st9" points="116.9,115.2 124.5,122.6 132.3,115 124.7,107.6 	"/>
	<polygon class="st9" points="116.9,135.4 124.5,142.7 132.3,135.1 124.7,127.8 	"/>
	<polygon class="st9" points="116.9,155.5 124.5,162.9 132.3,155.3 124.7,148 	"/>
	<polygon class="st9" points="116.9,175.7 124.5,183.1 132.3,175.5 124.7,168.1 	"/>
	<polygon class="st9" points="116.9,195.9 124.5,203.3 132.3,195.7 124.7,188.3 	"/>
	<polygon class="st9" points="116.9,216.1 124.5,223.4 132.3,215.9 124.7,208.5 	"/>
	<polygon class="st9" points="88.7,34.5 96.3,41.8 104.1,34.2 96.5,26.9 	"/>
	<polygon class="st9" points="88.7,54.6 96.3,62 104.1,54.4 96.5,47.1 	"/>
	<polygon class="st9" points="88.7,74.8 96.3,82.2 104.1,74.6 96.5,67.2 	"/>
	<polygon class="st9" points="88.7,95 96.3,102.4 104.1,94.8 96.5,87.4 	"/>
	<polygon class="st9" points="88.7,115.2 96.3,122.6 104.1,115 96.5,107.6 	"/>
	<polygon class="st9" points="88.7,135.4 96.3,142.7 104.1,135.1 96.5,127.8 	"/>
	<polygon class="st9" points="88.7,155.5 96.3,162.9 104.1,155.3 96.5,148 	"/>
	<polygon class="st9" points="88.7,175.7 96.3,183.1 104.1,175.5 96.5,168.1 	"/>
	<polygon class="st9" points="88.7,195.9 96.3,203.3 104.1,195.7 96.5,188.3 	"/>
	<polygon class="st9" points="88.7,216.1 96.3,223.4 104.1,215.9 96.5,208.5 	"/>
	<polygon class="st9" points="60.5,34.5 68.1,41.8 75.9,34.2 68.3,26.9 	"/>
	<polygon class="st9" points="60.5,54.6 68.1,62 75.9,54.4 68.3,47.1 	"/>
	<polygon class="st9" points="60.5,74.8 68.1,82.2 75.9,74.6 68.3,67.2 	"/>
	<polygon class="st9" points="60.5,95 68.1,102.4 75.9,94.8 68.3,87.4 	"/>
	<polygon class="st9" points="60.5,115.2 68.1,122.6 75.9,115 68.3,107.6 	"/>
	<polygon class="st9" points="60.5,135.4 68.1,142.7 75.9,135.1 68.3,127.8 	"/>
	<polygon class="st9" points="60.5,155.5 68.1,162.9 75.9,155.3 68.3,148 	"/>
	<polygon class="st9" points="60.5,175.7 68.1,183.1 75.9,175.5 68.3,168.1 	"/>
	<polygon class="st9" points="60.5,195.9 68.1,203.3 75.9,195.7 68.3,188.3 	"/>
	<polygon class="st9" points="60.5,216.1 68.1,223.4 75.9,215.9 68.3,208.5 	"/>
	<polygon class="st9" points="32.2,34.5 39.8,41.8 47.7,34.2 40.1,26.9 	"/>
	<polygon class="st9" points="32.2,54.6 39.8,62 47.7,54.4 40.1,47.1 	"/>
	<polygon class="st9" points="32.2,74.8 39.8,82.2 47.7,74.6 40.1,67.2 	"/>
	<polygon class="st9" points="32.2,95 39.8,102.4 47.7,94.8 40.1,87.4 	"/>
	<polygon class="st9" points="32.2,115.2 39.8,122.6 47.7,115 40.1,107.6 	"/>
	<polygon class="st9" points="32.2,135.4 39.8,142.7 47.7,135.1 40.1,127.8 	"/>
	<polygon class="st9" points="32.2,155.5 39.8,162.9 47.7,155.3 40.1,148 	"/>
	<polygon class="st9" points="32.2,175.7 39.8,183.1 47.7,175.5 40.1,168.1 	"/>
	<polygon class="st9" points="32.2,195.9 39.8,203.3 47.7,195.7 40.1,188.3 	"/>
	<polygon class="st9" points="32.2,216.1 39.8,223.4 47.7,215.9 40.1,208.5 	"/>
	<polygon class="st9" points="4,34.5 11.6,41.8 19.5,34.2 11.9,26.9 	"/>
	<polygon class="st9" points="4,54.6 11.6,62 19.5,54.4 11.9,47.1 	"/>
	<polygon class="st9" points="4,74.8 11.6,82.2 19.5,74.6 11.9,67.2 	"/>
	<polygon class="st9" points="4,95 11.6,102.4 19.5,94.8 11.9,87.4 	"/>
	<polygon class="st9" points="4,115.2 11.6,122.6 19.5,115 11.9,107.6 	"/>
	<polygon class="st9" points="4,135.4 11.6,142.7 19.5,135.1 11.9,127.8 	"/>
	<polygon class="st9" points="4,155.5 11.6,162.9 19.5,155.3 11.9,148 	"/>
	<polygon class="st9" points="4,175.7 11.6,183.1 19.5,175.5 11.9,168.1 	"/>
	<polygon class="st9" points="4,195.9 11.6,203.3 19.5,195.7 11.9,188.3 	"/>
	<polygon class="st9" points="4,216.1 11.6,223.4 19.5,215.9 11.9,208.5 	"/>
	<polygon class="st3" points="197.1,124.3 167.9,124.3 167.9,22.3 138.8,22.3 138.7,22.3 82.3,22.3 82.3,227 138.7,227 138.7,227 
		167.9,227 167.9,227 197.1,227 	"/>
</g>
</svg>
