<?xml version="1.0" encoding="utf-8"?>
<!-- Generator: Adobe Illustrator 24.0.1, SVG Export Plug-In . SVG Version: 6.00 Build 0)  -->
<svg version="1.1" id="Calque_1" xmlns="http://www.w3.org/2000/svg" xmlns:xlink="http://www.w3.org/1999/xlink" x="0px" y="0px"
	 viewBox="0 0 370.4 658.1" style="enable-background:new 0 0 370.4 658.1;" xml:space="preserve">
<style type="text/css">
	.st0{enable-background:new    ;}
	.st1{fill:#1D1D1B;}
	.st2{fill:#E30613;stroke:#FFFFFF;stroke-width:1.68;}
	.st3{fill:#009FE3;stroke:#FFFFFF;stroke-width:1.68;}
	.st4{fill:none;stroke:#1D1D1B;stroke-width:1.12;}
	.st5{fill:none;stroke:#1D1D1B;stroke-width:2.24;}
	.st6{fill:#E30613;}
	.st7{fill:none;stroke:#FFFFFF;stroke-width:1.19;}
	.st8{fill:#009FE3;}
	.st9{fill:#FFFFFF;}
	.st10{fill:none;stroke:#009FE3;stroke-width:3;stroke-linecap:round;stroke-linejoin:round;stroke-dasharray:0,5;}
	.st11{fill:none;stroke:#E30613;stroke-width:3;stroke-linecap:round;stroke-linejoin:round;stroke-dasharray:0,5;}
</style>
<g id="charte">
</g>
<g id="Calque_1_1_">
	<title>mobile_controle</title>
	<g id="Mode_Isolation">
		<g class="st0">
			<path class="st1" d="M179,9.7h-1.2v4.4h-2.4v-13h3.6c1.3,0,2.2,0.2,2.7,0.7s0.8,1.3,0.8,2.5v2.3c0,1.1-0.3,1.9-0.8,2.4
				S180.3,9.7,179,9.7z M179,3.3h-1.2v4.4h1.2c0.4,0,0.7-0.1,0.9-0.3c0.2-0.2,0.3-0.6,0.3-1.1V4.7c0-0.6-0.1-0.9-0.3-1.1
				C179.6,3.4,179.4,3.3,179,3.3z"/>
		</g>
		<g class="st0">
			<path class="st1" d="M188.1,14.1l-0.4-3.2h-2l-0.4,3.2H183l1.9-13h3.7l1.9,13H188.1z M187.5,9l-0.8-5.7L185.9,9H187.5z"/>
		</g>
		<g class="st0">
			<path class="st1" d="M194.2,14.1h-2.4v-13h3.5c0.7,0,1.2,0,1.6,0.1c0.4,0.1,0.8,0.3,1,0.5c0.3,0.3,0.5,0.6,0.6,1s0.2,0.9,0.2,1.5
				V6c0,0.6-0.1,1.1-0.3,1.6s-0.5,0.7-0.9,1l1.3,5.6h-2.4L195.3,9h-1v5.1H194.2z M195.3,3.3h-1.1v3.6h1.1c0.4,0,0.6-0.1,0.7-0.2
				c0.1-0.2,0.2-0.5,0.2-0.9V4.5c0-0.5-0.1-0.8-0.2-1S195.7,3.3,195.3,3.3z"/>
		</g>
		<g class="st0">
			<path class="st1" d="M206.4,3.5h-2v10.7H202V3.5h-2V1.1h6.4V3.5z"/>
			<path class="st1" d="M208,14.1v-13h2.4v13H208z"/>
		</g>
		<g class="st0">
			<path class="st1" d="M179.8,35.1l-2.1-9.1v9.1h-2.3V22h3.4l1.7,7.1l1.8-7.1h3.4v13h-2.3v-9l-2.1,9.1H179.8z"/>
			<path class="st1" d="M192.2,35.1l-0.4-3.2h-2l-0.4,3.2h-2.3l1.9-13h3.7l1.9,13H192.2z M191.6,30l-0.8-5.7L190,30H191.6z"/>
			<path class="st1" d="M195.8,35.1v-2.4h0.6c0.9,0,1.3-0.5,1.3-1.6V22h2.4v9.7c0,0.6-0.1,1.2-0.2,1.6c-0.2,0.4-0.4,0.8-0.7,1
				s-0.6,0.4-1,0.5s-0.8,0.2-1.3,0.2L195.8,35.1L195.8,35.1z"/>
			<path class="st1" d="M209.4,31.1c0,1.4-0.3,2.4-0.9,3c-0.6,0.7-1.6,1-2.9,1s-2.3-0.3-2.9-1c-0.6-0.7-0.9-1.7-0.9-3v-5.2
				c0-1.4,0.3-2.4,0.9-3c0.6-0.7,1.6-1,2.9-1s2.3,0.3,2.9,1c0.6,0.6,0.9,1.7,0.9,3V31.1z M207,26.2c0-0.8-0.1-1.3-0.3-1.6
				s-0.6-0.4-1.1-0.4s-0.9,0.1-1.1,0.4s-0.3,0.8-0.3,1.6v4.7c0,0.8,0.1,1.3,0.3,1.6s0.6,0.4,1.1,0.4s0.9-0.1,1.1-0.4
				s0.3-0.8,0.3-1.6V26.2z"/>
			<path class="st1" d="M213.4,35.1H211V22h3.5c0.7,0,1.2,0,1.6,0.1c0.4,0.1,0.8,0.3,1,0.5c0.3,0.2,0.4,0.6,0.5,0.9s0.2,0.9,0.2,1.5
				v1.8c0,0.6-0.1,1.1-0.3,1.6s-0.5,0.7-0.9,1l1.3,5.6h-2.5l-1-5.1h-1L213.4,35.1L213.4,35.1z M214.5,24.2h-1.1v3.6h1.1
				c0.4,0,0.6-0.1,0.7-0.2c0.1-0.2,0.2-0.5,0.2-0.9v-1.2c0-0.5-0.1-0.8-0.2-1S214.8,24.2,214.5,24.2z"/>
			<path class="st1" d="M219.4,35.1V22h2.4v13L219.4,35.1L219.4,35.1z"/>
		</g>
		<g class="st0">
			<path class="st1" d="M229.7,24.4h-2v10.7h-2.4V24.4h-2V22h6.4V24.4z"/>
		</g>
		<g class="st0">
			<path class="st1" d="M235,35.1l-0.4-3.2h-2l-0.4,3.2h-2.3l1.9-13h3.6l1.9,13H235z M234.3,30l-0.8-5.7l-0.7,5.7H234.3z"/>
			<path class="st1" d="M238.7,35.1V22h2.4v13L238.7,35.1L238.7,35.1z"/>
			<path class="st1" d="M245.1,35.1h-2.4V22h3.5c0.7,0,1.2,0,1.6,0.1c0.4,0.1,0.8,0.3,1,0.5c0.3,0.2,0.4,0.6,0.5,0.9
				s0.2,0.9,0.2,1.5v1.8c0,0.6-0.1,1.1-0.3,1.6s-0.5,0.7-0.9,1l1.3,5.6h-2.5l-1.1-5.2h-1L245.1,35.1L245.1,35.1z M246.2,24.2h-1.1
				v3.6h1.1c0.4,0,0.6-0.1,0.7-0.2c0.1-0.2,0.2-0.5,0.2-0.9v-1.2c0-0.5-0.1-0.8-0.2-1S246.5,24.2,246.2,24.2z"/>
			<path class="st1" d="M251.1,35.1V22h5.9v2.3h-3.5v3h3.3v2.2h-3.3v3.4h3.5v2.3h-5.9V35.1z"/>
			<path class="st1" d="M260.6,35.1h-2.2v-2h2.1v2H260.6z"/>
			<path class="st1" d="M264.1,35.1H262v-2h2.1V35.1z"/>
		</g>
		<g class="st0">
			<path class="st1" d="M267.6,35.1h-2.1v-2h2.1V35.1z"/>
		</g>
		<rect x="183.4" y="593.8" class="st2" width="28.6" height="31.5"/>
		<rect x="183.5" y="121.7" class="st3" width="28.6" height="31.5"/>
		<rect x="183.4" y="153.1" class="st3" width="28.6" height="31.5"/>
		<rect x="183.4" y="184.6" class="st3" width="28.6" height="31.5"/>
		<rect x="183.4" y="216.1" class="st3" width="28.6" height="31.5"/>
		<rect x="183.4" y="247.6" class="st2" width="28.6" height="31.5"/>
		<rect x="183.4" y="279" class="st2" width="28.6" height="31.5"/>
		<rect x="183.4" y="310.5" class="st2" width="28.6" height="31.5"/>
		<rect x="183.4" y="342" class="st3" width="28.6" height="31.5"/>
		<rect x="183.4" y="373.5" class="st2" width="28.6" height="31.5"/>
		<rect x="183.4" y="404.9" class="st2" width="28.6" height="31.5"/>
		<rect x="183.4" y="436.4" class="st3" width="28.6" height="31.5"/>
		<rect x="183.4" y="467.9" class="st3" width="28.6" height="31.5"/>
		<rect x="183.4" y="499.3" class="st3" width="28.6" height="31.5"/>
		<rect x="183.4" y="530.8" class="st3" width="28.6" height="31.5"/>
		<rect x="183.4" y="562.3" class="st2" width="28.6" height="31.5"/>
		<line class="st4" x1="68" y1="121.7" x2="77.3" y2="121.7"/>
		<line class="st4" x1="68" y1="153.1" x2="77.3" y2="153.1"/>
		<line class="st4" x1="68" y1="184.6" x2="77.3" y2="184.6"/>
		<line class="st4" x1="68" y1="216.1" x2="77.3" y2="216.1"/>
		<line class="st5" x1="47.2" y1="247.6" x2="77.3" y2="247.6"/>
		<line class="st4" x1="68" y1="279" x2="77.3" y2="279"/>
		<line class="st4" x1="68" y1="310.5" x2="77.3" y2="310.5"/>
		<line class="st4" x1="68" y1="342" x2="77.3" y2="342"/>
		<line class="st4" x1="68" y1="373.5" x2="77.3" y2="373.5"/>
		<line class="st5" x1="47.2" y1="404.9" x2="77.3" y2="404.9"/>
		<line class="st4" x1="68" y1="436.4" x2="77.3" y2="436.4"/>
		<line class="st4" x1="68" y1="467.9" x2="77.3" y2="467.9"/>
		<line class="st4" x1="68" y1="499.3" x2="77.3" y2="499.3"/>
		<line class="st4" x1="68" y1="530.8" x2="77.3" y2="530.8"/>
		<line class="st5" x1="47.2" y1="562.3" x2="77.3" y2="562.3"/>
		<line class="st4" x1="68" y1="593.8" x2="77.3" y2="593.8"/>
		<line class="st4" x1="68" y1="625.2" x2="77.3" y2="625.2"/>
		<rect x="278.3" y="593.8" class="st2" width="28.6" height="31.5"/>
		<rect x="183.4" y="624.8" class="st2" width="28.6" height="31.5"/>
		<rect x="278.3" y="624.8" class="st3" width="28.6" height="31.5"/>
		<g>
			<ellipse class="st6" cx="91.4" cy="609.5" rx="6.9" ry="6.7"/>
			<ellipse class="st7" cx="91.4" cy="609.5" rx="6.9" ry="6.7"/>
			<ellipse class="st6" cx="91.4" cy="137.4" rx="6.9" ry="6.7"/>
			<ellipse class="st7" cx="91.4" cy="137.4" rx="6.9" ry="6.7"/>
			<ellipse class="st6" cx="91.4" cy="168.9" rx="6.9" ry="6.7"/>
			<ellipse class="st7" cx="91.4" cy="168.9" rx="6.9" ry="6.7"/>
			<ellipse class="st6" cx="91.4" cy="200.4" rx="6.9" ry="6.7"/>
			<ellipse class="st7" cx="91.4" cy="200.4" rx="6.9" ry="6.7"/>
			<ellipse class="st8" cx="91.4" cy="231.8" rx="6.9" ry="6.7"/>
			<ellipse class="st7" cx="91.4" cy="231.8" rx="6.9" ry="6.7"/>
			<ellipse class="st8" cx="91.4" cy="263.3" rx="6.9" ry="6.7"/>
			<ellipse class="st7" cx="91.4" cy="263.3" rx="6.9" ry="6.7"/>
			<ellipse class="st8" cx="91.4" cy="294.8" rx="6.9" ry="6.7"/>
			<ellipse class="st7" cx="91.4" cy="294.8" rx="6.9" ry="6.7"/>
			<ellipse class="st8" cx="91.4" cy="326.2" rx="6.9" ry="6.7"/>
			<ellipse class="st7" cx="91.4" cy="326.2" rx="6.9" ry="6.7"/>
			<ellipse class="st6" cx="91.4" cy="357.7" rx="6.9" ry="6.7"/>
			<ellipse class="st7" cx="91.4" cy="357.7" rx="6.9" ry="6.7"/>
			<ellipse class="st6" cx="91.4" cy="389.2" rx="6.9" ry="6.7"/>
			<ellipse class="st7" cx="91.4" cy="389.2" rx="6.9" ry="6.7"/>
			<ellipse class="st6" cx="91.4" cy="420.7" rx="6.9" ry="6.7"/>
			<ellipse class="st7" cx="91.4" cy="420.7" rx="6.9" ry="6.7"/>
			<ellipse class="st6" cx="91.4" cy="452.1" rx="6.9" ry="6.7"/>
			<ellipse class="st7" cx="91.4" cy="452.1" rx="6.9" ry="6.7"/>
			<ellipse class="st8" cx="91.4" cy="483.6" rx="6.9" ry="6.7"/>
			<ellipse class="st7" cx="91.4" cy="483.6" rx="6.9" ry="6.7"/>
			<ellipse class="st8" cx="91.4" cy="515.1" rx="6.9" ry="6.7"/>
			<ellipse class="st7" cx="91.4" cy="515.1" rx="6.9" ry="6.7"/>
			<ellipse class="st8" cx="91.4" cy="546.5" rx="6.9" ry="6.7"/>
			<ellipse class="st7" cx="91.4" cy="546.5" rx="6.9" ry="6.7"/>
			<ellipse class="st8" cx="91.4" cy="578" rx="6.9" ry="6.7"/>
			<ellipse class="st7" cx="91.4" cy="578" rx="6.9" ry="6.7"/>
			<ellipse class="st6" cx="92.2" cy="640.9" rx="6.1" ry="6.7"/>
		</g>
		<rect x="278.3" y="121.7" class="st3" width="28.6" height="31.5"/>
		<rect x="278.3" y="153.2" class="st3" width="28.6" height="31.5"/>
		<rect x="278.3" y="184.6" class="st3" width="28.6" height="31.5"/>
		<rect x="278.3" y="216.1" class="st3" width="28.6" height="31.5"/>
		<rect x="278.3" y="247.6" class="st2" width="28.6" height="31.5"/>
		<rect x="278.3" y="279" class="st2" width="28.6" height="31.5"/>
		<rect x="278.3" y="310.5" class="st2" width="28.6" height="31.5"/>
		<rect x="278.3" y="342" class="st2" width="28.6" height="31.5"/>
		<rect x="278.3" y="373.5" class="st2" width="28.6" height="31.5"/>
		<rect x="278.3" y="404.9" class="st2" width="28.6" height="31.5"/>
		<rect x="278.3" y="436.4" class="st3" width="28.6" height="31.5"/>
		<rect x="278.3" y="467.9" class="st3" width="28.6" height="31.5"/>
		<rect x="278.3" y="499.3" class="st2" width="28.6" height="31.5"/>
		<rect x="278.3" y="530.8" class="st2" width="28.6" height="31.5"/>
		<rect x="278.3" y="562.3" class="st2" width="28.6" height="31.5"/>
		<g class="st0">
			<path class="st1" d="M37.9,124.1c0-1.3,0.8-2.1,1.8-2.5c-0.9-0.4-1.5-1.1-1.5-2c0-1.6,1.5-2.5,3-2.5s3,1,3,2.5c0,1-0.6,1.6-1.5,2
				c1.1,0.4,1.8,1.2,1.8,2.5c0,1.9-1.7,2.9-3.3,2.9C39.7,127,37.9,126,37.9,124.1z M43.4,124c0-1.3-0.9-1.9-2.1-1.9
				s-2.2,0.7-2.2,1.9c0,1.3,1,1.9,2.1,1.9C42.4,126,43.4,125.3,43.4,124z M43,119.6c0-0.9-0.8-1.6-1.8-1.6s-1.8,0.6-1.8,1.6
				s0.8,1.6,1.8,1.6C42.3,121.2,43,120.6,43,119.6z"/>
		</g>
		<g class="st0">
			<path class="st1" d="M46.5,119.6h-1.1v-2.4H52v0.4l-3.5,9.2h-1.2l3.4-8.7h-4.1v1.5H46.5z"/>
		</g>
		<g class="st0">
			<path class="st1" d="M37.4,155.6c0-1.3,0.8-2.1,1.8-2.5c-0.9-0.4-1.5-1.1-1.5-2c0-1.6,1.5-2.5,3-2.5s3,1,3,2.5c0,1-0.6,1.6-1.5,2
				c1.1,0.4,1.8,1.2,1.8,2.5c0,1.9-1.7,2.9-3.3,2.9C39.2,158.4,37.4,157.5,37.4,155.6z M42.9,155.5c0-1.3-0.9-1.9-2.1-1.9
				s-2.2,0.7-2.2,1.9c0,1.3,1,1.9,2.1,1.9C41.9,157.5,42.9,156.8,42.9,155.5z M42.5,151c0-0.9-0.8-1.6-1.8-1.6s-1.8,0.6-1.8,1.6
				s0.8,1.6,1.8,1.6C41.8,152.7,42.5,152.1,42.5,151z"/>
		</g>
		<g class="st0">
			<path class="st1" d="M45.3,155.9h1.1c0.2,0.9,0.8,1.5,2,1.5c1.5,0,2.4-1.3,2.5-3.8c-0.5,0.8-1.4,1.3-2.5,1.3
				c-1.9,0-3.2-1.3-3.2-3.2s1.3-3.2,3.3-3.2c2.3,0,3.5,1.5,3.5,4.3v0.6c0,3.2-1.3,5-3.6,5C46.6,158.4,45.6,157.5,45.3,155.9z
				 M50.8,151.9c0-1.6-0.9-2.5-2.2-2.5s-2.1,0.9-2.1,2.3c0,1.4,0.8,2.3,2.1,2.3C49.9,154,50.8,153.2,50.8,151.9z"/>
		</g>
		<g class="st0">
			<path class="st1" d="M46.3,189.8v-0.9h1.9v-7.6l-2.2,1.6v-1.1l2.2-1.6h1.1v8.7h1.9v0.9L46.3,189.8L46.3,189.8z"/>
		</g>
		<g class="st0">
			<path class="st1" d="M45.2,218.4h1.1c0.1,1.1,0.8,2,2.3,2s2.2-0.7,2.2-1.9s-0.7-1.9-2-1.9H48v-1h0.7c1.3,0,1.8-0.6,1.8-1.6
				c0-0.9-0.6-1.6-1.8-1.6s-2,0.7-2.1,1.8h-1c0.1-1.5,1.3-2.8,3.2-2.8s2.9,1.2,2.9,2.5c0,1.1-0.6,1.7-1.5,2.1
				c1.1,0.3,1.9,1.1,1.9,2.4c0,1.8-1.4,2.8-3.4,2.8C46.5,221.4,45.3,220.1,45.2,218.4z"/>
		</g>
		<g class="st0">
			<path class="st1" d="M37.8,283.4H39c0.2,0.9,0.8,1.5,2,1.5c1.5,0,2.4-1.3,2.5-3.8c-0.5,0.8-1.4,1.3-2.5,1.3
				c-1.9,0-3.2-1.3-3.2-3.2c0-1.9,1.3-3.2,3.3-3.2c2.3,0,3.5,1.5,3.5,4.3v0.6c0,3.2-1.3,5-3.6,5C39.2,285.8,38.1,284.9,37.8,283.4z
				 M43.3,279.3c0-1.6-0.9-2.5-2.2-2.5s-2.1,0.9-2.1,2.3s0.8,2.3,2.1,2.3C42.4,281.4,43.3,280.6,43.3,279.3z"/>
		</g>
		<g class="st0">
			<path class="st1" d="M37.3,187.5h1.2c0.2,0.9,0.8,1.5,2,1.5c1.5,0,2.4-1.3,2.5-3.8c-0.5,0.8-1.4,1.3-2.5,1.3
				c-1.9,0-3.2-1.3-3.2-3.2c0-1.9,1.3-3.2,3.3-3.2c2.3,0,3.5,1.5,3.5,4.3v0.6c0,3.2-1.3,5-3.6,5C38.7,189.9,37.6,189,37.3,187.5z
				 M42.8,183.4c0-1.6-0.9-2.5-2.2-2.5s-2.1,0.9-2.1,2.3s0.8,2.3,2.1,2.3C41.9,185.5,42.8,184.7,42.8,183.4z"/>
		</g>
		<g class="st0">
			<path class="st1" d="M37.3,218.8h1.2c0.2,0.9,0.8,1.5,2,1.5c1.5,0,2.4-1.3,2.5-3.8c-0.5,0.8-1.4,1.3-2.5,1.3
				c-1.9,0-3.2-1.3-3.2-3.2c0-1.9,1.3-3.2,3.3-3.2c2.3,0,3.5,1.5,3.5,4.3v0.6c0,3.2-1.3,5-3.6,5C38.7,221.2,37.6,220.3,37.3,218.8z
				 M42.8,214.7c0-1.6-0.9-2.5-2.2-2.5s-2.1,0.9-2.1,2.3s0.8,2.3,2.1,2.3C41.9,216.8,42.8,216,42.8,214.7z"/>
		</g>
		<g class="st0">
			<path class="st1" d="M46.6,278.5h-1.1v-2.4h6.6v0.4l-3.5,9.2h-1.2l3.4-8.7h-4.1v1.5H46.6z"/>
		</g>
		<g class="st0">
			<path class="st1" d="M37.4,314.8h1.1c0.2,0.9,0.8,1.5,2,1.5c1.5,0,2.4-1.3,2.5-3.8c-0.5,0.8-1.4,1.3-2.5,1.3
				c-1.9,0-3.2-1.3-3.2-3.2c0-1.9,1.3-3.2,3.3-3.2c2.3,0,3.5,1.5,3.5,4.3v0.6c0,3.2-1.3,5-3.6,5C38.7,317.3,37.6,316.4,37.4,314.8z
				 M42.9,310.8c0-1.6-0.9-2.5-2.2-2.5s-2.1,0.9-2.1,2.3s0.8,2.3,2.1,2.3C42,312.9,42.9,312.1,42.9,310.8z"/>
		</g>
		<g class="st0">
			<path class="st1" d="M45.4,314.8h1.1c0.2,0.9,0.8,1.5,2,1.5c1.5,0,2.4-1.3,2.5-3.8c-0.5,0.8-1.4,1.3-2.5,1.3
				c-1.9,0-3.2-1.3-3.2-3.2c0-1.9,1.3-3.2,3.3-3.2c2.3,0,3.5,1.5,3.5,4.3v0.6c0,3.2-1.3,5-3.6,5C46.7,317.3,45.7,316.4,45.4,314.8z
				 M50.9,310.8c0-1.6-0.9-2.5-2.2-2.5s-2.1,0.9-2.1,2.3s0.8,2.3,2.1,2.3C50,312.9,50.9,312.1,50.9,310.8z"/>
		</g>
		<g class="st0">
			<path class="st1" d="M46.4,348.7v-0.9h1.9v-7.6l-2.2,1.6v-1.1l2.2-1.6h1.1v8.7h1.9v0.9H46.4z"/>
		</g>
		<g class="st0">
			<path class="st1" d="M45.2,377.3h1.1c0.1,1.1,0.8,2,2.3,2s2.2-0.7,2.2-1.9c0-1.2-0.7-1.9-2-1.9h-0.7v-1h0.7
				c1.3,0,1.8-0.6,1.8-1.6c0-0.9-0.6-1.6-1.8-1.6s-2,0.7-2.1,1.8h-1c0.1-1.5,1.3-2.8,3.2-2.8s2.9,1.2,2.9,2.5c0,1.1-0.6,1.7-1.5,2.1
				c1.1,0.3,1.9,1.1,1.9,2.4c0,1.8-1.4,2.8-3.4,2.8C46.6,380.3,45.3,379,45.2,377.3z"/>
		</g>
		<g class="st0">
			<path class="st1" d="M37.4,438.6V438c0-2.8,1.4-4.7,3.8-4.7c2.4,0,3.8,1.9,3.8,4.7v0.5c0,2.8-1.4,4.7-3.7,4.7
				C38.9,443.2,37.4,441.4,37.4,438.6z M43.8,438.5V438c0-2.2-0.9-3.7-2.6-3.7c-1.6,0-2.6,1.3-2.6,3.7v0.5c0,2.4,1,3.7,2.6,3.7
				C42.9,442.2,43.8,441,43.8,438.5z"/>
		</g>
		<g class="st0">
			<path class="st1" d="M37.4,344.2v-0.6c0-2.8,1.4-4.7,3.8-4.7c2.4,0,3.8,1.9,3.8,4.7v0.5c0,2.8-1.4,4.7-3.7,4.7
				C38.9,348.9,37.4,347,37.4,344.2z M43.8,344.2v-0.5c0-2.2-0.9-3.7-2.6-3.7c-1.6,0-2.6,1.3-2.6,3.7v0.5c0,2.4,1,3.7,2.6,3.7
				C42.9,347.9,43.8,346.7,43.8,344.2z"/>
		</g>
		<g class="st0">
			<path class="st1" d="M37.4,375.6V375c0-2.8,1.4-4.7,3.8-4.7c2.4,0,3.8,1.9,3.8,4.7v0.5c0,2.8-1.4,4.7-3.7,4.7
				C38.9,380.2,37.4,378.4,37.4,375.6z M43.8,375.5V375c0-2.2-0.9-3.7-2.6-3.7c-1.6,0-2.6,1.3-2.6,3.7v0.5c0,2.4,1,3.7,2.6,3.7
				C42.9,379.2,43.8,378,43.8,375.5z"/>
		</g>
		<g class="st0">
			<path class="st1" d="M47,435.9h-1.1v-2.4h6.6v0.4l-3.5,9.2h-1.2l3.4-8.7H47V435.9z"/>
		</g>
		<g class="st0">
			<path class="st1" d="M37,470v-0.5c0-2.8,1.4-4.7,3.8-4.7c2.4,0,3.8,1.9,3.8,4.7v0.5c0,2.8-1.4,4.7-3.7,4.7
				C38.5,474.7,37,472.8,37,470z M43.4,470v-0.5c0-2.2-0.9-3.7-2.6-3.7c-1.6,0-2.6,1.3-2.6,3.7v0.5c0,2.4,1,3.7,2.6,3.7
				C42.5,473.7,43.4,472.4,43.4,470z"/>
		</g>
		<g class="st0">
			<path class="st1" d="M45.8,472.2h1.1c0.2,0.9,0.8,1.5,2,1.5c1.5,0,2.4-1.3,2.5-3.8c-0.5,0.8-1.4,1.3-2.5,1.3
				c-1.9,0-3.2-1.3-3.2-3.2c0-1.9,1.3-3.2,3.3-3.2c2.3,0,3.5,1.5,3.5,4.3v0.6c0,3.2-1.3,5-3.6,5C47.1,474.7,46,473.7,45.8,472.2z
				 M51.3,468.2c0-1.6-0.9-2.5-2.2-2.5S47,466.6,47,468s0.8,2.3,2.1,2.3C50.4,470.3,51.3,469.4,51.3,468.2z"/>
		</g>
		<g class="st0">
			<path class="st1" d="M39,600.5v-0.9h1.9V592l-2.2,1.6v-1.1l2.2-1.6H42v8.7h2v0.9L39,600.5L39,600.5z"/>
		</g>
		<g class="st0">
			<path class="st1" d="M45.5,593.3h-1.1v-2.4H51v0.4l-3.5,9.2h-1.2l3.4-8.7h-4.1v1.5H45.5z"/>
		</g>
		<g class="st0">
			<path class="st1" d="M38.5,631.9V631h1.9v-7.6l-2.2,1.6v-1.1l2.2-1.6h1.1v8.7h1.9v0.9L38.5,631.9L38.5,631.9z"/>
		</g>
		<g class="st0">
			<path class="st1" d="M44.3,629.6h1.1c0.2,0.9,0.8,1.5,2,1.5c1.5,0,2.4-1.3,2.5-3.8c-0.5,0.8-1.4,1.3-2.5,1.3
				c-1.9,0-3.2-1.3-3.2-3.2s1.3-3.2,3.3-3.2c2.3,0,3.5,1.5,3.5,4.3v0.6c0,3.2-1.3,5-3.6,5C45.6,632,44.6,631.1,44.3,629.6z
				 M49.8,625.5c0-1.6-0.9-2.5-2.2-2.5s-2.1,0.9-2.1,2.3c0,1.4,0.8,2.3,2.1,2.3C48.9,627.6,49.8,626.8,49.8,625.5z"/>
		</g>
		<g class="st0">
			<path class="st1" d="M39.3,506v-0.9h1.9v-7.6l-2.2,1.6V498l2.2-1.6h1.1v8.7h1.9v0.9H39.3z"/>
			<path class="st1" d="M45.5,506v-0.9h1.9v-7.6l-2.2,1.6V498l2.2-1.6h1.1v8.7h1.9v0.9H45.5z"/>
		</g>
		<g class="st0">
			<path class="st1" d="M38.5,537.5v-0.9h1.9V529l-2.2,1.6v-1.1l2.2-1.6h1.1v8.7h1.9v0.9L38.5,537.5L38.5,537.5z"/>
		</g>
		<g class="st0">
			<path class="st1" d="M44.3,534.7h1.1c0.1,1.1,0.8,2,2.3,2s2.2-0.7,2.2-1.9s-0.7-1.9-2-1.9h-0.7v-1h0.7c1.3,0,1.8-0.6,1.8-1.6
				c0-0.9-0.6-1.6-1.8-1.6s-2,0.7-2.1,1.8h-1c0.1-1.5,1.3-2.8,3.2-2.8s2.9,1.2,2.9,2.5c0,1.1-0.6,1.7-1.5,2.1
				c1.1,0.3,1.9,1.1,1.9,2.4c0,1.8-1.4,2.8-3.4,2.8C45.6,537.6,44.3,536.3,44.3,534.7z"/>
		</g>
		<g class="st0">
			<path class="st1" d="M9.7,252.4V251h1.8v-6.5l-2,1.4v-1.6l2.2-1.6h1.6v8.3H15v1.3H9.7V252.4z"/>
		</g>
		<g class="st0">
			<path class="st1" d="M15.7,249.9h1.7c0.2,0.8,0.6,1.2,1.6,1.2c1.4,0,2.1-1.1,2.2-3.3c-0.4,0.7-1.2,1.2-2.4,1.2
				c-1.9,0-3.2-1.2-3.2-3.1c0-2,1.4-3.3,3.6-3.3c2.5,0,3.8,1.7,3.8,4.5v0.5c0,3.2-1.4,4.9-3.9,4.9C17.1,252.5,16,251.5,15.7,249.9z
				 M21.1,246c0-1.3-0.8-2-1.9-2s-1.8,0.8-1.8,1.9c0,1.2,0.7,1.9,1.8,1.9C20.3,247.8,21.1,247,21.1,246z"/>
			<path class="st1" d="M24.1,249.9h1.7c0.2,0.8,0.6,1.2,1.6,1.2c1.4,0,2.1-1.1,2.2-3.3c-0.4,0.7-1.2,1.2-2.4,1.2
				c-1.9,0-3.2-1.2-3.2-3.1c0-2,1.4-3.3,3.6-3.3c2.5,0,3.8,1.7,3.8,4.5v0.5c0,3.2-1.4,4.9-3.9,4.9C25.5,252.5,24.3,251.5,24.1,249.9
				z M29.5,246c0-1.3-0.8-2-1.9-2s-1.8,0.8-1.8,1.9c0,1.2,0.7,1.9,1.8,1.9C28.7,247.8,29.5,247,29.5,246z"/>
		</g>
		<g class="st0">
			<path class="st1" d="M32.3,249.6H34c0.2,0.9,0.5,1.5,1.8,1.5c1.1,0,1.7-0.8,1.7-1.9c0-1.1-0.7-1.9-1.7-1.9s-1.6,0.3-2,0.8h-0.9
				l0.1-5.4h5.9v2.2h-1.5V244h-3v2.8c0.4-0.4,1.1-0.8,2.1-0.8c1.7,0,3,1.2,3,3.2c0,2.1-1.5,3.3-3.5,3.3
				C33.5,252.5,32.4,251.3,32.3,249.6z"/>
		</g>
		<g class="st0">
			<path class="st1" d="M13.2,409h1.5v2.6h-7v-0.9l3.5-3.4c1.1-1,1.5-1.7,1.5-2.6s-0.5-1.4-1.4-1.4s-1.6,0.5-1.7,1.9H7.8
				c0.1-2.1,1.4-3.3,3.4-3.3s3.2,1.1,3.2,2.8c0,1.3-0.8,2.3-2,3.4l-2.4,2.3h3.2V409z"/>
		</g>
		<g class="st0">
			<path class="st1" d="M15.8,407.1v-0.5c0-2.9,1.6-4.7,4.1-4.7c2.4,0,4,1.8,4,4.7v0.5c0,2.9-1.5,4.8-4,4.8
				C17.4,411.8,15.8,410,15.8,407.1z M22.1,407v-0.5c0-2.1-0.8-3.3-2.2-3.3c-1.4,0-2.2,1.2-2.2,3.3v0.5c0,2.2,0.8,3.3,2.3,3.3
				C21.3,410.3,22.1,409.2,22.1,407z"/>
		</g>
		<g class="st0">
			<path class="st1" d="M25,407.1v-0.5c0-2.9,1.6-4.7,4.1-4.7c2.4,0,4,1.8,4,4.7v0.5c0,2.9-1.5,4.8-4,4.8
				C26.6,411.8,25,410,25,407.1z M31.3,407v-0.5c0-2.1-0.8-3.3-2.2-3.3c-1.4,0-2.2,1.2-2.2,3.3v0.5c0,2.2,0.8,3.3,2.3,3.3
				C30.6,410.3,31.3,409.2,31.3,407z"/>
		</g>
		<g class="st0">
			<path class="st1" d="M34,408.9h1.7c0.2,0.9,0.5,1.5,1.8,1.5c1.1,0,1.7-0.8,1.7-1.9s-0.7-1.9-1.7-1.9s-1.6,0.3-2,0.8h-0.9l0.1-5.4
				h5.9v2.2h-1.5v-0.9h-3v2.8c0.4-0.4,1.1-0.8,2.1-0.8c1.7,0,3,1.2,3,3.2c0,2.1-1.5,3.3-3.5,3.3C35.2,411.8,34.1,410.5,34,408.9z"/>
		</g>
		<g class="st0">
			<path class="st1" d="M14.7,566.4h1.5v2.6h-7v-0.9l3.5-3.4c1.1-1,1.5-1.7,1.5-2.6c0-0.9-0.5-1.4-1.4-1.4s-1.6,0.5-1.7,1.9H9.3
				c0.1-2.1,1.4-3.3,3.4-3.3s3.2,1.1,3.2,2.8c0,1.3-0.8,2.3-2,3.4l-2.4,2.3h3.2V566.4z"/>
		</g>
		<g class="st0">
			<path class="st1" d="M17.2,564.4v-0.5c0-2.9,1.6-4.7,4.1-4.7c2.4,0,4,1.8,4,4.7v0.5c0,2.9-1.5,4.8-4,4.8
				C18.8,569.1,17.2,567.3,17.2,564.4z M23.5,564.4v-0.5c0-2.1-0.8-3.3-2.2-3.3c-1.4,0-2.2,1.2-2.2,3.3v0.5c0,2.2,0.8,3.3,2.3,3.3
				C22.8,567.7,23.5,566.6,23.5,564.4z"/>
		</g>
		<g class="st0">
			<path class="st1" d="M26.6,569v-1.3h1.8v-6.5l-2,1.4V561l2.2-1.6h1.6v8.3h1.7v1.3H26.6L26.6,569z"/>
		</g>
		<g class="st0">
			<path class="st1" d="M32.5,566.2h1.7c0.2,0.9,0.5,1.5,1.8,1.5c1.1,0,1.7-0.8,1.7-1.9c0-1.1-0.7-1.9-1.7-1.9s-1.6,0.3-2,0.8h-1
				l0.1-5.4H39v2.2h-1.5v-0.9h-3v2.8c0.4-0.4,1.1-0.8,2.1-0.8c1.7,0,3,1.2,3,3.2c0,2.1-1.5,3.3-3.5,3.3
				C33.7,569.1,32.7,567.9,32.5,566.2z"/>
		</g>
		<g>
			<g>
				<g>
					<path class="st6" d="M118.1,175.5c-1.4,0-2.4-0.3-3-1s-0.9-1.8-0.9-3.3v-5.7c0-1.4,0.3-2.4,1-3.1c0.6-0.7,1.7-1,3.1-1
						c2.7,0,4.1,1.2,4.1,3.7v1.9h-2.1v-1.8c0-1.2-0.7-1.8-2-1.8c-0.7,0-1.2,0.2-1.5,0.5c-0.3,0.4-0.5,1-0.5,1.9v5.1
						c0,0.9,0.2,1.5,0.5,1.9s0.8,0.5,1.5,0.5c0.2,0,0.5,0,0.6,0c0.2,0,0.4-0.1,0.5-0.2c0.2-0.1,0.3-0.2,0.4-0.3s0.2-0.3,0.3-0.5
						s0.1-0.5,0.1-0.8V170h-2v-1.8h4.2v7.2h-0.9l-0.4-1.8c-0.2,0.6-0.5,1.1-1,1.4C119.6,175.3,119,175.5,118.1,175.5z"/>
				</g>
				<g>
					<path class="st6" d="M125.9,175.4h-2v-1.9h2V175.4z"/>
				</g>
				<g>
					<path class="st6" d="M131.1,175.4v-13.9h3.6c1.1,0,1.9,0.2,2.3,0.6c0.5,0.4,0.7,1,0.7,1.9v2c0,0.6-0.2,1-0.5,1.3
						s-0.8,0.5-1.6,0.5c0.9,0,1.6,0.2,2,0.6c0.4,0.4,0.6,0.9,0.6,1.6v2.4c0,1-0.3,1.7-0.8,2.2s-1.4,0.7-2.7,0.7L131.1,175.4
						L131.1,175.4z M134.6,163.4h-1.4v3.8h1.4c0.4,0,0.6-0.1,0.8-0.3s0.2-0.5,0.2-1v-1.4c0-0.5-0.1-0.8-0.2-0.9
						C135.2,163.5,134.9,163.4,134.6,163.4z M134.7,169h-1.5v4.5h1.5c0.5,0,0.9-0.1,1.1-0.3s0.3-0.6,0.3-1.1v-1.7
						c0-0.5-0.1-0.9-0.3-1.1C135.6,169.1,135.2,169,134.7,169z"/>
				</g>
				<g>
					<path class="st6" d="M143.5,175.5c-1.4,0-2.4-0.3-2.9-0.9c-0.6-0.6-0.8-1.7-0.8-3.3v-9.7h2.1v9.5c0,0.9,0.1,1.5,0.4,1.9
						s0.7,0.6,1.3,0.6s1-0.2,1.3-0.5s0.4-1,0.4-1.9v-9.5h2.1v9.7c0,1.6-0.3,2.7-0.9,3.3C145.8,175.2,144.8,175.5,143.5,175.5z"/>
					<path class="st6" d="M156.6,170.7v1.7c0,1.1-0.3,1.9-0.9,2.4s-1.6,0.7-3,0.7s-2.4-0.3-3-0.8s-0.9-1.4-0.9-2.7v-1.7h2.1v1.5
						c0,0.6,0.1,1.1,0.4,1.4s0.8,0.4,1.4,0.4s1.1-0.1,1.4-0.3s0.4-0.5,0.4-1v-1.4c0-0.4-0.1-0.7-0.4-0.9s-0.8-0.3-1.7-0.5
						c-0.7-0.1-1.3-0.3-1.7-0.4c-0.4-0.2-0.8-0.4-1.1-0.6s-0.5-0.5-0.6-0.9c-0.1-0.3-0.2-0.7-0.2-1.2v-1.8c0-1.1,0.3-1.8,0.9-2.3
						s1.6-0.8,3-0.8s2.3,0.3,3,0.8c0.6,0.6,0.9,1.4,0.9,2.6v1.7h-2.1V165c0-0.6-0.1-1-0.4-1.2c-0.3-0.3-0.8-0.4-1.4-0.4
						s-1.1,0.1-1.4,0.3s-0.4,0.5-0.4,1v1.5c0,0.3,0.1,0.5,0.2,0.6c0.1,0.2,0.3,0.3,0.6,0.4c0.3,0.1,0.8,0.2,1.5,0.3s1.2,0.3,1.7,0.4
						c0.4,0.2,0.8,0.3,1.1,0.6s0.5,0.5,0.6,0.9C156.6,169.8,156.6,170.2,156.6,170.7z"/>
					<path class="st6" d="M163.7,175.4v-6.1h-3.3v6.1h-2.1v-13.9h2.1v5.6h3.3v-5.6h2.1v13.9H163.7z"/>
				</g>
				<g>
					<path class="st8" d="M103.3,282.8v-13.9h3.6c1.1,0,1.9,0.2,2.3,0.6c0.5,0.4,0.7,1,0.7,1.9v2c0,0.6-0.2,1-0.5,1.3
						s-0.8,0.5-1.6,0.5c0.9,0,1.6,0.2,2,0.6s0.6,0.9,0.6,1.6v2.4c0,1-0.3,1.7-0.8,2.2s-1.4,0.7-2.7,0.7L103.3,282.8L103.3,282.8z
						 M106.8,270.8h-1.4v3.8h1.4c0.4,0,0.6-0.1,0.8-0.3c0.2-0.2,0.2-0.5,0.2-1V272c0-0.5-0.1-0.8-0.2-0.9
						C107.4,270.9,107.1,270.8,106.8,270.8z M106.9,276.4h-1.5v4.5h1.5c0.5,0,0.9-0.1,1.1-0.3c0.2-0.2,0.3-0.6,0.3-1.1v-1.7
						c0-0.5-0.1-0.9-0.3-1.1C107.8,276.5,107.4,276.4,106.9,276.4z"/>
				</g>
				<g>
					<path class="st8" d="M113.8,282.8h-2v-1.9h2V282.8z"/>
				</g>
				<g>
					<path class="st8" d="M119,278.6V273c0-1.4,0.3-2.4,1-3.1c0.6-0.7,1.7-1,3.1-1s2.5,0.3,3.1,0.9c0.7,0.6,1,1.6,1,2.9v2h-2.1v-1.8
						c0-0.7-0.2-1.2-0.5-1.5s-0.8-0.5-1.5-0.5s-1.2,0.2-1.5,0.5c-0.3,0.4-0.5,1-0.5,1.9v5.1c0,0.9,0.2,1.5,0.5,1.9s0.8,0.5,1.5,0.5
						s1.2-0.2,1.5-0.5s0.5-0.8,0.5-1.6v-2.1h2.1v2.3c0,1.4-0.3,2.4-1,3c-0.6,0.6-1.7,0.9-3.1,0.9c-1.5,0-2.5-0.3-3.2-0.9
						C119.3,281.3,119,280.2,119,278.6z"/>
					<path class="st8" d="M128.8,282.8v-13.9h2.1v11.8h3.8v2h-5.9L128.8,282.8L128.8,282.8z"/>
					<path class="st8" d="M136.3,282.8v-13.9h2.1v13.9H136.3z"/>
					<path class="st8" d="M145.8,282.8l-3.8-8.5v8.5h-2v-13.9h1.8l3.8,8.6v-8.6h2v13.9H145.8z"/>
				</g>
				<g>
					<path class="st8" d="M156,271h-2.4v11.8h-2.1V271h-2.4v-2.1h6.9V271z"/>
				</g>
				<g>
					<path class="st8" d="M165.2,278.7c0,1.4-0.3,2.4-1,3.1s-1.7,1.1-3.1,1.1s-2.5-0.3-3.1-1c-0.7-0.7-1-1.8-1-3.2V273
						c0-1.4,0.3-2.4,1-3.1s1.7-1.1,3.1-1.1s2.5,0.4,3.1,1.1s1,1.7,1,3.1V278.7z M163.1,273.3c0-0.9-0.2-1.6-0.5-1.9
						c-0.3-0.4-0.8-0.5-1.5-0.5s-1.2,0.2-1.5,0.5c-0.3,0.4-0.5,1-0.5,1.9v5.1c0,0.9,0.2,1.6,0.5,1.9c0.3,0.4,0.8,0.5,1.5,0.5
						c0.5,0,0.9-0.1,1.1-0.2c0.3-0.1,0.5-0.4,0.6-0.7c0.1-0.4,0.2-0.9,0.2-1.5L163.1,273.3L163.1,273.3z"/>
					<path class="st8" d="M172.5,282.8l-3.8-8.5v8.5h-2v-13.9h1.8l3.8,8.6v-8.6h2v13.9H172.5z"/>
				</g>
				<g>
					<path class="st6" d="M108.9,647.6v-13.9h3.6c1.5,0,2.5,0.3,3.1,1s1,1.7,1,3.1v5.6c0,1.4-0.3,2.5-1,3.1c-0.6,0.7-1.7,1-3.1,1
						h-3.6V647.6z M112.5,635.7H111v9.9h1.5c0.7,0,1.2-0.2,1.5-0.5c0.3-0.4,0.5-1,0.5-2v-4.9c0-1-0.2-1.6-0.5-2
						C113.7,635.9,113.2,635.7,112.5,635.7z"/>
				</g>
				<g>
					<path class="st6" d="M119.8,647.6h-2v-1.9h2V647.6z"/>
				</g>
				<g>
					<path class="st6" d="M131.8,635.8h-2.4v11.8h-2v-11.8H125v-2.1h6.9L131.8,635.8L131.8,635.8z"/>
				</g>
				<g>
					<path class="st6" d="M135.5,647.6h-2.1v-13.9h3.5c0.9,0,1.5,0.1,2,0.3s0.8,0.5,1,0.9s0.3,1,0.3,1.8v2.1c0,1.3-0.5,2.2-1.4,2.6
						l1.6,6.1h-2.2l-1.5-5.9h-1.2L135.5,647.6L135.5,647.6z M136.9,635.7h-1.4v4.1h1.4c0.4,0,0.7-0.1,0.9-0.2c0.2-0.2,0.3-0.5,0.3-1
						V637c0-0.5-0.1-0.9-0.3-1C137.6,635.8,137.3,635.7,136.9,635.7z"/>
				</g>
				<g>
					<path class="st6" d="M145.5,647.7c-1.4,0-2.4-0.3-2.9-0.9c-0.6-0.6-0.8-1.7-0.8-3.3v-9.7h2.1v9.5c0,0.9,0.1,1.5,0.4,1.9
						s0.7,0.6,1.3,0.6s1-0.2,1.3-0.5c0.3-0.4,0.4-1,0.4-1.9v-9.5h2.1v9.7c0,1.6-0.3,2.7-0.9,3.3S146.9,647.7,145.5,647.7z"/>
					<path class="st6" d="M155.4,647.6l-2.5-10v10h-2v-13.9h2.9l2.2,8.1l2.3-8.1h2.9v13.9h-2v-10l-2.5,10H155.4z"/>
				</g>
				<g>
					<path class="st6" d="M166.5,642.8H165v4.7h-2.1v-13.9h3.6c1.3,0,2.1,0.3,2.7,0.8c0.5,0.5,0.8,1.3,0.8,2.4v2.9
						c0,1.1-0.3,1.8-0.8,2.3C168.6,642.6,167.8,642.8,166.5,642.8z M166.5,635.7H165v5.2h1.5c0.5,0,0.9-0.1,1.1-0.3s0.3-0.6,0.3-1.2
						v-2.1c0-0.6-0.1-1-0.3-1.3C167.3,635.8,167,635.7,166.5,635.7z"/>
				</g>
				<g class="st0">
					<path class="st8" d="M116.8,532.8v-12.2h3.2c1,0,1.6,0.2,2,0.5c0.4,0.4,0.6,0.9,0.6,1.7v1.8c0,0.5-0.1,0.9-0.4,1.2
						s-0.7,0.4-1.4,0.5c0.8,0,1.4,0.2,1.7,0.6s0.5,0.8,0.5,1.5v2.1c0,0.9-0.2,1.5-0.7,1.9s-1.3,0.6-2.4,0.6h-3.1
						C116.8,533,116.8,532.8,116.8,532.8z M119.8,522.2h-1.2v3.4h1.2c0.3,0,0.6-0.1,0.7-0.2c0.1-0.2,0.2-0.4,0.2-0.9v-1.2
						c0-0.4-0.1-0.7-0.2-0.8C120.4,522.3,120.1,522.2,119.8,522.2z M119.9,527.2h-1.3v3.9h1.3c0.4,0,0.8-0.1,0.9-0.3
						c0.2-0.2,0.3-0.5,0.3-1v-1.5c0-0.5-0.1-0.8-0.3-0.9S120.4,527.2,119.9,527.2z"/>
				</g>
				<g class="st0">
					<path class="st8" d="M126.1,532.8h-1.7v-1.7h1.7V532.8z"/>
				</g>
				<g class="st0">
					<path class="st8" d="M137.8,529.1c0,1.2-0.3,2.1-0.9,2.8c-0.6,0.6-1.5,0.9-2.7,0.9s-2.2-0.3-2.7-0.9s-0.9-1.5-0.9-2.8v-5
						c0-1.2,0.3-2.2,0.9-2.8s1.5-0.9,2.7-0.9s2.2,0.3,2.8,0.9c0.6,0.6,0.9,1.5,0.9,2.8L137.8,529.1L137.8,529.1z M136,524.4
						c0-0.8-0.1-1.4-0.4-1.7s-0.7-0.5-1.4-0.5c-0.6,0-1.1,0.2-1.4,0.5s-0.4,0.9-0.4,1.7v4.5c0,0.8,0.1,1.4,0.4,1.7s0.7,0.5,1.4,0.5
						c0.4,0,0.8-0.1,1-0.2c0.2-0.1,0.4-0.3,0.6-0.7c0.1-0.3,0.2-0.8,0.2-1.3L136,524.4L136,524.4z"/>
				</g>
				<g class="st0">
					<path class="st8" d="M139.3,532.8v-12.2h3.2c1,0,1.6,0.2,2,0.5c0.4,0.4,0.6,0.9,0.6,1.7v1.8c0,0.5-0.1,0.9-0.4,1.2
						s-0.7,0.4-1.4,0.5c0.8,0,1.4,0.2,1.7,0.6s0.5,0.8,0.5,1.5v2.1c0,0.9-0.2,1.5-0.7,1.9s-1.3,0.6-2.4,0.6h-3.1L139.3,532.8
						L139.3,532.8z M142.3,522.2h-1.2v3.4h1.2c0.3,0,0.6-0.1,0.7-0.2c0.1-0.2,0.2-0.4,0.2-0.9v-1.2c0-0.4-0.1-0.7-0.2-0.8
						C142.9,522.3,142.6,522.2,142.3,522.2z M142.4,527.2h-1.3v3.9h1.3c0.4,0,0.8-0.1,0.9-0.3c0.2-0.2,0.3-0.5,0.3-1v-1.5
						c0-0.5-0.1-0.8-0.3-0.9S142.9,527.2,142.4,527.2z"/>
				</g>
				<g class="st0">
					<path class="st8" d="M151.6,532.8l-0.5-3.2h-2.3l-0.5,3.2h-1.9l2.1-12.2h2.7l2.1,12.2H151.6z M150.8,527.9l-0.9-5.1l-0.9,5.1
						H150.8z"/>
					<path class="st8" d="M158.7,532.8l-2.2-8.8v8.8h-1.8v-12.2h2.6l2,7.2l2-7.2h2.6v12.2h-1.8V524l-2.2,8.8H158.7z"/>
				</g>
				<g class="st0">
					<path class="st8" d="M170.3,532.8l-0.5-3.2h-2.3l-0.5,3.2h-1.8l2.1-12.2h2.7l2.1,12.2H170.3z M169.4,527.9l-0.9-5.1l-0.9,5.1
						H169.4z"/>
				</g>
			</g>
			<g>
				<path class="st6" d="M136.8,409.8v-13.9h3.6c1.1,0,1.9,0.2,2.3,0.6c0.5,0.4,0.7,1,0.7,1.9v2c0,0.6-0.2,1-0.5,1.3
					s-0.8,0.5-1.6,0.5c0.9,0,1.6,0.2,2,0.6s0.6,0.9,0.6,1.6v2.4c0,1-0.3,1.7-0.8,2.2s-1.4,0.7-2.7,0.7L136.8,409.8L136.8,409.8z"/>
				<path class="st9" d="M140.4,403.4h-1.5v4.5h1.5c0.5,0,0.9-0.1,1.1-0.3c0.2-0.2,0.3-0.6,0.3-1.1v-1.7c0-0.5-0.1-0.9-0.3-1.1
					C141.2,403.5,140.9,403.4,140.4,403.4z"/>
				<g>
					<path class="st9" d="M140.2,397.8h-1.4v3.8h1.4c0.4,0,0.6-0.1,0.8-0.3c0.2-0.2,0.2-0.5,0.2-1v-1.4c0-0.5-0.1-0.8-0.2-0.9
						C140.9,397.9,140.6,397.8,140.2,397.8z"/>
				</g>
				<g>
					<path class="st6" d="M108.4,409.9c-1.4,0-2.4-0.3-3-1s-0.9-1.8-0.9-3.3v-5.7c0-1.4,0.3-2.4,1-3.1c0.6-0.7,1.7-1,3.1-1
						c2.7,0,4.1,1.2,4.1,3.7v1.9h-2.1v-1.8c0-1.2-0.7-1.8-2-1.8c-0.7,0-1.2,0.2-1.5,0.5c-0.3,0.4-0.5,1-0.5,1.9v5.1
						c0,0.9,0.2,1.5,0.5,1.9s0.8,0.5,1.5,0.5c0.2,0,0.5,0,0.6,0s0.4-0.1,0.5-0.2c0.2-0.1,0.3-0.2,0.4-0.3s0.2-0.3,0.3-0.5
						s0.1-0.5,0.1-0.8v-1.6h-2v-1.8h4.2v7.2h-0.9l-0.4-1.8c-0.2,0.6-0.5,1.1-1,1.4C110,409.7,109.3,409.9,108.4,409.9z"/>
				</g>
				<g>
					<path class="st6" d="M116.2,409.8h-2v-1.9h2V409.8z"/>
					<path class="st6" d="M118.2,409.8l-1.9-13.9h2.1l1.3,9.7l1.7-9.7h1.9l1.7,9.7l1.3-9.7h2.1l-1.9,13.9h-2.4l-1.6-9.1l-1.6,9.1
						H118.2z"/>
				</g>
				<g>
					<path class="st6" d="M131.5,409.8h-2v-1.9h2V409.8z"/>
				</g>
				<g>
					<path class="st6" d="M149.1,409.9c-1.4,0-2.4-0.3-2.9-0.9c-0.6-0.6-0.8-1.7-0.8-3.3V396h2.1v9.5c0,0.9,0.1,1.5,0.4,1.9
						c0.3,0.4,0.7,0.6,1.3,0.6s1-0.2,1.3-0.5s0.4-1,0.4-1.9v-9.5h2.1v9.7c0,1.6-0.3,2.7-0.9,3.3
						C151.5,409.5,150.5,409.9,149.1,409.9z"/>
					<path class="st6" d="M162.3,405.1v1.7c0,1.1-0.3,1.9-0.9,2.4s-1.6,0.7-3,0.7s-2.4-0.3-3-0.8s-0.9-1.4-0.9-2.7v-1.7h2.1v1.5
						c0,0.6,0.1,1.1,0.4,1.4s0.8,0.4,1.4,0.4s1.1-0.1,1.4-0.3c0.3-0.2,0.4-0.5,0.4-1v-1.4c0-0.4-0.1-0.7-0.4-0.9
						c-0.3-0.2-0.8-0.3-1.7-0.5c-0.7-0.1-1.3-0.3-1.7-0.4c-0.4-0.2-0.8-0.4-1.1-0.6s-0.5-0.5-0.6-0.9c-0.1-0.3-0.2-0.7-0.2-1.2V399
						c0-1.1,0.3-1.8,0.9-2.3s1.6-0.8,3-0.8s2.3,0.3,3,0.8c0.6,0.6,0.9,1.4,0.9,2.6v1.7h-2.1v-1.6c0-0.6-0.1-1-0.4-1.2
						c-0.3-0.3-0.8-0.4-1.4-0.4s-1.1,0.1-1.4,0.3s-0.4,0.5-0.4,1v1.5c0,0.3,0.1,0.5,0.2,0.6c0.1,0.2,0.3,0.3,0.6,0.4
						s0.8,0.2,1.5,0.3s1.2,0.3,1.7,0.4c0.4,0.2,0.8,0.3,1.1,0.6c0.3,0.3,0.5,0.5,0.6,0.9C162.2,404.1,162.3,404.6,162.3,405.1z"/>
					<path class="st6" d="M169.3,409.8v-6.1H166v6.1h-2.1v-13.9h2.1v5.6h3.3v-5.6h2.1v13.9H169.3z"/>
				</g>
			</g>
		</g>
	</g>
	<g>
		<g class="st0">
			<path class="st1" d="M66.6,70.7h-1.2v4.4H63v-13h3.6c1.3,0,2.2,0.2,2.7,0.7s0.8,1.3,0.8,2.5v2.3c0,1.1-0.3,1.9-0.8,2.4
				C68.8,70.5,67.9,70.7,66.6,70.7z M66.6,64.3h-1.2v4.4h1.2c0.4,0,0.7-0.1,0.9-0.3c0.2-0.2,0.3-0.6,0.3-1.1v-1.5
				c0-0.6-0.1-0.9-0.3-1.1C67.3,64.4,67,64.3,66.6,64.3z"/>
		</g>
		<g class="st0">
			<path class="st1" d="M75.8,75.1l-0.4-3.2h-2L73,75.1h-2.3l1.9-13h3.7l1.9,13H75.8z M75.1,70l-0.8-5.7L73.5,70H75.1z"/>
		</g>
		<g class="st0">
			<path class="st1" d="M81.9,75.1h-2.4v-13H83c0.7,0,1.2,0,1.6,0.1s0.8,0.3,1,0.5c0.3,0.2,0.4,0.6,0.5,0.9s0.2,0.9,0.2,1.5V67
				c0,0.6-0.1,1.1-0.3,1.6s-0.5,0.7-0.9,1l1.3,5.6h-2.5L82.8,70h-1L81.9,75.1L81.9,75.1z M83,64.3h-1.1v3.6H83
				c0.4,0,0.6-0.1,0.7-0.2c0.1-0.2,0.2-0.5,0.2-0.9v-1.2c0-0.5-0.1-0.8-0.2-1C83.6,64.4,83.4,64.3,83,64.3z"/>
		</g>
		<g class="st0">
			<path class="st1" d="M94.1,64.5h-2v10.7h-2.4V64.5h-2v-2.4h6.4V64.5z"/>
			<path class="st1" d="M95.6,75.1v-13H98v13H95.6z"/>
			<path class="st1" d="M103.3,75.1v-13h3.6c1.4,0,2.4,0.3,3,0.9s0.9,1.7,0.9,3.1V71c0,1.5-0.3,2.5-0.9,3.1s-1.6,0.9-3,0.9
				L103.3,75.1L103.3,75.1z M106.9,64.3h-1.2V73h1.2c0.5,0,0.9-0.2,1.1-0.5s0.3-0.9,0.3-1.7v-4.3c0-0.8-0.1-1.4-0.3-1.7
				C107.8,64.5,107.4,64.3,106.9,64.3z"/>
			<path class="st1" d="M115.9,75.2c-0.7,0-1.3-0.1-1.7-0.2s-0.8-0.4-1.1-0.7c-0.3-0.3-0.5-0.8-0.6-1.3s-0.2-1.2-0.2-2v-8.9h2.4v8.6
				c0,0.9,0.1,1.5,0.3,1.8s0.5,0.5,1,0.5c0.4,0,0.8-0.2,1-0.5s0.3-0.9,0.3-1.8v-8.6h2.4V71c0,1.6-0.3,2.7-0.8,3.3
				C118.3,74.9,117.3,75.2,115.9,75.2z"/>
		</g>
		<g class="st0">
			<path class="st1" d="M60.5,91.7h-1.2v4.4h-2.4v-13h3.6c1.3,0,2.2,0.2,2.7,0.7s0.8,1.3,0.8,2.5v2.3c0,1.1-0.3,1.9-0.8,2.4
				C62.7,91.4,61.8,91.7,60.5,91.7z M60.5,85.2h-1.2v4.4h1.2c0.4,0,0.7-0.1,0.9-0.3c0.2-0.2,0.3-0.6,0.3-1.1v-1.5
				c0-0.6-0.1-0.9-0.3-1.1C61.2,85.3,60.9,85.2,60.5,85.2z"/>
			<path class="st1" d="M67.9,96.1h-2.4v-13H69c0.7,0,1.2,0,1.6,0.1s0.8,0.3,1,0.5c0.3,0.2,0.4,0.6,0.5,0.9s0.2,0.9,0.2,1.5v1.8
				c0,0.6-0.1,1.1-0.3,1.6s-0.5,0.7-0.9,1l1.3,5.6h-2.5l-1.1-5.2h-1L67.9,96.1L67.9,96.1z M69,85.2h-1.1v3.6H69
				c0.4,0,0.6-0.1,0.7-0.2c0.1-0.2,0.2-0.5,0.2-0.9v-1.2c0-0.5-0.1-0.8-0.2-1S69.3,85.2,69,85.2z"/>
		</g>
		<g class="st0">
			<path class="st1" d="M73.9,96.1v-13h5.9v2.3h-3.5v3h3.3v2.2h-3.3V94h3.5v2.3h-5.9V96.1z M77.5,82.6H76l0.3-1h2.2L77.5,82.6z"/>
		</g>
		<g class="st0">
			<path class="st1" d="M88.6,91.7v1.4c0,1.1-0.3,1.9-0.9,2.4s-1.5,0.7-2.8,0.7s-2.3-0.3-2.8-0.8s-0.9-1.4-0.9-2.6v-1.4h2.4v1.2
				c0,0.5,0.1,0.9,0.3,1.2s0.6,0.3,1,0.3c0.5,0,0.8-0.1,1-0.2s0.3-0.5,0.3-0.9v-1.1c0-0.4-0.1-0.6-0.3-0.8s-0.7-0.3-1.5-0.5
				c-0.4-0.1-0.8-0.2-1.1-0.3s-0.6-0.2-0.8-0.3s-0.5-0.3-0.6-0.4s-0.3-0.3-0.4-0.5s-0.2-0.4-0.2-0.7s-0.1-0.6-0.1-0.9v-1.4
				c0-1.1,0.3-1.9,0.9-2.4s1.5-0.7,2.8-0.7s2.2,0.3,2.8,0.8s0.9,1.4,0.9,2.5v1.4h-2.4v-1.2c0-0.5-0.1-0.8-0.3-1.1s-0.6-0.3-1-0.3
				s-0.8,0.1-1,0.3s-0.3,0.5-0.3,0.9v1.1c0,0.2,0,0.4,0.1,0.6s0.3,0.2,0.5,0.3s0.7,0.2,1.3,0.3c0.6,0.1,1.1,0.3,1.5,0.4
				s0.7,0.3,1,0.6s0.4,0.5,0.5,0.9S88.6,91.2,88.6,91.7z"/>
			<path class="st1" d="M90.1,96.1v-13h2.4v13H90.1z"/>
			<path class="st1" d="M94.1,96.1v-13h3.6c1.4,0,2.4,0.3,3,0.9s0.9,1.7,0.9,3.1V92c0,1.5-0.3,2.5-0.9,3.1s-1.6,0.9-3,0.9L94.1,96.1
				L94.1,96.1z M97.6,85.2h-1.2v8.7h1.2c0.5,0,0.9-0.2,1.1-0.5s0.3-0.9,0.3-1.7v-4.3c0-0.8-0.1-1.4-0.3-1.7S98.2,85.2,97.6,85.2z"/>
			<path class="st1" d="M103.1,96.1v-13h5.9v2.3h-3.5v3h3.3v2.2h-3.3V94h3.5v2.3h-5.9V96.1z"/>
			<path class="st1" d="M115.7,96.1l-3-7.3v7.3h-2.2v-13h2.1l3,7.3v-7.3h2.2v13H115.7z"/>
			<path class="st1" d="M125.8,85.4h-2v10.7h-2.4V85.4h-2V83h6.4V85.4z"/>
		</g>
	</g>
	<g>
		<g class="st0">
			<path class="st1" d="M259.4,75.1l-0.4-3.2h-2l-0.4,3.2h-2.3l1.9-13h3.7l1.9,13H259.4z M257.2,61.7l-1-1h2.2l0.3,1H257.2z
				 M258.7,70l-0.8-5.7l-0.8,5.7H258.7z"/>
		</g>
		<g class="st0">
			<path class="st1" d="M266.8,75.1v-13h2.4v10.8h3.5v2.3h-5.9V75.1z"/>
			<path class="st1" d="M279.2,75.1l-0.4-3.2h-2l-0.4,3.2h-2.3l1.9-13h3.7l1.9,13H279.2z M278.5,70l-0.8-5.7l-0.8,5.7H278.5z"/>
		</g>
		<g class="st0">
			<path class="st1" d="M286.5,71.2V66c0-1.4,0.3-2.4,0.9-3s1.6-1,2.9-1s2.3,0.3,2.9,0.9c0.6,0.6,0.9,1.6,0.9,2.9v1.9h-2.3V66
				c0-0.6-0.1-1.1-0.4-1.4s-0.6-0.4-1.1-0.4s-0.9,0.1-1.1,0.4s-0.3,0.8-0.3,1.6V71c0,0.8,0.1,1.3,0.3,1.6c0.2,0.3,0.6,0.4,1.1,0.4
				s0.9-0.1,1.1-0.4s0.4-0.7,0.4-1.4v-1.9h2.4v2.1c0,1.4-0.3,2.3-0.9,2.9s-1.6,0.9-2.9,0.9c-1.4,0-2.4-0.3-3-0.9
				S286.5,72.7,286.5,71.2z"/>
			<path class="st1" d="M300.7,75.1v-5.6h-2.5v5.6h-2.4v-13h2.4v5.1h2.5v-5.1h2.4v13H300.7z"/>
			<path class="st1" d="M309.7,75.1l-0.4-3.2h-2l-0.4,3.2h-2.3l1.9-13h3.7l1.9,13H309.7z M309,70l-0.8-5.7l-0.8,5.7H309z"/>
			<path class="st1" d="M317.8,75.1l-2.1-9.1v9.1h-2.3v-13h3.4l1.7,7.1l1.7-7.1h3.4v13h-2.3V66l-2.1,9.1H317.8z"/>
			<path class="st1" d="M325.2,75.1v-13h3.5c1.1,0,1.9,0.2,2.4,0.6s0.7,1,0.7,1.9v1.6c0,0.5-0.2,1-0.5,1.3s-0.8,0.5-1.5,0.6
				c0.8,0.1,1.5,0.3,1.8,0.7c0.3,0.4,0.6,0.9,0.6,1.6v2c0,1-0.3,1.7-0.8,2.1s-1.4,0.7-2.7,0.7L325.2,75.1L325.2,75.1z M328.6,64.1
				h-1v3.3h1c0.3,0,0.5-0.1,0.7-0.2c0.1-0.2,0.2-0.5,0.2-0.9v-1.1c0-0.4-0.1-0.7-0.2-0.9C329.1,64.2,328.9,64.1,328.6,64.1z
				 M328.8,69.3h-1.2v3.9h1.2c0.4,0,0.7-0.1,0.9-0.3c0.2-0.2,0.3-0.5,0.3-1.1v-1.3c0-0.5-0.1-0.8-0.3-1S329.2,69.3,328.8,69.3z"/>
			<path class="st1" d="M336.2,75.1h-2.4v-13h3.5c0.7,0,1.2,0,1.6,0.1s0.8,0.3,1,0.5c0.3,0.2,0.4,0.6,0.5,0.9s0.2,0.9,0.2,1.5V67
				c0,0.6-0.1,1.1-0.3,1.6c-0.2,0.5-0.5,0.7-0.9,1l1.3,5.6h-2.5l-1.1-5.2h-1L336.2,75.1L336.2,75.1z M337.3,64.3h-1.1v3.6h1.1
				c0.4,0,0.6-0.1,0.7-0.2c0.1-0.2,0.2-0.5,0.2-0.9v-1.2c0-0.5-0.1-0.8-0.2-1C337.9,64.4,337.6,64.3,337.3,64.3z"/>
			<path class="st1" d="M342.2,75.1v-13h5.9v2.3h-3.5v3h3.3v2.2h-3.3V73h3.5v2.3h-5.9V75.1z"/>
		</g>
		<g class="st0">
			<path class="st1" d="M236.3,96.1v-13h3.6c1.4,0,2.4,0.3,3,0.9s0.9,1.7,0.9,3.1V92c0,1.5-0.3,2.5-0.9,3.1s-1.6,0.9-3,0.9
				L236.3,96.1L236.3,96.1z M239.8,85.2h-1.2v8.7h1.2c0.5,0,0.9-0.2,1.1-0.5c0.2-0.3,0.3-0.9,0.3-1.7v-4.3c0-0.8-0.1-1.4-0.3-1.7
				C240.7,85.4,240.4,85.2,239.8,85.2z"/>
		</g>
		<g class="st0">
			<path class="st1" d="M245.3,96.1v-13h5.9v2.3h-3.5v3h3.3v2.2h-3.3V94h3.5v2.3h-5.9V96.1z"/>
		</g>
		<g class="st0">
			<path class="st1" d="M259.9,91.7v1.4c0,1.1-0.3,1.9-0.9,2.4s-1.5,0.7-2.8,0.7c-1.3,0-2.3-0.3-2.8-0.8s-0.9-1.4-0.9-2.6v-1.4h2.4
				v1.2c0,0.5,0.1,0.9,0.3,1.2c0.2,0.2,0.6,0.3,1,0.3c0.5,0,0.8-0.1,1-0.2c0.2-0.2,0.3-0.5,0.3-0.9v-1.1c0-0.4-0.1-0.6-0.3-0.8
				c-0.2-0.1-0.7-0.3-1.5-0.5c-0.4-0.1-0.8-0.2-1.1-0.3c-0.3-0.1-0.6-0.2-0.8-0.3s-0.5-0.3-0.6-0.4c-0.2-0.1-0.3-0.3-0.4-0.5
				c-0.1-0.2-0.2-0.4-0.2-0.7s-0.1-0.6-0.1-0.9v-1.4c0-1.1,0.3-1.9,0.9-2.4s1.5-0.7,2.8-0.7s2.2,0.3,2.8,0.8s0.9,1.4,0.9,2.5v1.4
				h-2.4v-1.2c0-0.5-0.1-0.8-0.3-1.1c-0.2-0.2-0.6-0.3-1-0.3c-0.5,0-0.8,0.1-1,0.3c-0.2,0.2-0.3,0.5-0.3,0.9v1.1
				c0,0.2,0,0.4,0.1,0.6c0.1,0.1,0.3,0.2,0.5,0.3s0.7,0.2,1.3,0.3c0.6,0.1,1.1,0.3,1.5,0.4c0.4,0.2,0.7,0.3,1,0.6
				c0.3,0.2,0.4,0.5,0.5,0.9S259.9,91.2,259.9,91.7z"/>
			<path class="st1" d="M267.6,96.1h-2.4v-13h3.5c0.7,0,1.2,0,1.6,0.1s0.8,0.3,1,0.5c0.3,0.2,0.4,0.6,0.5,0.9s0.2,0.9,0.2,1.5v1.8
				c0,0.6-0.1,1.1-0.3,1.6c-0.2,0.5-0.5,0.7-0.9,1l1.3,5.6h-2.5l-1.1-5.2h-1L267.6,96.1L267.6,96.1z M268.7,85.2h-1.1v3.6h1.1
				c0.4,0,0.6-0.1,0.7-0.2c0.1-0.2,0.2-0.5,0.2-0.9v-1.2c0-0.5-0.1-0.8-0.2-1C269.3,85.3,269,85.2,268.7,85.2z"/>
			<path class="st1" d="M273.6,96.1v-13h5.9v2.3H276v3h3.3v2.2H276V94h3.5v2.3h-5.9V96.1z"/>
			<path class="st1" d="M284.6,91.7h-1.2v4.4H281v-13h3.6c1.3,0,2.2,0.2,2.7,0.7s0.8,1.3,0.8,2.5v2.3c0,1.1-0.3,1.9-0.8,2.4
				S285.8,91.7,284.6,91.7z M284.6,85.2h-1.2v4.4h1.2c0.4,0,0.7-0.1,0.9-0.3c0.2-0.2,0.3-0.6,0.3-1.1v-1.5c0-0.6-0.1-0.9-0.3-1.1
				C285.3,85.4,285,85.2,284.6,85.2z"/>
			<path class="st1" d="M291.9,96.1h-2.4v-13h3.5c0.7,0,1.2,0,1.6,0.1s0.8,0.3,1,0.5s0.4,0.6,0.5,0.9s0.2,0.9,0.2,1.5v1.8
				c0,0.6-0.1,1.1-0.3,1.6c-0.2,0.5-0.5,0.7-0.9,1l1.3,5.6h-2.5l-1.1-5.2h-1L291.9,96.1L291.9,96.1z M293,85.2h-1.1v3.6h1.1
				c0.4,0,0.6-0.1,0.7-0.2s0.2-0.5,0.2-0.9v-1.2c0-0.5-0.1-0.8-0.2-1S293.4,85.2,293,85.2z"/>
		</g>
		<g class="st0">
			<path class="st1" d="M298,96.1v-13h5.9v2.3h-3.5v3h3.3v2.2h-3.3V94h3.5v2.3H298V96.1z M301.6,82.6h-1.5l0.3-1h2.2L301.6,82.6z"/>
		</g>
		<g class="st0">
			<path class="st1" d="M312.6,91.7v1.4c0,1.1-0.3,1.9-0.9,2.4s-1.5,0.7-2.8,0.7s-2.3-0.3-2.8-0.8s-0.9-1.4-0.9-2.6v-1.4h2.4v1.2
				c0,0.5,0.1,0.9,0.3,1.2c0.2,0.2,0.6,0.3,1,0.3c0.5,0,0.8-0.1,1-0.2c0.2-0.2,0.3-0.5,0.3-0.9v-1.1c0-0.4-0.1-0.6-0.3-0.8
				c-0.2-0.1-0.7-0.3-1.5-0.5c-0.4-0.1-0.8-0.2-1.1-0.3c-0.3-0.1-0.6-0.2-0.8-0.3c-0.2-0.1-0.5-0.3-0.6-0.4
				c-0.2-0.1-0.3-0.3-0.4-0.5s-0.2-0.4-0.2-0.7s-0.1-0.6-0.1-0.9v-1.4c0-1.1,0.3-1.9,0.9-2.4s1.5-0.7,2.8-0.7s2.2,0.3,2.8,0.8
				s0.9,1.4,0.9,2.5v1.4h-2.4v-1.2c0-0.5-0.1-0.8-0.3-1.1c-0.2-0.2-0.6-0.3-1-0.3c-0.5,0-0.8,0.1-1,0.3c-0.2,0.2-0.3,0.5-0.3,0.9
				v1.1c0,0.2,0,0.4,0.1,0.6c0.1,0.1,0.3,0.2,0.5,0.3c0.2,0.1,0.7,0.2,1.3,0.3c0.6,0.1,1.1,0.3,1.5,0.4c0.4,0.2,0.7,0.3,1,0.6
				c0.3,0.2,0.4,0.5,0.5,0.9S312.6,91.2,312.6,91.7z"/>
			<path class="st1" d="M314.2,96.1v-13h5.9v2.3h-3.5v3h3.3v2.2h-3.3V94h3.5v2.3h-5.9V96.1z"/>
			<path class="st1" d="M326.8,96.1l-3-7.3v7.3h-2.2v-13h2.1l3,7.3v-7.3h2.2v13H326.8z"/>
		</g>
		<g class="st0">
			<path class="st1" d="M336.9,85.4h-2v10.7h-2.4V85.4h-2V83h6.4V85.4z"/>
		</g>
		<g class="st0">
			<path class="st1" d="M342.1,96.1l-0.4-3.2h-2l-0.4,3.2H337l1.9-13h3.7l1.9,13H342.1z M341.5,91l-0.8-5.7l-0.8,5.7H341.5z"/>
			<path class="st1" d="M351.1,96.1l-3-7.3v7.3h-2.2v-13h2.1l3,7.3v-7.3h2.2v13H351.1z"/>
		</g>
		<g class="st0">
			<path class="st1" d="M361.2,85.4h-2v10.7h-2.4V85.4h-2V83h6.4V85.4z"/>
		</g>
		<g class="st0">
			<path class="st1" d="M369.9,91.7v1.4c0,1.1-0.3,1.9-0.9,2.4s-1.5,0.7-2.8,0.7s-2.3-0.3-2.8-0.8s-0.9-1.4-0.9-2.6v-1.4h2.4v1.2
				c0,0.5,0.1,0.9,0.3,1.2s0.6,0.3,1,0.3c0.5,0,0.8-0.1,1-0.2s0.3-0.5,0.3-0.9v-1.1c0-0.4-0.1-0.6-0.3-0.8s-0.7-0.3-1.5-0.5
				c-0.4-0.1-0.8-0.2-1.1-0.3s-0.6-0.2-0.8-0.3s-0.5-0.3-0.6-0.4s-0.3-0.3-0.4-0.5s-0.2-0.4-0.2-0.7s-0.1-0.6-0.1-0.9v-1.4
				c0-1.1,0.3-1.9,0.9-2.4s1.5-0.7,2.8-0.7s2.2,0.3,2.8,0.8s0.9,1.4,0.9,2.5v1.4h-2.4v-1.2c0-0.5-0.1-0.8-0.3-1.1s-0.6-0.3-1-0.3
				s-0.8,0.1-1,0.3s-0.3,0.5-0.3,0.9v1.1c0,0.2,0,0.4,0.1,0.6s0.3,0.2,0.5,0.3s0.7,0.2,1.3,0.3c0.6,0.1,1.1,0.3,1.5,0.4
				s0.7,0.3,1,0.6s0.4,0.5,0.5,0.9S369.9,91.2,369.9,91.7z"/>
		</g>
	</g>
	<g>
		<g class="st0">
			<path class="st1" d="M195,75.1l-0.5-3.1h-2l-0.4,3.2h-2.3l1.9-13h3.7l1.9,13L195,75.1L195,75.1z M194.3,70l-0.8-5.7l-0.7,5.7
				H194.3z"/>
		</g>
		<g class="st0">
			<path class="st1" d="M201.9,75.2c-0.7,0-1.3-0.1-1.7-0.2s-0.8-0.4-1.1-0.7c-0.3-0.3-0.5-0.8-0.6-1.3s-0.2-1.2-0.2-2v-8.9h2.4v8.6
				c0,0.9,0.1,1.5,0.3,1.8s0.5,0.5,1,0.5c0.4,0,0.8-0.2,1-0.5s0.3-0.9,0.3-1.8v-8.6h2.4V71c0,1.6-0.3,2.7-0.8,3.3
				C204.2,74.9,203.3,75.2,201.9,75.2z"/>
		</g>
		<g class="st0">
			<path class="st1" d="M185.7,91.7v1.4c0,1.1-0.3,1.9-0.9,2.4c-0.6,0.5-1.5,0.7-2.8,0.7s-2.3-0.3-2.8-0.8s-0.9-1.4-0.9-2.6v-1.4
				h2.4v1.2c0,0.5,0.1,0.9,0.3,1.2c0.2,0.2,0.6,0.3,1,0.3c0.5,0,0.8-0.1,1-0.2c0.2-0.2,0.3-0.5,0.3-0.9v-1.1c0-0.4-0.1-0.6-0.3-0.8
				c-0.2-0.1-0.7-0.3-1.5-0.5c-0.4-0.1-0.8-0.2-1.1-0.3c-0.3-0.1-0.6-0.2-0.8-0.3c-0.2-0.1-0.5-0.3-0.6-0.4
				c-0.2-0.1-0.3-0.3-0.4-0.5c-0.1-0.2-0.2-0.4-0.2-0.7s-0.1-0.6-0.1-0.9v-1.4c0-1.1,0.3-1.9,0.9-2.4c0.6-0.5,1.5-0.7,2.8-0.7
				s2.2,0.3,2.8,0.8s0.9,1.4,0.9,2.5v1.4h-2.4v-1.2c0-0.5-0.1-0.8-0.3-1.1c-0.2-0.2-0.6-0.3-1-0.3c-0.5,0-0.8,0.1-1,0.3
				c-0.2,0.2-0.3,0.5-0.3,0.9v1.1c0,0.2,0,0.4,0.1,0.6c0.1,0.1,0.3,0.2,0.5,0.3s0.7,0.2,1.3,0.3c0.6,0.1,1.1,0.3,1.5,0.4
				c0.4,0.2,0.7,0.3,1,0.6c0.3,0.2,0.4,0.5,0.5,0.9S185.7,91.2,185.7,91.7z"/>
			<path class="st1" d="M187.2,96.1v-13h5.9v2.3h-3.5v3h3.3v2.2h-3.3V94h3.5v2.3h-5.9V96.1z M190.8,82.6h-1.5l0.3-1h2.2L190.8,82.6z
				"/>
			<path class="st1" d="M199.9,96.1l-3-7.3v7.3h-2.2v-13h2.1l3,7.3v-7.3h2.2v13H199.9z"/>
		</g>
		<g class="st0">
			<path class="st1" d="M208.5,96.1l-0.4-3.2h-2l-0.4,3.2h-2.3l1.9-13h3.7l1.9,13H208.5z M207.9,91l-0.8-5.7l-0.8,5.7H207.9z"/>
		</g>
		<g class="st0">
			<path class="st1" d="M217.3,85.4h-2v10.7h-2.4V85.4h-2V83h6.4V85.4z"/>
		</g>
	</g>
</g>
<g id="Mode_Isolation_1_">
	<g>
		<line class="st10" x1="292.6" y1="231.6" x2="91.4" y2="231.6"/>
		<line class="st10" x1="292.6" y1="483.6" x2="91.4" y2="483.6"/>
		<line class="st11" x1="292.6" y1="609.5" x2="91.4" y2="609.5"/>
		<line class="st11" x1="292.6" y1="389.2" x2="91.4" y2="389.2"/>
		<line class="st11" x1="292.6" y1="420.5" x2="91.4" y2="420.5"/>
	</g>
</g>
</svg>
